ISO-10303-21;
HEADER;
/* Generated by software containing ST-Developer
 * from STEP Tools, Inc. (www.steptools.com) 
 */

FILE_DESCRIPTION(
/* description */ (''),
/* implementation_level */ '2;1');

FILE_NAME(
/* name */ 'drilled_014.step',
/* time_stamp */ '2024-11-27T18:23:08+03:00',
/* author */ (''),
/* organization */ (''),
/* preprocessor_version */ 'ST-DEVELOPER v20',
/* originating_system */ 'Autodesk Translation Framework v13.14.0.145',

/* authorisation */ '');

FILE_SCHEMA (('AUTOMOTIVE_DESIGN { 1 0 10303 214 3 1 1 }'));
ENDSEC;

DATA;
#10=MECHANICAL_DESIGN_GEOMETRIC_PRESENTATION_REPRESENTATION('',(#13),#321);
#11=SHAPE_REPRESENTATION_RELATIONSHIP('SRR','None',#328,#12);
#12=ADVANCED_BREP_SHAPE_REPRESENTATION('',(#14),#320);
#13=STYLED_ITEM('',(#337),#14);
#14=MANIFOLD_SOLID_BREP('Body1',#185);
#15=PLANE('',#203);
#16=PLANE('',#207);
#17=PLANE('',#208);
#18=PLANE('',#209);
#19=PLANE('',#210);
#20=PLANE('',#214);
#21=CYLINDRICAL_SURFACE('',#201,12.5);
#22=CYLINDRICAL_SURFACE('',#205,15.);
#23=CYLINDRICAL_SURFACE('',#212,25.);
#24=FACE_OUTER_BOUND('',#34,.T.);
#25=FACE_OUTER_BOUND('',#35,.T.);
#26=FACE_OUTER_BOUND('',#36,.T.);
#27=FACE_OUTER_BOUND('',#37,.T.);
#28=FACE_OUTER_BOUND('',#38,.T.);
#29=FACE_OUTER_BOUND('',#39,.T.);
#30=FACE_OUTER_BOUND('',#40,.T.);
#31=FACE_OUTER_BOUND('',#41,.T.);
#32=FACE_OUTER_BOUND('',#42,.T.);
#33=FACE_OUTER_BOUND('',#43,.T.);
#34=EDGE_LOOP('',(#126,#127,#128));
#35=EDGE_LOOP('',(#129,#130,#131,#132));
#36=EDGE_LOOP('',(#133,#134,#135,#136,#137));
#37=EDGE_LOOP('',(#138,#139,#140,#141));
#38=EDGE_LOOP('',(#142,#143,#144,#145,#146,#147));
#39=EDGE_LOOP('',(#148,#149,#150,#151,#152,#153));
#40=EDGE_LOOP('',(#154,#155,#156,#157,#158,#159,#160,#161));
#41=EDGE_LOOP('',(#162,#163,#164,#165));
#42=EDGE_LOOP('',(#166,#167,#168,#169));
#43=EDGE_LOOP('',(#170,#171,#172,#173));
#44=CIRCLE('',#200,12.5);
#45=CIRCLE('',#202,12.5);
#46=CIRCLE('',#204,15.);
#47=CIRCLE('',#206,15.);
#48=CIRCLE('',#211,25.);
#49=CIRCLE('',#213,25.);
#50=LINE('',#271,#68);
#51=LINE('',#273,#69);
#52=LINE('',#277,#70);
#53=LINE('',#279,#71);
#54=LINE('',#283,#72);
#55=LINE('',#285,#73);
#56=LINE('',#288,#74);
#57=LINE('',#291,#75);
#58=LINE('',#294,#76);
#59=LINE('',#297,#77);
#60=LINE('',#299,#78);
#61=LINE('',#300,#79);
#62=LINE('',#303,#80);
#63=LINE('',#305,#81);
#64=LINE('',#306,#82);
#65=LINE('',#309,#83);
#66=LINE('',#311,#84);
#67=LINE('',#312,#85);
#68=VECTOR('',#219,10.);
#69=VECTOR('',#220,10.);
#70=VECTOR('',#225,10.);
#71=VECTOR('',#226,10.);
#72=VECTOR('',#231,10.);
#73=VECTOR('',#232,10.);
#74=VECTOR('',#235,10.);
#75=VECTOR('',#238,10.);
#76=VECTOR('',#241,10.);
#77=VECTOR('',#244,10.);
#78=VECTOR('',#245,10.);
#79=VECTOR('',#246,10.);
#80=VECTOR('',#249,10.);
#81=VECTOR('',#250,10.);
#82=VECTOR('',#251,10.);
#83=VECTOR('',#254,10.);
#84=VECTOR('',#255,10.);
#85=VECTOR('',#256,10.);
#86=VERTEX_POINT('',#269);
#87=VERTEX_POINT('',#270);
#88=VERTEX_POINT('',#272);
#89=VERTEX_POINT('',#276);
#90=VERTEX_POINT('',#278);
#91=VERTEX_POINT('',#282);
#92=VERTEX_POINT('',#284);
#93=VERTEX_POINT('',#286);
#94=VERTEX_POINT('',#290);
#95=VERTEX_POINT('',#292);
#96=VERTEX_POINT('',#296);
#97=VERTEX_POINT('',#298);
#98=VERTEX_POINT('',#302);
#99=VERTEX_POINT('',#304);
#100=VERTEX_POINT('',#308);
#101=VERTEX_POINT('',#310);
#102=EDGE_CURVE('',#86,#87,#50,.T.);
#103=EDGE_CURVE('',#88,#86,#51,.T.);
#104=EDGE_CURVE('',#87,#88,#44,.T.);
#105=EDGE_CURVE('',#87,#89,#52,.T.);
#106=EDGE_CURVE('',#90,#88,#53,.T.);
#107=EDGE_CURVE('',#89,#90,#45,.T.);
#108=EDGE_CURVE('',#89,#91,#54,.T.);
#109=EDGE_CURVE('',#92,#90,#55,.T.);
#110=EDGE_CURVE('',#93,#92,#46,.T.);
#111=EDGE_CURVE('',#91,#93,#56,.T.);
#112=EDGE_CURVE('',#94,#92,#57,.T.);
#113=EDGE_CURVE('',#95,#94,#47,.T.);
#114=EDGE_CURVE('',#93,#95,#58,.T.);
#115=EDGE_CURVE('',#91,#96,#59,.T.);
#116=EDGE_CURVE('',#97,#96,#60,.T.);
#117=EDGE_CURVE('',#86,#97,#61,.T.);
#118=EDGE_CURVE('',#98,#95,#62,.T.);
#119=EDGE_CURVE('',#99,#98,#63,.T.);
#120=EDGE_CURVE('',#96,#99,#64,.T.);
#121=EDGE_CURVE('',#100,#97,#65,.T.);
#122=EDGE_CURVE('',#101,#100,#66,.T.);
#123=EDGE_CURVE('',#94,#101,#67,.T.);
#124=EDGE_CURVE('',#100,#99,#48,.T.);
#125=EDGE_CURVE('',#101,#98,#49,.T.);
#126=ORIENTED_EDGE('',*,*,#102,.F.);
#127=ORIENTED_EDGE('',*,*,#103,.F.);
#128=ORIENTED_EDGE('',*,*,#104,.F.);
#129=ORIENTED_EDGE('',*,*,#105,.F.);
#130=ORIENTED_EDGE('',*,*,#104,.T.);
#131=ORIENTED_EDGE('',*,*,#106,.F.);
#132=ORIENTED_EDGE('',*,*,#107,.F.);
#133=ORIENTED_EDGE('',*,*,#108,.F.);
#134=ORIENTED_EDGE('',*,*,#107,.T.);
#135=ORIENTED_EDGE('',*,*,#109,.F.);
#136=ORIENTED_EDGE('',*,*,#110,.F.);
#137=ORIENTED_EDGE('',*,*,#111,.F.);
#138=ORIENTED_EDGE('',*,*,#112,.F.);
#139=ORIENTED_EDGE('',*,*,#113,.F.);
#140=ORIENTED_EDGE('',*,*,#114,.F.);
#141=ORIENTED_EDGE('',*,*,#110,.T.);
#142=ORIENTED_EDGE('',*,*,#102,.T.);
#143=ORIENTED_EDGE('',*,*,#105,.T.);
#144=ORIENTED_EDGE('',*,*,#108,.T.);
#145=ORIENTED_EDGE('',*,*,#115,.T.);
#146=ORIENTED_EDGE('',*,*,#116,.F.);
#147=ORIENTED_EDGE('',*,*,#117,.F.);
#148=ORIENTED_EDGE('',*,*,#111,.T.);
#149=ORIENTED_EDGE('',*,*,#114,.T.);
#150=ORIENTED_EDGE('',*,*,#118,.F.);
#151=ORIENTED_EDGE('',*,*,#119,.F.);
#152=ORIENTED_EDGE('',*,*,#120,.F.);
#153=ORIENTED_EDGE('',*,*,#115,.F.);
#154=ORIENTED_EDGE('',*,*,#103,.T.);
#155=ORIENTED_EDGE('',*,*,#117,.T.);
#156=ORIENTED_EDGE('',*,*,#121,.F.);
#157=ORIENTED_EDGE('',*,*,#122,.F.);
#158=ORIENTED_EDGE('',*,*,#123,.F.);
#159=ORIENTED_EDGE('',*,*,#112,.T.);
#160=ORIENTED_EDGE('',*,*,#109,.T.);
#161=ORIENTED_EDGE('',*,*,#106,.T.);
#162=ORIENTED_EDGE('',*,*,#121,.T.);
#163=ORIENTED_EDGE('',*,*,#116,.T.);
#164=ORIENTED_EDGE('',*,*,#120,.T.);
#165=ORIENTED_EDGE('',*,*,#124,.F.);
#166=ORIENTED_EDGE('',*,*,#122,.T.);
#167=ORIENTED_EDGE('',*,*,#124,.T.);
#168=ORIENTED_EDGE('',*,*,#119,.T.);
#169=ORIENTED_EDGE('',*,*,#125,.F.);
#170=ORIENTED_EDGE('',*,*,#113,.T.);
#171=ORIENTED_EDGE('',*,*,#123,.T.);
#172=ORIENTED_EDGE('',*,*,#125,.T.);
#173=ORIENTED_EDGE('',*,*,#118,.T.);
#174=CONICAL_SURFACE('',#199,6.25,1.02974425867665);
#175=ADVANCED_FACE('',(#24),#174,.F.);
#176=ADVANCED_FACE('',(#25),#21,.F.);
#177=ADVANCED_FACE('',(#26),#15,.F.);
#178=ADVANCED_FACE('',(#27),#22,.F.);
#179=ADVANCED_FACE('',(#28),#16,.F.);
#180=ADVANCED_FACE('',(#29),#17,.F.);
#181=ADVANCED_FACE('',(#30),#18,.F.);
#182=ADVANCED_FACE('',(#31),#19,.F.);
#183=ADVANCED_FACE('',(#32),#23,.T.);
#184=ADVANCED_FACE('',(#33),#20,.T.);
#185=CLOSED_SHELL('',(#175,#176,#177,#178,#179,#180,#181,#182,#183,#184));
#186=DERIVED_UNIT_ELEMENT(#188,1.);
#187=DERIVED_UNIT_ELEMENT(#323,-3.);
#188=(
MASS_UNIT()
NAMED_UNIT(*)
SI_UNIT(.KILO.,.GRAM.)
);
#189=DERIVED_UNIT((#186,#187));
#190=MEASURE_REPRESENTATION_ITEM('density measure',
POSITIVE_RATIO_MEASURE(7850.),#189);
#191=PROPERTY_DEFINITION_REPRESENTATION(#196,#193);
#192=PROPERTY_DEFINITION_REPRESENTATION(#197,#194);
#193=REPRESENTATION('material name',(#195),#320);
#194=REPRESENTATION('density',(#190),#320);
#195=DESCRIPTIVE_REPRESENTATION_ITEM('Steel','Steel');
#196=PROPERTY_DEFINITION('material property','material name',#330);
#197=PROPERTY_DEFINITION('material property','density of part',#330);
#198=AXIS2_PLACEMENT_3D('',#267,#215,#216);
#199=AXIS2_PLACEMENT_3D('',#268,#217,#218);
#200=AXIS2_PLACEMENT_3D('',#274,#221,#222);
#201=AXIS2_PLACEMENT_3D('',#275,#223,#224);
#202=AXIS2_PLACEMENT_3D('',#280,#227,#228);
#203=AXIS2_PLACEMENT_3D('',#281,#229,#230);
#204=AXIS2_PLACEMENT_3D('',#287,#233,#234);
#205=AXIS2_PLACEMENT_3D('',#289,#236,#237);
#206=AXIS2_PLACEMENT_3D('',#293,#239,#240);
#207=AXIS2_PLACEMENT_3D('',#295,#242,#243);
#208=AXIS2_PLACEMENT_3D('',#301,#247,#248);
#209=AXIS2_PLACEMENT_3D('',#307,#252,#253);
#210=AXIS2_PLACEMENT_3D('',#313,#257,#258);
#211=AXIS2_PLACEMENT_3D('',#314,#259,#260);
#212=AXIS2_PLACEMENT_3D('',#315,#261,#262);
#213=AXIS2_PLACEMENT_3D('',#316,#263,#264);
#214=AXIS2_PLACEMENT_3D('',#317,#265,#266);
#215=DIRECTION('axis',(0.,0.,1.));
#216=DIRECTION('refdir',(1.,0.,0.));
#217=DIRECTION('center_axis',(0.,1.,0.));
#218=DIRECTION('ref_axis',(-0.923879532511287,0.,-0.38268343236509));
#219=DIRECTION('',(0.606108810937832,0.515038074910054,0.606108810937832));
#220=DIRECTION('',(-0.857167300702112,-0.515038074910054,0.));
#221=DIRECTION('center_axis',(0.,-1.,0.));
#222=DIRECTION('ref_axis',(0.,0.,1.));
#223=DIRECTION('center_axis',(0.,-1.,0.));
#224=DIRECTION('ref_axis',(-0.923879532511287,0.,-0.38268343236509));
#225=DIRECTION('',(0.,1.,0.));
#226=DIRECTION('',(0.,-1.,0.));
#227=DIRECTION('center_axis',(0.,-1.,0.));
#228=DIRECTION('ref_axis',(0.,0.,1.));
#229=DIRECTION('center_axis',(0.,-1.,0.));
#230=DIRECTION('ref_axis',(0.,0.,1.));
#231=DIRECTION('',(0.707106781186548,0.,0.707106781186548));
#232=DIRECTION('',(-1.,0.,0.));
#233=DIRECTION('center_axis',(0.,-1.,0.));
#234=DIRECTION('ref_axis',(0.,0.,1.));
#235=DIRECTION('',(0.,0.,1.));
#236=DIRECTION('center_axis',(0.,-1.,0.));
#237=DIRECTION('ref_axis',(-0.912870929175277,0.,-0.408248290463863));
#238=DIRECTION('',(0.,-1.,0.));
#239=DIRECTION('center_axis',(0.,-1.,0.));
#240=DIRECTION('ref_axis',(0.,0.,1.));
#241=DIRECTION('',(0.,1.,0.));
#242=DIRECTION('center_axis',(-0.707106781186548,0.,0.707106781186548));
#243=DIRECTION('ref_axis',(-0.707106781186548,0.,-0.707106781186548));
#244=DIRECTION('',(0.,-1.,0.));
#245=DIRECTION('',(0.707106781186548,0.,0.707106781186548));
#246=DIRECTION('',(0.,-1.,0.));
#247=DIRECTION('center_axis',(-1.,0.,0.));
#248=DIRECTION('ref_axis',(0.,0.,-1.));
#249=DIRECTION('',(0.,0.,-1.));
#250=DIRECTION('',(0.,1.,0.));
#251=DIRECTION('',(0.,0.,1.));
#252=DIRECTION('center_axis',(0.,0.,-1.));
#253=DIRECTION('ref_axis',(1.,0.,0.));
#254=DIRECTION('',(-1.,0.,0.));
#255=DIRECTION('',(0.,-1.,0.));
#256=DIRECTION('',(1.,0.,0.));
#257=DIRECTION('center_axis',(0.,1.,0.));
#258=DIRECTION('ref_axis',(1.,0.,0.));
#259=DIRECTION('center_axis',(0.,1.,0.));
#260=DIRECTION('ref_axis',(1.,0.,0.));
#261=DIRECTION('center_axis',(0.,1.,0.));
#262=DIRECTION('ref_axis',(-0.836660026534075,0.,-0.547722557505166));
#263=DIRECTION('center_axis',(0.,1.,0.));
#264=DIRECTION('ref_axis',(1.,0.,0.));
#265=DIRECTION('center_axis',(0.,1.,0.));
#266=DIRECTION('ref_axis',(1.,0.,0.));
#267=CARTESIAN_POINT('',(0.,0.,0.));
#268=CARTESIAN_POINT('Origin',(0.,21.2446211310777,0.));
#269=CARTESIAN_POINT('',(0.,17.4892422621555,0.));
#270=CARTESIAN_POINT('',(8.83883476483184,25.,8.83883476483184));
#271=CARTESIAN_POINT('',(4.41941738241592,21.2446211310777,4.41941738241592));
#272=CARTESIAN_POINT('',(12.5,25.,0.));
#273=CARTESIAN_POINT('',(6.25,21.2446211310777,0.));
#274=CARTESIAN_POINT('Origin',(0.,25.,0.));
#275=CARTESIAN_POINT('Origin',(0.,37.5,0.));
#276=CARTESIAN_POINT('',(8.83883476483184,40.,8.83883476483184));
#277=CARTESIAN_POINT('',(8.83883476483184,37.5,8.83883476483184));
#278=CARTESIAN_POINT('',(12.5,40.,0.));
#279=CARTESIAN_POINT('',(12.5,37.5,0.));
#280=CARTESIAN_POINT('Origin',(0.,40.,0.));
#281=CARTESIAN_POINT('Origin',(0.,40.,0.));
#282=CARTESIAN_POINT('',(10.,40.,10.));
#283=CARTESIAN_POINT('',(5.,40.,5.));
#284=CARTESIAN_POINT('',(15.,40.,0.));
#285=CARTESIAN_POINT('',(0.,40.,0.));
#286=CARTESIAN_POINT('',(10.,40.,11.1803398874989));
#287=CARTESIAN_POINT('Origin',(0.,40.,0.));
#288=CARTESIAN_POINT('',(10.,40.,11.4564392373896));
#289=CARTESIAN_POINT('Origin',(0.,45.,0.));
#290=CARTESIAN_POINT('',(15.,50.,0.));
#291=CARTESIAN_POINT('',(15.,45.,0.));
#292=CARTESIAN_POINT('',(10.,50.,11.1803398874989));
#293=CARTESIAN_POINT('Origin',(0.,50.,0.));
#294=CARTESIAN_POINT('',(10.,45.,11.1803398874989));
#295=CARTESIAN_POINT('Origin',(10.,50.,10.));
#296=CARTESIAN_POINT('',(10.,0.,10.));
#297=CARTESIAN_POINT('',(10.,50.,10.));
#298=CARTESIAN_POINT('',(0.,0.,0.));
#299=CARTESIAN_POINT('',(5.,0.,5.));
#300=CARTESIAN_POINT('',(0.,50.,0.));
#301=CARTESIAN_POINT('Origin',(10.,50.,22.9128784747792));
#302=CARTESIAN_POINT('',(10.,50.,22.9128784747792));
#303=CARTESIAN_POINT('',(10.,50.,11.4564392373896));
#304=CARTESIAN_POINT('',(10.,0.,22.9128784747792));
#305=CARTESIAN_POINT('',(10.,0.,22.9128784747792));
#306=CARTESIAN_POINT('',(10.,0.,11.4564392373896));
#307=CARTESIAN_POINT('Origin',(0.,50.,0.));
#308=CARTESIAN_POINT('',(25.,0.,0.));
#309=CARTESIAN_POINT('',(0.,0.,0.));
#310=CARTESIAN_POINT('',(25.,50.,0.));
#311=CARTESIAN_POINT('',(25.,0.,0.));
#312=CARTESIAN_POINT('',(0.,50.,0.));
#313=CARTESIAN_POINT('Origin',(0.,0.,0.));
#314=CARTESIAN_POINT('Origin',(0.,0.,0.));
#315=CARTESIAN_POINT('Origin',(0.,0.,0.));
#316=CARTESIAN_POINT('Origin',(0.,50.,0.));
#317=CARTESIAN_POINT('Origin',(0.,50.,0.));
#318=UNCERTAINTY_MEASURE_WITH_UNIT(LENGTH_MEASURE(0.01),#322,
'DISTANCE_ACCURACY_VALUE',
'Maximum model space distance between geometric entities at asserted c
onnectivities');
#319=UNCERTAINTY_MEASURE_WITH_UNIT(LENGTH_MEASURE(0.01),#322,
'DISTANCE_ACCURACY_VALUE',
'Maximum model space distance between geometric entities at asserted c
onnectivities');
#320=(
GEOMETRIC_REPRESENTATION_CONTEXT(3)
GLOBAL_UNCERTAINTY_ASSIGNED_CONTEXT((#318))
GLOBAL_UNIT_ASSIGNED_CONTEXT((#322,#324,#325))
REPRESENTATION_CONTEXT('','3D')
);
#321=(
GEOMETRIC_REPRESENTATION_CONTEXT(3)
GLOBAL_UNCERTAINTY_ASSIGNED_CONTEXT((#319))
GLOBAL_UNIT_ASSIGNED_CONTEXT((#322,#324,#325))
REPRESENTATION_CONTEXT('','3D')
);
#322=(
LENGTH_UNIT()
NAMED_UNIT(*)
SI_UNIT(.MILLI.,.METRE.)
);
#323=(
LENGTH_UNIT()
NAMED_UNIT(*)
SI_UNIT($,.METRE.)
);
#324=(
NAMED_UNIT(*)
PLANE_ANGLE_UNIT()
SI_UNIT($,.RADIAN.)
);
#325=(
NAMED_UNIT(*)
SI_UNIT($,.STERADIAN.)
SOLID_ANGLE_UNIT()
);
#326=SHAPE_DEFINITION_REPRESENTATION(#327,#328);
#327=PRODUCT_DEFINITION_SHAPE('',$,#330);
#328=SHAPE_REPRESENTATION('',(#198),#320);
#329=PRODUCT_DEFINITION_CONTEXT('part definition',#334,'design');
#330=PRODUCT_DEFINITION('(Unsaved)','(Unsaved)',#331,#329);
#331=PRODUCT_DEFINITION_FORMATION('',$,#336);
#332=PRODUCT_RELATED_PRODUCT_CATEGORY('(Unsaved)','(Unsaved)',(#336));
#333=APPLICATION_PROTOCOL_DEFINITION('international standard',
'automotive_design',2009,#334);
#334=APPLICATION_CONTEXT(
'Core Data for Automotive Mechanical Design Process');
#335=PRODUCT_CONTEXT('part definition',#334,'mechanical');
#336=PRODUCT('(Unsaved)','(Unsaved)',$,(#335));
#337=PRESENTATION_STYLE_ASSIGNMENT((#338));
#338=SURFACE_STYLE_USAGE(.BOTH.,#339);
#339=SURFACE_SIDE_STYLE('',(#340));
#340=SURFACE_STYLE_FILL_AREA(#341);
#341=FILL_AREA_STYLE('Steel - Satin',(#342));
#342=FILL_AREA_STYLE_COLOUR('Steel - Satin',#343);
#343=COLOUR_RGB('Steel - Satin',0.627450980392157,0.627450980392157,0.627450980392157);
ENDSEC;
END-ISO-10303-21;
