ISO-10303-21;
HEADER;
/* Generated by software containing ST-Developer
 * from STEP Tools, Inc. (www.steptools.com) 
 */

FILE_DESCRIPTION(
/* description */ (''),
/* implementation_level */ '2;1');

FILE_NAME(
/* name */ 'drilled_012.step',
/* time_stamp */ '2024-11-25T12:25:04+03:00',
/* author */ (''),
/* organization */ (''),
/* preprocessor_version */ 'ST-DEVELOPER v20',
/* originating_system */ 'Autodesk Translation Framework v13.14.0.145',

/* authorisation */ '');

FILE_SCHEMA (('AUTOMOTIVE_DESIGN { 1 0 10303 214 3 1 1 }'));
ENDSEC;

DATA;
#10=MECHANICAL_DESIGN_GEOMETRIC_PRESENTATION_REPRESENTATION('',(#13),#1983);
#11=SHAPE_REPRESENTATION_RELATIONSHIP('SRR','None',#1990,#12);
#12=ADVANCED_BREP_SHAPE_REPRESENTATION('',(#14),#1982);
#13=STYLED_ITEM('',(#1999),#14);
#14=MANIFOLD_SOLID_BREP('Body1',#1123);
#15=FACE_BOUND('',#138,.T.);
#16=FACE_BOUND('',#146,.T.);
#17=PLANE('',#1149);
#18=PLANE('',#1156);
#19=PLANE('',#1157);
#20=PLANE('',#1179);
#21=PLANE('',#1183);
#22=PLANE('',#1184);
#23=PLANE('',#1206);
#24=PLANE('',#1210);
#25=PLANE('',#1211);
#26=PLANE('',#1233);
#27=PLANE('',#1237);
#28=PLANE('',#1238);
#29=PLANE('',#1245);
#30=PLANE('',#1264);
#31=PLANE('',#1265);
#32=PLANE('',#1270);
#33=PLANE('',#1272);
#34=PLANE('',#1274);
#35=FACE_OUTER_BOUND('',#93,.T.);
#36=FACE_OUTER_BOUND('',#94,.T.);
#37=FACE_OUTER_BOUND('',#95,.T.);
#38=FACE_OUTER_BOUND('',#96,.T.);
#39=FACE_OUTER_BOUND('',#97,.T.);
#40=FACE_OUTER_BOUND('',#98,.T.);
#41=FACE_OUTER_BOUND('',#99,.T.);
#42=FACE_OUTER_BOUND('',#100,.T.);
#43=FACE_OUTER_BOUND('',#101,.T.);
#44=FACE_OUTER_BOUND('',#102,.T.);
#45=FACE_OUTER_BOUND('',#103,.T.);
#46=FACE_OUTER_BOUND('',#104,.T.);
#47=FACE_OUTER_BOUND('',#105,.T.);
#48=FACE_OUTER_BOUND('',#106,.T.);
#49=FACE_OUTER_BOUND('',#107,.T.);
#50=FACE_OUTER_BOUND('',#108,.T.);
#51=FACE_OUTER_BOUND('',#109,.T.);
#52=FACE_OUTER_BOUND('',#110,.T.);
#53=FACE_OUTER_BOUND('',#111,.T.);
#54=FACE_OUTER_BOUND('',#112,.T.);
#55=FACE_OUTER_BOUND('',#113,.T.);
#56=FACE_OUTER_BOUND('',#114,.T.);
#57=FACE_OUTER_BOUND('',#115,.T.);
#58=FACE_OUTER_BOUND('',#116,.T.);
#59=FACE_OUTER_BOUND('',#117,.T.);
#60=FACE_OUTER_BOUND('',#118,.T.);
#61=FACE_OUTER_BOUND('',#119,.T.);
#62=FACE_OUTER_BOUND('',#120,.T.);
#63=FACE_OUTER_BOUND('',#121,.T.);
#64=FACE_OUTER_BOUND('',#122,.T.);
#65=FACE_OUTER_BOUND('',#123,.T.);
#66=FACE_OUTER_BOUND('',#124,.T.);
#67=FACE_OUTER_BOUND('',#125,.T.);
#68=FACE_OUTER_BOUND('',#126,.T.);
#69=FACE_OUTER_BOUND('',#127,.T.);
#70=FACE_OUTER_BOUND('',#128,.T.);
#71=FACE_OUTER_BOUND('',#129,.T.);
#72=FACE_OUTER_BOUND('',#130,.T.);
#73=FACE_OUTER_BOUND('',#131,.T.);
#74=FACE_OUTER_BOUND('',#132,.T.);
#75=FACE_OUTER_BOUND('',#133,.T.);
#76=FACE_OUTER_BOUND('',#134,.T.);
#77=FACE_OUTER_BOUND('',#135,.T.);
#78=FACE_OUTER_BOUND('',#136,.T.);
#79=FACE_OUTER_BOUND('',#137,.T.);
#80=FACE_OUTER_BOUND('',#139,.T.);
#81=FACE_OUTER_BOUND('',#140,.T.);
#82=FACE_OUTER_BOUND('',#141,.T.);
#83=FACE_OUTER_BOUND('',#142,.T.);
#84=FACE_OUTER_BOUND('',#143,.T.);
#85=FACE_OUTER_BOUND('',#144,.T.);
#86=FACE_OUTER_BOUND('',#145,.T.);
#87=FACE_OUTER_BOUND('',#147,.T.);
#88=FACE_OUTER_BOUND('',#148,.T.);
#89=FACE_OUTER_BOUND('',#149,.T.);
#90=FACE_OUTER_BOUND('',#150,.T.);
#91=FACE_OUTER_BOUND('',#151,.T.);
#92=FACE_OUTER_BOUND('',#152,.T.);
#93=EDGE_LOOP('',(#689,#690,#691,#692));
#94=EDGE_LOOP('',(#693,#694,#695,#696));
#95=EDGE_LOOP('',(#697,#698,#699,#700));
#96=EDGE_LOOP('',(#701,#702,#703,#704));
#97=EDGE_LOOP('',(#705,#706,#707,#708));
#98=EDGE_LOOP('',(#709,#710,#711,#712));
#99=EDGE_LOOP('',(#713,#714,#715,#716));
#100=EDGE_LOOP('',(#717,#718,#719,#720));
#101=EDGE_LOOP('',(#721,#722,#723,#724));
#102=EDGE_LOOP('',(#725,#726,#727,#728));
#103=EDGE_LOOP('',(#729,#730,#731,#732));
#104=EDGE_LOOP('',(#733,#734,#735,#736));
#105=EDGE_LOOP('',(#737,#738,#739,#740));
#106=EDGE_LOOP('',(#741,#742,#743,#744));
#107=EDGE_LOOP('',(#745,#746,#747,#748));
#108=EDGE_LOOP('',(#749,#750,#751,#752));
#109=EDGE_LOOP('',(#753,#754,#755,#756));
#110=EDGE_LOOP('',(#757,#758,#759,#760));
#111=EDGE_LOOP('',(#761,#762,#763,#764));
#112=EDGE_LOOP('',(#765,#766,#767,#768));
#113=EDGE_LOOP('',(#769,#770,#771,#772));
#114=EDGE_LOOP('',(#773,#774,#775,#776));
#115=EDGE_LOOP('',(#777,#778,#779,#780));
#116=EDGE_LOOP('',(#781,#782,#783,#784));
#117=EDGE_LOOP('',(#785,#786,#787,#788));
#118=EDGE_LOOP('',(#789,#790,#791,#792));
#119=EDGE_LOOP('',(#793,#794,#795,#796));
#120=EDGE_LOOP('',(#797,#798,#799,#800));
#121=EDGE_LOOP('',(#801,#802,#803,#804));
#122=EDGE_LOOP('',(#805,#806,#807,#808));
#123=EDGE_LOOP('',(#809,#810,#811,#812));
#124=EDGE_LOOP('',(#813,#814,#815,#816));
#125=EDGE_LOOP('',(#817,#818,#819,#820));
#126=EDGE_LOOP('',(#821,#822,#823,#824));
#127=EDGE_LOOP('',(#825,#826,#827,#828));
#128=EDGE_LOOP('',(#829,#830,#831,#832));
#129=EDGE_LOOP('',(#833,#834,#835,#836));
#130=EDGE_LOOP('',(#837,#838,#839,#840));
#131=EDGE_LOOP('',(#841,#842,#843,#844));
#132=EDGE_LOOP('',(#845,#846,#847,#848));
#133=EDGE_LOOP('',(#849,#850,#851,#852));
#134=EDGE_LOOP('',(#853,#854,#855,#856));
#135=EDGE_LOOP('',(#857,#858,#859,#860));
#136=EDGE_LOOP('',(#861,#862,#863,#864));
#137=EDGE_LOOP('',(#865,#866,#867,#868,#869,#870,#871,#872));
#138=EDGE_LOOP('',(#873,#874,#875,#876,#877,#878,#879,#880,#881,#882,#883,
#884,#885,#886,#887,#888,#889,#890,#891,#892,#893,#894,#895,#896,#897,#898,
#899,#900,#901,#902,#903,#904,#905,#906,#907,#908,#909,#910,#911,#912,#913,
#914,#915,#916,#917,#918,#919,#920));
#139=EDGE_LOOP('',(#921,#922,#923,#924));
#140=EDGE_LOOP('',(#925,#926,#927,#928));
#141=EDGE_LOOP('',(#929,#930,#931,#932));
#142=EDGE_LOOP('',(#933,#934,#935,#936));
#143=EDGE_LOOP('',(#937,#938,#939,#940));
#144=EDGE_LOOP('',(#941,#942,#943,#944));
#145=EDGE_LOOP('',(#945,#946,#947,#948,#949,#950,#951,#952));
#146=EDGE_LOOP('',(#953,#954,#955,#956,#957,#958,#959,#960,#961,#962,#963,
#964,#965,#966,#967,#968,#969,#970,#971,#972,#973,#974,#975,#976,#977,#978,
#979,#980,#981,#982,#983,#984,#985,#986,#987,#988,#989,#990,#991,#992,#993,
#994,#995,#996,#997,#998,#999,#1000));
#147=EDGE_LOOP('',(#1001,#1002,#1003,#1004));
#148=EDGE_LOOP('',(#1005,#1006,#1007,#1008));
#149=EDGE_LOOP('',(#1009,#1010,#1011,#1012));
#150=EDGE_LOOP('',(#1013,#1014,#1015,#1016));
#151=EDGE_LOOP('',(#1017,#1018,#1019,#1020));
#152=EDGE_LOOP('',(#1021,#1022,#1023,#1024));
#153=LINE('',#1647,#241);
#154=LINE('',#1650,#242);
#155=LINE('',#1656,#243);
#156=LINE('',#1662,#244);
#157=LINE('',#1668,#245);
#158=LINE('',#1671,#246);
#159=LINE('',#1673,#247);
#160=LINE('',#1674,#248);
#161=LINE('',#1680,#249);
#162=LINE('',#1683,#250);
#163=LINE('',#1690,#251);
#164=LINE('',#1692,#252);
#165=LINE('',#1694,#253);
#166=LINE('',#1695,#254);
#167=LINE('',#1698,#255);
#168=LINE('',#1700,#256);
#169=LINE('',#1701,#257);
#170=LINE('',#1707,#258);
#171=LINE('',#1716,#259);
#172=LINE('',#1719,#260);
#173=LINE('',#1725,#261);
#174=LINE('',#1731,#262);
#175=LINE('',#1737,#263);
#176=LINE('',#1743,#264);
#177=LINE('',#1746,#265);
#178=LINE('',#1748,#266);
#179=LINE('',#1749,#267);
#180=LINE('',#1754,#268);
#181=LINE('',#1759,#269);
#182=LINE('',#1761,#270);
#183=LINE('',#1763,#271);
#184=LINE('',#1764,#272);
#185=LINE('',#1767,#273);
#186=LINE('',#1769,#274);
#187=LINE('',#1770,#275);
#188=LINE('',#1776,#276);
#189=LINE('',#1785,#277);
#190=LINE('',#1788,#278);
#191=LINE('',#1794,#279);
#192=LINE('',#1800,#280);
#193=LINE('',#1806,#281);
#194=LINE('',#1812,#282);
#195=LINE('',#1815,#283);
#196=LINE('',#1817,#284);
#197=LINE('',#1818,#285);
#198=LINE('',#1823,#286);
#199=LINE('',#1828,#287);
#200=LINE('',#1830,#288);
#201=LINE('',#1832,#289);
#202=LINE('',#1833,#290);
#203=LINE('',#1836,#291);
#204=LINE('',#1838,#292);
#205=LINE('',#1839,#293);
#206=LINE('',#1845,#294);
#207=LINE('',#1854,#295);
#208=LINE('',#1857,#296);
#209=LINE('',#1863,#297);
#210=LINE('',#1869,#298);
#211=LINE('',#1875,#299);
#212=LINE('',#1881,#300);
#213=LINE('',#1884,#301);
#214=LINE('',#1886,#302);
#215=LINE('',#1887,#303);
#216=LINE('',#1892,#304);
#217=LINE('',#1897,#305);
#218=LINE('',#1899,#306);
#219=LINE('',#1901,#307);
#220=LINE('',#1902,#308);
#221=LINE('',#1905,#309);
#222=LINE('',#1907,#310);
#223=LINE('',#1908,#311);
#224=LINE('',#1914,#312);
#225=LINE('',#1923,#313);
#226=LINE('',#1927,#314);
#227=LINE('',#1931,#315);
#228=LINE('',#1934,#316);
#229=LINE('',#1949,#317);
#230=LINE('',#1952,#318);
#231=LINE('',#1955,#319);
#232=LINE('',#1956,#320);
#233=LINE('',#1959,#321);
#234=LINE('',#1963,#322);
#235=LINE('',#1967,#323);
#236=LINE('',#1970,#324);
#237=LINE('',#1972,#325);
#238=LINE('',#1974,#326);
#239=LINE('',#1976,#327);
#240=LINE('',#1978,#328);
#241=VECTOR('',#1281,10.);
#242=VECTOR('',#1284,10.);
#243=VECTOR('',#1291,10.);
#244=VECTOR('',#1298,10.);
#245=VECTOR('',#1305,10.);
#246=VECTOR('',#1308,10.);
#247=VECTOR('',#1309,10.);
#248=VECTOR('',#1310,10.);
#249=VECTOR('',#1315,10.);
#250=VECTOR('',#1318,10.);
#251=VECTOR('',#1327,10.);
#252=VECTOR('',#1328,10.);
#253=VECTOR('',#1329,10.);
#254=VECTOR('',#1330,10.);
#255=VECTOR('',#1333,10.);
#256=VECTOR('',#1334,10.);
#257=VECTOR('',#1335,10.);
#258=VECTOR('',#1342,10.);
#259=VECTOR('',#1353,10.);
#260=VECTOR('',#1356,10.);
#261=VECTOR('',#1363,10.);
#262=VECTOR('',#1370,10.);
#263=VECTOR('',#1377,10.);
#264=VECTOR('',#1384,10.);
#265=VECTOR('',#1387,10.);
#266=VECTOR('',#1388,10.);
#267=VECTOR('',#1389,10.);
#268=VECTOR('',#1394,10.);
#269=VECTOR('',#1399,10.);
#270=VECTOR('',#1400,10.);
#271=VECTOR('',#1401,10.);
#272=VECTOR('',#1402,10.);
#273=VECTOR('',#1405,10.);
#274=VECTOR('',#1406,10.);
#275=VECTOR('',#1407,10.);
#276=VECTOR('',#1414,10.);
#277=VECTOR('',#1425,10.);
#278=VECTOR('',#1428,10.);
#279=VECTOR('',#1435,10.);
#280=VECTOR('',#1442,10.);
#281=VECTOR('',#1449,10.);
#282=VECTOR('',#1456,10.);
#283=VECTOR('',#1459,10.);
#284=VECTOR('',#1460,10.);
#285=VECTOR('',#1461,10.);
#286=VECTOR('',#1466,10.);
#287=VECTOR('',#1471,10.);
#288=VECTOR('',#1472,10.);
#289=VECTOR('',#1473,10.);
#290=VECTOR('',#1474,10.);
#291=VECTOR('',#1477,10.);
#292=VECTOR('',#1478,10.);
#293=VECTOR('',#1479,10.);
#294=VECTOR('',#1486,10.);
#295=VECTOR('',#1497,10.);
#296=VECTOR('',#1500,10.);
#297=VECTOR('',#1507,10.);
#298=VECTOR('',#1514,10.);
#299=VECTOR('',#1521,10.);
#300=VECTOR('',#1528,10.);
#301=VECTOR('',#1531,10.);
#302=VECTOR('',#1532,10.);
#303=VECTOR('',#1533,10.);
#304=VECTOR('',#1538,10.);
#305=VECTOR('',#1543,10.);
#306=VECTOR('',#1544,10.);
#307=VECTOR('',#1545,10.);
#308=VECTOR('',#1546,10.);
#309=VECTOR('',#1549,10.);
#310=VECTOR('',#1550,10.);
#311=VECTOR('',#1551,10.);
#312=VECTOR('',#1558,10.);
#313=VECTOR('',#1569,10.);
#314=VECTOR('',#1572,10.);
#315=VECTOR('',#1575,10.);
#316=VECTOR('',#1578,10.);
#317=VECTOR('',#1605,10.);
#318=VECTOR('',#1608,10.);
#319=VECTOR('',#1611,10.);
#320=VECTOR('',#1612,10.);
#321=VECTOR('',#1615,10.);
#322=VECTOR('',#1618,10.);
#323=VECTOR('',#1621,10.);
#324=VECTOR('',#1626,10.);
#325=VECTOR('',#1629,10.);
#326=VECTOR('',#1632,10.);
#327=VECTOR('',#1635,10.);
#328=VECTOR('',#1638,10.);
#329=CIRCLE('',#1138,1.84356836631149);
#330=CIRCLE('',#1139,1.84356836631149);
#331=CIRCLE('',#1141,2.4325811523947);
#332=CIRCLE('',#1142,2.4325811523947);
#333=CIRCLE('',#1144,18.6589981973264);
#334=CIRCLE('',#1145,18.6589981973264);
#335=CIRCLE('',#1147,1.24334482513011);
#336=CIRCLE('',#1148,1.24334482513011);
#337=CIRCLE('',#1151,2.5223412605413);
#338=CIRCLE('',#1152,2.5223412605413);
#339=CIRCLE('',#1154,11.0978340801191);
#340=CIRCLE('',#1155,11.0978340801191);
#341=CIRCLE('',#1159,0.548898740446604);
#342=CIRCLE('',#1160,0.548898740446604);
#343=CIRCLE('',#1162,1.04666402186263);
#344=CIRCLE('',#1163,1.04666402186263);
#345=CIRCLE('',#1165,11.0978340801191);
#346=CIRCLE('',#1166,11.0978340801191);
#347=CIRCLE('',#1168,1.84356836631149);
#348=CIRCLE('',#1169,1.84356836631149);
#349=CIRCLE('',#1171,2.4325811523947);
#350=CIRCLE('',#1172,2.4325811523947);
#351=CIRCLE('',#1174,18.6589981973264);
#352=CIRCLE('',#1175,18.6589981973264);
#353=CIRCLE('',#1177,1.24334482513011);
#354=CIRCLE('',#1178,1.24334482513011);
#355=CIRCLE('',#1181,2.5223412605413);
#356=CIRCLE('',#1182,2.5223412605413);
#357=CIRCLE('',#1186,0.548898740446604);
#358=CIRCLE('',#1187,0.548898740446604);
#359=CIRCLE('',#1189,1.04666402186263);
#360=CIRCLE('',#1190,1.04666402186263);
#361=CIRCLE('',#1192,11.0978340801191);
#362=CIRCLE('',#1193,11.0978340801191);
#363=CIRCLE('',#1195,1.84356836631149);
#364=CIRCLE('',#1196,1.84356836631149);
#365=CIRCLE('',#1198,2.4325811523947);
#366=CIRCLE('',#1199,2.4325811523947);
#367=CIRCLE('',#1201,18.6589981973264);
#368=CIRCLE('',#1202,18.6589981973264);
#369=CIRCLE('',#1204,1.24334482513011);
#370=CIRCLE('',#1205,1.24334482513011);
#371=CIRCLE('',#1208,2.5223412605413);
#372=CIRCLE('',#1209,2.5223412605413);
#373=CIRCLE('',#1213,0.548898740446604);
#374=CIRCLE('',#1214,0.548898740446604);
#375=CIRCLE('',#1216,1.04666402186263);
#376=CIRCLE('',#1217,1.04666402186263);
#377=CIRCLE('',#1219,11.0978340801191);
#378=CIRCLE('',#1220,11.0978340801191);
#379=CIRCLE('',#1222,1.84356836631149);
#380=CIRCLE('',#1223,1.84356836631149);
#381=CIRCLE('',#1225,2.4325811523947);
#382=CIRCLE('',#1226,2.4325811523947);
#383=CIRCLE('',#1228,18.6589981973264);
#384=CIRCLE('',#1229,18.6589981973264);
#385=CIRCLE('',#1231,1.24334482513011);
#386=CIRCLE('',#1232,1.24334482513011);
#387=CIRCLE('',#1235,2.5223412605413);
#388=CIRCLE('',#1236,2.5223412605413);
#389=CIRCLE('',#1240,0.548898740446604);
#390=CIRCLE('',#1241,0.548898740446604);
#391=CIRCLE('',#1243,1.04666402186263);
#392=CIRCLE('',#1244,1.04666402186263);
#393=CIRCLE('',#1246,7.5);
#394=CIRCLE('',#1247,7.5);
#395=CIRCLE('',#1248,7.5);
#396=CIRCLE('',#1249,7.5);
#397=CIRCLE('',#1250,10.);
#398=CIRCLE('',#1251,10.);
#399=CIRCLE('',#1252,10.);
#400=CIRCLE('',#1253,10.);
#401=CIRCLE('',#1255,10.);
#402=CIRCLE('',#1257,10.);
#403=CIRCLE('',#1259,10.);
#404=CIRCLE('',#1261,10.);
#405=CIRCLE('',#1263,7.5);
#406=CIRCLE('',#1266,7.5);
#407=CIRCLE('',#1267,7.5);
#408=CIRCLE('',#1268,7.5);
#409=VERTEX_POINT('',#1643);
#410=VERTEX_POINT('',#1644);
#411=VERTEX_POINT('',#1646);
#412=VERTEX_POINT('',#1648);
#413=VERTEX_POINT('',#1652);
#414=VERTEX_POINT('',#1654);
#415=VERTEX_POINT('',#1658);
#416=VERTEX_POINT('',#1660);
#417=VERTEX_POINT('',#1664);
#418=VERTEX_POINT('',#1666);
#419=VERTEX_POINT('',#1670);
#420=VERTEX_POINT('',#1672);
#421=VERTEX_POINT('',#1676);
#422=VERTEX_POINT('',#1677);
#423=VERTEX_POINT('',#1679);
#424=VERTEX_POINT('',#1681);
#425=VERTEX_POINT('',#1688);
#426=VERTEX_POINT('',#1689);
#427=VERTEX_POINT('',#1691);
#428=VERTEX_POINT('',#1693);
#429=VERTEX_POINT('',#1697);
#430=VERTEX_POINT('',#1699);
#431=VERTEX_POINT('',#1703);
#432=VERTEX_POINT('',#1705);
#433=VERTEX_POINT('',#1712);
#434=VERTEX_POINT('',#1713);
#435=VERTEX_POINT('',#1715);
#436=VERTEX_POINT('',#1717);
#437=VERTEX_POINT('',#1721);
#438=VERTEX_POINT('',#1723);
#439=VERTEX_POINT('',#1727);
#440=VERTEX_POINT('',#1729);
#441=VERTEX_POINT('',#1733);
#442=VERTEX_POINT('',#1735);
#443=VERTEX_POINT('',#1739);
#444=VERTEX_POINT('',#1741);
#445=VERTEX_POINT('',#1745);
#446=VERTEX_POINT('',#1747);
#447=VERTEX_POINT('',#1751);
#448=VERTEX_POINT('',#1753);
#449=VERTEX_POINT('',#1757);
#450=VERTEX_POINT('',#1758);
#451=VERTEX_POINT('',#1760);
#452=VERTEX_POINT('',#1762);
#453=VERTEX_POINT('',#1766);
#454=VERTEX_POINT('',#1768);
#455=VERTEX_POINT('',#1772);
#456=VERTEX_POINT('',#1774);
#457=VERTEX_POINT('',#1781);
#458=VERTEX_POINT('',#1782);
#459=VERTEX_POINT('',#1784);
#460=VERTEX_POINT('',#1786);
#461=VERTEX_POINT('',#1790);
#462=VERTEX_POINT('',#1792);
#463=VERTEX_POINT('',#1796);
#464=VERTEX_POINT('',#1798);
#465=VERTEX_POINT('',#1802);
#466=VERTEX_POINT('',#1804);
#467=VERTEX_POINT('',#1808);
#468=VERTEX_POINT('',#1810);
#469=VERTEX_POINT('',#1814);
#470=VERTEX_POINT('',#1816);
#471=VERTEX_POINT('',#1820);
#472=VERTEX_POINT('',#1822);
#473=VERTEX_POINT('',#1826);
#474=VERTEX_POINT('',#1827);
#475=VERTEX_POINT('',#1829);
#476=VERTEX_POINT('',#1831);
#477=VERTEX_POINT('',#1835);
#478=VERTEX_POINT('',#1837);
#479=VERTEX_POINT('',#1841);
#480=VERTEX_POINT('',#1843);
#481=VERTEX_POINT('',#1850);
#482=VERTEX_POINT('',#1851);
#483=VERTEX_POINT('',#1853);
#484=VERTEX_POINT('',#1855);
#485=VERTEX_POINT('',#1859);
#486=VERTEX_POINT('',#1861);
#487=VERTEX_POINT('',#1865);
#488=VERTEX_POINT('',#1867);
#489=VERTEX_POINT('',#1871);
#490=VERTEX_POINT('',#1873);
#491=VERTEX_POINT('',#1877);
#492=VERTEX_POINT('',#1879);
#493=VERTEX_POINT('',#1883);
#494=VERTEX_POINT('',#1885);
#495=VERTEX_POINT('',#1889);
#496=VERTEX_POINT('',#1891);
#497=VERTEX_POINT('',#1895);
#498=VERTEX_POINT('',#1896);
#499=VERTEX_POINT('',#1898);
#500=VERTEX_POINT('',#1900);
#501=VERTEX_POINT('',#1904);
#502=VERTEX_POINT('',#1906);
#503=VERTEX_POINT('',#1910);
#504=VERTEX_POINT('',#1912);
#505=VERTEX_POINT('',#1919);
#506=VERTEX_POINT('',#1920);
#507=VERTEX_POINT('',#1922);
#508=VERTEX_POINT('',#1924);
#509=VERTEX_POINT('',#1926);
#510=VERTEX_POINT('',#1928);
#511=VERTEX_POINT('',#1930);
#512=VERTEX_POINT('',#1932);
#513=VERTEX_POINT('',#1948);
#514=VERTEX_POINT('',#1950);
#515=VERTEX_POINT('',#1954);
#516=VERTEX_POINT('',#1958);
#517=VERTEX_POINT('',#1960);
#518=VERTEX_POINT('',#1962);
#519=VERTEX_POINT('',#1964);
#520=VERTEX_POINT('',#1966);
#521=EDGE_CURVE('',#409,#410,#329,.T.);
#522=EDGE_CURVE('',#411,#409,#153,.T.);
#523=EDGE_CURVE('',#412,#411,#330,.T.);
#524=EDGE_CURVE('',#412,#410,#154,.T.);
#525=EDGE_CURVE('',#410,#413,#331,.T.);
#526=EDGE_CURVE('',#414,#412,#332,.T.);
#527=EDGE_CURVE('',#414,#413,#155,.T.);
#528=EDGE_CURVE('',#413,#415,#333,.T.);
#529=EDGE_CURVE('',#416,#414,#334,.T.);
#530=EDGE_CURVE('',#416,#415,#156,.T.);
#531=EDGE_CURVE('',#415,#417,#335,.T.);
#532=EDGE_CURVE('',#418,#416,#336,.T.);
#533=EDGE_CURVE('',#418,#417,#157,.T.);
#534=EDGE_CURVE('',#417,#419,#158,.T.);
#535=EDGE_CURVE('',#420,#418,#159,.T.);
#536=EDGE_CURVE('',#419,#420,#160,.T.);
#537=EDGE_CURVE('',#421,#422,#337,.T.);
#538=EDGE_CURVE('',#423,#421,#161,.T.);
#539=EDGE_CURVE('',#424,#423,#338,.T.);
#540=EDGE_CURVE('',#424,#422,#162,.T.);
#541=EDGE_CURVE('',#422,#409,#339,.T.);
#542=EDGE_CURVE('',#411,#424,#340,.T.);
#543=EDGE_CURVE('',#425,#426,#163,.T.);
#544=EDGE_CURVE('',#427,#425,#164,.T.);
#545=EDGE_CURVE('',#428,#427,#165,.T.);
#546=EDGE_CURVE('',#428,#426,#166,.T.);
#547=EDGE_CURVE('',#426,#429,#167,.T.);
#548=EDGE_CURVE('',#430,#428,#168,.T.);
#549=EDGE_CURVE('',#430,#429,#169,.T.);
#550=EDGE_CURVE('',#429,#431,#341,.T.);
#551=EDGE_CURVE('',#432,#430,#342,.T.);
#552=EDGE_CURVE('',#432,#431,#170,.T.);
#553=EDGE_CURVE('',#431,#421,#343,.T.);
#554=EDGE_CURVE('',#423,#432,#344,.T.);
#555=EDGE_CURVE('',#433,#434,#345,.T.);
#556=EDGE_CURVE('',#435,#433,#171,.T.);
#557=EDGE_CURVE('',#436,#435,#346,.T.);
#558=EDGE_CURVE('',#436,#434,#172,.T.);
#559=EDGE_CURVE('',#434,#437,#347,.T.);
#560=EDGE_CURVE('',#438,#436,#348,.T.);
#561=EDGE_CURVE('',#438,#437,#173,.T.);
#562=EDGE_CURVE('',#437,#439,#349,.T.);
#563=EDGE_CURVE('',#440,#438,#350,.T.);
#564=EDGE_CURVE('',#440,#439,#174,.T.);
#565=EDGE_CURVE('',#439,#441,#351,.T.);
#566=EDGE_CURVE('',#442,#440,#352,.T.);
#567=EDGE_CURVE('',#442,#441,#175,.T.);
#568=EDGE_CURVE('',#441,#443,#353,.T.);
#569=EDGE_CURVE('',#444,#442,#354,.T.);
#570=EDGE_CURVE('',#444,#443,#176,.T.);
#571=EDGE_CURVE('',#443,#445,#177,.T.);
#572=EDGE_CURVE('',#446,#444,#178,.T.);
#573=EDGE_CURVE('',#445,#446,#179,.T.);
#574=EDGE_CURVE('',#447,#433,#355,.T.);
#575=EDGE_CURVE('',#448,#447,#180,.T.);
#576=EDGE_CURVE('',#435,#448,#356,.T.);
#577=EDGE_CURVE('',#449,#450,#181,.T.);
#578=EDGE_CURVE('',#451,#449,#182,.T.);
#579=EDGE_CURVE('',#452,#451,#183,.T.);
#580=EDGE_CURVE('',#452,#450,#184,.T.);
#581=EDGE_CURVE('',#450,#453,#185,.T.);
#582=EDGE_CURVE('',#454,#452,#186,.T.);
#583=EDGE_CURVE('',#454,#453,#187,.T.);
#584=EDGE_CURVE('',#453,#455,#357,.T.);
#585=EDGE_CURVE('',#456,#454,#358,.T.);
#586=EDGE_CURVE('',#456,#455,#188,.T.);
#587=EDGE_CURVE('',#455,#447,#359,.T.);
#588=EDGE_CURVE('',#448,#456,#360,.T.);
#589=EDGE_CURVE('',#457,#458,#361,.T.);
#590=EDGE_CURVE('',#459,#457,#189,.T.);
#591=EDGE_CURVE('',#460,#459,#362,.T.);
#592=EDGE_CURVE('',#460,#458,#190,.T.);
#593=EDGE_CURVE('',#458,#461,#363,.T.);
#594=EDGE_CURVE('',#462,#460,#364,.T.);
#595=EDGE_CURVE('',#462,#461,#191,.T.);
#596=EDGE_CURVE('',#461,#463,#365,.T.);
#597=EDGE_CURVE('',#464,#462,#366,.T.);
#598=EDGE_CURVE('',#464,#463,#192,.T.);
#599=EDGE_CURVE('',#463,#465,#367,.T.);
#600=EDGE_CURVE('',#466,#464,#368,.T.);
#601=EDGE_CURVE('',#466,#465,#193,.T.);
#602=EDGE_CURVE('',#465,#467,#369,.T.);
#603=EDGE_CURVE('',#468,#466,#370,.T.);
#604=EDGE_CURVE('',#468,#467,#194,.T.);
#605=EDGE_CURVE('',#467,#469,#195,.T.);
#606=EDGE_CURVE('',#470,#468,#196,.T.);
#607=EDGE_CURVE('',#469,#470,#197,.T.);
#608=EDGE_CURVE('',#471,#457,#371,.T.);
#609=EDGE_CURVE('',#472,#471,#198,.T.);
#610=EDGE_CURVE('',#459,#472,#372,.T.);
#611=EDGE_CURVE('',#473,#474,#199,.T.);
#612=EDGE_CURVE('',#475,#473,#200,.T.);
#613=EDGE_CURVE('',#476,#475,#201,.T.);
#614=EDGE_CURVE('',#476,#474,#202,.T.);
#615=EDGE_CURVE('',#474,#477,#203,.T.);
#616=EDGE_CURVE('',#478,#476,#204,.T.);
#617=EDGE_CURVE('',#478,#477,#205,.T.);
#618=EDGE_CURVE('',#477,#479,#373,.T.);
#619=EDGE_CURVE('',#480,#478,#374,.T.);
#620=EDGE_CURVE('',#480,#479,#206,.T.);
#621=EDGE_CURVE('',#479,#471,#375,.T.);
#622=EDGE_CURVE('',#472,#480,#376,.T.);
#623=EDGE_CURVE('',#481,#482,#377,.T.);
#624=EDGE_CURVE('',#483,#481,#207,.T.);
#625=EDGE_CURVE('',#484,#483,#378,.T.);
#626=EDGE_CURVE('',#484,#482,#208,.T.);
#627=EDGE_CURVE('',#482,#485,#379,.T.);
#628=EDGE_CURVE('',#486,#484,#380,.T.);
#629=EDGE_CURVE('',#486,#485,#209,.T.);
#630=EDGE_CURVE('',#485,#487,#381,.T.);
#631=EDGE_CURVE('',#488,#486,#382,.T.);
#632=EDGE_CURVE('',#488,#487,#210,.T.);
#633=EDGE_CURVE('',#487,#489,#383,.T.);
#634=EDGE_CURVE('',#490,#488,#384,.T.);
#635=EDGE_CURVE('',#490,#489,#211,.T.);
#636=EDGE_CURVE('',#489,#491,#385,.T.);
#637=EDGE_CURVE('',#492,#490,#386,.T.);
#638=EDGE_CURVE('',#492,#491,#212,.T.);
#639=EDGE_CURVE('',#491,#493,#213,.T.);
#640=EDGE_CURVE('',#494,#492,#214,.T.);
#641=EDGE_CURVE('',#493,#494,#215,.T.);
#642=EDGE_CURVE('',#495,#481,#387,.T.);
#643=EDGE_CURVE('',#496,#495,#216,.T.);
#644=EDGE_CURVE('',#483,#496,#388,.T.);
#645=EDGE_CURVE('',#497,#498,#217,.T.);
#646=EDGE_CURVE('',#499,#497,#218,.T.);
#647=EDGE_CURVE('',#500,#499,#219,.T.);
#648=EDGE_CURVE('',#500,#498,#220,.T.);
#649=EDGE_CURVE('',#498,#501,#221,.T.);
#650=EDGE_CURVE('',#502,#500,#222,.T.);
#651=EDGE_CURVE('',#502,#501,#223,.T.);
#652=EDGE_CURVE('',#501,#503,#389,.T.);
#653=EDGE_CURVE('',#504,#502,#390,.T.);
#654=EDGE_CURVE('',#504,#503,#224,.T.);
#655=EDGE_CURVE('',#503,#495,#391,.T.);
#656=EDGE_CURVE('',#496,#504,#392,.T.);
#657=EDGE_CURVE('',#505,#506,#393,.T.);
#658=EDGE_CURVE('',#505,#507,#225,.T.);
#659=EDGE_CURVE('',#508,#507,#394,.T.);
#660=EDGE_CURVE('',#508,#509,#226,.T.);
#661=EDGE_CURVE('',#510,#509,#395,.T.);
#662=EDGE_CURVE('',#510,#511,#227,.T.);
#663=EDGE_CURVE('',#512,#511,#396,.T.);
#664=EDGE_CURVE('',#512,#506,#228,.T.);
#665=EDGE_CURVE('',#427,#470,#397,.T.);
#666=EDGE_CURVE('',#475,#446,#398,.T.);
#667=EDGE_CURVE('',#451,#494,#399,.T.);
#668=EDGE_CURVE('',#499,#420,#400,.T.);
#669=EDGE_CURVE('',#445,#473,#401,.T.);
#670=EDGE_CURVE('',#493,#449,#402,.T.);
#671=EDGE_CURVE('',#469,#425,#403,.T.);
#672=EDGE_CURVE('',#419,#497,#404,.T.);
#673=EDGE_CURVE('',#506,#513,#229,.T.);
#674=EDGE_CURVE('',#513,#514,#405,.T.);
#675=EDGE_CURVE('',#514,#505,#230,.T.);
#676=EDGE_CURVE('',#515,#514,#231,.T.);
#677=EDGE_CURVE('',#507,#515,#232,.T.);
#678=EDGE_CURVE('',#513,#516,#233,.T.);
#679=EDGE_CURVE('',#517,#516,#406,.T.);
#680=EDGE_CURVE('',#517,#518,#234,.T.);
#681=EDGE_CURVE('',#519,#518,#407,.T.);
#682=EDGE_CURVE('',#519,#520,#235,.T.);
#683=EDGE_CURVE('',#515,#520,#408,.T.);
#684=EDGE_CURVE('',#520,#508,#236,.T.);
#685=EDGE_CURVE('',#509,#519,#237,.T.);
#686=EDGE_CURVE('',#518,#510,#238,.T.);
#687=EDGE_CURVE('',#511,#517,#239,.T.);
#688=EDGE_CURVE('',#516,#512,#240,.T.);
#689=ORIENTED_EDGE('',*,*,#521,.F.);
#690=ORIENTED_EDGE('',*,*,#522,.F.);
#691=ORIENTED_EDGE('',*,*,#523,.F.);
#692=ORIENTED_EDGE('',*,*,#524,.T.);
#693=ORIENTED_EDGE('',*,*,#525,.F.);
#694=ORIENTED_EDGE('',*,*,#524,.F.);
#695=ORIENTED_EDGE('',*,*,#526,.F.);
#696=ORIENTED_EDGE('',*,*,#527,.T.);
#697=ORIENTED_EDGE('',*,*,#528,.F.);
#698=ORIENTED_EDGE('',*,*,#527,.F.);
#699=ORIENTED_EDGE('',*,*,#529,.F.);
#700=ORIENTED_EDGE('',*,*,#530,.T.);
#701=ORIENTED_EDGE('',*,*,#531,.F.);
#702=ORIENTED_EDGE('',*,*,#530,.F.);
#703=ORIENTED_EDGE('',*,*,#532,.F.);
#704=ORIENTED_EDGE('',*,*,#533,.T.);
#705=ORIENTED_EDGE('',*,*,#534,.F.);
#706=ORIENTED_EDGE('',*,*,#533,.F.);
#707=ORIENTED_EDGE('',*,*,#535,.F.);
#708=ORIENTED_EDGE('',*,*,#536,.F.);
#709=ORIENTED_EDGE('',*,*,#537,.F.);
#710=ORIENTED_EDGE('',*,*,#538,.F.);
#711=ORIENTED_EDGE('',*,*,#539,.F.);
#712=ORIENTED_EDGE('',*,*,#540,.T.);
#713=ORIENTED_EDGE('',*,*,#541,.F.);
#714=ORIENTED_EDGE('',*,*,#540,.F.);
#715=ORIENTED_EDGE('',*,*,#542,.F.);
#716=ORIENTED_EDGE('',*,*,#522,.T.);
#717=ORIENTED_EDGE('',*,*,#543,.F.);
#718=ORIENTED_EDGE('',*,*,#544,.F.);
#719=ORIENTED_EDGE('',*,*,#545,.F.);
#720=ORIENTED_EDGE('',*,*,#546,.T.);
#721=ORIENTED_EDGE('',*,*,#547,.F.);
#722=ORIENTED_EDGE('',*,*,#546,.F.);
#723=ORIENTED_EDGE('',*,*,#548,.F.);
#724=ORIENTED_EDGE('',*,*,#549,.T.);
#725=ORIENTED_EDGE('',*,*,#550,.F.);
#726=ORIENTED_EDGE('',*,*,#549,.F.);
#727=ORIENTED_EDGE('',*,*,#551,.F.);
#728=ORIENTED_EDGE('',*,*,#552,.T.);
#729=ORIENTED_EDGE('',*,*,#553,.F.);
#730=ORIENTED_EDGE('',*,*,#552,.F.);
#731=ORIENTED_EDGE('',*,*,#554,.F.);
#732=ORIENTED_EDGE('',*,*,#538,.T.);
#733=ORIENTED_EDGE('',*,*,#555,.F.);
#734=ORIENTED_EDGE('',*,*,#556,.F.);
#735=ORIENTED_EDGE('',*,*,#557,.F.);
#736=ORIENTED_EDGE('',*,*,#558,.T.);
#737=ORIENTED_EDGE('',*,*,#559,.F.);
#738=ORIENTED_EDGE('',*,*,#558,.F.);
#739=ORIENTED_EDGE('',*,*,#560,.F.);
#740=ORIENTED_EDGE('',*,*,#561,.T.);
#741=ORIENTED_EDGE('',*,*,#562,.F.);
#742=ORIENTED_EDGE('',*,*,#561,.F.);
#743=ORIENTED_EDGE('',*,*,#563,.F.);
#744=ORIENTED_EDGE('',*,*,#564,.T.);
#745=ORIENTED_EDGE('',*,*,#565,.F.);
#746=ORIENTED_EDGE('',*,*,#564,.F.);
#747=ORIENTED_EDGE('',*,*,#566,.F.);
#748=ORIENTED_EDGE('',*,*,#567,.T.);
#749=ORIENTED_EDGE('',*,*,#568,.F.);
#750=ORIENTED_EDGE('',*,*,#567,.F.);
#751=ORIENTED_EDGE('',*,*,#569,.F.);
#752=ORIENTED_EDGE('',*,*,#570,.T.);
#753=ORIENTED_EDGE('',*,*,#571,.F.);
#754=ORIENTED_EDGE('',*,*,#570,.F.);
#755=ORIENTED_EDGE('',*,*,#572,.F.);
#756=ORIENTED_EDGE('',*,*,#573,.F.);
#757=ORIENTED_EDGE('',*,*,#574,.F.);
#758=ORIENTED_EDGE('',*,*,#575,.F.);
#759=ORIENTED_EDGE('',*,*,#576,.F.);
#760=ORIENTED_EDGE('',*,*,#556,.T.);
#761=ORIENTED_EDGE('',*,*,#577,.F.);
#762=ORIENTED_EDGE('',*,*,#578,.F.);
#763=ORIENTED_EDGE('',*,*,#579,.F.);
#764=ORIENTED_EDGE('',*,*,#580,.T.);
#765=ORIENTED_EDGE('',*,*,#581,.F.);
#766=ORIENTED_EDGE('',*,*,#580,.F.);
#767=ORIENTED_EDGE('',*,*,#582,.F.);
#768=ORIENTED_EDGE('',*,*,#583,.T.);
#769=ORIENTED_EDGE('',*,*,#584,.F.);
#770=ORIENTED_EDGE('',*,*,#583,.F.);
#771=ORIENTED_EDGE('',*,*,#585,.F.);
#772=ORIENTED_EDGE('',*,*,#586,.T.);
#773=ORIENTED_EDGE('',*,*,#587,.F.);
#774=ORIENTED_EDGE('',*,*,#586,.F.);
#775=ORIENTED_EDGE('',*,*,#588,.F.);
#776=ORIENTED_EDGE('',*,*,#575,.T.);
#777=ORIENTED_EDGE('',*,*,#589,.F.);
#778=ORIENTED_EDGE('',*,*,#590,.F.);
#779=ORIENTED_EDGE('',*,*,#591,.F.);
#780=ORIENTED_EDGE('',*,*,#592,.T.);
#781=ORIENTED_EDGE('',*,*,#593,.F.);
#782=ORIENTED_EDGE('',*,*,#592,.F.);
#783=ORIENTED_EDGE('',*,*,#594,.F.);
#784=ORIENTED_EDGE('',*,*,#595,.T.);
#785=ORIENTED_EDGE('',*,*,#596,.F.);
#786=ORIENTED_EDGE('',*,*,#595,.F.);
#787=ORIENTED_EDGE('',*,*,#597,.F.);
#788=ORIENTED_EDGE('',*,*,#598,.T.);
#789=ORIENTED_EDGE('',*,*,#599,.F.);
#790=ORIENTED_EDGE('',*,*,#598,.F.);
#791=ORIENTED_EDGE('',*,*,#600,.F.);
#792=ORIENTED_EDGE('',*,*,#601,.T.);
#793=ORIENTED_EDGE('',*,*,#602,.F.);
#794=ORIENTED_EDGE('',*,*,#601,.F.);
#795=ORIENTED_EDGE('',*,*,#603,.F.);
#796=ORIENTED_EDGE('',*,*,#604,.T.);
#797=ORIENTED_EDGE('',*,*,#605,.F.);
#798=ORIENTED_EDGE('',*,*,#604,.F.);
#799=ORIENTED_EDGE('',*,*,#606,.F.);
#800=ORIENTED_EDGE('',*,*,#607,.F.);
#801=ORIENTED_EDGE('',*,*,#608,.F.);
#802=ORIENTED_EDGE('',*,*,#609,.F.);
#803=ORIENTED_EDGE('',*,*,#610,.F.);
#804=ORIENTED_EDGE('',*,*,#590,.T.);
#805=ORIENTED_EDGE('',*,*,#611,.F.);
#806=ORIENTED_EDGE('',*,*,#612,.F.);
#807=ORIENTED_EDGE('',*,*,#613,.F.);
#808=ORIENTED_EDGE('',*,*,#614,.T.);
#809=ORIENTED_EDGE('',*,*,#615,.F.);
#810=ORIENTED_EDGE('',*,*,#614,.F.);
#811=ORIENTED_EDGE('',*,*,#616,.F.);
#812=ORIENTED_EDGE('',*,*,#617,.T.);
#813=ORIENTED_EDGE('',*,*,#618,.F.);
#814=ORIENTED_EDGE('',*,*,#617,.F.);
#815=ORIENTED_EDGE('',*,*,#619,.F.);
#816=ORIENTED_EDGE('',*,*,#620,.T.);
#817=ORIENTED_EDGE('',*,*,#621,.F.);
#818=ORIENTED_EDGE('',*,*,#620,.F.);
#819=ORIENTED_EDGE('',*,*,#622,.F.);
#820=ORIENTED_EDGE('',*,*,#609,.T.);
#821=ORIENTED_EDGE('',*,*,#623,.F.);
#822=ORIENTED_EDGE('',*,*,#624,.F.);
#823=ORIENTED_EDGE('',*,*,#625,.F.);
#824=ORIENTED_EDGE('',*,*,#626,.T.);
#825=ORIENTED_EDGE('',*,*,#627,.F.);
#826=ORIENTED_EDGE('',*,*,#626,.F.);
#827=ORIENTED_EDGE('',*,*,#628,.F.);
#828=ORIENTED_EDGE('',*,*,#629,.T.);
#829=ORIENTED_EDGE('',*,*,#630,.F.);
#830=ORIENTED_EDGE('',*,*,#629,.F.);
#831=ORIENTED_EDGE('',*,*,#631,.F.);
#832=ORIENTED_EDGE('',*,*,#632,.T.);
#833=ORIENTED_EDGE('',*,*,#633,.F.);
#834=ORIENTED_EDGE('',*,*,#632,.F.);
#835=ORIENTED_EDGE('',*,*,#634,.F.);
#836=ORIENTED_EDGE('',*,*,#635,.T.);
#837=ORIENTED_EDGE('',*,*,#636,.F.);
#838=ORIENTED_EDGE('',*,*,#635,.F.);
#839=ORIENTED_EDGE('',*,*,#637,.F.);
#840=ORIENTED_EDGE('',*,*,#638,.T.);
#841=ORIENTED_EDGE('',*,*,#639,.F.);
#842=ORIENTED_EDGE('',*,*,#638,.F.);
#843=ORIENTED_EDGE('',*,*,#640,.F.);
#844=ORIENTED_EDGE('',*,*,#641,.F.);
#845=ORIENTED_EDGE('',*,*,#642,.F.);
#846=ORIENTED_EDGE('',*,*,#643,.F.);
#847=ORIENTED_EDGE('',*,*,#644,.F.);
#848=ORIENTED_EDGE('',*,*,#624,.T.);
#849=ORIENTED_EDGE('',*,*,#645,.F.);
#850=ORIENTED_EDGE('',*,*,#646,.F.);
#851=ORIENTED_EDGE('',*,*,#647,.F.);
#852=ORIENTED_EDGE('',*,*,#648,.T.);
#853=ORIENTED_EDGE('',*,*,#649,.F.);
#854=ORIENTED_EDGE('',*,*,#648,.F.);
#855=ORIENTED_EDGE('',*,*,#650,.F.);
#856=ORIENTED_EDGE('',*,*,#651,.T.);
#857=ORIENTED_EDGE('',*,*,#652,.F.);
#858=ORIENTED_EDGE('',*,*,#651,.F.);
#859=ORIENTED_EDGE('',*,*,#653,.F.);
#860=ORIENTED_EDGE('',*,*,#654,.T.);
#861=ORIENTED_EDGE('',*,*,#655,.F.);
#862=ORIENTED_EDGE('',*,*,#654,.F.);
#863=ORIENTED_EDGE('',*,*,#656,.F.);
#864=ORIENTED_EDGE('',*,*,#643,.T.);
#865=ORIENTED_EDGE('',*,*,#657,.F.);
#866=ORIENTED_EDGE('',*,*,#658,.T.);
#867=ORIENTED_EDGE('',*,*,#659,.F.);
#868=ORIENTED_EDGE('',*,*,#660,.T.);
#869=ORIENTED_EDGE('',*,*,#661,.F.);
#870=ORIENTED_EDGE('',*,*,#662,.T.);
#871=ORIENTED_EDGE('',*,*,#663,.F.);
#872=ORIENTED_EDGE('',*,*,#664,.T.);
#873=ORIENTED_EDGE('',*,*,#535,.T.);
#874=ORIENTED_EDGE('',*,*,#532,.T.);
#875=ORIENTED_EDGE('',*,*,#529,.T.);
#876=ORIENTED_EDGE('',*,*,#526,.T.);
#877=ORIENTED_EDGE('',*,*,#523,.T.);
#878=ORIENTED_EDGE('',*,*,#542,.T.);
#879=ORIENTED_EDGE('',*,*,#539,.T.);
#880=ORIENTED_EDGE('',*,*,#554,.T.);
#881=ORIENTED_EDGE('',*,*,#551,.T.);
#882=ORIENTED_EDGE('',*,*,#548,.T.);
#883=ORIENTED_EDGE('',*,*,#545,.T.);
#884=ORIENTED_EDGE('',*,*,#665,.T.);
#885=ORIENTED_EDGE('',*,*,#606,.T.);
#886=ORIENTED_EDGE('',*,*,#603,.T.);
#887=ORIENTED_EDGE('',*,*,#600,.T.);
#888=ORIENTED_EDGE('',*,*,#597,.T.);
#889=ORIENTED_EDGE('',*,*,#594,.T.);
#890=ORIENTED_EDGE('',*,*,#591,.T.);
#891=ORIENTED_EDGE('',*,*,#610,.T.);
#892=ORIENTED_EDGE('',*,*,#622,.T.);
#893=ORIENTED_EDGE('',*,*,#619,.T.);
#894=ORIENTED_EDGE('',*,*,#616,.T.);
#895=ORIENTED_EDGE('',*,*,#613,.T.);
#896=ORIENTED_EDGE('',*,*,#666,.T.);
#897=ORIENTED_EDGE('',*,*,#572,.T.);
#898=ORIENTED_EDGE('',*,*,#569,.T.);
#899=ORIENTED_EDGE('',*,*,#566,.T.);
#900=ORIENTED_EDGE('',*,*,#563,.T.);
#901=ORIENTED_EDGE('',*,*,#560,.T.);
#902=ORIENTED_EDGE('',*,*,#557,.T.);
#903=ORIENTED_EDGE('',*,*,#576,.T.);
#904=ORIENTED_EDGE('',*,*,#588,.T.);
#905=ORIENTED_EDGE('',*,*,#585,.T.);
#906=ORIENTED_EDGE('',*,*,#582,.T.);
#907=ORIENTED_EDGE('',*,*,#579,.T.);
#908=ORIENTED_EDGE('',*,*,#667,.T.);
#909=ORIENTED_EDGE('',*,*,#640,.T.);
#910=ORIENTED_EDGE('',*,*,#637,.T.);
#911=ORIENTED_EDGE('',*,*,#634,.T.);
#912=ORIENTED_EDGE('',*,*,#631,.T.);
#913=ORIENTED_EDGE('',*,*,#628,.T.);
#914=ORIENTED_EDGE('',*,*,#625,.T.);
#915=ORIENTED_EDGE('',*,*,#644,.T.);
#916=ORIENTED_EDGE('',*,*,#656,.T.);
#917=ORIENTED_EDGE('',*,*,#653,.T.);
#918=ORIENTED_EDGE('',*,*,#650,.T.);
#919=ORIENTED_EDGE('',*,*,#647,.T.);
#920=ORIENTED_EDGE('',*,*,#668,.T.);
#921=ORIENTED_EDGE('',*,*,#573,.T.);
#922=ORIENTED_EDGE('',*,*,#666,.F.);
#923=ORIENTED_EDGE('',*,*,#612,.T.);
#924=ORIENTED_EDGE('',*,*,#669,.F.);
#925=ORIENTED_EDGE('',*,*,#578,.T.);
#926=ORIENTED_EDGE('',*,*,#670,.F.);
#927=ORIENTED_EDGE('',*,*,#641,.T.);
#928=ORIENTED_EDGE('',*,*,#667,.F.);
#929=ORIENTED_EDGE('',*,*,#544,.T.);
#930=ORIENTED_EDGE('',*,*,#671,.F.);
#931=ORIENTED_EDGE('',*,*,#607,.T.);
#932=ORIENTED_EDGE('',*,*,#665,.F.);
#933=ORIENTED_EDGE('',*,*,#536,.T.);
#934=ORIENTED_EDGE('',*,*,#668,.F.);
#935=ORIENTED_EDGE('',*,*,#646,.T.);
#936=ORIENTED_EDGE('',*,*,#672,.F.);
#937=ORIENTED_EDGE('',*,*,#657,.T.);
#938=ORIENTED_EDGE('',*,*,#673,.T.);
#939=ORIENTED_EDGE('',*,*,#674,.T.);
#940=ORIENTED_EDGE('',*,*,#675,.T.);
#941=ORIENTED_EDGE('',*,*,#675,.F.);
#942=ORIENTED_EDGE('',*,*,#676,.F.);
#943=ORIENTED_EDGE('',*,*,#677,.F.);
#944=ORIENTED_EDGE('',*,*,#658,.F.);
#945=ORIENTED_EDGE('',*,*,#674,.F.);
#946=ORIENTED_EDGE('',*,*,#678,.T.);
#947=ORIENTED_EDGE('',*,*,#679,.F.);
#948=ORIENTED_EDGE('',*,*,#680,.T.);
#949=ORIENTED_EDGE('',*,*,#681,.F.);
#950=ORIENTED_EDGE('',*,*,#682,.T.);
#951=ORIENTED_EDGE('',*,*,#683,.F.);
#952=ORIENTED_EDGE('',*,*,#676,.T.);
#953=ORIENTED_EDGE('',*,*,#534,.T.);
#954=ORIENTED_EDGE('',*,*,#672,.T.);
#955=ORIENTED_EDGE('',*,*,#645,.T.);
#956=ORIENTED_EDGE('',*,*,#649,.T.);
#957=ORIENTED_EDGE('',*,*,#652,.T.);
#958=ORIENTED_EDGE('',*,*,#655,.T.);
#959=ORIENTED_EDGE('',*,*,#642,.T.);
#960=ORIENTED_EDGE('',*,*,#623,.T.);
#961=ORIENTED_EDGE('',*,*,#627,.T.);
#962=ORIENTED_EDGE('',*,*,#630,.T.);
#963=ORIENTED_EDGE('',*,*,#633,.T.);
#964=ORIENTED_EDGE('',*,*,#636,.T.);
#965=ORIENTED_EDGE('',*,*,#639,.T.);
#966=ORIENTED_EDGE('',*,*,#670,.T.);
#967=ORIENTED_EDGE('',*,*,#577,.T.);
#968=ORIENTED_EDGE('',*,*,#581,.T.);
#969=ORIENTED_EDGE('',*,*,#584,.T.);
#970=ORIENTED_EDGE('',*,*,#587,.T.);
#971=ORIENTED_EDGE('',*,*,#574,.T.);
#972=ORIENTED_EDGE('',*,*,#555,.T.);
#973=ORIENTED_EDGE('',*,*,#559,.T.);
#974=ORIENTED_EDGE('',*,*,#562,.T.);
#975=ORIENTED_EDGE('',*,*,#565,.T.);
#976=ORIENTED_EDGE('',*,*,#568,.T.);
#977=ORIENTED_EDGE('',*,*,#571,.T.);
#978=ORIENTED_EDGE('',*,*,#669,.T.);
#979=ORIENTED_EDGE('',*,*,#611,.T.);
#980=ORIENTED_EDGE('',*,*,#615,.T.);
#981=ORIENTED_EDGE('',*,*,#618,.T.);
#982=ORIENTED_EDGE('',*,*,#621,.T.);
#983=ORIENTED_EDGE('',*,*,#608,.T.);
#984=ORIENTED_EDGE('',*,*,#589,.T.);
#985=ORIENTED_EDGE('',*,*,#593,.T.);
#986=ORIENTED_EDGE('',*,*,#596,.T.);
#987=ORIENTED_EDGE('',*,*,#599,.T.);
#988=ORIENTED_EDGE('',*,*,#602,.T.);
#989=ORIENTED_EDGE('',*,*,#605,.T.);
#990=ORIENTED_EDGE('',*,*,#671,.T.);
#991=ORIENTED_EDGE('',*,*,#543,.T.);
#992=ORIENTED_EDGE('',*,*,#547,.T.);
#993=ORIENTED_EDGE('',*,*,#550,.T.);
#994=ORIENTED_EDGE('',*,*,#553,.T.);
#995=ORIENTED_EDGE('',*,*,#537,.T.);
#996=ORIENTED_EDGE('',*,*,#541,.T.);
#997=ORIENTED_EDGE('',*,*,#521,.T.);
#998=ORIENTED_EDGE('',*,*,#525,.T.);
#999=ORIENTED_EDGE('',*,*,#528,.T.);
#1000=ORIENTED_EDGE('',*,*,#531,.T.);
#1001=ORIENTED_EDGE('',*,*,#659,.T.);
#1002=ORIENTED_EDGE('',*,*,#677,.T.);
#1003=ORIENTED_EDGE('',*,*,#683,.T.);
#1004=ORIENTED_EDGE('',*,*,#684,.T.);
#1005=ORIENTED_EDGE('',*,*,#684,.F.);
#1006=ORIENTED_EDGE('',*,*,#682,.F.);
#1007=ORIENTED_EDGE('',*,*,#685,.F.);
#1008=ORIENTED_EDGE('',*,*,#660,.F.);
#1009=ORIENTED_EDGE('',*,*,#661,.T.);
#1010=ORIENTED_EDGE('',*,*,#685,.T.);
#1011=ORIENTED_EDGE('',*,*,#681,.T.);
#1012=ORIENTED_EDGE('',*,*,#686,.T.);
#1013=ORIENTED_EDGE('',*,*,#686,.F.);
#1014=ORIENTED_EDGE('',*,*,#680,.F.);
#1015=ORIENTED_EDGE('',*,*,#687,.F.);
#1016=ORIENTED_EDGE('',*,*,#662,.F.);
#1017=ORIENTED_EDGE('',*,*,#663,.T.);
#1018=ORIENTED_EDGE('',*,*,#687,.T.);
#1019=ORIENTED_EDGE('',*,*,#679,.T.);
#1020=ORIENTED_EDGE('',*,*,#688,.T.);
#1021=ORIENTED_EDGE('',*,*,#673,.F.);
#1022=ORIENTED_EDGE('',*,*,#664,.F.);
#1023=ORIENTED_EDGE('',*,*,#688,.F.);
#1024=ORIENTED_EDGE('',*,*,#678,.F.);
#1025=CYLINDRICAL_SURFACE('',#1137,1.84356836631149);
#1026=CYLINDRICAL_SURFACE('',#1140,2.4325811523947);
#1027=CYLINDRICAL_SURFACE('',#1143,18.6589981973264);
#1028=CYLINDRICAL_SURFACE('',#1146,1.24334482513011);
#1029=CYLINDRICAL_SURFACE('',#1150,2.5223412605413);
#1030=CYLINDRICAL_SURFACE('',#1153,11.0978340801191);
#1031=CYLINDRICAL_SURFACE('',#1158,0.548898740446604);
#1032=CYLINDRICAL_SURFACE('',#1161,1.04666402186263);
#1033=CYLINDRICAL_SURFACE('',#1164,11.0978340801191);
#1034=CYLINDRICAL_SURFACE('',#1167,1.84356836631149);
#1035=CYLINDRICAL_SURFACE('',#1170,2.4325811523947);
#1036=CYLINDRICAL_SURFACE('',#1173,18.6589981973264);
#1037=CYLINDRICAL_SURFACE('',#1176,1.24334482513011);
#1038=CYLINDRICAL_SURFACE('',#1180,2.5223412605413);
#1039=CYLINDRICAL_SURFACE('',#1185,0.548898740446604);
#1040=CYLINDRICAL_SURFACE('',#1188,1.04666402186263);
#1041=CYLINDRICAL_SURFACE('',#1191,11.0978340801191);
#1042=CYLINDRICAL_SURFACE('',#1194,1.84356836631149);
#1043=CYLINDRICAL_SURFACE('',#1197,2.4325811523947);
#1044=CYLINDRICAL_SURFACE('',#1200,18.6589981973264);
#1045=CYLINDRICAL_SURFACE('',#1203,1.24334482513011);
#1046=CYLINDRICAL_SURFACE('',#1207,2.5223412605413);
#1047=CYLINDRICAL_SURFACE('',#1212,0.548898740446604);
#1048=CYLINDRICAL_SURFACE('',#1215,1.04666402186263);
#1049=CYLINDRICAL_SURFACE('',#1218,11.0978340801191);
#1050=CYLINDRICAL_SURFACE('',#1221,1.84356836631149);
#1051=CYLINDRICAL_SURFACE('',#1224,2.4325811523947);
#1052=CYLINDRICAL_SURFACE('',#1227,18.6589981973264);
#1053=CYLINDRICAL_SURFACE('',#1230,1.24334482513011);
#1054=CYLINDRICAL_SURFACE('',#1234,2.5223412605413);
#1055=CYLINDRICAL_SURFACE('',#1239,0.548898740446604);
#1056=CYLINDRICAL_SURFACE('',#1242,1.04666402186263);
#1057=CYLINDRICAL_SURFACE('',#1254,10.);
#1058=CYLINDRICAL_SURFACE('',#1256,10.);
#1059=CYLINDRICAL_SURFACE('',#1258,10.);
#1060=CYLINDRICAL_SURFACE('',#1260,10.);
#1061=CYLINDRICAL_SURFACE('',#1262,7.5);
#1062=CYLINDRICAL_SURFACE('',#1269,7.5);
#1063=CYLINDRICAL_SURFACE('',#1271,7.5);
#1064=CYLINDRICAL_SURFACE('',#1273,7.5);
#1065=ADVANCED_FACE('',(#35),#1025,.F.);
#1066=ADVANCED_FACE('',(#36),#1026,.F.);
#1067=ADVANCED_FACE('',(#37),#1027,.F.);
#1068=ADVANCED_FACE('',(#38),#1028,.T.);
#1069=ADVANCED_FACE('',(#39),#17,.F.);
#1070=ADVANCED_FACE('',(#40),#1029,.F.);
#1071=ADVANCED_FACE('',(#41),#1030,.F.);
#1072=ADVANCED_FACE('',(#42),#18,.F.);
#1073=ADVANCED_FACE('',(#43),#19,.F.);
#1074=ADVANCED_FACE('',(#44),#1031,.T.);
#1075=ADVANCED_FACE('',(#45),#1032,.F.);
#1076=ADVANCED_FACE('',(#46),#1033,.F.);
#1077=ADVANCED_FACE('',(#47),#1034,.F.);
#1078=ADVANCED_FACE('',(#48),#1035,.F.);
#1079=ADVANCED_FACE('',(#49),#1036,.F.);
#1080=ADVANCED_FACE('',(#50),#1037,.T.);
#1081=ADVANCED_FACE('',(#51),#20,.F.);
#1082=ADVANCED_FACE('',(#52),#1038,.F.);
#1083=ADVANCED_FACE('',(#53),#21,.F.);
#1084=ADVANCED_FACE('',(#54),#22,.F.);
#1085=ADVANCED_FACE('',(#55),#1039,.T.);
#1086=ADVANCED_FACE('',(#56),#1040,.F.);
#1087=ADVANCED_FACE('',(#57),#1041,.F.);
#1088=ADVANCED_FACE('',(#58),#1042,.F.);
#1089=ADVANCED_FACE('',(#59),#1043,.F.);
#1090=ADVANCED_FACE('',(#60),#1044,.F.);
#1091=ADVANCED_FACE('',(#61),#1045,.T.);
#1092=ADVANCED_FACE('',(#62),#23,.F.);
#1093=ADVANCED_FACE('',(#63),#1046,.F.);
#1094=ADVANCED_FACE('',(#64),#24,.F.);
#1095=ADVANCED_FACE('',(#65),#25,.F.);
#1096=ADVANCED_FACE('',(#66),#1047,.T.);
#1097=ADVANCED_FACE('',(#67),#1048,.F.);
#1098=ADVANCED_FACE('',(#68),#1049,.F.);
#1099=ADVANCED_FACE('',(#69),#1050,.F.);
#1100=ADVANCED_FACE('',(#70),#1051,.F.);
#1101=ADVANCED_FACE('',(#71),#1052,.F.);
#1102=ADVANCED_FACE('',(#72),#1053,.T.);
#1103=ADVANCED_FACE('',(#73),#26,.F.);
#1104=ADVANCED_FACE('',(#74),#1054,.F.);
#1105=ADVANCED_FACE('',(#75),#27,.F.);
#1106=ADVANCED_FACE('',(#76),#28,.F.);
#1107=ADVANCED_FACE('',(#77),#1055,.T.);
#1108=ADVANCED_FACE('',(#78),#1056,.F.);
#1109=ADVANCED_FACE('',(#79,#15),#29,.T.);
#1110=ADVANCED_FACE('',(#80),#1057,.F.);
#1111=ADVANCED_FACE('',(#81),#1058,.F.);
#1112=ADVANCED_FACE('',(#82),#1059,.F.);
#1113=ADVANCED_FACE('',(#83),#1060,.F.);
#1114=ADVANCED_FACE('',(#84),#1061,.T.);
#1115=ADVANCED_FACE('',(#85),#30,.T.);
#1116=ADVANCED_FACE('',(#86,#16),#31,.F.);
#1117=ADVANCED_FACE('',(#87),#1062,.T.);
#1118=ADVANCED_FACE('',(#88),#32,.T.);
#1119=ADVANCED_FACE('',(#89),#1063,.T.);
#1120=ADVANCED_FACE('',(#90),#33,.T.);
#1121=ADVANCED_FACE('',(#91),#1064,.T.);
#1122=ADVANCED_FACE('',(#92),#34,.T.);
#1123=CLOSED_SHELL('',(#1065,#1066,#1067,#1068,#1069,#1070,#1071,#1072,
#1073,#1074,#1075,#1076,#1077,#1078,#1079,#1080,#1081,#1082,#1083,#1084,
#1085,#1086,#1087,#1088,#1089,#1090,#1091,#1092,#1093,#1094,#1095,#1096,
#1097,#1098,#1099,#1100,#1101,#1102,#1103,#1104,#1105,#1106,#1107,#1108,
#1109,#1110,#1111,#1112,#1113,#1114,#1115,#1116,#1117,#1118,#1119,#1120,
#1121,#1122));
#1124=DERIVED_UNIT_ELEMENT(#1126,1.);
#1125=DERIVED_UNIT_ELEMENT(#1985,-3.);
#1126=(
MASS_UNIT()
NAMED_UNIT(*)
SI_UNIT(.KILO.,.GRAM.)
);
#1127=DERIVED_UNIT((#1124,#1125));
#1128=MEASURE_REPRESENTATION_ITEM('density measure',
POSITIVE_RATIO_MEASURE(7850.),#1127);
#1129=PROPERTY_DEFINITION_REPRESENTATION(#1134,#1131);
#1130=PROPERTY_DEFINITION_REPRESENTATION(#1135,#1132);
#1131=REPRESENTATION('material name',(#1133),#1982);
#1132=REPRESENTATION('density',(#1128),#1982);
#1133=DESCRIPTIVE_REPRESENTATION_ITEM('Steel','Steel');
#1134=PROPERTY_DEFINITION('material property','material name',#1992);
#1135=PROPERTY_DEFINITION('material property','density of part',#1992);
#1136=AXIS2_PLACEMENT_3D('',#1641,#1275,#1276);
#1137=AXIS2_PLACEMENT_3D('',#1642,#1277,#1278);
#1138=AXIS2_PLACEMENT_3D('',#1645,#1279,#1280);
#1139=AXIS2_PLACEMENT_3D('',#1649,#1282,#1283);
#1140=AXIS2_PLACEMENT_3D('',#1651,#1285,#1286);
#1141=AXIS2_PLACEMENT_3D('',#1653,#1287,#1288);
#1142=AXIS2_PLACEMENT_3D('',#1655,#1289,#1290);
#1143=AXIS2_PLACEMENT_3D('',#1657,#1292,#1293);
#1144=AXIS2_PLACEMENT_3D('',#1659,#1294,#1295);
#1145=AXIS2_PLACEMENT_3D('',#1661,#1296,#1297);
#1146=AXIS2_PLACEMENT_3D('',#1663,#1299,#1300);
#1147=AXIS2_PLACEMENT_3D('',#1665,#1301,#1302);
#1148=AXIS2_PLACEMENT_3D('',#1667,#1303,#1304);
#1149=AXIS2_PLACEMENT_3D('',#1669,#1306,#1307);
#1150=AXIS2_PLACEMENT_3D('',#1675,#1311,#1312);
#1151=AXIS2_PLACEMENT_3D('',#1678,#1313,#1314);
#1152=AXIS2_PLACEMENT_3D('',#1682,#1316,#1317);
#1153=AXIS2_PLACEMENT_3D('',#1684,#1319,#1320);
#1154=AXIS2_PLACEMENT_3D('',#1685,#1321,#1322);
#1155=AXIS2_PLACEMENT_3D('',#1686,#1323,#1324);
#1156=AXIS2_PLACEMENT_3D('',#1687,#1325,#1326);
#1157=AXIS2_PLACEMENT_3D('',#1696,#1331,#1332);
#1158=AXIS2_PLACEMENT_3D('',#1702,#1336,#1337);
#1159=AXIS2_PLACEMENT_3D('',#1704,#1338,#1339);
#1160=AXIS2_PLACEMENT_3D('',#1706,#1340,#1341);
#1161=AXIS2_PLACEMENT_3D('',#1708,#1343,#1344);
#1162=AXIS2_PLACEMENT_3D('',#1709,#1345,#1346);
#1163=AXIS2_PLACEMENT_3D('',#1710,#1347,#1348);
#1164=AXIS2_PLACEMENT_3D('',#1711,#1349,#1350);
#1165=AXIS2_PLACEMENT_3D('',#1714,#1351,#1352);
#1166=AXIS2_PLACEMENT_3D('',#1718,#1354,#1355);
#1167=AXIS2_PLACEMENT_3D('',#1720,#1357,#1358);
#1168=AXIS2_PLACEMENT_3D('',#1722,#1359,#1360);
#1169=AXIS2_PLACEMENT_3D('',#1724,#1361,#1362);
#1170=AXIS2_PLACEMENT_3D('',#1726,#1364,#1365);
#1171=AXIS2_PLACEMENT_3D('',#1728,#1366,#1367);
#1172=AXIS2_PLACEMENT_3D('',#1730,#1368,#1369);
#1173=AXIS2_PLACEMENT_3D('',#1732,#1371,#1372);
#1174=AXIS2_PLACEMENT_3D('',#1734,#1373,#1374);
#1175=AXIS2_PLACEMENT_3D('',#1736,#1375,#1376);
#1176=AXIS2_PLACEMENT_3D('',#1738,#1378,#1379);
#1177=AXIS2_PLACEMENT_3D('',#1740,#1380,#1381);
#1178=AXIS2_PLACEMENT_3D('',#1742,#1382,#1383);
#1179=AXIS2_PLACEMENT_3D('',#1744,#1385,#1386);
#1180=AXIS2_PLACEMENT_3D('',#1750,#1390,#1391);
#1181=AXIS2_PLACEMENT_3D('',#1752,#1392,#1393);
#1182=AXIS2_PLACEMENT_3D('',#1755,#1395,#1396);
#1183=AXIS2_PLACEMENT_3D('',#1756,#1397,#1398);
#1184=AXIS2_PLACEMENT_3D('',#1765,#1403,#1404);
#1185=AXIS2_PLACEMENT_3D('',#1771,#1408,#1409);
#1186=AXIS2_PLACEMENT_3D('',#1773,#1410,#1411);
#1187=AXIS2_PLACEMENT_3D('',#1775,#1412,#1413);
#1188=AXIS2_PLACEMENT_3D('',#1777,#1415,#1416);
#1189=AXIS2_PLACEMENT_3D('',#1778,#1417,#1418);
#1190=AXIS2_PLACEMENT_3D('',#1779,#1419,#1420);
#1191=AXIS2_PLACEMENT_3D('',#1780,#1421,#1422);
#1192=AXIS2_PLACEMENT_3D('',#1783,#1423,#1424);
#1193=AXIS2_PLACEMENT_3D('',#1787,#1426,#1427);
#1194=AXIS2_PLACEMENT_3D('',#1789,#1429,#1430);
#1195=AXIS2_PLACEMENT_3D('',#1791,#1431,#1432);
#1196=AXIS2_PLACEMENT_3D('',#1793,#1433,#1434);
#1197=AXIS2_PLACEMENT_3D('',#1795,#1436,#1437);
#1198=AXIS2_PLACEMENT_3D('',#1797,#1438,#1439);
#1199=AXIS2_PLACEMENT_3D('',#1799,#1440,#1441);
#1200=AXIS2_PLACEMENT_3D('',#1801,#1443,#1444);
#1201=AXIS2_PLACEMENT_3D('',#1803,#1445,#1446);
#1202=AXIS2_PLACEMENT_3D('',#1805,#1447,#1448);
#1203=AXIS2_PLACEMENT_3D('',#1807,#1450,#1451);
#1204=AXIS2_PLACEMENT_3D('',#1809,#1452,#1453);
#1205=AXIS2_PLACEMENT_3D('',#1811,#1454,#1455);
#1206=AXIS2_PLACEMENT_3D('',#1813,#1457,#1458);
#1207=AXIS2_PLACEMENT_3D('',#1819,#1462,#1463);
#1208=AXIS2_PLACEMENT_3D('',#1821,#1464,#1465);
#1209=AXIS2_PLACEMENT_3D('',#1824,#1467,#1468);
#1210=AXIS2_PLACEMENT_3D('',#1825,#1469,#1470);
#1211=AXIS2_PLACEMENT_3D('',#1834,#1475,#1476);
#1212=AXIS2_PLACEMENT_3D('',#1840,#1480,#1481);
#1213=AXIS2_PLACEMENT_3D('',#1842,#1482,#1483);
#1214=AXIS2_PLACEMENT_3D('',#1844,#1484,#1485);
#1215=AXIS2_PLACEMENT_3D('',#1846,#1487,#1488);
#1216=AXIS2_PLACEMENT_3D('',#1847,#1489,#1490);
#1217=AXIS2_PLACEMENT_3D('',#1848,#1491,#1492);
#1218=AXIS2_PLACEMENT_3D('',#1849,#1493,#1494);
#1219=AXIS2_PLACEMENT_3D('',#1852,#1495,#1496);
#1220=AXIS2_PLACEMENT_3D('',#1856,#1498,#1499);
#1221=AXIS2_PLACEMENT_3D('',#1858,#1501,#1502);
#1222=AXIS2_PLACEMENT_3D('',#1860,#1503,#1504);
#1223=AXIS2_PLACEMENT_3D('',#1862,#1505,#1506);
#1224=AXIS2_PLACEMENT_3D('',#1864,#1508,#1509);
#1225=AXIS2_PLACEMENT_3D('',#1866,#1510,#1511);
#1226=AXIS2_PLACEMENT_3D('',#1868,#1512,#1513);
#1227=AXIS2_PLACEMENT_3D('',#1870,#1515,#1516);
#1228=AXIS2_PLACEMENT_3D('',#1872,#1517,#1518);
#1229=AXIS2_PLACEMENT_3D('',#1874,#1519,#1520);
#1230=AXIS2_PLACEMENT_3D('',#1876,#1522,#1523);
#1231=AXIS2_PLACEMENT_3D('',#1878,#1524,#1525);
#1232=AXIS2_PLACEMENT_3D('',#1880,#1526,#1527);
#1233=AXIS2_PLACEMENT_3D('',#1882,#1529,#1530);
#1234=AXIS2_PLACEMENT_3D('',#1888,#1534,#1535);
#1235=AXIS2_PLACEMENT_3D('',#1890,#1536,#1537);
#1236=AXIS2_PLACEMENT_3D('',#1893,#1539,#1540);
#1237=AXIS2_PLACEMENT_3D('',#1894,#1541,#1542);
#1238=AXIS2_PLACEMENT_3D('',#1903,#1547,#1548);
#1239=AXIS2_PLACEMENT_3D('',#1909,#1552,#1553);
#1240=AXIS2_PLACEMENT_3D('',#1911,#1554,#1555);
#1241=AXIS2_PLACEMENT_3D('',#1913,#1556,#1557);
#1242=AXIS2_PLACEMENT_3D('',#1915,#1559,#1560);
#1243=AXIS2_PLACEMENT_3D('',#1916,#1561,#1562);
#1244=AXIS2_PLACEMENT_3D('',#1917,#1563,#1564);
#1245=AXIS2_PLACEMENT_3D('',#1918,#1565,#1566);
#1246=AXIS2_PLACEMENT_3D('',#1921,#1567,#1568);
#1247=AXIS2_PLACEMENT_3D('',#1925,#1570,#1571);
#1248=AXIS2_PLACEMENT_3D('',#1929,#1573,#1574);
#1249=AXIS2_PLACEMENT_3D('',#1933,#1576,#1577);
#1250=AXIS2_PLACEMENT_3D('',#1935,#1579,#1580);
#1251=AXIS2_PLACEMENT_3D('',#1936,#1581,#1582);
#1252=AXIS2_PLACEMENT_3D('',#1937,#1583,#1584);
#1253=AXIS2_PLACEMENT_3D('',#1938,#1585,#1586);
#1254=AXIS2_PLACEMENT_3D('',#1939,#1587,#1588);
#1255=AXIS2_PLACEMENT_3D('',#1940,#1589,#1590);
#1256=AXIS2_PLACEMENT_3D('',#1941,#1591,#1592);
#1257=AXIS2_PLACEMENT_3D('',#1942,#1593,#1594);
#1258=AXIS2_PLACEMENT_3D('',#1943,#1595,#1596);
#1259=AXIS2_PLACEMENT_3D('',#1944,#1597,#1598);
#1260=AXIS2_PLACEMENT_3D('',#1945,#1599,#1600);
#1261=AXIS2_PLACEMENT_3D('',#1946,#1601,#1602);
#1262=AXIS2_PLACEMENT_3D('',#1947,#1603,#1604);
#1263=AXIS2_PLACEMENT_3D('',#1951,#1606,#1607);
#1264=AXIS2_PLACEMENT_3D('',#1953,#1609,#1610);
#1265=AXIS2_PLACEMENT_3D('',#1957,#1613,#1614);
#1266=AXIS2_PLACEMENT_3D('',#1961,#1616,#1617);
#1267=AXIS2_PLACEMENT_3D('',#1965,#1619,#1620);
#1268=AXIS2_PLACEMENT_3D('',#1968,#1622,#1623);
#1269=AXIS2_PLACEMENT_3D('',#1969,#1624,#1625);
#1270=AXIS2_PLACEMENT_3D('',#1971,#1627,#1628);
#1271=AXIS2_PLACEMENT_3D('',#1973,#1630,#1631);
#1272=AXIS2_PLACEMENT_3D('',#1975,#1633,#1634);
#1273=AXIS2_PLACEMENT_3D('',#1977,#1636,#1637);
#1274=AXIS2_PLACEMENT_3D('',#1979,#1639,#1640);
#1275=DIRECTION('axis',(0.,0.,1.));
#1276=DIRECTION('refdir',(1.,0.,0.));
#1277=DIRECTION('center_axis',(0.,-1.,0.));
#1278=DIRECTION('ref_axis',(0.857875568595939,0.,-0.513857479079749));
#1279=DIRECTION('center_axis',(0.,1.,0.));
#1280=DIRECTION('ref_axis',(0.857875568595939,0.,-0.513857479079749));
#1281=DIRECTION('',(0.,-1.,0.));
#1282=DIRECTION('center_axis',(0.,-1.,0.));
#1283=DIRECTION('ref_axis',(0.857875568595939,0.,-0.513857479079749));
#1284=DIRECTION('',(0.,-1.,0.));
#1285=DIRECTION('center_axis',(0.,-1.,0.));
#1286=DIRECTION('ref_axis',(-0.857875568595939,0.,-0.513857479079749));
#1287=DIRECTION('center_axis',(0.,1.,0.));
#1288=DIRECTION('ref_axis',(-0.857875568595939,0.,-0.513857479079749));
#1289=DIRECTION('center_axis',(0.,-1.,0.));
#1290=DIRECTION('ref_axis',(-0.857875568595939,0.,-0.513857479079749));
#1291=DIRECTION('',(0.,-1.,0.));
#1292=DIRECTION('center_axis',(0.,-1.,0.));
#1293=DIRECTION('ref_axis',(-0.857875568595939,0.,0.513857479079749));
#1294=DIRECTION('center_axis',(0.,1.,0.));
#1295=DIRECTION('ref_axis',(-0.857875568595939,0.,0.513857479079749));
#1296=DIRECTION('center_axis',(0.,-1.,0.));
#1297=DIRECTION('ref_axis',(-0.857875568595939,0.,0.513857479079749));
#1298=DIRECTION('',(0.,-1.,0.));
#1299=DIRECTION('center_axis',(0.,-1.,0.));
#1300=DIRECTION('ref_axis',(0.,0.,1.));
#1301=DIRECTION('center_axis',(0.,-1.,0.));
#1302=DIRECTION('ref_axis',(0.,0.,1.));
#1303=DIRECTION('center_axis',(0.,1.,0.));
#1304=DIRECTION('ref_axis',(0.,0.,1.));
#1305=DIRECTION('',(0.,-1.,0.));
#1306=DIRECTION('center_axis',(-2.2085946853553E-16,0.,-1.));
#1307=DIRECTION('ref_axis',(1.,0.,-2.2085946853553E-16));
#1308=DIRECTION('',(-1.,0.,2.2085946853553E-16));
#1309=DIRECTION('',(1.,0.,-2.2085946853553E-16));
#1310=DIRECTION('',(0.,1.,0.));
#1311=DIRECTION('center_axis',(0.,-1.,0.));
#1312=DIRECTION('ref_axis',(-0.0128025495244512,0.,0.999918044004444));
#1313=DIRECTION('center_axis',(0.,1.,0.));
#1314=DIRECTION('ref_axis',(-0.0128025495244512,0.,0.999918044004444));
#1315=DIRECTION('',(0.,-1.,0.));
#1316=DIRECTION('center_axis',(0.,-1.,0.));
#1317=DIRECTION('ref_axis',(-0.0128025495244512,0.,0.999918044004444));
#1318=DIRECTION('',(0.,-1.,0.));
#1319=DIRECTION('center_axis',(0.,-1.,0.));
#1320=DIRECTION('ref_axis',(0.978340114777996,0.,0.207003912562486));
#1321=DIRECTION('center_axis',(0.,1.,0.));
#1322=DIRECTION('ref_axis',(0.978340114777996,0.,0.207003912562486));
#1323=DIRECTION('center_axis',(0.,-1.,0.));
#1324=DIRECTION('ref_axis',(0.978340114777996,0.,0.207003912562486));
#1325=DIRECTION('center_axis',(-0.0352938299987644,0.,0.999376978704242));
#1326=DIRECTION('ref_axis',(-0.999376978704242,0.,-0.0352938299987644));
#1327=DIRECTION('',(0.999376978704242,0.,0.0352938299987644));
#1328=DIRECTION('',(0.,-1.,0.));
#1329=DIRECTION('',(-0.999376978704242,0.,-0.0352938299987644));
#1330=DIRECTION('',(0.,-1.,0.));
#1331=DIRECTION('center_axis',(2.21008121837783E-16,0.,1.));
#1332=DIRECTION('ref_axis',(-1.,0.,2.21008121837783E-16));
#1333=DIRECTION('',(1.,0.,-2.21008121837783E-16));
#1334=DIRECTION('',(-1.,0.,2.21008121837783E-16));
#1335=DIRECTION('',(0.,-1.,0.));
#1336=DIRECTION('center_axis',(0.,-1.,0.));
#1337=DIRECTION('ref_axis',(0.412594422147247,0.,0.910914838397629));
#1338=DIRECTION('center_axis',(0.,-1.,0.));
#1339=DIRECTION('ref_axis',(0.412594422147247,0.,0.910914838397629));
#1340=DIRECTION('center_axis',(0.,1.,0.));
#1341=DIRECTION('ref_axis',(0.412594422147247,0.,0.910914838397629));
#1342=DIRECTION('',(0.,-1.,0.));
#1343=DIRECTION('center_axis',(0.,-1.,0.));
#1344=DIRECTION('ref_axis',(-0.412594422147247,0.,-0.910914838397629));
#1345=DIRECTION('center_axis',(0.,1.,0.));
#1346=DIRECTION('ref_axis',(-0.412594422147247,0.,-0.910914838397629));
#1347=DIRECTION('center_axis',(0.,-1.,0.));
#1348=DIRECTION('ref_axis',(-0.412594422147247,0.,-0.910914838397629));
#1349=DIRECTION('center_axis',(0.,-1.,0.));
#1350=DIRECTION('ref_axis',(-0.978340114777996,0.,-0.207003912562486));
#1351=DIRECTION('center_axis',(0.,1.,0.));
#1352=DIRECTION('ref_axis',(-0.978340114777996,0.,-0.207003912562486));
#1353=DIRECTION('',(0.,-1.,0.));
#1354=DIRECTION('center_axis',(0.,-1.,0.));
#1355=DIRECTION('ref_axis',(-0.978340114777996,0.,-0.207003912562486));
#1356=DIRECTION('',(0.,-1.,0.));
#1357=DIRECTION('center_axis',(0.,-1.,0.));
#1358=DIRECTION('ref_axis',(-0.857875568595938,0.,0.513857479079749));
#1359=DIRECTION('center_axis',(0.,1.,0.));
#1360=DIRECTION('ref_axis',(-0.857875568595938,0.,0.513857479079749));
#1361=DIRECTION('center_axis',(0.,-1.,0.));
#1362=DIRECTION('ref_axis',(-0.857875568595938,0.,0.513857479079749));
#1363=DIRECTION('',(0.,-1.,0.));
#1364=DIRECTION('center_axis',(0.,-1.,0.));
#1365=DIRECTION('ref_axis',(0.857875568595939,0.,0.513857479079749));
#1366=DIRECTION('center_axis',(0.,1.,0.));
#1367=DIRECTION('ref_axis',(0.857875568595939,0.,0.513857479079749));
#1368=DIRECTION('center_axis',(0.,-1.,0.));
#1369=DIRECTION('ref_axis',(0.857875568595939,0.,0.513857479079749));
#1370=DIRECTION('',(0.,-1.,0.));
#1371=DIRECTION('center_axis',(0.,-1.,0.));
#1372=DIRECTION('ref_axis',(0.857875568595939,0.,-0.513857479079749));
#1373=DIRECTION('center_axis',(0.,1.,0.));
#1374=DIRECTION('ref_axis',(0.857875568595939,0.,-0.513857479079749));
#1375=DIRECTION('center_axis',(0.,-1.,0.));
#1376=DIRECTION('ref_axis',(0.857875568595939,0.,-0.513857479079749));
#1377=DIRECTION('',(0.,-1.,0.));
#1378=DIRECTION('center_axis',(0.,-1.,0.));
#1379=DIRECTION('ref_axis',(0.,0.,-1.));
#1380=DIRECTION('center_axis',(0.,-1.,0.));
#1381=DIRECTION('ref_axis',(0.,0.,-1.));
#1382=DIRECTION('center_axis',(0.,1.,0.));
#1383=DIRECTION('ref_axis',(0.,0.,-1.));
#1384=DIRECTION('',(0.,-1.,0.));
#1385=DIRECTION('center_axis',(-2.2085946853553E-16,0.,1.));
#1386=DIRECTION('ref_axis',(-1.,0.,-2.2085946853553E-16));
#1387=DIRECTION('',(1.,0.,2.2085946853553E-16));
#1388=DIRECTION('',(-1.,0.,-2.2085946853553E-16));
#1389=DIRECTION('',(0.,1.,0.));
#1390=DIRECTION('center_axis',(0.,-1.,0.));
#1391=DIRECTION('ref_axis',(0.0128025495244512,0.,-0.999918044004444));
#1392=DIRECTION('center_axis',(0.,1.,0.));
#1393=DIRECTION('ref_axis',(0.0128025495244512,0.,-0.999918044004444));
#1394=DIRECTION('',(0.,-1.,0.));
#1395=DIRECTION('center_axis',(0.,-1.,0.));
#1396=DIRECTION('ref_axis',(0.0128025495244512,0.,-0.999918044004444));
#1397=DIRECTION('center_axis',(0.0352938299987647,0.,-0.999376978704242));
#1398=DIRECTION('ref_axis',(0.999376978704242,0.,0.0352938299987647));
#1399=DIRECTION('',(-0.999376978704242,0.,-0.0352938299987647));
#1400=DIRECTION('',(0.,-1.,0.));
#1401=DIRECTION('',(0.999376978704242,0.,0.0352938299987647));
#1402=DIRECTION('',(0.,-1.,0.));
#1403=DIRECTION('center_axis',(2.21008121837783E-16,0.,-1.));
#1404=DIRECTION('ref_axis',(1.,0.,2.21008121837783E-16));
#1405=DIRECTION('',(-1.,0.,-2.21008121837783E-16));
#1406=DIRECTION('',(1.,0.,2.21008121837783E-16));
#1407=DIRECTION('',(0.,-1.,0.));
#1408=DIRECTION('center_axis',(0.,-1.,0.));
#1409=DIRECTION('ref_axis',(-0.412594422147247,0.,-0.910914838397629));
#1410=DIRECTION('center_axis',(0.,-1.,0.));
#1411=DIRECTION('ref_axis',(-0.412594422147247,0.,-0.910914838397629));
#1412=DIRECTION('center_axis',(0.,1.,0.));
#1413=DIRECTION('ref_axis',(-0.412594422147247,0.,-0.910914838397629));
#1414=DIRECTION('',(0.,-1.,0.));
#1415=DIRECTION('center_axis',(0.,-1.,0.));
#1416=DIRECTION('ref_axis',(0.412594422147247,0.,0.910914838397629));
#1417=DIRECTION('center_axis',(0.,1.,0.));
#1418=DIRECTION('ref_axis',(0.412594422147247,0.,0.910914838397629));
#1419=DIRECTION('center_axis',(0.,-1.,0.));
#1420=DIRECTION('ref_axis',(0.412594422147247,0.,0.910914838397629));
#1421=DIRECTION('center_axis',(0.,-1.,0.));
#1422=DIRECTION('ref_axis',(-0.207003912562486,0.,0.978340114777996));
#1423=DIRECTION('center_axis',(0.,1.,0.));
#1424=DIRECTION('ref_axis',(-0.207003912562486,0.,0.978340114777996));
#1425=DIRECTION('',(0.,-1.,0.));
#1426=DIRECTION('center_axis',(0.,-1.,0.));
#1427=DIRECTION('ref_axis',(-0.207003912562486,0.,0.978340114777996));
#1428=DIRECTION('',(0.,-1.,0.));
#1429=DIRECTION('center_axis',(0.,-1.,0.));
#1430=DIRECTION('ref_axis',(0.513857479079749,0.,0.857875568595938));
#1431=DIRECTION('center_axis',(0.,1.,0.));
#1432=DIRECTION('ref_axis',(0.513857479079749,0.,0.857875568595938));
#1433=DIRECTION('center_axis',(0.,-1.,0.));
#1434=DIRECTION('ref_axis',(0.513857479079749,0.,0.857875568595938));
#1435=DIRECTION('',(0.,-1.,0.));
#1436=DIRECTION('center_axis',(0.,-1.,0.));
#1437=DIRECTION('ref_axis',(0.513857479079749,0.,-0.857875568595939));
#1438=DIRECTION('center_axis',(0.,1.,0.));
#1439=DIRECTION('ref_axis',(0.513857479079749,0.,-0.857875568595939));
#1440=DIRECTION('center_axis',(0.,-1.,0.));
#1441=DIRECTION('ref_axis',(0.513857479079749,0.,-0.857875568595939));
#1442=DIRECTION('',(0.,-1.,0.));
#1443=DIRECTION('center_axis',(0.,-1.,0.));
#1444=DIRECTION('ref_axis',(-0.513857479079749,0.,-0.857875568595939));
#1445=DIRECTION('center_axis',(0.,1.,0.));
#1446=DIRECTION('ref_axis',(-0.513857479079749,0.,-0.857875568595939));
#1447=DIRECTION('center_axis',(0.,-1.,0.));
#1448=DIRECTION('ref_axis',(-0.513857479079749,0.,-0.857875568595939));
#1449=DIRECTION('',(0.,-1.,0.));
#1450=DIRECTION('center_axis',(0.,-1.,0.));
#1451=DIRECTION('ref_axis',(-1.,0.,0.));
#1452=DIRECTION('center_axis',(0.,-1.,0.));
#1453=DIRECTION('ref_axis',(-1.,0.,0.));
#1454=DIRECTION('center_axis',(0.,1.,0.));
#1455=DIRECTION('ref_axis',(-1.,0.,0.));
#1456=DIRECTION('',(0.,-1.,0.));
#1457=DIRECTION('center_axis',(1.,0.,0.));
#1458=DIRECTION('ref_axis',(0.,0.,1.));
#1459=DIRECTION('',(0.,0.,-1.));
#1460=DIRECTION('',(0.,0.,1.));
#1461=DIRECTION('',(0.,1.,0.));
#1462=DIRECTION('center_axis',(0.,-1.,0.));
#1463=DIRECTION('ref_axis',(-0.999918044004444,0.,-0.0128025495244512));
#1464=DIRECTION('center_axis',(0.,1.,0.));
#1465=DIRECTION('ref_axis',(-0.999918044004444,0.,-0.0128025495244512));
#1466=DIRECTION('',(0.,-1.,0.));
#1467=DIRECTION('center_axis',(0.,-1.,0.));
#1468=DIRECTION('ref_axis',(-0.999918044004444,0.,-0.0128025495244512));
#1469=DIRECTION('center_axis',(-0.999376978704242,0.,-0.0352938299987645));
#1470=DIRECTION('ref_axis',(0.0352938299987645,0.,-0.999376978704242));
#1471=DIRECTION('',(-0.0352938299987645,0.,0.999376978704242));
#1472=DIRECTION('',(0.,-1.,0.));
#1473=DIRECTION('',(0.0352938299987645,0.,-0.999376978704242));
#1474=DIRECTION('',(0.,-1.,0.));
#1475=DIRECTION('center_axis',(-1.,0.,0.));
#1476=DIRECTION('ref_axis',(0.,0.,-1.));
#1477=DIRECTION('',(0.,0.,1.));
#1478=DIRECTION('',(0.,0.,-1.));
#1479=DIRECTION('',(0.,-1.,0.));
#1480=DIRECTION('center_axis',(0.,-1.,0.));
#1481=DIRECTION('ref_axis',(-0.910914838397629,0.,0.412594422147247));
#1482=DIRECTION('center_axis',(0.,-1.,0.));
#1483=DIRECTION('ref_axis',(-0.910914838397629,0.,0.412594422147247));
#1484=DIRECTION('center_axis',(0.,1.,0.));
#1485=DIRECTION('ref_axis',(-0.910914838397629,0.,0.412594422147247));
#1486=DIRECTION('',(0.,-1.,0.));
#1487=DIRECTION('center_axis',(0.,-1.,0.));
#1488=DIRECTION('ref_axis',(0.910914838397629,0.,-0.412594422147247));
#1489=DIRECTION('center_axis',(0.,1.,0.));
#1490=DIRECTION('ref_axis',(0.910914838397629,0.,-0.412594422147247));
#1491=DIRECTION('center_axis',(0.,-1.,0.));
#1492=DIRECTION('ref_axis',(0.910914838397629,0.,-0.412594422147247));
#1493=DIRECTION('center_axis',(0.,-1.,0.));
#1494=DIRECTION('ref_axis',(0.207003912562486,0.,-0.978340114777996));
#1495=DIRECTION('center_axis',(0.,1.,0.));
#1496=DIRECTION('ref_axis',(0.207003912562486,0.,-0.978340114777996));
#1497=DIRECTION('',(0.,-1.,0.));
#1498=DIRECTION('center_axis',(0.,-1.,0.));
#1499=DIRECTION('ref_axis',(0.207003912562486,0.,-0.978340114777996));
#1500=DIRECTION('',(0.,-1.,0.));
#1501=DIRECTION('center_axis',(0.,-1.,0.));
#1502=DIRECTION('ref_axis',(-0.513857479079749,0.,-0.857875568595938));
#1503=DIRECTION('center_axis',(0.,1.,0.));
#1504=DIRECTION('ref_axis',(-0.513857479079749,0.,-0.857875568595938));
#1505=DIRECTION('center_axis',(0.,-1.,0.));
#1506=DIRECTION('ref_axis',(-0.513857479079749,0.,-0.857875568595938));
#1507=DIRECTION('',(0.,-1.,0.));
#1508=DIRECTION('center_axis',(0.,-1.,0.));
#1509=DIRECTION('ref_axis',(-0.513857479079749,0.,0.857875568595939));
#1510=DIRECTION('center_axis',(0.,1.,0.));
#1511=DIRECTION('ref_axis',(-0.513857479079749,0.,0.857875568595939));
#1512=DIRECTION('center_axis',(0.,-1.,0.));
#1513=DIRECTION('ref_axis',(-0.513857479079749,0.,0.857875568595939));
#1514=DIRECTION('',(0.,-1.,0.));
#1515=DIRECTION('center_axis',(0.,-1.,0.));
#1516=DIRECTION('ref_axis',(0.513857479079749,0.,0.857875568595939));
#1517=DIRECTION('center_axis',(0.,1.,0.));
#1518=DIRECTION('ref_axis',(0.513857479079749,0.,0.857875568595939));
#1519=DIRECTION('center_axis',(0.,-1.,0.));
#1520=DIRECTION('ref_axis',(0.513857479079749,0.,0.857875568595939));
#1521=DIRECTION('',(0.,-1.,0.));
#1522=DIRECTION('center_axis',(0.,-1.,0.));
#1523=DIRECTION('ref_axis',(1.,0.,0.));
#1524=DIRECTION('center_axis',(0.,-1.,0.));
#1525=DIRECTION('ref_axis',(1.,0.,0.));
#1526=DIRECTION('center_axis',(0.,1.,0.));
#1527=DIRECTION('ref_axis',(1.,0.,0.));
#1528=DIRECTION('',(0.,-1.,0.));
#1529=DIRECTION('center_axis',(-1.,0.,-1.10429734267765E-16));
#1530=DIRECTION('ref_axis',(1.10429734267765E-16,0.,-1.));
#1531=DIRECTION('',(-1.10429734267765E-16,0.,1.));
#1532=DIRECTION('',(1.10429734267765E-16,0.,-1.));
#1533=DIRECTION('',(0.,1.,0.));
#1534=DIRECTION('center_axis',(0.,-1.,0.));
#1535=DIRECTION('ref_axis',(0.999918044004444,0.,0.0128025495244512));
#1536=DIRECTION('center_axis',(0.,1.,0.));
#1537=DIRECTION('ref_axis',(0.999918044004444,0.,0.0128025495244512));
#1538=DIRECTION('',(0.,-1.,0.));
#1539=DIRECTION('center_axis',(0.,-1.,0.));
#1540=DIRECTION('ref_axis',(0.999918044004444,0.,0.0128025495244512));
#1541=DIRECTION('center_axis',(0.999376978704242,0.,0.0352938299987647));
#1542=DIRECTION('ref_axis',(-0.0352938299987647,0.,0.999376978704242));
#1543=DIRECTION('',(0.0352938299987647,0.,-0.999376978704242));
#1544=DIRECTION('',(0.,-1.,0.));
#1545=DIRECTION('',(-0.0352938299987647,0.,0.999376978704242));
#1546=DIRECTION('',(0.,-1.,0.));
#1547=DIRECTION('center_axis',(1.,0.,1.19004373297268E-16));
#1548=DIRECTION('ref_axis',(-1.19004373297268E-16,0.,1.));
#1549=DIRECTION('',(1.19004373297268E-16,0.,-1.));
#1550=DIRECTION('',(-1.19004373297268E-16,0.,1.));
#1551=DIRECTION('',(0.,-1.,0.));
#1552=DIRECTION('center_axis',(0.,-1.,0.));
#1553=DIRECTION('ref_axis',(0.910914838397629,0.,-0.412594422147247));
#1554=DIRECTION('center_axis',(0.,-1.,0.));
#1555=DIRECTION('ref_axis',(0.910914838397629,0.,-0.412594422147247));
#1556=DIRECTION('center_axis',(0.,1.,0.));
#1557=DIRECTION('ref_axis',(0.910914838397629,0.,-0.412594422147247));
#1558=DIRECTION('',(0.,-1.,0.));
#1559=DIRECTION('center_axis',(0.,-1.,0.));
#1560=DIRECTION('ref_axis',(-0.910914838397629,0.,0.412594422147247));
#1561=DIRECTION('center_axis',(0.,1.,0.));
#1562=DIRECTION('ref_axis',(-0.910914838397629,0.,0.412594422147247));
#1563=DIRECTION('center_axis',(0.,-1.,0.));
#1564=DIRECTION('ref_axis',(-0.910914838397629,0.,0.412594422147247));
#1565=DIRECTION('center_axis',(0.,1.,0.));
#1566=DIRECTION('ref_axis',(0.,0.,1.));
#1567=DIRECTION('center_axis',(0.,-1.,0.));
#1568=DIRECTION('ref_axis',(0.707106781186547,0.,-0.707106781186547));
#1569=DIRECTION('',(-1.,0.,0.));
#1570=DIRECTION('center_axis',(0.,-1.,0.));
#1571=DIRECTION('ref_axis',(-0.707106781186547,0.,-0.707106781186547));
#1572=DIRECTION('',(0.,0.,1.));
#1573=DIRECTION('center_axis',(0.,-1.,0.));
#1574=DIRECTION('ref_axis',(-0.707106781186547,0.,0.707106781186547));
#1575=DIRECTION('',(1.,0.,0.));
#1576=DIRECTION('center_axis',(0.,-1.,0.));
#1577=DIRECTION('ref_axis',(0.707106781186547,0.,0.707106781186547));
#1578=DIRECTION('',(0.,0.,-1.));
#1579=DIRECTION('center_axis',(0.,-1.,0.));
#1580=DIRECTION('ref_axis',(-1.,0.,0.));
#1581=DIRECTION('center_axis',(0.,-1.,0.));
#1582=DIRECTION('ref_axis',(-1.,0.,0.));
#1583=DIRECTION('center_axis',(0.,-1.,0.));
#1584=DIRECTION('ref_axis',(-1.,0.,0.));
#1585=DIRECTION('center_axis',(0.,-1.,0.));
#1586=DIRECTION('ref_axis',(-1.,0.,0.));
#1587=DIRECTION('center_axis',(0.,-1.,0.));
#1588=DIRECTION('ref_axis',(-1.,0.,0.));
#1589=DIRECTION('center_axis',(0.,1.,0.));
#1590=DIRECTION('ref_axis',(-1.,0.,0.));
#1591=DIRECTION('center_axis',(0.,-1.,0.));
#1592=DIRECTION('ref_axis',(-1.,0.,0.));
#1593=DIRECTION('center_axis',(0.,1.,0.));
#1594=DIRECTION('ref_axis',(-1.,0.,0.));
#1595=DIRECTION('center_axis',(0.,-1.,0.));
#1596=DIRECTION('ref_axis',(-1.,0.,0.));
#1597=DIRECTION('center_axis',(0.,1.,0.));
#1598=DIRECTION('ref_axis',(-1.,0.,0.));
#1599=DIRECTION('center_axis',(0.,-1.,0.));
#1600=DIRECTION('ref_axis',(-1.,0.,0.));
#1601=DIRECTION('center_axis',(0.,1.,0.));
#1602=DIRECTION('ref_axis',(-1.,0.,0.));
#1603=DIRECTION('center_axis',(0.,1.,0.));
#1604=DIRECTION('ref_axis',(0.707106781186547,0.,-0.707106781186547));
#1605=DIRECTION('',(0.,-1.,0.));
#1606=DIRECTION('center_axis',(0.,1.,0.));
#1607=DIRECTION('ref_axis',(0.707106781186547,0.,-0.707106781186547));
#1608=DIRECTION('',(0.,1.,0.));
#1609=DIRECTION('center_axis',(0.,0.,-1.));
#1610=DIRECTION('ref_axis',(-1.,0.,0.));
#1611=DIRECTION('',(1.,0.,0.));
#1612=DIRECTION('',(0.,-1.,0.));
#1613=DIRECTION('center_axis',(0.,1.,0.));
#1614=DIRECTION('ref_axis',(1.,0.,0.));
#1615=DIRECTION('',(0.,0.,1.));
#1616=DIRECTION('center_axis',(0.,1.,0.));
#1617=DIRECTION('ref_axis',(0.707106781186547,0.,0.707106781186547));
#1618=DIRECTION('',(-1.,0.,0.));
#1619=DIRECTION('center_axis',(0.,1.,0.));
#1620=DIRECTION('ref_axis',(-0.707106781186547,0.,0.707106781186547));
#1621=DIRECTION('',(0.,0.,-1.));
#1622=DIRECTION('center_axis',(0.,1.,0.));
#1623=DIRECTION('ref_axis',(-0.707106781186547,0.,-0.707106781186547));
#1624=DIRECTION('center_axis',(0.,1.,0.));
#1625=DIRECTION('ref_axis',(-0.707106781186547,0.,-0.707106781186547));
#1626=DIRECTION('',(0.,1.,0.));
#1627=DIRECTION('center_axis',(-1.,0.,0.));
#1628=DIRECTION('ref_axis',(0.,0.,1.));
#1629=DIRECTION('',(0.,-1.,0.));
#1630=DIRECTION('center_axis',(0.,1.,0.));
#1631=DIRECTION('ref_axis',(-0.707106781186547,0.,0.707106781186547));
#1632=DIRECTION('',(0.,1.,0.));
#1633=DIRECTION('center_axis',(0.,0.,1.));
#1634=DIRECTION('ref_axis',(1.,0.,0.));
#1635=DIRECTION('',(0.,-1.,0.));
#1636=DIRECTION('center_axis',(0.,1.,0.));
#1637=DIRECTION('ref_axis',(0.707106781186547,0.,0.707106781186547));
#1638=DIRECTION('',(0.,1.,0.));
#1639=DIRECTION('center_axis',(1.,0.,0.));
#1640=DIRECTION('ref_axis',(0.,0.,-1.));
#1641=CARTESIAN_POINT('',(0.,0.,0.));
#1642=CARTESIAN_POINT('Origin',(14.0815524467595,35.,-5.55266870363356));
#1643=CARTESIAN_POINT('',(15.6631047072544,0.,-6.50000009685755));
#1644=CARTESIAN_POINT('',(12.5000001862645,0.,-6.50000009685755));
#1645=CARTESIAN_POINT('Origin',(14.0815524467595,0.,-5.55266870363356));
#1646=CARTESIAN_POINT('',(15.6631047072544,35.,-6.50000009685755));
#1647=CARTESIAN_POINT('',(15.6631047072544,35.,-6.50000009685755));
#1648=CARTESIAN_POINT('',(12.5000001862645,35.,-6.50000009685755));
#1649=CARTESIAN_POINT('Origin',(14.0815524467595,35.,-5.55266870363356));
#1650=CARTESIAN_POINT('',(12.5000001862645,35.,-6.50000009685755));
#1651=CARTESIAN_POINT('Origin',(14.5868521255309,35.,-5.2500000782311));
#1652=CARTESIAN_POINT('',(12.5000001862645,0.,-4.00000005960465));
#1653=CARTESIAN_POINT('Origin',(14.5868521255309,0.,-5.2500000782311));
#1654=CARTESIAN_POINT('',(12.5000001862645,35.,-4.00000005960465));
#1655=CARTESIAN_POINT('Origin',(14.5868521255309,35.,-5.2500000782311));
#1656=CARTESIAN_POINT('',(12.5000001862645,35.,-4.00000005960465));
#1657=CARTESIAN_POINT('Origin',(28.5070988742265,35.,-13.5880658354364));
#1658=CARTESIAN_POINT('',(13.5000002011657,0.,-2.50000003725291));
#1659=CARTESIAN_POINT('Origin',(28.5070988742265,0.,-13.5880658354364));
#1660=CARTESIAN_POINT('',(13.5000002011657,35.,-2.50000003725291));
#1661=CARTESIAN_POINT('Origin',(28.5070988742265,35.,-13.5880658354364));
#1662=CARTESIAN_POINT('',(13.5000002011657,35.,-2.50000003725291));
#1663=CARTESIAN_POINT('Origin',(12.5000001862645,35.,-1.76114529890747));
#1664=CARTESIAN_POINT('',(12.5000001862645,0.,-0.517800473777355));
#1665=CARTESIAN_POINT('Origin',(12.5000001862645,0.,-1.76114529890747));
#1666=CARTESIAN_POINT('',(12.5000001862645,35.,-0.517800473777355));
#1667=CARTESIAN_POINT('Origin',(12.5000001862645,35.,-1.76114529890747));
#1668=CARTESIAN_POINT('',(12.5000001862645,35.,-0.517800473777355));
#1669=CARTESIAN_POINT('Origin',(9.98658513553837,35.,-0.517800473777355));
#1670=CARTESIAN_POINT('',(9.98658513553837,0.,-0.517800473777355));
#1671=CARTESIAN_POINT('',(4.99329256776919,0.,-0.517800473777354));
#1672=CARTESIAN_POINT('',(9.98658513553837,35.,-0.517800473777355));
#1673=CARTESIAN_POINT('',(4.99329256776919,35.,-0.517800473777354));
#1674=CARTESIAN_POINT('',(9.98658513553837,35.,-0.517800473777355));
#1675=CARTESIAN_POINT('Origin',(14.5322926149725,35.,0.977865512601895));
#1676=CARTESIAN_POINT('',(14.5000002160668,0.,3.50000005215406));
#1677=CARTESIAN_POINT('',(17.0000002533197,0.,1.50000002235174));
#1678=CARTESIAN_POINT('Origin',(14.5322926149725,0.,0.977865512601895));
#1679=CARTESIAN_POINT('',(14.5000002160668,35.,3.50000005215406));
#1680=CARTESIAN_POINT('',(14.5000002160668,35.,3.50000005215406));
#1681=CARTESIAN_POINT('',(17.0000002533197,35.,1.50000002235174));
#1682=CARTESIAN_POINT('Origin',(14.5322926149725,35.,0.977865512601895));
#1683=CARTESIAN_POINT('',(17.0000002533197,35.,1.50000002235174));
#1684=CARTESIAN_POINT('Origin',(6.14254398558886,35.,-0.797295053202215));
#1685=CARTESIAN_POINT('Origin',(6.14254398558886,0.,-0.797295053202215));
#1686=CARTESIAN_POINT('Origin',(6.14254398558886,35.,-0.797295053202215));
#1687=CARTESIAN_POINT('Origin',(10.0000001490116,35.,0.500000007450578));
#1688=CARTESIAN_POINT('',(9.98751424270798,0.,0.499559057274768));
#1689=CARTESIAN_POINT('',(10.0000001490116,0.,0.500000007450578));
#1690=CARTESIAN_POINT('',(4.99741038634936,0.,0.323329385253654));
#1691=CARTESIAN_POINT('',(9.98751424270798,35.,0.499559057274768));
#1692=CARTESIAN_POINT('',(9.98751424270798,35.,0.499559057274768));
#1693=CARTESIAN_POINT('',(10.0000001490116,35.,0.500000007450578));
#1694=CARTESIAN_POINT('',(4.99741038634936,35.,0.323329385253654));
#1695=CARTESIAN_POINT('',(10.0000001490116,35.,0.500000007450578));
#1696=CARTESIAN_POINT('Origin',(14.0815524467595,35.,0.500000007450578));
#1697=CARTESIAN_POINT('',(14.0815524467595,0.,0.500000007450578));
#1698=CARTESIAN_POINT('',(7.04077622337974,0.,0.500000007450579));
#1699=CARTESIAN_POINT('',(14.0815524467595,35.,0.500000007450578));
#1700=CARTESIAN_POINT('',(7.04077622337974,35.,0.500000007450579));
#1701=CARTESIAN_POINT('',(14.0815524467595,35.,0.500000007450578));
#1702=CARTESIAN_POINT('Origin',(13.8550798881276,35.,1.00000001490116));
#1703=CARTESIAN_POINT('',(14.0815524467595,0.,1.50000002235174));
#1704=CARTESIAN_POINT('Origin',(13.8550798881276,0.,1.00000001490116));
#1705=CARTESIAN_POINT('',(14.0815524467595,35.,1.50000002235174));
#1706=CARTESIAN_POINT('Origin',(13.8550798881276,35.,1.00000001490116));
#1707=CARTESIAN_POINT('',(14.0815524467595,35.,1.50000002235174));
#1708=CARTESIAN_POINT('Origin',(14.5134001840422,35.,2.45342181068335));
#1709=CARTESIAN_POINT('Origin',(14.5134001840422,0.,2.45342181068335));
#1710=CARTESIAN_POINT('Origin',(14.5134001840422,35.,2.45342181068335));
#1711=CARTESIAN_POINT('Origin',(-6.14254398558886,35.,0.797295053202213));
#1712=CARTESIAN_POINT('',(-17.0000002533197,0.,-1.50000002235175));
#1713=CARTESIAN_POINT('',(-15.6631047072544,0.,6.50000009685754));
#1714=CARTESIAN_POINT('Origin',(-6.14254398558886,0.,0.797295053202213));
#1715=CARTESIAN_POINT('',(-17.0000002533197,35.,-1.50000002235175));
#1716=CARTESIAN_POINT('',(-17.0000002533197,35.,-1.50000002235175));
#1717=CARTESIAN_POINT('',(-15.6631047072544,35.,6.50000009685754));
#1718=CARTESIAN_POINT('Origin',(-6.14254398558886,35.,0.797295053202213));
#1719=CARTESIAN_POINT('',(-15.6631047072544,35.,6.50000009685754));
#1720=CARTESIAN_POINT('Origin',(-14.0815524467595,35.,5.55266870363355));
#1721=CARTESIAN_POINT('',(-12.5000001862645,0.,6.50000009685754));
#1722=CARTESIAN_POINT('Origin',(-14.0815524467595,0.,5.55266870363355));
#1723=CARTESIAN_POINT('',(-12.5000001862645,35.,6.50000009685754));
#1724=CARTESIAN_POINT('Origin',(-14.0815524467595,35.,5.55266870363355));
#1725=CARTESIAN_POINT('',(-12.5000001862645,35.,6.50000009685754));
#1726=CARTESIAN_POINT('Origin',(-14.5868521255309,35.,5.25000007823109));
#1727=CARTESIAN_POINT('',(-12.5000001862645,0.,4.00000005960464));
#1728=CARTESIAN_POINT('Origin',(-14.5868521255309,0.,5.25000007823109));
#1729=CARTESIAN_POINT('',(-12.5000001862645,35.,4.00000005960464));
#1730=CARTESIAN_POINT('Origin',(-14.5868521255309,35.,5.25000007823109));
#1731=CARTESIAN_POINT('',(-12.5000001862645,35.,4.00000005960464));
#1732=CARTESIAN_POINT('Origin',(-28.5070988742265,35.,13.5880658354364));
#1733=CARTESIAN_POINT('',(-13.5000002011657,0.,2.5000000372529));
#1734=CARTESIAN_POINT('Origin',(-28.5070988742265,0.,13.5880658354364));
#1735=CARTESIAN_POINT('',(-13.5000002011657,35.,2.5000000372529));
#1736=CARTESIAN_POINT('Origin',(-28.5070988742265,35.,13.5880658354364));
#1737=CARTESIAN_POINT('',(-13.5000002011657,35.,2.5000000372529));
#1738=CARTESIAN_POINT('Origin',(-12.5000001862645,35.,1.76114529890746));
#1739=CARTESIAN_POINT('',(-12.5000001862645,0.,0.51780047377735));
#1740=CARTESIAN_POINT('Origin',(-12.5000001862645,0.,1.76114529890746));
#1741=CARTESIAN_POINT('',(-12.5000001862645,35.,0.51780047377735));
#1742=CARTESIAN_POINT('Origin',(-12.5000001862645,35.,1.76114529890746));
#1743=CARTESIAN_POINT('',(-12.5000001862645,35.,0.51780047377735));
#1744=CARTESIAN_POINT('Origin',(-9.98658513553837,35.,0.51780047377735));
#1745=CARTESIAN_POINT('',(-9.98658513553837,0.,0.51780047377735));
#1746=CARTESIAN_POINT('',(-4.99329256776919,0.,0.517800473777351));
#1747=CARTESIAN_POINT('',(-9.98658513553837,35.,0.51780047377735));
#1748=CARTESIAN_POINT('',(-4.99329256776919,35.,0.517800473777351));
#1749=CARTESIAN_POINT('',(-9.98658513553837,35.,0.51780047377735));
#1750=CARTESIAN_POINT('Origin',(-14.5322926149725,35.,-0.977865512601901));
#1751=CARTESIAN_POINT('',(-14.5000002160668,0.,-3.50000005215407));
#1752=CARTESIAN_POINT('Origin',(-14.5322926149725,0.,-0.977865512601901));
#1753=CARTESIAN_POINT('',(-14.5000002160668,35.,-3.50000005215407));
#1754=CARTESIAN_POINT('',(-14.5000002160668,35.,-3.50000005215407));
#1755=CARTESIAN_POINT('Origin',(-14.5322926149725,35.,-0.977865512601901));
#1756=CARTESIAN_POINT('Origin',(-10.0000001490116,35.,-0.500000007450583));
#1757=CARTESIAN_POINT('',(-9.98751424270798,0.,-0.499559057274772));
#1758=CARTESIAN_POINT('',(-10.0000001490116,0.,-0.500000007450583));
#1759=CARTESIAN_POINT('',(-4.99741038634936,0.,-0.323329385253657));
#1760=CARTESIAN_POINT('',(-9.98751424270798,35.,-0.499559057274772));
#1761=CARTESIAN_POINT('',(-9.98751424270798,35.,-0.499559057274772));
#1762=CARTESIAN_POINT('',(-10.0000001490116,35.,-0.500000007450583));
#1763=CARTESIAN_POINT('',(-4.99741038634936,35.,-0.323329385253657));
#1764=CARTESIAN_POINT('',(-10.0000001490116,35.,-0.500000007450583));
#1765=CARTESIAN_POINT('Origin',(-14.0815524467595,35.,-0.500000007450584));
#1766=CARTESIAN_POINT('',(-14.0815524467595,0.,-0.500000007450584));
#1767=CARTESIAN_POINT('',(-7.04077622337973,0.,-0.500000007450582));
#1768=CARTESIAN_POINT('',(-14.0815524467595,35.,-0.500000007450584));
#1769=CARTESIAN_POINT('',(-7.04077622337973,35.,-0.500000007450582));
#1770=CARTESIAN_POINT('',(-14.0815524467595,35.,-0.500000007450584));
#1771=CARTESIAN_POINT('Origin',(-13.8550798881276,35.,-1.00000001490116));
#1772=CARTESIAN_POINT('',(-14.0815524467595,0.,-1.50000002235174));
#1773=CARTESIAN_POINT('Origin',(-13.8550798881276,0.,-1.00000001490116));
#1774=CARTESIAN_POINT('',(-14.0815524467595,35.,-1.50000002235174));
#1775=CARTESIAN_POINT('Origin',(-13.8550798881276,35.,-1.00000001490116));
#1776=CARTESIAN_POINT('',(-14.0815524467595,35.,-1.50000002235174));
#1777=CARTESIAN_POINT('Origin',(-14.5134001840422,35.,-2.45342181068336));
#1778=CARTESIAN_POINT('Origin',(-14.5134001840422,0.,-2.45342181068336));
#1779=CARTESIAN_POINT('Origin',(-14.5134001840422,35.,-2.45342181068336));
#1780=CARTESIAN_POINT('Origin',(0.797295053202214,35.,6.14254398558886));
#1781=CARTESIAN_POINT('',(-1.50000002235174,0.,17.0000002533197));
#1782=CARTESIAN_POINT('',(6.50000009685755,0.,15.6631047072544));
#1783=CARTESIAN_POINT('Origin',(0.797295053202214,0.,6.14254398558886));
#1784=CARTESIAN_POINT('',(-1.50000002235174,35.,17.0000002533197));
#1785=CARTESIAN_POINT('',(-1.50000002235174,35.,17.0000002533197));
#1786=CARTESIAN_POINT('',(6.50000009685755,35.,15.6631047072544));
#1787=CARTESIAN_POINT('Origin',(0.797295053202214,35.,6.14254398558886));
#1788=CARTESIAN_POINT('',(6.50000009685755,35.,15.6631047072544));
#1789=CARTESIAN_POINT('Origin',(5.55266870363356,35.,14.0815524467595));
#1790=CARTESIAN_POINT('',(6.50000009685755,0.,12.5000001862645));
#1791=CARTESIAN_POINT('Origin',(5.55266870363356,0.,14.0815524467595));
#1792=CARTESIAN_POINT('',(6.50000009685755,35.,12.5000001862645));
#1793=CARTESIAN_POINT('Origin',(5.55266870363356,35.,14.0815524467595));
#1794=CARTESIAN_POINT('',(6.50000009685755,35.,12.5000001862645));
#1795=CARTESIAN_POINT('Origin',(5.2500000782311,35.,14.5868521255309));
#1796=CARTESIAN_POINT('',(4.00000005960464,0.,12.5000001862645));
#1797=CARTESIAN_POINT('Origin',(5.2500000782311,0.,14.5868521255309));
#1798=CARTESIAN_POINT('',(4.00000005960464,35.,12.5000001862645));
#1799=CARTESIAN_POINT('Origin',(5.2500000782311,35.,14.5868521255309));
#1800=CARTESIAN_POINT('',(4.00000005960464,35.,12.5000001862645));
#1801=CARTESIAN_POINT('Origin',(13.5880658354364,35.,28.5070988742265));
#1802=CARTESIAN_POINT('',(2.50000003725293,0.,13.5000002011657));
#1803=CARTESIAN_POINT('Origin',(13.5880658354364,0.,28.5070988742265));
#1804=CARTESIAN_POINT('',(2.50000003725293,35.,13.5000002011657));
#1805=CARTESIAN_POINT('Origin',(13.5880658354364,35.,28.5070988742265));
#1806=CARTESIAN_POINT('',(2.50000003725293,35.,13.5000002011657));
#1807=CARTESIAN_POINT('Origin',(1.76114529890746,35.,12.5000001862645));
#1808=CARTESIAN_POINT('',(0.517800473777352,0.,12.5000001862645));
#1809=CARTESIAN_POINT('Origin',(1.76114529890746,0.,12.5000001862645));
#1810=CARTESIAN_POINT('',(0.517800473777352,35.,12.5000001862645));
#1811=CARTESIAN_POINT('Origin',(1.76114529890746,35.,12.5000001862645));
#1812=CARTESIAN_POINT('',(0.517800473777352,35.,12.5000001862645));
#1813=CARTESIAN_POINT('Origin',(0.517800473777352,35.,9.98658513553837));
#1814=CARTESIAN_POINT('',(0.517800473777352,0.,9.98658513553837));
#1815=CARTESIAN_POINT('',(0.517800473777352,0.,4.99329256776919));
#1816=CARTESIAN_POINT('',(0.517800473777352,35.,9.98658513553837));
#1817=CARTESIAN_POINT('',(0.517800473777352,35.,4.99329256776919));
#1818=CARTESIAN_POINT('',(0.517800473777352,35.,9.98658513553837));
#1819=CARTESIAN_POINT('Origin',(-0.977865512601898,35.,14.5322926149725));
#1820=CARTESIAN_POINT('',(-3.50000005215406,0.,14.5000002160668));
#1821=CARTESIAN_POINT('Origin',(-0.977865512601898,0.,14.5322926149725));
#1822=CARTESIAN_POINT('',(-3.50000005215406,35.,14.5000002160668));
#1823=CARTESIAN_POINT('',(-3.50000005215406,35.,14.5000002160668));
#1824=CARTESIAN_POINT('Origin',(-0.977865512601898,35.,14.5322926149725));
#1825=CARTESIAN_POINT('Origin',(-0.500000007450581,35.,10.0000001490116));
#1826=CARTESIAN_POINT('',(-0.49955905727477,0.,9.98751424270798));
#1827=CARTESIAN_POINT('',(-0.500000007450581,0.,10.0000001490116));
#1828=CARTESIAN_POINT('',(-0.323329385253656,0.,4.99741038634936));
#1829=CARTESIAN_POINT('',(-0.49955905727477,35.,9.98751424270798));
#1830=CARTESIAN_POINT('',(-0.49955905727477,35.,9.98751424270798));
#1831=CARTESIAN_POINT('',(-0.500000007450581,35.,10.0000001490116));
#1832=CARTESIAN_POINT('',(-0.323329385253656,35.,4.99741038634936));
#1833=CARTESIAN_POINT('',(-0.500000007450581,35.,10.0000001490116));
#1834=CARTESIAN_POINT('Origin',(-0.500000007450581,35.,14.0815524467595));
#1835=CARTESIAN_POINT('',(-0.500000007450581,0.,14.0815524467595));
#1836=CARTESIAN_POINT('',(-0.500000007450581,0.,7.04077622337973));
#1837=CARTESIAN_POINT('',(-0.500000007450581,35.,14.0815524467595));
#1838=CARTESIAN_POINT('',(-0.500000007450581,35.,7.04077622337973));
#1839=CARTESIAN_POINT('',(-0.500000007450581,35.,14.0815524467595));
#1840=CARTESIAN_POINT('Origin',(-1.00000001490116,35.,13.8550798881276));
#1841=CARTESIAN_POINT('',(-1.50000002235174,0.,14.0815524467595));
#1842=CARTESIAN_POINT('Origin',(-1.00000001490116,0.,13.8550798881276));
#1843=CARTESIAN_POINT('',(-1.50000002235174,35.,14.0815524467595));
#1844=CARTESIAN_POINT('Origin',(-1.00000001490116,35.,13.8550798881276));
#1845=CARTESIAN_POINT('',(-1.50000002235174,35.,14.0815524467595));
#1846=CARTESIAN_POINT('Origin',(-2.45342181068335,35.,14.5134001840422));
#1847=CARTESIAN_POINT('Origin',(-2.45342181068335,0.,14.5134001840422));
#1848=CARTESIAN_POINT('Origin',(-2.45342181068335,35.,14.5134001840422));
#1849=CARTESIAN_POINT('Origin',(-0.797295053202213,35.,-6.14254398558886));
#1850=CARTESIAN_POINT('',(1.50000002235174,0.,-17.0000002533197));
#1851=CARTESIAN_POINT('',(-6.50000009685755,0.,-15.6631047072544));
#1852=CARTESIAN_POINT('Origin',(-0.797295053202213,0.,-6.14254398558886));
#1853=CARTESIAN_POINT('',(1.50000002235174,35.,-17.0000002533197));
#1854=CARTESIAN_POINT('',(1.50000002235174,35.,-17.0000002533197));
#1855=CARTESIAN_POINT('',(-6.50000009685755,35.,-15.6631047072544));
#1856=CARTESIAN_POINT('Origin',(-0.797295053202213,35.,-6.14254398558886));
#1857=CARTESIAN_POINT('',(-6.50000009685755,35.,-15.6631047072544));
#1858=CARTESIAN_POINT('Origin',(-5.55266870363355,35.,-14.0815524467595));
#1859=CARTESIAN_POINT('',(-6.50000009685755,0.,-12.5000001862645));
#1860=CARTESIAN_POINT('Origin',(-5.55266870363355,0.,-14.0815524467595));
#1861=CARTESIAN_POINT('',(-6.50000009685755,35.,-12.5000001862645));
#1862=CARTESIAN_POINT('Origin',(-5.55266870363355,35.,-14.0815524467595));
#1863=CARTESIAN_POINT('',(-6.50000009685755,35.,-12.5000001862645));
#1864=CARTESIAN_POINT('Origin',(-5.25000007823109,35.,-14.5868521255309));
#1865=CARTESIAN_POINT('',(-4.00000005960464,0.,-12.5000001862645));
#1866=CARTESIAN_POINT('Origin',(-5.25000007823109,0.,-14.5868521255309));
#1867=CARTESIAN_POINT('',(-4.00000005960464,35.,-12.5000001862645));
#1868=CARTESIAN_POINT('Origin',(-5.25000007823109,35.,-14.5868521255309));
#1869=CARTESIAN_POINT('',(-4.00000005960464,35.,-12.5000001862645));
#1870=CARTESIAN_POINT('Origin',(-13.5880658354364,35.,-28.5070988742265));
#1871=CARTESIAN_POINT('',(-2.5000000372529,0.,-13.5000002011657));
#1872=CARTESIAN_POINT('Origin',(-13.5880658354364,0.,-28.5070988742265));
#1873=CARTESIAN_POINT('',(-2.5000000372529,35.,-13.5000002011657));
#1874=CARTESIAN_POINT('Origin',(-13.5880658354364,35.,-28.5070988742265));
#1875=CARTESIAN_POINT('',(-2.5000000372529,35.,-13.5000002011657));
#1876=CARTESIAN_POINT('Origin',(-1.76114529890746,35.,-12.5000001862645));
#1877=CARTESIAN_POINT('',(-0.517800473777351,0.,-12.5000001862645));
#1878=CARTESIAN_POINT('Origin',(-1.76114529890746,0.,-12.5000001862645));
#1879=CARTESIAN_POINT('',(-0.517800473777351,35.,-12.5000001862645));
#1880=CARTESIAN_POINT('Origin',(-1.76114529890746,35.,-12.5000001862645));
#1881=CARTESIAN_POINT('',(-0.517800473777351,35.,-12.5000001862645));
#1882=CARTESIAN_POINT('Origin',(-0.517800473777351,35.,-9.98658513553837));
#1883=CARTESIAN_POINT('',(-0.517800473777351,0.,-9.98658513553837));
#1884=CARTESIAN_POINT('',(-0.517800473777352,0.,-4.99329256776919));
#1885=CARTESIAN_POINT('',(-0.517800473777351,35.,-9.98658513553837));
#1886=CARTESIAN_POINT('',(-0.517800473777352,35.,-4.99329256776919));
#1887=CARTESIAN_POINT('',(-0.517800473777351,35.,-9.98658513553837));
#1888=CARTESIAN_POINT('Origin',(0.9778655126019,35.,-14.5322926149725));
#1889=CARTESIAN_POINT('',(3.50000005215407,0.,-14.5000002160668));
#1890=CARTESIAN_POINT('Origin',(0.9778655126019,0.,-14.5322926149725));
#1891=CARTESIAN_POINT('',(3.50000005215407,35.,-14.5000002160668));
#1892=CARTESIAN_POINT('',(3.50000005215407,35.,-14.5000002160668));
#1893=CARTESIAN_POINT('Origin',(0.9778655126019,35.,-14.5322926149725));
#1894=CARTESIAN_POINT('Origin',(0.500000007450582,35.,-10.0000001490116));
#1895=CARTESIAN_POINT('',(0.499559057274771,0.,-9.98751424270798));
#1896=CARTESIAN_POINT('',(0.500000007450582,0.,-10.0000001490116));
#1897=CARTESIAN_POINT('',(0.323329385253656,0.,-4.99741038634936));
#1898=CARTESIAN_POINT('',(0.499559057274771,35.,-9.98751424270798));
#1899=CARTESIAN_POINT('',(0.499559057274771,35.,-9.98751424270798));
#1900=CARTESIAN_POINT('',(0.500000007450582,35.,-10.0000001490116));
#1901=CARTESIAN_POINT('',(0.323329385253656,35.,-4.99741038634936));
#1902=CARTESIAN_POINT('',(0.500000007450582,35.,-10.0000001490116));
#1903=CARTESIAN_POINT('Origin',(0.500000007450582,35.,-14.0815524467595));
#1904=CARTESIAN_POINT('',(0.500000007450582,0.,-14.0815524467595));
#1905=CARTESIAN_POINT('',(0.500000007450581,0.,-7.04077622337973));
#1906=CARTESIAN_POINT('',(0.500000007450582,35.,-14.0815524467595));
#1907=CARTESIAN_POINT('',(0.500000007450581,35.,-7.04077622337973));
#1908=CARTESIAN_POINT('',(0.500000007450582,35.,-14.0815524467595));
#1909=CARTESIAN_POINT('Origin',(1.00000001490116,35.,-13.8550798881276));
#1910=CARTESIAN_POINT('',(1.50000002235174,0.,-14.0815524467595));
#1911=CARTESIAN_POINT('Origin',(1.00000001490116,0.,-13.8550798881276));
#1912=CARTESIAN_POINT('',(1.50000002235174,35.,-14.0815524467595));
#1913=CARTESIAN_POINT('Origin',(1.00000001490116,35.,-13.8550798881276));
#1914=CARTESIAN_POINT('',(1.50000002235174,35.,-14.0815524467595));
#1915=CARTESIAN_POINT('Origin',(2.45342181068336,35.,-14.5134001840422));
#1916=CARTESIAN_POINT('Origin',(2.45342181068336,0.,-14.5134001840422));
#1917=CARTESIAN_POINT('Origin',(2.45342181068336,35.,-14.5134001840422));
#1918=CARTESIAN_POINT('Origin',(0.,35.,0.));
#1919=CARTESIAN_POINT('',(17.5,35.,-25.));
#1920=CARTESIAN_POINT('',(25.,35.,-17.5));
#1921=CARTESIAN_POINT('Origin',(17.5,35.,-17.5));
#1922=CARTESIAN_POINT('',(-17.5,35.,-25.));
#1923=CARTESIAN_POINT('',(-25.,35.,-25.));
#1924=CARTESIAN_POINT('',(-25.,35.,-17.5));
#1925=CARTESIAN_POINT('Origin',(-17.5,35.,-17.5));
#1926=CARTESIAN_POINT('',(-25.,35.,17.5));
#1927=CARTESIAN_POINT('',(-25.,35.,25.));
#1928=CARTESIAN_POINT('',(-17.5,35.,25.));
#1929=CARTESIAN_POINT('Origin',(-17.5,35.,17.5));
#1930=CARTESIAN_POINT('',(17.5,35.,25.));
#1931=CARTESIAN_POINT('',(25.,35.,25.));
#1932=CARTESIAN_POINT('',(25.,35.,17.5));
#1933=CARTESIAN_POINT('Origin',(17.5,35.,17.5));
#1934=CARTESIAN_POINT('',(25.,35.,-25.));
#1935=CARTESIAN_POINT('Origin',(0.,35.,0.));
#1936=CARTESIAN_POINT('Origin',(0.,35.,0.));
#1937=CARTESIAN_POINT('Origin',(0.,35.,0.));
#1938=CARTESIAN_POINT('Origin',(0.,35.,0.));
#1939=CARTESIAN_POINT('Origin',(0.,35.,0.));
#1940=CARTESIAN_POINT('Origin',(0.,0.,0.));
#1941=CARTESIAN_POINT('Origin',(0.,35.,0.));
#1942=CARTESIAN_POINT('Origin',(0.,0.,0.));
#1943=CARTESIAN_POINT('Origin',(0.,35.,0.));
#1944=CARTESIAN_POINT('Origin',(0.,0.,0.));
#1945=CARTESIAN_POINT('Origin',(0.,35.,0.));
#1946=CARTESIAN_POINT('Origin',(0.,0.,0.));
#1947=CARTESIAN_POINT('Origin',(17.5,0.,-17.5));
#1948=CARTESIAN_POINT('',(25.,0.,-17.5));
#1949=CARTESIAN_POINT('',(25.,0.,-17.5));
#1950=CARTESIAN_POINT('',(17.5,0.,-25.));
#1951=CARTESIAN_POINT('Origin',(17.5,0.,-17.5));
#1952=CARTESIAN_POINT('',(17.5,0.,-25.));
#1953=CARTESIAN_POINT('Origin',(25.,0.,-25.));
#1954=CARTESIAN_POINT('',(-17.5,0.,-25.));
#1955=CARTESIAN_POINT('',(-25.,0.,-25.));
#1956=CARTESIAN_POINT('',(-17.5,0.,-25.));
#1957=CARTESIAN_POINT('Origin',(0.,0.,0.));
#1958=CARTESIAN_POINT('',(25.,0.,17.5));
#1959=CARTESIAN_POINT('',(25.,0.,-25.));
#1960=CARTESIAN_POINT('',(17.5,0.,25.));
#1961=CARTESIAN_POINT('Origin',(17.5,0.,17.5));
#1962=CARTESIAN_POINT('',(-17.5,0.,25.));
#1963=CARTESIAN_POINT('',(25.,0.,25.));
#1964=CARTESIAN_POINT('',(-25.,0.,17.5));
#1965=CARTESIAN_POINT('Origin',(-17.5,0.,17.5));
#1966=CARTESIAN_POINT('',(-25.,0.,-17.5));
#1967=CARTESIAN_POINT('',(-25.,0.,25.));
#1968=CARTESIAN_POINT('Origin',(-17.5,0.,-17.5));
#1969=CARTESIAN_POINT('Origin',(-17.5,0.,-17.5));
#1970=CARTESIAN_POINT('',(-25.,0.,-17.5));
#1971=CARTESIAN_POINT('Origin',(-25.,0.,-25.));
#1972=CARTESIAN_POINT('',(-25.,0.,17.5));
#1973=CARTESIAN_POINT('Origin',(-17.5,0.,17.5));
#1974=CARTESIAN_POINT('',(-17.5,0.,25.));
#1975=CARTESIAN_POINT('Origin',(-25.,0.,25.));
#1976=CARTESIAN_POINT('',(17.5,0.,25.));
#1977=CARTESIAN_POINT('Origin',(17.5,0.,17.5));
#1978=CARTESIAN_POINT('',(25.,0.,17.5));
#1979=CARTESIAN_POINT('Origin',(25.,0.,25.));
#1980=UNCERTAINTY_MEASURE_WITH_UNIT(LENGTH_MEASURE(0.01),#1984,
'DISTANCE_ACCURACY_VALUE',
'Maximum model space distance between geometric entities at asserted c
onnectivities');
#1981=UNCERTAINTY_MEASURE_WITH_UNIT(LENGTH_MEASURE(0.01),#1984,
'DISTANCE_ACCURACY_VALUE',
'Maximum model space distance between geometric entities at asserted c
onnectivities');
#1982=(
GEOMETRIC_REPRESENTATION_CONTEXT(3)
GLOBAL_UNCERTAINTY_ASSIGNED_CONTEXT((#1980))
GLOBAL_UNIT_ASSIGNED_CONTEXT((#1984,#1986,#1987))
REPRESENTATION_CONTEXT('','3D')
);
#1983=(
GEOMETRIC_REPRESENTATION_CONTEXT(3)
GLOBAL_UNCERTAINTY_ASSIGNED_CONTEXT((#1981))
GLOBAL_UNIT_ASSIGNED_CONTEXT((#1984,#1986,#1987))
REPRESENTATION_CONTEXT('','3D')
);
#1984=(
LENGTH_UNIT()
NAMED_UNIT(*)
SI_UNIT(.MILLI.,.METRE.)
);
#1985=(
LENGTH_UNIT()
NAMED_UNIT(*)
SI_UNIT($,.METRE.)
);
#1986=(
NAMED_UNIT(*)
PLANE_ANGLE_UNIT()
SI_UNIT($,.RADIAN.)
);
#1987=(
NAMED_UNIT(*)
SI_UNIT($,.STERADIAN.)
SOLID_ANGLE_UNIT()
);
#1988=SHAPE_DEFINITION_REPRESENTATION(#1989,#1990);
#1989=PRODUCT_DEFINITION_SHAPE('',$,#1992);
#1990=SHAPE_REPRESENTATION('',(#1136),#1982);
#1991=PRODUCT_DEFINITION_CONTEXT('part definition',#1996,'design');
#1992=PRODUCT_DEFINITION('(Unsaved)','(Unsaved)',#1993,#1991);
#1993=PRODUCT_DEFINITION_FORMATION('',$,#1998);
#1994=PRODUCT_RELATED_PRODUCT_CATEGORY('(Unsaved)','(Unsaved)',(#1998));
#1995=APPLICATION_PROTOCOL_DEFINITION('international standard',
'automotive_design',2009,#1996);
#1996=APPLICATION_CONTEXT(
'Core Data for Automotive Mechanical Design Process');
#1997=PRODUCT_CONTEXT('part definition',#1996,'mechanical');
#1998=PRODUCT('(Unsaved)','(Unsaved)',$,(#1997));
#1999=PRESENTATION_STYLE_ASSIGNMENT((#2000));
#2000=SURFACE_STYLE_USAGE(.BOTH.,#2001);
#2001=SURFACE_SIDE_STYLE('',(#2002));
#2002=SURFACE_STYLE_FILL_AREA(#2003);
#2003=FILL_AREA_STYLE('Steel - Satin',(#2004));
#2004=FILL_AREA_STYLE_COLOUR('Steel - Satin',#2005);
#2005=COLOUR_RGB('Steel - Satin',0.627450980392157,0.627450980392157,0.627450980392157);
ENDSEC;
END-ISO-10303-21;
