ISO-10303-21;
HEADER;
/* Generated by software containing ST-Developer
 * from STEP Tools, Inc. (www.steptools.com) 
 */

FILE_DESCRIPTION(
/* description */ (''),
/* implementation_level */ '2;1');

FILE_NAME(
/* name */ 'drilled_001.step',
/* time_stamp */ '2024-11-25T12:00:28+03:00',
/* author */ (''),
/* organization */ (''),
/* preprocessor_version */ 'ST-DEVELOPER v20',
/* originating_system */ 'Autodesk Translation Framework v13.14.0.145',

/* authorisation */ '');

FILE_SCHEMA (('AUTOMOTIVE_DESIGN { 1 0 10303 214 3 1 1 }'));
ENDSEC;

DATA;
#10=MECHANICAL_DESIGN_GEOMETRIC_PRESENTATION_REPRESENTATION('',(#13),#735);
#11=SHAPE_REPRESENTATION_RELATIONSHIP('SRR','None',#742,#12);
#12=ADVANCED_BREP_SHAPE_REPRESENTATION('',(#14),#734);
#13=STYLED_ITEM('',(#751),#14);
#14=MANIFOLD_SOLID_BREP('Body1',#427);
#15=FACE_BOUND('',#61,.T.);
#16=FACE_BOUND('',#74,.T.);
#17=PLANE('',#444);
#18=PLANE('',#445);
#19=PLANE('',#449);
#20=PLANE('',#450);
#21=PLANE('',#454);
#22=PLANE('',#455);
#23=PLANE('',#456);
#24=PLANE('',#472);
#25=PLANE('',#475);
#26=PLANE('',#478);
#27=PLANE('',#481);
#28=PLANE('',#482);
#29=FACE_OUTER_BOUND('',#51,.T.);
#30=FACE_OUTER_BOUND('',#52,.T.);
#31=FACE_OUTER_BOUND('',#53,.T.);
#32=FACE_OUTER_BOUND('',#54,.T.);
#33=FACE_OUTER_BOUND('',#55,.T.);
#34=FACE_OUTER_BOUND('',#56,.T.);
#35=FACE_OUTER_BOUND('',#57,.T.);
#36=FACE_OUTER_BOUND('',#58,.T.);
#37=FACE_OUTER_BOUND('',#59,.T.);
#38=FACE_OUTER_BOUND('',#60,.T.);
#39=FACE_OUTER_BOUND('',#62,.T.);
#40=FACE_OUTER_BOUND('',#63,.T.);
#41=FACE_OUTER_BOUND('',#64,.T.);
#42=FACE_OUTER_BOUND('',#65,.T.);
#43=FACE_OUTER_BOUND('',#66,.T.);
#44=FACE_OUTER_BOUND('',#67,.T.);
#45=FACE_OUTER_BOUND('',#68,.T.);
#46=FACE_OUTER_BOUND('',#69,.T.);
#47=FACE_OUTER_BOUND('',#70,.T.);
#48=FACE_OUTER_BOUND('',#71,.T.);
#49=FACE_OUTER_BOUND('',#72,.T.);
#50=FACE_OUTER_BOUND('',#73,.T.);
#51=EDGE_LOOP('',(#275,#276,#277,#278));
#52=EDGE_LOOP('',(#279,#280,#281,#282));
#53=EDGE_LOOP('',(#283,#284,#285,#286));
#54=EDGE_LOOP('',(#287,#288,#289,#290));
#55=EDGE_LOOP('',(#291,#292,#293,#294));
#56=EDGE_LOOP('',(#295,#296,#297,#298));
#57=EDGE_LOOP('',(#299,#300,#301,#302));
#58=EDGE_LOOP('',(#303,#304,#305,#306));
#59=EDGE_LOOP('',(#307,#308,#309,#310));
#60=EDGE_LOOP('',(#311,#312,#313,#314,#315,#316,#317,#318));
#61=EDGE_LOOP('',(#319,#320,#321,#322,#323,#324,#325,#326,#327,#328,#329,
#330));
#62=EDGE_LOOP('',(#331,#332,#333,#334));
#63=EDGE_LOOP('',(#335,#336,#337,#338));
#64=EDGE_LOOP('',(#339,#340,#341,#342));
#65=EDGE_LOOP('',(#343,#344,#345,#346));
#66=EDGE_LOOP('',(#347,#348,#349,#350));
#67=EDGE_LOOP('',(#351,#352,#353,#354));
#68=EDGE_LOOP('',(#355,#356,#357,#358));
#69=EDGE_LOOP('',(#359,#360,#361,#362));
#70=EDGE_LOOP('',(#363,#364,#365,#366));
#71=EDGE_LOOP('',(#367,#368,#369,#370));
#72=EDGE_LOOP('',(#371,#372,#373,#374));
#73=EDGE_LOOP('',(#375,#376,#377,#378,#379,#380,#381,#382));
#74=EDGE_LOOP('',(#383,#384,#385,#386,#387,#388,#389,#390,#391,#392,#393,
#394));
#75=LINE('',#615,#115);
#76=LINE('',#618,#116);
#77=LINE('',#621,#117);
#78=LINE('',#623,#118);
#79=LINE('',#624,#119);
#80=LINE('',#627,#120);
#81=LINE('',#629,#121);
#82=LINE('',#630,#122);
#83=LINE('',#636,#123);
#84=LINE('',#639,#124);
#85=LINE('',#642,#125);
#86=LINE('',#644,#126);
#87=LINE('',#645,#127);
#88=LINE('',#648,#128);
#89=LINE('',#650,#129);
#90=LINE('',#651,#130);
#91=LINE('',#657,#131);
#92=LINE('',#660,#132);
#93=LINE('',#663,#133);
#94=LINE('',#665,#134);
#95=LINE('',#666,#135);
#96=LINE('',#669,#136);
#97=LINE('',#671,#137);
#98=LINE('',#672,#138);
#99=LINE('',#678,#139);
#100=LINE('',#682,#140);
#101=LINE('',#686,#141);
#102=LINE('',#689,#142);
#103=LINE('',#703,#143);
#104=LINE('',#704,#144);
#105=LINE('',#707,#145);
#106=LINE('',#708,#146);
#107=LINE('',#712,#147);
#108=LINE('',#715,#148);
#109=LINE('',#716,#149);
#110=LINE('',#720,#150);
#111=LINE('',#723,#151);
#112=LINE('',#724,#152);
#113=LINE('',#728,#153);
#114=LINE('',#730,#154);
#115=VECTOR('',#489,10.);
#116=VECTOR('',#492,10.);
#117=VECTOR('',#495,10.);
#118=VECTOR('',#496,10.);
#119=VECTOR('',#497,10.);
#120=VECTOR('',#500,10.);
#121=VECTOR('',#501,10.);
#122=VECTOR('',#502,10.);
#123=VECTOR('',#507,10.);
#124=VECTOR('',#510,10.);
#125=VECTOR('',#513,10.);
#126=VECTOR('',#514,10.);
#127=VECTOR('',#515,10.);
#128=VECTOR('',#518,10.);
#129=VECTOR('',#519,10.);
#130=VECTOR('',#520,10.);
#131=VECTOR('',#525,10.);
#132=VECTOR('',#528,10.);
#133=VECTOR('',#531,10.);
#134=VECTOR('',#532,10.);
#135=VECTOR('',#533,10.);
#136=VECTOR('',#536,10.);
#137=VECTOR('',#537,10.);
#138=VECTOR('',#538,10.);
#139=VECTOR('',#543,10.);
#140=VECTOR('',#546,10.);
#141=VECTOR('',#549,10.);
#142=VECTOR('',#552,10.);
#143=VECTOR('',#575,10.);
#144=VECTOR('',#576,10.);
#145=VECTOR('',#579,10.);
#146=VECTOR('',#580,10.);
#147=VECTOR('',#585,10.);
#148=VECTOR('',#588,10.);
#149=VECTOR('',#589,10.);
#150=VECTOR('',#594,10.);
#151=VECTOR('',#597,10.);
#152=VECTOR('',#598,10.);
#153=VECTOR('',#603,10.);
#154=VECTOR('',#606,10.);
#155=CIRCLE('',#442,2.00000002980232);
#156=CIRCLE('',#443,2.00000002980232);
#157=CIRCLE('',#447,2.00000002980232);
#158=CIRCLE('',#448,2.00000002980232);
#159=CIRCLE('',#452,2.00000002980232);
#160=CIRCLE('',#453,2.00000002980232);
#161=CIRCLE('',#457,7.5);
#162=CIRCLE('',#458,7.5);
#163=CIRCLE('',#459,7.5);
#164=CIRCLE('',#460,7.5);
#165=CIRCLE('',#461,10.);
#166=CIRCLE('',#462,10.);
#167=CIRCLE('',#463,10.);
#168=CIRCLE('',#465,10.);
#169=CIRCLE('',#467,10.);
#170=CIRCLE('',#469,10.);
#171=CIRCLE('',#471,7.5);
#172=CIRCLE('',#474,7.5);
#173=CIRCLE('',#477,7.5);
#174=CIRCLE('',#480,7.5);
#175=VERTEX_POINT('',#611);
#176=VERTEX_POINT('',#612);
#177=VERTEX_POINT('',#614);
#178=VERTEX_POINT('',#616);
#179=VERTEX_POINT('',#620);
#180=VERTEX_POINT('',#622);
#181=VERTEX_POINT('',#626);
#182=VERTEX_POINT('',#628);
#183=VERTEX_POINT('',#632);
#184=VERTEX_POINT('',#633);
#185=VERTEX_POINT('',#635);
#186=VERTEX_POINT('',#637);
#187=VERTEX_POINT('',#641);
#188=VERTEX_POINT('',#643);
#189=VERTEX_POINT('',#647);
#190=VERTEX_POINT('',#649);
#191=VERTEX_POINT('',#653);
#192=VERTEX_POINT('',#654);
#193=VERTEX_POINT('',#656);
#194=VERTEX_POINT('',#658);
#195=VERTEX_POINT('',#662);
#196=VERTEX_POINT('',#664);
#197=VERTEX_POINT('',#668);
#198=VERTEX_POINT('',#670);
#199=VERTEX_POINT('',#674);
#200=VERTEX_POINT('',#675);
#201=VERTEX_POINT('',#677);
#202=VERTEX_POINT('',#679);
#203=VERTEX_POINT('',#681);
#204=VERTEX_POINT('',#683);
#205=VERTEX_POINT('',#685);
#206=VERTEX_POINT('',#687);
#207=VERTEX_POINT('',#700);
#208=VERTEX_POINT('',#701);
#209=VERTEX_POINT('',#706);
#210=VERTEX_POINT('',#710);
#211=VERTEX_POINT('',#714);
#212=VERTEX_POINT('',#718);
#213=VERTEX_POINT('',#722);
#214=VERTEX_POINT('',#726);
#215=EDGE_CURVE('',#175,#176,#155,.T.);
#216=EDGE_CURVE('',#177,#175,#75,.T.);
#217=EDGE_CURVE('',#178,#177,#156,.T.);
#218=EDGE_CURVE('',#178,#176,#76,.T.);
#219=EDGE_CURVE('',#176,#179,#77,.T.);
#220=EDGE_CURVE('',#180,#178,#78,.T.);
#221=EDGE_CURVE('',#179,#180,#79,.T.);
#222=EDGE_CURVE('',#181,#175,#80,.T.);
#223=EDGE_CURVE('',#182,#181,#81,.T.);
#224=EDGE_CURVE('',#177,#182,#82,.T.);
#225=EDGE_CURVE('',#183,#184,#157,.T.);
#226=EDGE_CURVE('',#185,#183,#83,.T.);
#227=EDGE_CURVE('',#186,#185,#158,.T.);
#228=EDGE_CURVE('',#186,#184,#84,.T.);
#229=EDGE_CURVE('',#184,#187,#85,.T.);
#230=EDGE_CURVE('',#188,#186,#86,.T.);
#231=EDGE_CURVE('',#187,#188,#87,.T.);
#232=EDGE_CURVE('',#189,#183,#88,.T.);
#233=EDGE_CURVE('',#190,#189,#89,.T.);
#234=EDGE_CURVE('',#185,#190,#90,.T.);
#235=EDGE_CURVE('',#191,#192,#159,.T.);
#236=EDGE_CURVE('',#193,#191,#91,.T.);
#237=EDGE_CURVE('',#194,#193,#160,.T.);
#238=EDGE_CURVE('',#194,#192,#92,.T.);
#239=EDGE_CURVE('',#192,#195,#93,.T.);
#240=EDGE_CURVE('',#196,#194,#94,.T.);
#241=EDGE_CURVE('',#195,#196,#95,.T.);
#242=EDGE_CURVE('',#197,#191,#96,.T.);
#243=EDGE_CURVE('',#198,#197,#97,.T.);
#244=EDGE_CURVE('',#193,#198,#98,.T.);
#245=EDGE_CURVE('',#199,#200,#161,.T.);
#246=EDGE_CURVE('',#199,#201,#99,.T.);
#247=EDGE_CURVE('',#202,#201,#162,.T.);
#248=EDGE_CURVE('',#202,#203,#100,.T.);
#249=EDGE_CURVE('',#204,#203,#163,.T.);
#250=EDGE_CURVE('',#204,#205,#101,.T.);
#251=EDGE_CURVE('',#206,#205,#164,.T.);
#252=EDGE_CURVE('',#206,#200,#102,.T.);
#253=EDGE_CURVE('',#179,#189,#165,.T.);
#254=EDGE_CURVE('',#187,#197,#166,.T.);
#255=EDGE_CURVE('',#195,#181,#167,.T.);
#256=EDGE_CURVE('',#198,#188,#168,.T.);
#257=EDGE_CURVE('',#190,#180,#169,.T.);
#258=EDGE_CURVE('',#182,#196,#170,.T.);
#259=EDGE_CURVE('',#207,#208,#171,.T.);
#260=EDGE_CURVE('',#208,#199,#103,.T.);
#261=EDGE_CURVE('',#200,#207,#104,.T.);
#262=EDGE_CURVE('',#209,#206,#105,.T.);
#263=EDGE_CURVE('',#207,#209,#106,.T.);
#264=EDGE_CURVE('',#210,#209,#172,.T.);
#265=EDGE_CURVE('',#205,#210,#107,.T.);
#266=EDGE_CURVE('',#211,#204,#108,.T.);
#267=EDGE_CURVE('',#210,#211,#109,.T.);
#268=EDGE_CURVE('',#212,#211,#173,.T.);
#269=EDGE_CURVE('',#203,#212,#110,.T.);
#270=EDGE_CURVE('',#213,#202,#111,.T.);
#271=EDGE_CURVE('',#212,#213,#112,.T.);
#272=EDGE_CURVE('',#214,#213,#174,.T.);
#273=EDGE_CURVE('',#201,#214,#113,.T.);
#274=EDGE_CURVE('',#214,#208,#114,.T.);
#275=ORIENTED_EDGE('',*,*,#215,.F.);
#276=ORIENTED_EDGE('',*,*,#216,.F.);
#277=ORIENTED_EDGE('',*,*,#217,.F.);
#278=ORIENTED_EDGE('',*,*,#218,.T.);
#279=ORIENTED_EDGE('',*,*,#219,.F.);
#280=ORIENTED_EDGE('',*,*,#218,.F.);
#281=ORIENTED_EDGE('',*,*,#220,.F.);
#282=ORIENTED_EDGE('',*,*,#221,.F.);
#283=ORIENTED_EDGE('',*,*,#222,.F.);
#284=ORIENTED_EDGE('',*,*,#223,.F.);
#285=ORIENTED_EDGE('',*,*,#224,.F.);
#286=ORIENTED_EDGE('',*,*,#216,.T.);
#287=ORIENTED_EDGE('',*,*,#225,.F.);
#288=ORIENTED_EDGE('',*,*,#226,.F.);
#289=ORIENTED_EDGE('',*,*,#227,.F.);
#290=ORIENTED_EDGE('',*,*,#228,.T.);
#291=ORIENTED_EDGE('',*,*,#229,.F.);
#292=ORIENTED_EDGE('',*,*,#228,.F.);
#293=ORIENTED_EDGE('',*,*,#230,.F.);
#294=ORIENTED_EDGE('',*,*,#231,.F.);
#295=ORIENTED_EDGE('',*,*,#232,.F.);
#296=ORIENTED_EDGE('',*,*,#233,.F.);
#297=ORIENTED_EDGE('',*,*,#234,.F.);
#298=ORIENTED_EDGE('',*,*,#226,.T.);
#299=ORIENTED_EDGE('',*,*,#235,.F.);
#300=ORIENTED_EDGE('',*,*,#236,.F.);
#301=ORIENTED_EDGE('',*,*,#237,.F.);
#302=ORIENTED_EDGE('',*,*,#238,.T.);
#303=ORIENTED_EDGE('',*,*,#239,.F.);
#304=ORIENTED_EDGE('',*,*,#238,.F.);
#305=ORIENTED_EDGE('',*,*,#240,.F.);
#306=ORIENTED_EDGE('',*,*,#241,.F.);
#307=ORIENTED_EDGE('',*,*,#242,.F.);
#308=ORIENTED_EDGE('',*,*,#243,.F.);
#309=ORIENTED_EDGE('',*,*,#244,.F.);
#310=ORIENTED_EDGE('',*,*,#236,.T.);
#311=ORIENTED_EDGE('',*,*,#245,.F.);
#312=ORIENTED_EDGE('',*,*,#246,.T.);
#313=ORIENTED_EDGE('',*,*,#247,.F.);
#314=ORIENTED_EDGE('',*,*,#248,.T.);
#315=ORIENTED_EDGE('',*,*,#249,.F.);
#316=ORIENTED_EDGE('',*,*,#250,.T.);
#317=ORIENTED_EDGE('',*,*,#251,.F.);
#318=ORIENTED_EDGE('',*,*,#252,.T.);
#319=ORIENTED_EDGE('',*,*,#222,.T.);
#320=ORIENTED_EDGE('',*,*,#215,.T.);
#321=ORIENTED_EDGE('',*,*,#219,.T.);
#322=ORIENTED_EDGE('',*,*,#253,.T.);
#323=ORIENTED_EDGE('',*,*,#232,.T.);
#324=ORIENTED_EDGE('',*,*,#225,.T.);
#325=ORIENTED_EDGE('',*,*,#229,.T.);
#326=ORIENTED_EDGE('',*,*,#254,.T.);
#327=ORIENTED_EDGE('',*,*,#242,.T.);
#328=ORIENTED_EDGE('',*,*,#235,.T.);
#329=ORIENTED_EDGE('',*,*,#239,.T.);
#330=ORIENTED_EDGE('',*,*,#255,.T.);
#331=ORIENTED_EDGE('',*,*,#231,.T.);
#332=ORIENTED_EDGE('',*,*,#256,.F.);
#333=ORIENTED_EDGE('',*,*,#243,.T.);
#334=ORIENTED_EDGE('',*,*,#254,.F.);
#335=ORIENTED_EDGE('',*,*,#221,.T.);
#336=ORIENTED_EDGE('',*,*,#257,.F.);
#337=ORIENTED_EDGE('',*,*,#233,.T.);
#338=ORIENTED_EDGE('',*,*,#253,.F.);
#339=ORIENTED_EDGE('',*,*,#223,.T.);
#340=ORIENTED_EDGE('',*,*,#255,.F.);
#341=ORIENTED_EDGE('',*,*,#241,.T.);
#342=ORIENTED_EDGE('',*,*,#258,.F.);
#343=ORIENTED_EDGE('',*,*,#259,.T.);
#344=ORIENTED_EDGE('',*,*,#260,.T.);
#345=ORIENTED_EDGE('',*,*,#245,.T.);
#346=ORIENTED_EDGE('',*,*,#261,.T.);
#347=ORIENTED_EDGE('',*,*,#261,.F.);
#348=ORIENTED_EDGE('',*,*,#252,.F.);
#349=ORIENTED_EDGE('',*,*,#262,.F.);
#350=ORIENTED_EDGE('',*,*,#263,.F.);
#351=ORIENTED_EDGE('',*,*,#264,.T.);
#352=ORIENTED_EDGE('',*,*,#262,.T.);
#353=ORIENTED_EDGE('',*,*,#251,.T.);
#354=ORIENTED_EDGE('',*,*,#265,.T.);
#355=ORIENTED_EDGE('',*,*,#265,.F.);
#356=ORIENTED_EDGE('',*,*,#250,.F.);
#357=ORIENTED_EDGE('',*,*,#266,.F.);
#358=ORIENTED_EDGE('',*,*,#267,.F.);
#359=ORIENTED_EDGE('',*,*,#268,.T.);
#360=ORIENTED_EDGE('',*,*,#266,.T.);
#361=ORIENTED_EDGE('',*,*,#249,.T.);
#362=ORIENTED_EDGE('',*,*,#269,.T.);
#363=ORIENTED_EDGE('',*,*,#269,.F.);
#364=ORIENTED_EDGE('',*,*,#248,.F.);
#365=ORIENTED_EDGE('',*,*,#270,.F.);
#366=ORIENTED_EDGE('',*,*,#271,.F.);
#367=ORIENTED_EDGE('',*,*,#272,.T.);
#368=ORIENTED_EDGE('',*,*,#270,.T.);
#369=ORIENTED_EDGE('',*,*,#247,.T.);
#370=ORIENTED_EDGE('',*,*,#273,.T.);
#371=ORIENTED_EDGE('',*,*,#260,.F.);
#372=ORIENTED_EDGE('',*,*,#274,.F.);
#373=ORIENTED_EDGE('',*,*,#273,.F.);
#374=ORIENTED_EDGE('',*,*,#246,.F.);
#375=ORIENTED_EDGE('',*,*,#259,.F.);
#376=ORIENTED_EDGE('',*,*,#263,.T.);
#377=ORIENTED_EDGE('',*,*,#264,.F.);
#378=ORIENTED_EDGE('',*,*,#267,.T.);
#379=ORIENTED_EDGE('',*,*,#268,.F.);
#380=ORIENTED_EDGE('',*,*,#271,.T.);
#381=ORIENTED_EDGE('',*,*,#272,.F.);
#382=ORIENTED_EDGE('',*,*,#274,.T.);
#383=ORIENTED_EDGE('',*,*,#224,.T.);
#384=ORIENTED_EDGE('',*,*,#258,.T.);
#385=ORIENTED_EDGE('',*,*,#240,.T.);
#386=ORIENTED_EDGE('',*,*,#237,.T.);
#387=ORIENTED_EDGE('',*,*,#244,.T.);
#388=ORIENTED_EDGE('',*,*,#256,.T.);
#389=ORIENTED_EDGE('',*,*,#230,.T.);
#390=ORIENTED_EDGE('',*,*,#227,.T.);
#391=ORIENTED_EDGE('',*,*,#234,.T.);
#392=ORIENTED_EDGE('',*,*,#257,.T.);
#393=ORIENTED_EDGE('',*,*,#220,.T.);
#394=ORIENTED_EDGE('',*,*,#217,.T.);
#395=CYLINDRICAL_SURFACE('',#441,2.00000002980232);
#396=CYLINDRICAL_SURFACE('',#446,2.00000002980232);
#397=CYLINDRICAL_SURFACE('',#451,2.00000002980232);
#398=CYLINDRICAL_SURFACE('',#464,10.);
#399=CYLINDRICAL_SURFACE('',#466,10.);
#400=CYLINDRICAL_SURFACE('',#468,10.);
#401=CYLINDRICAL_SURFACE('',#470,7.5);
#402=CYLINDRICAL_SURFACE('',#473,7.5);
#403=CYLINDRICAL_SURFACE('',#476,7.5);
#404=CYLINDRICAL_SURFACE('',#479,7.5);
#405=ADVANCED_FACE('',(#29),#395,.F.);
#406=ADVANCED_FACE('',(#30),#17,.F.);
#407=ADVANCED_FACE('',(#31),#18,.F.);
#408=ADVANCED_FACE('',(#32),#396,.F.);
#409=ADVANCED_FACE('',(#33),#19,.F.);
#410=ADVANCED_FACE('',(#34),#20,.F.);
#411=ADVANCED_FACE('',(#35),#397,.F.);
#412=ADVANCED_FACE('',(#36),#21,.F.);
#413=ADVANCED_FACE('',(#37),#22,.F.);
#414=ADVANCED_FACE('',(#38,#15),#23,.F.);
#415=ADVANCED_FACE('',(#39),#398,.F.);
#416=ADVANCED_FACE('',(#40),#399,.F.);
#417=ADVANCED_FACE('',(#41),#400,.F.);
#418=ADVANCED_FACE('',(#42),#401,.T.);
#419=ADVANCED_FACE('',(#43),#24,.T.);
#420=ADVANCED_FACE('',(#44),#402,.T.);
#421=ADVANCED_FACE('',(#45),#25,.T.);
#422=ADVANCED_FACE('',(#46),#403,.T.);
#423=ADVANCED_FACE('',(#47),#26,.T.);
#424=ADVANCED_FACE('',(#48),#404,.T.);
#425=ADVANCED_FACE('',(#49),#27,.T.);
#426=ADVANCED_FACE('',(#50,#16),#28,.T.);
#427=CLOSED_SHELL('',(#405,#406,#407,#408,#409,#410,#411,#412,#413,#414,
#415,#416,#417,#418,#419,#420,#421,#422,#423,#424,#425,#426));
#428=DERIVED_UNIT_ELEMENT(#430,1.);
#429=DERIVED_UNIT_ELEMENT(#737,-3.);
#430=(
MASS_UNIT()
NAMED_UNIT(*)
SI_UNIT(.KILO.,.GRAM.)
);
#431=DERIVED_UNIT((#428,#429));
#432=MEASURE_REPRESENTATION_ITEM('density measure',
POSITIVE_RATIO_MEASURE(7850.),#431);
#433=PROPERTY_DEFINITION_REPRESENTATION(#438,#435);
#434=PROPERTY_DEFINITION_REPRESENTATION(#439,#436);
#435=REPRESENTATION('material name',(#437),#734);
#436=REPRESENTATION('density',(#432),#734);
#437=DESCRIPTIVE_REPRESENTATION_ITEM('Steel','Steel');
#438=PROPERTY_DEFINITION('material property','material name',#744);
#439=PROPERTY_DEFINITION('material property','density of part',#744);
#440=AXIS2_PLACEMENT_3D('',#609,#483,#484);
#441=AXIS2_PLACEMENT_3D('',#610,#485,#486);
#442=AXIS2_PLACEMENT_3D('',#613,#487,#488);
#443=AXIS2_PLACEMENT_3D('',#617,#490,#491);
#444=AXIS2_PLACEMENT_3D('',#619,#493,#494);
#445=AXIS2_PLACEMENT_3D('',#625,#498,#499);
#446=AXIS2_PLACEMENT_3D('',#631,#503,#504);
#447=AXIS2_PLACEMENT_3D('',#634,#505,#506);
#448=AXIS2_PLACEMENT_3D('',#638,#508,#509);
#449=AXIS2_PLACEMENT_3D('',#640,#511,#512);
#450=AXIS2_PLACEMENT_3D('',#646,#516,#517);
#451=AXIS2_PLACEMENT_3D('',#652,#521,#522);
#452=AXIS2_PLACEMENT_3D('',#655,#523,#524);
#453=AXIS2_PLACEMENT_3D('',#659,#526,#527);
#454=AXIS2_PLACEMENT_3D('',#661,#529,#530);
#455=AXIS2_PLACEMENT_3D('',#667,#534,#535);
#456=AXIS2_PLACEMENT_3D('',#673,#539,#540);
#457=AXIS2_PLACEMENT_3D('',#676,#541,#542);
#458=AXIS2_PLACEMENT_3D('',#680,#544,#545);
#459=AXIS2_PLACEMENT_3D('',#684,#547,#548);
#460=AXIS2_PLACEMENT_3D('',#688,#550,#551);
#461=AXIS2_PLACEMENT_3D('',#690,#553,#554);
#462=AXIS2_PLACEMENT_3D('',#691,#555,#556);
#463=AXIS2_PLACEMENT_3D('',#692,#557,#558);
#464=AXIS2_PLACEMENT_3D('',#693,#559,#560);
#465=AXIS2_PLACEMENT_3D('',#694,#561,#562);
#466=AXIS2_PLACEMENT_3D('',#695,#563,#564);
#467=AXIS2_PLACEMENT_3D('',#696,#565,#566);
#468=AXIS2_PLACEMENT_3D('',#697,#567,#568);
#469=AXIS2_PLACEMENT_3D('',#698,#569,#570);
#470=AXIS2_PLACEMENT_3D('',#699,#571,#572);
#471=AXIS2_PLACEMENT_3D('',#702,#573,#574);
#472=AXIS2_PLACEMENT_3D('',#705,#577,#578);
#473=AXIS2_PLACEMENT_3D('',#709,#581,#582);
#474=AXIS2_PLACEMENT_3D('',#711,#583,#584);
#475=AXIS2_PLACEMENT_3D('',#713,#586,#587);
#476=AXIS2_PLACEMENT_3D('',#717,#590,#591);
#477=AXIS2_PLACEMENT_3D('',#719,#592,#593);
#478=AXIS2_PLACEMENT_3D('',#721,#595,#596);
#479=AXIS2_PLACEMENT_3D('',#725,#599,#600);
#480=AXIS2_PLACEMENT_3D('',#727,#601,#602);
#481=AXIS2_PLACEMENT_3D('',#729,#604,#605);
#482=AXIS2_PLACEMENT_3D('',#731,#607,#608);
#483=DIRECTION('axis',(0.,0.,1.));
#484=DIRECTION('refdir',(1.,0.,0.));
#485=DIRECTION('center_axis',(0.,-1.,0.));
#486=DIRECTION('ref_axis',(1.,0.,0.));
#487=DIRECTION('center_axis',(0.,1.,0.));
#488=DIRECTION('ref_axis',(1.,0.,0.));
#489=DIRECTION('',(0.,-1.,0.));
#490=DIRECTION('center_axis',(0.,-1.,0.));
#491=DIRECTION('ref_axis',(1.,0.,0.));
#492=DIRECTION('',(0.,-1.,0.));
#493=DIRECTION('center_axis',(-1.,0.,0.));
#494=DIRECTION('ref_axis',(0.,0.,-1.));
#495=DIRECTION('',(0.,0.,1.));
#496=DIRECTION('',(0.,0.,-1.));
#497=DIRECTION('',(0.,1.,0.));
#498=DIRECTION('center_axis',(1.,0.,0.));
#499=DIRECTION('ref_axis',(0.,0.,1.));
#500=DIRECTION('',(0.,0.,-1.));
#501=DIRECTION('',(0.,-1.,0.));
#502=DIRECTION('',(0.,0.,1.));
#503=DIRECTION('center_axis',(0.,-1.,0.));
#504=DIRECTION('ref_axis',(-0.5,0.,-0.866025403784439));
#505=DIRECTION('center_axis',(0.,1.,0.));
#506=DIRECTION('ref_axis',(-0.5,0.,-0.866025403784439));
#507=DIRECTION('',(0.,-1.,0.));
#508=DIRECTION('center_axis',(0.,-1.,0.));
#509=DIRECTION('ref_axis',(-0.5,0.,-0.866025403784439));
#510=DIRECTION('',(0.,-1.,0.));
#511=DIRECTION('center_axis',(0.5,0.,0.866025403784439));
#512=DIRECTION('ref_axis',(-0.866025403784439,0.,0.5));
#513=DIRECTION('',(0.866025403784439,0.,-0.5));
#514=DIRECTION('',(-0.866025403784439,0.,0.5));
#515=DIRECTION('',(0.,1.,0.));
#516=DIRECTION('center_axis',(-0.5,0.,-0.866025403784439));
#517=DIRECTION('ref_axis',(0.866025403784439,0.,-0.5));
#518=DIRECTION('',(-0.866025403784439,0.,0.5));
#519=DIRECTION('',(0.,-1.,0.));
#520=DIRECTION('',(0.866025403784439,0.,-0.5));
#521=DIRECTION('center_axis',(0.,-1.,0.));
#522=DIRECTION('ref_axis',(-0.5,0.,0.866025403784439));
#523=DIRECTION('center_axis',(0.,1.,0.));
#524=DIRECTION('ref_axis',(-0.5,0.,0.866025403784439));
#525=DIRECTION('',(0.,-1.,0.));
#526=DIRECTION('center_axis',(0.,-1.,0.));
#527=DIRECTION('ref_axis',(-0.5,0.,0.866025403784439));
#528=DIRECTION('',(0.,-1.,0.));
#529=DIRECTION('center_axis',(0.5,0.,-0.866025403784439));
#530=DIRECTION('ref_axis',(0.866025403784439,0.,0.5));
#531=DIRECTION('',(-0.866025403784439,0.,-0.5));
#532=DIRECTION('',(0.866025403784439,0.,0.5));
#533=DIRECTION('',(0.,1.,0.));
#534=DIRECTION('center_axis',(-0.5,0.,0.866025403784438));
#535=DIRECTION('ref_axis',(-0.866025403784438,0.,-0.5));
#536=DIRECTION('',(0.866025403784438,0.,0.5));
#537=DIRECTION('',(0.,-1.,0.));
#538=DIRECTION('',(-0.866025403784438,0.,-0.5));
#539=DIRECTION('center_axis',(0.,1.,0.));
#540=DIRECTION('ref_axis',(1.,0.,0.));
#541=DIRECTION('center_axis',(0.,1.,0.));
#542=DIRECTION('ref_axis',(0.707106781186547,0.,-0.707106781186547));
#543=DIRECTION('',(0.,0.,1.));
#544=DIRECTION('center_axis',(0.,1.,0.));
#545=DIRECTION('ref_axis',(0.707106781186547,0.,0.707106781186547));
#546=DIRECTION('',(-1.,0.,0.));
#547=DIRECTION('center_axis',(0.,1.,0.));
#548=DIRECTION('ref_axis',(-0.707106781186547,0.,0.707106781186547));
#549=DIRECTION('',(0.,0.,-1.));
#550=DIRECTION('center_axis',(0.,1.,0.));
#551=DIRECTION('ref_axis',(-0.707106781186547,0.,-0.707106781186547));
#552=DIRECTION('',(1.,0.,0.));
#553=DIRECTION('center_axis',(0.,1.,0.));
#554=DIRECTION('ref_axis',(-1.,0.,0.));
#555=DIRECTION('center_axis',(0.,1.,0.));
#556=DIRECTION('ref_axis',(-1.,0.,0.));
#557=DIRECTION('center_axis',(0.,1.,0.));
#558=DIRECTION('ref_axis',(-1.,0.,0.));
#559=DIRECTION('center_axis',(0.,-1.,0.));
#560=DIRECTION('ref_axis',(-1.,0.,0.));
#561=DIRECTION('center_axis',(0.,-1.,0.));
#562=DIRECTION('ref_axis',(-1.,0.,0.));
#563=DIRECTION('center_axis',(0.,-1.,0.));
#564=DIRECTION('ref_axis',(-1.,0.,0.));
#565=DIRECTION('center_axis',(0.,-1.,0.));
#566=DIRECTION('ref_axis',(-1.,0.,0.));
#567=DIRECTION('center_axis',(0.,-1.,0.));
#568=DIRECTION('ref_axis',(0.866025403784439,0.,-0.5));
#569=DIRECTION('center_axis',(0.,-1.,0.));
#570=DIRECTION('ref_axis',(-1.,0.,0.));
#571=DIRECTION('center_axis',(0.,1.,0.));
#572=DIRECTION('ref_axis',(0.707106781186547,0.,-0.707106781186547));
#573=DIRECTION('center_axis',(0.,-1.,0.));
#574=DIRECTION('ref_axis',(0.707106781186547,0.,-0.707106781186547));
#575=DIRECTION('',(0.,-1.,0.));
#576=DIRECTION('',(0.,1.,0.));
#577=DIRECTION('center_axis',(0.,0.,-1.));
#578=DIRECTION('ref_axis',(-1.,0.,0.));
#579=DIRECTION('',(0.,-1.,0.));
#580=DIRECTION('',(-1.,0.,0.));
#581=DIRECTION('center_axis',(0.,1.,0.));
#582=DIRECTION('ref_axis',(-0.707106781186547,0.,-0.707106781186547));
#583=DIRECTION('center_axis',(0.,-1.,0.));
#584=DIRECTION('ref_axis',(-0.707106781186547,0.,-0.707106781186547));
#585=DIRECTION('',(0.,1.,0.));
#586=DIRECTION('center_axis',(-1.,0.,0.));
#587=DIRECTION('ref_axis',(0.,0.,1.));
#588=DIRECTION('',(0.,-1.,0.));
#589=DIRECTION('',(0.,0.,1.));
#590=DIRECTION('center_axis',(0.,1.,0.));
#591=DIRECTION('ref_axis',(-0.707106781186547,0.,0.707106781186547));
#592=DIRECTION('center_axis',(0.,-1.,0.));
#593=DIRECTION('ref_axis',(-0.707106781186547,0.,0.707106781186547));
#594=DIRECTION('',(0.,1.,0.));
#595=DIRECTION('center_axis',(0.,0.,1.));
#596=DIRECTION('ref_axis',(1.,0.,0.));
#597=DIRECTION('',(0.,-1.,0.));
#598=DIRECTION('',(1.,0.,0.));
#599=DIRECTION('center_axis',(0.,1.,0.));
#600=DIRECTION('ref_axis',(0.707106781186547,0.,0.707106781186547));
#601=DIRECTION('center_axis',(0.,-1.,0.));
#602=DIRECTION('ref_axis',(0.707106781186547,0.,0.707106781186547));
#603=DIRECTION('',(0.,1.,0.));
#604=DIRECTION('center_axis',(1.,0.,0.));
#605=DIRECTION('ref_axis',(0.,0.,-1.));
#606=DIRECTION('',(0.,0.,-1.));
#607=DIRECTION('center_axis',(0.,1.,0.));
#608=DIRECTION('ref_axis',(0.,0.,1.));
#609=CARTESIAN_POINT('',(0.,0.,0.));
#610=CARTESIAN_POINT('Origin',(0.,35.,-15.0000002235174));
#611=CARTESIAN_POINT('',(2.00000002980232,0.,-15.0000002235174));
#612=CARTESIAN_POINT('',(-2.00000002980232,0.,-15.0000002235174));
#613=CARTESIAN_POINT('Origin',(0.,0.,-15.0000002235174));
#614=CARTESIAN_POINT('',(2.00000002980232,35.,-15.0000002235174));
#615=CARTESIAN_POINT('',(2.00000002980232,35.,-15.0000002235174));
#616=CARTESIAN_POINT('',(-2.00000002980232,35.,-15.0000002235174));
#617=CARTESIAN_POINT('Origin',(0.,35.,-15.0000002235174));
#618=CARTESIAN_POINT('',(-2.00000002980232,35.,-15.0000002235174));
#619=CARTESIAN_POINT('Origin',(-2.00000002980232,35.,-9.79795896504934));
#620=CARTESIAN_POINT('',(-2.00000002980232,0.,-9.79795896504934));
#621=CARTESIAN_POINT('',(-2.00000002980232,0.,-4.89897948252467));
#622=CARTESIAN_POINT('',(-2.00000002980232,35.,-9.79795896504934));
#623=CARTESIAN_POINT('',(-2.00000002980232,35.,-4.89897948252467));
#624=CARTESIAN_POINT('',(-2.00000002980232,35.,-9.79795896504934));
#625=CARTESIAN_POINT('Origin',(2.00000002980232,35.,-15.0000002235174));
#626=CARTESIAN_POINT('',(2.00000002980232,0.,-9.79795896504934));
#627=CARTESIAN_POINT('',(2.00000002980232,0.,-7.50000011175871));
#628=CARTESIAN_POINT('',(2.00000002980232,35.,-9.79795896504934));
#629=CARTESIAN_POINT('',(2.00000002980232,35.,-9.79795896504934));
#630=CARTESIAN_POINT('',(2.00000002980232,35.,-7.50000011175871));
#631=CARTESIAN_POINT('Origin',(-12.9903812503383,35.,7.50000011175871));
#632=CARTESIAN_POINT('',(-13.9903812652395,0.,5.76794927838026));
#633=CARTESIAN_POINT('',(-11.9903812354372,0.,9.23205094513715));
#634=CARTESIAN_POINT('Origin',(-12.9903812503383,0.,7.50000011175871));
#635=CARTESIAN_POINT('',(-13.9903812652395,35.,5.76794927838026));
#636=CARTESIAN_POINT('',(-13.9903812652395,35.,5.76794927838026));
#637=CARTESIAN_POINT('',(-11.9903812354372,35.,9.23205094513715));
#638=CARTESIAN_POINT('Origin',(-12.9903812503383,35.,7.50000011175871));
#639=CARTESIAN_POINT('',(-11.9903812354372,35.,9.23205094513715));
#640=CARTESIAN_POINT('Origin',(-7.48528135406906,35.,6.63103031590311));
#641=CARTESIAN_POINT('',(-7.48528135406906,0.,6.63103031590311));
#642=CARTESIAN_POINT('',(-3.24264066958395,0.,4.18154057464078));
#643=CARTESIAN_POINT('',(-7.48528135406906,35.,6.63103031590311));
#644=CARTESIAN_POINT('',(-3.24264066958395,35.,4.18154057464078));
#645=CARTESIAN_POINT('',(-7.48528135406906,35.,6.63103031590311));
#646=CARTESIAN_POINT('Origin',(-13.9903812652395,35.,5.76794927838026));
#647=CARTESIAN_POINT('',(-9.48528138387138,0.,3.16692864914622));
#648=CARTESIAN_POINT('',(-7.49519064007033,0.,2.01794922250091));
#649=CARTESIAN_POINT('',(-9.48528138387138,35.,3.16692864914622));
#650=CARTESIAN_POINT('',(-9.48528138387138,35.,3.16692864914622));
#651=CARTESIAN_POINT('',(-7.49519064007033,35.,2.01794922250091));
#652=CARTESIAN_POINT('Origin',(12.9903812503383,35.,7.50000011175871));
#653=CARTESIAN_POINT('',(11.9903812354372,0.,9.23205094513716));
#654=CARTESIAN_POINT('',(13.9903812652395,0.,5.76794927838027));
#655=CARTESIAN_POINT('Origin',(12.9903812503383,0.,7.50000011175871));
#656=CARTESIAN_POINT('',(11.9903812354372,35.,9.23205094513716));
#657=CARTESIAN_POINT('',(11.9903812354372,35.,9.23205094513716));
#658=CARTESIAN_POINT('',(13.9903812652395,35.,5.76794927838027));
#659=CARTESIAN_POINT('Origin',(12.9903812503383,35.,7.50000011175871));
#660=CARTESIAN_POINT('',(13.9903812652395,35.,5.76794927838027));
#661=CARTESIAN_POINT('Origin',(9.48528138387137,35.,3.16692864914623));
#662=CARTESIAN_POINT('',(9.48528138387138,0.,3.16692864914623));
#663=CARTESIAN_POINT('',(5.24264069938627,-4.44089209850063E-15,0.717438907883891));
#664=CARTESIAN_POINT('',(9.48528138387137,35.,3.16692864914623));
#665=CARTESIAN_POINT('',(5.24264069938627,35.,0.717438907883891));
#666=CARTESIAN_POINT('',(9.48528138387138,35.,3.16692864914623));
#667=CARTESIAN_POINT('Origin',(11.9903812354372,35.,9.23205094513716));
#668=CARTESIAN_POINT('',(7.48528135406905,0.,6.63103031590312));
#669=CARTESIAN_POINT('',(5.49519061026801,0.,5.4820508892578));
#670=CARTESIAN_POINT('',(7.48528135406905,35.,6.63103031590312));
#671=CARTESIAN_POINT('',(7.48528135406905,35.,6.63103031590312));
#672=CARTESIAN_POINT('',(5.49519061026801,35.,5.4820508892578));
#673=CARTESIAN_POINT('Origin',(0.,0.,0.));
#674=CARTESIAN_POINT('',(25.,0.,-17.5));
#675=CARTESIAN_POINT('',(17.5,0.,-25.));
#676=CARTESIAN_POINT('Origin',(17.5,0.,-17.5));
#677=CARTESIAN_POINT('',(25.,0.,17.5));
#678=CARTESIAN_POINT('',(25.,0.,-25.));
#679=CARTESIAN_POINT('',(17.5,0.,25.));
#680=CARTESIAN_POINT('Origin',(17.5,0.,17.5));
#681=CARTESIAN_POINT('',(-17.5,0.,25.));
#682=CARTESIAN_POINT('',(25.,0.,25.));
#683=CARTESIAN_POINT('',(-25.,0.,17.5));
#684=CARTESIAN_POINT('Origin',(-17.5,0.,17.5));
#685=CARTESIAN_POINT('',(-25.,0.,-17.5));
#686=CARTESIAN_POINT('',(-25.,0.,25.));
#687=CARTESIAN_POINT('',(-17.5,0.,-25.));
#688=CARTESIAN_POINT('Origin',(-17.5,0.,-17.5));
#689=CARTESIAN_POINT('',(-25.,0.,-25.));
#690=CARTESIAN_POINT('Origin',(0.,0.,0.));
#691=CARTESIAN_POINT('Origin',(0.,0.,0.));
#692=CARTESIAN_POINT('Origin',(0.,0.,0.));
#693=CARTESIAN_POINT('Origin',(0.,35.,0.));
#694=CARTESIAN_POINT('Origin',(0.,35.,0.));
#695=CARTESIAN_POINT('Origin',(0.,35.,0.));
#696=CARTESIAN_POINT('Origin',(0.,35.,0.));
#697=CARTESIAN_POINT('Origin',(0.,35.,0.));
#698=CARTESIAN_POINT('Origin',(0.,35.,0.));
#699=CARTESIAN_POINT('Origin',(17.5,0.,-17.5));
#700=CARTESIAN_POINT('',(17.5,35.,-25.));
#701=CARTESIAN_POINT('',(25.,35.,-17.5));
#702=CARTESIAN_POINT('Origin',(17.5,35.,-17.5));
#703=CARTESIAN_POINT('',(25.,0.,-17.5));
#704=CARTESIAN_POINT('',(17.5,0.,-25.));
#705=CARTESIAN_POINT('Origin',(25.,0.,-25.));
#706=CARTESIAN_POINT('',(-17.5,35.,-25.));
#707=CARTESIAN_POINT('',(-17.5,0.,-25.));
#708=CARTESIAN_POINT('',(-25.,35.,-25.));
#709=CARTESIAN_POINT('Origin',(-17.5,0.,-17.5));
#710=CARTESIAN_POINT('',(-25.,35.,-17.5));
#711=CARTESIAN_POINT('Origin',(-17.5,35.,-17.5));
#712=CARTESIAN_POINT('',(-25.,0.,-17.5));
#713=CARTESIAN_POINT('Origin',(-25.,0.,-25.));
#714=CARTESIAN_POINT('',(-25.,35.,17.5));
#715=CARTESIAN_POINT('',(-25.,0.,17.5));
#716=CARTESIAN_POINT('',(-25.,35.,25.));
#717=CARTESIAN_POINT('Origin',(-17.5,0.,17.5));
#718=CARTESIAN_POINT('',(-17.5,35.,25.));
#719=CARTESIAN_POINT('Origin',(-17.5,35.,17.5));
#720=CARTESIAN_POINT('',(-17.5,0.,25.));
#721=CARTESIAN_POINT('Origin',(-25.,0.,25.));
#722=CARTESIAN_POINT('',(17.5,35.,25.));
#723=CARTESIAN_POINT('',(17.5,0.,25.));
#724=CARTESIAN_POINT('',(25.,35.,25.));
#725=CARTESIAN_POINT('Origin',(17.5,0.,17.5));
#726=CARTESIAN_POINT('',(25.,35.,17.5));
#727=CARTESIAN_POINT('Origin',(17.5,35.,17.5));
#728=CARTESIAN_POINT('',(25.,0.,17.5));
#729=CARTESIAN_POINT('Origin',(25.,0.,25.));
#730=CARTESIAN_POINT('',(25.,35.,-25.));
#731=CARTESIAN_POINT('Origin',(0.,35.,0.));
#732=UNCERTAINTY_MEASURE_WITH_UNIT(LENGTH_MEASURE(0.01),#736,
'DISTANCE_ACCURACY_VALUE',
'Maximum model space distance between geometric entities at asserted c
onnectivities');
#733=UNCERTAINTY_MEASURE_WITH_UNIT(LENGTH_MEASURE(0.01),#736,
'DISTANCE_ACCURACY_VALUE',
'Maximum model space distance between geometric entities at asserted c
onnectivities');
#734=(
GEOMETRIC_REPRESENTATION_CONTEXT(3)
GLOBAL_UNCERTAINTY_ASSIGNED_CONTEXT((#732))
GLOBAL_UNIT_ASSIGNED_CONTEXT((#736,#738,#739))
REPRESENTATION_CONTEXT('','3D')
);
#735=(
GEOMETRIC_REPRESENTATION_CONTEXT(3)
GLOBAL_UNCERTAINTY_ASSIGNED_CONTEXT((#733))
GLOBAL_UNIT_ASSIGNED_CONTEXT((#736,#738,#739))
REPRESENTATION_CONTEXT('','3D')
);
#736=(
LENGTH_UNIT()
NAMED_UNIT(*)
SI_UNIT(.MILLI.,.METRE.)
);
#737=(
LENGTH_UNIT()
NAMED_UNIT(*)
SI_UNIT($,.METRE.)
);
#738=(
NAMED_UNIT(*)
PLANE_ANGLE_UNIT()
SI_UNIT($,.RADIAN.)
);
#739=(
NAMED_UNIT(*)
SI_UNIT($,.STERADIAN.)
SOLID_ANGLE_UNIT()
);
#740=SHAPE_DEFINITION_REPRESENTATION(#741,#742);
#741=PRODUCT_DEFINITION_SHAPE('',$,#744);
#742=SHAPE_REPRESENTATION('',(#440),#734);
#743=PRODUCT_DEFINITION_CONTEXT('part definition',#748,'design');
#744=PRODUCT_DEFINITION('(Unsaved)','(Unsaved)',#745,#743);
#745=PRODUCT_DEFINITION_FORMATION('',$,#750);
#746=PRODUCT_RELATED_PRODUCT_CATEGORY('(Unsaved)','(Unsaved)',(#750));
#747=APPLICATION_PROTOCOL_DEFINITION('international standard',
'automotive_design',2009,#748);
#748=APPLICATION_CONTEXT(
'Core Data for Automotive Mechanical Design Process');
#749=PRODUCT_CONTEXT('part definition',#748,'mechanical');
#750=PRODUCT('(Unsaved)','(Unsaved)',$,(#749));
#751=PRESENTATION_STYLE_ASSIGNMENT((#752));
#752=SURFACE_STYLE_USAGE(.BOTH.,#753);
#753=SURFACE_SIDE_STYLE('',(#754));
#754=SURFACE_STYLE_FILL_AREA(#755);
#755=FILL_AREA_STYLE('Steel - Satin',(#756));
#756=FILL_AREA_STYLE_COLOUR('Steel - Satin',#757);
#757=COLOUR_RGB('Steel - Satin',0.627450980392157,0.627450980392157,0.627450980392157);
ENDSEC;
END-ISO-10303-21;
