ISO-10303-21;
HEADER;
/* Generated by software containing ST-Developer
 * from STEP Tools, Inc. (www.steptools.com) 
 */

FILE_DESCRIPTION(
/* description */ (''),
/* implementation_level */ '2;1');

FILE_NAME(
/* name */ 'drilled_005.step',
/* time_stamp */ '2024-11-25T12:05:34+03:00',
/* author */ (''),
/* organization */ (''),
/* preprocessor_version */ 'ST-DEVELOPER v20',
/* originating_system */ 'Autodesk Translation Framework v13.14.0.145',

/* authorisation */ '');

FILE_SCHEMA (('AUTOMOTIVE_DESIGN { 1 0 10303 214 3 1 1 }'));
ENDSEC;

DATA;
#10=MECHANICAL_DESIGN_GEOMETRIC_PRESENTATION_REPRESENTATION('',(#13),#1543);
#11=SHAPE_REPRESENTATION_RELATIONSHIP('SRR','None',#1550,#12);
#12=ADVANCED_BREP_SHAPE_REPRESENTATION('',(#14),#1542);
#13=STYLED_ITEM('',(#1559),#14);
#14=MANIFOLD_SOLID_BREP('Body1',#891);
#15=FACE_BOUND('',#156,.T.);
#16=FACE_BOUND('',#170,.T.);
#17=CYLINDRICAL_SURFACE('',#937,13.0000001937151);
#18=CYLINDRICAL_SURFACE('',#940,2.00000002980232);
#19=CYLINDRICAL_SURFACE('',#943,13.0000001937151);
#20=CYLINDRICAL_SURFACE('',#946,2.00000002980232);
#21=CYLINDRICAL_SURFACE('',#956,13.0000001937151);
#22=CYLINDRICAL_SURFACE('',#962,13.0000001937151);
#23=CYLINDRICAL_SURFACE('',#968,2.00000002980232);
#24=CYLINDRICAL_SURFACE('',#971,2.00000002980232);
#25=CYLINDRICAL_SURFACE('',#983,10.);
#26=CYLINDRICAL_SURFACE('',#984,10.);
#27=CYLINDRICAL_SURFACE('',#985,10.);
#28=CYLINDRICAL_SURFACE('',#986,10.);
#29=CYLINDRICAL_SURFACE('',#987,7.5);
#30=CYLINDRICAL_SURFACE('',#989,7.5);
#31=CYLINDRICAL_SURFACE('',#991,7.5);
#32=CYLINDRICAL_SURFACE('',#993,7.5);
#33=CIRCLE('',#907,14.0000001937151);
#34=CIRCLE('',#908,13.0000001937151);
#35=CIRCLE('',#911,14.0000001937151);
#36=CIRCLE('',#912,13.0000001937151);
#37=CIRCLE('',#915,3.00000002980232);
#38=CIRCLE('',#916,2.00000002980232);
#39=CIRCLE('',#919,13.0000001937151);
#40=CIRCLE('',#920,14.0000001937151);
#41=CIRCLE('',#923,3.00000002980232);
#42=CIRCLE('',#924,2.00000002980232);
#43=CIRCLE('',#927,3.00000002980232);
#44=CIRCLE('',#928,2.00000002980232);
#45=CIRCLE('',#931,13.0000001937151);
#46=CIRCLE('',#932,14.0000001937151);
#47=CIRCLE('',#934,3.00000002980232);
#48=CIRCLE('',#935,2.00000002980232);
#49=CIRCLE('',#938,13.0000001937151);
#50=CIRCLE('',#941,2.00000002980232);
#51=CIRCLE('',#944,13.0000001937151);
#52=CIRCLE('',#947,2.00000002980232);
#53=CIRCLE('',#950,7.5);
#54=CIRCLE('',#951,7.5);
#55=CIRCLE('',#952,7.5);
#56=CIRCLE('',#953,7.5);
#57=CIRCLE('',#955,10.);
#58=CIRCLE('',#957,13.0000001937151);
#59=CIRCLE('',#959,10.);
#60=CIRCLE('',#961,10.);
#61=CIRCLE('',#963,13.0000001937151);
#62=CIRCLE('',#965,10.);
#63=CIRCLE('',#969,2.00000002980232);
#64=CIRCLE('',#972,2.00000002980232);
#65=CIRCLE('',#975,7.5);
#66=CIRCLE('',#976,7.5);
#67=CIRCLE('',#977,7.5);
#68=CIRCLE('',#978,7.5);
#69=CIRCLE('',#979,10.);
#70=CIRCLE('',#980,10.);
#71=CIRCLE('',#981,10.);
#72=CIRCLE('',#982,10.);
#73=CONICAL_SURFACE('',#906,13.5000001937151,0.785398163397448);
#74=CONICAL_SURFACE('',#910,13.5000001937151,0.785398163397448);
#75=CONICAL_SURFACE('',#914,2.50000002980232,0.785398163397448);
#76=CONICAL_SURFACE('',#918,13.5000001937151,0.785398163397447);
#77=CONICAL_SURFACE('',#922,2.50000002980232,0.785398163397448);
#78=CONICAL_SURFACE('',#926,2.50000002980232,0.785398163397448);
#79=CONICAL_SURFACE('',#930,13.5000001937151,0.785398163397447);
#80=CONICAL_SURFACE('',#933,2.50000002980232,0.785398163397448);
#81=FACE_OUTER_BOUND('',#131,.T.);
#82=FACE_OUTER_BOUND('',#132,.T.);
#83=FACE_OUTER_BOUND('',#133,.T.);
#84=FACE_OUTER_BOUND('',#134,.T.);
#85=FACE_OUTER_BOUND('',#135,.T.);
#86=FACE_OUTER_BOUND('',#136,.T.);
#87=FACE_OUTER_BOUND('',#137,.T.);
#88=FACE_OUTER_BOUND('',#138,.T.);
#89=FACE_OUTER_BOUND('',#139,.T.);
#90=FACE_OUTER_BOUND('',#140,.T.);
#91=FACE_OUTER_BOUND('',#141,.T.);
#92=FACE_OUTER_BOUND('',#142,.T.);
#93=FACE_OUTER_BOUND('',#143,.T.);
#94=FACE_OUTER_BOUND('',#144,.T.);
#95=FACE_OUTER_BOUND('',#145,.T.);
#96=FACE_OUTER_BOUND('',#146,.T.);
#97=FACE_OUTER_BOUND('',#147,.T.);
#98=FACE_OUTER_BOUND('',#148,.T.);
#99=FACE_OUTER_BOUND('',#149,.T.);
#100=FACE_OUTER_BOUND('',#150,.T.);
#101=FACE_OUTER_BOUND('',#151,.T.);
#102=FACE_OUTER_BOUND('',#152,.T.);
#103=FACE_OUTER_BOUND('',#153,.T.);
#104=FACE_OUTER_BOUND('',#154,.T.);
#105=FACE_OUTER_BOUND('',#155,.T.);
#106=FACE_OUTER_BOUND('',#157,.T.);
#107=FACE_OUTER_BOUND('',#158,.T.);
#108=FACE_OUTER_BOUND('',#159,.T.);
#109=FACE_OUTER_BOUND('',#160,.T.);
#110=FACE_OUTER_BOUND('',#161,.T.);
#111=FACE_OUTER_BOUND('',#162,.T.);
#112=FACE_OUTER_BOUND('',#163,.T.);
#113=FACE_OUTER_BOUND('',#164,.T.);
#114=FACE_OUTER_BOUND('',#165,.T.);
#115=FACE_OUTER_BOUND('',#166,.T.);
#116=FACE_OUTER_BOUND('',#167,.T.);
#117=FACE_OUTER_BOUND('',#168,.T.);
#118=FACE_OUTER_BOUND('',#169,.T.);
#119=FACE_OUTER_BOUND('',#171,.T.);
#120=FACE_OUTER_BOUND('',#172,.T.);
#121=FACE_OUTER_BOUND('',#173,.T.);
#122=FACE_OUTER_BOUND('',#174,.T.);
#123=FACE_OUTER_BOUND('',#175,.T.);
#124=FACE_OUTER_BOUND('',#176,.T.);
#125=FACE_OUTER_BOUND('',#177,.T.);
#126=FACE_OUTER_BOUND('',#178,.T.);
#127=FACE_OUTER_BOUND('',#179,.T.);
#128=FACE_OUTER_BOUND('',#180,.T.);
#129=FACE_OUTER_BOUND('',#181,.T.);
#130=FACE_OUTER_BOUND('',#182,.T.);
#131=EDGE_LOOP('',(#559,#560,#561,#562));
#132=EDGE_LOOP('',(#563,#564,#565,#566));
#133=EDGE_LOOP('',(#567,#568,#569,#570));
#134=EDGE_LOOP('',(#571,#572,#573,#574));
#135=EDGE_LOOP('',(#575,#576,#577,#578));
#136=EDGE_LOOP('',(#579,#580,#581,#582));
#137=EDGE_LOOP('',(#583,#584,#585,#586));
#138=EDGE_LOOP('',(#587,#588,#589,#590));
#139=EDGE_LOOP('',(#591,#592,#593,#594));
#140=EDGE_LOOP('',(#595,#596,#597,#598));
#141=EDGE_LOOP('',(#599,#600,#601,#602));
#142=EDGE_LOOP('',(#603,#604,#605,#606));
#143=EDGE_LOOP('',(#607,#608,#609,#610));
#144=EDGE_LOOP('',(#611,#612,#613,#614));
#145=EDGE_LOOP('',(#615,#616,#617,#618));
#146=EDGE_LOOP('',(#619,#620,#621,#622));
#147=EDGE_LOOP('',(#623,#624,#625,#626));
#148=EDGE_LOOP('',(#627,#628,#629,#630,#631,#632));
#149=EDGE_LOOP('',(#633,#634,#635,#636));
#150=EDGE_LOOP('',(#637,#638,#639,#640,#641,#642));
#151=EDGE_LOOP('',(#643,#644,#645,#646));
#152=EDGE_LOOP('',(#647,#648,#649,#650,#651,#652));
#153=EDGE_LOOP('',(#653,#654,#655,#656));
#154=EDGE_LOOP('',(#657,#658,#659,#660,#661,#662));
#155=EDGE_LOOP('',(#663,#664,#665,#666,#667,#668,#669,#670));
#156=EDGE_LOOP('',(#671,#672,#673,#674,#675,#676,#677,#678,#679,#680,#681,
#682,#683,#684,#685,#686));
#157=EDGE_LOOP('',(#687,#688,#689,#690));
#158=EDGE_LOOP('',(#691,#692,#693,#694));
#159=EDGE_LOOP('',(#695,#696,#697,#698));
#160=EDGE_LOOP('',(#699,#700,#701,#702));
#161=EDGE_LOOP('',(#703,#704,#705,#706));
#162=EDGE_LOOP('',(#707,#708,#709,#710));
#163=EDGE_LOOP('',(#711,#712,#713,#714,#715,#716));
#164=EDGE_LOOP('',(#717,#718,#719,#720,#721,#722));
#165=EDGE_LOOP('',(#723,#724,#725,#726));
#166=EDGE_LOOP('',(#727,#728,#729,#730,#731,#732));
#167=EDGE_LOOP('',(#733,#734,#735,#736));
#168=EDGE_LOOP('',(#737,#738,#739,#740,#741,#742));
#169=EDGE_LOOP('',(#743,#744,#745,#746,#747,#748,#749,#750));
#170=EDGE_LOOP('',(#751,#752,#753,#754,#755,#756,#757,#758,#759,#760,#761,
#762,#763,#764,#765,#766));
#171=EDGE_LOOP('',(#767,#768,#769,#770));
#172=EDGE_LOOP('',(#771,#772,#773,#774));
#173=EDGE_LOOP('',(#775,#776,#777,#778));
#174=EDGE_LOOP('',(#779,#780,#781,#782));
#175=EDGE_LOOP('',(#783,#784,#785,#786));
#176=EDGE_LOOP('',(#787,#788,#789,#790));
#177=EDGE_LOOP('',(#791,#792,#793,#794));
#178=EDGE_LOOP('',(#795,#796,#797,#798));
#179=EDGE_LOOP('',(#799,#800,#801,#802));
#180=EDGE_LOOP('',(#803,#804,#805,#806));
#181=EDGE_LOOP('',(#807,#808,#809,#810));
#182=EDGE_LOOP('',(#811,#812,#813,#814));
#183=B_SPLINE_CURVE_WITH_KNOTS('',3,(#1266,#1267,#1268,#1269),
 .UNSPECIFIED.,.F.,.F.,(4,4),(0.,0.163859764321733),.UNSPECIFIED.);
#184=B_SPLINE_CURVE_WITH_KNOTS('',3,(#1274,#1275,#1276,#1277),
 .UNSPECIFIED.,.F.,.F.,(4,4),(0.,0.16385976432169),.UNSPECIFIED.);
#185=B_SPLINE_CURVE_WITH_KNOTS('',3,(#1287,#1288,#1289,#1290),
 .UNSPECIFIED.,.F.,.F.,(4,4),(0.,0.163859764321739),.UNSPECIFIED.);
#186=B_SPLINE_CURVE_WITH_KNOTS('',3,(#1295,#1296,#1297,#1298),
 .UNSPECIFIED.,.F.,.F.,(4,4),(0.,0.163859764321731),.UNSPECIFIED.);
#187=B_SPLINE_CURVE_WITH_KNOTS('',3,(#1308,#1309,#1310,#1311),
 .UNSPECIFIED.,.F.,.F.,(4,4),(0.,0.163859764321731),.UNSPECIFIED.);
#188=B_SPLINE_CURVE_WITH_KNOTS('',3,(#1326,#1327,#1328,#1329),
 .UNSPECIFIED.,.F.,.F.,(4,4),(0.,0.163859764321744),.UNSPECIFIED.);
#189=B_SPLINE_CURVE_WITH_KNOTS('',3,(#1338,#1339,#1340,#1341),
 .UNSPECIFIED.,.F.,.F.,(4,4),(0.,0.163859764321778),.UNSPECIFIED.);
#190=B_SPLINE_CURVE_WITH_KNOTS('',3,(#1365,#1366,#1367,#1368),
 .UNSPECIFIED.,.F.,.F.,(4,4),(0.,0.163859764321796),.UNSPECIFIED.);
#191=LINE('',#1261,#271);
#192=LINE('',#1263,#272);
#193=LINE('',#1265,#273);
#194=LINE('',#1282,#274);
#195=LINE('',#1284,#275);
#196=LINE('',#1286,#276);
#197=LINE('',#1303,#277);
#198=LINE('',#1305,#278);
#199=LINE('',#1307,#279);
#200=LINE('',#1315,#280);
#201=LINE('',#1319,#281);
#202=LINE('',#1320,#282);
#203=LINE('',#1333,#283);
#204=LINE('',#1335,#284);
#205=LINE('',#1337,#285);
#206=LINE('',#1345,#286);
#207=LINE('',#1349,#287);
#208=LINE('',#1350,#288);
#209=LINE('',#1354,#289);
#210=LINE('',#1358,#290);
#211=LINE('',#1359,#291);
#212=LINE('',#1372,#292);
#213=LINE('',#1376,#293);
#214=LINE('',#1377,#294);
#215=LINE('',#1380,#295);
#216=LINE('',#1383,#296);
#217=LINE('',#1386,#297);
#218=LINE('',#1388,#298);
#219=LINE('',#1390,#299);
#220=LINE('',#1391,#300);
#221=LINE('',#1394,#301);
#222=LINE('',#1398,#302);
#223=LINE('',#1400,#303);
#224=LINE('',#1402,#304);
#225=LINE('',#1403,#305);
#226=LINE('',#1406,#306);
#227=LINE('',#1410,#307);
#228=LINE('',#1412,#308);
#229=LINE('',#1414,#309);
#230=LINE('',#1415,#310);
#231=LINE('',#1418,#311);
#232=LINE('',#1422,#312);
#233=LINE('',#1424,#313);
#234=LINE('',#1426,#314);
#235=LINE('',#1427,#315);
#236=LINE('',#1433,#316);
#237=LINE('',#1437,#317);
#238=LINE('',#1441,#318);
#239=LINE('',#1444,#319);
#240=LINE('',#1449,#320);
#241=LINE('',#1453,#321);
#242=LINE('',#1457,#322);
#243=LINE('',#1461,#323);
#244=LINE('',#1464,#324);
#245=LINE('',#1467,#325);
#246=LINE('',#1469,#326);
#247=LINE('',#1473,#327);
#248=LINE('',#1475,#328);
#249=LINE('',#1476,#329);
#250=LINE('',#1479,#330);
#251=LINE('',#1481,#331);
#252=LINE('',#1482,#332);
#253=LINE('',#1486,#333);
#254=LINE('',#1489,#334);
#255=LINE('',#1490,#335);
#256=LINE('',#1494,#336);
#257=LINE('',#1497,#337);
#258=LINE('',#1498,#338);
#259=LINE('',#1504,#339);
#260=LINE('',#1508,#340);
#261=LINE('',#1512,#341);
#262=LINE('',#1515,#342);
#263=LINE('',#1525,#343);
#264=LINE('',#1526,#344);
#265=LINE('',#1528,#345);
#266=LINE('',#1530,#346);
#267=LINE('',#1532,#347);
#268=LINE('',#1534,#348);
#269=LINE('',#1536,#349);
#270=LINE('',#1538,#350);
#271=VECTOR('',#999,10.);
#272=VECTOR('',#1000,10.);
#273=VECTOR('',#1001,10.);
#274=VECTOR('',#1010,10.);
#275=VECTOR('',#1011,10.);
#276=VECTOR('',#1012,10.);
#277=VECTOR('',#1021,10.);
#278=VECTOR('',#1022,10.);
#279=VECTOR('',#1023,10.);
#280=VECTOR('',#1026,10.);
#281=VECTOR('',#1033,10.);
#282=VECTOR('',#1034,10.);
#283=VECTOR('',#1043,10.);
#284=VECTOR('',#1044,10.);
#285=VECTOR('',#1045,10.);
#286=VECTOR('',#1048,10.);
#287=VECTOR('',#1055,10.);
#288=VECTOR('',#1056,10.);
#289=VECTOR('',#1059,10.);
#290=VECTOR('',#1066,10.);
#291=VECTOR('',#1067,10.);
#292=VECTOR('',#1076,10.);
#293=VECTOR('',#1083,10.);
#294=VECTOR('',#1084,10.);
#295=VECTOR('',#1087,10.);
#296=VECTOR('',#1090,10.);
#297=VECTOR('',#1093,10.);
#298=VECTOR('',#1094,10.);
#299=VECTOR('',#1095,10.);
#300=VECTOR('',#1096,10.);
#301=VECTOR('',#1099,10.);
#302=VECTOR('',#1104,10.);
#303=VECTOR('',#1105,10.);
#304=VECTOR('',#1106,10.);
#305=VECTOR('',#1107,10.);
#306=VECTOR('',#1110,10.);
#307=VECTOR('',#1115,10.);
#308=VECTOR('',#1116,10.);
#309=VECTOR('',#1117,10.);
#310=VECTOR('',#1118,10.);
#311=VECTOR('',#1121,10.);
#312=VECTOR('',#1126,10.);
#313=VECTOR('',#1127,10.);
#314=VECTOR('',#1128,10.);
#315=VECTOR('',#1129,10.);
#316=VECTOR('',#1134,10.);
#317=VECTOR('',#1137,10.);
#318=VECTOR('',#1140,10.);
#319=VECTOR('',#1143,10.);
#320=VECTOR('',#1150,10.);
#321=VECTOR('',#1155,10.);
#322=VECTOR('',#1160,10.);
#323=VECTOR('',#1165,10.);
#324=VECTOR('',#1168,10.);
#325=VECTOR('',#1171,10.);
#326=VECTOR('',#1172,10.);
#327=VECTOR('',#1177,10.);
#328=VECTOR('',#1178,10.);
#329=VECTOR('',#1179,10.);
#330=VECTOR('',#1182,10.);
#331=VECTOR('',#1183,10.);
#332=VECTOR('',#1184,10.);
#333=VECTOR('',#1189,10.);
#334=VECTOR('',#1192,10.);
#335=VECTOR('',#1193,10.);
#336=VECTOR('',#1198,10.);
#337=VECTOR('',#1201,10.);
#338=VECTOR('',#1202,10.);
#339=VECTOR('',#1207,10.);
#340=VECTOR('',#1210,10.);
#341=VECTOR('',#1213,10.);
#342=VECTOR('',#1216,10.);
#343=VECTOR('',#1235,10.);
#344=VECTOR('',#1236,10.);
#345=VECTOR('',#1239,10.);
#346=VECTOR('',#1242,10.);
#347=VECTOR('',#1245,10.);
#348=VECTOR('',#1248,10.);
#349=VECTOR('',#1251,10.);
#350=VECTOR('',#1254,10.);
#351=VERTEX_POINT('',#1259);
#352=VERTEX_POINT('',#1260);
#353=VERTEX_POINT('',#1262);
#354=VERTEX_POINT('',#1264);
#355=VERTEX_POINT('',#1271);
#356=VERTEX_POINT('',#1273);
#357=VERTEX_POINT('',#1280);
#358=VERTEX_POINT('',#1281);
#359=VERTEX_POINT('',#1283);
#360=VERTEX_POINT('',#1285);
#361=VERTEX_POINT('',#1292);
#362=VERTEX_POINT('',#1294);
#363=VERTEX_POINT('',#1301);
#364=VERTEX_POINT('',#1302);
#365=VERTEX_POINT('',#1304);
#366=VERTEX_POINT('',#1306);
#367=VERTEX_POINT('',#1313);
#368=VERTEX_POINT('',#1314);
#369=VERTEX_POINT('',#1322);
#370=VERTEX_POINT('',#1324);
#371=VERTEX_POINT('',#1331);
#372=VERTEX_POINT('',#1332);
#373=VERTEX_POINT('',#1334);
#374=VERTEX_POINT('',#1336);
#375=VERTEX_POINT('',#1343);
#376=VERTEX_POINT('',#1344);
#377=VERTEX_POINT('',#1352);
#378=VERTEX_POINT('',#1353);
#379=VERTEX_POINT('',#1361);
#380=VERTEX_POINT('',#1363);
#381=VERTEX_POINT('',#1370);
#382=VERTEX_POINT('',#1371);
#383=VERTEX_POINT('',#1379);
#384=VERTEX_POINT('',#1381);
#385=VERTEX_POINT('',#1385);
#386=VERTEX_POINT('',#1387);
#387=VERTEX_POINT('',#1389);
#388=VERTEX_POINT('',#1393);
#389=VERTEX_POINT('',#1397);
#390=VERTEX_POINT('',#1399);
#391=VERTEX_POINT('',#1401);
#392=VERTEX_POINT('',#1405);
#393=VERTEX_POINT('',#1409);
#394=VERTEX_POINT('',#1411);
#395=VERTEX_POINT('',#1413);
#396=VERTEX_POINT('',#1417);
#397=VERTEX_POINT('',#1421);
#398=VERTEX_POINT('',#1423);
#399=VERTEX_POINT('',#1425);
#400=VERTEX_POINT('',#1429);
#401=VERTEX_POINT('',#1430);
#402=VERTEX_POINT('',#1432);
#403=VERTEX_POINT('',#1434);
#404=VERTEX_POINT('',#1436);
#405=VERTEX_POINT('',#1438);
#406=VERTEX_POINT('',#1440);
#407=VERTEX_POINT('',#1442);
#408=VERTEX_POINT('',#1448);
#409=VERTEX_POINT('',#1452);
#410=VERTEX_POINT('',#1456);
#411=VERTEX_POINT('',#1460);
#412=VERTEX_POINT('',#1462);
#413=VERTEX_POINT('',#1466);
#414=VERTEX_POINT('',#1468);
#415=VERTEX_POINT('',#1472);
#416=VERTEX_POINT('',#1474);
#417=VERTEX_POINT('',#1478);
#418=VERTEX_POINT('',#1480);
#419=VERTEX_POINT('',#1484);
#420=VERTEX_POINT('',#1488);
#421=VERTEX_POINT('',#1492);
#422=VERTEX_POINT('',#1496);
#423=VERTEX_POINT('',#1500);
#424=VERTEX_POINT('',#1501);
#425=VERTEX_POINT('',#1503);
#426=VERTEX_POINT('',#1505);
#427=VERTEX_POINT('',#1507);
#428=VERTEX_POINT('',#1509);
#429=VERTEX_POINT('',#1511);
#430=VERTEX_POINT('',#1513);
#431=EDGE_CURVE('',#351,#352,#191,.T.);
#432=EDGE_CURVE('',#352,#353,#192,.T.);
#433=EDGE_CURVE('',#353,#354,#193,.T.);
#434=EDGE_CURVE('',#354,#351,#183,.T.);
#435=EDGE_CURVE('',#354,#355,#33,.T.);
#436=EDGE_CURVE('',#355,#356,#184,.T.);
#437=EDGE_CURVE('',#356,#351,#34,.T.);
#438=EDGE_CURVE('',#357,#358,#194,.T.);
#439=EDGE_CURVE('',#358,#359,#195,.T.);
#440=EDGE_CURVE('',#359,#360,#196,.T.);
#441=EDGE_CURVE('',#360,#357,#185,.T.);
#442=EDGE_CURVE('',#360,#361,#35,.T.);
#443=EDGE_CURVE('',#361,#362,#186,.T.);
#444=EDGE_CURVE('',#362,#357,#36,.T.);
#445=EDGE_CURVE('',#363,#364,#197,.T.);
#446=EDGE_CURVE('',#364,#365,#198,.T.);
#447=EDGE_CURVE('',#365,#366,#199,.T.);
#448=EDGE_CURVE('',#366,#363,#187,.T.);
#449=EDGE_CURVE('',#367,#368,#200,.T.);
#450=EDGE_CURVE('',#368,#365,#37,.T.);
#451=EDGE_CURVE('',#364,#367,#38,.T.);
#452=EDGE_CURVE('',#361,#368,#201,.T.);
#453=EDGE_CURVE('',#367,#362,#202,.T.);
#454=EDGE_CURVE('',#369,#363,#39,.T.);
#455=EDGE_CURVE('',#366,#370,#40,.T.);
#456=EDGE_CURVE('',#370,#369,#188,.T.);
#457=EDGE_CURVE('',#371,#372,#203,.T.);
#458=EDGE_CURVE('',#372,#373,#204,.T.);
#459=EDGE_CURVE('',#373,#374,#205,.T.);
#460=EDGE_CURVE('',#374,#371,#189,.T.);
#461=EDGE_CURVE('',#375,#376,#206,.T.);
#462=EDGE_CURVE('',#376,#373,#41,.T.);
#463=EDGE_CURVE('',#372,#375,#42,.T.);
#464=EDGE_CURVE('',#370,#376,#207,.T.);
#465=EDGE_CURVE('',#375,#369,#208,.T.);
#466=EDGE_CURVE('',#377,#378,#209,.T.);
#467=EDGE_CURVE('',#378,#359,#43,.T.);
#468=EDGE_CURVE('',#358,#377,#44,.T.);
#469=EDGE_CURVE('',#355,#378,#210,.T.);
#470=EDGE_CURVE('',#377,#356,#211,.T.);
#471=EDGE_CURVE('',#379,#371,#45,.T.);
#472=EDGE_CURVE('',#374,#380,#46,.T.);
#473=EDGE_CURVE('',#380,#379,#190,.T.);
#474=EDGE_CURVE('',#381,#382,#212,.T.);
#475=EDGE_CURVE('',#382,#353,#47,.T.);
#476=EDGE_CURVE('',#352,#381,#48,.T.);
#477=EDGE_CURVE('',#380,#382,#213,.T.);
#478=EDGE_CURVE('',#381,#379,#214,.T.);
#479=EDGE_CURVE('',#383,#362,#215,.T.);
#480=EDGE_CURVE('',#383,#384,#49,.T.);
#481=EDGE_CURVE('',#357,#384,#216,.T.);
#482=EDGE_CURVE('',#367,#385,#217,.T.);
#483=EDGE_CURVE('',#386,#385,#218,.T.);
#484=EDGE_CURVE('',#387,#386,#219,.T.);
#485=EDGE_CURVE('',#387,#383,#220,.T.);
#486=EDGE_CURVE('',#364,#388,#221,.T.);
#487=EDGE_CURVE('',#385,#388,#50,.T.);
#488=EDGE_CURVE('',#363,#389,#222,.T.);
#489=EDGE_CURVE('',#389,#390,#223,.T.);
#490=EDGE_CURVE('',#391,#390,#224,.T.);
#491=EDGE_CURVE('',#388,#391,#225,.T.);
#492=EDGE_CURVE('',#392,#369,#226,.T.);
#493=EDGE_CURVE('',#392,#389,#51,.T.);
#494=EDGE_CURVE('',#375,#393,#227,.T.);
#495=EDGE_CURVE('',#394,#393,#228,.T.);
#496=EDGE_CURVE('',#395,#394,#229,.T.);
#497=EDGE_CURVE('',#395,#392,#230,.T.);
#498=EDGE_CURVE('',#372,#396,#231,.T.);
#499=EDGE_CURVE('',#393,#396,#52,.T.);
#500=EDGE_CURVE('',#371,#397,#232,.T.);
#501=EDGE_CURVE('',#397,#398,#233,.T.);
#502=EDGE_CURVE('',#399,#398,#234,.T.);
#503=EDGE_CURVE('',#396,#399,#235,.T.);
#504=EDGE_CURVE('',#400,#401,#53,.T.);
#505=EDGE_CURVE('',#400,#402,#236,.T.);
#506=EDGE_CURVE('',#403,#402,#54,.T.);
#507=EDGE_CURVE('',#403,#404,#237,.T.);
#508=EDGE_CURVE('',#405,#404,#55,.T.);
#509=EDGE_CURVE('',#405,#406,#238,.T.);
#510=EDGE_CURVE('',#407,#406,#56,.T.);
#511=EDGE_CURVE('',#407,#401,#239,.T.);
#512=EDGE_CURVE('',#390,#395,#57,.T.);
#513=EDGE_CURVE('',#408,#379,#240,.T.);
#514=EDGE_CURVE('',#408,#397,#58,.T.);
#515=EDGE_CURVE('',#409,#408,#241,.T.);
#516=EDGE_CURVE('',#398,#409,#59,.T.);
#517=EDGE_CURVE('',#384,#410,#242,.T.);
#518=EDGE_CURVE('',#410,#387,#60,.T.);
#519=EDGE_CURVE('',#411,#356,#243,.T.);
#520=EDGE_CURVE('',#411,#412,#61,.T.);
#521=EDGE_CURVE('',#351,#412,#244,.T.);
#522=EDGE_CURVE('',#412,#413,#245,.T.);
#523=EDGE_CURVE('',#414,#411,#246,.T.);
#524=EDGE_CURVE('',#413,#414,#62,.T.);
#525=EDGE_CURVE('',#415,#410,#247,.T.);
#526=EDGE_CURVE('',#416,#415,#248,.T.);
#527=EDGE_CURVE('',#358,#416,#249,.T.);
#528=EDGE_CURVE('',#417,#413,#250,.T.);
#529=EDGE_CURVE('',#418,#417,#251,.T.);
#530=EDGE_CURVE('',#352,#418,#252,.T.);
#531=EDGE_CURVE('',#419,#416,#63,.T.);
#532=EDGE_CURVE('',#377,#419,#253,.T.);
#533=EDGE_CURVE('',#420,#419,#254,.T.);
#534=EDGE_CURVE('',#414,#420,#255,.T.);
#535=EDGE_CURVE('',#421,#418,#64,.T.);
#536=EDGE_CURVE('',#381,#421,#256,.T.);
#537=EDGE_CURVE('',#422,#421,#257,.T.);
#538=EDGE_CURVE('',#409,#422,#258,.T.);
#539=EDGE_CURVE('',#423,#424,#65,.T.);
#540=EDGE_CURVE('',#423,#425,#259,.T.);
#541=EDGE_CURVE('',#426,#425,#66,.T.);
#542=EDGE_CURVE('',#426,#427,#260,.T.);
#543=EDGE_CURVE('',#428,#427,#67,.T.);
#544=EDGE_CURVE('',#428,#429,#261,.T.);
#545=EDGE_CURVE('',#430,#429,#68,.T.);
#546=EDGE_CURVE('',#430,#424,#262,.T.);
#547=EDGE_CURVE('',#415,#386,#69,.T.);
#548=EDGE_CURVE('',#391,#394,#70,.T.);
#549=EDGE_CURVE('',#399,#422,#71,.T.);
#550=EDGE_CURVE('',#417,#420,#72,.T.);
#551=EDGE_CURVE('',#401,#423,#263,.T.);
#552=EDGE_CURVE('',#424,#400,#264,.T.);
#553=EDGE_CURVE('',#402,#430,#265,.T.);
#554=EDGE_CURVE('',#429,#403,#266,.T.);
#555=EDGE_CURVE('',#404,#428,#267,.T.);
#556=EDGE_CURVE('',#427,#405,#268,.T.);
#557=EDGE_CURVE('',#406,#426,#269,.T.);
#558=EDGE_CURVE('',#425,#407,#270,.T.);
#559=ORIENTED_EDGE('',*,*,#431,.T.);
#560=ORIENTED_EDGE('',*,*,#432,.T.);
#561=ORIENTED_EDGE('',*,*,#433,.T.);
#562=ORIENTED_EDGE('',*,*,#434,.T.);
#563=ORIENTED_EDGE('',*,*,#435,.T.);
#564=ORIENTED_EDGE('',*,*,#436,.T.);
#565=ORIENTED_EDGE('',*,*,#437,.T.);
#566=ORIENTED_EDGE('',*,*,#434,.F.);
#567=ORIENTED_EDGE('',*,*,#438,.T.);
#568=ORIENTED_EDGE('',*,*,#439,.T.);
#569=ORIENTED_EDGE('',*,*,#440,.T.);
#570=ORIENTED_EDGE('',*,*,#441,.T.);
#571=ORIENTED_EDGE('',*,*,#442,.T.);
#572=ORIENTED_EDGE('',*,*,#443,.T.);
#573=ORIENTED_EDGE('',*,*,#444,.T.);
#574=ORIENTED_EDGE('',*,*,#441,.F.);
#575=ORIENTED_EDGE('',*,*,#445,.T.);
#576=ORIENTED_EDGE('',*,*,#446,.T.);
#577=ORIENTED_EDGE('',*,*,#447,.T.);
#578=ORIENTED_EDGE('',*,*,#448,.T.);
#579=ORIENTED_EDGE('',*,*,#449,.T.);
#580=ORIENTED_EDGE('',*,*,#450,.T.);
#581=ORIENTED_EDGE('',*,*,#446,.F.);
#582=ORIENTED_EDGE('',*,*,#451,.T.);
#583=ORIENTED_EDGE('',*,*,#452,.T.);
#584=ORIENTED_EDGE('',*,*,#449,.F.);
#585=ORIENTED_EDGE('',*,*,#453,.T.);
#586=ORIENTED_EDGE('',*,*,#443,.F.);
#587=ORIENTED_EDGE('',*,*,#454,.T.);
#588=ORIENTED_EDGE('',*,*,#448,.F.);
#589=ORIENTED_EDGE('',*,*,#455,.T.);
#590=ORIENTED_EDGE('',*,*,#456,.T.);
#591=ORIENTED_EDGE('',*,*,#457,.T.);
#592=ORIENTED_EDGE('',*,*,#458,.T.);
#593=ORIENTED_EDGE('',*,*,#459,.T.);
#594=ORIENTED_EDGE('',*,*,#460,.T.);
#595=ORIENTED_EDGE('',*,*,#461,.T.);
#596=ORIENTED_EDGE('',*,*,#462,.T.);
#597=ORIENTED_EDGE('',*,*,#458,.F.);
#598=ORIENTED_EDGE('',*,*,#463,.T.);
#599=ORIENTED_EDGE('',*,*,#464,.T.);
#600=ORIENTED_EDGE('',*,*,#461,.F.);
#601=ORIENTED_EDGE('',*,*,#465,.T.);
#602=ORIENTED_EDGE('',*,*,#456,.F.);
#603=ORIENTED_EDGE('',*,*,#466,.T.);
#604=ORIENTED_EDGE('',*,*,#467,.T.);
#605=ORIENTED_EDGE('',*,*,#439,.F.);
#606=ORIENTED_EDGE('',*,*,#468,.T.);
#607=ORIENTED_EDGE('',*,*,#469,.T.);
#608=ORIENTED_EDGE('',*,*,#466,.F.);
#609=ORIENTED_EDGE('',*,*,#470,.T.);
#610=ORIENTED_EDGE('',*,*,#436,.F.);
#611=ORIENTED_EDGE('',*,*,#471,.T.);
#612=ORIENTED_EDGE('',*,*,#460,.F.);
#613=ORIENTED_EDGE('',*,*,#472,.T.);
#614=ORIENTED_EDGE('',*,*,#473,.T.);
#615=ORIENTED_EDGE('',*,*,#474,.T.);
#616=ORIENTED_EDGE('',*,*,#475,.T.);
#617=ORIENTED_EDGE('',*,*,#432,.F.);
#618=ORIENTED_EDGE('',*,*,#476,.T.);
#619=ORIENTED_EDGE('',*,*,#477,.T.);
#620=ORIENTED_EDGE('',*,*,#474,.F.);
#621=ORIENTED_EDGE('',*,*,#478,.T.);
#622=ORIENTED_EDGE('',*,*,#473,.F.);
#623=ORIENTED_EDGE('',*,*,#444,.F.);
#624=ORIENTED_EDGE('',*,*,#479,.F.);
#625=ORIENTED_EDGE('',*,*,#480,.T.);
#626=ORIENTED_EDGE('',*,*,#481,.F.);
#627=ORIENTED_EDGE('',*,*,#453,.F.);
#628=ORIENTED_EDGE('',*,*,#482,.T.);
#629=ORIENTED_EDGE('',*,*,#483,.F.);
#630=ORIENTED_EDGE('',*,*,#484,.F.);
#631=ORIENTED_EDGE('',*,*,#485,.T.);
#632=ORIENTED_EDGE('',*,*,#479,.T.);
#633=ORIENTED_EDGE('',*,*,#451,.F.);
#634=ORIENTED_EDGE('',*,*,#486,.T.);
#635=ORIENTED_EDGE('',*,*,#487,.F.);
#636=ORIENTED_EDGE('',*,*,#482,.F.);
#637=ORIENTED_EDGE('',*,*,#445,.F.);
#638=ORIENTED_EDGE('',*,*,#488,.T.);
#639=ORIENTED_EDGE('',*,*,#489,.T.);
#640=ORIENTED_EDGE('',*,*,#490,.F.);
#641=ORIENTED_EDGE('',*,*,#491,.F.);
#642=ORIENTED_EDGE('',*,*,#486,.F.);
#643=ORIENTED_EDGE('',*,*,#454,.F.);
#644=ORIENTED_EDGE('',*,*,#492,.F.);
#645=ORIENTED_EDGE('',*,*,#493,.T.);
#646=ORIENTED_EDGE('',*,*,#488,.F.);
#647=ORIENTED_EDGE('',*,*,#465,.F.);
#648=ORIENTED_EDGE('',*,*,#494,.T.);
#649=ORIENTED_EDGE('',*,*,#495,.F.);
#650=ORIENTED_EDGE('',*,*,#496,.F.);
#651=ORIENTED_EDGE('',*,*,#497,.T.);
#652=ORIENTED_EDGE('',*,*,#492,.T.);
#653=ORIENTED_EDGE('',*,*,#463,.F.);
#654=ORIENTED_EDGE('',*,*,#498,.T.);
#655=ORIENTED_EDGE('',*,*,#499,.F.);
#656=ORIENTED_EDGE('',*,*,#494,.F.);
#657=ORIENTED_EDGE('',*,*,#457,.F.);
#658=ORIENTED_EDGE('',*,*,#500,.T.);
#659=ORIENTED_EDGE('',*,*,#501,.T.);
#660=ORIENTED_EDGE('',*,*,#502,.F.);
#661=ORIENTED_EDGE('',*,*,#503,.F.);
#662=ORIENTED_EDGE('',*,*,#498,.F.);
#663=ORIENTED_EDGE('',*,*,#504,.F.);
#664=ORIENTED_EDGE('',*,*,#505,.T.);
#665=ORIENTED_EDGE('',*,*,#506,.F.);
#666=ORIENTED_EDGE('',*,*,#507,.T.);
#667=ORIENTED_EDGE('',*,*,#508,.F.);
#668=ORIENTED_EDGE('',*,*,#509,.T.);
#669=ORIENTED_EDGE('',*,*,#510,.F.);
#670=ORIENTED_EDGE('',*,*,#511,.T.);
#671=ORIENTED_EDGE('',*,*,#459,.F.);
#672=ORIENTED_EDGE('',*,*,#462,.F.);
#673=ORIENTED_EDGE('',*,*,#464,.F.);
#674=ORIENTED_EDGE('',*,*,#455,.F.);
#675=ORIENTED_EDGE('',*,*,#447,.F.);
#676=ORIENTED_EDGE('',*,*,#450,.F.);
#677=ORIENTED_EDGE('',*,*,#452,.F.);
#678=ORIENTED_EDGE('',*,*,#442,.F.);
#679=ORIENTED_EDGE('',*,*,#440,.F.);
#680=ORIENTED_EDGE('',*,*,#467,.F.);
#681=ORIENTED_EDGE('',*,*,#469,.F.);
#682=ORIENTED_EDGE('',*,*,#435,.F.);
#683=ORIENTED_EDGE('',*,*,#433,.F.);
#684=ORIENTED_EDGE('',*,*,#475,.F.);
#685=ORIENTED_EDGE('',*,*,#477,.F.);
#686=ORIENTED_EDGE('',*,*,#472,.F.);
#687=ORIENTED_EDGE('',*,*,#489,.F.);
#688=ORIENTED_EDGE('',*,*,#493,.F.);
#689=ORIENTED_EDGE('',*,*,#497,.F.);
#690=ORIENTED_EDGE('',*,*,#512,.F.);
#691=ORIENTED_EDGE('',*,*,#471,.F.);
#692=ORIENTED_EDGE('',*,*,#513,.F.);
#693=ORIENTED_EDGE('',*,*,#514,.T.);
#694=ORIENTED_EDGE('',*,*,#500,.F.);
#695=ORIENTED_EDGE('',*,*,#501,.F.);
#696=ORIENTED_EDGE('',*,*,#514,.F.);
#697=ORIENTED_EDGE('',*,*,#515,.F.);
#698=ORIENTED_EDGE('',*,*,#516,.F.);
#699=ORIENTED_EDGE('',*,*,#517,.F.);
#700=ORIENTED_EDGE('',*,*,#480,.F.);
#701=ORIENTED_EDGE('',*,*,#485,.F.);
#702=ORIENTED_EDGE('',*,*,#518,.F.);
#703=ORIENTED_EDGE('',*,*,#437,.F.);
#704=ORIENTED_EDGE('',*,*,#519,.F.);
#705=ORIENTED_EDGE('',*,*,#520,.T.);
#706=ORIENTED_EDGE('',*,*,#521,.F.);
#707=ORIENTED_EDGE('',*,*,#522,.F.);
#708=ORIENTED_EDGE('',*,*,#520,.F.);
#709=ORIENTED_EDGE('',*,*,#523,.F.);
#710=ORIENTED_EDGE('',*,*,#524,.F.);
#711=ORIENTED_EDGE('',*,*,#438,.F.);
#712=ORIENTED_EDGE('',*,*,#481,.T.);
#713=ORIENTED_EDGE('',*,*,#517,.T.);
#714=ORIENTED_EDGE('',*,*,#525,.F.);
#715=ORIENTED_EDGE('',*,*,#526,.F.);
#716=ORIENTED_EDGE('',*,*,#527,.F.);
#717=ORIENTED_EDGE('',*,*,#431,.F.);
#718=ORIENTED_EDGE('',*,*,#521,.T.);
#719=ORIENTED_EDGE('',*,*,#522,.T.);
#720=ORIENTED_EDGE('',*,*,#528,.F.);
#721=ORIENTED_EDGE('',*,*,#529,.F.);
#722=ORIENTED_EDGE('',*,*,#530,.F.);
#723=ORIENTED_EDGE('',*,*,#468,.F.);
#724=ORIENTED_EDGE('',*,*,#527,.T.);
#725=ORIENTED_EDGE('',*,*,#531,.F.);
#726=ORIENTED_EDGE('',*,*,#532,.F.);
#727=ORIENTED_EDGE('',*,*,#470,.F.);
#728=ORIENTED_EDGE('',*,*,#532,.T.);
#729=ORIENTED_EDGE('',*,*,#533,.F.);
#730=ORIENTED_EDGE('',*,*,#534,.F.);
#731=ORIENTED_EDGE('',*,*,#523,.T.);
#732=ORIENTED_EDGE('',*,*,#519,.T.);
#733=ORIENTED_EDGE('',*,*,#476,.F.);
#734=ORIENTED_EDGE('',*,*,#530,.T.);
#735=ORIENTED_EDGE('',*,*,#535,.F.);
#736=ORIENTED_EDGE('',*,*,#536,.F.);
#737=ORIENTED_EDGE('',*,*,#478,.F.);
#738=ORIENTED_EDGE('',*,*,#536,.T.);
#739=ORIENTED_EDGE('',*,*,#537,.F.);
#740=ORIENTED_EDGE('',*,*,#538,.F.);
#741=ORIENTED_EDGE('',*,*,#515,.T.);
#742=ORIENTED_EDGE('',*,*,#513,.T.);
#743=ORIENTED_EDGE('',*,*,#539,.F.);
#744=ORIENTED_EDGE('',*,*,#540,.T.);
#745=ORIENTED_EDGE('',*,*,#541,.F.);
#746=ORIENTED_EDGE('',*,*,#542,.T.);
#747=ORIENTED_EDGE('',*,*,#543,.F.);
#748=ORIENTED_EDGE('',*,*,#544,.T.);
#749=ORIENTED_EDGE('',*,*,#545,.F.);
#750=ORIENTED_EDGE('',*,*,#546,.T.);
#751=ORIENTED_EDGE('',*,*,#533,.T.);
#752=ORIENTED_EDGE('',*,*,#531,.T.);
#753=ORIENTED_EDGE('',*,*,#526,.T.);
#754=ORIENTED_EDGE('',*,*,#547,.T.);
#755=ORIENTED_EDGE('',*,*,#483,.T.);
#756=ORIENTED_EDGE('',*,*,#487,.T.);
#757=ORIENTED_EDGE('',*,*,#491,.T.);
#758=ORIENTED_EDGE('',*,*,#548,.T.);
#759=ORIENTED_EDGE('',*,*,#495,.T.);
#760=ORIENTED_EDGE('',*,*,#499,.T.);
#761=ORIENTED_EDGE('',*,*,#503,.T.);
#762=ORIENTED_EDGE('',*,*,#549,.T.);
#763=ORIENTED_EDGE('',*,*,#537,.T.);
#764=ORIENTED_EDGE('',*,*,#535,.T.);
#765=ORIENTED_EDGE('',*,*,#529,.T.);
#766=ORIENTED_EDGE('',*,*,#550,.T.);
#767=ORIENTED_EDGE('',*,*,#512,.T.);
#768=ORIENTED_EDGE('',*,*,#496,.T.);
#769=ORIENTED_EDGE('',*,*,#548,.F.);
#770=ORIENTED_EDGE('',*,*,#490,.T.);
#771=ORIENTED_EDGE('',*,*,#516,.T.);
#772=ORIENTED_EDGE('',*,*,#538,.T.);
#773=ORIENTED_EDGE('',*,*,#549,.F.);
#774=ORIENTED_EDGE('',*,*,#502,.T.);
#775=ORIENTED_EDGE('',*,*,#518,.T.);
#776=ORIENTED_EDGE('',*,*,#484,.T.);
#777=ORIENTED_EDGE('',*,*,#547,.F.);
#778=ORIENTED_EDGE('',*,*,#525,.T.);
#779=ORIENTED_EDGE('',*,*,#524,.T.);
#780=ORIENTED_EDGE('',*,*,#534,.T.);
#781=ORIENTED_EDGE('',*,*,#550,.F.);
#782=ORIENTED_EDGE('',*,*,#528,.T.);
#783=ORIENTED_EDGE('',*,*,#504,.T.);
#784=ORIENTED_EDGE('',*,*,#551,.T.);
#785=ORIENTED_EDGE('',*,*,#539,.T.);
#786=ORIENTED_EDGE('',*,*,#552,.T.);
#787=ORIENTED_EDGE('',*,*,#552,.F.);
#788=ORIENTED_EDGE('',*,*,#546,.F.);
#789=ORIENTED_EDGE('',*,*,#553,.F.);
#790=ORIENTED_EDGE('',*,*,#505,.F.);
#791=ORIENTED_EDGE('',*,*,#506,.T.);
#792=ORIENTED_EDGE('',*,*,#553,.T.);
#793=ORIENTED_EDGE('',*,*,#545,.T.);
#794=ORIENTED_EDGE('',*,*,#554,.T.);
#795=ORIENTED_EDGE('',*,*,#554,.F.);
#796=ORIENTED_EDGE('',*,*,#544,.F.);
#797=ORIENTED_EDGE('',*,*,#555,.F.);
#798=ORIENTED_EDGE('',*,*,#507,.F.);
#799=ORIENTED_EDGE('',*,*,#508,.T.);
#800=ORIENTED_EDGE('',*,*,#555,.T.);
#801=ORIENTED_EDGE('',*,*,#543,.T.);
#802=ORIENTED_EDGE('',*,*,#556,.T.);
#803=ORIENTED_EDGE('',*,*,#556,.F.);
#804=ORIENTED_EDGE('',*,*,#542,.F.);
#805=ORIENTED_EDGE('',*,*,#557,.F.);
#806=ORIENTED_EDGE('',*,*,#509,.F.);
#807=ORIENTED_EDGE('',*,*,#510,.T.);
#808=ORIENTED_EDGE('',*,*,#557,.T.);
#809=ORIENTED_EDGE('',*,*,#541,.T.);
#810=ORIENTED_EDGE('',*,*,#558,.T.);
#811=ORIENTED_EDGE('',*,*,#551,.F.);
#812=ORIENTED_EDGE('',*,*,#511,.F.);
#813=ORIENTED_EDGE('',*,*,#558,.F.);
#814=ORIENTED_EDGE('',*,*,#540,.F.);
#815=PLANE('',#905);
#816=PLANE('',#909);
#817=PLANE('',#913);
#818=PLANE('',#917);
#819=PLANE('',#921);
#820=PLANE('',#925);
#821=PLANE('',#929);
#822=PLANE('',#936);
#823=PLANE('',#939);
#824=PLANE('',#942);
#825=PLANE('',#945);
#826=PLANE('',#948);
#827=PLANE('',#949);
#828=PLANE('',#954);
#829=PLANE('',#958);
#830=PLANE('',#960);
#831=PLANE('',#964);
#832=PLANE('',#966);
#833=PLANE('',#967);
#834=PLANE('',#970);
#835=PLANE('',#973);
#836=PLANE('',#974);
#837=PLANE('',#988);
#838=PLANE('',#990);
#839=PLANE('',#992);
#840=PLANE('',#994);
#841=ADVANCED_FACE('',(#81),#815,.T.);
#842=ADVANCED_FACE('',(#82),#73,.F.);
#843=ADVANCED_FACE('',(#83),#816,.T.);
#844=ADVANCED_FACE('',(#84),#74,.F.);
#845=ADVANCED_FACE('',(#85),#817,.T.);
#846=ADVANCED_FACE('',(#86),#75,.F.);
#847=ADVANCED_FACE('',(#87),#818,.T.);
#848=ADVANCED_FACE('',(#88),#76,.F.);
#849=ADVANCED_FACE('',(#89),#819,.T.);
#850=ADVANCED_FACE('',(#90),#77,.F.);
#851=ADVANCED_FACE('',(#91),#820,.T.);
#852=ADVANCED_FACE('',(#92),#78,.F.);
#853=ADVANCED_FACE('',(#93),#821,.T.);
#854=ADVANCED_FACE('',(#94),#79,.F.);
#855=ADVANCED_FACE('',(#95),#80,.F.);
#856=ADVANCED_FACE('',(#96),#822,.T.);
#857=ADVANCED_FACE('',(#97),#17,.F.);
#858=ADVANCED_FACE('',(#98),#823,.F.);
#859=ADVANCED_FACE('',(#99),#18,.F.);
#860=ADVANCED_FACE('',(#100),#824,.F.);
#861=ADVANCED_FACE('',(#101),#19,.F.);
#862=ADVANCED_FACE('',(#102),#825,.F.);
#863=ADVANCED_FACE('',(#103),#20,.F.);
#864=ADVANCED_FACE('',(#104),#826,.F.);
#865=ADVANCED_FACE('',(#105,#15),#827,.T.);
#866=ADVANCED_FACE('',(#106),#828,.T.);
#867=ADVANCED_FACE('',(#107),#21,.F.);
#868=ADVANCED_FACE('',(#108),#829,.T.);
#869=ADVANCED_FACE('',(#109),#830,.T.);
#870=ADVANCED_FACE('',(#110),#22,.F.);
#871=ADVANCED_FACE('',(#111),#831,.T.);
#872=ADVANCED_FACE('',(#112),#832,.F.);
#873=ADVANCED_FACE('',(#113),#833,.F.);
#874=ADVANCED_FACE('',(#114),#23,.F.);
#875=ADVANCED_FACE('',(#115),#834,.F.);
#876=ADVANCED_FACE('',(#116),#24,.F.);
#877=ADVANCED_FACE('',(#117),#835,.F.);
#878=ADVANCED_FACE('',(#118,#16),#836,.F.);
#879=ADVANCED_FACE('',(#119),#25,.F.);
#880=ADVANCED_FACE('',(#120),#26,.F.);
#881=ADVANCED_FACE('',(#121),#27,.F.);
#882=ADVANCED_FACE('',(#122),#28,.F.);
#883=ADVANCED_FACE('',(#123),#29,.T.);
#884=ADVANCED_FACE('',(#124),#837,.T.);
#885=ADVANCED_FACE('',(#125),#30,.T.);
#886=ADVANCED_FACE('',(#126),#838,.T.);
#887=ADVANCED_FACE('',(#127),#31,.T.);
#888=ADVANCED_FACE('',(#128),#839,.T.);
#889=ADVANCED_FACE('',(#129),#32,.T.);
#890=ADVANCED_FACE('',(#130),#840,.T.);
#891=CLOSED_SHELL('',(#841,#842,#843,#844,#845,#846,#847,#848,#849,#850,
#851,#852,#853,#854,#855,#856,#857,#858,#859,#860,#861,#862,#863,#864,#865,
#866,#867,#868,#869,#870,#871,#872,#873,#874,#875,#876,#877,#878,#879,#880,
#881,#882,#883,#884,#885,#886,#887,#888,#889,#890));
#892=DERIVED_UNIT_ELEMENT(#894,1.);
#893=DERIVED_UNIT_ELEMENT(#1545,-3.);
#894=(
MASS_UNIT()
NAMED_UNIT(*)
SI_UNIT(.KILO.,.GRAM.)
);
#895=DERIVED_UNIT((#892,#893));
#896=MEASURE_REPRESENTATION_ITEM('density measure',
POSITIVE_RATIO_MEASURE(7850.),#895);
#897=PROPERTY_DEFINITION_REPRESENTATION(#902,#899);
#898=PROPERTY_DEFINITION_REPRESENTATION(#903,#900);
#899=REPRESENTATION('material name',(#901),#1542);
#900=REPRESENTATION('density',(#896),#1542);
#901=DESCRIPTIVE_REPRESENTATION_ITEM('Steel','Steel');
#902=PROPERTY_DEFINITION('material property','material name',#1552);
#903=PROPERTY_DEFINITION('material property','density of part',#1552);
#904=AXIS2_PLACEMENT_3D('',#1257,#995,#996);
#905=AXIS2_PLACEMENT_3D('',#1258,#997,#998);
#906=AXIS2_PLACEMENT_3D('',#1270,#1002,#1003);
#907=AXIS2_PLACEMENT_3D('',#1272,#1004,#1005);
#908=AXIS2_PLACEMENT_3D('',#1278,#1006,#1007);
#909=AXIS2_PLACEMENT_3D('',#1279,#1008,#1009);
#910=AXIS2_PLACEMENT_3D('',#1291,#1013,#1014);
#911=AXIS2_PLACEMENT_3D('',#1293,#1015,#1016);
#912=AXIS2_PLACEMENT_3D('',#1299,#1017,#1018);
#913=AXIS2_PLACEMENT_3D('',#1300,#1019,#1020);
#914=AXIS2_PLACEMENT_3D('',#1312,#1024,#1025);
#915=AXIS2_PLACEMENT_3D('',#1316,#1027,#1028);
#916=AXIS2_PLACEMENT_3D('',#1317,#1029,#1030);
#917=AXIS2_PLACEMENT_3D('',#1318,#1031,#1032);
#918=AXIS2_PLACEMENT_3D('',#1321,#1035,#1036);
#919=AXIS2_PLACEMENT_3D('',#1323,#1037,#1038);
#920=AXIS2_PLACEMENT_3D('',#1325,#1039,#1040);
#921=AXIS2_PLACEMENT_3D('',#1330,#1041,#1042);
#922=AXIS2_PLACEMENT_3D('',#1342,#1046,#1047);
#923=AXIS2_PLACEMENT_3D('',#1346,#1049,#1050);
#924=AXIS2_PLACEMENT_3D('',#1347,#1051,#1052);
#925=AXIS2_PLACEMENT_3D('',#1348,#1053,#1054);
#926=AXIS2_PLACEMENT_3D('',#1351,#1057,#1058);
#927=AXIS2_PLACEMENT_3D('',#1355,#1060,#1061);
#928=AXIS2_PLACEMENT_3D('',#1356,#1062,#1063);
#929=AXIS2_PLACEMENT_3D('',#1357,#1064,#1065);
#930=AXIS2_PLACEMENT_3D('',#1360,#1068,#1069);
#931=AXIS2_PLACEMENT_3D('',#1362,#1070,#1071);
#932=AXIS2_PLACEMENT_3D('',#1364,#1072,#1073);
#933=AXIS2_PLACEMENT_3D('',#1369,#1074,#1075);
#934=AXIS2_PLACEMENT_3D('',#1373,#1077,#1078);
#935=AXIS2_PLACEMENT_3D('',#1374,#1079,#1080);
#936=AXIS2_PLACEMENT_3D('',#1375,#1081,#1082);
#937=AXIS2_PLACEMENT_3D('',#1378,#1085,#1086);
#938=AXIS2_PLACEMENT_3D('',#1382,#1088,#1089);
#939=AXIS2_PLACEMENT_3D('',#1384,#1091,#1092);
#940=AXIS2_PLACEMENT_3D('',#1392,#1097,#1098);
#941=AXIS2_PLACEMENT_3D('',#1395,#1100,#1101);
#942=AXIS2_PLACEMENT_3D('',#1396,#1102,#1103);
#943=AXIS2_PLACEMENT_3D('',#1404,#1108,#1109);
#944=AXIS2_PLACEMENT_3D('',#1407,#1111,#1112);
#945=AXIS2_PLACEMENT_3D('',#1408,#1113,#1114);
#946=AXIS2_PLACEMENT_3D('',#1416,#1119,#1120);
#947=AXIS2_PLACEMENT_3D('',#1419,#1122,#1123);
#948=AXIS2_PLACEMENT_3D('',#1420,#1124,#1125);
#949=AXIS2_PLACEMENT_3D('',#1428,#1130,#1131);
#950=AXIS2_PLACEMENT_3D('',#1431,#1132,#1133);
#951=AXIS2_PLACEMENT_3D('',#1435,#1135,#1136);
#952=AXIS2_PLACEMENT_3D('',#1439,#1138,#1139);
#953=AXIS2_PLACEMENT_3D('',#1443,#1141,#1142);
#954=AXIS2_PLACEMENT_3D('',#1445,#1144,#1145);
#955=AXIS2_PLACEMENT_3D('',#1446,#1146,#1147);
#956=AXIS2_PLACEMENT_3D('',#1447,#1148,#1149);
#957=AXIS2_PLACEMENT_3D('',#1450,#1151,#1152);
#958=AXIS2_PLACEMENT_3D('',#1451,#1153,#1154);
#959=AXIS2_PLACEMENT_3D('',#1454,#1156,#1157);
#960=AXIS2_PLACEMENT_3D('',#1455,#1158,#1159);
#961=AXIS2_PLACEMENT_3D('',#1458,#1161,#1162);
#962=AXIS2_PLACEMENT_3D('',#1459,#1163,#1164);
#963=AXIS2_PLACEMENT_3D('',#1463,#1166,#1167);
#964=AXIS2_PLACEMENT_3D('',#1465,#1169,#1170);
#965=AXIS2_PLACEMENT_3D('',#1470,#1173,#1174);
#966=AXIS2_PLACEMENT_3D('',#1471,#1175,#1176);
#967=AXIS2_PLACEMENT_3D('',#1477,#1180,#1181);
#968=AXIS2_PLACEMENT_3D('',#1483,#1185,#1186);
#969=AXIS2_PLACEMENT_3D('',#1485,#1187,#1188);
#970=AXIS2_PLACEMENT_3D('',#1487,#1190,#1191);
#971=AXIS2_PLACEMENT_3D('',#1491,#1194,#1195);
#972=AXIS2_PLACEMENT_3D('',#1493,#1196,#1197);
#973=AXIS2_PLACEMENT_3D('',#1495,#1199,#1200);
#974=AXIS2_PLACEMENT_3D('',#1499,#1203,#1204);
#975=AXIS2_PLACEMENT_3D('',#1502,#1205,#1206);
#976=AXIS2_PLACEMENT_3D('',#1506,#1208,#1209);
#977=AXIS2_PLACEMENT_3D('',#1510,#1211,#1212);
#978=AXIS2_PLACEMENT_3D('',#1514,#1214,#1215);
#979=AXIS2_PLACEMENT_3D('',#1516,#1217,#1218);
#980=AXIS2_PLACEMENT_3D('',#1517,#1219,#1220);
#981=AXIS2_PLACEMENT_3D('',#1518,#1221,#1222);
#982=AXIS2_PLACEMENT_3D('',#1519,#1223,#1224);
#983=AXIS2_PLACEMENT_3D('',#1520,#1225,#1226);
#984=AXIS2_PLACEMENT_3D('',#1521,#1227,#1228);
#985=AXIS2_PLACEMENT_3D('',#1522,#1229,#1230);
#986=AXIS2_PLACEMENT_3D('',#1523,#1231,#1232);
#987=AXIS2_PLACEMENT_3D('',#1524,#1233,#1234);
#988=AXIS2_PLACEMENT_3D('',#1527,#1237,#1238);
#989=AXIS2_PLACEMENT_3D('',#1529,#1240,#1241);
#990=AXIS2_PLACEMENT_3D('',#1531,#1243,#1244);
#991=AXIS2_PLACEMENT_3D('',#1533,#1246,#1247);
#992=AXIS2_PLACEMENT_3D('',#1535,#1249,#1250);
#993=AXIS2_PLACEMENT_3D('',#1537,#1252,#1253);
#994=AXIS2_PLACEMENT_3D('',#1539,#1255,#1256);
#995=DIRECTION('axis',(0.,0.,1.));
#996=DIRECTION('refdir',(1.,0.,0.));
#997=DIRECTION('center_axis',(0.707106781186546,0.707106781186549,0.));
#998=DIRECTION('ref_axis',(0.,0.,-1.));
#999=DIRECTION('',(0.,0.,-1.));
#1000=DIRECTION('',(-0.707106781186549,0.707106781186546,0.));
#1001=DIRECTION('',(0.,0.,1.));
#1002=DIRECTION('center_axis',(0.,1.,0.));
#1003=DIRECTION('ref_axis',(-1.,0.,0.));
#1004=DIRECTION('center_axis',(0.,1.,0.));
#1005=DIRECTION('ref_axis',(-1.,0.,0.));
#1006=DIRECTION('center_axis',(0.,-1.,0.));
#1007=DIRECTION('ref_axis',(-1.,0.,0.));
#1008=DIRECTION('center_axis',(-1.63551295342455E-16,0.707106781186549,
-0.707106781186546));
#1009=DIRECTION('ref_axis',(-1.,0.,2.31296460016988E-16));
#1010=DIRECTION('',(-1.,0.,2.31296460016988E-16));
#1011=DIRECTION('',(0.,0.707106781186546,0.707106781186549));
#1012=DIRECTION('',(1.,0.,-2.31296460016988E-16));
#1013=DIRECTION('center_axis',(0.,1.,0.));
#1014=DIRECTION('ref_axis',(-1.,0.,0.));
#1015=DIRECTION('center_axis',(0.,1.,0.));
#1016=DIRECTION('ref_axis',(-1.,0.,0.));
#1017=DIRECTION('center_axis',(0.,-1.,0.));
#1018=DIRECTION('ref_axis',(-1.,0.,0.));
#1019=DIRECTION('center_axis',(-0.707106781186546,0.707106781186549,-9.81307772054733E-17));
#1020=DIRECTION('ref_axis',(-1.38777876010193E-16,0.,1.));
#1021=DIRECTION('',(-1.38777876010193E-16,0.,1.));
#1022=DIRECTION('',(0.707106781186549,0.707106781186546,0.));
#1023=DIRECTION('',(1.38777876010193E-16,0.,-1.));
#1024=DIRECTION('center_axis',(0.,1.,0.));
#1025=DIRECTION('ref_axis',(-1.,0.,0.));
#1026=DIRECTION('',(-0.707106781186547,0.707106781186548,0.));
#1027=DIRECTION('center_axis',(0.,1.,0.));
#1028=DIRECTION('ref_axis',(-1.,0.,0.));
#1029=DIRECTION('center_axis',(0.,-1.,0.));
#1030=DIRECTION('ref_axis',(-1.,0.,0.));
#1031=DIRECTION('center_axis',(0.707106781186546,0.707106781186549,9.81307772054732E-17));
#1032=DIRECTION('ref_axis',(1.38777876010193E-16,0.,-1.));
#1033=DIRECTION('',(-1.38777876010193E-16,0.,1.));
#1034=DIRECTION('',(1.38777876010193E-16,0.,-1.));
#1035=DIRECTION('center_axis',(0.,1.,0.));
#1036=DIRECTION('ref_axis',(1.,0.,0.));
#1037=DIRECTION('center_axis',(0.,-1.,0.));
#1038=DIRECTION('ref_axis',(1.,0.,0.));
#1039=DIRECTION('center_axis',(0.,1.,0.));
#1040=DIRECTION('ref_axis',(1.,0.,0.));
#1041=DIRECTION('center_axis',(-1.63551295342455E-16,0.707106781186549,
0.707106781186546));
#1042=DIRECTION('ref_axis',(1.,0.,2.31296460016988E-16));
#1043=DIRECTION('',(1.,0.,2.31296460016988E-16));
#1044=DIRECTION('',(0.,0.707106781186546,-0.707106781186549));
#1045=DIRECTION('',(-1.,0.,-2.31296460016988E-16));
#1046=DIRECTION('center_axis',(0.,1.,0.));
#1047=DIRECTION('ref_axis',(0.,0.,1.));
#1048=DIRECTION('',(0.,0.707106781186547,0.707106781186547));
#1049=DIRECTION('center_axis',(0.,1.,0.));
#1050=DIRECTION('ref_axis',(0.,0.,1.));
#1051=DIRECTION('center_axis',(0.,-1.,0.));
#1052=DIRECTION('ref_axis',(0.,0.,1.));
#1053=DIRECTION('center_axis',(1.63551295342455E-16,0.707106781186549,-0.707106781186546));
#1054=DIRECTION('ref_axis',(-1.,0.,-2.31296460016988E-16));
#1055=DIRECTION('',(1.,0.,2.31296460016988E-16));
#1056=DIRECTION('',(-1.,0.,-2.31296460016988E-16));
#1057=DIRECTION('center_axis',(0.,1.,0.));
#1058=DIRECTION('ref_axis',(0.,0.,-1.));
#1059=DIRECTION('',(0.,0.707106781186547,-0.707106781186547));
#1060=DIRECTION('center_axis',(0.,1.,0.));
#1061=DIRECTION('ref_axis',(0.,0.,-1.));
#1062=DIRECTION('center_axis',(0.,-1.,0.));
#1063=DIRECTION('ref_axis',(0.,0.,-1.));
#1064=DIRECTION('center_axis',(1.63551295342455E-16,0.707106781186549,0.707106781186546));
#1065=DIRECTION('ref_axis',(1.,0.,-2.31296460016988E-16));
#1066=DIRECTION('',(-1.,0.,2.31296460016988E-16));
#1067=DIRECTION('',(1.,0.,-2.31296460016988E-16));
#1068=DIRECTION('center_axis',(0.,1.,0.));
#1069=DIRECTION('ref_axis',(1.,0.,0.));
#1070=DIRECTION('center_axis',(0.,-1.,0.));
#1071=DIRECTION('ref_axis',(1.,0.,0.));
#1072=DIRECTION('center_axis',(0.,1.,0.));
#1073=DIRECTION('ref_axis',(1.,0.,0.));
#1074=DIRECTION('center_axis',(0.,1.,0.));
#1075=DIRECTION('ref_axis',(1.,0.,0.));
#1076=DIRECTION('',(0.707106781186547,0.707106781186547,0.));
#1077=DIRECTION('center_axis',(0.,1.,0.));
#1078=DIRECTION('ref_axis',(1.,0.,0.));
#1079=DIRECTION('center_axis',(0.,-1.,0.));
#1080=DIRECTION('ref_axis',(1.,0.,0.));
#1081=DIRECTION('center_axis',(-0.707106781186546,0.707106781186549,0.));
#1082=DIRECTION('ref_axis',(0.,0.,1.));
#1083=DIRECTION('',(0.,0.,-1.));
#1084=DIRECTION('',(0.,0.,1.));
#1085=DIRECTION('center_axis',(0.,-1.,0.));
#1086=DIRECTION('ref_axis',(-1.,0.,0.));
#1087=DIRECTION('',(0.,1.,0.));
#1088=DIRECTION('center_axis',(0.,-1.,0.));
#1089=DIRECTION('ref_axis',(-1.,0.,0.));
#1090=DIRECTION('',(0.,-1.,0.));
#1091=DIRECTION('center_axis',(-1.,0.,-1.38777876010193E-16));
#1092=DIRECTION('ref_axis',(1.38777876010193E-16,0.,-1.));
#1093=DIRECTION('',(0.,-1.,0.));
#1094=DIRECTION('',(-1.38777876010193E-16,0.,1.));
#1095=DIRECTION('',(0.,-1.,0.));
#1096=DIRECTION('',(-1.38777876010193E-16,0.,1.));
#1097=DIRECTION('center_axis',(0.,-1.,0.));
#1098=DIRECTION('ref_axis',(-1.,0.,0.));
#1099=DIRECTION('',(0.,-1.,0.));
#1100=DIRECTION('center_axis',(0.,1.,0.));
#1101=DIRECTION('ref_axis',(-1.,0.,0.));
#1102=DIRECTION('center_axis',(1.,0.,1.38777876010193E-16));
#1103=DIRECTION('ref_axis',(-1.38777876010193E-16,0.,1.));
#1104=DIRECTION('',(0.,-1.,0.));
#1105=DIRECTION('',(1.38777876010193E-16,0.,-1.));
#1106=DIRECTION('',(0.,1.,0.));
#1107=DIRECTION('',(1.38777876010193E-16,0.,-1.));
#1108=DIRECTION('center_axis',(0.,-1.,0.));
#1109=DIRECTION('ref_axis',(-1.,0.,0.));
#1110=DIRECTION('',(0.,1.,0.));
#1111=DIRECTION('center_axis',(0.,-1.,0.));
#1112=DIRECTION('ref_axis',(-1.,0.,0.));
#1113=DIRECTION('center_axis',(-2.31296460016988E-16,0.,1.));
#1114=DIRECTION('ref_axis',(-1.,0.,-2.31296460016988E-16));
#1115=DIRECTION('',(0.,-1.,0.));
#1116=DIRECTION('',(1.,0.,2.31296460016988E-16));
#1117=DIRECTION('',(0.,-1.,0.));
#1118=DIRECTION('',(1.,0.,2.31296460016988E-16));
#1119=DIRECTION('center_axis',(0.,-1.,0.));
#1120=DIRECTION('ref_axis',(0.,0.,1.));
#1121=DIRECTION('',(0.,-1.,0.));
#1122=DIRECTION('center_axis',(0.,1.,0.));
#1123=DIRECTION('ref_axis',(0.,0.,1.));
#1124=DIRECTION('center_axis',(2.31296460016988E-16,0.,-1.));
#1125=DIRECTION('ref_axis',(1.,0.,2.31296460016988E-16));
#1126=DIRECTION('',(0.,-1.,0.));
#1127=DIRECTION('',(-1.,0.,-2.31296460016988E-16));
#1128=DIRECTION('',(0.,1.,0.));
#1129=DIRECTION('',(-1.,0.,-2.31296460016988E-16));
#1130=DIRECTION('center_axis',(0.,1.,0.));
#1131=DIRECTION('ref_axis',(0.,0.,1.));
#1132=DIRECTION('center_axis',(0.,-1.,0.));
#1133=DIRECTION('ref_axis',(0.707106781186547,0.,-0.707106781186547));
#1134=DIRECTION('',(-1.,0.,0.));
#1135=DIRECTION('center_axis',(0.,-1.,0.));
#1136=DIRECTION('ref_axis',(-0.707106781186547,0.,-0.707106781186547));
#1137=DIRECTION('',(0.,0.,1.));
#1138=DIRECTION('center_axis',(0.,-1.,0.));
#1139=DIRECTION('ref_axis',(-0.707106781186547,0.,0.707106781186547));
#1140=DIRECTION('',(1.,0.,0.));
#1141=DIRECTION('center_axis',(0.,-1.,0.));
#1142=DIRECTION('ref_axis',(0.707106781186547,0.,0.707106781186547));
#1143=DIRECTION('',(0.,0.,-1.));
#1144=DIRECTION('center_axis',(0.,1.,0.));
#1145=DIRECTION('ref_axis',(-1.,0.,0.));
#1146=DIRECTION('center_axis',(0.,1.,0.));
#1147=DIRECTION('ref_axis',(-1.,0.,0.));
#1148=DIRECTION('center_axis',(0.,-1.,0.));
#1149=DIRECTION('ref_axis',(-1.,0.,0.));
#1150=DIRECTION('',(0.,1.,0.));
#1151=DIRECTION('center_axis',(0.,-1.,0.));
#1152=DIRECTION('ref_axis',(-1.,0.,0.));
#1153=DIRECTION('center_axis',(0.,1.,0.));
#1154=DIRECTION('ref_axis',(-1.,0.,0.));
#1155=DIRECTION('',(0.,0.,-1.));
#1156=DIRECTION('center_axis',(0.,1.,0.));
#1157=DIRECTION('ref_axis',(-1.,0.,0.));
#1158=DIRECTION('center_axis',(0.,1.,0.));
#1159=DIRECTION('ref_axis',(-1.,0.,0.));
#1160=DIRECTION('',(1.,0.,-2.31296460016988E-16));
#1161=DIRECTION('center_axis',(0.,1.,0.));
#1162=DIRECTION('ref_axis',(-1.,0.,0.));
#1163=DIRECTION('center_axis',(0.,-1.,0.));
#1164=DIRECTION('ref_axis',(-1.,0.,0.));
#1165=DIRECTION('',(0.,1.,0.));
#1166=DIRECTION('center_axis',(0.,-1.,0.));
#1167=DIRECTION('ref_axis',(-1.,0.,0.));
#1168=DIRECTION('',(0.,-1.,0.));
#1169=DIRECTION('center_axis',(0.,1.,0.));
#1170=DIRECTION('ref_axis',(-1.,0.,0.));
#1171=DIRECTION('',(0.,0.,1.));
#1172=DIRECTION('',(-1.,0.,2.31296460016988E-16));
#1173=DIRECTION('center_axis',(0.,1.,0.));
#1174=DIRECTION('ref_axis',(-1.,0.,0.));
#1175=DIRECTION('center_axis',(2.31296460016988E-16,0.,1.));
#1176=DIRECTION('ref_axis',(-1.,0.,2.31296460016988E-16));
#1177=DIRECTION('',(0.,1.,0.));
#1178=DIRECTION('',(1.,0.,-2.31296460016988E-16));
#1179=DIRECTION('',(0.,-1.,0.));
#1180=DIRECTION('center_axis',(-1.,0.,0.));
#1181=DIRECTION('ref_axis',(0.,0.,-1.));
#1182=DIRECTION('',(0.,1.,0.));
#1183=DIRECTION('',(0.,0.,1.));
#1184=DIRECTION('',(0.,-1.,0.));
#1185=DIRECTION('center_axis',(0.,-1.,0.));
#1186=DIRECTION('ref_axis',(0.,0.,-1.));
#1187=DIRECTION('center_axis',(0.,1.,0.));
#1188=DIRECTION('ref_axis',(0.,0.,-1.));
#1189=DIRECTION('',(0.,-1.,0.));
#1190=DIRECTION('center_axis',(-2.31296460016988E-16,0.,-1.));
#1191=DIRECTION('ref_axis',(1.,0.,-2.31296460016988E-16));
#1192=DIRECTION('',(-1.,0.,2.31296460016988E-16));
#1193=DIRECTION('',(0.,-1.,0.));
#1194=DIRECTION('center_axis',(0.,-1.,0.));
#1195=DIRECTION('ref_axis',(1.,0.,0.));
#1196=DIRECTION('center_axis',(0.,1.,0.));
#1197=DIRECTION('ref_axis',(1.,0.,0.));
#1198=DIRECTION('',(0.,-1.,0.));
#1199=DIRECTION('center_axis',(1.,0.,0.));
#1200=DIRECTION('ref_axis',(0.,0.,1.));
#1201=DIRECTION('',(0.,0.,-1.));
#1202=DIRECTION('',(0.,-1.,0.));
#1203=DIRECTION('center_axis',(0.,1.,0.));
#1204=DIRECTION('ref_axis',(1.,0.,0.));
#1205=DIRECTION('center_axis',(0.,1.,0.));
#1206=DIRECTION('ref_axis',(0.707106781186547,0.,-0.707106781186547));
#1207=DIRECTION('',(0.,0.,1.));
#1208=DIRECTION('center_axis',(0.,1.,0.));
#1209=DIRECTION('ref_axis',(0.707106781186547,0.,0.707106781186547));
#1210=DIRECTION('',(-1.,0.,0.));
#1211=DIRECTION('center_axis',(0.,1.,0.));
#1212=DIRECTION('ref_axis',(-0.707106781186547,0.,0.707106781186547));
#1213=DIRECTION('',(0.,0.,-1.));
#1214=DIRECTION('center_axis',(0.,1.,0.));
#1215=DIRECTION('ref_axis',(-0.707106781186547,0.,-0.707106781186547));
#1216=DIRECTION('',(1.,0.,0.));
#1217=DIRECTION('center_axis',(0.,1.,0.));
#1218=DIRECTION('ref_axis',(-1.,0.,0.));
#1219=DIRECTION('center_axis',(0.,1.,0.));
#1220=DIRECTION('ref_axis',(-1.,0.,0.));
#1221=DIRECTION('center_axis',(0.,1.,0.));
#1222=DIRECTION('ref_axis',(-1.,0.,0.));
#1223=DIRECTION('center_axis',(0.,1.,0.));
#1224=DIRECTION('ref_axis',(-1.,0.,0.));
#1225=DIRECTION('center_axis',(0.,-1.,0.));
#1226=DIRECTION('ref_axis',(-1.,0.,0.));
#1227=DIRECTION('center_axis',(0.,-1.,0.));
#1228=DIRECTION('ref_axis',(-1.,0.,0.));
#1229=DIRECTION('center_axis',(0.,-1.,0.));
#1230=DIRECTION('ref_axis',(-1.,0.,0.));
#1231=DIRECTION('center_axis',(0.,-1.,0.));
#1232=DIRECTION('ref_axis',(-1.,0.,0.));
#1233=DIRECTION('center_axis',(0.,1.,0.));
#1234=DIRECTION('ref_axis',(0.707106781186547,0.,-0.707106781186547));
#1235=DIRECTION('',(0.,-1.,0.));
#1236=DIRECTION('',(0.,1.,0.));
#1237=DIRECTION('center_axis',(0.,0.,-1.));
#1238=DIRECTION('ref_axis',(-1.,0.,0.));
#1239=DIRECTION('',(0.,-1.,0.));
#1240=DIRECTION('center_axis',(0.,1.,0.));
#1241=DIRECTION('ref_axis',(-0.707106781186547,0.,-0.707106781186547));
#1242=DIRECTION('',(0.,1.,0.));
#1243=DIRECTION('center_axis',(-1.,0.,0.));
#1244=DIRECTION('ref_axis',(0.,0.,1.));
#1245=DIRECTION('',(0.,-1.,0.));
#1246=DIRECTION('center_axis',(0.,1.,0.));
#1247=DIRECTION('ref_axis',(-0.707106781186547,0.,0.707106781186547));
#1248=DIRECTION('',(0.,1.,0.));
#1249=DIRECTION('center_axis',(0.,0.,1.));
#1250=DIRECTION('ref_axis',(1.,0.,0.));
#1251=DIRECTION('',(0.,-1.,0.));
#1252=DIRECTION('center_axis',(0.,1.,0.));
#1253=DIRECTION('ref_axis',(0.707106781186547,0.,0.707106781186547));
#1254=DIRECTION('',(0.,1.,0.));
#1255=DIRECTION('center_axis',(1.,0.,0.));
#1256=DIRECTION('ref_axis',(0.,0.,-1.));
#1257=CARTESIAN_POINT('',(0.,0.,0.));
#1258=CARTESIAN_POINT('Origin',(-2.50000002980232,34.5,-4.89897948252467));
#1259=CARTESIAN_POINT('',(-2.00000002980232,34.,-12.845232770074));
#1260=CARTESIAN_POINT('',(-2.00000002980232,34.,-15.0000002235174));
#1261=CARTESIAN_POINT('',(-2.00000002980232,34.,-4.89897948252467));
#1262=CARTESIAN_POINT('',(-3.00000002980232,35.,-15.0000002235174));
#1263=CARTESIAN_POINT('',(-2.00000002980232,34.,-15.0000002235174));
#1264=CARTESIAN_POINT('',(-3.00000002980232,35.,-13.6747945229612));
#1265=CARTESIAN_POINT('',(-3.00000002980232,35.,-4.89897948252467));
#1266=CARTESIAN_POINT('Ctrl Pts',(-3.00000002980232,35.,-13.6747945229612));
#1267=CARTESIAN_POINT('Ctrl Pts',(-2.66428616722409,34.6642861374218,-13.4047464036137));
#1268=CARTESIAN_POINT('Ctrl Pts',(-2.33037625806149,34.3303762282592,-13.1281500694374));
#1269=CARTESIAN_POINT('Ctrl Pts',(-2.00000002980232,34.,-12.845232770074));
#1270=CARTESIAN_POINT('Origin',(0.,34.5,0.));
#1271=CARTESIAN_POINT('',(-13.6747945229612,35.,-3.00000002980232));
#1272=CARTESIAN_POINT('Origin',(0.,35.,0.));
#1273=CARTESIAN_POINT('',(-12.845232770074,34.,-2.00000002980232));
#1274=CARTESIAN_POINT('Ctrl Pts',(-13.6747945229612,35.,-3.00000002980232));
#1275=CARTESIAN_POINT('Ctrl Pts',(-13.4047464036138,34.6642861374219,-2.66428616722417));
#1276=CARTESIAN_POINT('Ctrl Pts',(-13.1281500694375,34.3303762282592,-2.33037625806152));
#1277=CARTESIAN_POINT('Ctrl Pts',(-12.845232770074,34.,-2.00000002980232));
#1278=CARTESIAN_POINT('Origin',(0.,34.,0.));
#1279=CARTESIAN_POINT('Origin',(-4.89897948252467,34.5,2.50000002980232));
#1280=CARTESIAN_POINT('',(-12.845232770074,34.,2.00000002980233));
#1281=CARTESIAN_POINT('',(-15.0000002235174,34.,2.00000002980233));
#1282=CARTESIAN_POINT('',(-4.89897948252467,34.,2.00000002980232));
#1283=CARTESIAN_POINT('',(-15.0000002235174,35.,3.00000002980233));
#1284=CARTESIAN_POINT('',(-15.0000002235174,34.,2.00000002980233));
#1285=CARTESIAN_POINT('',(-13.6747945229612,35.,3.00000002980233));
#1286=CARTESIAN_POINT('',(-4.89897948252467,35.,3.00000002980232));
#1287=CARTESIAN_POINT('Ctrl Pts',(-13.6747945229612,35.,3.00000002980233));
#1288=CARTESIAN_POINT('Ctrl Pts',(-13.4047464036137,34.6642861374218,2.66428616722408));
#1289=CARTESIAN_POINT('Ctrl Pts',(-13.1281500694374,34.3303762282592,2.33037625806149));
#1290=CARTESIAN_POINT('Ctrl Pts',(-12.845232770074,34.,2.00000002980232));
#1291=CARTESIAN_POINT('Origin',(0.,34.5,0.));
#1292=CARTESIAN_POINT('',(-3.00000002980232,35.,13.6747945229612));
#1293=CARTESIAN_POINT('Origin',(0.,35.,0.));
#1294=CARTESIAN_POINT('',(-2.00000002980232,34.,12.845232770074));
#1295=CARTESIAN_POINT('Ctrl Pts',(-3.00000002980232,35.,13.6747945229612));
#1296=CARTESIAN_POINT('Ctrl Pts',(-2.66428616722409,34.6642861374218,13.4047464036137));
#1297=CARTESIAN_POINT('Ctrl Pts',(-2.3303762580615,34.3303762282592,13.1281500694374));
#1298=CARTESIAN_POINT('Ctrl Pts',(-2.00000002980232,34.,12.845232770074));
#1299=CARTESIAN_POINT('Origin',(0.,34.,0.));
#1300=CARTESIAN_POINT('Origin',(2.50000002980232,34.5,4.89897948252467));
#1301=CARTESIAN_POINT('',(2.00000002980232,34.,12.845232770074));
#1302=CARTESIAN_POINT('',(2.00000002980232,34.,15.0000002235174));
#1303=CARTESIAN_POINT('',(2.00000002980232,34.,4.89897948252467));
#1304=CARTESIAN_POINT('',(3.00000002980232,35.,15.0000002235174));
#1305=CARTESIAN_POINT('',(2.00000002980232,34.,15.0000002235174));
#1306=CARTESIAN_POINT('',(3.00000002980232,35.,13.6747945229612));
#1307=CARTESIAN_POINT('',(3.00000002980232,35.,4.89897948252467));
#1308=CARTESIAN_POINT('Ctrl Pts',(3.00000002980232,35.,13.6747945229612));
#1309=CARTESIAN_POINT('Ctrl Pts',(2.66428616722409,34.6642861374218,13.4047464036137));
#1310=CARTESIAN_POINT('Ctrl Pts',(2.33037625806149,34.3303762282592,13.1281500694374));
#1311=CARTESIAN_POINT('Ctrl Pts',(2.00000002980232,34.,12.845232770074));
#1312=CARTESIAN_POINT('Origin',(-1.83697022609402E-15,34.5,15.0000002235174));
#1313=CARTESIAN_POINT('',(-2.00000002980232,34.,15.0000002235174));
#1314=CARTESIAN_POINT('',(-3.00000002980233,35.,15.0000002235174));
#1315=CARTESIAN_POINT('',(-2.00000002980232,34.,15.0000002235174));
#1316=CARTESIAN_POINT('Origin',(-1.83697022609402E-15,35.,15.0000002235174));
#1317=CARTESIAN_POINT('Origin',(-1.83697022609402E-15,34.,15.0000002235174));
#1318=CARTESIAN_POINT('Origin',(-2.50000002980232,34.5,7.50000011175871));
#1319=CARTESIAN_POINT('',(-3.00000002980232,35.,7.50000011175871));
#1320=CARTESIAN_POINT('',(-2.00000002980232,34.,7.50000011175871));
#1321=CARTESIAN_POINT('Origin',(0.,34.5,0.));
#1322=CARTESIAN_POINT('',(12.845232770074,34.,2.00000002980233));
#1323=CARTESIAN_POINT('Origin',(0.,34.,0.));
#1324=CARTESIAN_POINT('',(13.6747945229612,35.,3.00000002980233));
#1325=CARTESIAN_POINT('Origin',(0.,35.,0.));
#1326=CARTESIAN_POINT('Ctrl Pts',(13.6747945229612,35.,3.00000002980233));
#1327=CARTESIAN_POINT('Ctrl Pts',(13.4047464036137,34.6642861374217,2.66428616722407));
#1328=CARTESIAN_POINT('Ctrl Pts',(13.1281500694374,34.3303762282592,2.33037625806148));
#1329=CARTESIAN_POINT('Ctrl Pts',(12.845232770074,34.,2.00000002980232));
#1330=CARTESIAN_POINT('Origin',(4.89897948252467,34.5,-2.50000002980232));
#1331=CARTESIAN_POINT('',(12.845232770074,34.,-2.00000002980232));
#1332=CARTESIAN_POINT('',(15.0000002235174,34.,-2.00000002980232));
#1333=CARTESIAN_POINT('',(4.89897948252467,34.,-2.00000002980232));
#1334=CARTESIAN_POINT('',(15.0000002235174,35.,-3.00000002980232));
#1335=CARTESIAN_POINT('',(15.0000002235174,34.,-2.00000002980232));
#1336=CARTESIAN_POINT('',(13.6747945229612,35.,-3.00000002980232));
#1337=CARTESIAN_POINT('',(4.89897948252467,35.,-3.00000002980232));
#1338=CARTESIAN_POINT('Ctrl Pts',(13.6747945229612,35.,-3.00000002980232));
#1339=CARTESIAN_POINT('Ctrl Pts',(13.4047464036136,34.6642861374217,-2.66428616722399));
#1340=CARTESIAN_POINT('Ctrl Pts',(13.1281500694374,34.3303762282591,-2.33037625806145));
#1341=CARTESIAN_POINT('Ctrl Pts',(12.845232770074,34.,-2.00000002980232));
#1342=CARTESIAN_POINT('Origin',(15.0000002235174,34.5,3.33066912350631E-15));
#1343=CARTESIAN_POINT('',(15.0000002235174,34.,2.00000002980233));
#1344=CARTESIAN_POINT('',(15.0000002235174,35.,3.00000002980233));
#1345=CARTESIAN_POINT('',(15.0000002235174,34.,2.00000002980233));
#1346=CARTESIAN_POINT('Origin',(15.0000002235174,35.,3.33066912350631E-15));
#1347=CARTESIAN_POINT('Origin',(15.0000002235174,34.,3.33066912350631E-15));
#1348=CARTESIAN_POINT('Origin',(7.50000011175871,34.5,2.50000002980232));
#1349=CARTESIAN_POINT('',(7.50000011175871,35.,3.00000002980232));
#1350=CARTESIAN_POINT('',(7.50000011175871,34.,2.00000002980232));
#1351=CARTESIAN_POINT('Origin',(-15.0000002235174,34.5,3.33066912350631E-15));
#1352=CARTESIAN_POINT('',(-15.0000002235174,34.,-2.00000002980232));
#1353=CARTESIAN_POINT('',(-15.0000002235174,35.,-3.00000002980232));
#1354=CARTESIAN_POINT('',(-15.0000002235174,34.,-2.00000002980232));
#1355=CARTESIAN_POINT('Origin',(-15.0000002235174,35.,3.33066912350631E-15));
#1356=CARTESIAN_POINT('Origin',(-15.0000002235174,34.,3.33066912350631E-15));
#1357=CARTESIAN_POINT('Origin',(-7.50000011175871,34.5,-2.50000002980232));
#1358=CARTESIAN_POINT('',(-7.50000011175871,35.,-3.00000002980232));
#1359=CARTESIAN_POINT('',(-7.50000011175871,34.,-2.00000002980232));
#1360=CARTESIAN_POINT('Origin',(0.,34.5,0.));
#1361=CARTESIAN_POINT('',(2.00000002980232,34.,-12.845232770074));
#1362=CARTESIAN_POINT('Origin',(0.,34.,0.));
#1363=CARTESIAN_POINT('',(3.00000002980232,35.,-13.6747945229612));
#1364=CARTESIAN_POINT('Origin',(0.,35.,0.));
#1365=CARTESIAN_POINT('Ctrl Pts',(3.00000002980232,35.,-13.6747945229612));
#1366=CARTESIAN_POINT('Ctrl Pts',(2.66428616722396,34.6642861374216,-13.4047464036136));
#1367=CARTESIAN_POINT('Ctrl Pts',(2.33037625806143,34.3303762282591,-13.1281500694374));
#1368=CARTESIAN_POINT('Ctrl Pts',(2.00000002980232,34.,-12.845232770074));
#1369=CARTESIAN_POINT('Origin',(0.,34.5,-15.0000002235174));
#1370=CARTESIAN_POINT('',(2.00000002980232,34.,-15.0000002235174));
#1371=CARTESIAN_POINT('',(3.00000002980232,35.,-15.0000002235174));
#1372=CARTESIAN_POINT('',(2.00000002980232,34.,-15.0000002235174));
#1373=CARTESIAN_POINT('Origin',(0.,35.,-15.0000002235174));
#1374=CARTESIAN_POINT('Origin',(0.,34.,-15.0000002235174));
#1375=CARTESIAN_POINT('Origin',(2.50000002980232,34.5,-7.50000011175871));
#1376=CARTESIAN_POINT('',(3.00000002980232,35.,-7.50000011175871));
#1377=CARTESIAN_POINT('',(2.00000002980232,34.,-7.50000011175871));
#1378=CARTESIAN_POINT('Origin',(0.,35.,0.));
#1379=CARTESIAN_POINT('',(-2.00000002980232,20.,12.845232770074));
#1380=CARTESIAN_POINT('',(-2.00000002980232,35.,12.845232770074));
#1381=CARTESIAN_POINT('',(-12.845232770074,20.,2.00000002980232));
#1382=CARTESIAN_POINT('Origin',(0.,20.,0.));
#1383=CARTESIAN_POINT('',(-12.845232770074,35.,2.00000002980233));
#1384=CARTESIAN_POINT('Origin',(-2.00000002980232,35.,15.0000002235174));
#1385=CARTESIAN_POINT('',(-2.00000002980232,0.,15.0000002235174));
#1386=CARTESIAN_POINT('',(-2.00000002980232,35.,15.0000002235174));
#1387=CARTESIAN_POINT('',(-2.00000002980232,0.,9.79795896504934));
#1388=CARTESIAN_POINT('',(-2.00000002980232,0.,7.50000011175871));
#1389=CARTESIAN_POINT('',(-2.00000002980233,20.,9.79795896504934));
#1390=CARTESIAN_POINT('',(-2.00000002980232,35.,9.79795896504934));
#1391=CARTESIAN_POINT('',(-2.00000002980232,20.,11.2113083117278));
#1392=CARTESIAN_POINT('Origin',(-1.83697022609402E-15,35.,15.0000002235174));
#1393=CARTESIAN_POINT('',(2.00000002980232,0.,15.0000002235174));
#1394=CARTESIAN_POINT('',(2.00000002980232,35.,15.0000002235174));
#1395=CARTESIAN_POINT('Origin',(-1.83697022609402E-15,0.,15.0000002235174));
#1396=CARTESIAN_POINT('Origin',(2.00000002980232,35.,9.79795896504934));
#1397=CARTESIAN_POINT('',(2.00000002980232,20.,12.845232770074));
#1398=CARTESIAN_POINT('',(2.00000002980232,35.,12.845232770074));
#1399=CARTESIAN_POINT('',(2.00000002980233,20.,9.79795896504934));
#1400=CARTESIAN_POINT('',(2.00000002980232,20.,8.61028768249375));
#1401=CARTESIAN_POINT('',(2.00000002980232,0.,9.79795896504934));
#1402=CARTESIAN_POINT('',(2.00000002980232,35.,9.79795896504934));
#1403=CARTESIAN_POINT('',(2.00000002980232,0.,4.89897948252467));
#1404=CARTESIAN_POINT('Origin',(0.,35.,0.));
#1405=CARTESIAN_POINT('',(12.845232770074,20.,2.00000002980232));
#1406=CARTESIAN_POINT('',(12.845232770074,35.,2.00000002980233));
#1407=CARTESIAN_POINT('Origin',(0.,20.,0.));
#1408=CARTESIAN_POINT('Origin',(15.0000002235174,35.,2.00000002980233));
#1409=CARTESIAN_POINT('',(15.0000002235174,0.,2.00000002980233));
#1410=CARTESIAN_POINT('',(15.0000002235174,35.,2.00000002980233));
#1411=CARTESIAN_POINT('',(9.79795896504934,0.,2.00000002980232));
#1412=CARTESIAN_POINT('',(7.50000011175871,0.,2.00000002980232));
#1413=CARTESIAN_POINT('',(9.79795896504934,20.,2.00000002980233));
#1414=CARTESIAN_POINT('',(9.79795896504934,35.,2.00000002980232));
#1415=CARTESIAN_POINT('',(11.2113083117278,20.,2.00000002980232));
#1416=CARTESIAN_POINT('Origin',(15.0000002235174,35.,3.33066912350631E-15));
#1417=CARTESIAN_POINT('',(15.0000002235174,0.,-2.00000002980232));
#1418=CARTESIAN_POINT('',(15.0000002235174,35.,-2.00000002980232));
#1419=CARTESIAN_POINT('Origin',(15.0000002235174,0.,3.33066912350631E-15));
#1420=CARTESIAN_POINT('Origin',(9.79795896504934,35.,-2.00000002980232));
#1421=CARTESIAN_POINT('',(12.845232770074,20.,-2.00000002980232));
#1422=CARTESIAN_POINT('',(12.845232770074,35.,-2.00000002980232));
#1423=CARTESIAN_POINT('',(9.79795896504934,20.,-2.00000002980232));
#1424=CARTESIAN_POINT('',(8.61028768249375,20.,-2.00000002980232));
#1425=CARTESIAN_POINT('',(9.79795896504934,0.,-2.00000002980232));
#1426=CARTESIAN_POINT('',(9.79795896504934,35.,-2.00000002980232));
#1427=CARTESIAN_POINT('',(4.89897948252467,0.,-2.00000002980232));
#1428=CARTESIAN_POINT('Origin',(0.,35.,0.));
#1429=CARTESIAN_POINT('',(17.5,35.,-25.));
#1430=CARTESIAN_POINT('',(25.,35.,-17.5));
#1431=CARTESIAN_POINT('Origin',(17.5,35.,-17.5));
#1432=CARTESIAN_POINT('',(-17.5,35.,-25.));
#1433=CARTESIAN_POINT('',(-25.,35.,-25.));
#1434=CARTESIAN_POINT('',(-25.,35.,-17.5));
#1435=CARTESIAN_POINT('Origin',(-17.5,35.,-17.5));
#1436=CARTESIAN_POINT('',(-25.,35.,17.5));
#1437=CARTESIAN_POINT('',(-25.,35.,25.));
#1438=CARTESIAN_POINT('',(-17.5,35.,25.));
#1439=CARTESIAN_POINT('Origin',(-17.5,35.,17.5));
#1440=CARTESIAN_POINT('',(17.5,35.,25.));
#1441=CARTESIAN_POINT('',(25.,35.,25.));
#1442=CARTESIAN_POINT('',(25.,35.,17.5));
#1443=CARTESIAN_POINT('Origin',(17.5,35.,17.5));
#1444=CARTESIAN_POINT('',(25.,35.,-25.));
#1445=CARTESIAN_POINT('Origin',(7.42261639993816,20.,7.42261639993817));
#1446=CARTESIAN_POINT('Origin',(0.,20.,0.));
#1447=CARTESIAN_POINT('Origin',(0.,35.,0.));
#1448=CARTESIAN_POINT('',(2.00000002980232,20.,-12.845232770074));
#1449=CARTESIAN_POINT('',(2.00000002980232,35.,-12.845232770074));
#1450=CARTESIAN_POINT('Origin',(0.,20.,0.));
#1451=CARTESIAN_POINT('Origin',(7.42261639993817,20.,-7.42261639993816));
#1452=CARTESIAN_POINT('',(2.00000002980232,20.,-9.79795896504933));
#1453=CARTESIAN_POINT('',(2.00000002980232,20.,-11.2113083117278));
#1454=CARTESIAN_POINT('Origin',(0.,20.,0.));
#1455=CARTESIAN_POINT('Origin',(-7.42261639993817,20.,7.42261639993816));
#1456=CARTESIAN_POINT('',(-9.79795896504934,20.,2.00000002980233));
#1457=CARTESIAN_POINT('',(-8.61028768249375,20.,2.00000002980233));
#1458=CARTESIAN_POINT('Origin',(0.,20.,0.));
#1459=CARTESIAN_POINT('Origin',(0.,35.,0.));
#1460=CARTESIAN_POINT('',(-12.845232770074,20.,-2.00000002980232));
#1461=CARTESIAN_POINT('',(-12.845232770074,35.,-2.00000002980232));
#1462=CARTESIAN_POINT('',(-2.00000002980232,20.,-12.845232770074));
#1463=CARTESIAN_POINT('Origin',(0.,20.,0.));
#1464=CARTESIAN_POINT('',(-2.00000002980232,35.,-12.845232770074));
#1465=CARTESIAN_POINT('Origin',(-7.42261639993817,20.,-7.42261639993817));
#1466=CARTESIAN_POINT('',(-2.00000002980232,20.,-9.79795896504934));
#1467=CARTESIAN_POINT('',(-2.00000002980232,20.,-8.61028768249375));
#1468=CARTESIAN_POINT('',(-9.79795896504934,20.,-2.00000002980232));
#1469=CARTESIAN_POINT('',(-11.2113083117278,20.,-2.00000002980232));
#1470=CARTESIAN_POINT('Origin',(0.,20.,0.));
#1471=CARTESIAN_POINT('Origin',(-9.79795896504934,35.,2.00000002980233));
#1472=CARTESIAN_POINT('',(-9.79795896504934,0.,2.00000002980233));
#1473=CARTESIAN_POINT('',(-9.79795896504934,35.,2.00000002980233));
#1474=CARTESIAN_POINT('',(-15.0000002235174,0.,2.00000002980233));
#1475=CARTESIAN_POINT('',(-4.89897948252467,0.,2.00000002980232));
#1476=CARTESIAN_POINT('',(-15.0000002235174,35.,2.00000002980233));
#1477=CARTESIAN_POINT('Origin',(-2.00000002980232,35.,-9.79795896504934));
#1478=CARTESIAN_POINT('',(-2.00000002980232,0.,-9.79795896504934));
#1479=CARTESIAN_POINT('',(-2.00000002980232,35.,-9.79795896504934));
#1480=CARTESIAN_POINT('',(-2.00000002980232,0.,-15.0000002235174));
#1481=CARTESIAN_POINT('',(-2.00000002980232,0.,-4.89897948252467));
#1482=CARTESIAN_POINT('',(-2.00000002980232,35.,-15.0000002235174));
#1483=CARTESIAN_POINT('Origin',(-15.0000002235174,35.,3.33066912350631E-15));
#1484=CARTESIAN_POINT('',(-15.0000002235174,0.,-2.00000002980232));
#1485=CARTESIAN_POINT('Origin',(-15.0000002235174,0.,3.33066912350631E-15));
#1486=CARTESIAN_POINT('',(-15.0000002235174,35.,-2.00000002980232));
#1487=CARTESIAN_POINT('Origin',(-15.0000002235174,35.,-2.00000002980232));
#1488=CARTESIAN_POINT('',(-9.79795896504934,0.,-2.00000002980232));
#1489=CARTESIAN_POINT('',(-7.50000011175871,0.,-2.00000002980232));
#1490=CARTESIAN_POINT('',(-9.79795896504934,35.,-2.00000002980232));
#1491=CARTESIAN_POINT('Origin',(0.,35.,-15.0000002235174));
#1492=CARTESIAN_POINT('',(2.00000002980232,0.,-15.0000002235174));
#1493=CARTESIAN_POINT('Origin',(0.,0.,-15.0000002235174));
#1494=CARTESIAN_POINT('',(2.00000002980232,35.,-15.0000002235174));
#1495=CARTESIAN_POINT('Origin',(2.00000002980232,35.,-15.0000002235174));
#1496=CARTESIAN_POINT('',(2.00000002980232,0.,-9.79795896504934));
#1497=CARTESIAN_POINT('',(2.00000002980232,0.,-7.50000011175871));
#1498=CARTESIAN_POINT('',(2.00000002980232,35.,-9.79795896504934));
#1499=CARTESIAN_POINT('Origin',(0.,0.,0.));
#1500=CARTESIAN_POINT('',(25.,0.,-17.5));
#1501=CARTESIAN_POINT('',(17.5,0.,-25.));
#1502=CARTESIAN_POINT('Origin',(17.5,0.,-17.5));
#1503=CARTESIAN_POINT('',(25.,0.,17.5));
#1504=CARTESIAN_POINT('',(25.,0.,-25.));
#1505=CARTESIAN_POINT('',(17.5,0.,25.));
#1506=CARTESIAN_POINT('Origin',(17.5,0.,17.5));
#1507=CARTESIAN_POINT('',(-17.5,0.,25.));
#1508=CARTESIAN_POINT('',(25.,0.,25.));
#1509=CARTESIAN_POINT('',(-25.,0.,17.5));
#1510=CARTESIAN_POINT('Origin',(-17.5,0.,17.5));
#1511=CARTESIAN_POINT('',(-25.,0.,-17.5));
#1512=CARTESIAN_POINT('',(-25.,0.,25.));
#1513=CARTESIAN_POINT('',(-17.5,0.,-25.));
#1514=CARTESIAN_POINT('Origin',(-17.5,0.,-17.5));
#1515=CARTESIAN_POINT('',(-25.,0.,-25.));
#1516=CARTESIAN_POINT('Origin',(0.,0.,0.));
#1517=CARTESIAN_POINT('Origin',(0.,0.,0.));
#1518=CARTESIAN_POINT('Origin',(0.,0.,0.));
#1519=CARTESIAN_POINT('Origin',(0.,0.,0.));
#1520=CARTESIAN_POINT('Origin',(0.,35.,0.));
#1521=CARTESIAN_POINT('Origin',(0.,35.,0.));
#1522=CARTESIAN_POINT('Origin',(0.,35.,0.));
#1523=CARTESIAN_POINT('Origin',(0.,35.,0.));
#1524=CARTESIAN_POINT('Origin',(17.5,0.,-17.5));
#1525=CARTESIAN_POINT('',(25.,0.,-17.5));
#1526=CARTESIAN_POINT('',(17.5,0.,-25.));
#1527=CARTESIAN_POINT('Origin',(25.,0.,-25.));
#1528=CARTESIAN_POINT('',(-17.5,0.,-25.));
#1529=CARTESIAN_POINT('Origin',(-17.5,0.,-17.5));
#1530=CARTESIAN_POINT('',(-25.,0.,-17.5));
#1531=CARTESIAN_POINT('Origin',(-25.,0.,-25.));
#1532=CARTESIAN_POINT('',(-25.,0.,17.5));
#1533=CARTESIAN_POINT('Origin',(-17.5,0.,17.5));
#1534=CARTESIAN_POINT('',(-17.5,0.,25.));
#1535=CARTESIAN_POINT('Origin',(-25.,0.,25.));
#1536=CARTESIAN_POINT('',(17.5,0.,25.));
#1537=CARTESIAN_POINT('Origin',(17.5,0.,17.5));
#1538=CARTESIAN_POINT('',(25.,0.,17.5));
#1539=CARTESIAN_POINT('Origin',(25.,0.,25.));
#1540=UNCERTAINTY_MEASURE_WITH_UNIT(LENGTH_MEASURE(0.01),#1544,
'DISTANCE_ACCURACY_VALUE',
'Maximum model space distance between geometric entities at asserted c
onnectivities');
#1541=UNCERTAINTY_MEASURE_WITH_UNIT(LENGTH_MEASURE(0.01),#1544,
'DISTANCE_ACCURACY_VALUE',
'Maximum model space distance between geometric entities at asserted c
onnectivities');
#1542=(
GEOMETRIC_REPRESENTATION_CONTEXT(3)
GLOBAL_UNCERTAINTY_ASSIGNED_CONTEXT((#1540))
GLOBAL_UNIT_ASSIGNED_CONTEXT((#1544,#1546,#1547))
REPRESENTATION_CONTEXT('','3D')
);
#1543=(
GEOMETRIC_REPRESENTATION_CONTEXT(3)
GLOBAL_UNCERTAINTY_ASSIGNED_CONTEXT((#1541))
GLOBAL_UNIT_ASSIGNED_CONTEXT((#1544,#1546,#1547))
REPRESENTATION_CONTEXT('','3D')
);
#1544=(
LENGTH_UNIT()
NAMED_UNIT(*)
SI_UNIT(.MILLI.,.METRE.)
);
#1545=(
LENGTH_UNIT()
NAMED_UNIT(*)
SI_UNIT($,.METRE.)
);
#1546=(
NAMED_UNIT(*)
PLANE_ANGLE_UNIT()
SI_UNIT($,.RADIAN.)
);
#1547=(
NAMED_UNIT(*)
SI_UNIT($,.STERADIAN.)
SOLID_ANGLE_UNIT()
);
#1548=SHAPE_DEFINITION_REPRESENTATION(#1549,#1550);
#1549=PRODUCT_DEFINITION_SHAPE('',$,#1552);
#1550=SHAPE_REPRESENTATION('',(#904),#1542);
#1551=PRODUCT_DEFINITION_CONTEXT('part definition',#1556,'design');
#1552=PRODUCT_DEFINITION('(Unsaved)','(Unsaved)',#1553,#1551);
#1553=PRODUCT_DEFINITION_FORMATION('',$,#1558);
#1554=PRODUCT_RELATED_PRODUCT_CATEGORY('(Unsaved)','(Unsaved)',(#1558));
#1555=APPLICATION_PROTOCOL_DEFINITION('international standard',
'automotive_design',2009,#1556);
#1556=APPLICATION_CONTEXT(
'Core Data for Automotive Mechanical Design Process');
#1557=PRODUCT_CONTEXT('part definition',#1556,'mechanical');
#1558=PRODUCT('(Unsaved)','(Unsaved)',$,(#1557));
#1559=PRESENTATION_STYLE_ASSIGNMENT((#1560));
#1560=SURFACE_STYLE_USAGE(.BOTH.,#1561);
#1561=SURFACE_SIDE_STYLE('',(#1562));
#1562=SURFACE_STYLE_FILL_AREA(#1563);
#1563=FILL_AREA_STYLE('Steel - Satin',(#1564));
#1564=FILL_AREA_STYLE_COLOUR('Steel - Satin',#1565);
#1565=COLOUR_RGB('Steel - Satin',0.627450980392157,0.627450980392157,0.627450980392157);
ENDSEC;
END-ISO-10303-21;
