ISO-10303-21;
HEADER;
/* Generated by software containing ST-Developer
 * from STEP Tools, Inc. (www.steptools.com) 
 */

FILE_DESCRIPTION(
/* description */ (''),
/* implementation_level */ '2;1');

FILE_NAME(
/* name */ 'drilled_013.step',
/* time_stamp */ '2024-11-27T18:21:56+03:00',
/* author */ (''),
/* organization */ (''),
/* preprocessor_version */ 'ST-DEVELOPER v20',
/* originating_system */ 'Autodesk Translation Framework v13.14.0.145',

/* authorisation */ '');

FILE_SCHEMA (('AUTOMOTIVE_DESIGN { 1 0 10303 214 3 1 1 }'));
ENDSEC;

DATA;
#10=MECHANICAL_DESIGN_GEOMETRIC_PRESENTATION_REPRESENTATION('',(#13),#287);
#11=SHAPE_REPRESENTATION_RELATIONSHIP('SRR','None',#294,#12);
#12=ADVANCED_BREP_SHAPE_REPRESENTATION('',(#14),#286);
#13=STYLED_ITEM('',(#303),#14);
#14=MANIFOLD_SOLID_BREP('Body1',#164);
#15=CYLINDRICAL_SURFACE('',#184,12.5);
#16=CYLINDRICAL_SURFACE('',#191,25.);
#17=PLANE('',#181);
#18=PLANE('',#183);
#19=PLANE('',#187);
#20=PLANE('',#188);
#21=PLANE('',#189);
#22=FACE_OUTER_BOUND('',#31,.T.);
#23=FACE_OUTER_BOUND('',#32,.T.);
#24=FACE_OUTER_BOUND('',#33,.T.);
#25=FACE_OUTER_BOUND('',#34,.T.);
#26=FACE_OUTER_BOUND('',#35,.T.);
#27=FACE_OUTER_BOUND('',#36,.T.);
#28=FACE_OUTER_BOUND('',#37,.T.);
#29=FACE_OUTER_BOUND('',#38,.T.);
#30=FACE_OUTER_BOUND('',#39,.T.);
#31=EDGE_LOOP('',(#111,#112,#113,#114,#115));
#32=EDGE_LOOP('',(#116,#117,#118,#119));
#33=EDGE_LOOP('',(#120,#121,#122,#123,#124,#125,#126));
#34=EDGE_LOOP('',(#127,#128,#129,#130));
#35=EDGE_LOOP('',(#131,#132,#133));
#36=EDGE_LOOP('',(#134,#135,#136,#137,#138,#139));
#37=EDGE_LOOP('',(#140,#141,#142,#143,#144));
#38=EDGE_LOOP('',(#145,#146,#147,#148));
#39=EDGE_LOOP('',(#149,#150,#151,#152));
#40=(
BOUNDED_CURVE()
B_SPLINE_CURVE(2,(#245,#246,#247),.UNSPECIFIED.,.F.,.F.)
B_SPLINE_CURVE_WITH_KNOTS((3,3),(0.,0.335121392403302),.UNSPECIFIED.)
CURVE()
GEOMETRIC_REPRESENTATION_ITEM()
RATIONAL_B_SPLINE_CURVE((1.,1.07756553023769,1.1390872965259))
REPRESENTATION_ITEM('')
);
#41=CIRCLE('',#179,17.5);
#42=CIRCLE('',#180,12.5);
#43=CIRCLE('',#182,25.);
#44=CIRCLE('',#185,12.5);
#45=CIRCLE('',#190,25.);
#46=LINE('',#241,#61);
#47=LINE('',#249,#62);
#48=LINE('',#253,#63);
#49=LINE('',#256,#64);
#50=LINE('',#259,#65);
#51=LINE('',#261,#66);
#52=LINE('',#263,#67);
#53=LINE('',#265,#68);
#54=LINE('',#266,#69);
#55=LINE('',#269,#70);
#56=LINE('',#272,#71);
#57=LINE('',#275,#72);
#58=LINE('',#276,#73);
#59=LINE('',#279,#74);
#60=LINE('',#280,#75);
#61=VECTOR('',#196,10.);
#62=VECTOR('',#199,10.);
#63=VECTOR('',#204,10.);
#64=VECTOR('',#207,10.);
#65=VECTOR('',#210,10.);
#66=VECTOR('',#211,10.);
#67=VECTOR('',#212,10.);
#68=VECTOR('',#213,10.);
#69=VECTOR('',#214,10.);
#70=VECTOR('',#217,10.);
#71=VECTOR('',#222,10.);
#72=VECTOR('',#225,10.);
#73=VECTOR('',#226,10.);
#74=VECTOR('',#229,10.);
#75=VECTOR('',#230,10.);
#76=VERTEX_POINT('',#239);
#77=VERTEX_POINT('',#240);
#78=VERTEX_POINT('',#242);
#79=VERTEX_POINT('',#244);
#80=VERTEX_POINT('',#248);
#81=VERTEX_POINT('',#252);
#82=VERTEX_POINT('',#254);
#83=VERTEX_POINT('',#258);
#84=VERTEX_POINT('',#260);
#85=VERTEX_POINT('',#262);
#86=VERTEX_POINT('',#264);
#87=VERTEX_POINT('',#268);
#88=VERTEX_POINT('',#274);
#89=VERTEX_POINT('',#278);
#90=EDGE_CURVE('',#76,#77,#46,.T.);
#91=EDGE_CURVE('',#77,#78,#41,.T.);
#92=EDGE_CURVE('',#78,#79,#40,.T.);
#93=EDGE_CURVE('',#79,#80,#47,.T.);
#94=EDGE_CURVE('',#80,#76,#42,.T.);
#95=EDGE_CURVE('',#77,#81,#48,.T.);
#96=EDGE_CURVE('',#81,#82,#43,.T.);
#97=EDGE_CURVE('',#82,#78,#49,.T.);
#98=EDGE_CURVE('',#76,#83,#50,.T.);
#99=EDGE_CURVE('',#83,#84,#51,.T.);
#100=EDGE_CURVE('',#84,#85,#52,.T.);
#101=EDGE_CURVE('',#86,#85,#53,.T.);
#102=EDGE_CURVE('',#81,#86,#54,.T.);
#103=EDGE_CURVE('',#87,#80,#55,.T.);
#104=EDGE_CURVE('',#87,#83,#44,.T.);
#105=EDGE_CURVE('',#84,#87,#56,.T.);
#106=EDGE_CURVE('',#79,#88,#57,.T.);
#107=EDGE_CURVE('',#85,#88,#58,.T.);
#108=EDGE_CURVE('',#89,#82,#59,.T.);
#109=EDGE_CURVE('',#88,#89,#60,.T.);
#110=EDGE_CURVE('',#86,#89,#45,.T.);
#111=ORIENTED_EDGE('',*,*,#90,.T.);
#112=ORIENTED_EDGE('',*,*,#91,.T.);
#113=ORIENTED_EDGE('',*,*,#92,.T.);
#114=ORIENTED_EDGE('',*,*,#93,.T.);
#115=ORIENTED_EDGE('',*,*,#94,.T.);
#116=ORIENTED_EDGE('',*,*,#91,.F.);
#117=ORIENTED_EDGE('',*,*,#95,.T.);
#118=ORIENTED_EDGE('',*,*,#96,.T.);
#119=ORIENTED_EDGE('',*,*,#97,.T.);
#120=ORIENTED_EDGE('',*,*,#90,.F.);
#121=ORIENTED_EDGE('',*,*,#98,.T.);
#122=ORIENTED_EDGE('',*,*,#99,.T.);
#123=ORIENTED_EDGE('',*,*,#100,.T.);
#124=ORIENTED_EDGE('',*,*,#101,.F.);
#125=ORIENTED_EDGE('',*,*,#102,.F.);
#126=ORIENTED_EDGE('',*,*,#95,.F.);
#127=ORIENTED_EDGE('',*,*,#94,.F.);
#128=ORIENTED_EDGE('',*,*,#103,.F.);
#129=ORIENTED_EDGE('',*,*,#104,.T.);
#130=ORIENTED_EDGE('',*,*,#98,.F.);
#131=ORIENTED_EDGE('',*,*,#99,.F.);
#132=ORIENTED_EDGE('',*,*,#104,.F.);
#133=ORIENTED_EDGE('',*,*,#105,.F.);
#134=ORIENTED_EDGE('',*,*,#93,.F.);
#135=ORIENTED_EDGE('',*,*,#106,.T.);
#136=ORIENTED_EDGE('',*,*,#107,.F.);
#137=ORIENTED_EDGE('',*,*,#100,.F.);
#138=ORIENTED_EDGE('',*,*,#105,.T.);
#139=ORIENTED_EDGE('',*,*,#103,.T.);
#140=ORIENTED_EDGE('',*,*,#92,.F.);
#141=ORIENTED_EDGE('',*,*,#97,.F.);
#142=ORIENTED_EDGE('',*,*,#108,.F.);
#143=ORIENTED_EDGE('',*,*,#109,.F.);
#144=ORIENTED_EDGE('',*,*,#106,.F.);
#145=ORIENTED_EDGE('',*,*,#101,.T.);
#146=ORIENTED_EDGE('',*,*,#107,.T.);
#147=ORIENTED_EDGE('',*,*,#109,.T.);
#148=ORIENTED_EDGE('',*,*,#110,.F.);
#149=ORIENTED_EDGE('',*,*,#102,.T.);
#150=ORIENTED_EDGE('',*,*,#110,.T.);
#151=ORIENTED_EDGE('',*,*,#108,.T.);
#152=ORIENTED_EDGE('',*,*,#96,.F.);
#153=CONICAL_SURFACE('',#178,15.,0.785398163397448);
#154=CONICAL_SURFACE('',#186,6.25,1.02974425867665);
#155=ADVANCED_FACE('',(#22),#153,.F.);
#156=ADVANCED_FACE('',(#23),#17,.T.);
#157=ADVANCED_FACE('',(#24),#18,.F.);
#158=ADVANCED_FACE('',(#25),#15,.F.);
#159=ADVANCED_FACE('',(#26),#154,.F.);
#160=ADVANCED_FACE('',(#27),#19,.F.);
#161=ADVANCED_FACE('',(#28),#20,.F.);
#162=ADVANCED_FACE('',(#29),#21,.F.);
#163=ADVANCED_FACE('',(#30),#16,.T.);
#164=CLOSED_SHELL('',(#155,#156,#157,#158,#159,#160,#161,#162,#163));
#165=DERIVED_UNIT_ELEMENT(#167,1.);
#166=DERIVED_UNIT_ELEMENT(#289,-3.);
#167=(
MASS_UNIT()
NAMED_UNIT(*)
SI_UNIT(.KILO.,.GRAM.)
);
#168=DERIVED_UNIT((#165,#166));
#169=MEASURE_REPRESENTATION_ITEM('density measure',
POSITIVE_RATIO_MEASURE(7850.),#168);
#170=PROPERTY_DEFINITION_REPRESENTATION(#175,#172);
#171=PROPERTY_DEFINITION_REPRESENTATION(#176,#173);
#172=REPRESENTATION('material name',(#174),#286);
#173=REPRESENTATION('density',(#169),#286);
#174=DESCRIPTIVE_REPRESENTATION_ITEM('Steel','Steel');
#175=PROPERTY_DEFINITION('material property','material name',#296);
#176=PROPERTY_DEFINITION('material property','density of part',#296);
#177=AXIS2_PLACEMENT_3D('',#237,#192,#193);
#178=AXIS2_PLACEMENT_3D('',#238,#194,#195);
#179=AXIS2_PLACEMENT_3D('',#243,#197,#198);
#180=AXIS2_PLACEMENT_3D('',#250,#200,#201);
#181=AXIS2_PLACEMENT_3D('',#251,#202,#203);
#182=AXIS2_PLACEMENT_3D('',#255,#205,#206);
#183=AXIS2_PLACEMENT_3D('',#257,#208,#209);
#184=AXIS2_PLACEMENT_3D('',#267,#215,#216);
#185=AXIS2_PLACEMENT_3D('',#270,#218,#219);
#186=AXIS2_PLACEMENT_3D('',#271,#220,#221);
#187=AXIS2_PLACEMENT_3D('',#273,#223,#224);
#188=AXIS2_PLACEMENT_3D('',#277,#227,#228);
#189=AXIS2_PLACEMENT_3D('',#281,#231,#232);
#190=AXIS2_PLACEMENT_3D('',#282,#233,#234);
#191=AXIS2_PLACEMENT_3D('',#283,#235,#236);
#192=DIRECTION('axis',(0.,0.,1.));
#193=DIRECTION('refdir',(1.,0.,0.));
#194=DIRECTION('center_axis',(0.,1.,0.));
#195=DIRECTION('ref_axis',(-0.923879532511287,0.,-0.382683432365089));
#196=DIRECTION('',(0.707106781186548,0.707106781186548,0.));
#197=DIRECTION('center_axis',(0.,1.,0.));
#198=DIRECTION('ref_axis',(0.,0.,-1.));
#199=DIRECTION('',(-0.5,-0.707106781186547,-0.5));
#200=DIRECTION('center_axis',(0.,-1.,0.));
#201=DIRECTION('ref_axis',(0.,0.,-1.));
#202=DIRECTION('center_axis',(0.,1.,0.));
#203=DIRECTION('ref_axis',(1.,0.,0.));
#204=DIRECTION('',(1.,0.,0.));
#205=DIRECTION('center_axis',(0.,1.,0.));
#206=DIRECTION('ref_axis',(1.,0.,0.));
#207=DIRECTION('',(0.,0.,-1.));
#208=DIRECTION('center_axis',(0.,0.,-1.));
#209=DIRECTION('ref_axis',(1.,0.,0.));
#210=DIRECTION('',(0.,-1.,0.));
#211=DIRECTION('',(-0.857167300702112,-0.515038074910054,0.));
#212=DIRECTION('',(0.,-1.,0.));
#213=DIRECTION('',(-1.,0.,0.));
#214=DIRECTION('',(0.,-1.,0.));
#215=DIRECTION('center_axis',(0.,-1.,0.));
#216=DIRECTION('ref_axis',(-0.923879532511287,0.,-0.38268343236509));
#217=DIRECTION('',(0.,1.,0.));
#218=DIRECTION('center_axis',(0.,-1.,0.));
#219=DIRECTION('ref_axis',(0.,0.,1.));
#220=DIRECTION('center_axis',(0.,1.,0.));
#221=DIRECTION('ref_axis',(-0.923879532511287,0.,-0.38268343236509));
#222=DIRECTION('',(0.606108810937832,0.515038074910054,0.606108810937832));
#223=DIRECTION('center_axis',(-0.707106781186548,0.,0.707106781186548));
#224=DIRECTION('ref_axis',(-0.707106781186548,0.,-0.707106781186548));
#225=DIRECTION('',(0.,-1.,0.));
#226=DIRECTION('',(0.707106781186548,0.,0.707106781186548));
#227=DIRECTION('center_axis',(-1.,0.,0.));
#228=DIRECTION('ref_axis',(0.,0.,-1.));
#229=DIRECTION('',(0.,1.,0.));
#230=DIRECTION('',(0.,0.,1.));
#231=DIRECTION('center_axis',(0.,1.,0.));
#232=DIRECTION('ref_axis',(1.,0.,0.));
#233=DIRECTION('center_axis',(0.,1.,0.));
#234=DIRECTION('ref_axis',(1.,0.,0.));
#235=DIRECTION('center_axis',(0.,1.,0.));
#236=DIRECTION('ref_axis',(-0.836660026534075,0.,-0.547722557505166));
#237=CARTESIAN_POINT('',(0.,0.,0.));
#238=CARTESIAN_POINT('Origin',(0.,47.5,0.));
#239=CARTESIAN_POINT('',(12.5,45.,0.));
#240=CARTESIAN_POINT('',(17.5,50.,0.));
#241=CARTESIAN_POINT('',(15.,47.5,0.));
#242=CARTESIAN_POINT('',(10.,50.,14.3614066163451));
#243=CARTESIAN_POINT('Origin',(0.,50.,0.));
#244=CARTESIAN_POINT('',(10.,46.642135623731,10.));
#245=CARTESIAN_POINT('Ctrl Pts',(10.,50.,14.3614066163451));
#246=CARTESIAN_POINT('Ctrl Pts',(10.,48.0204896856078,11.9492870080579));
#247=CARTESIAN_POINT('Ctrl Pts',(10.,46.642135623731,10.));
#248=CARTESIAN_POINT('',(8.83883476483184,45.,8.83883476483184));
#249=CARTESIAN_POINT('',(10.6066017177982,47.5,10.6066017177982));
#250=CARTESIAN_POINT('Origin',(0.,45.,0.));
#251=CARTESIAN_POINT('Origin',(0.,50.,0.));
#252=CARTESIAN_POINT('',(25.,50.,0.));
#253=CARTESIAN_POINT('',(0.,50.,0.));
#254=CARTESIAN_POINT('',(10.,50.,22.9128784747792));
#255=CARTESIAN_POINT('Origin',(0.,50.,0.));
#256=CARTESIAN_POINT('',(10.,50.,11.4564392373896));
#257=CARTESIAN_POINT('Origin',(0.,50.,0.));
#258=CARTESIAN_POINT('',(12.5,25.,0.));
#259=CARTESIAN_POINT('',(12.5,37.5,0.));
#260=CARTESIAN_POINT('',(0.,17.4892422621555,0.));
#261=CARTESIAN_POINT('',(6.25,21.2446211310777,0.));
#262=CARTESIAN_POINT('',(0.,0.,0.));
#263=CARTESIAN_POINT('',(0.,50.,0.));
#264=CARTESIAN_POINT('',(25.,0.,0.));
#265=CARTESIAN_POINT('',(0.,0.,0.));
#266=CARTESIAN_POINT('',(25.,0.,0.));
#267=CARTESIAN_POINT('Origin',(0.,37.5,0.));
#268=CARTESIAN_POINT('',(8.83883476483184,25.,8.83883476483184));
#269=CARTESIAN_POINT('',(8.83883476483184,37.5,8.83883476483184));
#270=CARTESIAN_POINT('Origin',(0.,25.,0.));
#271=CARTESIAN_POINT('Origin',(0.,21.2446211310777,0.));
#272=CARTESIAN_POINT('',(4.41941738241592,21.2446211310777,4.41941738241592));
#273=CARTESIAN_POINT('Origin',(10.,50.,10.));
#274=CARTESIAN_POINT('',(10.,0.,10.));
#275=CARTESIAN_POINT('',(10.,50.,10.));
#276=CARTESIAN_POINT('',(5.,0.,5.));
#277=CARTESIAN_POINT('Origin',(10.,50.,22.9128784747792));
#278=CARTESIAN_POINT('',(10.,0.,22.9128784747792));
#279=CARTESIAN_POINT('',(10.,0.,22.9128784747792));
#280=CARTESIAN_POINT('',(10.,0.,11.4564392373896));
#281=CARTESIAN_POINT('Origin',(0.,0.,0.));
#282=CARTESIAN_POINT('Origin',(0.,0.,0.));
#283=CARTESIAN_POINT('Origin',(0.,0.,0.));
#284=UNCERTAINTY_MEASURE_WITH_UNIT(LENGTH_MEASURE(0.01),#288,
'DISTANCE_ACCURACY_VALUE',
'Maximum model space distance between geometric entities at asserted c
onnectivities');
#285=UNCERTAINTY_MEASURE_WITH_UNIT(LENGTH_MEASURE(0.01),#288,
'DISTANCE_ACCURACY_VALUE',
'Maximum model space distance between geometric entities at asserted c
onnectivities');
#286=(
GEOMETRIC_REPRESENTATION_CONTEXT(3)
GLOBAL_UNCERTAINTY_ASSIGNED_CONTEXT((#284))
GLOBAL_UNIT_ASSIGNED_CONTEXT((#288,#290,#291))
REPRESENTATION_CONTEXT('','3D')
);
#287=(
GEOMETRIC_REPRESENTATION_CONTEXT(3)
GLOBAL_UNCERTAINTY_ASSIGNED_CONTEXT((#285))
GLOBAL_UNIT_ASSIGNED_CONTEXT((#288,#290,#291))
REPRESENTATION_CONTEXT('','3D')
);
#288=(
LENGTH_UNIT()
NAMED_UNIT(*)
SI_UNIT(.MILLI.,.METRE.)
);
#289=(
LENGTH_UNIT()
NAMED_UNIT(*)
SI_UNIT($,.METRE.)
);
#290=(
NAMED_UNIT(*)
PLANE_ANGLE_UNIT()
SI_UNIT($,.RADIAN.)
);
#291=(
NAMED_UNIT(*)
SI_UNIT($,.STERADIAN.)
SOLID_ANGLE_UNIT()
);
#292=SHAPE_DEFINITION_REPRESENTATION(#293,#294);
#293=PRODUCT_DEFINITION_SHAPE('',$,#296);
#294=SHAPE_REPRESENTATION('',(#177),#286);
#295=PRODUCT_DEFINITION_CONTEXT('part definition',#300,'design');
#296=PRODUCT_DEFINITION('(Unsaved)','(Unsaved)',#297,#295);
#297=PRODUCT_DEFINITION_FORMATION('',$,#302);
#298=PRODUCT_RELATED_PRODUCT_CATEGORY('(Unsaved)','(Unsaved)',(#302));
#299=APPLICATION_PROTOCOL_DEFINITION('international standard',
'automotive_design',2009,#300);
#300=APPLICATION_CONTEXT(
'Core Data for Automotive Mechanical Design Process');
#301=PRODUCT_CONTEXT('part definition',#300,'mechanical');
#302=PRODUCT('(Unsaved)','(Unsaved)',$,(#301));
#303=PRESENTATION_STYLE_ASSIGNMENT((#304));
#304=SURFACE_STYLE_USAGE(.BOTH.,#305);
#305=SURFACE_SIDE_STYLE('',(#306));
#306=SURFACE_STYLE_FILL_AREA(#307);
#307=FILL_AREA_STYLE('Steel - Satin',(#308));
#308=FILL_AREA_STYLE_COLOUR('Steel - Satin',#309);
#309=COLOUR_RGB('Steel - Satin',0.627450980392157,0.627450980392157,0.627450980392157);
ENDSEC;
END-ISO-10303-21;
