ISO-10303-21;
HEADER;
/* Generated by software containing ST-Developer
 * from STEP Tools, Inc. (www.steptools.com) 
 */

FILE_DESCRIPTION(
/* description */ (''),
/* implementation_level */ '2;1');

FILE_NAME(
/* name */ 'drilled_003.step',
/* time_stamp */ '2024-11-25T12:02:46+03:00',
/* author */ (''),
/* organization */ (''),
/* preprocessor_version */ 'ST-DEVELOPER v20',
/* originating_system */ 'Autodesk Translation Framework v13.14.0.145',

/* authorisation */ '');

FILE_SCHEMA (('AUTOMOTIVE_DESIGN { 1 0 10303 214 3 1 1 }'));
ENDSEC;

DATA;
#10=MECHANICAL_DESIGN_GEOMETRIC_PRESENTATION_REPRESENTATION('',(#13),#1551);
#11=SHAPE_REPRESENTATION_RELATIONSHIP('SRR','None',#1558,#12);
#12=ADVANCED_BREP_SHAPE_REPRESENTATION('',(#14),#1550);
#13=STYLED_ITEM('',(#1567),#14);
#14=MANIFOLD_SOLID_BREP('Body1',#907);
#15=FACE_BOUND('',#115,.T.);
#16=FACE_BOUND('',#134,.T.);
#17=PLANE('',#924);
#18=PLANE('',#925);
#19=PLANE('',#929);
#20=PLANE('',#930);
#21=PLANE('',#931);
#22=PLANE('',#935);
#23=PLANE('',#939);
#24=PLANE('',#940);
#25=PLANE('',#944);
#26=PLANE('',#945);
#27=PLANE('',#949);
#28=PLANE('',#950);
#29=PLANE('',#954);
#30=PLANE('',#955);
#31=PLANE('',#959);
#32=PLANE('',#960);
#33=PLANE('',#964);
#34=PLANE('',#965);
#35=PLANE('',#966);
#36=PLANE('',#1000);
#37=PLANE('',#1003);
#38=PLANE('',#1006);
#39=PLANE('',#1009);
#40=PLANE('',#1010);
#41=FACE_OUTER_BOUND('',#87,.T.);
#42=FACE_OUTER_BOUND('',#88,.T.);
#43=FACE_OUTER_BOUND('',#89,.T.);
#44=FACE_OUTER_BOUND('',#90,.T.);
#45=FACE_OUTER_BOUND('',#91,.T.);
#46=FACE_OUTER_BOUND('',#92,.T.);
#47=FACE_OUTER_BOUND('',#93,.T.);
#48=FACE_OUTER_BOUND('',#94,.T.);
#49=FACE_OUTER_BOUND('',#95,.T.);
#50=FACE_OUTER_BOUND('',#96,.T.);
#51=FACE_OUTER_BOUND('',#97,.T.);
#52=FACE_OUTER_BOUND('',#98,.T.);
#53=FACE_OUTER_BOUND('',#99,.T.);
#54=FACE_OUTER_BOUND('',#100,.T.);
#55=FACE_OUTER_BOUND('',#101,.T.);
#56=FACE_OUTER_BOUND('',#102,.T.);
#57=FACE_OUTER_BOUND('',#103,.T.);
#58=FACE_OUTER_BOUND('',#104,.T.);
#59=FACE_OUTER_BOUND('',#105,.T.);
#60=FACE_OUTER_BOUND('',#106,.T.);
#61=FACE_OUTER_BOUND('',#107,.T.);
#62=FACE_OUTER_BOUND('',#108,.T.);
#63=FACE_OUTER_BOUND('',#109,.T.);
#64=FACE_OUTER_BOUND('',#110,.T.);
#65=FACE_OUTER_BOUND('',#111,.T.);
#66=FACE_OUTER_BOUND('',#112,.T.);
#67=FACE_OUTER_BOUND('',#113,.T.);
#68=FACE_OUTER_BOUND('',#114,.T.);
#69=FACE_OUTER_BOUND('',#116,.T.);
#70=FACE_OUTER_BOUND('',#117,.T.);
#71=FACE_OUTER_BOUND('',#118,.T.);
#72=FACE_OUTER_BOUND('',#119,.T.);
#73=FACE_OUTER_BOUND('',#120,.T.);
#74=FACE_OUTER_BOUND('',#121,.T.);
#75=FACE_OUTER_BOUND('',#122,.T.);
#76=FACE_OUTER_BOUND('',#123,.T.);
#77=FACE_OUTER_BOUND('',#124,.T.);
#78=FACE_OUTER_BOUND('',#125,.T.);
#79=FACE_OUTER_BOUND('',#126,.T.);
#80=FACE_OUTER_BOUND('',#127,.T.);
#81=FACE_OUTER_BOUND('',#128,.T.);
#82=FACE_OUTER_BOUND('',#129,.T.);
#83=FACE_OUTER_BOUND('',#130,.T.);
#84=FACE_OUTER_BOUND('',#131,.T.);
#85=FACE_OUTER_BOUND('',#132,.T.);
#86=FACE_OUTER_BOUND('',#133,.T.);
#87=EDGE_LOOP('',(#575,#576,#577,#578));
#88=EDGE_LOOP('',(#579,#580,#581,#582));
#89=EDGE_LOOP('',(#583,#584,#585,#586));
#90=EDGE_LOOP('',(#587,#588,#589,#590));
#91=EDGE_LOOP('',(#591,#592,#593,#594));
#92=EDGE_LOOP('',(#595,#596,#597,#598));
#93=EDGE_LOOP('',(#599,#600,#601,#602));
#94=EDGE_LOOP('',(#603,#604,#605,#606));
#95=EDGE_LOOP('',(#607,#608,#609,#610));
#96=EDGE_LOOP('',(#611,#612,#613,#614));
#97=EDGE_LOOP('',(#615,#616,#617,#618));
#98=EDGE_LOOP('',(#619,#620,#621,#622));
#99=EDGE_LOOP('',(#623,#624,#625,#626));
#100=EDGE_LOOP('',(#627,#628,#629,#630));
#101=EDGE_LOOP('',(#631,#632,#633,#634));
#102=EDGE_LOOP('',(#635,#636,#637,#638));
#103=EDGE_LOOP('',(#639,#640,#641,#642));
#104=EDGE_LOOP('',(#643,#644,#645,#646));
#105=EDGE_LOOP('',(#647,#648,#649,#650));
#106=EDGE_LOOP('',(#651,#652,#653,#654));
#107=EDGE_LOOP('',(#655,#656,#657,#658));
#108=EDGE_LOOP('',(#659,#660,#661,#662));
#109=EDGE_LOOP('',(#663,#664,#665,#666));
#110=EDGE_LOOP('',(#667,#668,#669,#670));
#111=EDGE_LOOP('',(#671,#672,#673,#674));
#112=EDGE_LOOP('',(#675,#676,#677,#678));
#113=EDGE_LOOP('',(#679,#680,#681,#682));
#114=EDGE_LOOP('',(#683,#684,#685,#686,#687,#688,#689,#690));
#115=EDGE_LOOP('',(#691,#692,#693,#694,#695,#696,#697,#698,#699,#700,#701,
#702,#703,#704,#705,#706,#707,#708,#709,#710,#711,#712,#713,#714,#715,#716,
#717,#718,#719,#720,#721,#722,#723,#724,#725,#726));
#116=EDGE_LOOP('',(#727,#728,#729,#730));
#117=EDGE_LOOP('',(#731,#732,#733,#734));
#118=EDGE_LOOP('',(#735,#736,#737,#738));
#119=EDGE_LOOP('',(#739,#740,#741,#742));
#120=EDGE_LOOP('',(#743,#744,#745,#746));
#121=EDGE_LOOP('',(#747,#748,#749,#750));
#122=EDGE_LOOP('',(#751,#752,#753,#754));
#123=EDGE_LOOP('',(#755,#756,#757,#758));
#124=EDGE_LOOP('',(#759,#760,#761,#762));
#125=EDGE_LOOP('',(#763,#764,#765,#766));
#126=EDGE_LOOP('',(#767,#768,#769,#770));
#127=EDGE_LOOP('',(#771,#772,#773,#774));
#128=EDGE_LOOP('',(#775,#776,#777,#778));
#129=EDGE_LOOP('',(#779,#780,#781,#782));
#130=EDGE_LOOP('',(#783,#784,#785,#786));
#131=EDGE_LOOP('',(#787,#788,#789,#790));
#132=EDGE_LOOP('',(#791,#792,#793,#794));
#133=EDGE_LOOP('',(#795,#796,#797,#798,#799,#800,#801,#802));
#134=EDGE_LOOP('',(#803,#804,#805,#806,#807,#808,#809,#810,#811,#812,#813,
#814,#815,#816,#817,#818,#819,#820,#821,#822,#823,#824,#825,#826,#827,#828,
#829,#830,#831,#832,#833,#834,#835,#836,#837,#838));
#135=LINE('',#1287,#223);
#136=LINE('',#1290,#224);
#137=LINE('',#1293,#225);
#138=LINE('',#1295,#226);
#139=LINE('',#1296,#227);
#140=LINE('',#1299,#228);
#141=LINE('',#1301,#229);
#142=LINE('',#1302,#230);
#143=LINE('',#1308,#231);
#144=LINE('',#1311,#232);
#145=LINE('',#1314,#233);
#146=LINE('',#1316,#234);
#147=LINE('',#1317,#235);
#148=LINE('',#1320,#236);
#149=LINE('',#1322,#237);
#150=LINE('',#1323,#238);
#151=LINE('',#1327,#239);
#152=LINE('',#1329,#240);
#153=LINE('',#1331,#241);
#154=LINE('',#1332,#242);
#155=LINE('',#1337,#243);
#156=LINE('',#1341,#244);
#157=LINE('',#1343,#245);
#158=LINE('',#1344,#246);
#159=LINE('',#1350,#247);
#160=LINE('',#1353,#248);
#161=LINE('',#1356,#249);
#162=LINE('',#1358,#250);
#163=LINE('',#1359,#251);
#164=LINE('',#1362,#252);
#165=LINE('',#1364,#253);
#166=LINE('',#1365,#254);
#167=LINE('',#1371,#255);
#168=LINE('',#1374,#256);
#169=LINE('',#1377,#257);
#170=LINE('',#1379,#258);
#171=LINE('',#1380,#259);
#172=LINE('',#1383,#260);
#173=LINE('',#1385,#261);
#174=LINE('',#1386,#262);
#175=LINE('',#1392,#263);
#176=LINE('',#1395,#264);
#177=LINE('',#1398,#265);
#178=LINE('',#1400,#266);
#179=LINE('',#1401,#267);
#180=LINE('',#1404,#268);
#181=LINE('',#1406,#269);
#182=LINE('',#1407,#270);
#183=LINE('',#1413,#271);
#184=LINE('',#1416,#272);
#185=LINE('',#1419,#273);
#186=LINE('',#1421,#274);
#187=LINE('',#1422,#275);
#188=LINE('',#1425,#276);
#189=LINE('',#1427,#277);
#190=LINE('',#1428,#278);
#191=LINE('',#1434,#279);
#192=LINE('',#1437,#280);
#193=LINE('',#1440,#281);
#194=LINE('',#1442,#282);
#195=LINE('',#1443,#283);
#196=LINE('',#1446,#284);
#197=LINE('',#1448,#285);
#198=LINE('',#1449,#286);
#199=LINE('',#1455,#287);
#200=LINE('',#1458,#288);
#201=LINE('',#1461,#289);
#202=LINE('',#1463,#290);
#203=LINE('',#1464,#291);
#204=LINE('',#1467,#292);
#205=LINE('',#1469,#293);
#206=LINE('',#1470,#294);
#207=LINE('',#1476,#295);
#208=LINE('',#1480,#296);
#209=LINE('',#1484,#297);
#210=LINE('',#1487,#298);
#211=LINE('',#1519,#299);
#212=LINE('',#1520,#300);
#213=LINE('',#1523,#301);
#214=LINE('',#1524,#302);
#215=LINE('',#1528,#303);
#216=LINE('',#1531,#304);
#217=LINE('',#1532,#305);
#218=LINE('',#1536,#306);
#219=LINE('',#1539,#307);
#220=LINE('',#1540,#308);
#221=LINE('',#1544,#309);
#222=LINE('',#1546,#310);
#223=VECTOR('',#1017,10.);
#224=VECTOR('',#1020,10.);
#225=VECTOR('',#1023,10.);
#226=VECTOR('',#1024,10.);
#227=VECTOR('',#1025,10.);
#228=VECTOR('',#1028,10.);
#229=VECTOR('',#1029,10.);
#230=VECTOR('',#1030,10.);
#231=VECTOR('',#1035,10.);
#232=VECTOR('',#1038,10.);
#233=VECTOR('',#1041,10.);
#234=VECTOR('',#1042,10.);
#235=VECTOR('',#1043,10.);
#236=VECTOR('',#1046,10.);
#237=VECTOR('',#1047,10.);
#238=VECTOR('',#1048,10.);
#239=VECTOR('',#1051,10.);
#240=VECTOR('',#1052,10.);
#241=VECTOR('',#1053,10.);
#242=VECTOR('',#1054,10.);
#243=VECTOR('',#1059,10.);
#244=VECTOR('',#1064,10.);
#245=VECTOR('',#1065,10.);
#246=VECTOR('',#1066,10.);
#247=VECTOR('',#1071,10.);
#248=VECTOR('',#1074,10.);
#249=VECTOR('',#1077,10.);
#250=VECTOR('',#1078,10.);
#251=VECTOR('',#1079,10.);
#252=VECTOR('',#1082,10.);
#253=VECTOR('',#1083,10.);
#254=VECTOR('',#1084,10.);
#255=VECTOR('',#1089,10.);
#256=VECTOR('',#1092,10.);
#257=VECTOR('',#1095,10.);
#258=VECTOR('',#1096,10.);
#259=VECTOR('',#1097,10.);
#260=VECTOR('',#1100,10.);
#261=VECTOR('',#1101,10.);
#262=VECTOR('',#1102,10.);
#263=VECTOR('',#1107,10.);
#264=VECTOR('',#1110,10.);
#265=VECTOR('',#1113,10.);
#266=VECTOR('',#1114,10.);
#267=VECTOR('',#1115,10.);
#268=VECTOR('',#1118,10.);
#269=VECTOR('',#1119,10.);
#270=VECTOR('',#1120,10.);
#271=VECTOR('',#1125,10.);
#272=VECTOR('',#1128,10.);
#273=VECTOR('',#1131,10.);
#274=VECTOR('',#1132,10.);
#275=VECTOR('',#1133,10.);
#276=VECTOR('',#1136,10.);
#277=VECTOR('',#1137,10.);
#278=VECTOR('',#1138,10.);
#279=VECTOR('',#1143,10.);
#280=VECTOR('',#1146,10.);
#281=VECTOR('',#1149,10.);
#282=VECTOR('',#1150,10.);
#283=VECTOR('',#1151,10.);
#284=VECTOR('',#1154,10.);
#285=VECTOR('',#1155,10.);
#286=VECTOR('',#1156,10.);
#287=VECTOR('',#1161,10.);
#288=VECTOR('',#1164,10.);
#289=VECTOR('',#1167,10.);
#290=VECTOR('',#1168,10.);
#291=VECTOR('',#1169,10.);
#292=VECTOR('',#1172,10.);
#293=VECTOR('',#1173,10.);
#294=VECTOR('',#1174,10.);
#295=VECTOR('',#1179,10.);
#296=VECTOR('',#1182,10.);
#297=VECTOR('',#1185,10.);
#298=VECTOR('',#1188,10.);
#299=VECTOR('',#1247,10.);
#300=VECTOR('',#1248,10.);
#301=VECTOR('',#1251,10.);
#302=VECTOR('',#1252,10.);
#303=VECTOR('',#1257,10.);
#304=VECTOR('',#1260,10.);
#305=VECTOR('',#1261,10.);
#306=VECTOR('',#1266,10.);
#307=VECTOR('',#1269,10.);
#308=VECTOR('',#1270,10.);
#309=VECTOR('',#1275,10.);
#310=VECTOR('',#1278,10.);
#311=CIRCLE('',#922,2.00000002980232);
#312=CIRCLE('',#923,2.00000002980232);
#313=CIRCLE('',#927,2.00000002980232);
#314=CIRCLE('',#928,2.00000002980232);
#315=CIRCLE('',#933,2.00000002980232);
#316=CIRCLE('',#934,2.00000002980232);
#317=CIRCLE('',#937,2.00000002980232);
#318=CIRCLE('',#938,2.00000002980232);
#319=CIRCLE('',#942,2.00000002980232);
#320=CIRCLE('',#943,2.00000002980232);
#321=CIRCLE('',#947,2.00000002980232);
#322=CIRCLE('',#948,2.00000002980232);
#323=CIRCLE('',#952,2.00000002980232);
#324=CIRCLE('',#953,2.00000002980232);
#325=CIRCLE('',#957,2.00000002980232);
#326=CIRCLE('',#958,2.00000002980232);
#327=CIRCLE('',#962,2.00000002980232);
#328=CIRCLE('',#963,2.00000002980232);
#329=CIRCLE('',#967,7.5);
#330=CIRCLE('',#968,7.5);
#331=CIRCLE('',#969,7.5);
#332=CIRCLE('',#970,7.5);
#333=CIRCLE('',#971,10.);
#334=CIRCLE('',#972,10.);
#335=CIRCLE('',#973,10.);
#336=CIRCLE('',#974,10.);
#337=CIRCLE('',#975,10.);
#338=CIRCLE('',#976,10.);
#339=CIRCLE('',#977,10.);
#340=CIRCLE('',#978,10.);
#341=CIRCLE('',#979,10.);
#342=CIRCLE('',#981,10.);
#343=CIRCLE('',#983,10.);
#344=CIRCLE('',#985,10.);
#345=CIRCLE('',#987,10.);
#346=CIRCLE('',#989,10.);
#347=CIRCLE('',#991,10.);
#348=CIRCLE('',#993,10.);
#349=CIRCLE('',#995,10.);
#350=CIRCLE('',#997,10.);
#351=CIRCLE('',#999,7.5);
#352=CIRCLE('',#1002,7.5);
#353=CIRCLE('',#1005,7.5);
#354=CIRCLE('',#1008,7.5);
#355=VERTEX_POINT('',#1283);
#356=VERTEX_POINT('',#1284);
#357=VERTEX_POINT('',#1286);
#358=VERTEX_POINT('',#1288);
#359=VERTEX_POINT('',#1292);
#360=VERTEX_POINT('',#1294);
#361=VERTEX_POINT('',#1298);
#362=VERTEX_POINT('',#1300);
#363=VERTEX_POINT('',#1304);
#364=VERTEX_POINT('',#1305);
#365=VERTEX_POINT('',#1307);
#366=VERTEX_POINT('',#1309);
#367=VERTEX_POINT('',#1313);
#368=VERTEX_POINT('',#1315);
#369=VERTEX_POINT('',#1319);
#370=VERTEX_POINT('',#1321);
#371=VERTEX_POINT('',#1325);
#372=VERTEX_POINT('',#1326);
#373=VERTEX_POINT('',#1328);
#374=VERTEX_POINT('',#1330);
#375=VERTEX_POINT('',#1334);
#376=VERTEX_POINT('',#1336);
#377=VERTEX_POINT('',#1340);
#378=VERTEX_POINT('',#1342);
#379=VERTEX_POINT('',#1346);
#380=VERTEX_POINT('',#1347);
#381=VERTEX_POINT('',#1349);
#382=VERTEX_POINT('',#1351);
#383=VERTEX_POINT('',#1355);
#384=VERTEX_POINT('',#1357);
#385=VERTEX_POINT('',#1361);
#386=VERTEX_POINT('',#1363);
#387=VERTEX_POINT('',#1367);
#388=VERTEX_POINT('',#1368);
#389=VERTEX_POINT('',#1370);
#390=VERTEX_POINT('',#1372);
#391=VERTEX_POINT('',#1376);
#392=VERTEX_POINT('',#1378);
#393=VERTEX_POINT('',#1382);
#394=VERTEX_POINT('',#1384);
#395=VERTEX_POINT('',#1388);
#396=VERTEX_POINT('',#1389);
#397=VERTEX_POINT('',#1391);
#398=VERTEX_POINT('',#1393);
#399=VERTEX_POINT('',#1397);
#400=VERTEX_POINT('',#1399);
#401=VERTEX_POINT('',#1403);
#402=VERTEX_POINT('',#1405);
#403=VERTEX_POINT('',#1409);
#404=VERTEX_POINT('',#1410);
#405=VERTEX_POINT('',#1412);
#406=VERTEX_POINT('',#1414);
#407=VERTEX_POINT('',#1418);
#408=VERTEX_POINT('',#1420);
#409=VERTEX_POINT('',#1424);
#410=VERTEX_POINT('',#1426);
#411=VERTEX_POINT('',#1430);
#412=VERTEX_POINT('',#1431);
#413=VERTEX_POINT('',#1433);
#414=VERTEX_POINT('',#1435);
#415=VERTEX_POINT('',#1439);
#416=VERTEX_POINT('',#1441);
#417=VERTEX_POINT('',#1445);
#418=VERTEX_POINT('',#1447);
#419=VERTEX_POINT('',#1451);
#420=VERTEX_POINT('',#1452);
#421=VERTEX_POINT('',#1454);
#422=VERTEX_POINT('',#1456);
#423=VERTEX_POINT('',#1460);
#424=VERTEX_POINT('',#1462);
#425=VERTEX_POINT('',#1466);
#426=VERTEX_POINT('',#1468);
#427=VERTEX_POINT('',#1472);
#428=VERTEX_POINT('',#1473);
#429=VERTEX_POINT('',#1475);
#430=VERTEX_POINT('',#1477);
#431=VERTEX_POINT('',#1479);
#432=VERTEX_POINT('',#1481);
#433=VERTEX_POINT('',#1483);
#434=VERTEX_POINT('',#1485);
#435=VERTEX_POINT('',#1516);
#436=VERTEX_POINT('',#1517);
#437=VERTEX_POINT('',#1522);
#438=VERTEX_POINT('',#1526);
#439=VERTEX_POINT('',#1530);
#440=VERTEX_POINT('',#1534);
#441=VERTEX_POINT('',#1538);
#442=VERTEX_POINT('',#1542);
#443=EDGE_CURVE('',#355,#356,#311,.T.);
#444=EDGE_CURVE('',#357,#355,#135,.T.);
#445=EDGE_CURVE('',#358,#357,#312,.T.);
#446=EDGE_CURVE('',#358,#356,#136,.T.);
#447=EDGE_CURVE('',#356,#359,#137,.T.);
#448=EDGE_CURVE('',#360,#358,#138,.T.);
#449=EDGE_CURVE('',#359,#360,#139,.T.);
#450=EDGE_CURVE('',#361,#355,#140,.T.);
#451=EDGE_CURVE('',#362,#361,#141,.T.);
#452=EDGE_CURVE('',#357,#362,#142,.T.);
#453=EDGE_CURVE('',#363,#364,#313,.T.);
#454=EDGE_CURVE('',#365,#363,#143,.T.);
#455=EDGE_CURVE('',#366,#365,#314,.T.);
#456=EDGE_CURVE('',#366,#364,#144,.T.);
#457=EDGE_CURVE('',#364,#367,#145,.T.);
#458=EDGE_CURVE('',#368,#366,#146,.T.);
#459=EDGE_CURVE('',#367,#368,#147,.T.);
#460=EDGE_CURVE('',#369,#363,#148,.T.);
#461=EDGE_CURVE('',#370,#369,#149,.T.);
#462=EDGE_CURVE('',#365,#370,#150,.T.);
#463=EDGE_CURVE('',#371,#372,#151,.T.);
#464=EDGE_CURVE('',#373,#371,#152,.T.);
#465=EDGE_CURVE('',#374,#373,#153,.T.);
#466=EDGE_CURVE('',#372,#374,#154,.T.);
#467=EDGE_CURVE('',#375,#371,#315,.T.);
#468=EDGE_CURVE('',#376,#375,#155,.T.);
#469=EDGE_CURVE('',#373,#376,#316,.T.);
#470=EDGE_CURVE('',#377,#375,#156,.T.);
#471=EDGE_CURVE('',#378,#377,#157,.T.);
#472=EDGE_CURVE('',#376,#378,#158,.T.);
#473=EDGE_CURVE('',#379,#380,#317,.T.);
#474=EDGE_CURVE('',#381,#379,#159,.T.);
#475=EDGE_CURVE('',#382,#381,#318,.T.);
#476=EDGE_CURVE('',#382,#380,#160,.T.);
#477=EDGE_CURVE('',#380,#383,#161,.T.);
#478=EDGE_CURVE('',#384,#382,#162,.T.);
#479=EDGE_CURVE('',#383,#384,#163,.T.);
#480=EDGE_CURVE('',#385,#379,#164,.T.);
#481=EDGE_CURVE('',#386,#385,#165,.T.);
#482=EDGE_CURVE('',#381,#386,#166,.T.);
#483=EDGE_CURVE('',#387,#388,#319,.T.);
#484=EDGE_CURVE('',#389,#387,#167,.T.);
#485=EDGE_CURVE('',#390,#389,#320,.T.);
#486=EDGE_CURVE('',#390,#388,#168,.T.);
#487=EDGE_CURVE('',#388,#391,#169,.T.);
#488=EDGE_CURVE('',#392,#390,#170,.T.);
#489=EDGE_CURVE('',#391,#392,#171,.T.);
#490=EDGE_CURVE('',#393,#387,#172,.T.);
#491=EDGE_CURVE('',#394,#393,#173,.T.);
#492=EDGE_CURVE('',#389,#394,#174,.T.);
#493=EDGE_CURVE('',#395,#396,#321,.T.);
#494=EDGE_CURVE('',#397,#395,#175,.T.);
#495=EDGE_CURVE('',#398,#397,#322,.T.);
#496=EDGE_CURVE('',#398,#396,#176,.T.);
#497=EDGE_CURVE('',#396,#399,#177,.T.);
#498=EDGE_CURVE('',#400,#398,#178,.T.);
#499=EDGE_CURVE('',#399,#400,#179,.T.);
#500=EDGE_CURVE('',#401,#395,#180,.T.);
#501=EDGE_CURVE('',#402,#401,#181,.T.);
#502=EDGE_CURVE('',#397,#402,#182,.T.);
#503=EDGE_CURVE('',#403,#404,#323,.T.);
#504=EDGE_CURVE('',#405,#403,#183,.T.);
#505=EDGE_CURVE('',#406,#405,#324,.T.);
#506=EDGE_CURVE('',#406,#404,#184,.T.);
#507=EDGE_CURVE('',#404,#407,#185,.T.);
#508=EDGE_CURVE('',#408,#406,#186,.T.);
#509=EDGE_CURVE('',#407,#408,#187,.T.);
#510=EDGE_CURVE('',#409,#403,#188,.T.);
#511=EDGE_CURVE('',#410,#409,#189,.T.);
#512=EDGE_CURVE('',#405,#410,#190,.T.);
#513=EDGE_CURVE('',#411,#412,#325,.T.);
#514=EDGE_CURVE('',#413,#411,#191,.T.);
#515=EDGE_CURVE('',#414,#413,#326,.T.);
#516=EDGE_CURVE('',#414,#412,#192,.T.);
#517=EDGE_CURVE('',#412,#415,#193,.T.);
#518=EDGE_CURVE('',#416,#414,#194,.T.);
#519=EDGE_CURVE('',#415,#416,#195,.T.);
#520=EDGE_CURVE('',#417,#411,#196,.T.);
#521=EDGE_CURVE('',#418,#417,#197,.T.);
#522=EDGE_CURVE('',#413,#418,#198,.T.);
#523=EDGE_CURVE('',#419,#420,#327,.T.);
#524=EDGE_CURVE('',#421,#419,#199,.T.);
#525=EDGE_CURVE('',#422,#421,#328,.T.);
#526=EDGE_CURVE('',#422,#420,#200,.T.);
#527=EDGE_CURVE('',#420,#423,#201,.T.);
#528=EDGE_CURVE('',#424,#422,#202,.T.);
#529=EDGE_CURVE('',#423,#424,#203,.T.);
#530=EDGE_CURVE('',#425,#419,#204,.T.);
#531=EDGE_CURVE('',#426,#425,#205,.T.);
#532=EDGE_CURVE('',#421,#426,#206,.T.);
#533=EDGE_CURVE('',#427,#428,#329,.T.);
#534=EDGE_CURVE('',#427,#429,#207,.T.);
#535=EDGE_CURVE('',#430,#429,#330,.T.);
#536=EDGE_CURVE('',#430,#431,#208,.T.);
#537=EDGE_CURVE('',#432,#431,#331,.T.);
#538=EDGE_CURVE('',#432,#433,#209,.T.);
#539=EDGE_CURVE('',#434,#433,#332,.T.);
#540=EDGE_CURVE('',#434,#428,#210,.T.);
#541=EDGE_CURVE('',#359,#385,#333,.T.);
#542=EDGE_CURVE('',#383,#417,#334,.T.);
#543=EDGE_CURVE('',#415,#401,#335,.T.);
#544=EDGE_CURVE('',#399,#369,#336,.T.);
#545=EDGE_CURVE('',#367,#377,#337,.T.);
#546=EDGE_CURVE('',#372,#409,#338,.T.);
#547=EDGE_CURVE('',#407,#425,#339,.T.);
#548=EDGE_CURVE('',#423,#393,#340,.T.);
#549=EDGE_CURVE('',#391,#361,#341,.T.);
#550=EDGE_CURVE('',#426,#408,#342,.T.);
#551=EDGE_CURVE('',#410,#374,#343,.T.);
#552=EDGE_CURVE('',#402,#416,#344,.T.);
#553=EDGE_CURVE('',#394,#424,#345,.T.);
#554=EDGE_CURVE('',#418,#384,#346,.T.);
#555=EDGE_CURVE('',#378,#368,#347,.T.);
#556=EDGE_CURVE('',#370,#400,#348,.T.);
#557=EDGE_CURVE('',#386,#360,#349,.T.);
#558=EDGE_CURVE('',#362,#392,#350,.T.);
#559=EDGE_CURVE('',#435,#436,#351,.T.);
#560=EDGE_CURVE('',#436,#427,#211,.T.);
#561=EDGE_CURVE('',#428,#435,#212,.T.);
#562=EDGE_CURVE('',#437,#434,#213,.T.);
#563=EDGE_CURVE('',#435,#437,#214,.T.);
#564=EDGE_CURVE('',#438,#437,#352,.T.);
#565=EDGE_CURVE('',#433,#438,#215,.T.);
#566=EDGE_CURVE('',#439,#432,#216,.T.);
#567=EDGE_CURVE('',#438,#439,#217,.T.);
#568=EDGE_CURVE('',#440,#439,#353,.T.);
#569=EDGE_CURVE('',#431,#440,#218,.T.);
#570=EDGE_CURVE('',#441,#430,#219,.T.);
#571=EDGE_CURVE('',#440,#441,#220,.T.);
#572=EDGE_CURVE('',#442,#441,#354,.T.);
#573=EDGE_CURVE('',#429,#442,#221,.T.);
#574=EDGE_CURVE('',#442,#436,#222,.T.);
#575=ORIENTED_EDGE('',*,*,#443,.F.);
#576=ORIENTED_EDGE('',*,*,#444,.F.);
#577=ORIENTED_EDGE('',*,*,#445,.F.);
#578=ORIENTED_EDGE('',*,*,#446,.T.);
#579=ORIENTED_EDGE('',*,*,#447,.F.);
#580=ORIENTED_EDGE('',*,*,#446,.F.);
#581=ORIENTED_EDGE('',*,*,#448,.F.);
#582=ORIENTED_EDGE('',*,*,#449,.F.);
#583=ORIENTED_EDGE('',*,*,#450,.F.);
#584=ORIENTED_EDGE('',*,*,#451,.F.);
#585=ORIENTED_EDGE('',*,*,#452,.F.);
#586=ORIENTED_EDGE('',*,*,#444,.T.);
#587=ORIENTED_EDGE('',*,*,#453,.F.);
#588=ORIENTED_EDGE('',*,*,#454,.F.);
#589=ORIENTED_EDGE('',*,*,#455,.F.);
#590=ORIENTED_EDGE('',*,*,#456,.T.);
#591=ORIENTED_EDGE('',*,*,#457,.F.);
#592=ORIENTED_EDGE('',*,*,#456,.F.);
#593=ORIENTED_EDGE('',*,*,#458,.F.);
#594=ORIENTED_EDGE('',*,*,#459,.F.);
#595=ORIENTED_EDGE('',*,*,#460,.F.);
#596=ORIENTED_EDGE('',*,*,#461,.F.);
#597=ORIENTED_EDGE('',*,*,#462,.F.);
#598=ORIENTED_EDGE('',*,*,#454,.T.);
#599=ORIENTED_EDGE('',*,*,#463,.F.);
#600=ORIENTED_EDGE('',*,*,#464,.F.);
#601=ORIENTED_EDGE('',*,*,#465,.F.);
#602=ORIENTED_EDGE('',*,*,#466,.F.);
#603=ORIENTED_EDGE('',*,*,#467,.F.);
#604=ORIENTED_EDGE('',*,*,#468,.F.);
#605=ORIENTED_EDGE('',*,*,#469,.F.);
#606=ORIENTED_EDGE('',*,*,#464,.T.);
#607=ORIENTED_EDGE('',*,*,#470,.F.);
#608=ORIENTED_EDGE('',*,*,#471,.F.);
#609=ORIENTED_EDGE('',*,*,#472,.F.);
#610=ORIENTED_EDGE('',*,*,#468,.T.);
#611=ORIENTED_EDGE('',*,*,#473,.F.);
#612=ORIENTED_EDGE('',*,*,#474,.F.);
#613=ORIENTED_EDGE('',*,*,#475,.F.);
#614=ORIENTED_EDGE('',*,*,#476,.T.);
#615=ORIENTED_EDGE('',*,*,#477,.F.);
#616=ORIENTED_EDGE('',*,*,#476,.F.);
#617=ORIENTED_EDGE('',*,*,#478,.F.);
#618=ORIENTED_EDGE('',*,*,#479,.F.);
#619=ORIENTED_EDGE('',*,*,#480,.F.);
#620=ORIENTED_EDGE('',*,*,#481,.F.);
#621=ORIENTED_EDGE('',*,*,#482,.F.);
#622=ORIENTED_EDGE('',*,*,#474,.T.);
#623=ORIENTED_EDGE('',*,*,#483,.F.);
#624=ORIENTED_EDGE('',*,*,#484,.F.);
#625=ORIENTED_EDGE('',*,*,#485,.F.);
#626=ORIENTED_EDGE('',*,*,#486,.T.);
#627=ORIENTED_EDGE('',*,*,#487,.F.);
#628=ORIENTED_EDGE('',*,*,#486,.F.);
#629=ORIENTED_EDGE('',*,*,#488,.F.);
#630=ORIENTED_EDGE('',*,*,#489,.F.);
#631=ORIENTED_EDGE('',*,*,#490,.F.);
#632=ORIENTED_EDGE('',*,*,#491,.F.);
#633=ORIENTED_EDGE('',*,*,#492,.F.);
#634=ORIENTED_EDGE('',*,*,#484,.T.);
#635=ORIENTED_EDGE('',*,*,#493,.F.);
#636=ORIENTED_EDGE('',*,*,#494,.F.);
#637=ORIENTED_EDGE('',*,*,#495,.F.);
#638=ORIENTED_EDGE('',*,*,#496,.T.);
#639=ORIENTED_EDGE('',*,*,#497,.F.);
#640=ORIENTED_EDGE('',*,*,#496,.F.);
#641=ORIENTED_EDGE('',*,*,#498,.F.);
#642=ORIENTED_EDGE('',*,*,#499,.F.);
#643=ORIENTED_EDGE('',*,*,#500,.F.);
#644=ORIENTED_EDGE('',*,*,#501,.F.);
#645=ORIENTED_EDGE('',*,*,#502,.F.);
#646=ORIENTED_EDGE('',*,*,#494,.T.);
#647=ORIENTED_EDGE('',*,*,#503,.F.);
#648=ORIENTED_EDGE('',*,*,#504,.F.);
#649=ORIENTED_EDGE('',*,*,#505,.F.);
#650=ORIENTED_EDGE('',*,*,#506,.T.);
#651=ORIENTED_EDGE('',*,*,#507,.F.);
#652=ORIENTED_EDGE('',*,*,#506,.F.);
#653=ORIENTED_EDGE('',*,*,#508,.F.);
#654=ORIENTED_EDGE('',*,*,#509,.F.);
#655=ORIENTED_EDGE('',*,*,#510,.F.);
#656=ORIENTED_EDGE('',*,*,#511,.F.);
#657=ORIENTED_EDGE('',*,*,#512,.F.);
#658=ORIENTED_EDGE('',*,*,#504,.T.);
#659=ORIENTED_EDGE('',*,*,#513,.F.);
#660=ORIENTED_EDGE('',*,*,#514,.F.);
#661=ORIENTED_EDGE('',*,*,#515,.F.);
#662=ORIENTED_EDGE('',*,*,#516,.T.);
#663=ORIENTED_EDGE('',*,*,#517,.F.);
#664=ORIENTED_EDGE('',*,*,#516,.F.);
#665=ORIENTED_EDGE('',*,*,#518,.F.);
#666=ORIENTED_EDGE('',*,*,#519,.F.);
#667=ORIENTED_EDGE('',*,*,#520,.F.);
#668=ORIENTED_EDGE('',*,*,#521,.F.);
#669=ORIENTED_EDGE('',*,*,#522,.F.);
#670=ORIENTED_EDGE('',*,*,#514,.T.);
#671=ORIENTED_EDGE('',*,*,#523,.F.);
#672=ORIENTED_EDGE('',*,*,#524,.F.);
#673=ORIENTED_EDGE('',*,*,#525,.F.);
#674=ORIENTED_EDGE('',*,*,#526,.T.);
#675=ORIENTED_EDGE('',*,*,#527,.F.);
#676=ORIENTED_EDGE('',*,*,#526,.F.);
#677=ORIENTED_EDGE('',*,*,#528,.F.);
#678=ORIENTED_EDGE('',*,*,#529,.F.);
#679=ORIENTED_EDGE('',*,*,#530,.F.);
#680=ORIENTED_EDGE('',*,*,#531,.F.);
#681=ORIENTED_EDGE('',*,*,#532,.F.);
#682=ORIENTED_EDGE('',*,*,#524,.T.);
#683=ORIENTED_EDGE('',*,*,#533,.F.);
#684=ORIENTED_EDGE('',*,*,#534,.T.);
#685=ORIENTED_EDGE('',*,*,#535,.F.);
#686=ORIENTED_EDGE('',*,*,#536,.T.);
#687=ORIENTED_EDGE('',*,*,#537,.F.);
#688=ORIENTED_EDGE('',*,*,#538,.T.);
#689=ORIENTED_EDGE('',*,*,#539,.F.);
#690=ORIENTED_EDGE('',*,*,#540,.T.);
#691=ORIENTED_EDGE('',*,*,#450,.T.);
#692=ORIENTED_EDGE('',*,*,#443,.T.);
#693=ORIENTED_EDGE('',*,*,#447,.T.);
#694=ORIENTED_EDGE('',*,*,#541,.T.);
#695=ORIENTED_EDGE('',*,*,#480,.T.);
#696=ORIENTED_EDGE('',*,*,#473,.T.);
#697=ORIENTED_EDGE('',*,*,#477,.T.);
#698=ORIENTED_EDGE('',*,*,#542,.T.);
#699=ORIENTED_EDGE('',*,*,#520,.T.);
#700=ORIENTED_EDGE('',*,*,#513,.T.);
#701=ORIENTED_EDGE('',*,*,#517,.T.);
#702=ORIENTED_EDGE('',*,*,#543,.T.);
#703=ORIENTED_EDGE('',*,*,#500,.T.);
#704=ORIENTED_EDGE('',*,*,#493,.T.);
#705=ORIENTED_EDGE('',*,*,#497,.T.);
#706=ORIENTED_EDGE('',*,*,#544,.T.);
#707=ORIENTED_EDGE('',*,*,#460,.T.);
#708=ORIENTED_EDGE('',*,*,#453,.T.);
#709=ORIENTED_EDGE('',*,*,#457,.T.);
#710=ORIENTED_EDGE('',*,*,#545,.T.);
#711=ORIENTED_EDGE('',*,*,#470,.T.);
#712=ORIENTED_EDGE('',*,*,#467,.T.);
#713=ORIENTED_EDGE('',*,*,#463,.T.);
#714=ORIENTED_EDGE('',*,*,#546,.T.);
#715=ORIENTED_EDGE('',*,*,#510,.T.);
#716=ORIENTED_EDGE('',*,*,#503,.T.);
#717=ORIENTED_EDGE('',*,*,#507,.T.);
#718=ORIENTED_EDGE('',*,*,#547,.T.);
#719=ORIENTED_EDGE('',*,*,#530,.T.);
#720=ORIENTED_EDGE('',*,*,#523,.T.);
#721=ORIENTED_EDGE('',*,*,#527,.T.);
#722=ORIENTED_EDGE('',*,*,#548,.T.);
#723=ORIENTED_EDGE('',*,*,#490,.T.);
#724=ORIENTED_EDGE('',*,*,#483,.T.);
#725=ORIENTED_EDGE('',*,*,#487,.T.);
#726=ORIENTED_EDGE('',*,*,#549,.T.);
#727=ORIENTED_EDGE('',*,*,#509,.T.);
#728=ORIENTED_EDGE('',*,*,#550,.F.);
#729=ORIENTED_EDGE('',*,*,#531,.T.);
#730=ORIENTED_EDGE('',*,*,#547,.F.);
#731=ORIENTED_EDGE('',*,*,#466,.T.);
#732=ORIENTED_EDGE('',*,*,#551,.F.);
#733=ORIENTED_EDGE('',*,*,#511,.T.);
#734=ORIENTED_EDGE('',*,*,#546,.F.);
#735=ORIENTED_EDGE('',*,*,#501,.T.);
#736=ORIENTED_EDGE('',*,*,#543,.F.);
#737=ORIENTED_EDGE('',*,*,#519,.T.);
#738=ORIENTED_EDGE('',*,*,#552,.F.);
#739=ORIENTED_EDGE('',*,*,#491,.T.);
#740=ORIENTED_EDGE('',*,*,#548,.F.);
#741=ORIENTED_EDGE('',*,*,#529,.T.);
#742=ORIENTED_EDGE('',*,*,#553,.F.);
#743=ORIENTED_EDGE('',*,*,#479,.T.);
#744=ORIENTED_EDGE('',*,*,#554,.F.);
#745=ORIENTED_EDGE('',*,*,#521,.T.);
#746=ORIENTED_EDGE('',*,*,#542,.F.);
#747=ORIENTED_EDGE('',*,*,#459,.T.);
#748=ORIENTED_EDGE('',*,*,#555,.F.);
#749=ORIENTED_EDGE('',*,*,#471,.T.);
#750=ORIENTED_EDGE('',*,*,#545,.F.);
#751=ORIENTED_EDGE('',*,*,#461,.T.);
#752=ORIENTED_EDGE('',*,*,#544,.F.);
#753=ORIENTED_EDGE('',*,*,#499,.T.);
#754=ORIENTED_EDGE('',*,*,#556,.F.);
#755=ORIENTED_EDGE('',*,*,#449,.T.);
#756=ORIENTED_EDGE('',*,*,#557,.F.);
#757=ORIENTED_EDGE('',*,*,#481,.T.);
#758=ORIENTED_EDGE('',*,*,#541,.F.);
#759=ORIENTED_EDGE('',*,*,#451,.T.);
#760=ORIENTED_EDGE('',*,*,#549,.F.);
#761=ORIENTED_EDGE('',*,*,#489,.T.);
#762=ORIENTED_EDGE('',*,*,#558,.F.);
#763=ORIENTED_EDGE('',*,*,#559,.T.);
#764=ORIENTED_EDGE('',*,*,#560,.T.);
#765=ORIENTED_EDGE('',*,*,#533,.T.);
#766=ORIENTED_EDGE('',*,*,#561,.T.);
#767=ORIENTED_EDGE('',*,*,#561,.F.);
#768=ORIENTED_EDGE('',*,*,#540,.F.);
#769=ORIENTED_EDGE('',*,*,#562,.F.);
#770=ORIENTED_EDGE('',*,*,#563,.F.);
#771=ORIENTED_EDGE('',*,*,#564,.T.);
#772=ORIENTED_EDGE('',*,*,#562,.T.);
#773=ORIENTED_EDGE('',*,*,#539,.T.);
#774=ORIENTED_EDGE('',*,*,#565,.T.);
#775=ORIENTED_EDGE('',*,*,#565,.F.);
#776=ORIENTED_EDGE('',*,*,#538,.F.);
#777=ORIENTED_EDGE('',*,*,#566,.F.);
#778=ORIENTED_EDGE('',*,*,#567,.F.);
#779=ORIENTED_EDGE('',*,*,#568,.T.);
#780=ORIENTED_EDGE('',*,*,#566,.T.);
#781=ORIENTED_EDGE('',*,*,#537,.T.);
#782=ORIENTED_EDGE('',*,*,#569,.T.);
#783=ORIENTED_EDGE('',*,*,#569,.F.);
#784=ORIENTED_EDGE('',*,*,#536,.F.);
#785=ORIENTED_EDGE('',*,*,#570,.F.);
#786=ORIENTED_EDGE('',*,*,#571,.F.);
#787=ORIENTED_EDGE('',*,*,#572,.T.);
#788=ORIENTED_EDGE('',*,*,#570,.T.);
#789=ORIENTED_EDGE('',*,*,#535,.T.);
#790=ORIENTED_EDGE('',*,*,#573,.T.);
#791=ORIENTED_EDGE('',*,*,#560,.F.);
#792=ORIENTED_EDGE('',*,*,#574,.F.);
#793=ORIENTED_EDGE('',*,*,#573,.F.);
#794=ORIENTED_EDGE('',*,*,#534,.F.);
#795=ORIENTED_EDGE('',*,*,#559,.F.);
#796=ORIENTED_EDGE('',*,*,#563,.T.);
#797=ORIENTED_EDGE('',*,*,#564,.F.);
#798=ORIENTED_EDGE('',*,*,#567,.T.);
#799=ORIENTED_EDGE('',*,*,#568,.F.);
#800=ORIENTED_EDGE('',*,*,#571,.T.);
#801=ORIENTED_EDGE('',*,*,#572,.F.);
#802=ORIENTED_EDGE('',*,*,#574,.T.);
#803=ORIENTED_EDGE('',*,*,#452,.T.);
#804=ORIENTED_EDGE('',*,*,#558,.T.);
#805=ORIENTED_EDGE('',*,*,#488,.T.);
#806=ORIENTED_EDGE('',*,*,#485,.T.);
#807=ORIENTED_EDGE('',*,*,#492,.T.);
#808=ORIENTED_EDGE('',*,*,#553,.T.);
#809=ORIENTED_EDGE('',*,*,#528,.T.);
#810=ORIENTED_EDGE('',*,*,#525,.T.);
#811=ORIENTED_EDGE('',*,*,#532,.T.);
#812=ORIENTED_EDGE('',*,*,#550,.T.);
#813=ORIENTED_EDGE('',*,*,#508,.T.);
#814=ORIENTED_EDGE('',*,*,#505,.T.);
#815=ORIENTED_EDGE('',*,*,#512,.T.);
#816=ORIENTED_EDGE('',*,*,#551,.T.);
#817=ORIENTED_EDGE('',*,*,#465,.T.);
#818=ORIENTED_EDGE('',*,*,#469,.T.);
#819=ORIENTED_EDGE('',*,*,#472,.T.);
#820=ORIENTED_EDGE('',*,*,#555,.T.);
#821=ORIENTED_EDGE('',*,*,#458,.T.);
#822=ORIENTED_EDGE('',*,*,#455,.T.);
#823=ORIENTED_EDGE('',*,*,#462,.T.);
#824=ORIENTED_EDGE('',*,*,#556,.T.);
#825=ORIENTED_EDGE('',*,*,#498,.T.);
#826=ORIENTED_EDGE('',*,*,#495,.T.);
#827=ORIENTED_EDGE('',*,*,#502,.T.);
#828=ORIENTED_EDGE('',*,*,#552,.T.);
#829=ORIENTED_EDGE('',*,*,#518,.T.);
#830=ORIENTED_EDGE('',*,*,#515,.T.);
#831=ORIENTED_EDGE('',*,*,#522,.T.);
#832=ORIENTED_EDGE('',*,*,#554,.T.);
#833=ORIENTED_EDGE('',*,*,#478,.T.);
#834=ORIENTED_EDGE('',*,*,#475,.T.);
#835=ORIENTED_EDGE('',*,*,#482,.T.);
#836=ORIENTED_EDGE('',*,*,#557,.T.);
#837=ORIENTED_EDGE('',*,*,#448,.T.);
#838=ORIENTED_EDGE('',*,*,#445,.T.);
#839=CYLINDRICAL_SURFACE('',#921,2.00000002980232);
#840=CYLINDRICAL_SURFACE('',#926,2.00000002980232);
#841=CYLINDRICAL_SURFACE('',#932,2.00000002980232);
#842=CYLINDRICAL_SURFACE('',#936,2.00000002980232);
#843=CYLINDRICAL_SURFACE('',#941,2.00000002980232);
#844=CYLINDRICAL_SURFACE('',#946,2.00000002980232);
#845=CYLINDRICAL_SURFACE('',#951,2.00000002980232);
#846=CYLINDRICAL_SURFACE('',#956,2.00000002980232);
#847=CYLINDRICAL_SURFACE('',#961,2.00000002980232);
#848=CYLINDRICAL_SURFACE('',#980,10.);
#849=CYLINDRICAL_SURFACE('',#982,10.);
#850=CYLINDRICAL_SURFACE('',#984,10.);
#851=CYLINDRICAL_SURFACE('',#986,10.);
#852=CYLINDRICAL_SURFACE('',#988,10.);
#853=CYLINDRICAL_SURFACE('',#990,10.);
#854=CYLINDRICAL_SURFACE('',#992,10.);
#855=CYLINDRICAL_SURFACE('',#994,10.);
#856=CYLINDRICAL_SURFACE('',#996,10.);
#857=CYLINDRICAL_SURFACE('',#998,7.5);
#858=CYLINDRICAL_SURFACE('',#1001,7.5);
#859=CYLINDRICAL_SURFACE('',#1004,7.5);
#860=CYLINDRICAL_SURFACE('',#1007,7.5);
#861=ADVANCED_FACE('',(#41),#839,.F.);
#862=ADVANCED_FACE('',(#42),#17,.F.);
#863=ADVANCED_FACE('',(#43),#18,.F.);
#864=ADVANCED_FACE('',(#44),#840,.F.);
#865=ADVANCED_FACE('',(#45),#19,.F.);
#866=ADVANCED_FACE('',(#46),#20,.F.);
#867=ADVANCED_FACE('',(#47),#21,.F.);
#868=ADVANCED_FACE('',(#48),#841,.F.);
#869=ADVANCED_FACE('',(#49),#22,.F.);
#870=ADVANCED_FACE('',(#50),#842,.F.);
#871=ADVANCED_FACE('',(#51),#23,.F.);
#872=ADVANCED_FACE('',(#52),#24,.F.);
#873=ADVANCED_FACE('',(#53),#843,.F.);
#874=ADVANCED_FACE('',(#54),#25,.F.);
#875=ADVANCED_FACE('',(#55),#26,.F.);
#876=ADVANCED_FACE('',(#56),#844,.F.);
#877=ADVANCED_FACE('',(#57),#27,.F.);
#878=ADVANCED_FACE('',(#58),#28,.F.);
#879=ADVANCED_FACE('',(#59),#845,.F.);
#880=ADVANCED_FACE('',(#60),#29,.F.);
#881=ADVANCED_FACE('',(#61),#30,.F.);
#882=ADVANCED_FACE('',(#62),#846,.F.);
#883=ADVANCED_FACE('',(#63),#31,.F.);
#884=ADVANCED_FACE('',(#64),#32,.F.);
#885=ADVANCED_FACE('',(#65),#847,.F.);
#886=ADVANCED_FACE('',(#66),#33,.F.);
#887=ADVANCED_FACE('',(#67),#34,.F.);
#888=ADVANCED_FACE('',(#68,#15),#35,.F.);
#889=ADVANCED_FACE('',(#69),#848,.F.);
#890=ADVANCED_FACE('',(#70),#849,.F.);
#891=ADVANCED_FACE('',(#71),#850,.F.);
#892=ADVANCED_FACE('',(#72),#851,.F.);
#893=ADVANCED_FACE('',(#73),#852,.F.);
#894=ADVANCED_FACE('',(#74),#853,.F.);
#895=ADVANCED_FACE('',(#75),#854,.F.);
#896=ADVANCED_FACE('',(#76),#855,.F.);
#897=ADVANCED_FACE('',(#77),#856,.F.);
#898=ADVANCED_FACE('',(#78),#857,.T.);
#899=ADVANCED_FACE('',(#79),#36,.T.);
#900=ADVANCED_FACE('',(#80),#858,.T.);
#901=ADVANCED_FACE('',(#81),#37,.T.);
#902=ADVANCED_FACE('',(#82),#859,.T.);
#903=ADVANCED_FACE('',(#83),#38,.T.);
#904=ADVANCED_FACE('',(#84),#860,.T.);
#905=ADVANCED_FACE('',(#85),#39,.T.);
#906=ADVANCED_FACE('',(#86,#16),#40,.T.);
#907=CLOSED_SHELL('',(#861,#862,#863,#864,#865,#866,#867,#868,#869,#870,
#871,#872,#873,#874,#875,#876,#877,#878,#879,#880,#881,#882,#883,#884,#885,
#886,#887,#888,#889,#890,#891,#892,#893,#894,#895,#896,#897,#898,#899,#900,
#901,#902,#903,#904,#905,#906));
#908=DERIVED_UNIT_ELEMENT(#910,1.);
#909=DERIVED_UNIT_ELEMENT(#1553,-3.);
#910=(
MASS_UNIT()
NAMED_UNIT(*)
SI_UNIT(.KILO.,.GRAM.)
);
#911=DERIVED_UNIT((#908,#909));
#912=MEASURE_REPRESENTATION_ITEM('density measure',
POSITIVE_RATIO_MEASURE(7850.),#911);
#913=PROPERTY_DEFINITION_REPRESENTATION(#918,#915);
#914=PROPERTY_DEFINITION_REPRESENTATION(#919,#916);
#915=REPRESENTATION('material name',(#917),#1550);
#916=REPRESENTATION('density',(#912),#1550);
#917=DESCRIPTIVE_REPRESENTATION_ITEM('Steel','Steel');
#918=PROPERTY_DEFINITION('material property','material name',#1560);
#919=PROPERTY_DEFINITION('material property','density of part',#1560);
#920=AXIS2_PLACEMENT_3D('',#1281,#1011,#1012);
#921=AXIS2_PLACEMENT_3D('',#1282,#1013,#1014);
#922=AXIS2_PLACEMENT_3D('',#1285,#1015,#1016);
#923=AXIS2_PLACEMENT_3D('',#1289,#1018,#1019);
#924=AXIS2_PLACEMENT_3D('',#1291,#1021,#1022);
#925=AXIS2_PLACEMENT_3D('',#1297,#1026,#1027);
#926=AXIS2_PLACEMENT_3D('',#1303,#1031,#1032);
#927=AXIS2_PLACEMENT_3D('',#1306,#1033,#1034);
#928=AXIS2_PLACEMENT_3D('',#1310,#1036,#1037);
#929=AXIS2_PLACEMENT_3D('',#1312,#1039,#1040);
#930=AXIS2_PLACEMENT_3D('',#1318,#1044,#1045);
#931=AXIS2_PLACEMENT_3D('',#1324,#1049,#1050);
#932=AXIS2_PLACEMENT_3D('',#1333,#1055,#1056);
#933=AXIS2_PLACEMENT_3D('',#1335,#1057,#1058);
#934=AXIS2_PLACEMENT_3D('',#1338,#1060,#1061);
#935=AXIS2_PLACEMENT_3D('',#1339,#1062,#1063);
#936=AXIS2_PLACEMENT_3D('',#1345,#1067,#1068);
#937=AXIS2_PLACEMENT_3D('',#1348,#1069,#1070);
#938=AXIS2_PLACEMENT_3D('',#1352,#1072,#1073);
#939=AXIS2_PLACEMENT_3D('',#1354,#1075,#1076);
#940=AXIS2_PLACEMENT_3D('',#1360,#1080,#1081);
#941=AXIS2_PLACEMENT_3D('',#1366,#1085,#1086);
#942=AXIS2_PLACEMENT_3D('',#1369,#1087,#1088);
#943=AXIS2_PLACEMENT_3D('',#1373,#1090,#1091);
#944=AXIS2_PLACEMENT_3D('',#1375,#1093,#1094);
#945=AXIS2_PLACEMENT_3D('',#1381,#1098,#1099);
#946=AXIS2_PLACEMENT_3D('',#1387,#1103,#1104);
#947=AXIS2_PLACEMENT_3D('',#1390,#1105,#1106);
#948=AXIS2_PLACEMENT_3D('',#1394,#1108,#1109);
#949=AXIS2_PLACEMENT_3D('',#1396,#1111,#1112);
#950=AXIS2_PLACEMENT_3D('',#1402,#1116,#1117);
#951=AXIS2_PLACEMENT_3D('',#1408,#1121,#1122);
#952=AXIS2_PLACEMENT_3D('',#1411,#1123,#1124);
#953=AXIS2_PLACEMENT_3D('',#1415,#1126,#1127);
#954=AXIS2_PLACEMENT_3D('',#1417,#1129,#1130);
#955=AXIS2_PLACEMENT_3D('',#1423,#1134,#1135);
#956=AXIS2_PLACEMENT_3D('',#1429,#1139,#1140);
#957=AXIS2_PLACEMENT_3D('',#1432,#1141,#1142);
#958=AXIS2_PLACEMENT_3D('',#1436,#1144,#1145);
#959=AXIS2_PLACEMENT_3D('',#1438,#1147,#1148);
#960=AXIS2_PLACEMENT_3D('',#1444,#1152,#1153);
#961=AXIS2_PLACEMENT_3D('',#1450,#1157,#1158);
#962=AXIS2_PLACEMENT_3D('',#1453,#1159,#1160);
#963=AXIS2_PLACEMENT_3D('',#1457,#1162,#1163);
#964=AXIS2_PLACEMENT_3D('',#1459,#1165,#1166);
#965=AXIS2_PLACEMENT_3D('',#1465,#1170,#1171);
#966=AXIS2_PLACEMENT_3D('',#1471,#1175,#1176);
#967=AXIS2_PLACEMENT_3D('',#1474,#1177,#1178);
#968=AXIS2_PLACEMENT_3D('',#1478,#1180,#1181);
#969=AXIS2_PLACEMENT_3D('',#1482,#1183,#1184);
#970=AXIS2_PLACEMENT_3D('',#1486,#1186,#1187);
#971=AXIS2_PLACEMENT_3D('',#1488,#1189,#1190);
#972=AXIS2_PLACEMENT_3D('',#1489,#1191,#1192);
#973=AXIS2_PLACEMENT_3D('',#1490,#1193,#1194);
#974=AXIS2_PLACEMENT_3D('',#1491,#1195,#1196);
#975=AXIS2_PLACEMENT_3D('',#1492,#1197,#1198);
#976=AXIS2_PLACEMENT_3D('',#1493,#1199,#1200);
#977=AXIS2_PLACEMENT_3D('',#1494,#1201,#1202);
#978=AXIS2_PLACEMENT_3D('',#1495,#1203,#1204);
#979=AXIS2_PLACEMENT_3D('',#1496,#1205,#1206);
#980=AXIS2_PLACEMENT_3D('',#1497,#1207,#1208);
#981=AXIS2_PLACEMENT_3D('',#1498,#1209,#1210);
#982=AXIS2_PLACEMENT_3D('',#1499,#1211,#1212);
#983=AXIS2_PLACEMENT_3D('',#1500,#1213,#1214);
#984=AXIS2_PLACEMENT_3D('',#1501,#1215,#1216);
#985=AXIS2_PLACEMENT_3D('',#1502,#1217,#1218);
#986=AXIS2_PLACEMENT_3D('',#1503,#1219,#1220);
#987=AXIS2_PLACEMENT_3D('',#1504,#1221,#1222);
#988=AXIS2_PLACEMENT_3D('',#1505,#1223,#1224);
#989=AXIS2_PLACEMENT_3D('',#1506,#1225,#1226);
#990=AXIS2_PLACEMENT_3D('',#1507,#1227,#1228);
#991=AXIS2_PLACEMENT_3D('',#1508,#1229,#1230);
#992=AXIS2_PLACEMENT_3D('',#1509,#1231,#1232);
#993=AXIS2_PLACEMENT_3D('',#1510,#1233,#1234);
#994=AXIS2_PLACEMENT_3D('',#1511,#1235,#1236);
#995=AXIS2_PLACEMENT_3D('',#1512,#1237,#1238);
#996=AXIS2_PLACEMENT_3D('',#1513,#1239,#1240);
#997=AXIS2_PLACEMENT_3D('',#1514,#1241,#1242);
#998=AXIS2_PLACEMENT_3D('',#1515,#1243,#1244);
#999=AXIS2_PLACEMENT_3D('',#1518,#1245,#1246);
#1000=AXIS2_PLACEMENT_3D('',#1521,#1249,#1250);
#1001=AXIS2_PLACEMENT_3D('',#1525,#1253,#1254);
#1002=AXIS2_PLACEMENT_3D('',#1527,#1255,#1256);
#1003=AXIS2_PLACEMENT_3D('',#1529,#1258,#1259);
#1004=AXIS2_PLACEMENT_3D('',#1533,#1262,#1263);
#1005=AXIS2_PLACEMENT_3D('',#1535,#1264,#1265);
#1006=AXIS2_PLACEMENT_3D('',#1537,#1267,#1268);
#1007=AXIS2_PLACEMENT_3D('',#1541,#1271,#1272);
#1008=AXIS2_PLACEMENT_3D('',#1543,#1273,#1274);
#1009=AXIS2_PLACEMENT_3D('',#1545,#1276,#1277);
#1010=AXIS2_PLACEMENT_3D('',#1547,#1279,#1280);
#1011=DIRECTION('axis',(0.,0.,1.));
#1012=DIRECTION('refdir',(1.,0.,0.));
#1013=DIRECTION('center_axis',(0.,-1.,0.));
#1014=DIRECTION('ref_axis',(0.17364817766693,0.,-0.984807753012208));
#1015=DIRECTION('center_axis',(0.,1.,0.));
#1016=DIRECTION('ref_axis',(0.17364817766693,0.,-0.984807753012208));
#1017=DIRECTION('',(0.,-1.,0.));
#1018=DIRECTION('center_axis',(0.,-1.,0.));
#1019=DIRECTION('ref_axis',(0.17364817766693,0.,-0.984807753012208));
#1020=DIRECTION('',(0.,-1.,0.));
#1021=DIRECTION('center_axis',(-0.173648177666931,0.,0.984807753012208));
#1022=DIRECTION('ref_axis',(-0.984807753012208,0.,-0.173648177666931));
#1023=DIRECTION('',(0.984807753012208,0.,0.173648177666931));
#1024=DIRECTION('',(-0.984807753012208,0.,-0.173648177666931));
#1025=DIRECTION('',(0.,1.,0.));
#1026=DIRECTION('center_axis',(0.173648177666931,0.,-0.984807753012208));
#1027=DIRECTION('ref_axis',(0.984807753012208,0.,0.173648177666931));
#1028=DIRECTION('',(-0.984807753012208,0.,-0.173648177666931));
#1029=DIRECTION('',(0.,-1.,0.));
#1030=DIRECTION('',(0.984807753012208,0.,0.173648177666931));
#1031=DIRECTION('center_axis',(0.,-1.,0.));
#1032=DIRECTION('ref_axis',(-0.5,0.,0.866025403784439));
#1033=DIRECTION('center_axis',(0.,1.,0.));
#1034=DIRECTION('ref_axis',(-0.5,0.,0.866025403784439));
#1035=DIRECTION('',(0.,-1.,0.));
#1036=DIRECTION('center_axis',(0.,-1.,0.));
#1037=DIRECTION('ref_axis',(-0.5,0.,0.866025403784439));
#1038=DIRECTION('',(0.,-1.,0.));
#1039=DIRECTION('center_axis',(0.5,0.,-0.866025403784439));
#1040=DIRECTION('ref_axis',(0.866025403784439,0.,0.5));
#1041=DIRECTION('',(-0.866025403784439,0.,-0.5));
#1042=DIRECTION('',(0.866025403784439,0.,0.5));
#1043=DIRECTION('',(0.,1.,0.));
#1044=DIRECTION('center_axis',(-0.5,0.,0.866025403784438));
#1045=DIRECTION('ref_axis',(-0.866025403784438,0.,-0.5));
#1046=DIRECTION('',(0.866025403784438,0.,0.5));
#1047=DIRECTION('',(0.,-1.,0.));
#1048=DIRECTION('',(-0.866025403784438,0.,-0.5));
#1049=DIRECTION('center_axis',(-0.17364817766693,0.,-0.984807753012208));
#1050=DIRECTION('ref_axis',(0.984807753012208,0.,-0.17364817766693));
#1051=DIRECTION('',(-0.984807753012208,0.,0.17364817766693));
#1052=DIRECTION('',(0.,-1.,0.));
#1053=DIRECTION('',(0.984807753012208,0.,-0.17364817766693));
#1054=DIRECTION('',(0.,1.,0.));
#1055=DIRECTION('center_axis',(0.,-1.,0.));
#1056=DIRECTION('ref_axis',(0.17364817766693,0.,0.984807753012208));
#1057=DIRECTION('center_axis',(0.,1.,0.));
#1058=DIRECTION('ref_axis',(0.17364817766693,0.,0.984807753012208));
#1059=DIRECTION('',(0.,-1.,0.));
#1060=DIRECTION('center_axis',(0.,-1.,0.));
#1061=DIRECTION('ref_axis',(0.17364817766693,0.,0.984807753012208));
#1062=DIRECTION('center_axis',(0.17364817766693,0.,0.984807753012208));
#1063=DIRECTION('ref_axis',(-0.984807753012208,0.,0.17364817766693));
#1064=DIRECTION('',(0.984807753012208,0.,-0.17364817766693));
#1065=DIRECTION('',(0.,-1.,0.));
#1066=DIRECTION('',(-0.984807753012208,0.,0.17364817766693));
#1067=DIRECTION('center_axis',(0.,-1.,0.));
#1068=DIRECTION('ref_axis',(-0.5,0.,-0.866025403784439));
#1069=DIRECTION('center_axis',(0.,1.,0.));
#1070=DIRECTION('ref_axis',(-0.5,0.,-0.866025403784439));
#1071=DIRECTION('',(0.,-1.,0.));
#1072=DIRECTION('center_axis',(0.,-1.,0.));
#1073=DIRECTION('ref_axis',(-0.5,0.,-0.866025403784439));
#1074=DIRECTION('',(0.,-1.,0.));
#1075=DIRECTION('center_axis',(0.5,0.,0.866025403784439));
#1076=DIRECTION('ref_axis',(-0.866025403784439,0.,0.5));
#1077=DIRECTION('',(0.866025403784439,0.,-0.5));
#1078=DIRECTION('',(-0.866025403784439,0.,0.5));
#1079=DIRECTION('',(0.,1.,0.));
#1080=DIRECTION('center_axis',(-0.5,0.,-0.866025403784439));
#1081=DIRECTION('ref_axis',(0.866025403784439,0.,-0.5));
#1082=DIRECTION('',(-0.866025403784439,0.,0.5));
#1083=DIRECTION('',(0.,-1.,0.));
#1084=DIRECTION('',(0.866025403784439,0.,-0.5));
#1085=DIRECTION('center_axis',(0.,-1.,0.));
#1086=DIRECTION('ref_axis',(0.766044443118978,0.,-0.642787609686539));
#1087=DIRECTION('center_axis',(0.,1.,0.));
#1088=DIRECTION('ref_axis',(0.766044443118978,0.,-0.642787609686539));
#1089=DIRECTION('',(0.,-1.,0.));
#1090=DIRECTION('center_axis',(0.,-1.,0.));
#1091=DIRECTION('ref_axis',(0.766044443118978,0.,-0.642787609686539));
#1092=DIRECTION('',(0.,-1.,0.));
#1093=DIRECTION('center_axis',(-0.766044443118978,0.,0.642787609686539));
#1094=DIRECTION('ref_axis',(-0.642787609686539,0.,-0.766044443118978));
#1095=DIRECTION('',(0.642787609686539,0.,0.766044443118978));
#1096=DIRECTION('',(-0.642787609686539,0.,-0.766044443118978));
#1097=DIRECTION('',(0.,1.,0.));
#1098=DIRECTION('center_axis',(0.766044443118978,0.,-0.642787609686539));
#1099=DIRECTION('ref_axis',(0.642787609686539,0.,0.766044443118978));
#1100=DIRECTION('',(-0.642787609686539,0.,-0.766044443118978));
#1101=DIRECTION('',(0.,-1.,0.));
#1102=DIRECTION('',(0.642787609686539,0.,0.766044443118978));
#1103=DIRECTION('center_axis',(0.,-1.,0.));
#1104=DIRECTION('ref_axis',(-0.939692620785908,0.,0.342020143325669));
#1105=DIRECTION('center_axis',(0.,1.,0.));
#1106=DIRECTION('ref_axis',(-0.939692620785908,0.,0.342020143325669));
#1107=DIRECTION('',(0.,-1.,0.));
#1108=DIRECTION('center_axis',(0.,-1.,0.));
#1109=DIRECTION('ref_axis',(-0.939692620785908,0.,0.342020143325669));
#1110=DIRECTION('',(0.,-1.,0.));
#1111=DIRECTION('center_axis',(0.939692620785908,0.,-0.342020143325669));
#1112=DIRECTION('ref_axis',(0.342020143325669,0.,0.939692620785908));
#1113=DIRECTION('',(-0.342020143325669,0.,-0.939692620785908));
#1114=DIRECTION('',(0.342020143325669,0.,0.939692620785908));
#1115=DIRECTION('',(0.,1.,0.));
#1116=DIRECTION('center_axis',(-0.939692620785908,0.,0.342020143325669));
#1117=DIRECTION('ref_axis',(-0.342020143325669,0.,-0.939692620785908));
#1118=DIRECTION('',(0.342020143325669,0.,0.939692620785908));
#1119=DIRECTION('',(0.,-1.,0.));
#1120=DIRECTION('',(-0.342020143325669,0.,-0.939692620785908));
#1121=DIRECTION('center_axis',(0.,-1.,0.));
#1122=DIRECTION('ref_axis',(0.766044443118978,0.,0.642787609686539));
#1123=DIRECTION('center_axis',(0.,1.,0.));
#1124=DIRECTION('ref_axis',(0.766044443118978,0.,0.642787609686539));
#1125=DIRECTION('',(0.,-1.,0.));
#1126=DIRECTION('center_axis',(0.,-1.,0.));
#1127=DIRECTION('ref_axis',(0.766044443118978,0.,0.642787609686539));
#1128=DIRECTION('',(0.,-1.,0.));
#1129=DIRECTION('center_axis',(-0.766044443118978,0.,-0.64278760968654));
#1130=DIRECTION('ref_axis',(0.64278760968654,0.,-0.766044443118978));
#1131=DIRECTION('',(-0.64278760968654,0.,0.766044443118978));
#1132=DIRECTION('',(0.64278760968654,0.,-0.766044443118978));
#1133=DIRECTION('',(0.,1.,0.));
#1134=DIRECTION('center_axis',(0.766044443118978,0.,0.642787609686539));
#1135=DIRECTION('ref_axis',(-0.642787609686539,0.,0.766044443118978));
#1136=DIRECTION('',(0.642787609686539,0.,-0.766044443118978));
#1137=DIRECTION('',(0.,-1.,0.));
#1138=DIRECTION('',(-0.642787609686539,0.,0.766044443118978));
#1139=DIRECTION('center_axis',(0.,-1.,0.));
#1140=DIRECTION('ref_axis',(-0.939692620785908,0.,-0.342020143325669));
#1141=DIRECTION('center_axis',(0.,1.,0.));
#1142=DIRECTION('ref_axis',(-0.939692620785908,0.,-0.342020143325669));
#1143=DIRECTION('',(0.,-1.,0.));
#1144=DIRECTION('center_axis',(0.,-1.,0.));
#1145=DIRECTION('ref_axis',(-0.939692620785908,0.,-0.342020143325669));
#1146=DIRECTION('',(0.,-1.,0.));
#1147=DIRECTION('center_axis',(0.939692620785908,0.,0.342020143325669));
#1148=DIRECTION('ref_axis',(-0.342020143325669,0.,0.939692620785908));
#1149=DIRECTION('',(0.342020143325669,0.,-0.939692620785908));
#1150=DIRECTION('',(-0.342020143325669,0.,0.939692620785908));
#1151=DIRECTION('',(0.,1.,0.));
#1152=DIRECTION('center_axis',(-0.939692620785908,0.,-0.342020143325669));
#1153=DIRECTION('ref_axis',(0.342020143325669,0.,-0.939692620785908));
#1154=DIRECTION('',(-0.342020143325669,0.,0.939692620785908));
#1155=DIRECTION('',(0.,-1.,0.));
#1156=DIRECTION('',(0.342020143325669,0.,-0.939692620785908));
#1157=DIRECTION('center_axis',(0.,-1.,0.));
#1158=DIRECTION('ref_axis',(1.,0.,0.));
#1159=DIRECTION('center_axis',(0.,1.,0.));
#1160=DIRECTION('ref_axis',(1.,0.,0.));
#1161=DIRECTION('',(0.,-1.,0.));
#1162=DIRECTION('center_axis',(0.,-1.,0.));
#1163=DIRECTION('ref_axis',(1.,0.,0.));
#1164=DIRECTION('',(0.,-1.,0.));
#1165=DIRECTION('center_axis',(-1.,0.,0.));
#1166=DIRECTION('ref_axis',(0.,0.,-1.));
#1167=DIRECTION('',(0.,0.,1.));
#1168=DIRECTION('',(0.,0.,-1.));
#1169=DIRECTION('',(0.,1.,0.));
#1170=DIRECTION('center_axis',(1.,0.,0.));
#1171=DIRECTION('ref_axis',(0.,0.,1.));
#1172=DIRECTION('',(0.,0.,-1.));
#1173=DIRECTION('',(0.,-1.,0.));
#1174=DIRECTION('',(0.,0.,1.));
#1175=DIRECTION('center_axis',(0.,1.,0.));
#1176=DIRECTION('ref_axis',(1.,0.,0.));
#1177=DIRECTION('center_axis',(0.,1.,0.));
#1178=DIRECTION('ref_axis',(0.707106781186547,0.,-0.707106781186547));
#1179=DIRECTION('',(0.,0.,1.));
#1180=DIRECTION('center_axis',(0.,1.,0.));
#1181=DIRECTION('ref_axis',(0.707106781186547,0.,0.707106781186547));
#1182=DIRECTION('',(-1.,0.,0.));
#1183=DIRECTION('center_axis',(0.,1.,0.));
#1184=DIRECTION('ref_axis',(-0.707106781186547,0.,0.707106781186547));
#1185=DIRECTION('',(0.,0.,-1.));
#1186=DIRECTION('center_axis',(0.,1.,0.));
#1187=DIRECTION('ref_axis',(-0.707106781186547,0.,-0.707106781186547));
#1188=DIRECTION('',(1.,0.,0.));
#1189=DIRECTION('center_axis',(0.,1.,0.));
#1190=DIRECTION('ref_axis',(-1.,0.,0.));
#1191=DIRECTION('center_axis',(0.,1.,0.));
#1192=DIRECTION('ref_axis',(-1.,0.,0.));
#1193=DIRECTION('center_axis',(0.,1.,0.));
#1194=DIRECTION('ref_axis',(-1.,0.,0.));
#1195=DIRECTION('center_axis',(0.,1.,0.));
#1196=DIRECTION('ref_axis',(-1.,0.,0.));
#1197=DIRECTION('center_axis',(0.,1.,0.));
#1198=DIRECTION('ref_axis',(-1.,0.,0.));
#1199=DIRECTION('center_axis',(0.,1.,0.));
#1200=DIRECTION('ref_axis',(-1.,0.,0.));
#1201=DIRECTION('center_axis',(0.,1.,0.));
#1202=DIRECTION('ref_axis',(-1.,0.,0.));
#1203=DIRECTION('center_axis',(0.,1.,0.));
#1204=DIRECTION('ref_axis',(-1.,0.,0.));
#1205=DIRECTION('center_axis',(0.,1.,0.));
#1206=DIRECTION('ref_axis',(-1.,0.,0.));
#1207=DIRECTION('center_axis',(0.,-1.,0.));
#1208=DIRECTION('ref_axis',(-1.,0.,0.));
#1209=DIRECTION('center_axis',(0.,-1.,0.));
#1210=DIRECTION('ref_axis',(-1.,0.,0.));
#1211=DIRECTION('center_axis',(0.,-1.,0.));
#1212=DIRECTION('ref_axis',(-1.,0.,0.));
#1213=DIRECTION('center_axis',(0.,-1.,0.));
#1214=DIRECTION('ref_axis',(-1.,0.,0.));
#1215=DIRECTION('center_axis',(0.,-1.,0.));
#1216=DIRECTION('ref_axis',(-1.,0.,0.));
#1217=DIRECTION('center_axis',(0.,-1.,0.));
#1218=DIRECTION('ref_axis',(-1.,0.,0.));
#1219=DIRECTION('center_axis',(0.,-1.,0.));
#1220=DIRECTION('ref_axis',(-1.,0.,0.));
#1221=DIRECTION('center_axis',(0.,-1.,0.));
#1222=DIRECTION('ref_axis',(-1.,0.,0.));
#1223=DIRECTION('center_axis',(0.,-1.,0.));
#1224=DIRECTION('ref_axis',(-1.,0.,0.));
#1225=DIRECTION('center_axis',(0.,-1.,0.));
#1226=DIRECTION('ref_axis',(-1.,0.,0.));
#1227=DIRECTION('center_axis',(0.,-1.,0.));
#1228=DIRECTION('ref_axis',(-1.,0.,0.));
#1229=DIRECTION('center_axis',(0.,-1.,0.));
#1230=DIRECTION('ref_axis',(-1.,0.,0.));
#1231=DIRECTION('center_axis',(0.,-1.,0.));
#1232=DIRECTION('ref_axis',(-1.,0.,0.));
#1233=DIRECTION('center_axis',(0.,-1.,0.));
#1234=DIRECTION('ref_axis',(-1.,0.,0.));
#1235=DIRECTION('center_axis',(0.,-1.,0.));
#1236=DIRECTION('ref_axis',(-1.,0.,0.));
#1237=DIRECTION('center_axis',(0.,-1.,0.));
#1238=DIRECTION('ref_axis',(-1.,0.,0.));
#1239=DIRECTION('center_axis',(0.,-1.,0.));
#1240=DIRECTION('ref_axis',(-1.,0.,0.));
#1241=DIRECTION('center_axis',(0.,-1.,0.));
#1242=DIRECTION('ref_axis',(-1.,0.,0.));
#1243=DIRECTION('center_axis',(0.,1.,0.));
#1244=DIRECTION('ref_axis',(0.707106781186547,0.,-0.707106781186547));
#1245=DIRECTION('center_axis',(0.,-1.,0.));
#1246=DIRECTION('ref_axis',(0.707106781186547,0.,-0.707106781186547));
#1247=DIRECTION('',(0.,-1.,0.));
#1248=DIRECTION('',(0.,1.,0.));
#1249=DIRECTION('center_axis',(0.,0.,-1.));
#1250=DIRECTION('ref_axis',(-1.,0.,0.));
#1251=DIRECTION('',(0.,-1.,0.));
#1252=DIRECTION('',(-1.,0.,0.));
#1253=DIRECTION('center_axis',(0.,1.,0.));
#1254=DIRECTION('ref_axis',(-0.707106781186547,0.,-0.707106781186547));
#1255=DIRECTION('center_axis',(0.,-1.,0.));
#1256=DIRECTION('ref_axis',(-0.707106781186547,0.,-0.707106781186547));
#1257=DIRECTION('',(0.,1.,0.));
#1258=DIRECTION('center_axis',(-1.,0.,0.));
#1259=DIRECTION('ref_axis',(0.,0.,1.));
#1260=DIRECTION('',(0.,-1.,0.));
#1261=DIRECTION('',(0.,0.,1.));
#1262=DIRECTION('center_axis',(0.,1.,0.));
#1263=DIRECTION('ref_axis',(-0.707106781186547,0.,0.707106781186547));
#1264=DIRECTION('center_axis',(0.,-1.,0.));
#1265=DIRECTION('ref_axis',(-0.707106781186547,0.,0.707106781186547));
#1266=DIRECTION('',(0.,1.,0.));
#1267=DIRECTION('center_axis',(0.,0.,1.));
#1268=DIRECTION('ref_axis',(1.,0.,0.));
#1269=DIRECTION('',(0.,-1.,0.));
#1270=DIRECTION('',(1.,0.,0.));
#1271=DIRECTION('center_axis',(0.,1.,0.));
#1272=DIRECTION('ref_axis',(0.707106781186547,0.,0.707106781186547));
#1273=DIRECTION('center_axis',(0.,-1.,0.));
#1274=DIRECTION('ref_axis',(0.707106781186547,0.,0.707106781186547));
#1275=DIRECTION('',(0.,1.,0.));
#1276=DIRECTION('center_axis',(1.,0.,0.));
#1277=DIRECTION('ref_axis',(0.,0.,-1.));
#1278=DIRECTION('',(0.,0.,-1.));
#1279=DIRECTION('center_axis',(0.,1.,0.));
#1280=DIRECTION('ref_axis',(0.,0.,1.));
#1281=CARTESIAN_POINT('',(0.,0.,0.));
#1282=CARTESIAN_POINT('Origin',(-14.7721165153048,35.,-2.60472270381735));
#1283=CARTESIAN_POINT('',(-14.4248201547958,0.,-4.57433823919132));
#1284=CARTESIAN_POINT('',(-15.1194128758138,0.,-0.635107168443376));
#1285=CARTESIAN_POINT('Origin',(-14.7721165153048,0.,-2.60472270381735));
#1286=CARTESIAN_POINT('',(-14.4248201547958,35.,-4.57433823919132));
#1287=CARTESIAN_POINT('',(-14.4248201547958,35.,-4.57433823919132));
#1288=CARTESIAN_POINT('',(-15.1194128758138,35.,-0.635107168443376));
#1289=CARTESIAN_POINT('Origin',(-14.7721165153048,35.,-2.60472270381735));
#1290=CARTESIAN_POINT('',(-15.1194128758138,35.,-0.635107168443376));
#1291=CARTESIAN_POINT('Origin',(-9.99640231298504,35.,0.268217816237791));
#1292=CARTESIAN_POINT('',(-9.99640231298504,0.,0.268217816237792));
#1293=CARTESIAN_POINT('',(-5.17184933674701,0.,1.11891667580588));
#1294=CARTESIAN_POINT('',(-9.99640231298504,35.,0.268217816237791));
#1295=CARTESIAN_POINT('',(-5.17184933674701,35.,1.11891667580588));
#1296=CARTESIAN_POINT('',(-9.99640231298504,35.,0.268217816237792));
#1297=CARTESIAN_POINT('Origin',(-14.4248201547958,35.,-4.57433823919132));
#1298=CARTESIAN_POINT('',(-9.30180959196708,0.,-3.67101325451016));
#1299=CARTESIAN_POINT('',(-7.03876189714342,0.,-3.27197688728265));
#1300=CARTESIAN_POINT('',(-9.30180959196708,35.,-3.67101325451016));
#1301=CARTESIAN_POINT('',(-9.30180959196708,35.,-3.67101325451016));
#1302=CARTESIAN_POINT('',(-7.03876189714342,35.,-3.27197688728265));
#1303=CARTESIAN_POINT('Origin',(12.9903812503383,35.,7.50000011175871));
#1304=CARTESIAN_POINT('',(11.9903812354372,0.,9.23205094513716));
#1305=CARTESIAN_POINT('',(13.9903812652395,0.,5.76794927838027));
#1306=CARTESIAN_POINT('Origin',(12.9903812503383,0.,7.50000011175871));
#1307=CARTESIAN_POINT('',(11.9903812354372,35.,9.23205094513716));
#1308=CARTESIAN_POINT('',(11.9903812354372,35.,9.23205094513716));
#1309=CARTESIAN_POINT('',(13.9903812652395,35.,5.76794927838027));
#1310=CARTESIAN_POINT('Origin',(12.9903812503383,35.,7.50000011175871));
#1311=CARTESIAN_POINT('',(13.9903812652395,35.,5.76794927838027));
#1312=CARTESIAN_POINT('Origin',(9.48528138387137,35.,3.16692864914623));
#1313=CARTESIAN_POINT('',(9.48528138387138,0.,3.16692864914623));
#1314=CARTESIAN_POINT('',(5.24264069938627,-4.44089209850063E-15,0.717438907883891));
#1315=CARTESIAN_POINT('',(9.48528138387137,35.,3.16692864914623));
#1316=CARTESIAN_POINT('',(5.24264069938627,35.,0.717438907883891));
#1317=CARTESIAN_POINT('',(9.48528138387138,35.,3.16692864914623));
#1318=CARTESIAN_POINT('Origin',(11.9903812354372,35.,9.23205094513716));
#1319=CARTESIAN_POINT('',(7.48528135406905,0.,6.63103031590312));
#1320=CARTESIAN_POINT('',(5.49519061026801,0.,5.4820508892578));
#1321=CARTESIAN_POINT('',(7.48528135406905,35.,6.63103031590312));
#1322=CARTESIAN_POINT('',(7.48528135406905,35.,6.63103031590312));
#1323=CARTESIAN_POINT('',(5.49519061026801,35.,5.4820508892578));
#1324=CARTESIAN_POINT('Origin',(9.30180959196708,35.,-3.67101325451015));
#1325=CARTESIAN_POINT('',(14.4248201547958,0.,-4.57433823919132));
#1326=CARTESIAN_POINT('',(9.30180959196708,0.,-3.67101325451015));
#1327=CARTESIAN_POINT('',(4.47725661572905,0.,-2.82031439494206));
#1328=CARTESIAN_POINT('',(14.4248201547958,35.,-4.57433823919132));
#1329=CARTESIAN_POINT('',(14.4248201547958,35.,-4.57433823919132));
#1330=CARTESIAN_POINT('',(9.30180959196708,35.,-3.67101325451015));
#1331=CARTESIAN_POINT('',(4.47725661572905,35.,-2.82031439494206));
#1332=CARTESIAN_POINT('',(9.30180959196708,35.,-3.67101325451015));
#1333=CARTESIAN_POINT('Origin',(14.7721165153048,35.,-2.60472270381734));
#1334=CARTESIAN_POINT('',(15.1194128758138,0.,-0.635107168443368));
#1335=CARTESIAN_POINT('Origin',(14.7721165153048,0.,-2.60472270381734));
#1336=CARTESIAN_POINT('',(15.1194128758138,35.,-0.635107168443368));
#1337=CARTESIAN_POINT('',(15.1194128758138,35.,-0.635107168443368));
#1338=CARTESIAN_POINT('Origin',(14.7721165153048,35.,-2.60472270381734));
#1339=CARTESIAN_POINT('Origin',(15.1194128758138,35.,-0.635107168443368));
#1340=CARTESIAN_POINT('',(9.99640231298504,0.,0.268217816237797));
#1341=CARTESIAN_POINT('',(7.73335461816138,0.,0.667254183465304));
#1342=CARTESIAN_POINT('',(9.99640231298504,35.,0.268217816237797));
#1343=CARTESIAN_POINT('',(9.99640231298504,35.,0.268217816237797));
#1344=CARTESIAN_POINT('',(7.73335461816138,35.,0.667254183465304));
#1345=CARTESIAN_POINT('Origin',(-12.9903812503383,35.,7.50000011175871));
#1346=CARTESIAN_POINT('',(-13.9903812652395,0.,5.76794927838026));
#1347=CARTESIAN_POINT('',(-11.9903812354372,0.,9.23205094513715));
#1348=CARTESIAN_POINT('Origin',(-12.9903812503383,0.,7.50000011175871));
#1349=CARTESIAN_POINT('',(-13.9903812652395,35.,5.76794927838026));
#1350=CARTESIAN_POINT('',(-13.9903812652395,35.,5.76794927838026));
#1351=CARTESIAN_POINT('',(-11.9903812354372,35.,9.23205094513715));
#1352=CARTESIAN_POINT('Origin',(-12.9903812503383,35.,7.50000011175871));
#1353=CARTESIAN_POINT('',(-11.9903812354372,35.,9.23205094513715));
#1354=CARTESIAN_POINT('Origin',(-7.48528135406906,35.,6.63103031590311));
#1355=CARTESIAN_POINT('',(-7.48528135406906,0.,6.63103031590311));
#1356=CARTESIAN_POINT('',(-3.24264066958395,0.,4.18154057464078));
#1357=CARTESIAN_POINT('',(-7.48528135406906,35.,6.63103031590311));
#1358=CARTESIAN_POINT('',(-3.24264066958395,35.,4.18154057464078));
#1359=CARTESIAN_POINT('',(-7.48528135406906,35.,6.63103031590311));
#1360=CARTESIAN_POINT('Origin',(-13.9903812652395,35.,5.76794927838026));
#1361=CARTESIAN_POINT('',(-9.48528138387138,0.,3.16692864914622));
#1362=CARTESIAN_POINT('',(-7.49519064007033,0.,2.01794922250091));
#1363=CARTESIAN_POINT('',(-9.48528138387138,35.,3.16692864914622));
#1364=CARTESIAN_POINT('',(-9.48528138387138,35.,3.16692864914622));
#1365=CARTESIAN_POINT('',(-7.49519064007033,35.,2.01794922250091));
#1366=CARTESIAN_POINT('Origin',(-9.64181428897232,35.,-11.4906668180089));
#1367=CARTESIAN_POINT('',(-8.10972537990446,0.,-12.7762420565386));
#1368=CARTESIAN_POINT('',(-11.1739031980402,0.,-10.2050915794793));
#1369=CARTESIAN_POINT('Origin',(-9.64181428897232,0.,-11.4906668180089));
#1370=CARTESIAN_POINT('',(-8.10972537990446,35.,-12.7762420565386));
#1371=CARTESIAN_POINT('',(-8.10972537990446,35.,-12.7762420565386));
#1372=CARTESIAN_POINT('',(-11.1739031980402,35.,-10.2050915794793));
#1373=CARTESIAN_POINT('Origin',(-9.64181428897232,35.,-11.4906668180089));
#1374=CARTESIAN_POINT('',(-11.1739031980402,35.,-10.2050915794793));
#1375=CARTESIAN_POINT('Origin',(-7.83009553201872,35.,-6.22009678055418));
#1376=CARTESIAN_POINT('',(-7.83009553201872,0.,-6.22009678055418));
#1377=CARTESIAN_POINT('',(-4.68109222054329,0.,-2.46726077101227));
#1378=CARTESIAN_POINT('',(-7.83009553201872,35.,-6.22009678055418));
#1379=CARTESIAN_POINT('',(-4.68109222054329,35.,-2.46726077101227));
#1380=CARTESIAN_POINT('',(-7.83009553201872,35.,-6.22009678055418));
#1381=CARTESIAN_POINT('Origin',(-8.10972537990446,35.,-12.7762420565386));
#1382=CARTESIAN_POINT('',(-4.765917713883,0.,-8.79124725761346));
#1383=CARTESIAN_POINT('',(-3.2888182354183,0.,-7.03090864753412));
#1384=CARTESIAN_POINT('',(-4.765917713883,35.,-8.79124725761346));
#1385=CARTESIAN_POINT('',(-4.765917713883,35.,-8.79124725761346));
#1386=CARTESIAN_POINT('',(-3.2888182354183,35.,-7.03090864753412));
#1387=CARTESIAN_POINT('Origin',(5.13030222633249,35.,14.0953895218263));
#1388=CARTESIAN_POINT('',(3.25091695675565,0.,14.7794298186706));
#1389=CARTESIAN_POINT('',(7.00968749590933,0.,13.411349224982));
#1390=CARTESIAN_POINT('Origin',(5.13030222633249,0.,14.0953895218263));
#1391=CARTESIAN_POINT('',(3.25091695675565,35.,14.7794298186706));
#1392=CARTESIAN_POINT('',(3.25091695675565,35.,14.7794298186706));
#1393=CARTESIAN_POINT('',(7.00968749590933,35.,13.411349224982));
#1394=CARTESIAN_POINT('Origin',(5.13030222633249,35.,14.0953895218263));
#1395=CARTESIAN_POINT('',(7.00968749590933,35.,13.411349224982));
#1396=CARTESIAN_POINT('Origin',(5.23048459910203,35.,8.52302944137567));
#1397=CARTESIAN_POINT('',(5.23048459910203,0.,8.52302944137567));
#1398=CARTESIAN_POINT('',(3.55493493433944,0.,3.91949457226567));
#1399=CARTESIAN_POINT('',(5.23048459910203,35.,8.52302944137567));
#1400=CARTESIAN_POINT('',(3.55493493433944,35.,3.91949457226567));
#1401=CARTESIAN_POINT('',(5.23048459910203,35.,8.52302944137567));
#1402=CARTESIAN_POINT('Origin',(3.25091695675565,35.,14.7794298186706));
#1403=CARTESIAN_POINT('',(1.47171405994836,0.,9.89111003506433));
#1404=CARTESIAN_POINT('',(0.685765843589406,0.,7.73173505775748));
#1405=CARTESIAN_POINT('',(1.47171405994836,35.,9.89111003506433));
#1406=CARTESIAN_POINT('',(1.47171405994836,35.,9.89111003506433));
#1407=CARTESIAN_POINT('',(0.685765843589406,35.,7.73173505775748));
#1408=CARTESIAN_POINT('Origin',(9.64181428897232,35.,-11.4906668180089));
#1409=CARTESIAN_POINT('',(11.1739031980402,0.,-10.2050915794793));
#1410=CARTESIAN_POINT('',(8.10972537990446,0.,-12.7762420565386));
#1411=CARTESIAN_POINT('Origin',(9.64181428897232,0.,-11.4906668180089));
#1412=CARTESIAN_POINT('',(11.1739031980402,35.,-10.2050915794793));
#1413=CARTESIAN_POINT('',(11.1739031980402,35.,-10.2050915794793));
#1414=CARTESIAN_POINT('',(8.10972537990446,35.,-12.7762420565386));
#1415=CARTESIAN_POINT('Origin',(9.64181428897232,35.,-11.4906668180089));
#1416=CARTESIAN_POINT('',(8.10972537990446,35.,-12.7762420565386));
#1417=CARTESIAN_POINT('Origin',(4.76591771388301,35.,-8.79124725761346));
#1418=CARTESIAN_POINT('',(4.76591771388301,0.,-8.79124725761346));
#1419=CARTESIAN_POINT('',(1.61691440240757,0.,-5.03841124807155));
#1420=CARTESIAN_POINT('',(4.76591771388301,35.,-8.79124725761346));
#1421=CARTESIAN_POINT('',(1.61691440240757,35.,-5.03841124807155));
#1422=CARTESIAN_POINT('',(4.76591771388301,35.,-8.79124725761346));
#1423=CARTESIAN_POINT('Origin',(11.1739031980402,35.,-10.2050915794793));
#1424=CARTESIAN_POINT('',(7.83009553201872,0.,-6.22009678055417));
#1425=CARTESIAN_POINT('',(6.35299605355402,0.,-4.45975817047483));
#1426=CARTESIAN_POINT('',(7.83009553201872,35.,-6.22009678055417));
#1427=CARTESIAN_POINT('',(7.83009553201872,35.,-6.22009678055418));
#1428=CARTESIAN_POINT('',(6.35299605355402,35.,-4.45975817047483));
#1429=CARTESIAN_POINT('Origin',(-5.13030222633249,35.,14.0953895218263));
#1430=CARTESIAN_POINT('',(-7.00968749590933,0.,13.411349224982));
#1431=CARTESIAN_POINT('',(-3.25091695675565,0.,14.7794298186706));
#1432=CARTESIAN_POINT('Origin',(-5.13030222633249,0.,14.0953895218263));
#1433=CARTESIAN_POINT('',(-7.00968749590933,35.,13.411349224982));
#1434=CARTESIAN_POINT('',(-7.00968749590933,35.,13.411349224982));
#1435=CARTESIAN_POINT('',(-3.25091695675565,35.,14.7794298186706));
#1436=CARTESIAN_POINT('Origin',(-5.13030222633249,35.,14.0953895218263));
#1437=CARTESIAN_POINT('',(-3.25091695675565,35.,14.7794298186706));
#1438=CARTESIAN_POINT('Origin',(-1.47171405994836,35.,9.89111003506433));
#1439=CARTESIAN_POINT('',(-1.47171405994836,0.,9.89111003506433));
#1440=CARTESIAN_POINT('',(0.20383560481424,2.22044604925031E-15,5.28757516595433));
#1441=CARTESIAN_POINT('',(-1.47171405994836,35.,9.89111003506433));
#1442=CARTESIAN_POINT('',(0.20383560481424,35.,5.28757516595433));
#1443=CARTESIAN_POINT('',(-1.47171405994836,35.,9.89111003506433));
#1444=CARTESIAN_POINT('Origin',(-7.00968749590933,35.,13.411349224982));
#1445=CARTESIAN_POINT('',(-5.23048459910204,0.,8.52302944137567));
#1446=CARTESIAN_POINT('',(-4.44453638274308,2.22044604925031E-15,6.36365446406881));
#1447=CARTESIAN_POINT('',(-5.23048459910204,35.,8.52302944137567));
#1448=CARTESIAN_POINT('',(-5.23048459910204,35.,8.52302944137567));
#1449=CARTESIAN_POINT('',(-4.44453638274308,35.,6.36365446406881));
#1450=CARTESIAN_POINT('Origin',(0.,35.,-15.0000002235174));
#1451=CARTESIAN_POINT('',(2.00000002980232,0.,-15.0000002235174));
#1452=CARTESIAN_POINT('',(-2.00000002980232,0.,-15.0000002235174));
#1453=CARTESIAN_POINT('Origin',(0.,0.,-15.0000002235174));
#1454=CARTESIAN_POINT('',(2.00000002980232,35.,-15.0000002235174));
#1455=CARTESIAN_POINT('',(2.00000002980232,35.,-15.0000002235174));
#1456=CARTESIAN_POINT('',(-2.00000002980232,35.,-15.0000002235174));
#1457=CARTESIAN_POINT('Origin',(0.,35.,-15.0000002235174));
#1458=CARTESIAN_POINT('',(-2.00000002980232,35.,-15.0000002235174));
#1459=CARTESIAN_POINT('Origin',(-2.00000002980232,35.,-9.79795896504934));
#1460=CARTESIAN_POINT('',(-2.00000002980232,0.,-9.79795896504934));
#1461=CARTESIAN_POINT('',(-2.00000002980232,0.,-4.89897948252467));
#1462=CARTESIAN_POINT('',(-2.00000002980232,35.,-9.79795896504934));
#1463=CARTESIAN_POINT('',(-2.00000002980232,35.,-4.89897948252467));
#1464=CARTESIAN_POINT('',(-2.00000002980232,35.,-9.79795896504934));
#1465=CARTESIAN_POINT('Origin',(2.00000002980232,35.,-15.0000002235174));
#1466=CARTESIAN_POINT('',(2.00000002980232,0.,-9.79795896504934));
#1467=CARTESIAN_POINT('',(2.00000002980232,0.,-7.50000011175871));
#1468=CARTESIAN_POINT('',(2.00000002980232,35.,-9.79795896504934));
#1469=CARTESIAN_POINT('',(2.00000002980232,35.,-9.79795896504934));
#1470=CARTESIAN_POINT('',(2.00000002980232,35.,-7.50000011175871));
#1471=CARTESIAN_POINT('Origin',(0.,0.,0.));
#1472=CARTESIAN_POINT('',(25.,0.,-17.5));
#1473=CARTESIAN_POINT('',(17.5,0.,-25.));
#1474=CARTESIAN_POINT('Origin',(17.5,0.,-17.5));
#1475=CARTESIAN_POINT('',(25.,0.,17.5));
#1476=CARTESIAN_POINT('',(25.,0.,-25.));
#1477=CARTESIAN_POINT('',(17.5,0.,25.));
#1478=CARTESIAN_POINT('Origin',(17.5,0.,17.5));
#1479=CARTESIAN_POINT('',(-17.5,0.,25.));
#1480=CARTESIAN_POINT('',(25.,0.,25.));
#1481=CARTESIAN_POINT('',(-25.,0.,17.5));
#1482=CARTESIAN_POINT('Origin',(-17.5,0.,17.5));
#1483=CARTESIAN_POINT('',(-25.,0.,-17.5));
#1484=CARTESIAN_POINT('',(-25.,0.,25.));
#1485=CARTESIAN_POINT('',(-17.5,0.,-25.));
#1486=CARTESIAN_POINT('Origin',(-17.5,0.,-17.5));
#1487=CARTESIAN_POINT('',(-25.,0.,-25.));
#1488=CARTESIAN_POINT('Origin',(0.,0.,0.));
#1489=CARTESIAN_POINT('Origin',(0.,0.,0.));
#1490=CARTESIAN_POINT('Origin',(0.,0.,0.));
#1491=CARTESIAN_POINT('Origin',(0.,0.,0.));
#1492=CARTESIAN_POINT('Origin',(0.,0.,0.));
#1493=CARTESIAN_POINT('Origin',(0.,0.,0.));
#1494=CARTESIAN_POINT('Origin',(0.,0.,0.));
#1495=CARTESIAN_POINT('Origin',(0.,0.,0.));
#1496=CARTESIAN_POINT('Origin',(0.,0.,0.));
#1497=CARTESIAN_POINT('Origin',(0.,35.,0.));
#1498=CARTESIAN_POINT('Origin',(0.,35.,0.));
#1499=CARTESIAN_POINT('Origin',(0.,35.,0.));
#1500=CARTESIAN_POINT('Origin',(0.,35.,0.));
#1501=CARTESIAN_POINT('Origin',(0.,35.,0.));
#1502=CARTESIAN_POINT('Origin',(0.,35.,0.));
#1503=CARTESIAN_POINT('Origin',(0.,35.,0.));
#1504=CARTESIAN_POINT('Origin',(0.,35.,0.));
#1505=CARTESIAN_POINT('Origin',(0.,35.,0.));
#1506=CARTESIAN_POINT('Origin',(0.,35.,0.));
#1507=CARTESIAN_POINT('Origin',(0.,35.,0.));
#1508=CARTESIAN_POINT('Origin',(0.,35.,0.));
#1509=CARTESIAN_POINT('Origin',(0.,35.,0.));
#1510=CARTESIAN_POINT('Origin',(0.,35.,0.));
#1511=CARTESIAN_POINT('Origin',(0.,35.,0.));
#1512=CARTESIAN_POINT('Origin',(0.,35.,0.));
#1513=CARTESIAN_POINT('Origin',(0.,35.,0.));
#1514=CARTESIAN_POINT('Origin',(0.,35.,0.));
#1515=CARTESIAN_POINT('Origin',(17.5,0.,-17.5));
#1516=CARTESIAN_POINT('',(17.5,35.,-25.));
#1517=CARTESIAN_POINT('',(25.,35.,-17.5));
#1518=CARTESIAN_POINT('Origin',(17.5,35.,-17.5));
#1519=CARTESIAN_POINT('',(25.,0.,-17.5));
#1520=CARTESIAN_POINT('',(17.5,0.,-25.));
#1521=CARTESIAN_POINT('Origin',(25.,0.,-25.));
#1522=CARTESIAN_POINT('',(-17.5,35.,-25.));
#1523=CARTESIAN_POINT('',(-17.5,0.,-25.));
#1524=CARTESIAN_POINT('',(-25.,35.,-25.));
#1525=CARTESIAN_POINT('Origin',(-17.5,0.,-17.5));
#1526=CARTESIAN_POINT('',(-25.,35.,-17.5));
#1527=CARTESIAN_POINT('Origin',(-17.5,35.,-17.5));
#1528=CARTESIAN_POINT('',(-25.,0.,-17.5));
#1529=CARTESIAN_POINT('Origin',(-25.,0.,-25.));
#1530=CARTESIAN_POINT('',(-25.,35.,17.5));
#1531=CARTESIAN_POINT('',(-25.,0.,17.5));
#1532=CARTESIAN_POINT('',(-25.,35.,25.));
#1533=CARTESIAN_POINT('Origin',(-17.5,0.,17.5));
#1534=CARTESIAN_POINT('',(-17.5,35.,25.));
#1535=CARTESIAN_POINT('Origin',(-17.5,35.,17.5));
#1536=CARTESIAN_POINT('',(-17.5,0.,25.));
#1537=CARTESIAN_POINT('Origin',(-25.,0.,25.));
#1538=CARTESIAN_POINT('',(17.5,35.,25.));
#1539=CARTESIAN_POINT('',(17.5,0.,25.));
#1540=CARTESIAN_POINT('',(25.,35.,25.));
#1541=CARTESIAN_POINT('Origin',(17.5,0.,17.5));
#1542=CARTESIAN_POINT('',(25.,35.,17.5));
#1543=CARTESIAN_POINT('Origin',(17.5,35.,17.5));
#1544=CARTESIAN_POINT('',(25.,0.,17.5));
#1545=CARTESIAN_POINT('Origin',(25.,0.,25.));
#1546=CARTESIAN_POINT('',(25.,35.,-25.));
#1547=CARTESIAN_POINT('Origin',(0.,35.,0.));
#1548=UNCERTAINTY_MEASURE_WITH_UNIT(LENGTH_MEASURE(0.01),#1552,
'DISTANCE_ACCURACY_VALUE',
'Maximum model space distance between geometric entities at asserted c
onnectivities');
#1549=UNCERTAINTY_MEASURE_WITH_UNIT(LENGTH_MEASURE(0.01),#1552,
'DISTANCE_ACCURACY_VALUE',
'Maximum model space distance between geometric entities at asserted c
onnectivities');
#1550=(
GEOMETRIC_REPRESENTATION_CONTEXT(3)
GLOBAL_UNCERTAINTY_ASSIGNED_CONTEXT((#1548))
GLOBAL_UNIT_ASSIGNED_CONTEXT((#1552,#1554,#1555))
REPRESENTATION_CONTEXT('','3D')
);
#1551=(
GEOMETRIC_REPRESENTATION_CONTEXT(3)
GLOBAL_UNCERTAINTY_ASSIGNED_CONTEXT((#1549))
GLOBAL_UNIT_ASSIGNED_CONTEXT((#1552,#1554,#1555))
REPRESENTATION_CONTEXT('','3D')
);
#1552=(
LENGTH_UNIT()
NAMED_UNIT(*)
SI_UNIT(.MILLI.,.METRE.)
);
#1553=(
LENGTH_UNIT()
NAMED_UNIT(*)
SI_UNIT($,.METRE.)
);
#1554=(
NAMED_UNIT(*)
PLANE_ANGLE_UNIT()
SI_UNIT($,.RADIAN.)
);
#1555=(
NAMED_UNIT(*)
SI_UNIT($,.STERADIAN.)
SOLID_ANGLE_UNIT()
);
#1556=SHAPE_DEFINITION_REPRESENTATION(#1557,#1558);
#1557=PRODUCT_DEFINITION_SHAPE('',$,#1560);
#1558=SHAPE_REPRESENTATION('',(#920),#1550);
#1559=PRODUCT_DEFINITION_CONTEXT('part definition',#1564,'design');
#1560=PRODUCT_DEFINITION('(Unsaved)','(Unsaved)',#1561,#1559);
#1561=PRODUCT_DEFINITION_FORMATION('',$,#1566);
#1562=PRODUCT_RELATED_PRODUCT_CATEGORY('(Unsaved)','(Unsaved)',(#1566));
#1563=APPLICATION_PROTOCOL_DEFINITION('international standard',
'automotive_design',2009,#1564);
#1564=APPLICATION_CONTEXT(
'Core Data for Automotive Mechanical Design Process');
#1565=PRODUCT_CONTEXT('part definition',#1564,'mechanical');
#1566=PRODUCT('(Unsaved)','(Unsaved)',$,(#1565));
#1567=PRESENTATION_STYLE_ASSIGNMENT((#1568));
#1568=SURFACE_STYLE_USAGE(.BOTH.,#1569);
#1569=SURFACE_SIDE_STYLE('',(#1570));
#1570=SURFACE_STYLE_FILL_AREA(#1571);
#1571=FILL_AREA_STYLE('Steel - Satin',(#1572));
#1572=FILL_AREA_STYLE_COLOUR('Steel - Satin',#1573);
#1573=COLOUR_RGB('Steel - Satin',0.627450980392157,0.627450980392157,0.627450980392157);
ENDSEC;
END-ISO-10303-21;
