ISO-10303-21;
HEADER;
/* Generated by software containing ST-Developer
 * from STEP Tools, Inc. (www.steptools.com) 
 */

FILE_DESCRIPTION(
/* description */ (''),
/* implementation_level */ '2;1');

FILE_NAME(
/* name */ 'drilled_006.step',
/* time_stamp */ '2024-11-25T12:08:59+03:00',
/* author */ (''),
/* organization */ (''),
/* preprocessor_version */ 'ST-DEVELOPER v20',
/* originating_system */ 'Autodesk Translation Framework v13.14.0.145',

/* authorisation */ '');

FILE_SCHEMA (('AUTOMOTIVE_DESIGN { 1 0 10303 214 3 1 1 }'));
ENDSEC;

DATA;
#10=MECHANICAL_DESIGN_GEOMETRIC_PRESENTATION_REPRESENTATION('',(#13),#1143);
#11=SHAPE_REPRESENTATION_RELATIONSHIP('SRR','None',#1150,#12);
#12=ADVANCED_BREP_SHAPE_REPRESENTATION('',(#14),#1142);
#13=STYLED_ITEM('',(#1159),#14);
#14=MANIFOLD_SOLID_BREP('Body1',#667);
#15=FACE_BOUND('',#88,.T.);
#16=FACE_BOUND('',#104,.T.);
#17=PLANE('',#684);
#18=PLANE('',#685);
#19=PLANE('',#689);
#20=PLANE('',#690);
#21=PLANE('',#694);
#22=PLANE('',#695);
#23=PLANE('',#699);
#24=PLANE('',#700);
#25=PLANE('',#704);
#26=PLANE('',#705);
#27=PLANE('',#709);
#28=PLANE('',#710);
#29=PLANE('',#711);
#30=PLANE('',#736);
#31=PLANE('',#739);
#32=PLANE('',#742);
#33=PLANE('',#745);
#34=PLANE('',#746);
#35=FACE_OUTER_BOUND('',#69,.T.);
#36=FACE_OUTER_BOUND('',#70,.T.);
#37=FACE_OUTER_BOUND('',#71,.T.);
#38=FACE_OUTER_BOUND('',#72,.T.);
#39=FACE_OUTER_BOUND('',#73,.T.);
#40=FACE_OUTER_BOUND('',#74,.T.);
#41=FACE_OUTER_BOUND('',#75,.T.);
#42=FACE_OUTER_BOUND('',#76,.T.);
#43=FACE_OUTER_BOUND('',#77,.T.);
#44=FACE_OUTER_BOUND('',#78,.T.);
#45=FACE_OUTER_BOUND('',#79,.T.);
#46=FACE_OUTER_BOUND('',#80,.T.);
#47=FACE_OUTER_BOUND('',#81,.T.);
#48=FACE_OUTER_BOUND('',#82,.T.);
#49=FACE_OUTER_BOUND('',#83,.T.);
#50=FACE_OUTER_BOUND('',#84,.T.);
#51=FACE_OUTER_BOUND('',#85,.T.);
#52=FACE_OUTER_BOUND('',#86,.T.);
#53=FACE_OUTER_BOUND('',#87,.T.);
#54=FACE_OUTER_BOUND('',#89,.T.);
#55=FACE_OUTER_BOUND('',#90,.T.);
#56=FACE_OUTER_BOUND('',#91,.T.);
#57=FACE_OUTER_BOUND('',#92,.T.);
#58=FACE_OUTER_BOUND('',#93,.T.);
#59=FACE_OUTER_BOUND('',#94,.T.);
#60=FACE_OUTER_BOUND('',#95,.T.);
#61=FACE_OUTER_BOUND('',#96,.T.);
#62=FACE_OUTER_BOUND('',#97,.T.);
#63=FACE_OUTER_BOUND('',#98,.T.);
#64=FACE_OUTER_BOUND('',#99,.T.);
#65=FACE_OUTER_BOUND('',#100,.T.);
#66=FACE_OUTER_BOUND('',#101,.T.);
#67=FACE_OUTER_BOUND('',#102,.T.);
#68=FACE_OUTER_BOUND('',#103,.T.);
#69=EDGE_LOOP('',(#425,#426,#427,#428));
#70=EDGE_LOOP('',(#429,#430,#431,#432));
#71=EDGE_LOOP('',(#433,#434,#435,#436));
#72=EDGE_LOOP('',(#437,#438,#439,#440));
#73=EDGE_LOOP('',(#441,#442,#443,#444));
#74=EDGE_LOOP('',(#445,#446,#447,#448));
#75=EDGE_LOOP('',(#449,#450,#451,#452));
#76=EDGE_LOOP('',(#453,#454,#455,#456));
#77=EDGE_LOOP('',(#457,#458,#459,#460));
#78=EDGE_LOOP('',(#461,#462,#463,#464));
#79=EDGE_LOOP('',(#465,#466,#467,#468));
#80=EDGE_LOOP('',(#469,#470,#471,#472));
#81=EDGE_LOOP('',(#473,#474,#475,#476));
#82=EDGE_LOOP('',(#477,#478,#479,#480));
#83=EDGE_LOOP('',(#481,#482,#483,#484));
#84=EDGE_LOOP('',(#485,#486,#487,#488));
#85=EDGE_LOOP('',(#489,#490,#491,#492));
#86=EDGE_LOOP('',(#493,#494,#495,#496));
#87=EDGE_LOOP('',(#497,#498,#499,#500,#501,#502,#503,#504));
#88=EDGE_LOOP('',(#505,#506,#507,#508,#509,#510,#511,#512,#513,#514,#515,
#516,#517,#518,#519,#520,#521,#522,#523,#524,#525,#526,#527,#528));
#89=EDGE_LOOP('',(#529,#530,#531,#532));
#90=EDGE_LOOP('',(#533,#534,#535,#536));
#91=EDGE_LOOP('',(#537,#538,#539,#540));
#92=EDGE_LOOP('',(#541,#542,#543,#544));
#93=EDGE_LOOP('',(#545,#546,#547,#548));
#94=EDGE_LOOP('',(#549,#550,#551,#552));
#95=EDGE_LOOP('',(#553,#554,#555,#556));
#96=EDGE_LOOP('',(#557,#558,#559,#560));
#97=EDGE_LOOP('',(#561,#562,#563,#564));
#98=EDGE_LOOP('',(#565,#566,#567,#568));
#99=EDGE_LOOP('',(#569,#570,#571,#572));
#100=EDGE_LOOP('',(#573,#574,#575,#576));
#101=EDGE_LOOP('',(#577,#578,#579,#580));
#102=EDGE_LOOP('',(#581,#582,#583,#584));
#103=EDGE_LOOP('',(#585,#586,#587,#588,#589,#590,#591,#592));
#104=EDGE_LOOP('',(#593,#594,#595,#596,#597,#598,#599,#600,#601,#602,#603,
#604,#605,#606,#607,#608,#609,#610,#611,#612,#613,#614,#615,#616));
#105=LINE('',#951,#169);
#106=LINE('',#954,#170);
#107=LINE('',#957,#171);
#108=LINE('',#959,#172);
#109=LINE('',#960,#173);
#110=LINE('',#963,#174);
#111=LINE('',#965,#175);
#112=LINE('',#966,#176);
#113=LINE('',#972,#177);
#114=LINE('',#975,#178);
#115=LINE('',#978,#179);
#116=LINE('',#980,#180);
#117=LINE('',#981,#181);
#118=LINE('',#984,#182);
#119=LINE('',#986,#183);
#120=LINE('',#987,#184);
#121=LINE('',#993,#185);
#122=LINE('',#996,#186);
#123=LINE('',#999,#187);
#124=LINE('',#1001,#188);
#125=LINE('',#1002,#189);
#126=LINE('',#1005,#190);
#127=LINE('',#1007,#191);
#128=LINE('',#1008,#192);
#129=LINE('',#1014,#193);
#130=LINE('',#1017,#194);
#131=LINE('',#1020,#195);
#132=LINE('',#1022,#196);
#133=LINE('',#1023,#197);
#134=LINE('',#1026,#198);
#135=LINE('',#1028,#199);
#136=LINE('',#1029,#200);
#137=LINE('',#1035,#201);
#138=LINE('',#1038,#202);
#139=LINE('',#1041,#203);
#140=LINE('',#1043,#204);
#141=LINE('',#1044,#205);
#142=LINE('',#1047,#206);
#143=LINE('',#1049,#207);
#144=LINE('',#1050,#208);
#145=LINE('',#1056,#209);
#146=LINE('',#1059,#210);
#147=LINE('',#1062,#211);
#148=LINE('',#1064,#212);
#149=LINE('',#1065,#213);
#150=LINE('',#1068,#214);
#151=LINE('',#1070,#215);
#152=LINE('',#1071,#216);
#153=LINE('',#1077,#217);
#154=LINE('',#1081,#218);
#155=LINE('',#1085,#219);
#156=LINE('',#1088,#220);
#157=LINE('',#1111,#221);
#158=LINE('',#1112,#222);
#159=LINE('',#1115,#223);
#160=LINE('',#1116,#224);
#161=LINE('',#1120,#225);
#162=LINE('',#1123,#226);
#163=LINE('',#1124,#227);
#164=LINE('',#1128,#228);
#165=LINE('',#1131,#229);
#166=LINE('',#1132,#230);
#167=LINE('',#1136,#231);
#168=LINE('',#1138,#232);
#169=VECTOR('',#753,10.);
#170=VECTOR('',#756,10.);
#171=VECTOR('',#759,10.);
#172=VECTOR('',#760,10.);
#173=VECTOR('',#761,10.);
#174=VECTOR('',#764,10.);
#175=VECTOR('',#765,10.);
#176=VECTOR('',#766,10.);
#177=VECTOR('',#771,10.);
#178=VECTOR('',#774,10.);
#179=VECTOR('',#777,10.);
#180=VECTOR('',#778,10.);
#181=VECTOR('',#779,10.);
#182=VECTOR('',#782,10.);
#183=VECTOR('',#783,10.);
#184=VECTOR('',#784,10.);
#185=VECTOR('',#789,10.);
#186=VECTOR('',#792,10.);
#187=VECTOR('',#795,10.);
#188=VECTOR('',#796,10.);
#189=VECTOR('',#797,10.);
#190=VECTOR('',#800,10.);
#191=VECTOR('',#801,10.);
#192=VECTOR('',#802,10.);
#193=VECTOR('',#807,10.);
#194=VECTOR('',#810,10.);
#195=VECTOR('',#813,10.);
#196=VECTOR('',#814,10.);
#197=VECTOR('',#815,10.);
#198=VECTOR('',#818,10.);
#199=VECTOR('',#819,10.);
#200=VECTOR('',#820,10.);
#201=VECTOR('',#825,10.);
#202=VECTOR('',#828,10.);
#203=VECTOR('',#831,10.);
#204=VECTOR('',#832,10.);
#205=VECTOR('',#833,10.);
#206=VECTOR('',#836,10.);
#207=VECTOR('',#837,10.);
#208=VECTOR('',#838,10.);
#209=VECTOR('',#843,10.);
#210=VECTOR('',#846,10.);
#211=VECTOR('',#849,10.);
#212=VECTOR('',#850,10.);
#213=VECTOR('',#851,10.);
#214=VECTOR('',#854,10.);
#215=VECTOR('',#855,10.);
#216=VECTOR('',#856,10.);
#217=VECTOR('',#861,10.);
#218=VECTOR('',#864,10.);
#219=VECTOR('',#867,10.);
#220=VECTOR('',#870,10.);
#221=VECTOR('',#911,10.);
#222=VECTOR('',#912,10.);
#223=VECTOR('',#915,10.);
#224=VECTOR('',#916,10.);
#225=VECTOR('',#921,10.);
#226=VECTOR('',#924,10.);
#227=VECTOR('',#925,10.);
#228=VECTOR('',#930,10.);
#229=VECTOR('',#933,10.);
#230=VECTOR('',#934,10.);
#231=VECTOR('',#939,10.);
#232=VECTOR('',#942,10.);
#233=CIRCLE('',#682,2.00000002980232);
#234=CIRCLE('',#683,2.00000002980232);
#235=CIRCLE('',#687,2.00000002980232);
#236=CIRCLE('',#688,2.00000002980232);
#237=CIRCLE('',#692,1.00000001490116);
#238=CIRCLE('',#693,1.00000001490116);
#239=CIRCLE('',#697,1.00000001490116);
#240=CIRCLE('',#698,1.00000001490116);
#241=CIRCLE('',#702,2.00000002980232);
#242=CIRCLE('',#703,2.00000002980232);
#243=CIRCLE('',#707,1.00000001490116);
#244=CIRCLE('',#708,1.00000001490116);
#245=CIRCLE('',#712,7.5);
#246=CIRCLE('',#713,7.5);
#247=CIRCLE('',#714,7.5);
#248=CIRCLE('',#715,7.5);
#249=CIRCLE('',#716,10.);
#250=CIRCLE('',#717,10.);
#251=CIRCLE('',#718,10.);
#252=CIRCLE('',#719,10.);
#253=CIRCLE('',#720,10.);
#254=CIRCLE('',#721,10.);
#255=CIRCLE('',#723,10.);
#256=CIRCLE('',#725,10.);
#257=CIRCLE('',#727,10.);
#258=CIRCLE('',#729,10.);
#259=CIRCLE('',#731,10.);
#260=CIRCLE('',#733,10.);
#261=CIRCLE('',#735,7.5);
#262=CIRCLE('',#738,7.5);
#263=CIRCLE('',#741,7.5);
#264=CIRCLE('',#744,7.5);
#265=VERTEX_POINT('',#947);
#266=VERTEX_POINT('',#948);
#267=VERTEX_POINT('',#950);
#268=VERTEX_POINT('',#952);
#269=VERTEX_POINT('',#956);
#270=VERTEX_POINT('',#958);
#271=VERTEX_POINT('',#962);
#272=VERTEX_POINT('',#964);
#273=VERTEX_POINT('',#968);
#274=VERTEX_POINT('',#969);
#275=VERTEX_POINT('',#971);
#276=VERTEX_POINT('',#973);
#277=VERTEX_POINT('',#977);
#278=VERTEX_POINT('',#979);
#279=VERTEX_POINT('',#983);
#280=VERTEX_POINT('',#985);
#281=VERTEX_POINT('',#989);
#282=VERTEX_POINT('',#990);
#283=VERTEX_POINT('',#992);
#284=VERTEX_POINT('',#994);
#285=VERTEX_POINT('',#998);
#286=VERTEX_POINT('',#1000);
#287=VERTEX_POINT('',#1004);
#288=VERTEX_POINT('',#1006);
#289=VERTEX_POINT('',#1010);
#290=VERTEX_POINT('',#1011);
#291=VERTEX_POINT('',#1013);
#292=VERTEX_POINT('',#1015);
#293=VERTEX_POINT('',#1019);
#294=VERTEX_POINT('',#1021);
#295=VERTEX_POINT('',#1025);
#296=VERTEX_POINT('',#1027);
#297=VERTEX_POINT('',#1031);
#298=VERTEX_POINT('',#1032);
#299=VERTEX_POINT('',#1034);
#300=VERTEX_POINT('',#1036);
#301=VERTEX_POINT('',#1040);
#302=VERTEX_POINT('',#1042);
#303=VERTEX_POINT('',#1046);
#304=VERTEX_POINT('',#1048);
#305=VERTEX_POINT('',#1052);
#306=VERTEX_POINT('',#1053);
#307=VERTEX_POINT('',#1055);
#308=VERTEX_POINT('',#1057);
#309=VERTEX_POINT('',#1061);
#310=VERTEX_POINT('',#1063);
#311=VERTEX_POINT('',#1067);
#312=VERTEX_POINT('',#1069);
#313=VERTEX_POINT('',#1073);
#314=VERTEX_POINT('',#1074);
#315=VERTEX_POINT('',#1076);
#316=VERTEX_POINT('',#1078);
#317=VERTEX_POINT('',#1080);
#318=VERTEX_POINT('',#1082);
#319=VERTEX_POINT('',#1084);
#320=VERTEX_POINT('',#1086);
#321=VERTEX_POINT('',#1108);
#322=VERTEX_POINT('',#1109);
#323=VERTEX_POINT('',#1114);
#324=VERTEX_POINT('',#1118);
#325=VERTEX_POINT('',#1122);
#326=VERTEX_POINT('',#1126);
#327=VERTEX_POINT('',#1130);
#328=VERTEX_POINT('',#1134);
#329=EDGE_CURVE('',#265,#266,#233,.T.);
#330=EDGE_CURVE('',#267,#265,#105,.T.);
#331=EDGE_CURVE('',#268,#267,#234,.T.);
#332=EDGE_CURVE('',#268,#266,#106,.T.);
#333=EDGE_CURVE('',#266,#269,#107,.T.);
#334=EDGE_CURVE('',#270,#268,#108,.T.);
#335=EDGE_CURVE('',#269,#270,#109,.T.);
#336=EDGE_CURVE('',#271,#265,#110,.T.);
#337=EDGE_CURVE('',#272,#271,#111,.T.);
#338=EDGE_CURVE('',#267,#272,#112,.T.);
#339=EDGE_CURVE('',#273,#274,#235,.T.);
#340=EDGE_CURVE('',#275,#273,#113,.T.);
#341=EDGE_CURVE('',#276,#275,#236,.T.);
#342=EDGE_CURVE('',#276,#274,#114,.T.);
#343=EDGE_CURVE('',#274,#277,#115,.T.);
#344=EDGE_CURVE('',#278,#276,#116,.T.);
#345=EDGE_CURVE('',#277,#278,#117,.T.);
#346=EDGE_CURVE('',#279,#273,#118,.T.);
#347=EDGE_CURVE('',#280,#279,#119,.T.);
#348=EDGE_CURVE('',#275,#280,#120,.T.);
#349=EDGE_CURVE('',#281,#282,#237,.T.);
#350=EDGE_CURVE('',#283,#281,#121,.T.);
#351=EDGE_CURVE('',#284,#283,#238,.T.);
#352=EDGE_CURVE('',#284,#282,#122,.T.);
#353=EDGE_CURVE('',#282,#285,#123,.T.);
#354=EDGE_CURVE('',#286,#284,#124,.T.);
#355=EDGE_CURVE('',#285,#286,#125,.T.);
#356=EDGE_CURVE('',#287,#281,#126,.T.);
#357=EDGE_CURVE('',#288,#287,#127,.T.);
#358=EDGE_CURVE('',#283,#288,#128,.T.);
#359=EDGE_CURVE('',#289,#290,#239,.T.);
#360=EDGE_CURVE('',#291,#289,#129,.T.);
#361=EDGE_CURVE('',#292,#291,#240,.T.);
#362=EDGE_CURVE('',#292,#290,#130,.T.);
#363=EDGE_CURVE('',#290,#293,#131,.T.);
#364=EDGE_CURVE('',#294,#292,#132,.T.);
#365=EDGE_CURVE('',#293,#294,#133,.T.);
#366=EDGE_CURVE('',#295,#289,#134,.T.);
#367=EDGE_CURVE('',#296,#295,#135,.T.);
#368=EDGE_CURVE('',#291,#296,#136,.T.);
#369=EDGE_CURVE('',#297,#298,#241,.T.);
#370=EDGE_CURVE('',#299,#297,#137,.T.);
#371=EDGE_CURVE('',#300,#299,#242,.T.);
#372=EDGE_CURVE('',#300,#298,#138,.T.);
#373=EDGE_CURVE('',#298,#301,#139,.T.);
#374=EDGE_CURVE('',#302,#300,#140,.T.);
#375=EDGE_CURVE('',#301,#302,#141,.T.);
#376=EDGE_CURVE('',#303,#297,#142,.T.);
#377=EDGE_CURVE('',#304,#303,#143,.T.);
#378=EDGE_CURVE('',#299,#304,#144,.T.);
#379=EDGE_CURVE('',#305,#306,#243,.T.);
#380=EDGE_CURVE('',#307,#305,#145,.T.);
#381=EDGE_CURVE('',#308,#307,#244,.T.);
#382=EDGE_CURVE('',#308,#306,#146,.T.);
#383=EDGE_CURVE('',#306,#309,#147,.T.);
#384=EDGE_CURVE('',#310,#308,#148,.T.);
#385=EDGE_CURVE('',#309,#310,#149,.T.);
#386=EDGE_CURVE('',#311,#305,#150,.T.);
#387=EDGE_CURVE('',#312,#311,#151,.T.);
#388=EDGE_CURVE('',#307,#312,#152,.T.);
#389=EDGE_CURVE('',#313,#314,#245,.T.);
#390=EDGE_CURVE('',#313,#315,#153,.T.);
#391=EDGE_CURVE('',#316,#315,#246,.T.);
#392=EDGE_CURVE('',#316,#317,#154,.T.);
#393=EDGE_CURVE('',#318,#317,#247,.T.);
#394=EDGE_CURVE('',#318,#319,#155,.T.);
#395=EDGE_CURVE('',#320,#319,#248,.T.);
#396=EDGE_CURVE('',#320,#314,#156,.T.);
#397=EDGE_CURVE('',#269,#295,#249,.T.);
#398=EDGE_CURVE('',#293,#303,#250,.T.);
#399=EDGE_CURVE('',#301,#311,#251,.T.);
#400=EDGE_CURVE('',#309,#279,#252,.T.);
#401=EDGE_CURVE('',#277,#287,#253,.T.);
#402=EDGE_CURVE('',#285,#271,#254,.T.);
#403=EDGE_CURVE('',#312,#302,#255,.T.);
#404=EDGE_CURVE('',#304,#294,#256,.T.);
#405=EDGE_CURVE('',#288,#278,#257,.T.);
#406=EDGE_CURVE('',#280,#310,#258,.T.);
#407=EDGE_CURVE('',#296,#270,#259,.T.);
#408=EDGE_CURVE('',#272,#286,#260,.T.);
#409=EDGE_CURVE('',#321,#322,#261,.T.);
#410=EDGE_CURVE('',#322,#313,#157,.T.);
#411=EDGE_CURVE('',#314,#321,#158,.T.);
#412=EDGE_CURVE('',#323,#320,#159,.T.);
#413=EDGE_CURVE('',#321,#323,#160,.T.);
#414=EDGE_CURVE('',#324,#323,#262,.T.);
#415=EDGE_CURVE('',#319,#324,#161,.T.);
#416=EDGE_CURVE('',#325,#318,#162,.T.);
#417=EDGE_CURVE('',#324,#325,#163,.T.);
#418=EDGE_CURVE('',#326,#325,#263,.T.);
#419=EDGE_CURVE('',#317,#326,#164,.T.);
#420=EDGE_CURVE('',#327,#316,#165,.T.);
#421=EDGE_CURVE('',#326,#327,#166,.T.);
#422=EDGE_CURVE('',#328,#327,#264,.T.);
#423=EDGE_CURVE('',#315,#328,#167,.T.);
#424=EDGE_CURVE('',#328,#322,#168,.T.);
#425=ORIENTED_EDGE('',*,*,#329,.F.);
#426=ORIENTED_EDGE('',*,*,#330,.F.);
#427=ORIENTED_EDGE('',*,*,#331,.F.);
#428=ORIENTED_EDGE('',*,*,#332,.T.);
#429=ORIENTED_EDGE('',*,*,#333,.F.);
#430=ORIENTED_EDGE('',*,*,#332,.F.);
#431=ORIENTED_EDGE('',*,*,#334,.F.);
#432=ORIENTED_EDGE('',*,*,#335,.F.);
#433=ORIENTED_EDGE('',*,*,#336,.F.);
#434=ORIENTED_EDGE('',*,*,#337,.F.);
#435=ORIENTED_EDGE('',*,*,#338,.F.);
#436=ORIENTED_EDGE('',*,*,#330,.T.);
#437=ORIENTED_EDGE('',*,*,#339,.F.);
#438=ORIENTED_EDGE('',*,*,#340,.F.);
#439=ORIENTED_EDGE('',*,*,#341,.F.);
#440=ORIENTED_EDGE('',*,*,#342,.T.);
#441=ORIENTED_EDGE('',*,*,#343,.F.);
#442=ORIENTED_EDGE('',*,*,#342,.F.);
#443=ORIENTED_EDGE('',*,*,#344,.F.);
#444=ORIENTED_EDGE('',*,*,#345,.F.);
#445=ORIENTED_EDGE('',*,*,#346,.F.);
#446=ORIENTED_EDGE('',*,*,#347,.F.);
#447=ORIENTED_EDGE('',*,*,#348,.F.);
#448=ORIENTED_EDGE('',*,*,#340,.T.);
#449=ORIENTED_EDGE('',*,*,#349,.F.);
#450=ORIENTED_EDGE('',*,*,#350,.F.);
#451=ORIENTED_EDGE('',*,*,#351,.F.);
#452=ORIENTED_EDGE('',*,*,#352,.T.);
#453=ORIENTED_EDGE('',*,*,#353,.F.);
#454=ORIENTED_EDGE('',*,*,#352,.F.);
#455=ORIENTED_EDGE('',*,*,#354,.F.);
#456=ORIENTED_EDGE('',*,*,#355,.F.);
#457=ORIENTED_EDGE('',*,*,#356,.F.);
#458=ORIENTED_EDGE('',*,*,#357,.F.);
#459=ORIENTED_EDGE('',*,*,#358,.F.);
#460=ORIENTED_EDGE('',*,*,#350,.T.);
#461=ORIENTED_EDGE('',*,*,#359,.F.);
#462=ORIENTED_EDGE('',*,*,#360,.F.);
#463=ORIENTED_EDGE('',*,*,#361,.F.);
#464=ORIENTED_EDGE('',*,*,#362,.T.);
#465=ORIENTED_EDGE('',*,*,#363,.F.);
#466=ORIENTED_EDGE('',*,*,#362,.F.);
#467=ORIENTED_EDGE('',*,*,#364,.F.);
#468=ORIENTED_EDGE('',*,*,#365,.F.);
#469=ORIENTED_EDGE('',*,*,#366,.F.);
#470=ORIENTED_EDGE('',*,*,#367,.F.);
#471=ORIENTED_EDGE('',*,*,#368,.F.);
#472=ORIENTED_EDGE('',*,*,#360,.T.);
#473=ORIENTED_EDGE('',*,*,#369,.F.);
#474=ORIENTED_EDGE('',*,*,#370,.F.);
#475=ORIENTED_EDGE('',*,*,#371,.F.);
#476=ORIENTED_EDGE('',*,*,#372,.T.);
#477=ORIENTED_EDGE('',*,*,#373,.F.);
#478=ORIENTED_EDGE('',*,*,#372,.F.);
#479=ORIENTED_EDGE('',*,*,#374,.F.);
#480=ORIENTED_EDGE('',*,*,#375,.F.);
#481=ORIENTED_EDGE('',*,*,#376,.F.);
#482=ORIENTED_EDGE('',*,*,#377,.F.);
#483=ORIENTED_EDGE('',*,*,#378,.F.);
#484=ORIENTED_EDGE('',*,*,#370,.T.);
#485=ORIENTED_EDGE('',*,*,#379,.F.);
#486=ORIENTED_EDGE('',*,*,#380,.F.);
#487=ORIENTED_EDGE('',*,*,#381,.F.);
#488=ORIENTED_EDGE('',*,*,#382,.T.);
#489=ORIENTED_EDGE('',*,*,#383,.F.);
#490=ORIENTED_EDGE('',*,*,#382,.F.);
#491=ORIENTED_EDGE('',*,*,#384,.F.);
#492=ORIENTED_EDGE('',*,*,#385,.F.);
#493=ORIENTED_EDGE('',*,*,#386,.F.);
#494=ORIENTED_EDGE('',*,*,#387,.F.);
#495=ORIENTED_EDGE('',*,*,#388,.F.);
#496=ORIENTED_EDGE('',*,*,#380,.T.);
#497=ORIENTED_EDGE('',*,*,#389,.F.);
#498=ORIENTED_EDGE('',*,*,#390,.T.);
#499=ORIENTED_EDGE('',*,*,#391,.F.);
#500=ORIENTED_EDGE('',*,*,#392,.T.);
#501=ORIENTED_EDGE('',*,*,#393,.F.);
#502=ORIENTED_EDGE('',*,*,#394,.T.);
#503=ORIENTED_EDGE('',*,*,#395,.F.);
#504=ORIENTED_EDGE('',*,*,#396,.T.);
#505=ORIENTED_EDGE('',*,*,#336,.T.);
#506=ORIENTED_EDGE('',*,*,#329,.T.);
#507=ORIENTED_EDGE('',*,*,#333,.T.);
#508=ORIENTED_EDGE('',*,*,#397,.T.);
#509=ORIENTED_EDGE('',*,*,#366,.T.);
#510=ORIENTED_EDGE('',*,*,#359,.T.);
#511=ORIENTED_EDGE('',*,*,#363,.T.);
#512=ORIENTED_EDGE('',*,*,#398,.T.);
#513=ORIENTED_EDGE('',*,*,#376,.T.);
#514=ORIENTED_EDGE('',*,*,#369,.T.);
#515=ORIENTED_EDGE('',*,*,#373,.T.);
#516=ORIENTED_EDGE('',*,*,#399,.T.);
#517=ORIENTED_EDGE('',*,*,#386,.T.);
#518=ORIENTED_EDGE('',*,*,#379,.T.);
#519=ORIENTED_EDGE('',*,*,#383,.T.);
#520=ORIENTED_EDGE('',*,*,#400,.T.);
#521=ORIENTED_EDGE('',*,*,#346,.T.);
#522=ORIENTED_EDGE('',*,*,#339,.T.);
#523=ORIENTED_EDGE('',*,*,#343,.T.);
#524=ORIENTED_EDGE('',*,*,#401,.T.);
#525=ORIENTED_EDGE('',*,*,#356,.T.);
#526=ORIENTED_EDGE('',*,*,#349,.T.);
#527=ORIENTED_EDGE('',*,*,#353,.T.);
#528=ORIENTED_EDGE('',*,*,#402,.T.);
#529=ORIENTED_EDGE('',*,*,#375,.T.);
#530=ORIENTED_EDGE('',*,*,#403,.F.);
#531=ORIENTED_EDGE('',*,*,#387,.T.);
#532=ORIENTED_EDGE('',*,*,#399,.F.);
#533=ORIENTED_EDGE('',*,*,#365,.T.);
#534=ORIENTED_EDGE('',*,*,#404,.F.);
#535=ORIENTED_EDGE('',*,*,#377,.T.);
#536=ORIENTED_EDGE('',*,*,#398,.F.);
#537=ORIENTED_EDGE('',*,*,#345,.T.);
#538=ORIENTED_EDGE('',*,*,#405,.F.);
#539=ORIENTED_EDGE('',*,*,#357,.T.);
#540=ORIENTED_EDGE('',*,*,#401,.F.);
#541=ORIENTED_EDGE('',*,*,#347,.T.);
#542=ORIENTED_EDGE('',*,*,#400,.F.);
#543=ORIENTED_EDGE('',*,*,#385,.T.);
#544=ORIENTED_EDGE('',*,*,#406,.F.);
#545=ORIENTED_EDGE('',*,*,#335,.T.);
#546=ORIENTED_EDGE('',*,*,#407,.F.);
#547=ORIENTED_EDGE('',*,*,#367,.T.);
#548=ORIENTED_EDGE('',*,*,#397,.F.);
#549=ORIENTED_EDGE('',*,*,#337,.T.);
#550=ORIENTED_EDGE('',*,*,#402,.F.);
#551=ORIENTED_EDGE('',*,*,#355,.T.);
#552=ORIENTED_EDGE('',*,*,#408,.F.);
#553=ORIENTED_EDGE('',*,*,#409,.T.);
#554=ORIENTED_EDGE('',*,*,#410,.T.);
#555=ORIENTED_EDGE('',*,*,#389,.T.);
#556=ORIENTED_EDGE('',*,*,#411,.T.);
#557=ORIENTED_EDGE('',*,*,#411,.F.);
#558=ORIENTED_EDGE('',*,*,#396,.F.);
#559=ORIENTED_EDGE('',*,*,#412,.F.);
#560=ORIENTED_EDGE('',*,*,#413,.F.);
#561=ORIENTED_EDGE('',*,*,#414,.T.);
#562=ORIENTED_EDGE('',*,*,#412,.T.);
#563=ORIENTED_EDGE('',*,*,#395,.T.);
#564=ORIENTED_EDGE('',*,*,#415,.T.);
#565=ORIENTED_EDGE('',*,*,#415,.F.);
#566=ORIENTED_EDGE('',*,*,#394,.F.);
#567=ORIENTED_EDGE('',*,*,#416,.F.);
#568=ORIENTED_EDGE('',*,*,#417,.F.);
#569=ORIENTED_EDGE('',*,*,#418,.T.);
#570=ORIENTED_EDGE('',*,*,#416,.T.);
#571=ORIENTED_EDGE('',*,*,#393,.T.);
#572=ORIENTED_EDGE('',*,*,#419,.T.);
#573=ORIENTED_EDGE('',*,*,#419,.F.);
#574=ORIENTED_EDGE('',*,*,#392,.F.);
#575=ORIENTED_EDGE('',*,*,#420,.F.);
#576=ORIENTED_EDGE('',*,*,#421,.F.);
#577=ORIENTED_EDGE('',*,*,#422,.T.);
#578=ORIENTED_EDGE('',*,*,#420,.T.);
#579=ORIENTED_EDGE('',*,*,#391,.T.);
#580=ORIENTED_EDGE('',*,*,#423,.T.);
#581=ORIENTED_EDGE('',*,*,#410,.F.);
#582=ORIENTED_EDGE('',*,*,#424,.F.);
#583=ORIENTED_EDGE('',*,*,#423,.F.);
#584=ORIENTED_EDGE('',*,*,#390,.F.);
#585=ORIENTED_EDGE('',*,*,#409,.F.);
#586=ORIENTED_EDGE('',*,*,#413,.T.);
#587=ORIENTED_EDGE('',*,*,#414,.F.);
#588=ORIENTED_EDGE('',*,*,#417,.T.);
#589=ORIENTED_EDGE('',*,*,#418,.F.);
#590=ORIENTED_EDGE('',*,*,#421,.T.);
#591=ORIENTED_EDGE('',*,*,#422,.F.);
#592=ORIENTED_EDGE('',*,*,#424,.T.);
#593=ORIENTED_EDGE('',*,*,#338,.T.);
#594=ORIENTED_EDGE('',*,*,#408,.T.);
#595=ORIENTED_EDGE('',*,*,#354,.T.);
#596=ORIENTED_EDGE('',*,*,#351,.T.);
#597=ORIENTED_EDGE('',*,*,#358,.T.);
#598=ORIENTED_EDGE('',*,*,#405,.T.);
#599=ORIENTED_EDGE('',*,*,#344,.T.);
#600=ORIENTED_EDGE('',*,*,#341,.T.);
#601=ORIENTED_EDGE('',*,*,#348,.T.);
#602=ORIENTED_EDGE('',*,*,#406,.T.);
#603=ORIENTED_EDGE('',*,*,#384,.T.);
#604=ORIENTED_EDGE('',*,*,#381,.T.);
#605=ORIENTED_EDGE('',*,*,#388,.T.);
#606=ORIENTED_EDGE('',*,*,#403,.T.);
#607=ORIENTED_EDGE('',*,*,#374,.T.);
#608=ORIENTED_EDGE('',*,*,#371,.T.);
#609=ORIENTED_EDGE('',*,*,#378,.T.);
#610=ORIENTED_EDGE('',*,*,#404,.T.);
#611=ORIENTED_EDGE('',*,*,#364,.T.);
#612=ORIENTED_EDGE('',*,*,#361,.T.);
#613=ORIENTED_EDGE('',*,*,#368,.T.);
#614=ORIENTED_EDGE('',*,*,#407,.T.);
#615=ORIENTED_EDGE('',*,*,#334,.T.);
#616=ORIENTED_EDGE('',*,*,#331,.T.);
#617=CYLINDRICAL_SURFACE('',#681,2.00000002980232);
#618=CYLINDRICAL_SURFACE('',#686,2.00000002980232);
#619=CYLINDRICAL_SURFACE('',#691,1.00000001490116);
#620=CYLINDRICAL_SURFACE('',#696,1.00000001490116);
#621=CYLINDRICAL_SURFACE('',#701,2.00000002980232);
#622=CYLINDRICAL_SURFACE('',#706,1.00000001490116);
#623=CYLINDRICAL_SURFACE('',#722,10.);
#624=CYLINDRICAL_SURFACE('',#724,10.);
#625=CYLINDRICAL_SURFACE('',#726,10.);
#626=CYLINDRICAL_SURFACE('',#728,10.);
#627=CYLINDRICAL_SURFACE('',#730,10.);
#628=CYLINDRICAL_SURFACE('',#732,10.);
#629=CYLINDRICAL_SURFACE('',#734,7.5);
#630=CYLINDRICAL_SURFACE('',#737,7.5);
#631=CYLINDRICAL_SURFACE('',#740,7.5);
#632=CYLINDRICAL_SURFACE('',#743,7.5);
#633=ADVANCED_FACE('',(#35),#617,.F.);
#634=ADVANCED_FACE('',(#36),#17,.F.);
#635=ADVANCED_FACE('',(#37),#18,.F.);
#636=ADVANCED_FACE('',(#38),#618,.F.);
#637=ADVANCED_FACE('',(#39),#19,.F.);
#638=ADVANCED_FACE('',(#40),#20,.F.);
#639=ADVANCED_FACE('',(#41),#619,.F.);
#640=ADVANCED_FACE('',(#42),#21,.F.);
#641=ADVANCED_FACE('',(#43),#22,.F.);
#642=ADVANCED_FACE('',(#44),#620,.F.);
#643=ADVANCED_FACE('',(#45),#23,.F.);
#644=ADVANCED_FACE('',(#46),#24,.F.);
#645=ADVANCED_FACE('',(#47),#621,.F.);
#646=ADVANCED_FACE('',(#48),#25,.F.);
#647=ADVANCED_FACE('',(#49),#26,.F.);
#648=ADVANCED_FACE('',(#50),#622,.F.);
#649=ADVANCED_FACE('',(#51),#27,.F.);
#650=ADVANCED_FACE('',(#52),#28,.F.);
#651=ADVANCED_FACE('',(#53,#15),#29,.F.);
#652=ADVANCED_FACE('',(#54),#623,.F.);
#653=ADVANCED_FACE('',(#55),#624,.F.);
#654=ADVANCED_FACE('',(#56),#625,.F.);
#655=ADVANCED_FACE('',(#57),#626,.F.);
#656=ADVANCED_FACE('',(#58),#627,.F.);
#657=ADVANCED_FACE('',(#59),#628,.F.);
#658=ADVANCED_FACE('',(#60),#629,.T.);
#659=ADVANCED_FACE('',(#61),#30,.T.);
#660=ADVANCED_FACE('',(#62),#630,.T.);
#661=ADVANCED_FACE('',(#63),#31,.T.);
#662=ADVANCED_FACE('',(#64),#631,.T.);
#663=ADVANCED_FACE('',(#65),#32,.T.);
#664=ADVANCED_FACE('',(#66),#632,.T.);
#665=ADVANCED_FACE('',(#67),#33,.T.);
#666=ADVANCED_FACE('',(#68,#16),#34,.T.);
#667=CLOSED_SHELL('',(#633,#634,#635,#636,#637,#638,#639,#640,#641,#642,
#643,#644,#645,#646,#647,#648,#649,#650,#651,#652,#653,#654,#655,#656,#657,
#658,#659,#660,#661,#662,#663,#664,#665,#666));
#668=DERIVED_UNIT_ELEMENT(#670,1.);
#669=DERIVED_UNIT_ELEMENT(#1145,-3.);
#670=(
MASS_UNIT()
NAMED_UNIT(*)
SI_UNIT(.KILO.,.GRAM.)
);
#671=DERIVED_UNIT((#668,#669));
#672=MEASURE_REPRESENTATION_ITEM('density measure',
POSITIVE_RATIO_MEASURE(7850.),#671);
#673=PROPERTY_DEFINITION_REPRESENTATION(#678,#675);
#674=PROPERTY_DEFINITION_REPRESENTATION(#679,#676);
#675=REPRESENTATION('material name',(#677),#1142);
#676=REPRESENTATION('density',(#672),#1142);
#677=DESCRIPTIVE_REPRESENTATION_ITEM('Steel','Steel');
#678=PROPERTY_DEFINITION('material property','material name',#1152);
#679=PROPERTY_DEFINITION('material property','density of part',#1152);
#680=AXIS2_PLACEMENT_3D('',#945,#747,#748);
#681=AXIS2_PLACEMENT_3D('',#946,#749,#750);
#682=AXIS2_PLACEMENT_3D('',#949,#751,#752);
#683=AXIS2_PLACEMENT_3D('',#953,#754,#755);
#684=AXIS2_PLACEMENT_3D('',#955,#757,#758);
#685=AXIS2_PLACEMENT_3D('',#961,#762,#763);
#686=AXIS2_PLACEMENT_3D('',#967,#767,#768);
#687=AXIS2_PLACEMENT_3D('',#970,#769,#770);
#688=AXIS2_PLACEMENT_3D('',#974,#772,#773);
#689=AXIS2_PLACEMENT_3D('',#976,#775,#776);
#690=AXIS2_PLACEMENT_3D('',#982,#780,#781);
#691=AXIS2_PLACEMENT_3D('',#988,#785,#786);
#692=AXIS2_PLACEMENT_3D('',#991,#787,#788);
#693=AXIS2_PLACEMENT_3D('',#995,#790,#791);
#694=AXIS2_PLACEMENT_3D('',#997,#793,#794);
#695=AXIS2_PLACEMENT_3D('',#1003,#798,#799);
#696=AXIS2_PLACEMENT_3D('',#1009,#803,#804);
#697=AXIS2_PLACEMENT_3D('',#1012,#805,#806);
#698=AXIS2_PLACEMENT_3D('',#1016,#808,#809);
#699=AXIS2_PLACEMENT_3D('',#1018,#811,#812);
#700=AXIS2_PLACEMENT_3D('',#1024,#816,#817);
#701=AXIS2_PLACEMENT_3D('',#1030,#821,#822);
#702=AXIS2_PLACEMENT_3D('',#1033,#823,#824);
#703=AXIS2_PLACEMENT_3D('',#1037,#826,#827);
#704=AXIS2_PLACEMENT_3D('',#1039,#829,#830);
#705=AXIS2_PLACEMENT_3D('',#1045,#834,#835);
#706=AXIS2_PLACEMENT_3D('',#1051,#839,#840);
#707=AXIS2_PLACEMENT_3D('',#1054,#841,#842);
#708=AXIS2_PLACEMENT_3D('',#1058,#844,#845);
#709=AXIS2_PLACEMENT_3D('',#1060,#847,#848);
#710=AXIS2_PLACEMENT_3D('',#1066,#852,#853);
#711=AXIS2_PLACEMENT_3D('',#1072,#857,#858);
#712=AXIS2_PLACEMENT_3D('',#1075,#859,#860);
#713=AXIS2_PLACEMENT_3D('',#1079,#862,#863);
#714=AXIS2_PLACEMENT_3D('',#1083,#865,#866);
#715=AXIS2_PLACEMENT_3D('',#1087,#868,#869);
#716=AXIS2_PLACEMENT_3D('',#1089,#871,#872);
#717=AXIS2_PLACEMENT_3D('',#1090,#873,#874);
#718=AXIS2_PLACEMENT_3D('',#1091,#875,#876);
#719=AXIS2_PLACEMENT_3D('',#1092,#877,#878);
#720=AXIS2_PLACEMENT_3D('',#1093,#879,#880);
#721=AXIS2_PLACEMENT_3D('',#1094,#881,#882);
#722=AXIS2_PLACEMENT_3D('',#1095,#883,#884);
#723=AXIS2_PLACEMENT_3D('',#1096,#885,#886);
#724=AXIS2_PLACEMENT_3D('',#1097,#887,#888);
#725=AXIS2_PLACEMENT_3D('',#1098,#889,#890);
#726=AXIS2_PLACEMENT_3D('',#1099,#891,#892);
#727=AXIS2_PLACEMENT_3D('',#1100,#893,#894);
#728=AXIS2_PLACEMENT_3D('',#1101,#895,#896);
#729=AXIS2_PLACEMENT_3D('',#1102,#897,#898);
#730=AXIS2_PLACEMENT_3D('',#1103,#899,#900);
#731=AXIS2_PLACEMENT_3D('',#1104,#901,#902);
#732=AXIS2_PLACEMENT_3D('',#1105,#903,#904);
#733=AXIS2_PLACEMENT_3D('',#1106,#905,#906);
#734=AXIS2_PLACEMENT_3D('',#1107,#907,#908);
#735=AXIS2_PLACEMENT_3D('',#1110,#909,#910);
#736=AXIS2_PLACEMENT_3D('',#1113,#913,#914);
#737=AXIS2_PLACEMENT_3D('',#1117,#917,#918);
#738=AXIS2_PLACEMENT_3D('',#1119,#919,#920);
#739=AXIS2_PLACEMENT_3D('',#1121,#922,#923);
#740=AXIS2_PLACEMENT_3D('',#1125,#926,#927);
#741=AXIS2_PLACEMENT_3D('',#1127,#928,#929);
#742=AXIS2_PLACEMENT_3D('',#1129,#931,#932);
#743=AXIS2_PLACEMENT_3D('',#1133,#935,#936);
#744=AXIS2_PLACEMENT_3D('',#1135,#937,#938);
#745=AXIS2_PLACEMENT_3D('',#1137,#940,#941);
#746=AXIS2_PLACEMENT_3D('',#1139,#943,#944);
#747=DIRECTION('axis',(0.,0.,1.));
#748=DIRECTION('refdir',(1.,0.,0.));
#749=DIRECTION('center_axis',(0.,-1.,0.));
#750=DIRECTION('ref_axis',(-0.5,0.,-0.866025403784439));
#751=DIRECTION('center_axis',(0.,1.,0.));
#752=DIRECTION('ref_axis',(-0.5,0.,-0.866025403784439));
#753=DIRECTION('',(0.,-1.,0.));
#754=DIRECTION('center_axis',(0.,-1.,0.));
#755=DIRECTION('ref_axis',(-0.5,0.,-0.866025403784439));
#756=DIRECTION('',(0.,-1.,0.));
#757=DIRECTION('center_axis',(0.5,0.,0.866025403784439));
#758=DIRECTION('ref_axis',(-0.866025403784439,0.,0.5));
#759=DIRECTION('',(0.866025403784439,0.,-0.5));
#760=DIRECTION('',(-0.866025403784439,0.,0.5));
#761=DIRECTION('',(0.,1.,0.));
#762=DIRECTION('center_axis',(-0.5,0.,-0.866025403784439));
#763=DIRECTION('ref_axis',(0.866025403784439,0.,-0.5));
#764=DIRECTION('',(-0.866025403784439,0.,0.5));
#765=DIRECTION('',(0.,-1.,0.));
#766=DIRECTION('',(0.866025403784439,0.,-0.5));
#767=DIRECTION('center_axis',(0.,-1.,0.));
#768=DIRECTION('ref_axis',(1.,0.,0.));
#769=DIRECTION('center_axis',(0.,1.,0.));
#770=DIRECTION('ref_axis',(1.,0.,0.));
#771=DIRECTION('',(0.,-1.,0.));
#772=DIRECTION('center_axis',(0.,-1.,0.));
#773=DIRECTION('ref_axis',(1.,0.,0.));
#774=DIRECTION('',(0.,-1.,0.));
#775=DIRECTION('center_axis',(-1.,0.,0.));
#776=DIRECTION('ref_axis',(0.,0.,-1.));
#777=DIRECTION('',(0.,0.,1.));
#778=DIRECTION('',(0.,0.,-1.));
#779=DIRECTION('',(0.,1.,0.));
#780=DIRECTION('center_axis',(1.,0.,0.));
#781=DIRECTION('ref_axis',(0.,0.,1.));
#782=DIRECTION('',(0.,0.,-1.));
#783=DIRECTION('',(0.,-1.,0.));
#784=DIRECTION('',(0.,0.,1.));
#785=DIRECTION('center_axis',(0.,-1.,0.));
#786=DIRECTION('ref_axis',(0.5,0.,-0.866025403784438));
#787=DIRECTION('center_axis',(0.,1.,0.));
#788=DIRECTION('ref_axis',(0.5,0.,-0.866025403784438));
#789=DIRECTION('',(0.,-1.,0.));
#790=DIRECTION('center_axis',(0.,-1.,0.));
#791=DIRECTION('ref_axis',(0.5,0.,-0.866025403784438));
#792=DIRECTION('',(0.,-1.,0.));
#793=DIRECTION('center_axis',(-0.5,0.,0.866025403784439));
#794=DIRECTION('ref_axis',(-0.866025403784438,0.,-0.5));
#795=DIRECTION('',(0.866025403784438,0.,0.5));
#796=DIRECTION('',(-0.866025403784438,0.,-0.5));
#797=DIRECTION('',(0.,1.,0.));
#798=DIRECTION('center_axis',(0.5,0.,-0.866025403784439));
#799=DIRECTION('ref_axis',(0.866025403784438,0.,0.5));
#800=DIRECTION('',(-0.866025403784438,0.,-0.5));
#801=DIRECTION('',(0.,-1.,0.));
#802=DIRECTION('',(0.866025403784438,0.,0.5));
#803=DIRECTION('center_axis',(0.,-1.,0.));
#804=DIRECTION('ref_axis',(-1.,0.,0.));
#805=DIRECTION('center_axis',(0.,1.,0.));
#806=DIRECTION('ref_axis',(-1.,0.,0.));
#807=DIRECTION('',(0.,-1.,0.));
#808=DIRECTION('center_axis',(0.,-1.,0.));
#809=DIRECTION('ref_axis',(-1.,0.,0.));
#810=DIRECTION('',(0.,-1.,0.));
#811=DIRECTION('center_axis',(1.,0.,0.));
#812=DIRECTION('ref_axis',(0.,0.,1.));
#813=DIRECTION('',(0.,0.,-1.));
#814=DIRECTION('',(0.,0.,1.));
#815=DIRECTION('',(0.,1.,0.));
#816=DIRECTION('center_axis',(-1.,0.,0.));
#817=DIRECTION('ref_axis',(0.,0.,-1.));
#818=DIRECTION('',(0.,0.,1.));
#819=DIRECTION('',(0.,-1.,0.));
#820=DIRECTION('',(0.,0.,-1.));
#821=DIRECTION('center_axis',(0.,-1.,0.));
#822=DIRECTION('ref_axis',(-0.5,0.,0.866025403784439));
#823=DIRECTION('center_axis',(0.,1.,0.));
#824=DIRECTION('ref_axis',(-0.5,0.,0.866025403784439));
#825=DIRECTION('',(0.,-1.,0.));
#826=DIRECTION('center_axis',(0.,-1.,0.));
#827=DIRECTION('ref_axis',(-0.5,0.,0.866025403784439));
#828=DIRECTION('',(0.,-1.,0.));
#829=DIRECTION('center_axis',(0.5,0.,-0.866025403784439));
#830=DIRECTION('ref_axis',(0.866025403784439,0.,0.5));
#831=DIRECTION('',(-0.866025403784439,0.,-0.5));
#832=DIRECTION('',(0.866025403784439,0.,0.5));
#833=DIRECTION('',(0.,1.,0.));
#834=DIRECTION('center_axis',(-0.5,0.,0.866025403784438));
#835=DIRECTION('ref_axis',(-0.866025403784438,0.,-0.5));
#836=DIRECTION('',(0.866025403784438,0.,0.5));
#837=DIRECTION('',(0.,-1.,0.));
#838=DIRECTION('',(-0.866025403784438,0.,-0.5));
#839=DIRECTION('center_axis',(0.,-1.,0.));
#840=DIRECTION('ref_axis',(0.5,0.,0.866025403784439));
#841=DIRECTION('center_axis',(0.,1.,0.));
#842=DIRECTION('ref_axis',(0.5,0.,0.866025403784439));
#843=DIRECTION('',(0.,-1.,0.));
#844=DIRECTION('center_axis',(0.,-1.,0.));
#845=DIRECTION('ref_axis',(0.5,0.,0.866025403784439));
#846=DIRECTION('',(0.,-1.,0.));
#847=DIRECTION('center_axis',(-0.5,0.,-0.866025403784439));
#848=DIRECTION('ref_axis',(0.866025403784439,0.,-0.5));
#849=DIRECTION('',(-0.866025403784439,0.,0.5));
#850=DIRECTION('',(0.866025403784439,0.,-0.5));
#851=DIRECTION('',(0.,1.,0.));
#852=DIRECTION('center_axis',(0.5,0.,0.866025403784439));
#853=DIRECTION('ref_axis',(-0.866025403784439,0.,0.5));
#854=DIRECTION('',(0.866025403784439,0.,-0.5));
#855=DIRECTION('',(0.,-1.,0.));
#856=DIRECTION('',(-0.866025403784439,0.,0.5));
#857=DIRECTION('center_axis',(0.,1.,0.));
#858=DIRECTION('ref_axis',(1.,0.,0.));
#859=DIRECTION('center_axis',(0.,1.,0.));
#860=DIRECTION('ref_axis',(0.707106781186547,0.,-0.707106781186547));
#861=DIRECTION('',(0.,0.,1.));
#862=DIRECTION('center_axis',(0.,1.,0.));
#863=DIRECTION('ref_axis',(0.707106781186547,0.,0.707106781186547));
#864=DIRECTION('',(-1.,0.,0.));
#865=DIRECTION('center_axis',(0.,1.,0.));
#866=DIRECTION('ref_axis',(-0.707106781186547,0.,0.707106781186547));
#867=DIRECTION('',(0.,0.,-1.));
#868=DIRECTION('center_axis',(0.,1.,0.));
#869=DIRECTION('ref_axis',(-0.707106781186547,0.,-0.707106781186547));
#870=DIRECTION('',(1.,0.,0.));
#871=DIRECTION('center_axis',(0.,1.,0.));
#872=DIRECTION('ref_axis',(-1.,0.,0.));
#873=DIRECTION('center_axis',(0.,1.,0.));
#874=DIRECTION('ref_axis',(-1.,0.,0.));
#875=DIRECTION('center_axis',(0.,1.,0.));
#876=DIRECTION('ref_axis',(-1.,0.,0.));
#877=DIRECTION('center_axis',(0.,1.,0.));
#878=DIRECTION('ref_axis',(-1.,0.,0.));
#879=DIRECTION('center_axis',(0.,1.,0.));
#880=DIRECTION('ref_axis',(-1.,0.,0.));
#881=DIRECTION('center_axis',(0.,1.,0.));
#882=DIRECTION('ref_axis',(-1.,0.,0.));
#883=DIRECTION('center_axis',(0.,-1.,0.));
#884=DIRECTION('ref_axis',(0.998720333326687,0.,-0.0505736670593636));
#885=DIRECTION('center_axis',(0.,-1.,0.));
#886=DIRECTION('ref_axis',(-1.,0.,0.));
#887=DIRECTION('center_axis',(0.,-1.,0.));
#888=DIRECTION('ref_axis',(-1.,0.,0.));
#889=DIRECTION('center_axis',(0.,-1.,0.));
#890=DIRECTION('ref_axis',(-1.,0.,0.));
#891=DIRECTION('center_axis',(0.,-1.,0.));
#892=DIRECTION('ref_axis',(-1.,0.,0.));
#893=DIRECTION('center_axis',(0.,-1.,0.));
#894=DIRECTION('ref_axis',(-1.,0.,0.));
#895=DIRECTION('center_axis',(0.,-1.,0.));
#896=DIRECTION('ref_axis',(-1.,0.,0.));
#897=DIRECTION('center_axis',(0.,-1.,0.));
#898=DIRECTION('ref_axis',(-1.,0.,0.));
#899=DIRECTION('center_axis',(0.,-1.,0.));
#900=DIRECTION('ref_axis',(-1.,0.,0.));
#901=DIRECTION('center_axis',(0.,-1.,0.));
#902=DIRECTION('ref_axis',(-1.,0.,0.));
#903=DIRECTION('center_axis',(0.,-1.,0.));
#904=DIRECTION('ref_axis',(-1.,0.,0.));
#905=DIRECTION('center_axis',(0.,-1.,0.));
#906=DIRECTION('ref_axis',(-1.,0.,0.));
#907=DIRECTION('center_axis',(0.,1.,0.));
#908=DIRECTION('ref_axis',(0.707106781186547,0.,-0.707106781186547));
#909=DIRECTION('center_axis',(0.,-1.,0.));
#910=DIRECTION('ref_axis',(0.707106781186547,0.,-0.707106781186547));
#911=DIRECTION('',(0.,-1.,0.));
#912=DIRECTION('',(0.,1.,0.));
#913=DIRECTION('center_axis',(0.,0.,-1.));
#914=DIRECTION('ref_axis',(-1.,0.,0.));
#915=DIRECTION('',(0.,-1.,0.));
#916=DIRECTION('',(-1.,0.,0.));
#917=DIRECTION('center_axis',(0.,1.,0.));
#918=DIRECTION('ref_axis',(-0.707106781186547,0.,-0.707106781186547));
#919=DIRECTION('center_axis',(0.,-1.,0.));
#920=DIRECTION('ref_axis',(-0.707106781186547,0.,-0.707106781186547));
#921=DIRECTION('',(0.,1.,0.));
#922=DIRECTION('center_axis',(-1.,0.,0.));
#923=DIRECTION('ref_axis',(0.,0.,1.));
#924=DIRECTION('',(0.,-1.,0.));
#925=DIRECTION('',(0.,0.,1.));
#926=DIRECTION('center_axis',(0.,1.,0.));
#927=DIRECTION('ref_axis',(-0.707106781186547,0.,0.707106781186547));
#928=DIRECTION('center_axis',(0.,-1.,0.));
#929=DIRECTION('ref_axis',(-0.707106781186547,0.,0.707106781186547));
#930=DIRECTION('',(0.,1.,0.));
#931=DIRECTION('center_axis',(0.,0.,1.));
#932=DIRECTION('ref_axis',(1.,0.,0.));
#933=DIRECTION('',(0.,-1.,0.));
#934=DIRECTION('',(1.,0.,0.));
#935=DIRECTION('center_axis',(0.,1.,0.));
#936=DIRECTION('ref_axis',(0.707106781186547,0.,0.707106781186547));
#937=DIRECTION('center_axis',(0.,-1.,0.));
#938=DIRECTION('ref_axis',(0.707106781186547,0.,0.707106781186547));
#939=DIRECTION('',(0.,1.,0.));
#940=DIRECTION('center_axis',(1.,0.,0.));
#941=DIRECTION('ref_axis',(0.,0.,-1.));
#942=DIRECTION('',(0.,0.,-1.));
#943=DIRECTION('center_axis',(0.,1.,0.));
#944=DIRECTION('ref_axis',(0.,0.,1.));
#945=CARTESIAN_POINT('',(0.,0.,0.));
#946=CARTESIAN_POINT('Origin',(-12.9903812503383,35.,7.50000011175871));
#947=CARTESIAN_POINT('',(-13.9903812652395,0.,5.76794927838026));
#948=CARTESIAN_POINT('',(-11.9903812354372,0.,9.23205094513715));
#949=CARTESIAN_POINT('Origin',(-12.9903812503383,0.,7.50000011175871));
#950=CARTESIAN_POINT('',(-13.9903812652395,35.,5.76794927838026));
#951=CARTESIAN_POINT('',(-13.9903812652395,35.,5.76794927838026));
#952=CARTESIAN_POINT('',(-11.9903812354372,35.,9.23205094513715));
#953=CARTESIAN_POINT('Origin',(-12.9903812503383,35.,7.50000011175871));
#954=CARTESIAN_POINT('',(-11.9903812354372,35.,9.23205094513715));
#955=CARTESIAN_POINT('Origin',(-7.48528135406906,35.,6.63103031590311));
#956=CARTESIAN_POINT('',(-7.48528135406906,0.,6.63103031590311));
#957=CARTESIAN_POINT('',(-3.24264066958395,0.,4.18154057464078));
#958=CARTESIAN_POINT('',(-7.48528135406906,35.,6.63103031590311));
#959=CARTESIAN_POINT('',(-3.24264066958395,35.,4.18154057464078));
#960=CARTESIAN_POINT('',(-7.48528135406906,35.,6.63103031590311));
#961=CARTESIAN_POINT('Origin',(-13.9903812652395,35.,5.76794927838026));
#962=CARTESIAN_POINT('',(-9.48528138387138,0.,3.16692864914622));
#963=CARTESIAN_POINT('',(-7.49519064007033,0.,2.01794922250091));
#964=CARTESIAN_POINT('',(-9.48528138387138,35.,3.16692864914622));
#965=CARTESIAN_POINT('',(-9.48528138387138,35.,3.16692864914622));
#966=CARTESIAN_POINT('',(-7.49519064007033,35.,2.01794922250091));
#967=CARTESIAN_POINT('Origin',(0.,35.,-15.0000002235174));
#968=CARTESIAN_POINT('',(2.00000002980232,0.,-15.0000002235174));
#969=CARTESIAN_POINT('',(-2.00000002980232,0.,-15.0000002235174));
#970=CARTESIAN_POINT('Origin',(0.,0.,-15.0000002235174));
#971=CARTESIAN_POINT('',(2.00000002980232,35.,-15.0000002235174));
#972=CARTESIAN_POINT('',(2.00000002980232,35.,-15.0000002235174));
#973=CARTESIAN_POINT('',(-2.00000002980232,35.,-15.0000002235174));
#974=CARTESIAN_POINT('Origin',(0.,35.,-15.0000002235174));
#975=CARTESIAN_POINT('',(-2.00000002980232,35.,-15.0000002235174));
#976=CARTESIAN_POINT('Origin',(-2.00000002980232,35.,-9.79795896504934));
#977=CARTESIAN_POINT('',(-2.00000002980232,0.,-9.79795896504934));
#978=CARTESIAN_POINT('',(-2.00000002980232,0.,-4.89897948252467));
#979=CARTESIAN_POINT('',(-2.00000002980232,35.,-9.79795896504934));
#980=CARTESIAN_POINT('',(-2.00000002980232,35.,-4.89897948252467));
#981=CARTESIAN_POINT('',(-2.00000002980232,35.,-9.79795896504934));
#982=CARTESIAN_POINT('Origin',(2.00000002980232,35.,-15.0000002235174));
#983=CARTESIAN_POINT('',(2.00000002980232,0.,-9.79795896504934));
#984=CARTESIAN_POINT('',(2.00000002980232,0.,-7.50000011175871));
#985=CARTESIAN_POINT('',(2.00000002980232,35.,-9.79795896504934));
#986=CARTESIAN_POINT('',(2.00000002980232,35.,-9.79795896504934));
#987=CARTESIAN_POINT('',(2.00000002980232,35.,-7.50000011175871));
#988=CARTESIAN_POINT('Origin',(-16.4544829170952,35.,-9.50000014156103));
#989=CARTESIAN_POINT('',(-15.9544829096446,0.,-10.3660255582503));
#990=CARTESIAN_POINT('',(-16.9544829245458,0.,-8.63397472487181));
#991=CARTESIAN_POINT('Origin',(-16.4544829170952,0.,-9.50000014156103));
#992=CARTESIAN_POINT('',(-15.9544829096446,35.,-10.3660255582503));
#993=CARTESIAN_POINT('',(-15.9544829096446,35.,-10.3660255582503));
#994=CARTESIAN_POINT('',(-16.9544829245458,35.,-8.63397472487181));
#995=CARTESIAN_POINT('Origin',(-16.4544829170952,35.,-9.50000014156103));
#996=CARTESIAN_POINT('',(-16.9544829245458,35.,-8.63397472487181));
#997=CARTESIAN_POINT('Origin',(-9.11684397596064,35.,-4.10891176809507));
#998=CARTESIAN_POINT('',(-9.11684397596064,0.,-4.10891176809507));
#999=CARTESIAN_POINT('',(-4.80842199170561,0.,-1.62144317570292));
#1000=CARTESIAN_POINT('',(-9.11684397596064,35.,-4.10891176809507));
#1001=CARTESIAN_POINT('',(-4.80842199170561,35.,-1.62144317570292));
#1002=CARTESIAN_POINT('',(-9.11684397596064,35.,-4.10891176809507));
#1003=CARTESIAN_POINT('Origin',(-15.9544829096446,35.,-10.3660255582503));
#1004=CARTESIAN_POINT('',(-8.11684396105948,0.,-5.84096260147351));
#1005=CARTESIAN_POINT('',(-7.72724145109703,0.,-5.61602548746974));
#1006=CARTESIAN_POINT('',(-8.11684396105948,35.,-5.84096260147351));
#1007=CARTESIAN_POINT('',(-8.11684396105948,35.,-5.84096260147351));
#1008=CARTESIAN_POINT('',(-7.72724145109703,35.,-5.61602548746974));
#1009=CARTESIAN_POINT('Origin',(0.,35.,19.0000002831221));
#1010=CARTESIAN_POINT('',(-1.00000001490116,0.,19.0000002831221));
#1011=CARTESIAN_POINT('',(1.00000001490116,0.,19.0000002831221));
#1012=CARTESIAN_POINT('Origin',(0.,0.,19.0000002831221));
#1013=CARTESIAN_POINT('',(-1.00000001490116,35.,19.0000002831221));
#1014=CARTESIAN_POINT('',(-1.00000001490116,35.,19.0000002831221));
#1015=CARTESIAN_POINT('',(1.00000001490116,35.,19.0000002831221));
#1016=CARTESIAN_POINT('Origin',(0.,35.,19.0000002831221));
#1017=CARTESIAN_POINT('',(1.00000001490116,35.,19.0000002831221));
#1018=CARTESIAN_POINT('Origin',(1.00000001490116,35.,9.94987436956858));
#1019=CARTESIAN_POINT('',(1.00000001490116,0.,9.94987436956858));
#1020=CARTESIAN_POINT('',(1.00000001490116,0.,4.97493718478429));
#1021=CARTESIAN_POINT('',(1.00000001490116,35.,9.94987436956858));
#1022=CARTESIAN_POINT('',(1.00000001490116,35.,4.97493718478429));
#1023=CARTESIAN_POINT('',(1.00000001490116,35.,9.94987436956858));
#1024=CARTESIAN_POINT('Origin',(-1.00000001490116,35.,19.0000002831221));
#1025=CARTESIAN_POINT('',(-1.00000001490116,0.,9.94987436956858));
#1026=CARTESIAN_POINT('',(-1.00000001490116,0.,9.50000014156103));
#1027=CARTESIAN_POINT('',(-1.00000001490116,35.,9.94987436956858));
#1028=CARTESIAN_POINT('',(-1.00000001490116,35.,9.94987436956858));
#1029=CARTESIAN_POINT('',(-1.00000001490116,35.,9.50000014156103));
#1030=CARTESIAN_POINT('Origin',(12.9903812503383,35.,7.50000011175871));
#1031=CARTESIAN_POINT('',(11.9903812354372,0.,9.23205094513716));
#1032=CARTESIAN_POINT('',(13.9903812652395,0.,5.76794927838027));
#1033=CARTESIAN_POINT('Origin',(12.9903812503383,0.,7.50000011175871));
#1034=CARTESIAN_POINT('',(11.9903812354372,35.,9.23205094513716));
#1035=CARTESIAN_POINT('',(11.9903812354372,35.,9.23205094513716));
#1036=CARTESIAN_POINT('',(13.9903812652395,35.,5.76794927838027));
#1037=CARTESIAN_POINT('Origin',(12.9903812503383,35.,7.50000011175871));
#1038=CARTESIAN_POINT('',(13.9903812652395,35.,5.76794927838027));
#1039=CARTESIAN_POINT('Origin',(9.48528138387137,35.,3.16692864914623));
#1040=CARTESIAN_POINT('',(9.48528138387138,0.,3.16692864914623));
#1041=CARTESIAN_POINT('',(5.24264069938627,-4.44089209850063E-15,0.717438907883891));
#1042=CARTESIAN_POINT('',(9.48528138387137,35.,3.16692864914623));
#1043=CARTESIAN_POINT('',(5.24264069938627,35.,0.717438907883891));
#1044=CARTESIAN_POINT('',(9.48528138387138,35.,3.16692864914623));
#1045=CARTESIAN_POINT('Origin',(11.9903812354372,35.,9.23205094513716));
#1046=CARTESIAN_POINT('',(7.48528135406905,0.,6.63103031590312));
#1047=CARTESIAN_POINT('',(5.49519061026801,0.,5.4820508892578));
#1048=CARTESIAN_POINT('',(7.48528135406905,35.,6.63103031590312));
#1049=CARTESIAN_POINT('',(7.48528135406905,35.,6.63103031590312));
#1050=CARTESIAN_POINT('',(5.49519061026801,35.,5.4820508892578));
#1051=CARTESIAN_POINT('Origin',(16.4544829170952,35.,-9.50000014156103));
#1052=CARTESIAN_POINT('',(16.9544829245458,0.,-8.6339747248718));
#1053=CARTESIAN_POINT('',(15.9544829096447,0.,-10.3660255582503));
#1054=CARTESIAN_POINT('Origin',(16.4544829170952,0.,-9.50000014156103));
#1055=CARTESIAN_POINT('',(16.9544829245458,35.,-8.6339747248718));
#1056=CARTESIAN_POINT('',(16.9544829245458,35.,-8.6339747248718));
#1057=CARTESIAN_POINT('',(15.9544829096447,35.,-10.3660255582503));
#1058=CARTESIAN_POINT('Origin',(16.4544829170952,35.,-9.50000014156103));
#1059=CARTESIAN_POINT('',(15.9544829096447,35.,-10.3660255582503));
#1060=CARTESIAN_POINT('Origin',(8.11684396105948,35.,-5.84096260147351));
#1061=CARTESIAN_POINT('',(8.11684396105948,0.,-5.84096260147351));
#1062=CARTESIAN_POINT('',(3.80842197680445,0.,-3.35349400908137));
#1063=CARTESIAN_POINT('',(8.11684396105948,35.,-5.84096260147351));
#1064=CARTESIAN_POINT('',(3.80842197680445,35.,-3.35349400908137));
#1065=CARTESIAN_POINT('',(8.11684396105948,35.,-5.84096260147351));
#1066=CARTESIAN_POINT('Origin',(16.9544829245458,35.,-8.6339747248718));
#1067=CARTESIAN_POINT('',(9.11684397596064,0.,-4.10891176809506));
#1068=CARTESIAN_POINT('',(8.7272414659982,0.,-3.88397465409129));
#1069=CARTESIAN_POINT('',(9.11684397596064,35.,-4.10891176809506));
#1070=CARTESIAN_POINT('',(9.11684397596064,35.,-4.10891176809506));
#1071=CARTESIAN_POINT('',(8.7272414659982,35.,-3.88397465409129));
#1072=CARTESIAN_POINT('Origin',(0.,0.,0.));
#1073=CARTESIAN_POINT('',(25.,0.,-17.5));
#1074=CARTESIAN_POINT('',(17.5,0.,-25.));
#1075=CARTESIAN_POINT('Origin',(17.5,0.,-17.5));
#1076=CARTESIAN_POINT('',(25.,0.,17.5));
#1077=CARTESIAN_POINT('',(25.,0.,-25.));
#1078=CARTESIAN_POINT('',(17.5,0.,25.));
#1079=CARTESIAN_POINT('Origin',(17.5,0.,17.5));
#1080=CARTESIAN_POINT('',(-17.5,0.,25.));
#1081=CARTESIAN_POINT('',(25.,0.,25.));
#1082=CARTESIAN_POINT('',(-25.,0.,17.5));
#1083=CARTESIAN_POINT('Origin',(-17.5,0.,17.5));
#1084=CARTESIAN_POINT('',(-25.,0.,-17.5));
#1085=CARTESIAN_POINT('',(-25.,0.,25.));
#1086=CARTESIAN_POINT('',(-17.5,0.,-25.));
#1087=CARTESIAN_POINT('Origin',(-17.5,0.,-17.5));
#1088=CARTESIAN_POINT('',(-25.,0.,-25.));
#1089=CARTESIAN_POINT('Origin',(0.,0.,0.));
#1090=CARTESIAN_POINT('Origin',(0.,0.,0.));
#1091=CARTESIAN_POINT('Origin',(0.,0.,0.));
#1092=CARTESIAN_POINT('Origin',(0.,0.,0.));
#1093=CARTESIAN_POINT('Origin',(0.,0.,0.));
#1094=CARTESIAN_POINT('Origin',(0.,0.,0.));
#1095=CARTESIAN_POINT('Origin',(0.,35.,0.));
#1096=CARTESIAN_POINT('Origin',(0.,35.,0.));
#1097=CARTESIAN_POINT('Origin',(0.,35.,0.));
#1098=CARTESIAN_POINT('Origin',(0.,35.,0.));
#1099=CARTESIAN_POINT('Origin',(0.,35.,0.));
#1100=CARTESIAN_POINT('Origin',(0.,35.,0.));
#1101=CARTESIAN_POINT('Origin',(0.,35.,0.));
#1102=CARTESIAN_POINT('Origin',(0.,35.,0.));
#1103=CARTESIAN_POINT('Origin',(0.,35.,0.));
#1104=CARTESIAN_POINT('Origin',(0.,35.,0.));
#1105=CARTESIAN_POINT('Origin',(0.,35.,0.));
#1106=CARTESIAN_POINT('Origin',(0.,35.,0.));
#1107=CARTESIAN_POINT('Origin',(17.5,0.,-17.5));
#1108=CARTESIAN_POINT('',(17.5,35.,-25.));
#1109=CARTESIAN_POINT('',(25.,35.,-17.5));
#1110=CARTESIAN_POINT('Origin',(17.5,35.,-17.5));
#1111=CARTESIAN_POINT('',(25.,0.,-17.5));
#1112=CARTESIAN_POINT('',(17.5,0.,-25.));
#1113=CARTESIAN_POINT('Origin',(25.,0.,-25.));
#1114=CARTESIAN_POINT('',(-17.5,35.,-25.));
#1115=CARTESIAN_POINT('',(-17.5,0.,-25.));
#1116=CARTESIAN_POINT('',(-25.,35.,-25.));
#1117=CARTESIAN_POINT('Origin',(-17.5,0.,-17.5));
#1118=CARTESIAN_POINT('',(-25.,35.,-17.5));
#1119=CARTESIAN_POINT('Origin',(-17.5,35.,-17.5));
#1120=CARTESIAN_POINT('',(-25.,0.,-17.5));
#1121=CARTESIAN_POINT('Origin',(-25.,0.,-25.));
#1122=CARTESIAN_POINT('',(-25.,35.,17.5));
#1123=CARTESIAN_POINT('',(-25.,0.,17.5));
#1124=CARTESIAN_POINT('',(-25.,35.,25.));
#1125=CARTESIAN_POINT('Origin',(-17.5,0.,17.5));
#1126=CARTESIAN_POINT('',(-17.5,35.,25.));
#1127=CARTESIAN_POINT('Origin',(-17.5,35.,17.5));
#1128=CARTESIAN_POINT('',(-17.5,0.,25.));
#1129=CARTESIAN_POINT('Origin',(-25.,0.,25.));
#1130=CARTESIAN_POINT('',(17.5,35.,25.));
#1131=CARTESIAN_POINT('',(17.5,0.,25.));
#1132=CARTESIAN_POINT('',(25.,35.,25.));
#1133=CARTESIAN_POINT('Origin',(17.5,0.,17.5));
#1134=CARTESIAN_POINT('',(25.,35.,17.5));
#1135=CARTESIAN_POINT('Origin',(17.5,35.,17.5));
#1136=CARTESIAN_POINT('',(25.,0.,17.5));
#1137=CARTESIAN_POINT('Origin',(25.,0.,25.));
#1138=CARTESIAN_POINT('',(25.,35.,-25.));
#1139=CARTESIAN_POINT('Origin',(0.,35.,0.));
#1140=UNCERTAINTY_MEASURE_WITH_UNIT(LENGTH_MEASURE(0.01),#1144,
'DISTANCE_ACCURACY_VALUE',
'Maximum model space distance between geometric entities at asserted c
onnectivities');
#1141=UNCERTAINTY_MEASURE_WITH_UNIT(LENGTH_MEASURE(0.01),#1144,
'DISTANCE_ACCURACY_VALUE',
'Maximum model space distance between geometric entities at asserted c
onnectivities');
#1142=(
GEOMETRIC_REPRESENTATION_CONTEXT(3)
GLOBAL_UNCERTAINTY_ASSIGNED_CONTEXT((#1140))
GLOBAL_UNIT_ASSIGNED_CONTEXT((#1144,#1146,#1147))
REPRESENTATION_CONTEXT('','3D')
);
#1143=(
GEOMETRIC_REPRESENTATION_CONTEXT(3)
GLOBAL_UNCERTAINTY_ASSIGNED_CONTEXT((#1141))
GLOBAL_UNIT_ASSIGNED_CONTEXT((#1144,#1146,#1147))
REPRESENTATION_CONTEXT('','3D')
);
#1144=(
LENGTH_UNIT()
NAMED_UNIT(*)
SI_UNIT(.MILLI.,.METRE.)
);
#1145=(
LENGTH_UNIT()
NAMED_UNIT(*)
SI_UNIT($,.METRE.)
);
#1146=(
NAMED_UNIT(*)
PLANE_ANGLE_UNIT()
SI_UNIT($,.RADIAN.)
);
#1147=(
NAMED_UNIT(*)
SI_UNIT($,.STERADIAN.)
SOLID_ANGLE_UNIT()
);
#1148=SHAPE_DEFINITION_REPRESENTATION(#1149,#1150);
#1149=PRODUCT_DEFINITION_SHAPE('',$,#1152);
#1150=SHAPE_REPRESENTATION('',(#680),#1142);
#1151=PRODUCT_DEFINITION_CONTEXT('part definition',#1156,'design');
#1152=PRODUCT_DEFINITION('(Unsaved)','(Unsaved)',#1153,#1151);
#1153=PRODUCT_DEFINITION_FORMATION('',$,#1158);
#1154=PRODUCT_RELATED_PRODUCT_CATEGORY('(Unsaved)','(Unsaved)',(#1158));
#1155=APPLICATION_PROTOCOL_DEFINITION('international standard',
'automotive_design',2009,#1156);
#1156=APPLICATION_CONTEXT(
'Core Data for Automotive Mechanical Design Process');
#1157=PRODUCT_CONTEXT('part definition',#1156,'mechanical');
#1158=PRODUCT('(Unsaved)','(Unsaved)',$,(#1157));
#1159=PRESENTATION_STYLE_ASSIGNMENT((#1160));
#1160=SURFACE_STYLE_USAGE(.BOTH.,#1161);
#1161=SURFACE_SIDE_STYLE('',(#1162));
#1162=SURFACE_STYLE_FILL_AREA(#1163);
#1163=FILL_AREA_STYLE('Steel - Satin',(#1164));
#1164=FILL_AREA_STYLE_COLOUR('Steel - Satin',#1165);
#1165=COLOUR_RGB('Steel - Satin',0.627450980392157,0.627450980392157,0.627450980392157);
ENDSEC;
END-ISO-10303-21;
