ISO-10303-21;
HEADER;
/* Generated by software containing ST-Developer
 * from STEP Tools, Inc. (www.steptools.com) 
 */

FILE_DESCRIPTION(
/* description */ (''),
/* implementation_level */ '2;1');

FILE_NAME(
/* name */ 'drilled_007.step',
/* time_stamp */ '2024-11-25T12:10:18+03:00',
/* author */ (''),
/* organization */ (''),
/* preprocessor_version */ 'ST-DEVELOPER v20',
/* originating_system */ 'Autodesk Translation Framework v13.14.0.145',

/* authorisation */ '');

FILE_SCHEMA (('AUTOMOTIVE_DESIGN { 1 0 10303 214 3 1 1 }'));
ENDSEC;

DATA;
#10=MECHANICAL_DESIGN_GEOMETRIC_PRESENTATION_REPRESENTATION('',(#13),#1959);
#11=SHAPE_REPRESENTATION_RELATIONSHIP('SRR','None',#1966,#12);
#12=ADVANCED_BREP_SHAPE_REPRESENTATION('',(#14),#1958);
#13=STYLED_ITEM('',(#1975),#14);
#14=MANIFOLD_SOLID_BREP('Body1',#1147);
#15=FACE_BOUND('',#112,.T.);
#16=FACE_BOUND('',#139,.T.);
#17=PLANE('',#1179);
#18=PLANE('',#1190);
#19=PLANE('',#1191);
#20=PLANE('',#1194);
#21=PLANE('',#1195);
#22=PLANE('',#1198);
#23=PLANE('',#1199);
#24=PLANE('',#1201);
#25=PLANE('',#1203);
#26=PLANE('',#1205);
#27=PLANE('',#1207);
#28=PLANE('',#1209);
#29=PLANE('',#1211);
#30=PLANE('',#1216);
#31=PLANE('',#1219);
#32=PLANE('',#1238);
#33=PLANE('',#1244);
#34=PLANE('',#1245);
#35=PLANE('',#1246);
#36=PLANE('',#1248);
#37=PLANE('',#1250);
#38=PLANE('',#1252);
#39=PLANE('',#1254);
#40=PLANE('',#1256);
#41=PLANE('',#1260);
#42=PLANE('',#1262);
#43=PLANE('',#1263);
#44=PLANE('',#1265);
#45=PLANE('',#1272);
#46=PLANE('',#1274);
#47=FACE_OUTER_BOUND('',#105,.T.);
#48=FACE_OUTER_BOUND('',#106,.T.);
#49=FACE_OUTER_BOUND('',#107,.T.);
#50=FACE_OUTER_BOUND('',#108,.T.);
#51=FACE_OUTER_BOUND('',#109,.T.);
#52=FACE_OUTER_BOUND('',#110,.T.);
#53=FACE_OUTER_BOUND('',#111,.T.);
#54=FACE_OUTER_BOUND('',#113,.T.);
#55=FACE_OUTER_BOUND('',#114,.T.);
#56=FACE_OUTER_BOUND('',#115,.T.);
#57=FACE_OUTER_BOUND('',#116,.T.);
#58=FACE_OUTER_BOUND('',#117,.T.);
#59=FACE_OUTER_BOUND('',#118,.T.);
#60=FACE_OUTER_BOUND('',#119,.T.);
#61=FACE_OUTER_BOUND('',#120,.T.);
#62=FACE_OUTER_BOUND('',#121,.T.);
#63=FACE_OUTER_BOUND('',#122,.T.);
#64=FACE_OUTER_BOUND('',#123,.T.);
#65=FACE_OUTER_BOUND('',#124,.T.);
#66=FACE_OUTER_BOUND('',#125,.T.);
#67=FACE_OUTER_BOUND('',#126,.T.);
#68=FACE_OUTER_BOUND('',#127,.T.);
#69=FACE_OUTER_BOUND('',#128,.T.);
#70=FACE_OUTER_BOUND('',#129,.T.);
#71=FACE_OUTER_BOUND('',#130,.T.);
#72=FACE_OUTER_BOUND('',#131,.T.);
#73=FACE_OUTER_BOUND('',#132,.T.);
#74=FACE_OUTER_BOUND('',#133,.T.);
#75=FACE_OUTER_BOUND('',#134,.T.);
#76=FACE_OUTER_BOUND('',#135,.T.);
#77=FACE_OUTER_BOUND('',#136,.T.);
#78=FACE_OUTER_BOUND('',#137,.T.);
#79=FACE_OUTER_BOUND('',#138,.T.);
#80=FACE_OUTER_BOUND('',#140,.T.);
#81=FACE_OUTER_BOUND('',#141,.T.);
#82=FACE_OUTER_BOUND('',#142,.T.);
#83=FACE_OUTER_BOUND('',#143,.T.);
#84=FACE_OUTER_BOUND('',#144,.T.);
#85=FACE_OUTER_BOUND('',#145,.T.);
#86=FACE_OUTER_BOUND('',#146,.T.);
#87=FACE_OUTER_BOUND('',#147,.T.);
#88=FACE_OUTER_BOUND('',#148,.T.);
#89=FACE_OUTER_BOUND('',#149,.T.);
#90=FACE_OUTER_BOUND('',#150,.T.);
#91=FACE_OUTER_BOUND('',#151,.T.);
#92=FACE_OUTER_BOUND('',#152,.T.);
#93=FACE_OUTER_BOUND('',#153,.T.);
#94=FACE_OUTER_BOUND('',#154,.T.);
#95=FACE_OUTER_BOUND('',#155,.T.);
#96=FACE_OUTER_BOUND('',#156,.T.);
#97=FACE_OUTER_BOUND('',#157,.T.);
#98=FACE_OUTER_BOUND('',#158,.T.);
#99=FACE_OUTER_BOUND('',#159,.T.);
#100=FACE_OUTER_BOUND('',#160,.T.);
#101=FACE_OUTER_BOUND('',#161,.T.);
#102=FACE_OUTER_BOUND('',#162,.T.);
#103=FACE_OUTER_BOUND('',#163,.T.);
#104=FACE_OUTER_BOUND('',#164,.T.);
#105=EDGE_LOOP('',(#725,#726,#727,#728));
#106=EDGE_LOOP('',(#729,#730,#731,#732));
#107=EDGE_LOOP('',(#733,#734,#735,#736));
#108=EDGE_LOOP('',(#737,#738,#739,#740));
#109=EDGE_LOOP('',(#741,#742,#743,#744));
#110=EDGE_LOOP('',(#745,#746,#747,#748));
#111=EDGE_LOOP('',(#749,#750,#751,#752,#753,#754,#755,#756));
#112=EDGE_LOOP('',(#757,#758,#759,#760,#761,#762,#763,#764,#765,#766,#767,
#768,#769,#770,#771,#772,#773,#774,#775,#776,#777,#778,#779,#780));
#113=EDGE_LOOP('',(#781,#782,#783,#784,#785,#786,#787,#788));
#114=EDGE_LOOP('',(#789,#790,#791,#792,#793,#794,#795,#796));
#115=EDGE_LOOP('',(#797,#798,#799,#800));
#116=EDGE_LOOP('',(#801,#802,#803,#804,#805,#806,#807,#808));
#117=EDGE_LOOP('',(#809,#810,#811,#812,#813,#814,#815,#816));
#118=EDGE_LOOP('',(#817,#818,#819,#820));
#119=EDGE_LOOP('',(#821,#822,#823,#824,#825,#826,#827,#828));
#120=EDGE_LOOP('',(#829,#830,#831,#832));
#121=EDGE_LOOP('',(#833,#834,#835,#836));
#122=EDGE_LOOP('',(#837,#838,#839,#840));
#123=EDGE_LOOP('',(#841,#842,#843,#844));
#124=EDGE_LOOP('',(#845,#846,#847,#848));
#125=EDGE_LOOP('',(#849,#850,#851,#852));
#126=EDGE_LOOP('',(#853,#854,#855,#856,#857,#858,#859,#860));
#127=EDGE_LOOP('',(#861,#862,#863,#864));
#128=EDGE_LOOP('',(#865,#866,#867,#868));
#129=EDGE_LOOP('',(#869,#870,#871,#872));
#130=EDGE_LOOP('',(#873,#874,#875,#876));
#131=EDGE_LOOP('',(#877,#878,#879,#880));
#132=EDGE_LOOP('',(#881,#882,#883,#884));
#133=EDGE_LOOP('',(#885,#886,#887,#888));
#134=EDGE_LOOP('',(#889,#890,#891,#892));
#135=EDGE_LOOP('',(#893,#894,#895,#896));
#136=EDGE_LOOP('',(#897,#898,#899,#900));
#137=EDGE_LOOP('',(#901,#902,#903,#904));
#138=EDGE_LOOP('',(#905,#906,#907,#908,#909,#910,#911,#912));
#139=EDGE_LOOP('',(#913,#914,#915,#916,#917,#918,#919,#920,#921,#922,#923,
#924,#925,#926,#927,#928,#929,#930,#931,#932,#933,#934,#935,#936));
#140=EDGE_LOOP('',(#937,#938,#939,#940,#941,#942,#943,#944));
#141=EDGE_LOOP('',(#945,#946,#947,#948,#949,#950,#951,#952));
#142=EDGE_LOOP('',(#953,#954,#955,#956));
#143=EDGE_LOOP('',(#957,#958,#959,#960));
#144=EDGE_LOOP('',(#961,#962,#963,#964));
#145=EDGE_LOOP('',(#965,#966,#967,#968));
#146=EDGE_LOOP('',(#969,#970,#971,#972));
#147=EDGE_LOOP('',(#973,#974,#975,#976));
#148=EDGE_LOOP('',(#977,#978,#979,#980));
#149=EDGE_LOOP('',(#981,#982,#983,#984));
#150=EDGE_LOOP('',(#985,#986,#987,#988,#989,#990,#991,#992));
#151=EDGE_LOOP('',(#993,#994,#995,#996));
#152=EDGE_LOOP('',(#997,#998,#999,#1000,#1001,#1002,#1003,#1004));
#153=EDGE_LOOP('',(#1005,#1006,#1007,#1008,#1009,#1010,#1011,#1012));
#154=EDGE_LOOP('',(#1013,#1014,#1015,#1016));
#155=EDGE_LOOP('',(#1017,#1018,#1019,#1020,#1021,#1022,#1023,#1024));
#156=EDGE_LOOP('',(#1025,#1026,#1027,#1028));
#157=EDGE_LOOP('',(#1029,#1030,#1031,#1032));
#158=EDGE_LOOP('',(#1033,#1034,#1035,#1036));
#159=EDGE_LOOP('',(#1037,#1038,#1039,#1040));
#160=EDGE_LOOP('',(#1041,#1042,#1043,#1044));
#161=EDGE_LOOP('',(#1045,#1046,#1047,#1048));
#162=EDGE_LOOP('',(#1049,#1050,#1051,#1052));
#163=EDGE_LOOP('',(#1053,#1054,#1055,#1056));
#164=EDGE_LOOP('',(#1057,#1058,#1059,#1060));
#165=LINE('',#1623,#277);
#166=LINE('',#1626,#278);
#167=LINE('',#1632,#279);
#168=LINE('',#1635,#280);
#169=LINE('',#1641,#281);
#170=LINE('',#1644,#282);
#171=LINE('',#1650,#283);
#172=LINE('',#1653,#284);
#173=LINE('',#1659,#285);
#174=LINE('',#1662,#286);
#175=LINE('',#1668,#287);
#176=LINE('',#1671,#288);
#177=LINE('',#1675,#289);
#178=LINE('',#1679,#290);
#179=LINE('',#1683,#291);
#180=LINE('',#1687,#292);
#181=LINE('',#1692,#293);
#182=LINE('',#1694,#294);
#183=LINE('',#1697,#295);
#184=LINE('',#1699,#296);
#185=LINE('',#1702,#297);
#186=LINE('',#1704,#298);
#187=LINE('',#1707,#299);
#188=LINE('',#1709,#300);
#189=LINE('',#1712,#301);
#190=LINE('',#1714,#302);
#191=LINE('',#1717,#303);
#192=LINE('',#1718,#304);
#193=LINE('',#1721,#305);
#194=LINE('',#1723,#306);
#195=LINE('',#1725,#307);
#196=LINE('',#1727,#308);
#197=LINE('',#1729,#309);
#198=LINE('',#1730,#310);
#199=LINE('',#1733,#311);
#200=LINE('',#1735,#312);
#201=LINE('',#1737,#313);
#202=LINE('',#1739,#314);
#203=LINE('',#1741,#315);
#204=LINE('',#1742,#316);
#205=LINE('',#1745,#317);
#206=LINE('',#1749,#318);
#207=LINE('',#1751,#319);
#208=LINE('',#1753,#320);
#209=LINE('',#1755,#321);
#210=LINE('',#1756,#322);
#211=LINE('',#1759,#323);
#212=LINE('',#1761,#324);
#213=LINE('',#1763,#325);
#214=LINE('',#1765,#326);
#215=LINE('',#1767,#327);
#216=LINE('',#1768,#328);
#217=LINE('',#1771,#329);
#218=LINE('',#1775,#330);
#219=LINE('',#1777,#331);
#220=LINE('',#1779,#332);
#221=LINE('',#1781,#333);
#222=LINE('',#1782,#334);
#223=LINE('',#1787,#335);
#224=LINE('',#1791,#336);
#225=LINE('',#1794,#337);
#226=LINE('',#1797,#338);
#227=LINE('',#1800,#339);
#228=LINE('',#1803,#340);
#229=LINE('',#1806,#341);
#230=LINE('',#1811,#342);
#231=LINE('',#1813,#343);
#232=LINE('',#1815,#344);
#233=LINE('',#1817,#345);
#234=LINE('',#1818,#346);
#235=LINE('',#1821,#347);
#236=LINE('',#1825,#348);
#237=LINE('',#1828,#349);
#238=LINE('',#1831,#350);
#239=LINE('',#1832,#351);
#240=LINE('',#1835,#352);
#241=LINE('',#1839,#353);
#242=LINE('',#1840,#354);
#243=LINE('',#1852,#355);
#244=LINE('',#1855,#356);
#245=LINE('',#1861,#357);
#246=LINE('',#1864,#358);
#247=LINE('',#1870,#359);
#248=LINE('',#1873,#360);
#249=LINE('',#1881,#361);
#250=LINE('',#1884,#362);
#251=LINE('',#1885,#363);
#252=LINE('',#1887,#364);
#253=LINE('',#1890,#365);
#254=LINE('',#1892,#366);
#255=LINE('',#1895,#367);
#256=LINE('',#1897,#368);
#257=LINE('',#1900,#369);
#258=LINE('',#1902,#370);
#259=LINE('',#1903,#371);
#260=LINE('',#1906,#372);
#261=LINE('',#1907,#373);
#262=LINE('',#1916,#374);
#263=LINE('',#1919,#375);
#264=LINE('',#1922,#376);
#265=LINE('',#1925,#377);
#266=LINE('',#1929,#378);
#267=LINE('',#1931,#379);
#268=LINE('',#1933,#380);
#269=LINE('',#1935,#381);
#270=LINE('',#1936,#382);
#271=LINE('',#1938,#383);
#272=LINE('',#1940,#384);
#273=LINE('',#1942,#385);
#274=LINE('',#1944,#386);
#275=LINE('',#1952,#387);
#276=LINE('',#1954,#388);
#277=VECTOR('',#1281,10.);
#278=VECTOR('',#1284,10.);
#279=VECTOR('',#1289,10.);
#280=VECTOR('',#1292,10.);
#281=VECTOR('',#1297,10.);
#282=VECTOR('',#1300,10.);
#283=VECTOR('',#1305,10.);
#284=VECTOR('',#1308,10.);
#285=VECTOR('',#1313,10.);
#286=VECTOR('',#1316,10.);
#287=VECTOR('',#1321,10.);
#288=VECTOR('',#1324,10.);
#289=VECTOR('',#1327,10.);
#290=VECTOR('',#1330,10.);
#291=VECTOR('',#1333,10.);
#292=VECTOR('',#1336,10.);
#293=VECTOR('',#1341,10.);
#294=VECTOR('',#1342,10.);
#295=VECTOR('',#1345,10.);
#296=VECTOR('',#1346,10.);
#297=VECTOR('',#1349,10.);
#298=VECTOR('',#1350,10.);
#299=VECTOR('',#1353,10.);
#300=VECTOR('',#1354,10.);
#301=VECTOR('',#1357,10.);
#302=VECTOR('',#1358,10.);
#303=VECTOR('',#1361,10.);
#304=VECTOR('',#1362,10.);
#305=VECTOR('',#1365,10.);
#306=VECTOR('',#1366,10.);
#307=VECTOR('',#1367,10.);
#308=VECTOR('',#1368,10.);
#309=VECTOR('',#1369,10.);
#310=VECTOR('',#1370,10.);
#311=VECTOR('',#1373,10.);
#312=VECTOR('',#1374,10.);
#313=VECTOR('',#1375,10.);
#314=VECTOR('',#1376,10.);
#315=VECTOR('',#1377,10.);
#316=VECTOR('',#1378,10.);
#317=VECTOR('',#1381,10.);
#318=VECTOR('',#1386,10.);
#319=VECTOR('',#1387,10.);
#320=VECTOR('',#1388,10.);
#321=VECTOR('',#1389,10.);
#322=VECTOR('',#1390,10.);
#323=VECTOR('',#1393,10.);
#324=VECTOR('',#1394,10.);
#325=VECTOR('',#1395,10.);
#326=VECTOR('',#1396,10.);
#327=VECTOR('',#1397,10.);
#328=VECTOR('',#1398,10.);
#329=VECTOR('',#1401,10.);
#330=VECTOR('',#1406,10.);
#331=VECTOR('',#1407,10.);
#332=VECTOR('',#1408,10.);
#333=VECTOR('',#1409,10.);
#334=VECTOR('',#1410,10.);
#335=VECTOR('',#1417,10.);
#336=VECTOR('',#1422,10.);
#337=VECTOR('',#1425,10.);
#338=VECTOR('',#1428,10.);
#339=VECTOR('',#1431,10.);
#340=VECTOR('',#1434,10.);
#341=VECTOR('',#1437,10.);
#342=VECTOR('',#1444,10.);
#343=VECTOR('',#1445,10.);
#344=VECTOR('',#1446,10.);
#345=VECTOR('',#1447,10.);
#346=VECTOR('',#1448,10.);
#347=VECTOR('',#1451,10.);
#348=VECTOR('',#1456,10.);
#349=VECTOR('',#1459,10.);
#350=VECTOR('',#1462,10.);
#351=VECTOR('',#1463,10.);
#352=VECTOR('',#1466,10.);
#353=VECTOR('',#1471,10.);
#354=VECTOR('',#1472,10.);
#355=VECTOR('',#1489,10.);
#356=VECTOR('',#1492,10.);
#357=VECTOR('',#1497,10.);
#358=VECTOR('',#1500,10.);
#359=VECTOR('',#1505,10.);
#360=VECTOR('',#1508,10.);
#361=VECTOR('',#1519,10.);
#362=VECTOR('',#1522,10.);
#363=VECTOR('',#1523,10.);
#364=VECTOR('',#1524,10.);
#365=VECTOR('',#1527,10.);
#366=VECTOR('',#1528,10.);
#367=VECTOR('',#1531,10.);
#368=VECTOR('',#1532,10.);
#369=VECTOR('',#1537,10.);
#370=VECTOR('',#1538,10.);
#371=VECTOR('',#1539,10.);
#372=VECTOR('',#1542,10.);
#373=VECTOR('',#1543,10.);
#374=VECTOR('',#1558,10.);
#375=VECTOR('',#1561,10.);
#376=VECTOR('',#1564,10.);
#377=VECTOR('',#1567,10.);
#378=VECTOR('',#1574,10.);
#379=VECTOR('',#1577,10.);
#380=VECTOR('',#1580,10.);
#381=VECTOR('',#1583,10.);
#382=VECTOR('',#1584,10.);
#383=VECTOR('',#1587,10.);
#384=VECTOR('',#1590,10.);
#385=VECTOR('',#1593,10.);
#386=VECTOR('',#1596,10.);
#387=VECTOR('',#1611,10.);
#388=VECTOR('',#1614,10.);
#389=CIRCLE('',#1162,14.4749373263453);
#390=CIRCLE('',#1163,14.4749373263453);
#391=CIRCLE('',#1165,14.4749373263453);
#392=CIRCLE('',#1166,14.4749373263453);
#393=CIRCLE('',#1168,14.4749373263453);
#394=CIRCLE('',#1169,14.4749373263453);
#395=CIRCLE('',#1171,14.4749373263453);
#396=CIRCLE('',#1172,14.4749373263453);
#397=CIRCLE('',#1174,14.4749373263453);
#398=CIRCLE('',#1175,14.4749373263453);
#399=CIRCLE('',#1177,14.4749373263453);
#400=CIRCLE('',#1178,14.4749373263453);
#401=CIRCLE('',#1180,7.5);
#402=CIRCLE('',#1181,7.5);
#403=CIRCLE('',#1182,7.5);
#404=CIRCLE('',#1183,7.5);
#405=CIRCLE('',#1184,1.00000001490116);
#406=CIRCLE('',#1185,2.00000002980232);
#407=CIRCLE('',#1186,1.00000001490116);
#408=CIRCLE('',#1187,2.00000002980232);
#409=CIRCLE('',#1188,1.00000001490116);
#410=CIRCLE('',#1189,2.00000002980232);
#411=CIRCLE('',#1193,1.00000001490116);
#412=CIRCLE('',#1197,2.00000002980232);
#413=CIRCLE('',#1200,10.);
#414=CIRCLE('',#1202,10.);
#415=CIRCLE('',#1204,10.);
#416=CIRCLE('',#1206,10.);
#417=CIRCLE('',#1208,10.);
#418=CIRCLE('',#1210,10.);
#419=CIRCLE('',#1213,1.00000001490116);
#420=CIRCLE('',#1215,7.5);
#421=CIRCLE('',#1218,7.5);
#422=CIRCLE('',#1221,14.5094386738918);
#423=CIRCLE('',#1222,14.5094386738918);
#424=CIRCLE('',#1224,14.5094386738918);
#425=CIRCLE('',#1225,14.5094386738918);
#426=CIRCLE('',#1227,14.5094386738918);
#427=CIRCLE('',#1228,14.5094386738918);
#428=CIRCLE('',#1230,14.5094386738918);
#429=CIRCLE('',#1231,14.5094386738918);
#430=CIRCLE('',#1233,14.5094386738918);
#431=CIRCLE('',#1234,14.5094386738918);
#432=CIRCLE('',#1236,14.5094386738918);
#433=CIRCLE('',#1237,14.5094386738918);
#434=CIRCLE('',#1239,7.5);
#435=CIRCLE('',#1240,7.5);
#436=CIRCLE('',#1241,2.00000002980232);
#437=CIRCLE('',#1242,1.00000001490116);
#438=CIRCLE('',#1243,2.00000002980232);
#439=CIRCLE('',#1247,10.);
#440=CIRCLE('',#1249,10.);
#441=CIRCLE('',#1251,10.);
#442=CIRCLE('',#1253,10.);
#443=CIRCLE('',#1255,10.);
#444=CIRCLE('',#1257,10.);
#445=VERTEX_POINT('',#1619);
#446=VERTEX_POINT('',#1620);
#447=VERTEX_POINT('',#1622);
#448=VERTEX_POINT('',#1624);
#449=VERTEX_POINT('',#1628);
#450=VERTEX_POINT('',#1629);
#451=VERTEX_POINT('',#1631);
#452=VERTEX_POINT('',#1633);
#453=VERTEX_POINT('',#1637);
#454=VERTEX_POINT('',#1638);
#455=VERTEX_POINT('',#1640);
#456=VERTEX_POINT('',#1642);
#457=VERTEX_POINT('',#1646);
#458=VERTEX_POINT('',#1647);
#459=VERTEX_POINT('',#1649);
#460=VERTEX_POINT('',#1651);
#461=VERTEX_POINT('',#1655);
#462=VERTEX_POINT('',#1656);
#463=VERTEX_POINT('',#1658);
#464=VERTEX_POINT('',#1660);
#465=VERTEX_POINT('',#1664);
#466=VERTEX_POINT('',#1665);
#467=VERTEX_POINT('',#1667);
#468=VERTEX_POINT('',#1669);
#469=VERTEX_POINT('',#1673);
#470=VERTEX_POINT('',#1674);
#471=VERTEX_POINT('',#1676);
#472=VERTEX_POINT('',#1678);
#473=VERTEX_POINT('',#1680);
#474=VERTEX_POINT('',#1682);
#475=VERTEX_POINT('',#1684);
#476=VERTEX_POINT('',#1686);
#477=VERTEX_POINT('',#1689);
#478=VERTEX_POINT('',#1690);
#479=VERTEX_POINT('',#1693);
#480=VERTEX_POINT('',#1695);
#481=VERTEX_POINT('',#1698);
#482=VERTEX_POINT('',#1700);
#483=VERTEX_POINT('',#1703);
#484=VERTEX_POINT('',#1705);
#485=VERTEX_POINT('',#1708);
#486=VERTEX_POINT('',#1710);
#487=VERTEX_POINT('',#1713);
#488=VERTEX_POINT('',#1715);
#489=VERTEX_POINT('',#1720);
#490=VERTEX_POINT('',#1722);
#491=VERTEX_POINT('',#1724);
#492=VERTEX_POINT('',#1726);
#493=VERTEX_POINT('',#1728);
#494=VERTEX_POINT('',#1732);
#495=VERTEX_POINT('',#1734);
#496=VERTEX_POINT('',#1736);
#497=VERTEX_POINT('',#1738);
#498=VERTEX_POINT('',#1740);
#499=VERTEX_POINT('',#1744);
#500=VERTEX_POINT('',#1748);
#501=VERTEX_POINT('',#1750);
#502=VERTEX_POINT('',#1752);
#503=VERTEX_POINT('',#1754);
#504=VERTEX_POINT('',#1758);
#505=VERTEX_POINT('',#1760);
#506=VERTEX_POINT('',#1762);
#507=VERTEX_POINT('',#1764);
#508=VERTEX_POINT('',#1766);
#509=VERTEX_POINT('',#1770);
#510=VERTEX_POINT('',#1774);
#511=VERTEX_POINT('',#1776);
#512=VERTEX_POINT('',#1778);
#513=VERTEX_POINT('',#1780);
#514=VERTEX_POINT('',#1786);
#515=VERTEX_POINT('',#1790);
#516=VERTEX_POINT('',#1792);
#517=VERTEX_POINT('',#1796);
#518=VERTEX_POINT('',#1798);
#519=VERTEX_POINT('',#1802);
#520=VERTEX_POINT('',#1804);
#521=VERTEX_POINT('',#1810);
#522=VERTEX_POINT('',#1812);
#523=VERTEX_POINT('',#1814);
#524=VERTEX_POINT('',#1816);
#525=VERTEX_POINT('',#1820);
#526=VERTEX_POINT('',#1824);
#527=VERTEX_POINT('',#1826);
#528=VERTEX_POINT('',#1830);
#529=VERTEX_POINT('',#1834);
#530=VERTEX_POINT('',#1838);
#531=VERTEX_POINT('',#1848);
#532=VERTEX_POINT('',#1849);
#533=VERTEX_POINT('',#1851);
#534=VERTEX_POINT('',#1853);
#535=VERTEX_POINT('',#1857);
#536=VERTEX_POINT('',#1858);
#537=VERTEX_POINT('',#1860);
#538=VERTEX_POINT('',#1862);
#539=VERTEX_POINT('',#1866);
#540=VERTEX_POINT('',#1867);
#541=VERTEX_POINT('',#1869);
#542=VERTEX_POINT('',#1871);
#543=VERTEX_POINT('',#1878);
#544=VERTEX_POINT('',#1880);
#545=VERTEX_POINT('',#1882);
#546=VERTEX_POINT('',#1886);
#547=VERTEX_POINT('',#1888);
#548=VERTEX_POINT('',#1891);
#549=VERTEX_POINT('',#1893);
#550=VERTEX_POINT('',#1896);
#551=VERTEX_POINT('',#1901);
#552=VERTEX_POINT('',#1905);
#553=VERTEX_POINT('',#1915);
#554=VERTEX_POINT('',#1917);
#555=VERTEX_POINT('',#1921);
#556=VERTEX_POINT('',#1923);
#557=EDGE_CURVE('',#445,#446,#389,.T.);
#558=EDGE_CURVE('',#447,#445,#165,.T.);
#559=EDGE_CURVE('',#447,#448,#390,.T.);
#560=EDGE_CURVE('',#446,#448,#166,.T.);
#561=EDGE_CURVE('',#449,#450,#391,.T.);
#562=EDGE_CURVE('',#451,#449,#167,.T.);
#563=EDGE_CURVE('',#451,#452,#392,.T.);
#564=EDGE_CURVE('',#450,#452,#168,.T.);
#565=EDGE_CURVE('',#453,#454,#393,.T.);
#566=EDGE_CURVE('',#455,#453,#169,.T.);
#567=EDGE_CURVE('',#455,#456,#394,.T.);
#568=EDGE_CURVE('',#454,#456,#170,.T.);
#569=EDGE_CURVE('',#457,#458,#395,.T.);
#570=EDGE_CURVE('',#459,#457,#171,.T.);
#571=EDGE_CURVE('',#459,#460,#396,.T.);
#572=EDGE_CURVE('',#458,#460,#172,.T.);
#573=EDGE_CURVE('',#461,#462,#397,.T.);
#574=EDGE_CURVE('',#463,#461,#173,.T.);
#575=EDGE_CURVE('',#463,#464,#398,.T.);
#576=EDGE_CURVE('',#462,#464,#174,.T.);
#577=EDGE_CURVE('',#465,#466,#399,.T.);
#578=EDGE_CURVE('',#467,#465,#175,.T.);
#579=EDGE_CURVE('',#467,#468,#400,.T.);
#580=EDGE_CURVE('',#466,#468,#176,.T.);
#581=EDGE_CURVE('',#469,#470,#177,.T.);
#582=EDGE_CURVE('',#471,#469,#401,.T.);
#583=EDGE_CURVE('',#472,#471,#178,.T.);
#584=EDGE_CURVE('',#473,#472,#402,.T.);
#585=EDGE_CURVE('',#474,#473,#179,.T.);
#586=EDGE_CURVE('',#475,#474,#403,.T.);
#587=EDGE_CURVE('',#476,#475,#180,.T.);
#588=EDGE_CURVE('',#470,#476,#404,.T.);
#589=EDGE_CURVE('',#477,#478,#405,.T.);
#590=EDGE_CURVE('',#448,#477,#181,.T.);
#591=EDGE_CURVE('',#479,#447,#182,.T.);
#592=EDGE_CURVE('',#480,#479,#406,.T.);
#593=EDGE_CURVE('',#452,#480,#183,.T.);
#594=EDGE_CURVE('',#481,#451,#184,.T.);
#595=EDGE_CURVE('',#482,#481,#407,.T.);
#596=EDGE_CURVE('',#456,#482,#185,.T.);
#597=EDGE_CURVE('',#483,#455,#186,.T.);
#598=EDGE_CURVE('',#484,#483,#408,.T.);
#599=EDGE_CURVE('',#460,#484,#187,.T.);
#600=EDGE_CURVE('',#485,#459,#188,.T.);
#601=EDGE_CURVE('',#486,#485,#409,.T.);
#602=EDGE_CURVE('',#464,#486,#189,.T.);
#603=EDGE_CURVE('',#487,#463,#190,.T.);
#604=EDGE_CURVE('',#488,#487,#410,.T.);
#605=EDGE_CURVE('',#468,#488,#191,.T.);
#606=EDGE_CURVE('',#478,#467,#192,.T.);
#607=EDGE_CURVE('',#489,#453,#193,.T.);
#608=EDGE_CURVE('',#490,#489,#194,.T.);
#609=EDGE_CURVE('',#491,#490,#195,.T.);
#610=EDGE_CURVE('',#491,#492,#196,.T.);
#611=EDGE_CURVE('',#492,#493,#197,.T.);
#612=EDGE_CURVE('',#493,#483,#198,.T.);
#613=EDGE_CURVE('',#494,#482,#199,.T.);
#614=EDGE_CURVE('',#494,#495,#200,.T.);
#615=EDGE_CURVE('',#495,#496,#201,.T.);
#616=EDGE_CURVE('',#497,#496,#202,.T.);
#617=EDGE_CURVE('',#498,#497,#203,.T.);
#618=EDGE_CURVE('',#454,#498,#204,.T.);
#619=EDGE_CURVE('',#499,#481,#205,.T.);
#620=EDGE_CURVE('',#499,#494,#411,.T.);
#621=EDGE_CURVE('',#500,#449,#206,.T.);
#622=EDGE_CURVE('',#501,#500,#207,.T.);
#623=EDGE_CURVE('',#502,#501,#208,.T.);
#624=EDGE_CURVE('',#502,#503,#209,.T.);
#625=EDGE_CURVE('',#503,#499,#210,.T.);
#626=EDGE_CURVE('',#504,#480,#211,.T.);
#627=EDGE_CURVE('',#504,#505,#212,.T.);
#628=EDGE_CURVE('',#505,#506,#213,.T.);
#629=EDGE_CURVE('',#507,#506,#214,.T.);
#630=EDGE_CURVE('',#508,#507,#215,.T.);
#631=EDGE_CURVE('',#450,#508,#216,.T.);
#632=EDGE_CURVE('',#509,#479,#217,.T.);
#633=EDGE_CURVE('',#509,#504,#412,.T.);
#634=EDGE_CURVE('',#510,#445,#218,.T.);
#635=EDGE_CURVE('',#511,#510,#219,.T.);
#636=EDGE_CURVE('',#512,#511,#220,.T.);
#637=EDGE_CURVE('',#512,#513,#221,.T.);
#638=EDGE_CURVE('',#513,#509,#222,.T.);
#639=EDGE_CURVE('',#508,#500,#413,.T.);
#640=EDGE_CURVE('',#446,#514,#223,.T.);
#641=EDGE_CURVE('',#514,#510,#414,.T.);
#642=EDGE_CURVE('',#466,#515,#224,.T.);
#643=EDGE_CURVE('',#515,#516,#415,.T.);
#644=EDGE_CURVE('',#516,#465,#225,.T.);
#645=EDGE_CURVE('',#462,#517,#226,.T.);
#646=EDGE_CURVE('',#517,#518,#416,.T.);
#647=EDGE_CURVE('',#518,#461,#227,.T.);
#648=EDGE_CURVE('',#458,#519,#228,.T.);
#649=EDGE_CURVE('',#519,#520,#417,.T.);
#650=EDGE_CURVE('',#520,#457,#229,.T.);
#651=EDGE_CURVE('',#498,#489,#418,.T.);
#652=EDGE_CURVE('',#521,#477,#230,.T.);
#653=EDGE_CURVE('',#521,#522,#231,.T.);
#654=EDGE_CURVE('',#522,#523,#232,.T.);
#655=EDGE_CURVE('',#524,#523,#233,.T.);
#656=EDGE_CURVE('',#514,#524,#234,.T.);
#657=EDGE_CURVE('',#525,#478,#235,.T.);
#658=EDGE_CURVE('',#525,#521,#419,.T.);
#659=EDGE_CURVE('',#472,#526,#236,.T.);
#660=EDGE_CURVE('',#526,#527,#420,.T.);
#661=EDGE_CURVE('',#527,#473,#237,.T.);
#662=EDGE_CURVE('',#528,#471,#238,.T.);
#663=EDGE_CURVE('',#528,#526,#239,.T.);
#664=EDGE_CURVE('',#469,#529,#240,.T.);
#665=EDGE_CURVE('',#529,#528,#421,.T.);
#666=EDGE_CURVE('',#530,#470,#241,.T.);
#667=EDGE_CURVE('',#530,#529,#242,.T.);
#668=EDGE_CURVE('',#506,#502,#422,.T.);
#669=EDGE_CURVE('',#505,#503,#423,.T.);
#670=EDGE_CURVE('',#523,#512,#424,.T.);
#671=EDGE_CURVE('',#522,#513,#425,.T.);
#672=EDGE_CURVE('',#531,#532,#426,.T.);
#673=EDGE_CURVE('',#533,#531,#243,.T.);
#674=EDGE_CURVE('',#533,#534,#427,.T.);
#675=EDGE_CURVE('',#532,#534,#244,.T.);
#676=EDGE_CURVE('',#535,#536,#428,.T.);
#677=EDGE_CURVE('',#537,#535,#245,.T.);
#678=EDGE_CURVE('',#537,#538,#429,.T.);
#679=EDGE_CURVE('',#536,#538,#246,.T.);
#680=EDGE_CURVE('',#539,#540,#430,.T.);
#681=EDGE_CURVE('',#541,#539,#247,.T.);
#682=EDGE_CURVE('',#541,#542,#431,.T.);
#683=EDGE_CURVE('',#540,#542,#248,.T.);
#684=EDGE_CURVE('',#496,#491,#432,.T.);
#685=EDGE_CURVE('',#495,#492,#433,.T.);
#686=EDGE_CURVE('',#543,#530,#434,.T.);
#687=EDGE_CURVE('',#544,#543,#249,.T.);
#688=EDGE_CURVE('',#545,#544,#435,.T.);
#689=EDGE_CURVE('',#527,#545,#250,.T.);
#690=EDGE_CURVE('',#534,#525,#251,.T.);
#691=EDGE_CURVE('',#546,#533,#252,.T.);
#692=EDGE_CURVE('',#547,#546,#436,.T.);
#693=EDGE_CURVE('',#538,#547,#253,.T.);
#694=EDGE_CURVE('',#548,#537,#254,.T.);
#695=EDGE_CURVE('',#549,#548,#437,.T.);
#696=EDGE_CURVE('',#542,#549,#255,.T.);
#697=EDGE_CURVE('',#550,#541,#256,.T.);
#698=EDGE_CURVE('',#493,#550,#438,.T.);
#699=EDGE_CURVE('',#546,#488,#257,.T.);
#700=EDGE_CURVE('',#551,#531,#258,.T.);
#701=EDGE_CURVE('',#515,#551,#259,.T.);
#702=EDGE_CURVE('',#552,#516,#260,.T.);
#703=EDGE_CURVE('',#532,#552,#261,.T.);
#704=EDGE_CURVE('',#511,#524,#439,.T.);
#705=EDGE_CURVE('',#501,#507,#440,.T.);
#706=EDGE_CURVE('',#490,#497,#441,.T.);
#707=EDGE_CURVE('',#540,#553,#262,.T.);
#708=EDGE_CURVE('',#553,#554,#442,.T.);
#709=EDGE_CURVE('',#554,#539,#263,.T.);
#710=EDGE_CURVE('',#536,#555,#264,.T.);
#711=EDGE_CURVE('',#555,#556,#443,.T.);
#712=EDGE_CURVE('',#556,#535,#265,.T.);
#713=EDGE_CURVE('',#552,#551,#444,.T.);
#714=EDGE_CURVE('',#476,#543,#266,.T.);
#715=EDGE_CURVE('',#550,#484,#267,.T.);
#716=EDGE_CURVE('',#519,#554,#268,.T.);
#717=EDGE_CURVE('',#549,#485,#269,.T.);
#718=EDGE_CURVE('',#548,#486,#270,.T.);
#719=EDGE_CURVE('',#517,#556,#271,.T.);
#720=EDGE_CURVE('',#553,#520,#272,.T.);
#721=EDGE_CURVE('',#547,#487,#273,.T.);
#722=EDGE_CURVE('',#555,#518,#274,.T.);
#723=EDGE_CURVE('',#544,#475,#275,.T.);
#724=EDGE_CURVE('',#474,#545,#276,.T.);
#725=ORIENTED_EDGE('',*,*,#557,.F.);
#726=ORIENTED_EDGE('',*,*,#558,.F.);
#727=ORIENTED_EDGE('',*,*,#559,.T.);
#728=ORIENTED_EDGE('',*,*,#560,.F.);
#729=ORIENTED_EDGE('',*,*,#561,.F.);
#730=ORIENTED_EDGE('',*,*,#562,.F.);
#731=ORIENTED_EDGE('',*,*,#563,.T.);
#732=ORIENTED_EDGE('',*,*,#564,.F.);
#733=ORIENTED_EDGE('',*,*,#565,.F.);
#734=ORIENTED_EDGE('',*,*,#566,.F.);
#735=ORIENTED_EDGE('',*,*,#567,.T.);
#736=ORIENTED_EDGE('',*,*,#568,.F.);
#737=ORIENTED_EDGE('',*,*,#569,.F.);
#738=ORIENTED_EDGE('',*,*,#570,.F.);
#739=ORIENTED_EDGE('',*,*,#571,.T.);
#740=ORIENTED_EDGE('',*,*,#572,.F.);
#741=ORIENTED_EDGE('',*,*,#573,.F.);
#742=ORIENTED_EDGE('',*,*,#574,.F.);
#743=ORIENTED_EDGE('',*,*,#575,.T.);
#744=ORIENTED_EDGE('',*,*,#576,.F.);
#745=ORIENTED_EDGE('',*,*,#577,.F.);
#746=ORIENTED_EDGE('',*,*,#578,.F.);
#747=ORIENTED_EDGE('',*,*,#579,.T.);
#748=ORIENTED_EDGE('',*,*,#580,.F.);
#749=ORIENTED_EDGE('',*,*,#581,.F.);
#750=ORIENTED_EDGE('',*,*,#582,.F.);
#751=ORIENTED_EDGE('',*,*,#583,.F.);
#752=ORIENTED_EDGE('',*,*,#584,.F.);
#753=ORIENTED_EDGE('',*,*,#585,.F.);
#754=ORIENTED_EDGE('',*,*,#586,.F.);
#755=ORIENTED_EDGE('',*,*,#587,.F.);
#756=ORIENTED_EDGE('',*,*,#588,.F.);
#757=ORIENTED_EDGE('',*,*,#589,.F.);
#758=ORIENTED_EDGE('',*,*,#590,.F.);
#759=ORIENTED_EDGE('',*,*,#559,.F.);
#760=ORIENTED_EDGE('',*,*,#591,.F.);
#761=ORIENTED_EDGE('',*,*,#592,.F.);
#762=ORIENTED_EDGE('',*,*,#593,.F.);
#763=ORIENTED_EDGE('',*,*,#563,.F.);
#764=ORIENTED_EDGE('',*,*,#594,.F.);
#765=ORIENTED_EDGE('',*,*,#595,.F.);
#766=ORIENTED_EDGE('',*,*,#596,.F.);
#767=ORIENTED_EDGE('',*,*,#567,.F.);
#768=ORIENTED_EDGE('',*,*,#597,.F.);
#769=ORIENTED_EDGE('',*,*,#598,.F.);
#770=ORIENTED_EDGE('',*,*,#599,.F.);
#771=ORIENTED_EDGE('',*,*,#571,.F.);
#772=ORIENTED_EDGE('',*,*,#600,.F.);
#773=ORIENTED_EDGE('',*,*,#601,.F.);
#774=ORIENTED_EDGE('',*,*,#602,.F.);
#775=ORIENTED_EDGE('',*,*,#575,.F.);
#776=ORIENTED_EDGE('',*,*,#603,.F.);
#777=ORIENTED_EDGE('',*,*,#604,.F.);
#778=ORIENTED_EDGE('',*,*,#605,.F.);
#779=ORIENTED_EDGE('',*,*,#579,.F.);
#780=ORIENTED_EDGE('',*,*,#606,.F.);
#781=ORIENTED_EDGE('',*,*,#597,.T.);
#782=ORIENTED_EDGE('',*,*,#566,.T.);
#783=ORIENTED_EDGE('',*,*,#607,.F.);
#784=ORIENTED_EDGE('',*,*,#608,.F.);
#785=ORIENTED_EDGE('',*,*,#609,.F.);
#786=ORIENTED_EDGE('',*,*,#610,.T.);
#787=ORIENTED_EDGE('',*,*,#611,.T.);
#788=ORIENTED_EDGE('',*,*,#612,.T.);
#789=ORIENTED_EDGE('',*,*,#568,.T.);
#790=ORIENTED_EDGE('',*,*,#596,.T.);
#791=ORIENTED_EDGE('',*,*,#613,.F.);
#792=ORIENTED_EDGE('',*,*,#614,.T.);
#793=ORIENTED_EDGE('',*,*,#615,.T.);
#794=ORIENTED_EDGE('',*,*,#616,.F.);
#795=ORIENTED_EDGE('',*,*,#617,.F.);
#796=ORIENTED_EDGE('',*,*,#618,.F.);
#797=ORIENTED_EDGE('',*,*,#595,.T.);
#798=ORIENTED_EDGE('',*,*,#619,.F.);
#799=ORIENTED_EDGE('',*,*,#620,.T.);
#800=ORIENTED_EDGE('',*,*,#613,.T.);
#801=ORIENTED_EDGE('',*,*,#594,.T.);
#802=ORIENTED_EDGE('',*,*,#562,.T.);
#803=ORIENTED_EDGE('',*,*,#621,.F.);
#804=ORIENTED_EDGE('',*,*,#622,.F.);
#805=ORIENTED_EDGE('',*,*,#623,.F.);
#806=ORIENTED_EDGE('',*,*,#624,.T.);
#807=ORIENTED_EDGE('',*,*,#625,.T.);
#808=ORIENTED_EDGE('',*,*,#619,.T.);
#809=ORIENTED_EDGE('',*,*,#564,.T.);
#810=ORIENTED_EDGE('',*,*,#593,.T.);
#811=ORIENTED_EDGE('',*,*,#626,.F.);
#812=ORIENTED_EDGE('',*,*,#627,.T.);
#813=ORIENTED_EDGE('',*,*,#628,.T.);
#814=ORIENTED_EDGE('',*,*,#629,.F.);
#815=ORIENTED_EDGE('',*,*,#630,.F.);
#816=ORIENTED_EDGE('',*,*,#631,.F.);
#817=ORIENTED_EDGE('',*,*,#592,.T.);
#818=ORIENTED_EDGE('',*,*,#632,.F.);
#819=ORIENTED_EDGE('',*,*,#633,.T.);
#820=ORIENTED_EDGE('',*,*,#626,.T.);
#821=ORIENTED_EDGE('',*,*,#591,.T.);
#822=ORIENTED_EDGE('',*,*,#558,.T.);
#823=ORIENTED_EDGE('',*,*,#634,.F.);
#824=ORIENTED_EDGE('',*,*,#635,.F.);
#825=ORIENTED_EDGE('',*,*,#636,.F.);
#826=ORIENTED_EDGE('',*,*,#637,.T.);
#827=ORIENTED_EDGE('',*,*,#638,.T.);
#828=ORIENTED_EDGE('',*,*,#632,.T.);
#829=ORIENTED_EDGE('',*,*,#561,.T.);
#830=ORIENTED_EDGE('',*,*,#631,.T.);
#831=ORIENTED_EDGE('',*,*,#639,.T.);
#832=ORIENTED_EDGE('',*,*,#621,.T.);
#833=ORIENTED_EDGE('',*,*,#557,.T.);
#834=ORIENTED_EDGE('',*,*,#640,.T.);
#835=ORIENTED_EDGE('',*,*,#641,.T.);
#836=ORIENTED_EDGE('',*,*,#634,.T.);
#837=ORIENTED_EDGE('',*,*,#577,.T.);
#838=ORIENTED_EDGE('',*,*,#642,.T.);
#839=ORIENTED_EDGE('',*,*,#643,.T.);
#840=ORIENTED_EDGE('',*,*,#644,.T.);
#841=ORIENTED_EDGE('',*,*,#573,.T.);
#842=ORIENTED_EDGE('',*,*,#645,.T.);
#843=ORIENTED_EDGE('',*,*,#646,.T.);
#844=ORIENTED_EDGE('',*,*,#647,.T.);
#845=ORIENTED_EDGE('',*,*,#569,.T.);
#846=ORIENTED_EDGE('',*,*,#648,.T.);
#847=ORIENTED_EDGE('',*,*,#649,.T.);
#848=ORIENTED_EDGE('',*,*,#650,.T.);
#849=ORIENTED_EDGE('',*,*,#565,.T.);
#850=ORIENTED_EDGE('',*,*,#618,.T.);
#851=ORIENTED_EDGE('',*,*,#651,.T.);
#852=ORIENTED_EDGE('',*,*,#607,.T.);
#853=ORIENTED_EDGE('',*,*,#560,.T.);
#854=ORIENTED_EDGE('',*,*,#590,.T.);
#855=ORIENTED_EDGE('',*,*,#652,.F.);
#856=ORIENTED_EDGE('',*,*,#653,.T.);
#857=ORIENTED_EDGE('',*,*,#654,.T.);
#858=ORIENTED_EDGE('',*,*,#655,.F.);
#859=ORIENTED_EDGE('',*,*,#656,.F.);
#860=ORIENTED_EDGE('',*,*,#640,.F.);
#861=ORIENTED_EDGE('',*,*,#589,.T.);
#862=ORIENTED_EDGE('',*,*,#657,.F.);
#863=ORIENTED_EDGE('',*,*,#658,.T.);
#864=ORIENTED_EDGE('',*,*,#652,.T.);
#865=ORIENTED_EDGE('',*,*,#584,.T.);
#866=ORIENTED_EDGE('',*,*,#659,.T.);
#867=ORIENTED_EDGE('',*,*,#660,.T.);
#868=ORIENTED_EDGE('',*,*,#661,.T.);
#869=ORIENTED_EDGE('',*,*,#583,.T.);
#870=ORIENTED_EDGE('',*,*,#662,.F.);
#871=ORIENTED_EDGE('',*,*,#663,.T.);
#872=ORIENTED_EDGE('',*,*,#659,.F.);
#873=ORIENTED_EDGE('',*,*,#582,.T.);
#874=ORIENTED_EDGE('',*,*,#664,.T.);
#875=ORIENTED_EDGE('',*,*,#665,.T.);
#876=ORIENTED_EDGE('',*,*,#662,.T.);
#877=ORIENTED_EDGE('',*,*,#581,.T.);
#878=ORIENTED_EDGE('',*,*,#666,.F.);
#879=ORIENTED_EDGE('',*,*,#667,.T.);
#880=ORIENTED_EDGE('',*,*,#664,.F.);
#881=ORIENTED_EDGE('',*,*,#668,.F.);
#882=ORIENTED_EDGE('',*,*,#628,.F.);
#883=ORIENTED_EDGE('',*,*,#669,.T.);
#884=ORIENTED_EDGE('',*,*,#624,.F.);
#885=ORIENTED_EDGE('',*,*,#670,.F.);
#886=ORIENTED_EDGE('',*,*,#654,.F.);
#887=ORIENTED_EDGE('',*,*,#671,.T.);
#888=ORIENTED_EDGE('',*,*,#637,.F.);
#889=ORIENTED_EDGE('',*,*,#672,.F.);
#890=ORIENTED_EDGE('',*,*,#673,.F.);
#891=ORIENTED_EDGE('',*,*,#674,.T.);
#892=ORIENTED_EDGE('',*,*,#675,.F.);
#893=ORIENTED_EDGE('',*,*,#676,.F.);
#894=ORIENTED_EDGE('',*,*,#677,.F.);
#895=ORIENTED_EDGE('',*,*,#678,.T.);
#896=ORIENTED_EDGE('',*,*,#679,.F.);
#897=ORIENTED_EDGE('',*,*,#680,.F.);
#898=ORIENTED_EDGE('',*,*,#681,.F.);
#899=ORIENTED_EDGE('',*,*,#682,.T.);
#900=ORIENTED_EDGE('',*,*,#683,.F.);
#901=ORIENTED_EDGE('',*,*,#684,.F.);
#902=ORIENTED_EDGE('',*,*,#615,.F.);
#903=ORIENTED_EDGE('',*,*,#685,.T.);
#904=ORIENTED_EDGE('',*,*,#610,.F.);
#905=ORIENTED_EDGE('',*,*,#663,.F.);
#906=ORIENTED_EDGE('',*,*,#665,.F.);
#907=ORIENTED_EDGE('',*,*,#667,.F.);
#908=ORIENTED_EDGE('',*,*,#686,.F.);
#909=ORIENTED_EDGE('',*,*,#687,.F.);
#910=ORIENTED_EDGE('',*,*,#688,.F.);
#911=ORIENTED_EDGE('',*,*,#689,.F.);
#912=ORIENTED_EDGE('',*,*,#660,.F.);
#913=ORIENTED_EDGE('',*,*,#620,.F.);
#914=ORIENTED_EDGE('',*,*,#625,.F.);
#915=ORIENTED_EDGE('',*,*,#669,.F.);
#916=ORIENTED_EDGE('',*,*,#627,.F.);
#917=ORIENTED_EDGE('',*,*,#633,.F.);
#918=ORIENTED_EDGE('',*,*,#638,.F.);
#919=ORIENTED_EDGE('',*,*,#671,.F.);
#920=ORIENTED_EDGE('',*,*,#653,.F.);
#921=ORIENTED_EDGE('',*,*,#658,.F.);
#922=ORIENTED_EDGE('',*,*,#690,.F.);
#923=ORIENTED_EDGE('',*,*,#674,.F.);
#924=ORIENTED_EDGE('',*,*,#691,.F.);
#925=ORIENTED_EDGE('',*,*,#692,.F.);
#926=ORIENTED_EDGE('',*,*,#693,.F.);
#927=ORIENTED_EDGE('',*,*,#678,.F.);
#928=ORIENTED_EDGE('',*,*,#694,.F.);
#929=ORIENTED_EDGE('',*,*,#695,.F.);
#930=ORIENTED_EDGE('',*,*,#696,.F.);
#931=ORIENTED_EDGE('',*,*,#682,.F.);
#932=ORIENTED_EDGE('',*,*,#697,.F.);
#933=ORIENTED_EDGE('',*,*,#698,.F.);
#934=ORIENTED_EDGE('',*,*,#611,.F.);
#935=ORIENTED_EDGE('',*,*,#685,.F.);
#936=ORIENTED_EDGE('',*,*,#614,.F.);
#937=ORIENTED_EDGE('',*,*,#605,.T.);
#938=ORIENTED_EDGE('',*,*,#699,.F.);
#939=ORIENTED_EDGE('',*,*,#691,.T.);
#940=ORIENTED_EDGE('',*,*,#673,.T.);
#941=ORIENTED_EDGE('',*,*,#700,.F.);
#942=ORIENTED_EDGE('',*,*,#701,.F.);
#943=ORIENTED_EDGE('',*,*,#642,.F.);
#944=ORIENTED_EDGE('',*,*,#580,.T.);
#945=ORIENTED_EDGE('',*,*,#578,.T.);
#946=ORIENTED_EDGE('',*,*,#644,.F.);
#947=ORIENTED_EDGE('',*,*,#702,.F.);
#948=ORIENTED_EDGE('',*,*,#703,.F.);
#949=ORIENTED_EDGE('',*,*,#675,.T.);
#950=ORIENTED_EDGE('',*,*,#690,.T.);
#951=ORIENTED_EDGE('',*,*,#657,.T.);
#952=ORIENTED_EDGE('',*,*,#606,.T.);
#953=ORIENTED_EDGE('',*,*,#670,.T.);
#954=ORIENTED_EDGE('',*,*,#636,.T.);
#955=ORIENTED_EDGE('',*,*,#704,.T.);
#956=ORIENTED_EDGE('',*,*,#655,.T.);
#957=ORIENTED_EDGE('',*,*,#668,.T.);
#958=ORIENTED_EDGE('',*,*,#623,.T.);
#959=ORIENTED_EDGE('',*,*,#705,.T.);
#960=ORIENTED_EDGE('',*,*,#629,.T.);
#961=ORIENTED_EDGE('',*,*,#684,.T.);
#962=ORIENTED_EDGE('',*,*,#609,.T.);
#963=ORIENTED_EDGE('',*,*,#706,.T.);
#964=ORIENTED_EDGE('',*,*,#616,.T.);
#965=ORIENTED_EDGE('',*,*,#680,.T.);
#966=ORIENTED_EDGE('',*,*,#707,.T.);
#967=ORIENTED_EDGE('',*,*,#708,.T.);
#968=ORIENTED_EDGE('',*,*,#709,.T.);
#969=ORIENTED_EDGE('',*,*,#676,.T.);
#970=ORIENTED_EDGE('',*,*,#710,.T.);
#971=ORIENTED_EDGE('',*,*,#711,.T.);
#972=ORIENTED_EDGE('',*,*,#712,.T.);
#973=ORIENTED_EDGE('',*,*,#672,.T.);
#974=ORIENTED_EDGE('',*,*,#703,.T.);
#975=ORIENTED_EDGE('',*,*,#713,.T.);
#976=ORIENTED_EDGE('',*,*,#700,.T.);
#977=ORIENTED_EDGE('',*,*,#588,.T.);
#978=ORIENTED_EDGE('',*,*,#714,.T.);
#979=ORIENTED_EDGE('',*,*,#686,.T.);
#980=ORIENTED_EDGE('',*,*,#666,.T.);
#981=ORIENTED_EDGE('',*,*,#598,.T.);
#982=ORIENTED_EDGE('',*,*,#612,.F.);
#983=ORIENTED_EDGE('',*,*,#698,.T.);
#984=ORIENTED_EDGE('',*,*,#715,.T.);
#985=ORIENTED_EDGE('',*,*,#599,.T.);
#986=ORIENTED_EDGE('',*,*,#715,.F.);
#987=ORIENTED_EDGE('',*,*,#697,.T.);
#988=ORIENTED_EDGE('',*,*,#681,.T.);
#989=ORIENTED_EDGE('',*,*,#709,.F.);
#990=ORIENTED_EDGE('',*,*,#716,.F.);
#991=ORIENTED_EDGE('',*,*,#648,.F.);
#992=ORIENTED_EDGE('',*,*,#572,.T.);
#993=ORIENTED_EDGE('',*,*,#601,.T.);
#994=ORIENTED_EDGE('',*,*,#717,.F.);
#995=ORIENTED_EDGE('',*,*,#695,.T.);
#996=ORIENTED_EDGE('',*,*,#718,.T.);
#997=ORIENTED_EDGE('',*,*,#602,.T.);
#998=ORIENTED_EDGE('',*,*,#718,.F.);
#999=ORIENTED_EDGE('',*,*,#694,.T.);
#1000=ORIENTED_EDGE('',*,*,#677,.T.);
#1001=ORIENTED_EDGE('',*,*,#712,.F.);
#1002=ORIENTED_EDGE('',*,*,#719,.F.);
#1003=ORIENTED_EDGE('',*,*,#645,.F.);
#1004=ORIENTED_EDGE('',*,*,#576,.T.);
#1005=ORIENTED_EDGE('',*,*,#570,.T.);
#1006=ORIENTED_EDGE('',*,*,#650,.F.);
#1007=ORIENTED_EDGE('',*,*,#720,.F.);
#1008=ORIENTED_EDGE('',*,*,#707,.F.);
#1009=ORIENTED_EDGE('',*,*,#683,.T.);
#1010=ORIENTED_EDGE('',*,*,#696,.T.);
#1011=ORIENTED_EDGE('',*,*,#717,.T.);
#1012=ORIENTED_EDGE('',*,*,#600,.T.);
#1013=ORIENTED_EDGE('',*,*,#604,.T.);
#1014=ORIENTED_EDGE('',*,*,#721,.F.);
#1015=ORIENTED_EDGE('',*,*,#692,.T.);
#1016=ORIENTED_EDGE('',*,*,#699,.T.);
#1017=ORIENTED_EDGE('',*,*,#574,.T.);
#1018=ORIENTED_EDGE('',*,*,#647,.F.);
#1019=ORIENTED_EDGE('',*,*,#722,.F.);
#1020=ORIENTED_EDGE('',*,*,#710,.F.);
#1021=ORIENTED_EDGE('',*,*,#679,.T.);
#1022=ORIENTED_EDGE('',*,*,#693,.T.);
#1023=ORIENTED_EDGE('',*,*,#721,.T.);
#1024=ORIENTED_EDGE('',*,*,#603,.T.);
#1025=ORIENTED_EDGE('',*,*,#701,.T.);
#1026=ORIENTED_EDGE('',*,*,#713,.F.);
#1027=ORIENTED_EDGE('',*,*,#702,.T.);
#1028=ORIENTED_EDGE('',*,*,#643,.F.);
#1029=ORIENTED_EDGE('',*,*,#719,.T.);
#1030=ORIENTED_EDGE('',*,*,#711,.F.);
#1031=ORIENTED_EDGE('',*,*,#722,.T.);
#1032=ORIENTED_EDGE('',*,*,#646,.F.);
#1033=ORIENTED_EDGE('',*,*,#630,.T.);
#1034=ORIENTED_EDGE('',*,*,#705,.F.);
#1035=ORIENTED_EDGE('',*,*,#622,.T.);
#1036=ORIENTED_EDGE('',*,*,#639,.F.);
#1037=ORIENTED_EDGE('',*,*,#635,.T.);
#1038=ORIENTED_EDGE('',*,*,#641,.F.);
#1039=ORIENTED_EDGE('',*,*,#656,.T.);
#1040=ORIENTED_EDGE('',*,*,#704,.F.);
#1041=ORIENTED_EDGE('',*,*,#716,.T.);
#1042=ORIENTED_EDGE('',*,*,#708,.F.);
#1043=ORIENTED_EDGE('',*,*,#720,.T.);
#1044=ORIENTED_EDGE('',*,*,#649,.F.);
#1045=ORIENTED_EDGE('',*,*,#608,.T.);
#1046=ORIENTED_EDGE('',*,*,#651,.F.);
#1047=ORIENTED_EDGE('',*,*,#617,.T.);
#1048=ORIENTED_EDGE('',*,*,#706,.F.);
#1049=ORIENTED_EDGE('',*,*,#587,.T.);
#1050=ORIENTED_EDGE('',*,*,#723,.F.);
#1051=ORIENTED_EDGE('',*,*,#687,.T.);
#1052=ORIENTED_EDGE('',*,*,#714,.F.);
#1053=ORIENTED_EDGE('',*,*,#586,.T.);
#1054=ORIENTED_EDGE('',*,*,#724,.T.);
#1055=ORIENTED_EDGE('',*,*,#688,.T.);
#1056=ORIENTED_EDGE('',*,*,#723,.T.);
#1057=ORIENTED_EDGE('',*,*,#585,.T.);
#1058=ORIENTED_EDGE('',*,*,#661,.F.);
#1059=ORIENTED_EDGE('',*,*,#689,.T.);
#1060=ORIENTED_EDGE('',*,*,#724,.F.);
#1061=CYLINDRICAL_SURFACE('',#1161,14.4749373263453);
#1062=CYLINDRICAL_SURFACE('',#1164,14.4749373263453);
#1063=CYLINDRICAL_SURFACE('',#1167,14.4749373263453);
#1064=CYLINDRICAL_SURFACE('',#1170,14.4749373263453);
#1065=CYLINDRICAL_SURFACE('',#1173,14.4749373263453);
#1066=CYLINDRICAL_SURFACE('',#1176,14.4749373263453);
#1067=CYLINDRICAL_SURFACE('',#1192,1.00000001490116);
#1068=CYLINDRICAL_SURFACE('',#1196,2.00000002980232);
#1069=CYLINDRICAL_SURFACE('',#1212,1.00000001490116);
#1070=CYLINDRICAL_SURFACE('',#1214,7.5);
#1071=CYLINDRICAL_SURFACE('',#1217,7.5);
#1072=CYLINDRICAL_SURFACE('',#1220,14.5094386738918);
#1073=CYLINDRICAL_SURFACE('',#1223,14.5094386738918);
#1074=CYLINDRICAL_SURFACE('',#1226,14.5094386738918);
#1075=CYLINDRICAL_SURFACE('',#1229,14.5094386738918);
#1076=CYLINDRICAL_SURFACE('',#1232,14.5094386738918);
#1077=CYLINDRICAL_SURFACE('',#1235,14.5094386738918);
#1078=CYLINDRICAL_SURFACE('',#1258,7.5);
#1079=CYLINDRICAL_SURFACE('',#1259,2.00000002980232);
#1080=CYLINDRICAL_SURFACE('',#1261,1.00000001490116);
#1081=CYLINDRICAL_SURFACE('',#1264,2.00000002980232);
#1082=CYLINDRICAL_SURFACE('',#1266,10.);
#1083=CYLINDRICAL_SURFACE('',#1267,10.);
#1084=CYLINDRICAL_SURFACE('',#1268,10.);
#1085=CYLINDRICAL_SURFACE('',#1269,10.);
#1086=CYLINDRICAL_SURFACE('',#1270,10.);
#1087=CYLINDRICAL_SURFACE('',#1271,10.);
#1088=CYLINDRICAL_SURFACE('',#1273,7.5);
#1089=ADVANCED_FACE('',(#47),#1061,.T.);
#1090=ADVANCED_FACE('',(#48),#1062,.T.);
#1091=ADVANCED_FACE('',(#49),#1063,.T.);
#1092=ADVANCED_FACE('',(#50),#1064,.T.);
#1093=ADVANCED_FACE('',(#51),#1065,.T.);
#1094=ADVANCED_FACE('',(#52),#1066,.T.);
#1095=ADVANCED_FACE('',(#53,#15),#17,.T.);
#1096=ADVANCED_FACE('',(#54),#18,.F.);
#1097=ADVANCED_FACE('',(#55),#19,.F.);
#1098=ADVANCED_FACE('',(#56),#1067,.F.);
#1099=ADVANCED_FACE('',(#57),#20,.F.);
#1100=ADVANCED_FACE('',(#58),#21,.F.);
#1101=ADVANCED_FACE('',(#59),#1068,.F.);
#1102=ADVANCED_FACE('',(#60),#22,.F.);
#1103=ADVANCED_FACE('',(#61),#23,.F.);
#1104=ADVANCED_FACE('',(#62),#24,.F.);
#1105=ADVANCED_FACE('',(#63),#25,.F.);
#1106=ADVANCED_FACE('',(#64),#26,.F.);
#1107=ADVANCED_FACE('',(#65),#27,.F.);
#1108=ADVANCED_FACE('',(#66),#28,.F.);
#1109=ADVANCED_FACE('',(#67),#29,.F.);
#1110=ADVANCED_FACE('',(#68),#1069,.F.);
#1111=ADVANCED_FACE('',(#69),#1070,.T.);
#1112=ADVANCED_FACE('',(#70),#30,.T.);
#1113=ADVANCED_FACE('',(#71),#1071,.T.);
#1114=ADVANCED_FACE('',(#72),#31,.T.);
#1115=ADVANCED_FACE('',(#73),#1072,.T.);
#1116=ADVANCED_FACE('',(#74),#1073,.T.);
#1117=ADVANCED_FACE('',(#75),#1074,.T.);
#1118=ADVANCED_FACE('',(#76),#1075,.T.);
#1119=ADVANCED_FACE('',(#77),#1076,.T.);
#1120=ADVANCED_FACE('',(#78),#1077,.T.);
#1121=ADVANCED_FACE('',(#79,#16),#32,.T.);
#1122=ADVANCED_FACE('',(#80),#33,.F.);
#1123=ADVANCED_FACE('',(#81),#34,.F.);
#1124=ADVANCED_FACE('',(#82),#35,.T.);
#1125=ADVANCED_FACE('',(#83),#36,.T.);
#1126=ADVANCED_FACE('',(#84),#37,.T.);
#1127=ADVANCED_FACE('',(#85),#38,.T.);
#1128=ADVANCED_FACE('',(#86),#39,.T.);
#1129=ADVANCED_FACE('',(#87),#40,.T.);
#1130=ADVANCED_FACE('',(#88),#1078,.T.);
#1131=ADVANCED_FACE('',(#89),#1079,.F.);
#1132=ADVANCED_FACE('',(#90),#41,.F.);
#1133=ADVANCED_FACE('',(#91),#1080,.F.);
#1134=ADVANCED_FACE('',(#92),#42,.F.);
#1135=ADVANCED_FACE('',(#93),#43,.F.);
#1136=ADVANCED_FACE('',(#94),#1081,.F.);
#1137=ADVANCED_FACE('',(#95),#44,.F.);
#1138=ADVANCED_FACE('',(#96),#1082,.F.);
#1139=ADVANCED_FACE('',(#97),#1083,.F.);
#1140=ADVANCED_FACE('',(#98),#1084,.F.);
#1141=ADVANCED_FACE('',(#99),#1085,.F.);
#1142=ADVANCED_FACE('',(#100),#1086,.F.);
#1143=ADVANCED_FACE('',(#101),#1087,.F.);
#1144=ADVANCED_FACE('',(#102),#45,.T.);
#1145=ADVANCED_FACE('',(#103),#1088,.T.);
#1146=ADVANCED_FACE('',(#104),#46,.T.);
#1147=CLOSED_SHELL('',(#1089,#1090,#1091,#1092,#1093,#1094,#1095,#1096,
#1097,#1098,#1099,#1100,#1101,#1102,#1103,#1104,#1105,#1106,#1107,#1108,
#1109,#1110,#1111,#1112,#1113,#1114,#1115,#1116,#1117,#1118,#1119,#1120,
#1121,#1122,#1123,#1124,#1125,#1126,#1127,#1128,#1129,#1130,#1131,#1132,
#1133,#1134,#1135,#1136,#1137,#1138,#1139,#1140,#1141,#1142,#1143,#1144,
#1145,#1146));
#1148=DERIVED_UNIT_ELEMENT(#1150,1.);
#1149=DERIVED_UNIT_ELEMENT(#1961,-3.);
#1150=(
MASS_UNIT()
NAMED_UNIT(*)
SI_UNIT(.KILO.,.GRAM.)
);
#1151=DERIVED_UNIT((#1148,#1149));
#1152=MEASURE_REPRESENTATION_ITEM('density measure',
POSITIVE_RATIO_MEASURE(7850.),#1151);
#1153=PROPERTY_DEFINITION_REPRESENTATION(#1158,#1155);
#1154=PROPERTY_DEFINITION_REPRESENTATION(#1159,#1156);
#1155=REPRESENTATION('material name',(#1157),#1958);
#1156=REPRESENTATION('density',(#1152),#1958);
#1157=DESCRIPTIVE_REPRESENTATION_ITEM('Steel','Steel');
#1158=PROPERTY_DEFINITION('material property','material name',#1968);
#1159=PROPERTY_DEFINITION('material property','density of part',#1968);
#1160=AXIS2_PLACEMENT_3D('',#1617,#1275,#1276);
#1161=AXIS2_PLACEMENT_3D('',#1618,#1277,#1278);
#1162=AXIS2_PLACEMENT_3D('',#1621,#1279,#1280);
#1163=AXIS2_PLACEMENT_3D('',#1625,#1282,#1283);
#1164=AXIS2_PLACEMENT_3D('',#1627,#1285,#1286);
#1165=AXIS2_PLACEMENT_3D('',#1630,#1287,#1288);
#1166=AXIS2_PLACEMENT_3D('',#1634,#1290,#1291);
#1167=AXIS2_PLACEMENT_3D('',#1636,#1293,#1294);
#1168=AXIS2_PLACEMENT_3D('',#1639,#1295,#1296);
#1169=AXIS2_PLACEMENT_3D('',#1643,#1298,#1299);
#1170=AXIS2_PLACEMENT_3D('',#1645,#1301,#1302);
#1171=AXIS2_PLACEMENT_3D('',#1648,#1303,#1304);
#1172=AXIS2_PLACEMENT_3D('',#1652,#1306,#1307);
#1173=AXIS2_PLACEMENT_3D('',#1654,#1309,#1310);
#1174=AXIS2_PLACEMENT_3D('',#1657,#1311,#1312);
#1175=AXIS2_PLACEMENT_3D('',#1661,#1314,#1315);
#1176=AXIS2_PLACEMENT_3D('',#1663,#1317,#1318);
#1177=AXIS2_PLACEMENT_3D('',#1666,#1319,#1320);
#1178=AXIS2_PLACEMENT_3D('',#1670,#1322,#1323);
#1179=AXIS2_PLACEMENT_3D('',#1672,#1325,#1326);
#1180=AXIS2_PLACEMENT_3D('',#1677,#1328,#1329);
#1181=AXIS2_PLACEMENT_3D('',#1681,#1331,#1332);
#1182=AXIS2_PLACEMENT_3D('',#1685,#1334,#1335);
#1183=AXIS2_PLACEMENT_3D('',#1688,#1337,#1338);
#1184=AXIS2_PLACEMENT_3D('',#1691,#1339,#1340);
#1185=AXIS2_PLACEMENT_3D('',#1696,#1343,#1344);
#1186=AXIS2_PLACEMENT_3D('',#1701,#1347,#1348);
#1187=AXIS2_PLACEMENT_3D('',#1706,#1351,#1352);
#1188=AXIS2_PLACEMENT_3D('',#1711,#1355,#1356);
#1189=AXIS2_PLACEMENT_3D('',#1716,#1359,#1360);
#1190=AXIS2_PLACEMENT_3D('',#1719,#1363,#1364);
#1191=AXIS2_PLACEMENT_3D('',#1731,#1371,#1372);
#1192=AXIS2_PLACEMENT_3D('',#1743,#1379,#1380);
#1193=AXIS2_PLACEMENT_3D('',#1746,#1382,#1383);
#1194=AXIS2_PLACEMENT_3D('',#1747,#1384,#1385);
#1195=AXIS2_PLACEMENT_3D('',#1757,#1391,#1392);
#1196=AXIS2_PLACEMENT_3D('',#1769,#1399,#1400);
#1197=AXIS2_PLACEMENT_3D('',#1772,#1402,#1403);
#1198=AXIS2_PLACEMENT_3D('',#1773,#1404,#1405);
#1199=AXIS2_PLACEMENT_3D('',#1783,#1411,#1412);
#1200=AXIS2_PLACEMENT_3D('',#1784,#1413,#1414);
#1201=AXIS2_PLACEMENT_3D('',#1785,#1415,#1416);
#1202=AXIS2_PLACEMENT_3D('',#1788,#1418,#1419);
#1203=AXIS2_PLACEMENT_3D('',#1789,#1420,#1421);
#1204=AXIS2_PLACEMENT_3D('',#1793,#1423,#1424);
#1205=AXIS2_PLACEMENT_3D('',#1795,#1426,#1427);
#1206=AXIS2_PLACEMENT_3D('',#1799,#1429,#1430);
#1207=AXIS2_PLACEMENT_3D('',#1801,#1432,#1433);
#1208=AXIS2_PLACEMENT_3D('',#1805,#1435,#1436);
#1209=AXIS2_PLACEMENT_3D('',#1807,#1438,#1439);
#1210=AXIS2_PLACEMENT_3D('',#1808,#1440,#1441);
#1211=AXIS2_PLACEMENT_3D('',#1809,#1442,#1443);
#1212=AXIS2_PLACEMENT_3D('',#1819,#1449,#1450);
#1213=AXIS2_PLACEMENT_3D('',#1822,#1452,#1453);
#1214=AXIS2_PLACEMENT_3D('',#1823,#1454,#1455);
#1215=AXIS2_PLACEMENT_3D('',#1827,#1457,#1458);
#1216=AXIS2_PLACEMENT_3D('',#1829,#1460,#1461);
#1217=AXIS2_PLACEMENT_3D('',#1833,#1464,#1465);
#1218=AXIS2_PLACEMENT_3D('',#1836,#1467,#1468);
#1219=AXIS2_PLACEMENT_3D('',#1837,#1469,#1470);
#1220=AXIS2_PLACEMENT_3D('',#1841,#1473,#1474);
#1221=AXIS2_PLACEMENT_3D('',#1842,#1475,#1476);
#1222=AXIS2_PLACEMENT_3D('',#1843,#1477,#1478);
#1223=AXIS2_PLACEMENT_3D('',#1844,#1479,#1480);
#1224=AXIS2_PLACEMENT_3D('',#1845,#1481,#1482);
#1225=AXIS2_PLACEMENT_3D('',#1846,#1483,#1484);
#1226=AXIS2_PLACEMENT_3D('',#1847,#1485,#1486);
#1227=AXIS2_PLACEMENT_3D('',#1850,#1487,#1488);
#1228=AXIS2_PLACEMENT_3D('',#1854,#1490,#1491);
#1229=AXIS2_PLACEMENT_3D('',#1856,#1493,#1494);
#1230=AXIS2_PLACEMENT_3D('',#1859,#1495,#1496);
#1231=AXIS2_PLACEMENT_3D('',#1863,#1498,#1499);
#1232=AXIS2_PLACEMENT_3D('',#1865,#1501,#1502);
#1233=AXIS2_PLACEMENT_3D('',#1868,#1503,#1504);
#1234=AXIS2_PLACEMENT_3D('',#1872,#1506,#1507);
#1235=AXIS2_PLACEMENT_3D('',#1874,#1509,#1510);
#1236=AXIS2_PLACEMENT_3D('',#1875,#1511,#1512);
#1237=AXIS2_PLACEMENT_3D('',#1876,#1513,#1514);
#1238=AXIS2_PLACEMENT_3D('',#1877,#1515,#1516);
#1239=AXIS2_PLACEMENT_3D('',#1879,#1517,#1518);
#1240=AXIS2_PLACEMENT_3D('',#1883,#1520,#1521);
#1241=AXIS2_PLACEMENT_3D('',#1889,#1525,#1526);
#1242=AXIS2_PLACEMENT_3D('',#1894,#1529,#1530);
#1243=AXIS2_PLACEMENT_3D('',#1898,#1533,#1534);
#1244=AXIS2_PLACEMENT_3D('',#1899,#1535,#1536);
#1245=AXIS2_PLACEMENT_3D('',#1904,#1540,#1541);
#1246=AXIS2_PLACEMENT_3D('',#1908,#1544,#1545);
#1247=AXIS2_PLACEMENT_3D('',#1909,#1546,#1547);
#1248=AXIS2_PLACEMENT_3D('',#1910,#1548,#1549);
#1249=AXIS2_PLACEMENT_3D('',#1911,#1550,#1551);
#1250=AXIS2_PLACEMENT_3D('',#1912,#1552,#1553);
#1251=AXIS2_PLACEMENT_3D('',#1913,#1554,#1555);
#1252=AXIS2_PLACEMENT_3D('',#1914,#1556,#1557);
#1253=AXIS2_PLACEMENT_3D('',#1918,#1559,#1560);
#1254=AXIS2_PLACEMENT_3D('',#1920,#1562,#1563);
#1255=AXIS2_PLACEMENT_3D('',#1924,#1565,#1566);
#1256=AXIS2_PLACEMENT_3D('',#1926,#1568,#1569);
#1257=AXIS2_PLACEMENT_3D('',#1927,#1570,#1571);
#1258=AXIS2_PLACEMENT_3D('',#1928,#1572,#1573);
#1259=AXIS2_PLACEMENT_3D('',#1930,#1575,#1576);
#1260=AXIS2_PLACEMENT_3D('',#1932,#1578,#1579);
#1261=AXIS2_PLACEMENT_3D('',#1934,#1581,#1582);
#1262=AXIS2_PLACEMENT_3D('',#1937,#1585,#1586);
#1263=AXIS2_PLACEMENT_3D('',#1939,#1588,#1589);
#1264=AXIS2_PLACEMENT_3D('',#1941,#1591,#1592);
#1265=AXIS2_PLACEMENT_3D('',#1943,#1594,#1595);
#1266=AXIS2_PLACEMENT_3D('',#1945,#1597,#1598);
#1267=AXIS2_PLACEMENT_3D('',#1946,#1599,#1600);
#1268=AXIS2_PLACEMENT_3D('',#1947,#1601,#1602);
#1269=AXIS2_PLACEMENT_3D('',#1948,#1603,#1604);
#1270=AXIS2_PLACEMENT_3D('',#1949,#1605,#1606);
#1271=AXIS2_PLACEMENT_3D('',#1950,#1607,#1608);
#1272=AXIS2_PLACEMENT_3D('',#1951,#1609,#1610);
#1273=AXIS2_PLACEMENT_3D('',#1953,#1612,#1613);
#1274=AXIS2_PLACEMENT_3D('',#1955,#1615,#1616);
#1275=DIRECTION('axis',(0.,0.,1.));
#1276=DIRECTION('refdir',(1.,0.,0.));
#1277=DIRECTION('center_axis',(0.,1.,0.));
#1278=DIRECTION('ref_axis',(1.,0.,0.));
#1279=DIRECTION('center_axis',(0.,-1.,0.));
#1280=DIRECTION('ref_axis',(1.,0.,0.));
#1281=DIRECTION('',(0.,-1.,0.));
#1282=DIRECTION('center_axis',(0.,-1.,0.));
#1283=DIRECTION('ref_axis',(1.,0.,0.));
#1284=DIRECTION('',(0.,1.,0.));
#1285=DIRECTION('center_axis',(0.,1.,0.));
#1286=DIRECTION('ref_axis',(1.,0.,0.));
#1287=DIRECTION('center_axis',(0.,-1.,0.));
#1288=DIRECTION('ref_axis',(1.,0.,0.));
#1289=DIRECTION('',(0.,-1.,0.));
#1290=DIRECTION('center_axis',(0.,-1.,0.));
#1291=DIRECTION('ref_axis',(1.,0.,0.));
#1292=DIRECTION('',(0.,1.,0.));
#1293=DIRECTION('center_axis',(0.,1.,0.));
#1294=DIRECTION('ref_axis',(-0.999396743093328,0.,-0.0347296687926602));
#1295=DIRECTION('center_axis',(0.,-1.,0.));
#1296=DIRECTION('ref_axis',(1.,0.,0.));
#1297=DIRECTION('',(0.,-1.,0.));
#1298=DIRECTION('center_axis',(0.,-1.,0.));
#1299=DIRECTION('ref_axis',(1.,0.,0.));
#1300=DIRECTION('',(0.,1.,0.));
#1301=DIRECTION('center_axis',(0.,1.,0.));
#1302=DIRECTION('ref_axis',(1.,0.,0.));
#1303=DIRECTION('center_axis',(0.,-1.,0.));
#1304=DIRECTION('ref_axis',(1.,0.,0.));
#1305=DIRECTION('',(0.,-1.,0.));
#1306=DIRECTION('center_axis',(0.,-1.,0.));
#1307=DIRECTION('ref_axis',(1.,0.,0.));
#1308=DIRECTION('',(0.,1.,0.));
#1309=DIRECTION('center_axis',(0.,1.,0.));
#1310=DIRECTION('ref_axis',(1.,0.,0.));
#1311=DIRECTION('center_axis',(0.,-1.,0.));
#1312=DIRECTION('ref_axis',(1.,0.,0.));
#1313=DIRECTION('',(0.,-1.,0.));
#1314=DIRECTION('center_axis',(0.,-1.,0.));
#1315=DIRECTION('ref_axis',(1.,0.,0.));
#1316=DIRECTION('',(0.,1.,0.));
#1317=DIRECTION('center_axis',(0.,1.,0.));
#1318=DIRECTION('ref_axis',(1.,0.,0.));
#1319=DIRECTION('center_axis',(0.,-1.,0.));
#1320=DIRECTION('ref_axis',(1.,0.,0.));
#1321=DIRECTION('',(0.,-1.,0.));
#1322=DIRECTION('center_axis',(0.,-1.,0.));
#1323=DIRECTION('ref_axis',(1.,0.,0.));
#1324=DIRECTION('',(0.,1.,0.));
#1325=DIRECTION('center_axis',(0.,-1.,0.));
#1326=DIRECTION('ref_axis',(1.,0.,0.));
#1327=DIRECTION('',(-1.,0.,0.));
#1328=DIRECTION('center_axis',(0.,1.,0.));
#1329=DIRECTION('ref_axis',(0.707106781186547,0.,-0.707106781186547));
#1330=DIRECTION('',(0.,0.,-1.));
#1331=DIRECTION('center_axis',(0.,1.,0.));
#1332=DIRECTION('ref_axis',(0.707106781186547,0.,0.707106781186547));
#1333=DIRECTION('',(1.,0.,0.));
#1334=DIRECTION('center_axis',(0.,1.,0.));
#1335=DIRECTION('ref_axis',(-0.707106781186547,0.,0.707106781186547));
#1336=DIRECTION('',(0.,0.,1.));
#1337=DIRECTION('center_axis',(0.,1.,0.));
#1338=DIRECTION('ref_axis',(-0.707106781186547,0.,-0.707106781186547));
#1339=DIRECTION('center_axis',(0.,-1.,0.));
#1340=DIRECTION('ref_axis',(0.5,0.,0.866025403784439));
#1341=DIRECTION('',(0.866025403784439,0.,-0.5));
#1342=DIRECTION('',(0.,0.,1.));
#1343=DIRECTION('center_axis',(0.,-1.,0.));
#1344=DIRECTION('ref_axis',(1.,0.,0.));
#1345=DIRECTION('',(0.,0.,-1.));
#1346=DIRECTION('',(0.866025403784438,0.,0.5));
#1347=DIRECTION('center_axis',(0.,-1.,0.));
#1348=DIRECTION('ref_axis',(0.5,0.,-0.866025403784438));
#1349=DIRECTION('',(-0.866025403784438,0.,-0.5));
#1350=DIRECTION('',(0.866025403784439,0.,-0.5));
#1351=DIRECTION('center_axis',(0.,-1.,0.));
#1352=DIRECTION('ref_axis',(-0.5,0.,-0.866025403784439));
#1353=DIRECTION('',(-0.866025403784439,0.,0.5));
#1354=DIRECTION('',(0.,0.,-1.));
#1355=DIRECTION('center_axis',(0.,-1.,0.));
#1356=DIRECTION('ref_axis',(-1.,0.,0.));
#1357=DIRECTION('',(0.,0.,1.));
#1358=DIRECTION('',(-0.866025403784438,0.,-0.5));
#1359=DIRECTION('center_axis',(0.,-1.,0.));
#1360=DIRECTION('ref_axis',(-0.5,0.,0.866025403784439));
#1361=DIRECTION('',(0.866025403784439,0.,0.5));
#1362=DIRECTION('',(-0.866025403784439,0.,0.5));
#1363=DIRECTION('center_axis',(-0.5,0.,-0.866025403784439));
#1364=DIRECTION('ref_axis',(0.866025403784439,0.,-0.5));
#1365=DIRECTION('',(-0.866025403784439,0.,0.5));
#1366=DIRECTION('',(0.,-1.,0.));
#1367=DIRECTION('',(0.866025403784439,0.,-0.5));
#1368=DIRECTION('',(0.,-1.,0.));
#1369=DIRECTION('',(-0.866025403784439,0.,0.5));
#1370=DIRECTION('',(0.,-1.,0.));
#1371=DIRECTION('center_axis',(-0.5,0.,0.866025403784439));
#1372=DIRECTION('ref_axis',(-0.866025403784438,0.,-0.5));
#1373=DIRECTION('',(0.,-1.,0.));
#1374=DIRECTION('',(0.866025403784438,0.,0.5));
#1375=DIRECTION('',(0.,1.,0.));
#1376=DIRECTION('',(-0.866025403784438,0.,-0.5));
#1377=DIRECTION('',(0.,1.,0.));
#1378=DIRECTION('',(0.866025403784438,0.,0.5));
#1379=DIRECTION('center_axis',(0.,-1.,0.));
#1380=DIRECTION('ref_axis',(0.5,0.,-0.866025403784438));
#1381=DIRECTION('',(0.,-1.,0.));
#1382=DIRECTION('center_axis',(0.,1.,0.));
#1383=DIRECTION('ref_axis',(0.5,0.,-0.866025403784438));
#1384=DIRECTION('center_axis',(0.5,0.,-0.866025403784439));
#1385=DIRECTION('ref_axis',(0.866025403784438,0.,0.5));
#1386=DIRECTION('',(-0.866025403784438,0.,-0.5));
#1387=DIRECTION('',(0.,-1.,0.));
#1388=DIRECTION('',(0.866025403784438,0.,0.5));
#1389=DIRECTION('',(0.,-1.,0.));
#1390=DIRECTION('',(-0.866025403784438,0.,-0.5));
#1391=DIRECTION('center_axis',(-1.,0.,0.));
#1392=DIRECTION('ref_axis',(0.,0.,-1.));
#1393=DIRECTION('',(0.,-1.,0.));
#1394=DIRECTION('',(0.,0.,1.));
#1395=DIRECTION('',(0.,1.,0.));
#1396=DIRECTION('',(0.,0.,-1.));
#1397=DIRECTION('',(0.,1.,0.));
#1398=DIRECTION('',(0.,0.,1.));
#1399=DIRECTION('center_axis',(0.,-1.,0.));
#1400=DIRECTION('ref_axis',(1.,0.,0.));
#1401=DIRECTION('',(0.,-1.,0.));
#1402=DIRECTION('center_axis',(0.,1.,0.));
#1403=DIRECTION('ref_axis',(1.,0.,0.));
#1404=DIRECTION('center_axis',(1.,0.,0.));
#1405=DIRECTION('ref_axis',(0.,0.,1.));
#1406=DIRECTION('',(0.,0.,-1.));
#1407=DIRECTION('',(0.,-1.,0.));
#1408=DIRECTION('',(0.,0.,1.));
#1409=DIRECTION('',(0.,-1.,0.));
#1410=DIRECTION('',(0.,0.,-1.));
#1411=DIRECTION('center_axis',(0.,1.,0.));
#1412=DIRECTION('ref_axis',(1.,0.,0.));
#1413=DIRECTION('center_axis',(0.,1.,0.));
#1414=DIRECTION('ref_axis',(-1.,0.,0.));
#1415=DIRECTION('center_axis',(0.,1.,0.));
#1416=DIRECTION('ref_axis',(1.,0.,0.));
#1417=DIRECTION('',(-0.866025403784439,0.,0.5));
#1418=DIRECTION('center_axis',(0.,1.,0.));
#1419=DIRECTION('ref_axis',(-1.,0.,0.));
#1420=DIRECTION('center_axis',(0.,1.,0.));
#1421=DIRECTION('ref_axis',(1.,0.,0.));
#1422=DIRECTION('',(-0.866025403784439,0.,-0.5));
#1423=DIRECTION('center_axis',(0.,1.,0.));
#1424=DIRECTION('ref_axis',(-1.,0.,0.));
#1425=DIRECTION('',(0.866025403784439,0.,-0.5));
#1426=DIRECTION('center_axis',(0.,1.,0.));
#1427=DIRECTION('ref_axis',(1.,0.,0.));
#1428=DIRECTION('',(0.,0.,-1.));
#1429=DIRECTION('center_axis',(0.,1.,0.));
#1430=DIRECTION('ref_axis',(-1.,0.,0.));
#1431=DIRECTION('',(0.866025403784438,0.,0.5));
#1432=DIRECTION('center_axis',(0.,1.,0.));
#1433=DIRECTION('ref_axis',(1.,0.,0.));
#1434=DIRECTION('',(0.866025403784439,0.,-0.5));
#1435=DIRECTION('center_axis',(0.,1.,0.));
#1436=DIRECTION('ref_axis',(-1.,0.,0.));
#1437=DIRECTION('',(0.,0.,1.));
#1438=DIRECTION('center_axis',(0.,1.,0.));
#1439=DIRECTION('ref_axis',(1.,0.,0.));
#1440=DIRECTION('center_axis',(0.,1.,0.));
#1441=DIRECTION('ref_axis',(-1.,0.,0.));
#1442=DIRECTION('center_axis',(-0.5,0.,-0.866025403784439));
#1443=DIRECTION('ref_axis',(0.866025403784439,0.,-0.5));
#1444=DIRECTION('',(0.,-1.,0.));
#1445=DIRECTION('',(-0.866025403784439,0.,0.5));
#1446=DIRECTION('',(0.,1.,0.));
#1447=DIRECTION('',(0.866025403784439,0.,-0.5));
#1448=DIRECTION('',(0.,1.,0.));
#1449=DIRECTION('center_axis',(0.,-1.,0.));
#1450=DIRECTION('ref_axis',(0.5,0.,0.866025403784439));
#1451=DIRECTION('',(0.,-1.,0.));
#1452=DIRECTION('center_axis',(0.,1.,0.));
#1453=DIRECTION('ref_axis',(0.5,0.,0.866025403784439));
#1454=DIRECTION('center_axis',(0.,1.,0.));
#1455=DIRECTION('ref_axis',(0.707106781186547,0.,0.707106781186547));
#1456=DIRECTION('',(0.,1.,0.));
#1457=DIRECTION('center_axis',(0.,-1.,0.));
#1458=DIRECTION('ref_axis',(0.707106781186547,0.,0.707106781186547));
#1459=DIRECTION('',(0.,-1.,0.));
#1460=DIRECTION('center_axis',(1.,0.,0.));
#1461=DIRECTION('ref_axis',(0.,0.,-1.));
#1462=DIRECTION('',(0.,-1.,0.));
#1463=DIRECTION('',(0.,0.,1.));
#1464=DIRECTION('center_axis',(0.,1.,0.));
#1465=DIRECTION('ref_axis',(0.707106781186547,0.,-0.707106781186547));
#1466=DIRECTION('',(0.,1.,0.));
#1467=DIRECTION('center_axis',(0.,-1.,0.));
#1468=DIRECTION('ref_axis',(0.707106781186547,0.,-0.707106781186547));
#1469=DIRECTION('center_axis',(0.,0.,-1.));
#1470=DIRECTION('ref_axis',(-1.,0.,0.));
#1471=DIRECTION('',(0.,-1.,0.));
#1472=DIRECTION('',(1.,0.,0.));
#1473=DIRECTION('center_axis',(0.,-1.,0.));
#1474=DIRECTION('ref_axis',(-1.,0.,0.));
#1475=DIRECTION('center_axis',(0.,1.,0.));
#1476=DIRECTION('ref_axis',(-1.,0.,0.));
#1477=DIRECTION('center_axis',(0.,1.,0.));
#1478=DIRECTION('ref_axis',(-1.,0.,0.));
#1479=DIRECTION('center_axis',(0.,-1.,0.));
#1480=DIRECTION('ref_axis',(-1.,0.,0.));
#1481=DIRECTION('center_axis',(0.,1.,0.));
#1482=DIRECTION('ref_axis',(-1.,0.,0.));
#1483=DIRECTION('center_axis',(0.,1.,0.));
#1484=DIRECTION('ref_axis',(-1.,0.,0.));
#1485=DIRECTION('center_axis',(0.,-1.,0.));
#1486=DIRECTION('ref_axis',(0.999399640499557,0.,-0.034646191267672));
#1487=DIRECTION('center_axis',(0.,1.,0.));
#1488=DIRECTION('ref_axis',(-1.,0.,0.));
#1489=DIRECTION('',(0.,1.,0.));
#1490=DIRECTION('center_axis',(0.,1.,0.));
#1491=DIRECTION('ref_axis',(-1.,0.,0.));
#1492=DIRECTION('',(0.,-1.,0.));
#1493=DIRECTION('center_axis',(0.,-1.,0.));
#1494=DIRECTION('ref_axis',(-1.,0.,0.));
#1495=DIRECTION('center_axis',(0.,1.,0.));
#1496=DIRECTION('ref_axis',(-1.,0.,0.));
#1497=DIRECTION('',(0.,1.,0.));
#1498=DIRECTION('center_axis',(0.,1.,0.));
#1499=DIRECTION('ref_axis',(-1.,0.,0.));
#1500=DIRECTION('',(0.,-1.,0.));
#1501=DIRECTION('center_axis',(0.,-1.,0.));
#1502=DIRECTION('ref_axis',(-1.,0.,0.));
#1503=DIRECTION('center_axis',(0.,1.,0.));
#1504=DIRECTION('ref_axis',(-1.,0.,0.));
#1505=DIRECTION('',(0.,1.,0.));
#1506=DIRECTION('center_axis',(0.,1.,0.));
#1507=DIRECTION('ref_axis',(-1.,0.,0.));
#1508=DIRECTION('',(0.,-1.,0.));
#1509=DIRECTION('center_axis',(0.,-1.,0.));
#1510=DIRECTION('ref_axis',(-1.,0.,0.));
#1511=DIRECTION('center_axis',(0.,1.,0.));
#1512=DIRECTION('ref_axis',(-1.,0.,0.));
#1513=DIRECTION('center_axis',(0.,1.,0.));
#1514=DIRECTION('ref_axis',(-1.,0.,0.));
#1515=DIRECTION('center_axis',(0.,1.,0.));
#1516=DIRECTION('ref_axis',(-1.,0.,0.));
#1517=DIRECTION('center_axis',(0.,-1.,0.));
#1518=DIRECTION('ref_axis',(-0.707106781186547,0.,-0.707106781186547));
#1519=DIRECTION('',(0.,0.,-1.));
#1520=DIRECTION('center_axis',(0.,-1.,0.));
#1521=DIRECTION('ref_axis',(-0.707106781186547,0.,0.707106781186547));
#1522=DIRECTION('',(-1.,0.,0.));
#1523=DIRECTION('',(0.866025403784439,0.,-0.5));
#1524=DIRECTION('',(-0.866025403784439,0.,-0.5));
#1525=DIRECTION('center_axis',(0.,1.,0.));
#1526=DIRECTION('ref_axis',(-0.5,0.,0.866025403784439));
#1527=DIRECTION('',(0.866025403784438,0.,0.5));
#1528=DIRECTION('',(0.,0.,-1.));
#1529=DIRECTION('center_axis',(0.,1.,0.));
#1530=DIRECTION('ref_axis',(-1.,0.,0.));
#1531=DIRECTION('',(0.,0.,1.));
#1532=DIRECTION('',(0.866025403784439,0.,-0.5));
#1533=DIRECTION('center_axis',(0.,1.,0.));
#1534=DIRECTION('ref_axis',(-0.5,0.,-0.866025403784439));
#1535=DIRECTION('center_axis',(0.5,0.,-0.866025403784439));
#1536=DIRECTION('ref_axis',(0.866025403784439,0.,0.5));
#1537=DIRECTION('',(0.,-1.,0.));
#1538=DIRECTION('',(0.866025403784439,0.,0.5));
#1539=DIRECTION('',(0.,1.,0.));
#1540=DIRECTION('center_axis',(0.5,0.,0.866025403784439));
#1541=DIRECTION('ref_axis',(-0.866025403784439,0.,0.5));
#1542=DIRECTION('',(0.,-1.,0.));
#1543=DIRECTION('',(-0.866025403784439,0.,0.5));
#1544=DIRECTION('center_axis',(0.,1.,0.));
#1545=DIRECTION('ref_axis',(0.,0.,1.));
#1546=DIRECTION('center_axis',(0.,-1.,0.));
#1547=DIRECTION('ref_axis',(-1.,0.,0.));
#1548=DIRECTION('center_axis',(0.,1.,0.));
#1549=DIRECTION('ref_axis',(0.,0.,1.));
#1550=DIRECTION('center_axis',(0.,-1.,0.));
#1551=DIRECTION('ref_axis',(-1.,0.,0.));
#1552=DIRECTION('center_axis',(0.,1.,0.));
#1553=DIRECTION('ref_axis',(0.,0.,1.));
#1554=DIRECTION('center_axis',(0.,-1.,0.));
#1555=DIRECTION('ref_axis',(-1.,0.,0.));
#1556=DIRECTION('center_axis',(0.,1.,0.));
#1557=DIRECTION('ref_axis',(0.,0.,1.));
#1558=DIRECTION('',(0.,0.,-1.));
#1559=DIRECTION('center_axis',(0.,-1.,0.));
#1560=DIRECTION('ref_axis',(-1.,0.,0.));
#1561=DIRECTION('',(-0.866025403784439,0.,0.5));
#1562=DIRECTION('center_axis',(0.,1.,0.));
#1563=DIRECTION('ref_axis',(0.,0.,1.));
#1564=DIRECTION('',(-0.866025403784438,0.,-0.5));
#1565=DIRECTION('center_axis',(0.,-1.,0.));
#1566=DIRECTION('ref_axis',(-1.,0.,0.));
#1567=DIRECTION('',(0.,0.,1.));
#1568=DIRECTION('center_axis',(0.,1.,0.));
#1569=DIRECTION('ref_axis',(0.,0.,1.));
#1570=DIRECTION('center_axis',(0.,-1.,0.));
#1571=DIRECTION('ref_axis',(-1.,0.,0.));
#1572=DIRECTION('center_axis',(0.,1.,0.));
#1573=DIRECTION('ref_axis',(-0.707106781186547,0.,-0.707106781186547));
#1574=DIRECTION('',(0.,1.,0.));
#1575=DIRECTION('center_axis',(0.,-1.,0.));
#1576=DIRECTION('ref_axis',(-0.5,0.,-0.866025403784439));
#1577=DIRECTION('',(0.,-1.,0.));
#1578=DIRECTION('center_axis',(0.5,0.,0.866025403784439));
#1579=DIRECTION('ref_axis',(-0.866025403784439,0.,0.5));
#1580=DIRECTION('',(0.,1.,0.));
#1581=DIRECTION('center_axis',(0.,-1.,0.));
#1582=DIRECTION('ref_axis',(-1.,0.,0.));
#1583=DIRECTION('',(0.,-1.,0.));
#1584=DIRECTION('',(0.,-1.,0.));
#1585=DIRECTION('center_axis',(1.,0.,0.));
#1586=DIRECTION('ref_axis',(0.,0.,1.));
#1587=DIRECTION('',(0.,1.,0.));
#1588=DIRECTION('center_axis',(-1.,0.,0.));
#1589=DIRECTION('ref_axis',(0.,0.,-1.));
#1590=DIRECTION('',(0.,-1.,0.));
#1591=DIRECTION('center_axis',(0.,-1.,0.));
#1592=DIRECTION('ref_axis',(-0.5,0.,0.866025403784439));
#1593=DIRECTION('',(0.,-1.,0.));
#1594=DIRECTION('center_axis',(-0.5,0.,0.866025403784438));
#1595=DIRECTION('ref_axis',(-0.866025403784438,0.,-0.5));
#1596=DIRECTION('',(0.,-1.,0.));
#1597=DIRECTION('center_axis',(0.,-1.,0.));
#1598=DIRECTION('ref_axis',(0.998720333326687,0.,-0.0505736670593636));
#1599=DIRECTION('center_axis',(0.,-1.,0.));
#1600=DIRECTION('ref_axis',(-1.,0.,0.));
#1601=DIRECTION('center_axis',(0.,-1.,0.));
#1602=DIRECTION('ref_axis',(-1.,0.,0.));
#1603=DIRECTION('center_axis',(0.,-1.,0.));
#1604=DIRECTION('ref_axis',(-1.,0.,0.));
#1605=DIRECTION('center_axis',(0.,-1.,0.));
#1606=DIRECTION('ref_axis',(-1.,0.,0.));
#1607=DIRECTION('center_axis',(0.,-1.,0.));
#1608=DIRECTION('ref_axis',(-1.,0.,0.));
#1609=DIRECTION('center_axis',(-1.,0.,0.));
#1610=DIRECTION('ref_axis',(0.,0.,1.));
#1611=DIRECTION('',(0.,-1.,0.));
#1612=DIRECTION('center_axis',(0.,1.,0.));
#1613=DIRECTION('ref_axis',(-0.707106781186547,0.,0.707106781186547));
#1614=DIRECTION('',(0.,1.,0.));
#1615=DIRECTION('center_axis',(0.,0.,1.));
#1616=DIRECTION('ref_axis',(1.,0.,0.));
#1617=CARTESIAN_POINT('',(0.,0.,0.));
#1618=CARTESIAN_POINT('Origin',(-9.99200722162641E-15,0.,1.66533453693773E-14));
#1619=CARTESIAN_POINT('',(2.00000002980232,0.,-14.3361016487194));
#1620=CARTESIAN_POINT('',(12.005713004164,0.,-8.0862021903531));
#1621=CARTESIAN_POINT('Origin',(-9.99200722162641E-15,0.,1.66533453693773E-14));
#1622=CARTESIAN_POINT('',(2.00000002980232,6.,-14.3361016487194));
#1623=CARTESIAN_POINT('',(2.00000002980232,0.,-14.3361016487194));
#1624=CARTESIAN_POINT('',(12.005713004164,6.,-8.0862021903531));
#1625=CARTESIAN_POINT('Origin',(-9.99200722162641E-15,6.,1.66533453693773E-14));
#1626=CARTESIAN_POINT('',(12.005713004164,0.,-8.0862021903531));
#1627=CARTESIAN_POINT('Origin',(-9.99200722162641E-15,0.,1.66533453693773E-14));
#1628=CARTESIAN_POINT('',(-12.005713004164,0.,-8.08620219035311));
#1629=CARTESIAN_POINT('',(-2.00000002980232,0.,-14.3361016487194));
#1630=CARTESIAN_POINT('Origin',(-9.99200722162641E-15,0.,1.66533453693773E-14));
#1631=CARTESIAN_POINT('',(-12.005713004164,6.,-8.08620219035311));
#1632=CARTESIAN_POINT('',(-12.005713004164,0.,-8.08620219035312));
#1633=CARTESIAN_POINT('',(-2.00000002980232,6.,-14.3361016487194));
#1634=CARTESIAN_POINT('Origin',(-9.99200722162641E-15,6.,1.66533453693773E-14));
#1635=CARTESIAN_POINT('',(-2.00000002980232,0.,-14.3361016487194));
#1636=CARTESIAN_POINT('Origin',(-9.99200722162641E-15,0.,1.66533453693773E-14));
#1637=CARTESIAN_POINT('',(-13.4154282339282,0.,5.43599999098126));
#1638=CARTESIAN_POINT('',(-13.0057130190652,0.,-6.35415135697467));
#1639=CARTESIAN_POINT('Origin',(-9.99200722162641E-15,0.,1.66533453693773E-14));
#1640=CARTESIAN_POINT('',(-13.4154282339282,6.,5.43599999098126));
#1641=CARTESIAN_POINT('',(-13.4154282339282,0.,5.43599999098126));
#1642=CARTESIAN_POINT('',(-13.0057130190652,6.,-6.35415135697467));
#1643=CARTESIAN_POINT('Origin',(-9.99200722162641E-15,6.,1.66533453693773E-14));
#1644=CARTESIAN_POINT('',(-13.0057130190652,0.,-6.35415135697468));
#1645=CARTESIAN_POINT('Origin',(-9.99200722162641E-15,0.,1.66533453693773E-14));
#1646=CARTESIAN_POINT('',(-1.00000001490116,0.,14.4403535473278));
#1647=CARTESIAN_POINT('',(-11.4154282041258,0.,8.90010165773815));
#1648=CARTESIAN_POINT('Origin',(-9.99200722162641E-15,0.,1.66533453693773E-14));
#1649=CARTESIAN_POINT('',(-1.00000001490117,6.,14.4403535473278));
#1650=CARTESIAN_POINT('',(-1.00000001490116,0.,14.4403535473278));
#1651=CARTESIAN_POINT('',(-11.4154282041258,6.,8.90010165773815));
#1652=CARTESIAN_POINT('Origin',(-9.99200722162641E-15,6.,1.66533453693773E-14));
#1653=CARTESIAN_POINT('',(-11.4154282041258,0.,8.90010165773815));
#1654=CARTESIAN_POINT('Origin',(-9.99200722162641E-15,0.,1.66533453693773E-14));
#1655=CARTESIAN_POINT('',(11.4154282041258,0.,8.90010165773815));
#1656=CARTESIAN_POINT('',(1.00000001490116,0.,14.4403535473278));
#1657=CARTESIAN_POINT('Origin',(-9.99200722162641E-15,0.,1.66533453693773E-14));
#1658=CARTESIAN_POINT('',(11.4154282041258,6.,8.90010165773815));
#1659=CARTESIAN_POINT('',(11.4154282041258,0.,8.90010165773815));
#1660=CARTESIAN_POINT('',(1.00000001490116,6.,14.4403535473278));
#1661=CARTESIAN_POINT('Origin',(-9.99200722162641E-15,6.,1.66533453693773E-14));
#1662=CARTESIAN_POINT('',(1.00000001490116,0.,14.4403535473278));
#1663=CARTESIAN_POINT('Origin',(-9.99200722162641E-15,0.,1.66533453693773E-14));
#1664=CARTESIAN_POINT('',(13.0057130190652,0.,-6.35415135697465));
#1665=CARTESIAN_POINT('',(13.4154282339281,0.,5.43599999098126));
#1666=CARTESIAN_POINT('Origin',(-9.99200722162641E-15,0.,1.66533453693773E-14));
#1667=CARTESIAN_POINT('',(13.0057130190652,6.,-6.35415135697465));
#1668=CARTESIAN_POINT('',(13.0057130190652,0.,-6.35415135697466));
#1669=CARTESIAN_POINT('',(13.4154282339281,6.,5.43599999098126));
#1670=CARTESIAN_POINT('Origin',(-9.99200722162641E-15,6.,1.66533453693773E-14));
#1671=CARTESIAN_POINT('',(13.4154282339281,0.,5.43599999098126));
#1672=CARTESIAN_POINT('Origin',(0.,6.,0.));
#1673=CARTESIAN_POINT('',(17.5,6.,-25.));
#1674=CARTESIAN_POINT('',(-17.5,6.,-25.));
#1675=CARTESIAN_POINT('',(12.5,6.,-25.));
#1676=CARTESIAN_POINT('',(25.,6.,-17.5));
#1677=CARTESIAN_POINT('Origin',(17.5,6.,-17.5));
#1678=CARTESIAN_POINT('',(25.,6.,17.5));
#1679=CARTESIAN_POINT('',(25.,6.,12.5));
#1680=CARTESIAN_POINT('',(17.5,6.,25.));
#1681=CARTESIAN_POINT('Origin',(17.5,6.,17.5));
#1682=CARTESIAN_POINT('',(-17.5,6.,25.));
#1683=CARTESIAN_POINT('',(-12.5,6.,25.));
#1684=CARTESIAN_POINT('',(-25.,6.,17.5));
#1685=CARTESIAN_POINT('Origin',(-17.5,6.,17.5));
#1686=CARTESIAN_POINT('',(-25.,6.,-17.5));
#1687=CARTESIAN_POINT('',(-25.,6.,-12.5));
#1688=CARTESIAN_POINT('Origin',(-17.5,6.,-17.5));
#1689=CARTESIAN_POINT('',(15.9544829096447,6.,-10.3660255582503));
#1690=CARTESIAN_POINT('',(16.9544829062957,6.,-8.63397471433509));
#1691=CARTESIAN_POINT('Origin',(16.4544829170952,6.,-9.50000014156103));
#1692=CARTESIAN_POINT('',(3.80842197680445,6.,-3.35349400908137));
#1693=CARTESIAN_POINT('',(2.00000002980232,6.,-15.0000002235174));
#1694=CARTESIAN_POINT('',(2.00000002980232,6.,-7.50000011175871));
#1695=CARTESIAN_POINT('',(-2.00000002980232,6.,-15.0000002235174));
#1696=CARTESIAN_POINT('Origin',(0.,6.,-15.0000002235174));
#1697=CARTESIAN_POINT('',(-2.00000002980232,6.,-4.89897948252467));
#1698=CARTESIAN_POINT('',(-15.9544829096446,6.,-10.3660255582503));
#1699=CARTESIAN_POINT('',(-7.72724145109703,6.,-5.61602548746974));
#1700=CARTESIAN_POINT('',(-16.9544829245458,6.,-8.63397472487181));
#1701=CARTESIAN_POINT('Origin',(-16.4544829170952,6.,-9.50000014156103));
#1702=CARTESIAN_POINT('',(-4.80842199170561,6.,-1.62144317570292));
#1703=CARTESIAN_POINT('',(-13.9903812652395,6.,5.76794927838026));
#1704=CARTESIAN_POINT('',(-7.49519064007033,6.,2.01794922250091));
#1705=CARTESIAN_POINT('',(-11.9903812354372,6.,9.23205094513715));
#1706=CARTESIAN_POINT('Origin',(-12.9903812503383,6.,7.50000011175871));
#1707=CARTESIAN_POINT('',(-3.24264066958395,6.,4.18154057464078));
#1708=CARTESIAN_POINT('',(-1.00000001490116,6.,19.0000002831221));
#1709=CARTESIAN_POINT('',(-1.00000001490116,6.,9.50000014156103));
#1710=CARTESIAN_POINT('',(1.00000001490116,6.,19.0000002831221));
#1711=CARTESIAN_POINT('Origin',(0.,6.,19.0000002831221));
#1712=CARTESIAN_POINT('',(1.00000001490116,6.,4.97493718478429));
#1713=CARTESIAN_POINT('',(11.9903812719374,6.,9.23205096621058));
#1714=CARTESIAN_POINT('',(5.49519061026801,6.,5.4820508892578));
#1715=CARTESIAN_POINT('',(13.9903812652395,6.,5.76794927838027));
#1716=CARTESIAN_POINT('Origin',(12.9903812503383,6.,7.50000011175871));
#1717=CARTESIAN_POINT('',(5.24264069938627,6.,0.717438907883891));
#1718=CARTESIAN_POINT('',(8.7272414659982,6.,-3.88397465409129));
#1719=CARTESIAN_POINT('Origin',(-13.9903812652395,35.,5.76794927838026));
#1720=CARTESIAN_POINT('',(-9.48528138387138,0.,3.16692864914622));
#1721=CARTESIAN_POINT('',(-7.49519064007033,0.,2.01794922250091));
#1722=CARTESIAN_POINT('',(-9.48528138387138,35.,3.16692864914622));
#1723=CARTESIAN_POINT('',(-9.48528138387138,35.,3.16692864914622));
#1724=CARTESIAN_POINT('',(-13.4455959381249,35.,5.4534173231201));
#1725=CARTESIAN_POINT('',(-7.49519064007033,35.,2.01794922250091));
#1726=CARTESIAN_POINT('',(-13.4455959381249,30.,5.4534173231201));
#1727=CARTESIAN_POINT('',(-13.4455959381249,35.,5.4534173231201));
#1728=CARTESIAN_POINT('',(-13.9903812652395,30.,5.76794927838026));
#1729=CARTESIAN_POINT('',(-7.49519064007033,30.,2.01794922250091));
#1730=CARTESIAN_POINT('',(-13.9903812652395,35.,5.76794927838026));
#1731=CARTESIAN_POINT('Origin',(-9.11684397596064,35.,-4.10891176809507));
#1732=CARTESIAN_POINT('',(-16.9544829245458,30.,-8.63397472487181));
#1733=CARTESIAN_POINT('',(-16.9544829245458,35.,-8.63397472487181));
#1734=CARTESIAN_POINT('',(-13.0356634502532,30.,-6.37144324648345));
#1735=CARTESIAN_POINT('',(-4.80842199170561,30.,-1.62144317570292));
#1736=CARTESIAN_POINT('',(-13.0356634502532,35.,-6.37144324648345));
#1737=CARTESIAN_POINT('',(-13.0356634502532,35.,-6.37144324648345));
#1738=CARTESIAN_POINT('',(-9.11684397596064,35.,-4.10891176809507));
#1739=CARTESIAN_POINT('',(-4.80842199170561,35.,-1.62144317570292));
#1740=CARTESIAN_POINT('',(-9.11684397596064,0.,-4.10891176809507));
#1741=CARTESIAN_POINT('',(-9.11684397596064,35.,-4.10891176809507));
#1742=CARTESIAN_POINT('',(-4.80842199170561,0.,-1.62144317570292));
#1743=CARTESIAN_POINT('Origin',(-16.4544829170952,35.,-9.50000014156103));
#1744=CARTESIAN_POINT('',(-15.9544829096446,30.,-10.3660255582503));
#1745=CARTESIAN_POINT('',(-15.9544829096446,35.,-10.3660255582503));
#1746=CARTESIAN_POINT('Origin',(-16.4544829170952,30.,-9.50000014156103));
#1747=CARTESIAN_POINT('Origin',(-15.9544829096446,35.,-10.3660255582503));
#1748=CARTESIAN_POINT('',(-8.11684396105948,0.,-5.84096260147351));
#1749=CARTESIAN_POINT('',(-7.72724145109703,0.,-5.61602548746974));
#1750=CARTESIAN_POINT('',(-8.11684396105948,35.,-5.84096260147351));
#1751=CARTESIAN_POINT('',(-8.11684396105948,35.,-5.84096260147351));
#1752=CARTESIAN_POINT('',(-12.0356634353521,35.,-8.10349407986189));
#1753=CARTESIAN_POINT('',(-7.72724145109703,35.,-5.61602548746974));
#1754=CARTESIAN_POINT('',(-12.0356634353521,30.,-8.10349407986189));
#1755=CARTESIAN_POINT('',(-12.0356634353521,35.,-8.10349407986189));
#1756=CARTESIAN_POINT('',(-7.72724145109703,30.,-5.61602548746974));
#1757=CARTESIAN_POINT('Origin',(-2.00000002980232,35.,-9.79795896504934));
#1758=CARTESIAN_POINT('',(-2.00000002980232,30.,-15.0000002235174));
#1759=CARTESIAN_POINT('',(-2.00000002980232,35.,-15.0000002235174));
#1760=CARTESIAN_POINT('',(-2.00000002980232,30.,-14.3709363129971));
#1761=CARTESIAN_POINT('',(-2.00000002980232,30.,-4.89897948252467));
#1762=CARTESIAN_POINT('',(-2.00000002980232,35.,-14.3709363129971));
#1763=CARTESIAN_POINT('',(-2.00000002980232,35.,-14.3709363129971));
#1764=CARTESIAN_POINT('',(-2.00000002980232,35.,-9.79795896504934));
#1765=CARTESIAN_POINT('',(-2.00000002980232,35.,-4.89897948252467));
#1766=CARTESIAN_POINT('',(-2.00000002980232,0.,-9.79795896504934));
#1767=CARTESIAN_POINT('',(-2.00000002980232,35.,-9.79795896504934));
#1768=CARTESIAN_POINT('',(-2.00000002980232,0.,-4.89897948252467));
#1769=CARTESIAN_POINT('Origin',(0.,35.,-15.0000002235174));
#1770=CARTESIAN_POINT('',(2.00000002980232,30.,-15.0000002235174));
#1771=CARTESIAN_POINT('',(2.00000002980232,35.,-15.0000002235174));
#1772=CARTESIAN_POINT('Origin',(0.,30.,-15.0000002235174));
#1773=CARTESIAN_POINT('Origin',(2.00000002980232,35.,-15.0000002235174));
#1774=CARTESIAN_POINT('',(2.00000002980232,0.,-9.79795896504934));
#1775=CARTESIAN_POINT('',(2.00000002980232,0.,-7.50000011175871));
#1776=CARTESIAN_POINT('',(2.00000002980232,35.,-9.79795896504934));
#1777=CARTESIAN_POINT('',(2.00000002980232,35.,-9.79795896504934));
#1778=CARTESIAN_POINT('',(2.00000002980232,35.,-14.3709363129971));
#1779=CARTESIAN_POINT('',(2.00000002980232,35.,-7.50000011175871));
#1780=CARTESIAN_POINT('',(2.00000002980232,30.,-14.3709363129971));
#1781=CARTESIAN_POINT('',(2.00000002980232,35.,-14.3709363129971));
#1782=CARTESIAN_POINT('',(2.00000002980232,30.,-7.50000011175871));
#1783=CARTESIAN_POINT('Origin',(0.,0.,0.));
#1784=CARTESIAN_POINT('Origin',(0.,0.,0.));
#1785=CARTESIAN_POINT('Origin',(0.,0.,0.));
#1786=CARTESIAN_POINT('',(8.11684396105948,0.,-5.84096260147351));
#1787=CARTESIAN_POINT('',(3.80842197680445,0.,-3.35349400908137));
#1788=CARTESIAN_POINT('Origin',(0.,0.,0.));
#1789=CARTESIAN_POINT('Origin',(0.,0.,0.));
#1790=CARTESIAN_POINT('',(9.48528138387138,0.,3.16692864914623));
#1791=CARTESIAN_POINT('',(5.24264069938627,-4.44089209850063E-15,0.717438907883891));
#1792=CARTESIAN_POINT('',(9.11684397596064,0.,-4.10891176809506));
#1793=CARTESIAN_POINT('Origin',(0.,0.,0.));
#1794=CARTESIAN_POINT('',(8.7272414659982,0.,-3.88397465409129));
#1795=CARTESIAN_POINT('Origin',(0.,0.,0.));
#1796=CARTESIAN_POINT('',(1.00000001490116,0.,9.94987436956858));
#1797=CARTESIAN_POINT('',(1.00000001490116,0.,4.97493718478429));
#1798=CARTESIAN_POINT('',(7.48528135406905,0.,6.63103031590312));
#1799=CARTESIAN_POINT('Origin',(0.,0.,0.));
#1800=CARTESIAN_POINT('',(5.49519061026801,0.,5.4820508892578));
#1801=CARTESIAN_POINT('Origin',(0.,0.,0.));
#1802=CARTESIAN_POINT('',(-7.48528135406906,0.,6.63103031590311));
#1803=CARTESIAN_POINT('',(-3.24264066958395,0.,4.18154057464078));
#1804=CARTESIAN_POINT('',(-1.00000001490116,0.,9.94987436956858));
#1805=CARTESIAN_POINT('Origin',(0.,0.,0.));
#1806=CARTESIAN_POINT('',(-1.00000001490116,0.,9.50000014156103));
#1807=CARTESIAN_POINT('Origin',(0.,0.,0.));
#1808=CARTESIAN_POINT('Origin',(0.,0.,0.));
#1809=CARTESIAN_POINT('Origin',(8.11684396105948,35.,-5.84096260147351));
#1810=CARTESIAN_POINT('',(15.9544828913945,30.,-10.3660255477135));
#1811=CARTESIAN_POINT('',(15.9544829096447,35.,-10.3660255582503));
#1812=CARTESIAN_POINT('',(12.0356634353521,30.,-8.10349407986187));
#1813=CARTESIAN_POINT('',(3.80842197680445,30.,-3.35349400908137));
#1814=CARTESIAN_POINT('',(12.0356634353521,35.,-8.10349407986187));
#1815=CARTESIAN_POINT('',(12.0356634353521,35.,-8.10349407986187));
#1816=CARTESIAN_POINT('',(8.11684396105948,35.,-5.84096260147351));
#1817=CARTESIAN_POINT('',(3.80842197680445,35.,-3.35349400908137));
#1818=CARTESIAN_POINT('',(8.11684396105948,35.,-5.84096260147351));
#1819=CARTESIAN_POINT('Origin',(16.4544829170952,35.,-9.50000014156103));
#1820=CARTESIAN_POINT('',(16.9544829245458,30.,-8.6339747248718));
#1821=CARTESIAN_POINT('',(16.9544829245458,35.,-8.6339747248718));
#1822=CARTESIAN_POINT('Origin',(16.4544829170952,30.,-9.50000014156103));
#1823=CARTESIAN_POINT('Origin',(17.5,0.,17.5));
#1824=CARTESIAN_POINT('',(25.,30.,17.5));
#1825=CARTESIAN_POINT('',(25.,0.,17.5));
#1826=CARTESIAN_POINT('',(17.5,30.,25.));
#1827=CARTESIAN_POINT('Origin',(17.5,30.,17.5));
#1828=CARTESIAN_POINT('',(17.5,0.,25.));
#1829=CARTESIAN_POINT('Origin',(25.,0.,25.));
#1830=CARTESIAN_POINT('',(25.,30.,-17.5));
#1831=CARTESIAN_POINT('',(25.,0.,-17.5));
#1832=CARTESIAN_POINT('',(25.,30.,12.5));
#1833=CARTESIAN_POINT('Origin',(17.5,0.,-17.5));
#1834=CARTESIAN_POINT('',(17.5,30.,-25.));
#1835=CARTESIAN_POINT('',(17.5,0.,-25.));
#1836=CARTESIAN_POINT('Origin',(17.5,30.,-17.5));
#1837=CARTESIAN_POINT('Origin',(25.,0.,-25.));
#1838=CARTESIAN_POINT('',(-17.5,30.,-25.));
#1839=CARTESIAN_POINT('',(-17.5,0.,-25.));
#1840=CARTESIAN_POINT('',(12.5,30.,-25.));
#1841=CARTESIAN_POINT('Origin',(-1.55431223447522E-14,35.,-1.11022302462516E-15));
#1842=CARTESIAN_POINT('Origin',(-1.55431223447522E-14,35.,-1.11022302462516E-15));
#1843=CARTESIAN_POINT('Origin',(-1.55431223447522E-14,30.,-1.11022302462516E-15));
#1844=CARTESIAN_POINT('Origin',(-1.55431223447522E-14,35.,-1.11022302462516E-15));
#1845=CARTESIAN_POINT('Origin',(-1.55431223447522E-14,35.,-1.11022302462516E-15));
#1846=CARTESIAN_POINT('Origin',(-1.55431223447522E-14,30.,-1.11022302462516E-15));
#1847=CARTESIAN_POINT('Origin',(-1.55431223447522E-14,35.,-1.11022302462516E-15));
#1848=CARTESIAN_POINT('',(13.4455959381249,35.,5.45341732312009));
#1849=CARTESIAN_POINT('',(13.0356634502532,35.,-6.37144324648342));
#1850=CARTESIAN_POINT('Origin',(-1.55431223447522E-14,35.,-1.11022302462516E-15));
#1851=CARTESIAN_POINT('',(13.4455959381249,30.,5.45341732312009));
#1852=CARTESIAN_POINT('',(13.4455959381249,35.,5.45341732312009));
#1853=CARTESIAN_POINT('',(13.0356634502532,30.,-6.37144324648342));
#1854=CARTESIAN_POINT('Origin',(-1.55431223447522E-14,30.,-1.11022302462516E-15));
#1855=CARTESIAN_POINT('',(13.0356634502532,35.,-6.37144324648343));
#1856=CARTESIAN_POINT('Origin',(-1.55431223447522E-14,35.,-1.11022302462516E-15));
#1857=CARTESIAN_POINT('',(1.00000001490116,35.,14.4749373263453));
#1858=CARTESIAN_POINT('',(11.4455959083226,35.,8.91751898987698));
#1859=CARTESIAN_POINT('Origin',(-1.55431223447522E-14,35.,-1.11022302462516E-15));
#1860=CARTESIAN_POINT('',(1.00000001490116,30.,14.4749373263453));
#1861=CARTESIAN_POINT('',(1.00000001490116,35.,14.4749373263453));
#1862=CARTESIAN_POINT('',(11.4455959083226,30.,8.91751898987698));
#1863=CARTESIAN_POINT('Origin',(-1.55431223447522E-14,30.,-1.11022302462516E-15));
#1864=CARTESIAN_POINT('',(11.4455959083226,35.,8.91751898987698));
#1865=CARTESIAN_POINT('Origin',(-1.55431223447522E-14,35.,-1.11022302462516E-15));
#1866=CARTESIAN_POINT('',(-11.4455959083226,35.,8.91751898987699));
#1867=CARTESIAN_POINT('',(-1.00000001490116,35.,14.4749373263453));
#1868=CARTESIAN_POINT('Origin',(-1.55431223447522E-14,35.,-1.11022302462516E-15));
#1869=CARTESIAN_POINT('',(-11.4455959083226,30.,8.91751898987699));
#1870=CARTESIAN_POINT('',(-11.4455959083226,35.,8.91751898987699));
#1871=CARTESIAN_POINT('',(-1.00000001490116,30.,14.4749373263453));
#1872=CARTESIAN_POINT('Origin',(-1.55431223447522E-14,30.,-1.11022302462516E-15));
#1873=CARTESIAN_POINT('',(-1.00000001490116,35.,14.4749373263453));
#1874=CARTESIAN_POINT('Origin',(-1.55431223447522E-14,35.,-1.11022302462516E-15));
#1875=CARTESIAN_POINT('Origin',(-1.55431223447522E-14,35.,-1.11022302462516E-15));
#1876=CARTESIAN_POINT('Origin',(-1.55431223447522E-14,30.,-1.11022302462516E-15));
#1877=CARTESIAN_POINT('Origin',(0.,30.,0.));
#1878=CARTESIAN_POINT('',(-25.,30.,-17.5));
#1879=CARTESIAN_POINT('Origin',(-17.5,30.,-17.5));
#1880=CARTESIAN_POINT('',(-25.,30.,17.5));
#1881=CARTESIAN_POINT('',(-25.,30.,-12.5));
#1882=CARTESIAN_POINT('',(-17.5,30.,25.));
#1883=CARTESIAN_POINT('Origin',(-17.5,30.,17.5));
#1884=CARTESIAN_POINT('',(-12.5,30.,25.));
#1885=CARTESIAN_POINT('',(8.7272414659982,30.,-3.88397465409129));
#1886=CARTESIAN_POINT('',(13.9903812652395,30.,5.76794927838027));
#1887=CARTESIAN_POINT('',(5.24264069938627,30.,0.717438907883891));
#1888=CARTESIAN_POINT('',(11.9903812354372,30.,9.23205094513716));
#1889=CARTESIAN_POINT('Origin',(12.9903812503383,30.,7.50000011175871));
#1890=CARTESIAN_POINT('',(5.49519061026801,30.,5.4820508892578));
#1891=CARTESIAN_POINT('',(1.00000001490116,30.,19.0000002831221));
#1892=CARTESIAN_POINT('',(1.00000001490116,30.,4.97493718478429));
#1893=CARTESIAN_POINT('',(-1.00000001490116,30.,19.0000002831221));
#1894=CARTESIAN_POINT('Origin',(0.,30.,19.0000002831221));
#1895=CARTESIAN_POINT('',(-1.00000001490116,30.,9.50000014156103));
#1896=CARTESIAN_POINT('',(-11.9903812354372,30.,9.23205094513715));
#1897=CARTESIAN_POINT('',(-3.24264066958395,30.,4.18154057464078));
#1898=CARTESIAN_POINT('Origin',(-12.9903812503383,30.,7.50000011175871));
#1899=CARTESIAN_POINT('Origin',(9.48528138387137,35.,3.16692864914623));
#1900=CARTESIAN_POINT('',(13.9903812652395,35.,5.76794927838027));
#1901=CARTESIAN_POINT('',(9.48528138387137,35.,3.16692864914623));
#1902=CARTESIAN_POINT('',(5.24264069938627,35.,0.717438907883891));
#1903=CARTESIAN_POINT('',(9.48528138387138,35.,3.16692864914623));
#1904=CARTESIAN_POINT('Origin',(16.9544829245458,35.,-8.6339747248718));
#1905=CARTESIAN_POINT('',(9.11684397596064,35.,-4.10891176809506));
#1906=CARTESIAN_POINT('',(9.11684397596064,35.,-4.10891176809506));
#1907=CARTESIAN_POINT('',(8.7272414659982,35.,-3.88397465409129));
#1908=CARTESIAN_POINT('Origin',(0.,35.,0.));
#1909=CARTESIAN_POINT('Origin',(0.,35.,0.));
#1910=CARTESIAN_POINT('Origin',(0.,35.,0.));
#1911=CARTESIAN_POINT('Origin',(0.,35.,0.));
#1912=CARTESIAN_POINT('Origin',(0.,35.,0.));
#1913=CARTESIAN_POINT('Origin',(0.,35.,0.));
#1914=CARTESIAN_POINT('Origin',(0.,35.,0.));
#1915=CARTESIAN_POINT('',(-1.00000001490116,35.,9.94987436956858));
#1916=CARTESIAN_POINT('',(-1.00000001490116,35.,9.50000014156103));
#1917=CARTESIAN_POINT('',(-7.48528135406906,35.,6.63103031590311));
#1918=CARTESIAN_POINT('Origin',(0.,35.,0.));
#1919=CARTESIAN_POINT('',(-3.24264066958395,35.,4.18154057464078));
#1920=CARTESIAN_POINT('Origin',(0.,35.,0.));
#1921=CARTESIAN_POINT('',(7.48528135406905,35.,6.63103031590312));
#1922=CARTESIAN_POINT('',(5.49519061026801,35.,5.4820508892578));
#1923=CARTESIAN_POINT('',(1.00000001490116,35.,9.94987436956858));
#1924=CARTESIAN_POINT('Origin',(0.,35.,0.));
#1925=CARTESIAN_POINT('',(1.00000001490116,35.,4.97493718478429));
#1926=CARTESIAN_POINT('Origin',(0.,35.,0.));
#1927=CARTESIAN_POINT('Origin',(0.,35.,0.));
#1928=CARTESIAN_POINT('Origin',(-17.5,0.,-17.5));
#1929=CARTESIAN_POINT('',(-25.,0.,-17.5));
#1930=CARTESIAN_POINT('Origin',(-12.9903812503383,35.,7.50000011175871));
#1931=CARTESIAN_POINT('',(-11.9903812354372,35.,9.23205094513715));
#1932=CARTESIAN_POINT('Origin',(-7.48528135406906,35.,6.63103031590311));
#1933=CARTESIAN_POINT('',(-7.48528135406906,35.,6.63103031590311));
#1934=CARTESIAN_POINT('Origin',(0.,35.,19.0000002831221));
#1935=CARTESIAN_POINT('',(-1.00000001490116,35.,19.0000002831221));
#1936=CARTESIAN_POINT('',(1.00000001490116,35.,19.0000002831221));
#1937=CARTESIAN_POINT('Origin',(1.00000001490116,35.,9.94987436956858));
#1938=CARTESIAN_POINT('',(1.00000001490116,35.,9.94987436956858));
#1939=CARTESIAN_POINT('Origin',(-1.00000001490116,35.,19.0000002831221));
#1940=CARTESIAN_POINT('',(-1.00000001490116,35.,9.94987436956858));
#1941=CARTESIAN_POINT('Origin',(12.9903812503383,35.,7.50000011175871));
#1942=CARTESIAN_POINT('',(11.9903812354372,35.,9.23205094513716));
#1943=CARTESIAN_POINT('Origin',(11.9903812354372,35.,9.23205094513716));
#1944=CARTESIAN_POINT('',(7.48528135406905,35.,6.63103031590312));
#1945=CARTESIAN_POINT('Origin',(0.,35.,0.));
#1946=CARTESIAN_POINT('Origin',(0.,35.,0.));
#1947=CARTESIAN_POINT('Origin',(0.,35.,0.));
#1948=CARTESIAN_POINT('Origin',(0.,35.,0.));
#1949=CARTESIAN_POINT('Origin',(0.,35.,0.));
#1950=CARTESIAN_POINT('Origin',(0.,35.,0.));
#1951=CARTESIAN_POINT('Origin',(-25.,0.,-25.));
#1952=CARTESIAN_POINT('',(-25.,0.,17.5));
#1953=CARTESIAN_POINT('Origin',(-17.5,0.,17.5));
#1954=CARTESIAN_POINT('',(-17.5,0.,25.));
#1955=CARTESIAN_POINT('Origin',(-25.,0.,25.));
#1956=UNCERTAINTY_MEASURE_WITH_UNIT(LENGTH_MEASURE(0.01),#1960,
'DISTANCE_ACCURACY_VALUE',
'Maximum model space distance between geometric entities at asserted c
onnectivities');
#1957=UNCERTAINTY_MEASURE_WITH_UNIT(LENGTH_MEASURE(0.01),#1960,
'DISTANCE_ACCURACY_VALUE',
'Maximum model space distance between geometric entities at asserted c
onnectivities');
#1958=(
GEOMETRIC_REPRESENTATION_CONTEXT(3)
GLOBAL_UNCERTAINTY_ASSIGNED_CONTEXT((#1956))
GLOBAL_UNIT_ASSIGNED_CONTEXT((#1960,#1962,#1963))
REPRESENTATION_CONTEXT('','3D')
);
#1959=(
GEOMETRIC_REPRESENTATION_CONTEXT(3)
GLOBAL_UNCERTAINTY_ASSIGNED_CONTEXT((#1957))
GLOBAL_UNIT_ASSIGNED_CONTEXT((#1960,#1962,#1963))
REPRESENTATION_CONTEXT('','3D')
);
#1960=(
LENGTH_UNIT()
NAMED_UNIT(*)
SI_UNIT(.MILLI.,.METRE.)
);
#1961=(
LENGTH_UNIT()
NAMED_UNIT(*)
SI_UNIT($,.METRE.)
);
#1962=(
NAMED_UNIT(*)
PLANE_ANGLE_UNIT()
SI_UNIT($,.RADIAN.)
);
#1963=(
NAMED_UNIT(*)
SI_UNIT($,.STERADIAN.)
SOLID_ANGLE_UNIT()
);
#1964=SHAPE_DEFINITION_REPRESENTATION(#1965,#1966);
#1965=PRODUCT_DEFINITION_SHAPE('',$,#1968);
#1966=SHAPE_REPRESENTATION('',(#1160),#1958);
#1967=PRODUCT_DEFINITION_CONTEXT('part definition',#1972,'design');
#1968=PRODUCT_DEFINITION('(Unsaved)','(Unsaved)',#1969,#1967);
#1969=PRODUCT_DEFINITION_FORMATION('',$,#1974);
#1970=PRODUCT_RELATED_PRODUCT_CATEGORY('(Unsaved)','(Unsaved)',(#1974));
#1971=APPLICATION_PROTOCOL_DEFINITION('international standard',
'automotive_design',2009,#1972);
#1972=APPLICATION_CONTEXT(
'Core Data for Automotive Mechanical Design Process');
#1973=PRODUCT_CONTEXT('part definition',#1972,'mechanical');
#1974=PRODUCT('(Unsaved)','(Unsaved)',$,(#1973));
#1975=PRESENTATION_STYLE_ASSIGNMENT((#1976));
#1976=SURFACE_STYLE_USAGE(.BOTH.,#1977);
#1977=SURFACE_SIDE_STYLE('',(#1978));
#1978=SURFACE_STYLE_FILL_AREA(#1979);
#1979=FILL_AREA_STYLE('Steel - Satin',(#1980));
#1980=FILL_AREA_STYLE_COLOUR('Steel - Satin',#1981);
#1981=COLOUR_RGB('Steel - Satin',0.627450980392157,0.627450980392157,0.627450980392157);
ENDSEC;
END-ISO-10303-21;
