ISO-10303-21;
HEADER;
/* Generated by software containing ST-Developer
 * from STEP Tools, Inc. (www.steptools.com) 
 */

FILE_DESCRIPTION(
/* description */ (''),
/* implementation_level */ '2;1');

FILE_NAME(
/* name */ 'drilled_011.step',
/* time_stamp */ '2024-11-25T12:21:10+03:00',
/* author */ (''),
/* organization */ (''),
/* preprocessor_version */ 'ST-DEVELOPER v20',
/* originating_system */ 'Autodesk Translation Framework v13.14.0.145',

/* authorisation */ '');

FILE_SCHEMA (('AUTOMOTIVE_DESIGN { 1 0 10303 214 3 1 1 }'));
ENDSEC;

DATA;
#10=MECHANICAL_DESIGN_GEOMETRIC_PRESENTATION_REPRESENTATION('',(#13),#2117);
#11=SHAPE_REPRESENTATION_RELATIONSHIP('SRR','None',#2124,#12);
#12=ADVANCED_BREP_SHAPE_REPRESENTATION('',(#14),#2116);
#13=STYLED_ITEM('',(#2133),#14);
#14=MANIFOLD_SOLID_BREP('Body1',#1254);
#15=FACE_BOUND('',#137,.T.);
#16=FACE_BOUND('',#157,.T.);
#17=FACE_BOUND('',#172,.T.);
#18=CYLINDRICAL_SURFACE('',#1275,19.0000002831221);
#19=CYLINDRICAL_SURFACE('',#1300,10.);
#20=CYLINDRICAL_SURFACE('',#1304,2.00000002980232);
#21=CYLINDRICAL_SURFACE('',#1307,2.00000002980232);
#22=CYLINDRICAL_SURFACE('',#1310,2.00000002980232);
#23=CYLINDRICAL_SURFACE('',#1317,2.00000002980232);
#24=CYLINDRICAL_SURFACE('',#1320,1.00000001490116);
#25=CYLINDRICAL_SURFACE('',#1322,1.00000001490116);
#26=CYLINDRICAL_SURFACE('',#1325,1.00000001490116);
#27=CYLINDRICAL_SURFACE('',#1327,10.);
#28=CYLINDRICAL_SURFACE('',#1331,2.00000002980232);
#29=CYLINDRICAL_SURFACE('',#1333,22.0000003278255);
#30=CYLINDRICAL_SURFACE('',#1337,1.00000001490116);
#31=CYLINDRICAL_SURFACE('',#1341,2.00000002980232);
#32=CYLINDRICAL_SURFACE('',#1345,10.);
#33=CYLINDRICAL_SURFACE('',#1350,2.00000002980232);
#34=CYLINDRICAL_SURFACE('',#1354,10.);
#35=CYLINDRICAL_SURFACE('',#1368,2.00000002980232);
#36=CYLINDRICAL_SURFACE('',#1371,7.5);
#37=CYLINDRICAL_SURFACE('',#1374,7.5);
#38=CYLINDRICAL_SURFACE('',#1377,7.5);
#39=CYLINDRICAL_SURFACE('',#1380,7.5);
#40=FACE_OUTER_BOUND('',#105,.T.);
#41=FACE_OUTER_BOUND('',#106,.T.);
#42=FACE_OUTER_BOUND('',#107,.T.);
#43=FACE_OUTER_BOUND('',#108,.T.);
#44=FACE_OUTER_BOUND('',#109,.T.);
#45=FACE_OUTER_BOUND('',#110,.T.);
#46=FACE_OUTER_BOUND('',#111,.T.);
#47=FACE_OUTER_BOUND('',#112,.T.);
#48=FACE_OUTER_BOUND('',#113,.T.);
#49=FACE_OUTER_BOUND('',#114,.T.);
#50=FACE_OUTER_BOUND('',#115,.T.);
#51=FACE_OUTER_BOUND('',#116,.T.);
#52=FACE_OUTER_BOUND('',#117,.T.);
#53=FACE_OUTER_BOUND('',#118,.T.);
#54=FACE_OUTER_BOUND('',#119,.T.);
#55=FACE_OUTER_BOUND('',#120,.T.);
#56=FACE_OUTER_BOUND('',#121,.T.);
#57=FACE_OUTER_BOUND('',#122,.T.);
#58=FACE_OUTER_BOUND('',#123,.T.);
#59=FACE_OUTER_BOUND('',#124,.T.);
#60=FACE_OUTER_BOUND('',#125,.T.);
#61=FACE_OUTER_BOUND('',#126,.T.);
#62=FACE_OUTER_BOUND('',#127,.T.);
#63=FACE_OUTER_BOUND('',#128,.T.);
#64=FACE_OUTER_BOUND('',#129,.T.);
#65=FACE_OUTER_BOUND('',#130,.T.);
#66=FACE_OUTER_BOUND('',#131,.T.);
#67=FACE_OUTER_BOUND('',#132,.T.);
#68=FACE_OUTER_BOUND('',#133,.T.);
#69=FACE_OUTER_BOUND('',#134,.T.);
#70=FACE_OUTER_BOUND('',#135,.T.);
#71=FACE_OUTER_BOUND('',#136,.T.);
#72=FACE_OUTER_BOUND('',#138,.T.);
#73=FACE_OUTER_BOUND('',#139,.T.);
#74=FACE_OUTER_BOUND('',#140,.T.);
#75=FACE_OUTER_BOUND('',#141,.T.);
#76=FACE_OUTER_BOUND('',#142,.T.);
#77=FACE_OUTER_BOUND('',#143,.T.);
#78=FACE_OUTER_BOUND('',#144,.T.);
#79=FACE_OUTER_BOUND('',#145,.T.);
#80=FACE_OUTER_BOUND('',#146,.T.);
#81=FACE_OUTER_BOUND('',#147,.T.);
#82=FACE_OUTER_BOUND('',#148,.T.);
#83=FACE_OUTER_BOUND('',#149,.T.);
#84=FACE_OUTER_BOUND('',#150,.T.);
#85=FACE_OUTER_BOUND('',#151,.T.);
#86=FACE_OUTER_BOUND('',#152,.T.);
#87=FACE_OUTER_BOUND('',#153,.T.);
#88=FACE_OUTER_BOUND('',#154,.T.);
#89=FACE_OUTER_BOUND('',#155,.T.);
#90=FACE_OUTER_BOUND('',#156,.T.);
#91=FACE_OUTER_BOUND('',#158,.T.);
#92=FACE_OUTER_BOUND('',#159,.T.);
#93=FACE_OUTER_BOUND('',#160,.T.);
#94=FACE_OUTER_BOUND('',#161,.T.);
#95=FACE_OUTER_BOUND('',#162,.T.);
#96=FACE_OUTER_BOUND('',#163,.T.);
#97=FACE_OUTER_BOUND('',#164,.T.);
#98=FACE_OUTER_BOUND('',#165,.T.);
#99=FACE_OUTER_BOUND('',#166,.T.);
#100=FACE_OUTER_BOUND('',#167,.T.);
#101=FACE_OUTER_BOUND('',#168,.T.);
#102=FACE_OUTER_BOUND('',#169,.T.);
#103=FACE_OUTER_BOUND('',#170,.T.);
#104=FACE_OUTER_BOUND('',#171,.T.);
#105=EDGE_LOOP('',(#784,#785,#786,#787,#788,#789,#790,#791,#792,#793,#794,
#795,#796,#797));
#106=EDGE_LOOP('',(#798,#799,#800,#801,#802,#803,#804));
#107=EDGE_LOOP('',(#805,#806,#807,#808,#809,#810,#811,#812,#813,#814,#815,
#816,#817,#818));
#108=EDGE_LOOP('',(#819,#820,#821,#822,#823,#824,#825,#826,#827,#828,#829,
#830,#831,#832));
#109=EDGE_LOOP('',(#833,#834,#835,#836,#837,#838,#839,#840,#841,#842,#843,
#844,#845,#846));
#110=EDGE_LOOP('',(#847,#848,#849,#850));
#111=EDGE_LOOP('',(#851,#852,#853,#854));
#112=EDGE_LOOP('',(#855,#856,#857,#858));
#113=EDGE_LOOP('',(#859,#860,#861,#862));
#114=EDGE_LOOP('',(#863,#864,#865,#866));
#115=EDGE_LOOP('',(#867,#868,#869,#870));
#116=EDGE_LOOP('',(#871,#872,#873,#874));
#117=EDGE_LOOP('',(#875,#876,#877,#878));
#118=EDGE_LOOP('',(#879,#880,#881,#882));
#119=EDGE_LOOP('',(#883,#884,#885,#886));
#120=EDGE_LOOP('',(#887,#888,#889,#890));
#121=EDGE_LOOP('',(#891,#892,#893,#894));
#122=EDGE_LOOP('',(#895,#896,#897,#898));
#123=EDGE_LOOP('',(#899,#900,#901,#902));
#124=EDGE_LOOP('',(#903,#904,#905,#906));
#125=EDGE_LOOP('',(#907,#908,#909,#910));
#126=EDGE_LOOP('',(#911,#912,#913,#914));
#127=EDGE_LOOP('',(#915,#916,#917,#918,#919));
#128=EDGE_LOOP('',(#920,#921,#922,#923,#924));
#129=EDGE_LOOP('',(#925,#926,#927,#928));
#130=EDGE_LOOP('',(#929,#930,#931,#932,#933));
#131=EDGE_LOOP('',(#934,#935,#936,#937));
#132=EDGE_LOOP('',(#938,#939,#940,#941));
#133=EDGE_LOOP('',(#942,#943,#944,#945));
#134=EDGE_LOOP('',(#946,#947,#948,#949));
#135=EDGE_LOOP('',(#950,#951,#952,#953));
#136=EDGE_LOOP('',(#954));
#137=EDGE_LOOP('',(#955));
#138=EDGE_LOOP('',(#956,#957,#958,#959,#960));
#139=EDGE_LOOP('',(#961,#962,#963,#964));
#140=EDGE_LOOP('',(#965,#966,#967,#968));
#141=EDGE_LOOP('',(#969,#970,#971,#972));
#142=EDGE_LOOP('',(#973,#974,#975,#976));
#143=EDGE_LOOP('',(#977,#978,#979,#980));
#144=EDGE_LOOP('',(#981,#982,#983,#984));
#145=EDGE_LOOP('',(#985,#986,#987,#988));
#146=EDGE_LOOP('',(#989,#990,#991,#992));
#147=EDGE_LOOP('',(#993,#994,#995,#996));
#148=EDGE_LOOP('',(#997,#998,#999,#1000));
#149=EDGE_LOOP('',(#1001,#1002,#1003,#1004));
#150=EDGE_LOOP('',(#1005,#1006,#1007,#1008));
#151=EDGE_LOOP('',(#1009,#1010,#1011,#1012));
#152=EDGE_LOOP('',(#1013,#1014,#1015,#1016));
#153=EDGE_LOOP('',(#1017,#1018,#1019,#1020));
#154=EDGE_LOOP('',(#1021,#1022,#1023,#1024));
#155=EDGE_LOOP('',(#1025,#1026,#1027,#1028));
#156=EDGE_LOOP('',(#1029,#1030,#1031,#1032,#1033,#1034,#1035,#1036));
#157=EDGE_LOOP('',(#1037,#1038,#1039,#1040,#1041,#1042,#1043,#1044,#1045,
#1046,#1047,#1048,#1049,#1050,#1051,#1052,#1053,#1054,#1055,#1056,#1057,
#1058,#1059,#1060,#1061,#1062,#1063,#1064,#1065,#1066,#1067,#1068,#1069,
#1070,#1071,#1072,#1073,#1074,#1075,#1076,#1077,#1078,#1079,#1080,#1081,
#1082,#1083,#1084));
#158=EDGE_LOOP('',(#1085,#1086,#1087,#1088));
#159=EDGE_LOOP('',(#1089,#1090,#1091,#1092));
#160=EDGE_LOOP('',(#1093,#1094,#1095,#1096));
#161=EDGE_LOOP('',(#1097,#1098,#1099,#1100));
#162=EDGE_LOOP('',(#1101,#1102,#1103,#1104));
#163=EDGE_LOOP('',(#1105,#1106,#1107,#1108));
#164=EDGE_LOOP('',(#1109,#1110,#1111,#1112));
#165=EDGE_LOOP('',(#1113,#1114,#1115,#1116));
#166=EDGE_LOOP('',(#1117,#1118,#1119,#1120));
#167=EDGE_LOOP('',(#1121,#1122,#1123,#1124));
#168=EDGE_LOOP('',(#1125,#1126,#1127,#1128));
#169=EDGE_LOOP('',(#1129,#1130,#1131,#1132));
#170=EDGE_LOOP('',(#1133,#1134,#1135,#1136));
#171=EDGE_LOOP('',(#1137,#1138,#1139,#1140,#1141,#1142,#1143,#1144));
#172=EDGE_LOOP('',(#1145));
#173=CIRCLE('',#1269,1.00000001490116);
#174=CIRCLE('',#1270,19.0000002831221);
#175=CIRCLE('',#1271,1.00000001490116);
#176=CIRCLE('',#1272,2.00000002980232);
#177=CIRCLE('',#1273,10.);
#178=CIRCLE('',#1274,2.00000002980232);
#179=CIRCLE('',#1276,19.0000002831221);
#180=CIRCLE('',#1277,19.0000002831221);
#181=CIRCLE('',#1278,19.0000002831221);
#182=CIRCLE('',#1279,19.0000002831221);
#183=CIRCLE('',#1281,2.00000002980232);
#184=CIRCLE('',#1282,10.);
#185=CIRCLE('',#1283,2.00000002980232);
#186=CIRCLE('',#1284,1.00000001490116);
#187=CIRCLE('',#1285,1.00000001490116);
#188=CIRCLE('',#1287,2.00000002980232);
#189=CIRCLE('',#1288,10.);
#190=CIRCLE('',#1289,2.00000002980232);
#191=CIRCLE('',#1290,1.00000001490116);
#192=CIRCLE('',#1291,1.00000001490116);
#193=CIRCLE('',#1293,2.00000002980232);
#194=CIRCLE('',#1294,10.);
#195=CIRCLE('',#1295,2.00000002980232);
#196=CIRCLE('',#1296,1.00000001490116);
#197=CIRCLE('',#1297,1.00000001490116);
#198=CIRCLE('',#1301,10.);
#199=CIRCLE('',#1305,2.00000002980232);
#200=CIRCLE('',#1308,2.00000002980232);
#201=CIRCLE('',#1311,2.00000002980232);
#202=CIRCLE('',#1318,2.00000002980232);
#203=CIRCLE('',#1321,1.00000001490116);
#204=CIRCLE('',#1323,1.00000001490116);
#205=CIRCLE('',#1326,1.00000001490116);
#206=CIRCLE('',#1328,10.);
#207=CIRCLE('',#1332,2.00000002980232);
#208=CIRCLE('',#1334,22.0000003278255);
#209=CIRCLE('',#1335,22.0000003278255);
#210=CIRCLE('',#1338,1.00000001490116);
#211=CIRCLE('',#1342,2.00000002980232);
#212=CIRCLE('',#1346,10.);
#213=CIRCLE('',#1351,2.00000002980232);
#214=CIRCLE('',#1355,10.);
#215=CIRCLE('',#1361,7.5);
#216=CIRCLE('',#1362,7.5);
#217=CIRCLE('',#1363,7.5);
#218=CIRCLE('',#1364,7.5);
#219=CIRCLE('',#1365,2.00000002980232);
#220=CIRCLE('',#1372,7.5);
#221=CIRCLE('',#1375,7.5);
#222=CIRCLE('',#1378,7.5);
#223=CIRCLE('',#1381,7.5);
#224=LINE('',#1752,#354);
#225=LINE('',#1754,#355);
#226=LINE('',#1762,#356);
#227=LINE('',#1764,#357);
#228=LINE('',#1768,#358);
#229=LINE('',#1770,#359);
#230=LINE('',#1774,#360);
#231=LINE('',#1776,#361);
#232=LINE('',#1782,#362);
#233=LINE('',#1790,#363);
#234=LINE('',#1792,#364);
#235=LINE('',#1796,#365);
#236=LINE('',#1798,#366);
#237=LINE('',#1802,#367);
#238=LINE('',#1804,#368);
#239=LINE('',#1808,#369);
#240=LINE('',#1810,#370);
#241=LINE('',#1816,#371);
#242=LINE('',#1818,#372);
#243=LINE('',#1822,#373);
#244=LINE('',#1824,#374);
#245=LINE('',#1828,#375);
#246=LINE('',#1830,#376);
#247=LINE('',#1834,#377);
#248=LINE('',#1836,#378);
#249=LINE('',#1842,#379);
#250=LINE('',#1844,#380);
#251=LINE('',#1848,#381);
#252=LINE('',#1850,#382);
#253=LINE('',#1854,#383);
#254=LINE('',#1856,#384);
#255=LINE('',#1860,#385);
#256=LINE('',#1862,#386);
#257=LINE('',#1867,#387);
#258=LINE('',#1869,#388);
#259=LINE('',#1870,#389);
#260=LINE('',#1873,#390);
#261=LINE('',#1874,#391);
#262=LINE('',#1877,#392);
#263=LINE('',#1880,#393);
#264=LINE('',#1883,#394);
#265=LINE('',#1884,#395);
#266=LINE('',#1887,#396);
#267=LINE('',#1889,#397);
#268=LINE('',#1890,#398);
#269=LINE('',#1893,#399);
#270=LINE('',#1897,#400);
#271=LINE('',#1898,#401);
#272=LINE('',#1901,#402);
#273=LINE('',#1905,#403);
#274=LINE('',#1906,#404);
#275=LINE('',#1909,#405);
#276=LINE('',#1913,#406);
#277=LINE('',#1914,#407);
#278=LINE('',#1917,#408);
#279=LINE('',#1918,#409);
#280=LINE('',#1921,#410);
#281=LINE('',#1922,#411);
#282=LINE('',#1925,#412);
#283=LINE('',#1926,#413);
#284=LINE('',#1929,#414);
#285=LINE('',#1930,#415);
#286=LINE('',#1933,#416);
#287=LINE('',#1936,#417);
#288=LINE('',#1939,#418);
#289=LINE('',#1940,#419);
#290=LINE('',#1943,#420);
#291=LINE('',#1947,#421);
#292=LINE('',#1951,#422);
#293=LINE('',#1952,#423);
#294=LINE('',#1955,#424);
#295=LINE('',#1959,#425);
#296=LINE('',#1963,#426);
#297=LINE('',#1964,#427);
#298=LINE('',#1967,#428);
#299=LINE('',#1968,#429);
#300=LINE('',#1971,#430);
#301=LINE('',#1977,#431);
#302=LINE('',#1982,#432);
#303=LINE('',#1985,#433);
#304=LINE('',#1988,#434);
#305=LINE('',#1989,#435);
#306=LINE('',#1992,#436);
#307=LINE('',#1993,#437);
#308=LINE('',#1996,#438);
#309=LINE('',#2000,#439);
#310=LINE('',#2001,#440);
#311=LINE('',#2004,#441);
#312=LINE('',#2005,#442);
#313=LINE('',#2008,#443);
#314=LINE('',#2011,#444);
#315=LINE('',#2014,#445);
#316=LINE('',#2015,#446);
#317=LINE('',#2018,#447);
#318=LINE('',#2019,#448);
#319=LINE('',#2022,#449);
#320=LINE('',#2026,#450);
#321=LINE('',#2027,#451);
#322=LINE('',#2030,#452);
#323=LINE('',#2031,#453);
#324=LINE('',#2036,#454);
#325=LINE('',#2037,#455);
#326=LINE('',#2040,#456);
#327=LINE('',#2041,#457);
#328=LINE('',#2044,#458);
#329=LINE('',#2045,#459);
#330=LINE('',#2048,#460);
#331=LINE('',#2049,#461);
#332=LINE('',#2055,#462);
#333=LINE('',#2059,#463);
#334=LINE('',#2063,#464);
#335=LINE('',#2066,#465);
#336=LINE('',#2070,#466);
#337=LINE('',#2071,#467);
#338=LINE('',#2072,#468);
#339=LINE('',#2073,#469);
#340=LINE('',#2077,#470);
#341=LINE('',#2079,#471);
#342=LINE('',#2085,#472);
#343=LINE('',#2086,#473);
#344=LINE('',#2089,#474);
#345=LINE('',#2090,#475);
#346=LINE('',#2094,#476);
#347=LINE('',#2097,#477);
#348=LINE('',#2098,#478);
#349=LINE('',#2102,#479);
#350=LINE('',#2105,#480);
#351=LINE('',#2106,#481);
#352=LINE('',#2110,#482);
#353=LINE('',#2112,#483);
#354=VECTOR('',#1388,10.);
#355=VECTOR('',#1389,10.);
#356=VECTOR('',#1396,10.);
#357=VECTOR('',#1397,10.);
#358=VECTOR('',#1400,10.);
#359=VECTOR('',#1401,10.);
#360=VECTOR('',#1404,10.);
#361=VECTOR('',#1405,10.);
#362=VECTOR('',#1412,19.0000002831221);
#363=VECTOR('',#1421,10.);
#364=VECTOR('',#1422,10.);
#365=VECTOR('',#1425,10.);
#366=VECTOR('',#1426,10.);
#367=VECTOR('',#1429,10.);
#368=VECTOR('',#1430,10.);
#369=VECTOR('',#1433,10.);
#370=VECTOR('',#1434,10.);
#371=VECTOR('',#1441,10.);
#372=VECTOR('',#1442,10.);
#373=VECTOR('',#1445,10.);
#374=VECTOR('',#1446,10.);
#375=VECTOR('',#1449,10.);
#376=VECTOR('',#1450,10.);
#377=VECTOR('',#1453,10.);
#378=VECTOR('',#1454,10.);
#379=VECTOR('',#1461,10.);
#380=VECTOR('',#1462,10.);
#381=VECTOR('',#1465,10.);
#382=VECTOR('',#1466,10.);
#383=VECTOR('',#1469,10.);
#384=VECTOR('',#1470,10.);
#385=VECTOR('',#1473,10.);
#386=VECTOR('',#1474,10.);
#387=VECTOR('',#1481,10.);
#388=VECTOR('',#1482,10.);
#389=VECTOR('',#1483,10.);
#390=VECTOR('',#1486,10.);
#391=VECTOR('',#1487,10.);
#392=VECTOR('',#1490,10.);
#393=VECTOR('',#1493,10.);
#394=VECTOR('',#1496,10.);
#395=VECTOR('',#1497,10.);
#396=VECTOR('',#1500,10.);
#397=VECTOR('',#1501,10.);
#398=VECTOR('',#1502,10.);
#399=VECTOR('',#1505,10.);
#400=VECTOR('',#1510,10.);
#401=VECTOR('',#1511,10.);
#402=VECTOR('',#1514,10.);
#403=VECTOR('',#1519,10.);
#404=VECTOR('',#1520,10.);
#405=VECTOR('',#1523,10.);
#406=VECTOR('',#1528,10.);
#407=VECTOR('',#1529,10.);
#408=VECTOR('',#1532,10.);
#409=VECTOR('',#1533,10.);
#410=VECTOR('',#1536,10.);
#411=VECTOR('',#1537,10.);
#412=VECTOR('',#1540,10.);
#413=VECTOR('',#1541,10.);
#414=VECTOR('',#1544,10.);
#415=VECTOR('',#1545,10.);
#416=VECTOR('',#1548,10.);
#417=VECTOR('',#1551,10.);
#418=VECTOR('',#1554,10.);
#419=VECTOR('',#1555,10.);
#420=VECTOR('',#1558,10.);
#421=VECTOR('',#1563,10.);
#422=VECTOR('',#1568,10.);
#423=VECTOR('',#1569,10.);
#424=VECTOR('',#1572,10.);
#425=VECTOR('',#1577,10.);
#426=VECTOR('',#1582,10.);
#427=VECTOR('',#1583,10.);
#428=VECTOR('',#1586,10.);
#429=VECTOR('',#1587,10.);
#430=VECTOR('',#1590,10.);
#431=VECTOR('',#1597,22.0000003278255);
#432=VECTOR('',#1604,10.);
#433=VECTOR('',#1607,10.);
#434=VECTOR('',#1610,10.);
#435=VECTOR('',#1611,10.);
#436=VECTOR('',#1614,10.);
#437=VECTOR('',#1615,10.);
#438=VECTOR('',#1618,10.);
#439=VECTOR('',#1623,10.);
#440=VECTOR('',#1624,10.);
#441=VECTOR('',#1627,10.);
#442=VECTOR('',#1628,10.);
#443=VECTOR('',#1631,10.);
#444=VECTOR('',#1636,10.);
#445=VECTOR('',#1639,10.);
#446=VECTOR('',#1640,10.);
#447=VECTOR('',#1643,10.);
#448=VECTOR('',#1644,10.);
#449=VECTOR('',#1647,10.);
#450=VECTOR('',#1652,10.);
#451=VECTOR('',#1653,10.);
#452=VECTOR('',#1656,10.);
#453=VECTOR('',#1657,10.);
#454=VECTOR('',#1664,10.);
#455=VECTOR('',#1665,10.);
#456=VECTOR('',#1668,10.);
#457=VECTOR('',#1669,10.);
#458=VECTOR('',#1672,10.);
#459=VECTOR('',#1673,10.);
#460=VECTOR('',#1676,10.);
#461=VECTOR('',#1677,10.);
#462=VECTOR('',#1682,10.);
#463=VECTOR('',#1685,10.);
#464=VECTOR('',#1688,10.);
#465=VECTOR('',#1691,10.);
#466=VECTOR('',#1694,10.);
#467=VECTOR('',#1695,10.);
#468=VECTOR('',#1696,10.);
#469=VECTOR('',#1697,10.);
#470=VECTOR('',#1704,10.);
#471=VECTOR('',#1707,10.);
#472=VECTOR('',#1714,10.);
#473=VECTOR('',#1715,10.);
#474=VECTOR('',#1718,10.);
#475=VECTOR('',#1719,10.);
#476=VECTOR('',#1724,10.);
#477=VECTOR('',#1727,10.);
#478=VECTOR('',#1728,10.);
#479=VECTOR('',#1733,10.);
#480=VECTOR('',#1736,10.);
#481=VECTOR('',#1737,10.);
#482=VECTOR('',#1742,10.);
#483=VECTOR('',#1745,10.);
#484=VERTEX_POINT('',#1750);
#485=VERTEX_POINT('',#1751);
#486=VERTEX_POINT('',#1753);
#487=VERTEX_POINT('',#1755);
#488=VERTEX_POINT('',#1757);
#489=VERTEX_POINT('',#1759);
#490=VERTEX_POINT('',#1761);
#491=VERTEX_POINT('',#1763);
#492=VERTEX_POINT('',#1765);
#493=VERTEX_POINT('',#1767);
#494=VERTEX_POINT('',#1769);
#495=VERTEX_POINT('',#1771);
#496=VERTEX_POINT('',#1773);
#497=VERTEX_POINT('',#1775);
#498=VERTEX_POINT('',#1779);
#499=VERTEX_POINT('',#1781);
#500=VERTEX_POINT('',#1784);
#501=VERTEX_POINT('',#1788);
#502=VERTEX_POINT('',#1789);
#503=VERTEX_POINT('',#1791);
#504=VERTEX_POINT('',#1793);
#505=VERTEX_POINT('',#1795);
#506=VERTEX_POINT('',#1797);
#507=VERTEX_POINT('',#1799);
#508=VERTEX_POINT('',#1801);
#509=VERTEX_POINT('',#1803);
#510=VERTEX_POINT('',#1805);
#511=VERTEX_POINT('',#1807);
#512=VERTEX_POINT('',#1809);
#513=VERTEX_POINT('',#1814);
#514=VERTEX_POINT('',#1815);
#515=VERTEX_POINT('',#1817);
#516=VERTEX_POINT('',#1819);
#517=VERTEX_POINT('',#1821);
#518=VERTEX_POINT('',#1823);
#519=VERTEX_POINT('',#1825);
#520=VERTEX_POINT('',#1827);
#521=VERTEX_POINT('',#1829);
#522=VERTEX_POINT('',#1831);
#523=VERTEX_POINT('',#1833);
#524=VERTEX_POINT('',#1835);
#525=VERTEX_POINT('',#1840);
#526=VERTEX_POINT('',#1841);
#527=VERTEX_POINT('',#1843);
#528=VERTEX_POINT('',#1845);
#529=VERTEX_POINT('',#1847);
#530=VERTEX_POINT('',#1849);
#531=VERTEX_POINT('',#1851);
#532=VERTEX_POINT('',#1853);
#533=VERTEX_POINT('',#1855);
#534=VERTEX_POINT('',#1857);
#535=VERTEX_POINT('',#1859);
#536=VERTEX_POINT('',#1861);
#537=VERTEX_POINT('',#1866);
#538=VERTEX_POINT('',#1868);
#539=VERTEX_POINT('',#1872);
#540=VERTEX_POINT('',#1876);
#541=VERTEX_POINT('',#1878);
#542=VERTEX_POINT('',#1882);
#543=VERTEX_POINT('',#1886);
#544=VERTEX_POINT('',#1888);
#545=VERTEX_POINT('',#1892);
#546=VERTEX_POINT('',#1896);
#547=VERTEX_POINT('',#1900);
#548=VERTEX_POINT('',#1904);
#549=VERTEX_POINT('',#1908);
#550=VERTEX_POINT('',#1912);
#551=VERTEX_POINT('',#1916);
#552=VERTEX_POINT('',#1920);
#553=VERTEX_POINT('',#1924);
#554=VERTEX_POINT('',#1928);
#555=VERTEX_POINT('',#1932);
#556=VERTEX_POINT('',#1934);
#557=VERTEX_POINT('',#1938);
#558=VERTEX_POINT('',#1942);
#559=VERTEX_POINT('',#1946);
#560=VERTEX_POINT('',#1950);
#561=VERTEX_POINT('',#1954);
#562=VERTEX_POINT('',#1958);
#563=VERTEX_POINT('',#1962);
#564=VERTEX_POINT('',#1966);
#565=VERTEX_POINT('',#1970);
#566=VERTEX_POINT('',#1974);
#567=VERTEX_POINT('',#1976);
#568=VERTEX_POINT('',#1981);
#569=VERTEX_POINT('',#1983);
#570=VERTEX_POINT('',#1987);
#571=VERTEX_POINT('',#1991);
#572=VERTEX_POINT('',#1995);
#573=VERTEX_POINT('',#1999);
#574=VERTEX_POINT('',#2003);
#575=VERTEX_POINT('',#2007);
#576=VERTEX_POINT('',#2013);
#577=VERTEX_POINT('',#2017);
#578=VERTEX_POINT('',#2021);
#579=VERTEX_POINT('',#2025);
#580=VERTEX_POINT('',#2029);
#581=VERTEX_POINT('',#2035);
#582=VERTEX_POINT('',#2039);
#583=VERTEX_POINT('',#2043);
#584=VERTEX_POINT('',#2047);
#585=VERTEX_POINT('',#2051);
#586=VERTEX_POINT('',#2052);
#587=VERTEX_POINT('',#2054);
#588=VERTEX_POINT('',#2056);
#589=VERTEX_POINT('',#2058);
#590=VERTEX_POINT('',#2060);
#591=VERTEX_POINT('',#2062);
#592=VERTEX_POINT('',#2064);
#593=VERTEX_POINT('',#2067);
#594=VERTEX_POINT('',#2069);
#595=VERTEX_POINT('',#2082);
#596=VERTEX_POINT('',#2083);
#597=VERTEX_POINT('',#2088);
#598=VERTEX_POINT('',#2092);
#599=VERTEX_POINT('',#2096);
#600=VERTEX_POINT('',#2100);
#601=VERTEX_POINT('',#2104);
#602=VERTEX_POINT('',#2108);
#603=EDGE_CURVE('',#484,#485,#224,.T.);
#604=EDGE_CURVE('',#486,#484,#225,.T.);
#605=EDGE_CURVE('',#487,#486,#173,.T.);
#606=EDGE_CURVE('',#488,#487,#174,.T.);
#607=EDGE_CURVE('',#489,#488,#175,.T.);
#608=EDGE_CURVE('',#490,#489,#226,.T.);
#609=EDGE_CURVE('',#491,#490,#227,.T.);
#610=EDGE_CURVE('',#492,#491,#176,.T.);
#611=EDGE_CURVE('',#493,#492,#228,.T.);
#612=EDGE_CURVE('',#494,#493,#229,.T.);
#613=EDGE_CURVE('',#495,#494,#177,.T.);
#614=EDGE_CURVE('',#496,#495,#230,.T.);
#615=EDGE_CURVE('',#497,#496,#231,.T.);
#616=EDGE_CURVE('',#485,#497,#178,.T.);
#617=EDGE_CURVE('',#498,#498,#179,.T.);
#618=EDGE_CURVE('',#498,#499,#232,.T.);
#619=EDGE_CURVE('',#499,#488,#180,.T.);
#620=EDGE_CURVE('',#487,#500,#181,.T.);
#621=EDGE_CURVE('',#500,#499,#182,.T.);
#622=EDGE_CURVE('',#501,#502,#233,.T.);
#623=EDGE_CURVE('',#503,#501,#234,.T.);
#624=EDGE_CURVE('',#504,#503,#183,.T.);
#625=EDGE_CURVE('',#505,#504,#235,.T.);
#626=EDGE_CURVE('',#506,#505,#236,.T.);
#627=EDGE_CURVE('',#507,#506,#184,.T.);
#628=EDGE_CURVE('',#508,#507,#237,.T.);
#629=EDGE_CURVE('',#509,#508,#238,.T.);
#630=EDGE_CURVE('',#510,#509,#185,.T.);
#631=EDGE_CURVE('',#511,#510,#239,.T.);
#632=EDGE_CURVE('',#512,#511,#240,.T.);
#633=EDGE_CURVE('',#488,#512,#186,.T.);
#634=EDGE_CURVE('',#502,#499,#187,.T.);
#635=EDGE_CURVE('',#513,#514,#241,.T.);
#636=EDGE_CURVE('',#515,#513,#242,.T.);
#637=EDGE_CURVE('',#516,#515,#188,.T.);
#638=EDGE_CURVE('',#517,#516,#243,.T.);
#639=EDGE_CURVE('',#518,#517,#244,.T.);
#640=EDGE_CURVE('',#519,#518,#189,.T.);
#641=EDGE_CURVE('',#520,#519,#245,.T.);
#642=EDGE_CURVE('',#521,#520,#246,.T.);
#643=EDGE_CURVE('',#522,#521,#190,.T.);
#644=EDGE_CURVE('',#523,#522,#247,.T.);
#645=EDGE_CURVE('',#524,#523,#248,.T.);
#646=EDGE_CURVE('',#499,#524,#191,.T.);
#647=EDGE_CURVE('',#514,#500,#192,.T.);
#648=EDGE_CURVE('',#525,#526,#249,.T.);
#649=EDGE_CURVE('',#527,#525,#250,.T.);
#650=EDGE_CURVE('',#528,#527,#193,.T.);
#651=EDGE_CURVE('',#529,#528,#251,.T.);
#652=EDGE_CURVE('',#530,#529,#252,.T.);
#653=EDGE_CURVE('',#531,#530,#194,.T.);
#654=EDGE_CURVE('',#532,#531,#253,.T.);
#655=EDGE_CURVE('',#533,#532,#254,.T.);
#656=EDGE_CURVE('',#534,#533,#195,.T.);
#657=EDGE_CURVE('',#535,#534,#255,.T.);
#658=EDGE_CURVE('',#536,#535,#256,.T.);
#659=EDGE_CURVE('',#500,#536,#196,.T.);
#660=EDGE_CURVE('',#526,#487,#197,.T.);
#661=EDGE_CURVE('',#505,#537,#257,.T.);
#662=EDGE_CURVE('',#538,#537,#258,.T.);
#663=EDGE_CURVE('',#506,#538,#259,.T.);
#664=EDGE_CURVE('',#504,#539,#260,.T.);
#665=EDGE_CURVE('',#537,#539,#261,.T.);
#666=EDGE_CURVE('',#518,#540,#262,.T.);
#667=EDGE_CURVE('',#541,#540,#198,.T.);
#668=EDGE_CURVE('',#541,#519,#263,.T.);
#669=EDGE_CURVE('',#517,#542,#264,.T.);
#670=EDGE_CURVE('',#540,#542,#265,.T.);
#671=EDGE_CURVE('',#492,#543,#266,.T.);
#672=EDGE_CURVE('',#544,#543,#267,.T.);
#673=EDGE_CURVE('',#493,#544,#268,.T.);
#674=EDGE_CURVE('',#503,#545,#269,.T.);
#675=EDGE_CURVE('',#539,#545,#199,.T.);
#676=EDGE_CURVE('',#516,#546,#270,.T.);
#677=EDGE_CURVE('',#542,#546,#271,.T.);
#678=EDGE_CURVE('',#491,#547,#272,.T.);
#679=EDGE_CURVE('',#543,#547,#200,.T.);
#680=EDGE_CURVE('',#501,#548,#273,.T.);
#681=EDGE_CURVE('',#545,#548,#274,.T.);
#682=EDGE_CURVE('',#515,#549,#275,.T.);
#683=EDGE_CURVE('',#546,#549,#201,.T.);
#684=EDGE_CURVE('',#490,#550,#276,.T.);
#685=EDGE_CURVE('',#547,#550,#277,.T.);
#686=EDGE_CURVE('',#502,#551,#278,.T.);
#687=EDGE_CURVE('',#548,#551,#279,.T.);
#688=EDGE_CURVE('',#513,#552,#280,.T.);
#689=EDGE_CURVE('',#549,#552,#281,.T.);
#690=EDGE_CURVE('',#489,#553,#282,.T.);
#691=EDGE_CURVE('',#550,#553,#283,.T.);
#692=EDGE_CURVE('',#514,#554,#284,.T.);
#693=EDGE_CURVE('',#552,#554,#285,.T.);
#694=EDGE_CURVE('',#533,#555,#286,.T.);
#695=EDGE_CURVE('',#556,#555,#202,.T.);
#696=EDGE_CURVE('',#534,#556,#287,.T.);
#697=EDGE_CURVE('',#532,#557,#288,.T.);
#698=EDGE_CURVE('',#555,#557,#289,.T.);
#699=EDGE_CURVE('',#512,#558,#290,.T.);
#700=EDGE_CURVE('',#553,#558,#203,.T.);
#701=EDGE_CURVE('',#524,#559,#291,.T.);
#702=EDGE_CURVE('',#551,#559,#204,.T.);
#703=EDGE_CURVE('',#560,#531,#292,.T.);
#704=EDGE_CURVE('',#557,#560,#293,.T.);
#705=EDGE_CURVE('',#536,#561,#294,.T.);
#706=EDGE_CURVE('',#554,#561,#205,.T.);
#707=EDGE_CURVE('',#530,#562,#295,.T.);
#708=EDGE_CURVE('',#560,#562,#206,.T.);
#709=EDGE_CURVE('',#529,#563,#296,.T.);
#710=EDGE_CURVE('',#562,#563,#297,.T.);
#711=EDGE_CURVE('',#528,#564,#298,.T.);
#712=EDGE_CURVE('',#563,#564,#299,.T.);
#713=EDGE_CURVE('',#527,#565,#300,.T.);
#714=EDGE_CURVE('',#564,#565,#207,.T.);
#715=EDGE_CURVE('',#566,#566,#208,.T.);
#716=EDGE_CURVE('',#566,#567,#301,.T.);
#717=EDGE_CURVE('',#567,#567,#209,.T.);
#718=EDGE_CURVE('',#486,#568,#302,.T.);
#719=EDGE_CURVE('',#569,#568,#210,.T.);
#720=EDGE_CURVE('',#526,#569,#303,.T.);
#721=EDGE_CURVE('',#570,#484,#304,.T.);
#722=EDGE_CURVE('',#568,#570,#305,.T.);
#723=EDGE_CURVE('',#485,#571,#306,.T.);
#724=EDGE_CURVE('',#570,#571,#307,.T.);
#725=EDGE_CURVE('',#497,#572,#308,.T.);
#726=EDGE_CURVE('',#571,#572,#211,.T.);
#727=EDGE_CURVE('',#496,#573,#309,.T.);
#728=EDGE_CURVE('',#572,#573,#310,.T.);
#729=EDGE_CURVE('',#574,#495,#311,.T.);
#730=EDGE_CURVE('',#573,#574,#312,.T.);
#731=EDGE_CURVE('',#494,#575,#313,.T.);
#732=EDGE_CURVE('',#574,#575,#212,.T.);
#733=EDGE_CURVE('',#575,#544,#314,.T.);
#734=EDGE_CURVE('',#576,#511,#315,.T.);
#735=EDGE_CURVE('',#558,#576,#316,.T.);
#736=EDGE_CURVE('',#510,#577,#317,.T.);
#737=EDGE_CURVE('',#576,#577,#318,.T.);
#738=EDGE_CURVE('',#509,#578,#319,.T.);
#739=EDGE_CURVE('',#577,#578,#213,.T.);
#740=EDGE_CURVE('',#508,#579,#320,.T.);
#741=EDGE_CURVE('',#578,#579,#321,.T.);
#742=EDGE_CURVE('',#580,#507,#322,.T.);
#743=EDGE_CURVE('',#579,#580,#323,.T.);
#744=EDGE_CURVE('',#580,#538,#214,.T.);
#745=EDGE_CURVE('',#581,#523,#324,.T.);
#746=EDGE_CURVE('',#559,#581,#325,.T.);
#747=EDGE_CURVE('',#582,#569,#326,.T.);
#748=EDGE_CURVE('',#525,#582,#327,.T.);
#749=EDGE_CURVE('',#583,#535,#328,.T.);
#750=EDGE_CURVE('',#561,#583,#329,.T.);
#751=EDGE_CURVE('',#522,#584,#330,.T.);
#752=EDGE_CURVE('',#581,#584,#331,.T.);
#753=EDGE_CURVE('',#585,#586,#215,.T.);
#754=EDGE_CURVE('',#585,#587,#332,.T.);
#755=EDGE_CURVE('',#588,#587,#216,.T.);
#756=EDGE_CURVE('',#588,#589,#333,.T.);
#757=EDGE_CURVE('',#590,#589,#217,.T.);
#758=EDGE_CURVE('',#590,#591,#334,.T.);
#759=EDGE_CURVE('',#592,#591,#218,.T.);
#760=EDGE_CURVE('',#592,#586,#335,.T.);
#761=EDGE_CURVE('',#584,#593,#219,.T.);
#762=EDGE_CURVE('',#593,#594,#336,.T.);
#763=EDGE_CURVE('',#594,#541,#337,.T.);
#764=EDGE_CURVE('',#583,#556,#338,.T.);
#765=EDGE_CURVE('',#565,#582,#339,.T.);
#766=EDGE_CURVE('',#521,#593,#340,.T.);
#767=EDGE_CURVE('',#520,#594,#341,.T.);
#768=EDGE_CURVE('',#595,#596,#220,.T.);
#769=EDGE_CURVE('',#596,#585,#342,.T.);
#770=EDGE_CURVE('',#586,#595,#343,.T.);
#771=EDGE_CURVE('',#597,#592,#344,.T.);
#772=EDGE_CURVE('',#595,#597,#345,.T.);
#773=EDGE_CURVE('',#598,#597,#221,.T.);
#774=EDGE_CURVE('',#591,#598,#346,.T.);
#775=EDGE_CURVE('',#599,#590,#347,.T.);
#776=EDGE_CURVE('',#598,#599,#348,.T.);
#777=EDGE_CURVE('',#600,#599,#222,.T.);
#778=EDGE_CURVE('',#589,#600,#349,.T.);
#779=EDGE_CURVE('',#601,#588,#350,.T.);
#780=EDGE_CURVE('',#600,#601,#351,.T.);
#781=EDGE_CURVE('',#602,#601,#223,.T.);
#782=EDGE_CURVE('',#587,#602,#352,.T.);
#783=EDGE_CURVE('',#602,#596,#353,.T.);
#784=ORIENTED_EDGE('',*,*,#603,.F.);
#785=ORIENTED_EDGE('',*,*,#604,.F.);
#786=ORIENTED_EDGE('',*,*,#605,.F.);
#787=ORIENTED_EDGE('',*,*,#606,.F.);
#788=ORIENTED_EDGE('',*,*,#607,.F.);
#789=ORIENTED_EDGE('',*,*,#608,.F.);
#790=ORIENTED_EDGE('',*,*,#609,.F.);
#791=ORIENTED_EDGE('',*,*,#610,.F.);
#792=ORIENTED_EDGE('',*,*,#611,.F.);
#793=ORIENTED_EDGE('',*,*,#612,.F.);
#794=ORIENTED_EDGE('',*,*,#613,.F.);
#795=ORIENTED_EDGE('',*,*,#614,.F.);
#796=ORIENTED_EDGE('',*,*,#615,.F.);
#797=ORIENTED_EDGE('',*,*,#616,.F.);
#798=ORIENTED_EDGE('',*,*,#617,.F.);
#799=ORIENTED_EDGE('',*,*,#618,.T.);
#800=ORIENTED_EDGE('',*,*,#619,.T.);
#801=ORIENTED_EDGE('',*,*,#606,.T.);
#802=ORIENTED_EDGE('',*,*,#620,.T.);
#803=ORIENTED_EDGE('',*,*,#621,.T.);
#804=ORIENTED_EDGE('',*,*,#618,.F.);
#805=ORIENTED_EDGE('',*,*,#622,.F.);
#806=ORIENTED_EDGE('',*,*,#623,.F.);
#807=ORIENTED_EDGE('',*,*,#624,.F.);
#808=ORIENTED_EDGE('',*,*,#625,.F.);
#809=ORIENTED_EDGE('',*,*,#626,.F.);
#810=ORIENTED_EDGE('',*,*,#627,.F.);
#811=ORIENTED_EDGE('',*,*,#628,.F.);
#812=ORIENTED_EDGE('',*,*,#629,.F.);
#813=ORIENTED_EDGE('',*,*,#630,.F.);
#814=ORIENTED_EDGE('',*,*,#631,.F.);
#815=ORIENTED_EDGE('',*,*,#632,.F.);
#816=ORIENTED_EDGE('',*,*,#633,.F.);
#817=ORIENTED_EDGE('',*,*,#619,.F.);
#818=ORIENTED_EDGE('',*,*,#634,.F.);
#819=ORIENTED_EDGE('',*,*,#635,.F.);
#820=ORIENTED_EDGE('',*,*,#636,.F.);
#821=ORIENTED_EDGE('',*,*,#637,.F.);
#822=ORIENTED_EDGE('',*,*,#638,.F.);
#823=ORIENTED_EDGE('',*,*,#639,.F.);
#824=ORIENTED_EDGE('',*,*,#640,.F.);
#825=ORIENTED_EDGE('',*,*,#641,.F.);
#826=ORIENTED_EDGE('',*,*,#642,.F.);
#827=ORIENTED_EDGE('',*,*,#643,.F.);
#828=ORIENTED_EDGE('',*,*,#644,.F.);
#829=ORIENTED_EDGE('',*,*,#645,.F.);
#830=ORIENTED_EDGE('',*,*,#646,.F.);
#831=ORIENTED_EDGE('',*,*,#621,.F.);
#832=ORIENTED_EDGE('',*,*,#647,.F.);
#833=ORIENTED_EDGE('',*,*,#648,.F.);
#834=ORIENTED_EDGE('',*,*,#649,.F.);
#835=ORIENTED_EDGE('',*,*,#650,.F.);
#836=ORIENTED_EDGE('',*,*,#651,.F.);
#837=ORIENTED_EDGE('',*,*,#652,.F.);
#838=ORIENTED_EDGE('',*,*,#653,.F.);
#839=ORIENTED_EDGE('',*,*,#654,.F.);
#840=ORIENTED_EDGE('',*,*,#655,.F.);
#841=ORIENTED_EDGE('',*,*,#656,.F.);
#842=ORIENTED_EDGE('',*,*,#657,.F.);
#843=ORIENTED_EDGE('',*,*,#658,.F.);
#844=ORIENTED_EDGE('',*,*,#659,.F.);
#845=ORIENTED_EDGE('',*,*,#620,.F.);
#846=ORIENTED_EDGE('',*,*,#660,.F.);
#847=ORIENTED_EDGE('',*,*,#626,.T.);
#848=ORIENTED_EDGE('',*,*,#661,.T.);
#849=ORIENTED_EDGE('',*,*,#662,.F.);
#850=ORIENTED_EDGE('',*,*,#663,.F.);
#851=ORIENTED_EDGE('',*,*,#625,.T.);
#852=ORIENTED_EDGE('',*,*,#664,.T.);
#853=ORIENTED_EDGE('',*,*,#665,.F.);
#854=ORIENTED_EDGE('',*,*,#661,.F.);
#855=ORIENTED_EDGE('',*,*,#640,.T.);
#856=ORIENTED_EDGE('',*,*,#666,.T.);
#857=ORIENTED_EDGE('',*,*,#667,.F.);
#858=ORIENTED_EDGE('',*,*,#668,.T.);
#859=ORIENTED_EDGE('',*,*,#639,.T.);
#860=ORIENTED_EDGE('',*,*,#669,.T.);
#861=ORIENTED_EDGE('',*,*,#670,.F.);
#862=ORIENTED_EDGE('',*,*,#666,.F.);
#863=ORIENTED_EDGE('',*,*,#611,.T.);
#864=ORIENTED_EDGE('',*,*,#671,.T.);
#865=ORIENTED_EDGE('',*,*,#672,.F.);
#866=ORIENTED_EDGE('',*,*,#673,.F.);
#867=ORIENTED_EDGE('',*,*,#624,.T.);
#868=ORIENTED_EDGE('',*,*,#674,.T.);
#869=ORIENTED_EDGE('',*,*,#675,.F.);
#870=ORIENTED_EDGE('',*,*,#664,.F.);
#871=ORIENTED_EDGE('',*,*,#638,.T.);
#872=ORIENTED_EDGE('',*,*,#676,.T.);
#873=ORIENTED_EDGE('',*,*,#677,.F.);
#874=ORIENTED_EDGE('',*,*,#669,.F.);
#875=ORIENTED_EDGE('',*,*,#610,.T.);
#876=ORIENTED_EDGE('',*,*,#678,.T.);
#877=ORIENTED_EDGE('',*,*,#679,.F.);
#878=ORIENTED_EDGE('',*,*,#671,.F.);
#879=ORIENTED_EDGE('',*,*,#623,.T.);
#880=ORIENTED_EDGE('',*,*,#680,.T.);
#881=ORIENTED_EDGE('',*,*,#681,.F.);
#882=ORIENTED_EDGE('',*,*,#674,.F.);
#883=ORIENTED_EDGE('',*,*,#637,.T.);
#884=ORIENTED_EDGE('',*,*,#682,.T.);
#885=ORIENTED_EDGE('',*,*,#683,.F.);
#886=ORIENTED_EDGE('',*,*,#676,.F.);
#887=ORIENTED_EDGE('',*,*,#609,.T.);
#888=ORIENTED_EDGE('',*,*,#684,.T.);
#889=ORIENTED_EDGE('',*,*,#685,.F.);
#890=ORIENTED_EDGE('',*,*,#678,.F.);
#891=ORIENTED_EDGE('',*,*,#622,.T.);
#892=ORIENTED_EDGE('',*,*,#686,.T.);
#893=ORIENTED_EDGE('',*,*,#687,.F.);
#894=ORIENTED_EDGE('',*,*,#680,.F.);
#895=ORIENTED_EDGE('',*,*,#636,.T.);
#896=ORIENTED_EDGE('',*,*,#688,.T.);
#897=ORIENTED_EDGE('',*,*,#689,.F.);
#898=ORIENTED_EDGE('',*,*,#682,.F.);
#899=ORIENTED_EDGE('',*,*,#608,.T.);
#900=ORIENTED_EDGE('',*,*,#690,.T.);
#901=ORIENTED_EDGE('',*,*,#691,.F.);
#902=ORIENTED_EDGE('',*,*,#684,.F.);
#903=ORIENTED_EDGE('',*,*,#635,.T.);
#904=ORIENTED_EDGE('',*,*,#692,.T.);
#905=ORIENTED_EDGE('',*,*,#693,.F.);
#906=ORIENTED_EDGE('',*,*,#688,.F.);
#907=ORIENTED_EDGE('',*,*,#656,.T.);
#908=ORIENTED_EDGE('',*,*,#694,.T.);
#909=ORIENTED_EDGE('',*,*,#695,.F.);
#910=ORIENTED_EDGE('',*,*,#696,.F.);
#911=ORIENTED_EDGE('',*,*,#655,.T.);
#912=ORIENTED_EDGE('',*,*,#697,.T.);
#913=ORIENTED_EDGE('',*,*,#698,.F.);
#914=ORIENTED_EDGE('',*,*,#694,.F.);
#915=ORIENTED_EDGE('',*,*,#607,.T.);
#916=ORIENTED_EDGE('',*,*,#633,.T.);
#917=ORIENTED_EDGE('',*,*,#699,.T.);
#918=ORIENTED_EDGE('',*,*,#700,.F.);
#919=ORIENTED_EDGE('',*,*,#690,.F.);
#920=ORIENTED_EDGE('',*,*,#634,.T.);
#921=ORIENTED_EDGE('',*,*,#646,.T.);
#922=ORIENTED_EDGE('',*,*,#701,.T.);
#923=ORIENTED_EDGE('',*,*,#702,.F.);
#924=ORIENTED_EDGE('',*,*,#686,.F.);
#925=ORIENTED_EDGE('',*,*,#654,.T.);
#926=ORIENTED_EDGE('',*,*,#703,.F.);
#927=ORIENTED_EDGE('',*,*,#704,.F.);
#928=ORIENTED_EDGE('',*,*,#697,.F.);
#929=ORIENTED_EDGE('',*,*,#647,.T.);
#930=ORIENTED_EDGE('',*,*,#659,.T.);
#931=ORIENTED_EDGE('',*,*,#705,.T.);
#932=ORIENTED_EDGE('',*,*,#706,.F.);
#933=ORIENTED_EDGE('',*,*,#692,.F.);
#934=ORIENTED_EDGE('',*,*,#653,.T.);
#935=ORIENTED_EDGE('',*,*,#707,.T.);
#936=ORIENTED_EDGE('',*,*,#708,.F.);
#937=ORIENTED_EDGE('',*,*,#703,.T.);
#938=ORIENTED_EDGE('',*,*,#652,.T.);
#939=ORIENTED_EDGE('',*,*,#709,.T.);
#940=ORIENTED_EDGE('',*,*,#710,.F.);
#941=ORIENTED_EDGE('',*,*,#707,.F.);
#942=ORIENTED_EDGE('',*,*,#651,.T.);
#943=ORIENTED_EDGE('',*,*,#711,.T.);
#944=ORIENTED_EDGE('',*,*,#712,.F.);
#945=ORIENTED_EDGE('',*,*,#709,.F.);
#946=ORIENTED_EDGE('',*,*,#650,.T.);
#947=ORIENTED_EDGE('',*,*,#713,.T.);
#948=ORIENTED_EDGE('',*,*,#714,.F.);
#949=ORIENTED_EDGE('',*,*,#711,.F.);
#950=ORIENTED_EDGE('',*,*,#715,.F.);
#951=ORIENTED_EDGE('',*,*,#716,.T.);
#952=ORIENTED_EDGE('',*,*,#717,.T.);
#953=ORIENTED_EDGE('',*,*,#716,.F.);
#954=ORIENTED_EDGE('',*,*,#717,.F.);
#955=ORIENTED_EDGE('',*,*,#617,.T.);
#956=ORIENTED_EDGE('',*,*,#605,.T.);
#957=ORIENTED_EDGE('',*,*,#718,.T.);
#958=ORIENTED_EDGE('',*,*,#719,.F.);
#959=ORIENTED_EDGE('',*,*,#720,.F.);
#960=ORIENTED_EDGE('',*,*,#660,.T.);
#961=ORIENTED_EDGE('',*,*,#604,.T.);
#962=ORIENTED_EDGE('',*,*,#721,.F.);
#963=ORIENTED_EDGE('',*,*,#722,.F.);
#964=ORIENTED_EDGE('',*,*,#718,.F.);
#965=ORIENTED_EDGE('',*,*,#603,.T.);
#966=ORIENTED_EDGE('',*,*,#723,.T.);
#967=ORIENTED_EDGE('',*,*,#724,.F.);
#968=ORIENTED_EDGE('',*,*,#721,.T.);
#969=ORIENTED_EDGE('',*,*,#616,.T.);
#970=ORIENTED_EDGE('',*,*,#725,.T.);
#971=ORIENTED_EDGE('',*,*,#726,.F.);
#972=ORIENTED_EDGE('',*,*,#723,.F.);
#973=ORIENTED_EDGE('',*,*,#615,.T.);
#974=ORIENTED_EDGE('',*,*,#727,.T.);
#975=ORIENTED_EDGE('',*,*,#728,.F.);
#976=ORIENTED_EDGE('',*,*,#725,.F.);
#977=ORIENTED_EDGE('',*,*,#614,.T.);
#978=ORIENTED_EDGE('',*,*,#729,.F.);
#979=ORIENTED_EDGE('',*,*,#730,.F.);
#980=ORIENTED_EDGE('',*,*,#727,.F.);
#981=ORIENTED_EDGE('',*,*,#613,.T.);
#982=ORIENTED_EDGE('',*,*,#731,.T.);
#983=ORIENTED_EDGE('',*,*,#732,.F.);
#984=ORIENTED_EDGE('',*,*,#729,.T.);
#985=ORIENTED_EDGE('',*,*,#612,.T.);
#986=ORIENTED_EDGE('',*,*,#673,.T.);
#987=ORIENTED_EDGE('',*,*,#733,.F.);
#988=ORIENTED_EDGE('',*,*,#731,.F.);
#989=ORIENTED_EDGE('',*,*,#632,.T.);
#990=ORIENTED_EDGE('',*,*,#734,.F.);
#991=ORIENTED_EDGE('',*,*,#735,.F.);
#992=ORIENTED_EDGE('',*,*,#699,.F.);
#993=ORIENTED_EDGE('',*,*,#631,.T.);
#994=ORIENTED_EDGE('',*,*,#736,.T.);
#995=ORIENTED_EDGE('',*,*,#737,.F.);
#996=ORIENTED_EDGE('',*,*,#734,.T.);
#997=ORIENTED_EDGE('',*,*,#630,.T.);
#998=ORIENTED_EDGE('',*,*,#738,.T.);
#999=ORIENTED_EDGE('',*,*,#739,.F.);
#1000=ORIENTED_EDGE('',*,*,#736,.F.);
#1001=ORIENTED_EDGE('',*,*,#629,.T.);
#1002=ORIENTED_EDGE('',*,*,#740,.T.);
#1003=ORIENTED_EDGE('',*,*,#741,.F.);
#1004=ORIENTED_EDGE('',*,*,#738,.F.);
#1005=ORIENTED_EDGE('',*,*,#628,.T.);
#1006=ORIENTED_EDGE('',*,*,#742,.F.);
#1007=ORIENTED_EDGE('',*,*,#743,.F.);
#1008=ORIENTED_EDGE('',*,*,#740,.F.);
#1009=ORIENTED_EDGE('',*,*,#627,.T.);
#1010=ORIENTED_EDGE('',*,*,#663,.T.);
#1011=ORIENTED_EDGE('',*,*,#744,.F.);
#1012=ORIENTED_EDGE('',*,*,#742,.T.);
#1013=ORIENTED_EDGE('',*,*,#645,.T.);
#1014=ORIENTED_EDGE('',*,*,#745,.F.);
#1015=ORIENTED_EDGE('',*,*,#746,.F.);
#1016=ORIENTED_EDGE('',*,*,#701,.F.);
#1017=ORIENTED_EDGE('',*,*,#648,.T.);
#1018=ORIENTED_EDGE('',*,*,#720,.T.);
#1019=ORIENTED_EDGE('',*,*,#747,.F.);
#1020=ORIENTED_EDGE('',*,*,#748,.F.);
#1021=ORIENTED_EDGE('',*,*,#658,.T.);
#1022=ORIENTED_EDGE('',*,*,#749,.F.);
#1023=ORIENTED_EDGE('',*,*,#750,.F.);
#1024=ORIENTED_EDGE('',*,*,#705,.F.);
#1025=ORIENTED_EDGE('',*,*,#644,.T.);
#1026=ORIENTED_EDGE('',*,*,#751,.T.);
#1027=ORIENTED_EDGE('',*,*,#752,.F.);
#1028=ORIENTED_EDGE('',*,*,#745,.T.);
#1029=ORIENTED_EDGE('',*,*,#753,.F.);
#1030=ORIENTED_EDGE('',*,*,#754,.T.);
#1031=ORIENTED_EDGE('',*,*,#755,.F.);
#1032=ORIENTED_EDGE('',*,*,#756,.T.);
#1033=ORIENTED_EDGE('',*,*,#757,.F.);
#1034=ORIENTED_EDGE('',*,*,#758,.T.);
#1035=ORIENTED_EDGE('',*,*,#759,.F.);
#1036=ORIENTED_EDGE('',*,*,#760,.T.);
#1037=ORIENTED_EDGE('',*,*,#687,.T.);
#1038=ORIENTED_EDGE('',*,*,#702,.T.);
#1039=ORIENTED_EDGE('',*,*,#746,.T.);
#1040=ORIENTED_EDGE('',*,*,#752,.T.);
#1041=ORIENTED_EDGE('',*,*,#761,.T.);
#1042=ORIENTED_EDGE('',*,*,#762,.T.);
#1043=ORIENTED_EDGE('',*,*,#763,.T.);
#1044=ORIENTED_EDGE('',*,*,#667,.T.);
#1045=ORIENTED_EDGE('',*,*,#670,.T.);
#1046=ORIENTED_EDGE('',*,*,#677,.T.);
#1047=ORIENTED_EDGE('',*,*,#683,.T.);
#1048=ORIENTED_EDGE('',*,*,#689,.T.);
#1049=ORIENTED_EDGE('',*,*,#693,.T.);
#1050=ORIENTED_EDGE('',*,*,#706,.T.);
#1051=ORIENTED_EDGE('',*,*,#750,.T.);
#1052=ORIENTED_EDGE('',*,*,#764,.T.);
#1053=ORIENTED_EDGE('',*,*,#695,.T.);
#1054=ORIENTED_EDGE('',*,*,#698,.T.);
#1055=ORIENTED_EDGE('',*,*,#704,.T.);
#1056=ORIENTED_EDGE('',*,*,#708,.T.);
#1057=ORIENTED_EDGE('',*,*,#710,.T.);
#1058=ORIENTED_EDGE('',*,*,#712,.T.);
#1059=ORIENTED_EDGE('',*,*,#714,.T.);
#1060=ORIENTED_EDGE('',*,*,#765,.T.);
#1061=ORIENTED_EDGE('',*,*,#747,.T.);
#1062=ORIENTED_EDGE('',*,*,#719,.T.);
#1063=ORIENTED_EDGE('',*,*,#722,.T.);
#1064=ORIENTED_EDGE('',*,*,#724,.T.);
#1065=ORIENTED_EDGE('',*,*,#726,.T.);
#1066=ORIENTED_EDGE('',*,*,#728,.T.);
#1067=ORIENTED_EDGE('',*,*,#730,.T.);
#1068=ORIENTED_EDGE('',*,*,#732,.T.);
#1069=ORIENTED_EDGE('',*,*,#733,.T.);
#1070=ORIENTED_EDGE('',*,*,#672,.T.);
#1071=ORIENTED_EDGE('',*,*,#679,.T.);
#1072=ORIENTED_EDGE('',*,*,#685,.T.);
#1073=ORIENTED_EDGE('',*,*,#691,.T.);
#1074=ORIENTED_EDGE('',*,*,#700,.T.);
#1075=ORIENTED_EDGE('',*,*,#735,.T.);
#1076=ORIENTED_EDGE('',*,*,#737,.T.);
#1077=ORIENTED_EDGE('',*,*,#739,.T.);
#1078=ORIENTED_EDGE('',*,*,#741,.T.);
#1079=ORIENTED_EDGE('',*,*,#743,.T.);
#1080=ORIENTED_EDGE('',*,*,#744,.T.);
#1081=ORIENTED_EDGE('',*,*,#662,.T.);
#1082=ORIENTED_EDGE('',*,*,#665,.T.);
#1083=ORIENTED_EDGE('',*,*,#675,.T.);
#1084=ORIENTED_EDGE('',*,*,#681,.T.);
#1085=ORIENTED_EDGE('',*,*,#657,.T.);
#1086=ORIENTED_EDGE('',*,*,#696,.T.);
#1087=ORIENTED_EDGE('',*,*,#764,.F.);
#1088=ORIENTED_EDGE('',*,*,#749,.T.);
#1089=ORIENTED_EDGE('',*,*,#649,.T.);
#1090=ORIENTED_EDGE('',*,*,#748,.T.);
#1091=ORIENTED_EDGE('',*,*,#765,.F.);
#1092=ORIENTED_EDGE('',*,*,#713,.F.);
#1093=ORIENTED_EDGE('',*,*,#643,.T.);
#1094=ORIENTED_EDGE('',*,*,#766,.T.);
#1095=ORIENTED_EDGE('',*,*,#761,.F.);
#1096=ORIENTED_EDGE('',*,*,#751,.F.);
#1097=ORIENTED_EDGE('',*,*,#642,.T.);
#1098=ORIENTED_EDGE('',*,*,#767,.T.);
#1099=ORIENTED_EDGE('',*,*,#762,.F.);
#1100=ORIENTED_EDGE('',*,*,#766,.F.);
#1101=ORIENTED_EDGE('',*,*,#641,.T.);
#1102=ORIENTED_EDGE('',*,*,#668,.F.);
#1103=ORIENTED_EDGE('',*,*,#763,.F.);
#1104=ORIENTED_EDGE('',*,*,#767,.F.);
#1105=ORIENTED_EDGE('',*,*,#768,.T.);
#1106=ORIENTED_EDGE('',*,*,#769,.T.);
#1107=ORIENTED_EDGE('',*,*,#753,.T.);
#1108=ORIENTED_EDGE('',*,*,#770,.T.);
#1109=ORIENTED_EDGE('',*,*,#770,.F.);
#1110=ORIENTED_EDGE('',*,*,#760,.F.);
#1111=ORIENTED_EDGE('',*,*,#771,.F.);
#1112=ORIENTED_EDGE('',*,*,#772,.F.);
#1113=ORIENTED_EDGE('',*,*,#773,.T.);
#1114=ORIENTED_EDGE('',*,*,#771,.T.);
#1115=ORIENTED_EDGE('',*,*,#759,.T.);
#1116=ORIENTED_EDGE('',*,*,#774,.T.);
#1117=ORIENTED_EDGE('',*,*,#774,.F.);
#1118=ORIENTED_EDGE('',*,*,#758,.F.);
#1119=ORIENTED_EDGE('',*,*,#775,.F.);
#1120=ORIENTED_EDGE('',*,*,#776,.F.);
#1121=ORIENTED_EDGE('',*,*,#777,.T.);
#1122=ORIENTED_EDGE('',*,*,#775,.T.);
#1123=ORIENTED_EDGE('',*,*,#757,.T.);
#1124=ORIENTED_EDGE('',*,*,#778,.T.);
#1125=ORIENTED_EDGE('',*,*,#778,.F.);
#1126=ORIENTED_EDGE('',*,*,#756,.F.);
#1127=ORIENTED_EDGE('',*,*,#779,.F.);
#1128=ORIENTED_EDGE('',*,*,#780,.F.);
#1129=ORIENTED_EDGE('',*,*,#781,.T.);
#1130=ORIENTED_EDGE('',*,*,#779,.T.);
#1131=ORIENTED_EDGE('',*,*,#755,.T.);
#1132=ORIENTED_EDGE('',*,*,#782,.T.);
#1133=ORIENTED_EDGE('',*,*,#769,.F.);
#1134=ORIENTED_EDGE('',*,*,#783,.F.);
#1135=ORIENTED_EDGE('',*,*,#782,.F.);
#1136=ORIENTED_EDGE('',*,*,#754,.F.);
#1137=ORIENTED_EDGE('',*,*,#768,.F.);
#1138=ORIENTED_EDGE('',*,*,#772,.T.);
#1139=ORIENTED_EDGE('',*,*,#773,.F.);
#1140=ORIENTED_EDGE('',*,*,#776,.T.);
#1141=ORIENTED_EDGE('',*,*,#777,.F.);
#1142=ORIENTED_EDGE('',*,*,#780,.T.);
#1143=ORIENTED_EDGE('',*,*,#781,.F.);
#1144=ORIENTED_EDGE('',*,*,#783,.T.);
#1145=ORIENTED_EDGE('',*,*,#715,.T.);
#1146=PLANE('',#1268);
#1147=PLANE('',#1280);
#1148=PLANE('',#1286);
#1149=PLANE('',#1292);
#1150=PLANE('',#1298);
#1151=PLANE('',#1299);
#1152=PLANE('',#1302);
#1153=PLANE('',#1303);
#1154=PLANE('',#1306);
#1155=PLANE('',#1309);
#1156=PLANE('',#1312);
#1157=PLANE('',#1313);
#1158=PLANE('',#1314);
#1159=PLANE('',#1315);
#1160=PLANE('',#1316);
#1161=PLANE('',#1319);
#1162=PLANE('',#1324);
#1163=PLANE('',#1329);
#1164=PLANE('',#1330);
#1165=PLANE('',#1336);
#1166=PLANE('',#1339);
#1167=PLANE('',#1340);
#1168=PLANE('',#1343);
#1169=PLANE('',#1344);
#1170=PLANE('',#1347);
#1171=PLANE('',#1348);
#1172=PLANE('',#1349);
#1173=PLANE('',#1352);
#1174=PLANE('',#1353);
#1175=PLANE('',#1356);
#1176=PLANE('',#1357);
#1177=PLANE('',#1358);
#1178=PLANE('',#1359);
#1179=PLANE('',#1360);
#1180=PLANE('',#1366);
#1181=PLANE('',#1367);
#1182=PLANE('',#1369);
#1183=PLANE('',#1370);
#1184=PLANE('',#1373);
#1185=PLANE('',#1376);
#1186=PLANE('',#1379);
#1187=PLANE('',#1382);
#1188=PLANE('',#1383);
#1189=ADVANCED_FACE('',(#40),#1146,.T.);
#1190=ADVANCED_FACE('',(#41),#18,.F.);
#1191=ADVANCED_FACE('',(#42),#1147,.T.);
#1192=ADVANCED_FACE('',(#43),#1148,.T.);
#1193=ADVANCED_FACE('',(#44),#1149,.T.);
#1194=ADVANCED_FACE('',(#45),#1150,.F.);
#1195=ADVANCED_FACE('',(#46),#1151,.F.);
#1196=ADVANCED_FACE('',(#47),#19,.F.);
#1197=ADVANCED_FACE('',(#48),#1152,.F.);
#1198=ADVANCED_FACE('',(#49),#1153,.F.);
#1199=ADVANCED_FACE('',(#50),#20,.F.);
#1200=ADVANCED_FACE('',(#51),#1154,.F.);
#1201=ADVANCED_FACE('',(#52),#21,.F.);
#1202=ADVANCED_FACE('',(#53),#1155,.F.);
#1203=ADVANCED_FACE('',(#54),#22,.F.);
#1204=ADVANCED_FACE('',(#55),#1156,.F.);
#1205=ADVANCED_FACE('',(#56),#1157,.F.);
#1206=ADVANCED_FACE('',(#57),#1158,.F.);
#1207=ADVANCED_FACE('',(#58),#1159,.F.);
#1208=ADVANCED_FACE('',(#59),#1160,.F.);
#1209=ADVANCED_FACE('',(#60),#23,.F.);
#1210=ADVANCED_FACE('',(#61),#1161,.F.);
#1211=ADVANCED_FACE('',(#62),#24,.F.);
#1212=ADVANCED_FACE('',(#63),#25,.F.);
#1213=ADVANCED_FACE('',(#64),#1162,.F.);
#1214=ADVANCED_FACE('',(#65),#26,.F.);
#1215=ADVANCED_FACE('',(#66),#27,.F.);
#1216=ADVANCED_FACE('',(#67),#1163,.F.);
#1217=ADVANCED_FACE('',(#68),#1164,.F.);
#1218=ADVANCED_FACE('',(#69),#28,.F.);
#1219=ADVANCED_FACE('',(#70),#29,.F.);
#1220=ADVANCED_FACE('',(#71,#15),#1165,.T.);
#1221=ADVANCED_FACE('',(#72),#30,.F.);
#1222=ADVANCED_FACE('',(#73),#1166,.F.);
#1223=ADVANCED_FACE('',(#74),#1167,.F.);
#1224=ADVANCED_FACE('',(#75),#31,.F.);
#1225=ADVANCED_FACE('',(#76),#1168,.F.);
#1226=ADVANCED_FACE('',(#77),#1169,.F.);
#1227=ADVANCED_FACE('',(#78),#32,.F.);
#1228=ADVANCED_FACE('',(#79),#1170,.F.);
#1229=ADVANCED_FACE('',(#80),#1171,.F.);
#1230=ADVANCED_FACE('',(#81),#1172,.F.);
#1231=ADVANCED_FACE('',(#82),#33,.F.);
#1232=ADVANCED_FACE('',(#83),#1173,.F.);
#1233=ADVANCED_FACE('',(#84),#1174,.F.);
#1234=ADVANCED_FACE('',(#85),#34,.F.);
#1235=ADVANCED_FACE('',(#86),#1175,.F.);
#1236=ADVANCED_FACE('',(#87),#1176,.F.);
#1237=ADVANCED_FACE('',(#88),#1177,.F.);
#1238=ADVANCED_FACE('',(#89),#1178,.F.);
#1239=ADVANCED_FACE('',(#90,#16),#1179,.F.);
#1240=ADVANCED_FACE('',(#91),#1180,.F.);
#1241=ADVANCED_FACE('',(#92),#1181,.F.);
#1242=ADVANCED_FACE('',(#93),#35,.F.);
#1243=ADVANCED_FACE('',(#94),#1182,.F.);
#1244=ADVANCED_FACE('',(#95),#1183,.F.);
#1245=ADVANCED_FACE('',(#96),#36,.T.);
#1246=ADVANCED_FACE('',(#97),#1184,.T.);
#1247=ADVANCED_FACE('',(#98),#37,.T.);
#1248=ADVANCED_FACE('',(#99),#1185,.T.);
#1249=ADVANCED_FACE('',(#100),#38,.T.);
#1250=ADVANCED_FACE('',(#101),#1186,.T.);
#1251=ADVANCED_FACE('',(#102),#39,.T.);
#1252=ADVANCED_FACE('',(#103),#1187,.T.);
#1253=ADVANCED_FACE('',(#104,#17),#1188,.T.);
#1254=CLOSED_SHELL('',(#1189,#1190,#1191,#1192,#1193,#1194,#1195,#1196,
#1197,#1198,#1199,#1200,#1201,#1202,#1203,#1204,#1205,#1206,#1207,#1208,
#1209,#1210,#1211,#1212,#1213,#1214,#1215,#1216,#1217,#1218,#1219,#1220,
#1221,#1222,#1223,#1224,#1225,#1226,#1227,#1228,#1229,#1230,#1231,#1232,
#1233,#1234,#1235,#1236,#1237,#1238,#1239,#1240,#1241,#1242,#1243,#1244,
#1245,#1246,#1247,#1248,#1249,#1250,#1251,#1252,#1253));
#1255=DERIVED_UNIT_ELEMENT(#1257,1.);
#1256=DERIVED_UNIT_ELEMENT(#2119,-3.);
#1257=(
MASS_UNIT()
NAMED_UNIT(*)
SI_UNIT(.KILO.,.GRAM.)
);
#1258=DERIVED_UNIT((#1255,#1256));
#1259=MEASURE_REPRESENTATION_ITEM('density measure',
POSITIVE_RATIO_MEASURE(7850.),#1258);
#1260=PROPERTY_DEFINITION_REPRESENTATION(#1265,#1262);
#1261=PROPERTY_DEFINITION_REPRESENTATION(#1266,#1263);
#1262=REPRESENTATION('material name',(#1264),#2116);
#1263=REPRESENTATION('density',(#1259),#2116);
#1264=DESCRIPTIVE_REPRESENTATION_ITEM('Steel','Steel');
#1265=PROPERTY_DEFINITION('material property','material name',#2126);
#1266=PROPERTY_DEFINITION('material property','density of part',#2126);
#1267=AXIS2_PLACEMENT_3D('',#1748,#1384,#1385);
#1268=AXIS2_PLACEMENT_3D('',#1749,#1386,#1387);
#1269=AXIS2_PLACEMENT_3D('',#1756,#1390,#1391);
#1270=AXIS2_PLACEMENT_3D('',#1758,#1392,#1393);
#1271=AXIS2_PLACEMENT_3D('',#1760,#1394,#1395);
#1272=AXIS2_PLACEMENT_3D('',#1766,#1398,#1399);
#1273=AXIS2_PLACEMENT_3D('',#1772,#1402,#1403);
#1274=AXIS2_PLACEMENT_3D('',#1777,#1406,#1407);
#1275=AXIS2_PLACEMENT_3D('',#1778,#1408,#1409);
#1276=AXIS2_PLACEMENT_3D('',#1780,#1410,#1411);
#1277=AXIS2_PLACEMENT_3D('',#1783,#1413,#1414);
#1278=AXIS2_PLACEMENT_3D('',#1785,#1415,#1416);
#1279=AXIS2_PLACEMENT_3D('',#1786,#1417,#1418);
#1280=AXIS2_PLACEMENT_3D('',#1787,#1419,#1420);
#1281=AXIS2_PLACEMENT_3D('',#1794,#1423,#1424);
#1282=AXIS2_PLACEMENT_3D('',#1800,#1427,#1428);
#1283=AXIS2_PLACEMENT_3D('',#1806,#1431,#1432);
#1284=AXIS2_PLACEMENT_3D('',#1811,#1435,#1436);
#1285=AXIS2_PLACEMENT_3D('',#1812,#1437,#1438);
#1286=AXIS2_PLACEMENT_3D('',#1813,#1439,#1440);
#1287=AXIS2_PLACEMENT_3D('',#1820,#1443,#1444);
#1288=AXIS2_PLACEMENT_3D('',#1826,#1447,#1448);
#1289=AXIS2_PLACEMENT_3D('',#1832,#1451,#1452);
#1290=AXIS2_PLACEMENT_3D('',#1837,#1455,#1456);
#1291=AXIS2_PLACEMENT_3D('',#1838,#1457,#1458);
#1292=AXIS2_PLACEMENT_3D('',#1839,#1459,#1460);
#1293=AXIS2_PLACEMENT_3D('',#1846,#1463,#1464);
#1294=AXIS2_PLACEMENT_3D('',#1852,#1467,#1468);
#1295=AXIS2_PLACEMENT_3D('',#1858,#1471,#1472);
#1296=AXIS2_PLACEMENT_3D('',#1863,#1475,#1476);
#1297=AXIS2_PLACEMENT_3D('',#1864,#1477,#1478);
#1298=AXIS2_PLACEMENT_3D('',#1865,#1479,#1480);
#1299=AXIS2_PLACEMENT_3D('',#1871,#1484,#1485);
#1300=AXIS2_PLACEMENT_3D('',#1875,#1488,#1489);
#1301=AXIS2_PLACEMENT_3D('',#1879,#1491,#1492);
#1302=AXIS2_PLACEMENT_3D('',#1881,#1494,#1495);
#1303=AXIS2_PLACEMENT_3D('',#1885,#1498,#1499);
#1304=AXIS2_PLACEMENT_3D('',#1891,#1503,#1504);
#1305=AXIS2_PLACEMENT_3D('',#1894,#1506,#1507);
#1306=AXIS2_PLACEMENT_3D('',#1895,#1508,#1509);
#1307=AXIS2_PLACEMENT_3D('',#1899,#1512,#1513);
#1308=AXIS2_PLACEMENT_3D('',#1902,#1515,#1516);
#1309=AXIS2_PLACEMENT_3D('',#1903,#1517,#1518);
#1310=AXIS2_PLACEMENT_3D('',#1907,#1521,#1522);
#1311=AXIS2_PLACEMENT_3D('',#1910,#1524,#1525);
#1312=AXIS2_PLACEMENT_3D('',#1911,#1526,#1527);
#1313=AXIS2_PLACEMENT_3D('',#1915,#1530,#1531);
#1314=AXIS2_PLACEMENT_3D('',#1919,#1534,#1535);
#1315=AXIS2_PLACEMENT_3D('',#1923,#1538,#1539);
#1316=AXIS2_PLACEMENT_3D('',#1927,#1542,#1543);
#1317=AXIS2_PLACEMENT_3D('',#1931,#1546,#1547);
#1318=AXIS2_PLACEMENT_3D('',#1935,#1549,#1550);
#1319=AXIS2_PLACEMENT_3D('',#1937,#1552,#1553);
#1320=AXIS2_PLACEMENT_3D('',#1941,#1556,#1557);
#1321=AXIS2_PLACEMENT_3D('',#1944,#1559,#1560);
#1322=AXIS2_PLACEMENT_3D('',#1945,#1561,#1562);
#1323=AXIS2_PLACEMENT_3D('',#1948,#1564,#1565);
#1324=AXIS2_PLACEMENT_3D('',#1949,#1566,#1567);
#1325=AXIS2_PLACEMENT_3D('',#1953,#1570,#1571);
#1326=AXIS2_PLACEMENT_3D('',#1956,#1573,#1574);
#1327=AXIS2_PLACEMENT_3D('',#1957,#1575,#1576);
#1328=AXIS2_PLACEMENT_3D('',#1960,#1578,#1579);
#1329=AXIS2_PLACEMENT_3D('',#1961,#1580,#1581);
#1330=AXIS2_PLACEMENT_3D('',#1965,#1584,#1585);
#1331=AXIS2_PLACEMENT_3D('',#1969,#1588,#1589);
#1332=AXIS2_PLACEMENT_3D('',#1972,#1591,#1592);
#1333=AXIS2_PLACEMENT_3D('',#1973,#1593,#1594);
#1334=AXIS2_PLACEMENT_3D('',#1975,#1595,#1596);
#1335=AXIS2_PLACEMENT_3D('',#1978,#1598,#1599);
#1336=AXIS2_PLACEMENT_3D('',#1979,#1600,#1601);
#1337=AXIS2_PLACEMENT_3D('',#1980,#1602,#1603);
#1338=AXIS2_PLACEMENT_3D('',#1984,#1605,#1606);
#1339=AXIS2_PLACEMENT_3D('',#1986,#1608,#1609);
#1340=AXIS2_PLACEMENT_3D('',#1990,#1612,#1613);
#1341=AXIS2_PLACEMENT_3D('',#1994,#1616,#1617);
#1342=AXIS2_PLACEMENT_3D('',#1997,#1619,#1620);
#1343=AXIS2_PLACEMENT_3D('',#1998,#1621,#1622);
#1344=AXIS2_PLACEMENT_3D('',#2002,#1625,#1626);
#1345=AXIS2_PLACEMENT_3D('',#2006,#1629,#1630);
#1346=AXIS2_PLACEMENT_3D('',#2009,#1632,#1633);
#1347=AXIS2_PLACEMENT_3D('',#2010,#1634,#1635);
#1348=AXIS2_PLACEMENT_3D('',#2012,#1637,#1638);
#1349=AXIS2_PLACEMENT_3D('',#2016,#1641,#1642);
#1350=AXIS2_PLACEMENT_3D('',#2020,#1645,#1646);
#1351=AXIS2_PLACEMENT_3D('',#2023,#1648,#1649);
#1352=AXIS2_PLACEMENT_3D('',#2024,#1650,#1651);
#1353=AXIS2_PLACEMENT_3D('',#2028,#1654,#1655);
#1354=AXIS2_PLACEMENT_3D('',#2032,#1658,#1659);
#1355=AXIS2_PLACEMENT_3D('',#2033,#1660,#1661);
#1356=AXIS2_PLACEMENT_3D('',#2034,#1662,#1663);
#1357=AXIS2_PLACEMENT_3D('',#2038,#1666,#1667);
#1358=AXIS2_PLACEMENT_3D('',#2042,#1670,#1671);
#1359=AXIS2_PLACEMENT_3D('',#2046,#1674,#1675);
#1360=AXIS2_PLACEMENT_3D('',#2050,#1678,#1679);
#1361=AXIS2_PLACEMENT_3D('',#2053,#1680,#1681);
#1362=AXIS2_PLACEMENT_3D('',#2057,#1683,#1684);
#1363=AXIS2_PLACEMENT_3D('',#2061,#1686,#1687);
#1364=AXIS2_PLACEMENT_3D('',#2065,#1689,#1690);
#1365=AXIS2_PLACEMENT_3D('',#2068,#1692,#1693);
#1366=AXIS2_PLACEMENT_3D('',#2074,#1698,#1699);
#1367=AXIS2_PLACEMENT_3D('',#2075,#1700,#1701);
#1368=AXIS2_PLACEMENT_3D('',#2076,#1702,#1703);
#1369=AXIS2_PLACEMENT_3D('',#2078,#1705,#1706);
#1370=AXIS2_PLACEMENT_3D('',#2080,#1708,#1709);
#1371=AXIS2_PLACEMENT_3D('',#2081,#1710,#1711);
#1372=AXIS2_PLACEMENT_3D('',#2084,#1712,#1713);
#1373=AXIS2_PLACEMENT_3D('',#2087,#1716,#1717);
#1374=AXIS2_PLACEMENT_3D('',#2091,#1720,#1721);
#1375=AXIS2_PLACEMENT_3D('',#2093,#1722,#1723);
#1376=AXIS2_PLACEMENT_3D('',#2095,#1725,#1726);
#1377=AXIS2_PLACEMENT_3D('',#2099,#1729,#1730);
#1378=AXIS2_PLACEMENT_3D('',#2101,#1731,#1732);
#1379=AXIS2_PLACEMENT_3D('',#2103,#1734,#1735);
#1380=AXIS2_PLACEMENT_3D('',#2107,#1738,#1739);
#1381=AXIS2_PLACEMENT_3D('',#2109,#1740,#1741);
#1382=AXIS2_PLACEMENT_3D('',#2111,#1743,#1744);
#1383=AXIS2_PLACEMENT_3D('',#2113,#1746,#1747);
#1384=DIRECTION('axis',(0.,0.,1.));
#1385=DIRECTION('refdir',(1.,0.,0.));
#1386=DIRECTION('center_axis',(0.,1.,0.));
#1387=DIRECTION('ref_axis',(-1.,0.,0.));
#1388=DIRECTION('',(0.,0.,1.));
#1389=DIRECTION('',(1.,0.,2.42861283017838E-16));
#1390=DIRECTION('center_axis',(0.,1.,0.));
#1391=DIRECTION('ref_axis',(0.,0.,-1.));
#1392=DIRECTION('center_axis',(0.,-1.,0.));
#1393=DIRECTION('ref_axis',(-1.,0.,0.));
#1394=DIRECTION('center_axis',(0.,1.,0.));
#1395=DIRECTION('ref_axis',(-1.,0.,0.));
#1396=DIRECTION('',(0.,0.,1.));
#1397=DIRECTION('',(1.,0.,0.));
#1398=DIRECTION('center_axis',(0.,1.,0.));
#1399=DIRECTION('ref_axis',(0.,0.,-1.));
#1400=DIRECTION('',(-1.,0.,0.));
#1401=DIRECTION('',(0.,0.,1.));
#1402=DIRECTION('center_axis',(0.,1.,0.));
#1403=DIRECTION('ref_axis',(-1.,0.,0.));
#1404=DIRECTION('',(1.,0.,2.22044601616309E-16));
#1405=DIRECTION('',(0.,0.,-1.));
#1406=DIRECTION('center_axis',(0.,1.,0.));
#1407=DIRECTION('ref_axis',(-1.,0.,-2.77555752020386E-16));
#1408=DIRECTION('center_axis',(0.,-1.,0.));
#1409=DIRECTION('ref_axis',(-1.,0.,0.));
#1410=DIRECTION('center_axis',(0.,-1.,0.));
#1411=DIRECTION('ref_axis',(-1.,0.,0.));
#1412=DIRECTION('',(0.,-1.,0.));
#1413=DIRECTION('center_axis',(0.,-1.,0.));
#1414=DIRECTION('ref_axis',(-1.,0.,0.));
#1415=DIRECTION('center_axis',(0.,-1.,0.));
#1416=DIRECTION('ref_axis',(-1.,0.,0.));
#1417=DIRECTION('center_axis',(0.,-1.,0.));
#1418=DIRECTION('ref_axis',(-1.,0.,0.));
#1419=DIRECTION('center_axis',(0.,1.,0.));
#1420=DIRECTION('ref_axis',(-1.,0.,0.));
#1421=DIRECTION('',(1.,0.,-2.42861283017838E-16));
#1422=DIRECTION('',(0.,0.,-1.));
#1423=DIRECTION('center_axis',(0.,1.,0.));
#1424=DIRECTION('ref_axis',(-1.,0.,2.77555752020386E-16));
#1425=DIRECTION('',(0.,0.,1.));
#1426=DIRECTION('',(1.,0.,-2.22044601616309E-16));
#1427=DIRECTION('center_axis',(0.,1.,0.));
#1428=DIRECTION('ref_axis',(-1.,0.,0.));
#1429=DIRECTION('',(0.,0.,-1.));
#1430=DIRECTION('',(-1.,0.,0.));
#1431=DIRECTION('center_axis',(0.,1.,0.));
#1432=DIRECTION('ref_axis',(0.,0.,1.));
#1433=DIRECTION('',(1.,0.,0.));
#1434=DIRECTION('',(0.,0.,-1.));
#1435=DIRECTION('center_axis',(0.,1.,0.));
#1436=DIRECTION('ref_axis',(-1.,0.,0.));
#1437=DIRECTION('center_axis',(0.,1.,0.));
#1438=DIRECTION('ref_axis',(0.,0.,1.));
#1439=DIRECTION('center_axis',(0.,1.,0.));
#1440=DIRECTION('ref_axis',(-1.,0.,0.));
#1441=DIRECTION('',(1.38777876010193E-16,0.,-1.));
#1442=DIRECTION('',(-1.,0.,0.));
#1443=DIRECTION('center_axis',(0.,1.,0.));
#1444=DIRECTION('ref_axis',(-2.77555752020386E-16,0.,1.));
#1445=DIRECTION('',(1.,0.,0.));
#1446=DIRECTION('',(1.11022300808154E-16,0.,-1.));
#1447=DIRECTION('center_axis',(0.,1.,0.));
#1448=DIRECTION('ref_axis',(-1.,0.,0.));
#1449=DIRECTION('',(-1.,0.,2.22044601616309E-16));
#1450=DIRECTION('',(0.,0.,1.));
#1451=DIRECTION('center_axis',(0.,1.,0.));
#1452=DIRECTION('ref_axis',(1.,0.,-2.77555752020386E-16));
#1453=DIRECTION('',(0.,0.,-1.));
#1454=DIRECTION('',(-1.,0.,2.42861283017838E-16));
#1455=DIRECTION('center_axis',(0.,1.,0.));
#1456=DIRECTION('ref_axis',(0.,0.,1.));
#1457=DIRECTION('center_axis',(0.,1.,0.));
#1458=DIRECTION('ref_axis',(1.,0.,0.));
#1459=DIRECTION('center_axis',(0.,1.,0.));
#1460=DIRECTION('ref_axis',(-1.,0.,0.));
#1461=DIRECTION('',(-1.,0.,-2.42861283017838E-16));
#1462=DIRECTION('',(0.,0.,1.));
#1463=DIRECTION('center_axis',(0.,1.,0.));
#1464=DIRECTION('ref_axis',(1.,0.,2.77555752020386E-16));
#1465=DIRECTION('',(0.,0.,-1.));
#1466=DIRECTION('',(-1.,0.,-2.22044601616309E-16));
#1467=DIRECTION('center_axis',(0.,1.,0.));
#1468=DIRECTION('ref_axis',(-1.,0.,0.));
#1469=DIRECTION('',(-1.11022300808154E-16,0.,1.));
#1470=DIRECTION('',(1.,0.,0.));
#1471=DIRECTION('center_axis',(0.,1.,0.));
#1472=DIRECTION('ref_axis',(0.,0.,-1.));
#1473=DIRECTION('',(-1.,0.,0.));
#1474=DIRECTION('',(-1.38777876010193E-16,0.,1.));
#1475=DIRECTION('center_axis',(0.,1.,0.));
#1476=DIRECTION('ref_axis',(1.,0.,0.));
#1477=DIRECTION('center_axis',(0.,1.,0.));
#1478=DIRECTION('ref_axis',(0.,0.,-1.));
#1479=DIRECTION('center_axis',(2.22044601616309E-16,0.,1.));
#1480=DIRECTION('ref_axis',(-1.,0.,2.22044601616309E-16));
#1481=DIRECTION('',(0.,-1.,0.));
#1482=DIRECTION('',(1.,0.,-2.22044601616309E-16));
#1483=DIRECTION('',(0.,-1.,0.));
#1484=DIRECTION('center_axis',(-1.,0.,0.));
#1485=DIRECTION('ref_axis',(0.,0.,-1.));
#1486=DIRECTION('',(0.,-1.,0.));
#1487=DIRECTION('',(0.,0.,1.));
#1488=DIRECTION('center_axis',(0.,-1.,0.));
#1489=DIRECTION('ref_axis',(-1.,0.,0.));
#1490=DIRECTION('',(0.,-1.,0.));
#1491=DIRECTION('center_axis',(0.,1.,0.));
#1492=DIRECTION('ref_axis',(-1.,0.,0.));
#1493=DIRECTION('',(0.,1.,0.));
#1494=DIRECTION('center_axis',(1.,0.,1.11022300808154E-16));
#1495=DIRECTION('ref_axis',(-1.11022300808154E-16,0.,1.));
#1496=DIRECTION('',(0.,-1.,0.));
#1497=DIRECTION('',(1.11022300808154E-16,0.,-1.));
#1498=DIRECTION('center_axis',(0.,0.,-1.));
#1499=DIRECTION('ref_axis',(1.,0.,0.));
#1500=DIRECTION('',(0.,-1.,0.));
#1501=DIRECTION('',(-1.,0.,0.));
#1502=DIRECTION('',(0.,-1.,0.));
#1503=DIRECTION('center_axis',(0.,-1.,0.));
#1504=DIRECTION('ref_axis',(-1.,0.,2.77555752020386E-16));
#1505=DIRECTION('',(0.,-1.,0.));
#1506=DIRECTION('center_axis',(0.,1.,0.));
#1507=DIRECTION('ref_axis',(-1.,0.,2.77555752020386E-16));
#1508=DIRECTION('center_axis',(0.,0.,1.));
#1509=DIRECTION('ref_axis',(-1.,0.,0.));
#1510=DIRECTION('',(0.,-1.,0.));
#1511=DIRECTION('',(1.,0.,0.));
#1512=DIRECTION('center_axis',(0.,-1.,0.));
#1513=DIRECTION('ref_axis',(0.,0.,-1.));
#1514=DIRECTION('',(0.,-1.,0.));
#1515=DIRECTION('center_axis',(0.,1.,0.));
#1516=DIRECTION('ref_axis',(0.,0.,-1.));
#1517=DIRECTION('center_axis',(1.,0.,0.));
#1518=DIRECTION('ref_axis',(0.,0.,1.));
#1519=DIRECTION('',(0.,-1.,0.));
#1520=DIRECTION('',(0.,0.,-1.));
#1521=DIRECTION('center_axis',(0.,-1.,0.));
#1522=DIRECTION('ref_axis',(-2.77555752020386E-16,0.,1.));
#1523=DIRECTION('',(0.,-1.,0.));
#1524=DIRECTION('center_axis',(0.,1.,0.));
#1525=DIRECTION('ref_axis',(-2.77555752020386E-16,0.,1.));
#1526=DIRECTION('center_axis',(0.,0.,1.));
#1527=DIRECTION('ref_axis',(-1.,0.,0.));
#1528=DIRECTION('',(0.,-1.,0.));
#1529=DIRECTION('',(1.,0.,0.));
#1530=DIRECTION('center_axis',(2.42861283017838E-16,0.,1.));
#1531=DIRECTION('ref_axis',(-1.,0.,2.42861283017838E-16));
#1532=DIRECTION('',(0.,-1.,0.));
#1533=DIRECTION('',(1.,0.,-2.42861283017838E-16));
#1534=DIRECTION('center_axis',(0.,0.,-1.));
#1535=DIRECTION('ref_axis',(1.,0.,0.));
#1536=DIRECTION('',(0.,-1.,0.));
#1537=DIRECTION('',(-1.,0.,0.));
#1538=DIRECTION('center_axis',(-1.,0.,0.));
#1539=DIRECTION('ref_axis',(0.,0.,-1.));
#1540=DIRECTION('',(0.,-1.,0.));
#1541=DIRECTION('',(0.,0.,1.));
#1542=DIRECTION('center_axis',(1.,0.,1.38777876010193E-16));
#1543=DIRECTION('ref_axis',(-1.38777876010193E-16,0.,1.));
#1544=DIRECTION('',(0.,-1.,0.));
#1545=DIRECTION('',(1.38777876010193E-16,0.,-1.));
#1546=DIRECTION('center_axis',(0.,-1.,0.));
#1547=DIRECTION('ref_axis',(0.,0.,-1.));
#1548=DIRECTION('',(0.,-1.,0.));
#1549=DIRECTION('center_axis',(0.,1.,0.));
#1550=DIRECTION('ref_axis',(0.,0.,-1.));
#1551=DIRECTION('',(0.,-1.,0.));
#1552=DIRECTION('center_axis',(0.,0.,1.));
#1553=DIRECTION('ref_axis',(-1.,0.,0.));
#1554=DIRECTION('',(0.,-1.,0.));
#1555=DIRECTION('',(1.,0.,0.));
#1556=DIRECTION('center_axis',(0.,-1.,0.));
#1557=DIRECTION('ref_axis',(-1.,0.,0.));
#1558=DIRECTION('',(0.,-1.,0.));
#1559=DIRECTION('center_axis',(0.,1.,0.));
#1560=DIRECTION('ref_axis',(-1.,0.,0.));
#1561=DIRECTION('center_axis',(0.,-1.,0.));
#1562=DIRECTION('ref_axis',(0.,0.,1.));
#1563=DIRECTION('',(0.,-1.,0.));
#1564=DIRECTION('center_axis',(0.,1.,0.));
#1565=DIRECTION('ref_axis',(0.,0.,1.));
#1566=DIRECTION('center_axis',(-1.,0.,-1.11022300808154E-16));
#1567=DIRECTION('ref_axis',(1.11022300808154E-16,0.,-1.));
#1568=DIRECTION('',(0.,1.,0.));
#1569=DIRECTION('',(-1.11022300808154E-16,0.,1.));
#1570=DIRECTION('center_axis',(0.,-1.,0.));
#1571=DIRECTION('ref_axis',(1.,0.,0.));
#1572=DIRECTION('',(0.,-1.,0.));
#1573=DIRECTION('center_axis',(0.,1.,0.));
#1574=DIRECTION('ref_axis',(1.,0.,0.));
#1575=DIRECTION('center_axis',(0.,-1.,0.));
#1576=DIRECTION('ref_axis',(-1.,0.,0.));
#1577=DIRECTION('',(0.,-1.,0.));
#1578=DIRECTION('center_axis',(0.,1.,0.));
#1579=DIRECTION('ref_axis',(-1.,0.,0.));
#1580=DIRECTION('center_axis',(2.22044601616309E-16,0.,-1.));
#1581=DIRECTION('ref_axis',(1.,0.,2.22044601616309E-16));
#1582=DIRECTION('',(0.,-1.,0.));
#1583=DIRECTION('',(-1.,0.,-2.22044601616309E-16));
#1584=DIRECTION('center_axis',(1.,0.,0.));
#1585=DIRECTION('ref_axis',(0.,0.,1.));
#1586=DIRECTION('',(0.,-1.,0.));
#1587=DIRECTION('',(0.,0.,-1.));
#1588=DIRECTION('center_axis',(0.,-1.,0.));
#1589=DIRECTION('ref_axis',(1.,0.,2.77555752020386E-16));
#1590=DIRECTION('',(0.,-1.,0.));
#1591=DIRECTION('center_axis',(0.,1.,0.));
#1592=DIRECTION('ref_axis',(1.,0.,2.77555752020386E-16));
#1593=DIRECTION('center_axis',(0.,-1.,0.));
#1594=DIRECTION('ref_axis',(-1.,0.,0.));
#1595=DIRECTION('center_axis',(0.,-1.,0.));
#1596=DIRECTION('ref_axis',(-1.,0.,0.));
#1597=DIRECTION('',(0.,-1.,0.));
#1598=DIRECTION('center_axis',(0.,-1.,0.));
#1599=DIRECTION('ref_axis',(-1.,0.,0.));
#1600=DIRECTION('center_axis',(0.,1.,0.));
#1601=DIRECTION('ref_axis',(-1.,0.,0.));
#1602=DIRECTION('center_axis',(0.,-1.,0.));
#1603=DIRECTION('ref_axis',(0.,0.,-1.));
#1604=DIRECTION('',(0.,-1.,0.));
#1605=DIRECTION('center_axis',(0.,1.,0.));
#1606=DIRECTION('ref_axis',(0.,0.,-1.));
#1607=DIRECTION('',(0.,-1.,0.));
#1608=DIRECTION('center_axis',(-2.42861283017838E-16,0.,1.));
#1609=DIRECTION('ref_axis',(-1.,0.,-2.42861283017838E-16));
#1610=DIRECTION('',(0.,1.,0.));
#1611=DIRECTION('',(1.,0.,2.42861283017838E-16));
#1612=DIRECTION('center_axis',(-1.,0.,0.));
#1613=DIRECTION('ref_axis',(0.,0.,-1.));
#1614=DIRECTION('',(0.,-1.,0.));
#1615=DIRECTION('',(0.,0.,1.));
#1616=DIRECTION('center_axis',(0.,-1.,0.));
#1617=DIRECTION('ref_axis',(-1.,0.,-2.77555752020386E-16));
#1618=DIRECTION('',(0.,-1.,0.));
#1619=DIRECTION('center_axis',(0.,1.,0.));
#1620=DIRECTION('ref_axis',(-1.,0.,-2.77555752020386E-16));
#1621=DIRECTION('center_axis',(1.,0.,0.));
#1622=DIRECTION('ref_axis',(0.,0.,1.));
#1623=DIRECTION('',(0.,-1.,0.));
#1624=DIRECTION('',(0.,0.,-1.));
#1625=DIRECTION('center_axis',(-2.22044601616309E-16,0.,1.));
#1626=DIRECTION('ref_axis',(-1.,0.,-2.22044601616309E-16));
#1627=DIRECTION('',(0.,1.,0.));
#1628=DIRECTION('',(1.,0.,2.22044601616309E-16));
#1629=DIRECTION('center_axis',(0.,-1.,0.));
#1630=DIRECTION('ref_axis',(-1.,0.,0.));
#1631=DIRECTION('',(0.,-1.,0.));
#1632=DIRECTION('center_axis',(0.,1.,0.));
#1633=DIRECTION('ref_axis',(-1.,0.,0.));
#1634=DIRECTION('center_axis',(-1.,0.,0.));
#1635=DIRECTION('ref_axis',(0.,0.,-1.));
#1636=DIRECTION('',(0.,0.,1.));
#1637=DIRECTION('center_axis',(1.,0.,0.));
#1638=DIRECTION('ref_axis',(0.,0.,1.));
#1639=DIRECTION('',(0.,1.,0.));
#1640=DIRECTION('',(0.,0.,-1.));
#1641=DIRECTION('center_axis',(0.,0.,1.));
#1642=DIRECTION('ref_axis',(-1.,0.,0.));
#1643=DIRECTION('',(0.,-1.,0.));
#1644=DIRECTION('',(1.,0.,0.));
#1645=DIRECTION('center_axis',(0.,-1.,0.));
#1646=DIRECTION('ref_axis',(0.,0.,1.));
#1647=DIRECTION('',(0.,-1.,0.));
#1648=DIRECTION('center_axis',(0.,1.,0.));
#1649=DIRECTION('ref_axis',(0.,0.,1.));
#1650=DIRECTION('center_axis',(0.,0.,-1.));
#1651=DIRECTION('ref_axis',(1.,0.,0.));
#1652=DIRECTION('',(0.,-1.,0.));
#1653=DIRECTION('',(-1.,0.,0.));
#1654=DIRECTION('center_axis',(1.,0.,0.));
#1655=DIRECTION('ref_axis',(0.,0.,1.));
#1656=DIRECTION('',(0.,1.,0.));
#1657=DIRECTION('',(0.,0.,-1.));
#1658=DIRECTION('center_axis',(0.,-1.,0.));
#1659=DIRECTION('ref_axis',(-1.,0.,0.));
#1660=DIRECTION('center_axis',(0.,1.,0.));
#1661=DIRECTION('ref_axis',(-1.,0.,0.));
#1662=DIRECTION('center_axis',(-2.42861283017838E-16,0.,-1.));
#1663=DIRECTION('ref_axis',(1.,0.,-2.42861283017838E-16));
#1664=DIRECTION('',(0.,1.,0.));
#1665=DIRECTION('',(-1.,0.,2.42861283017838E-16));
#1666=DIRECTION('center_axis',(2.42861283017838E-16,0.,-1.));
#1667=DIRECTION('ref_axis',(1.,0.,2.42861283017838E-16));
#1668=DIRECTION('',(-1.,0.,-2.42861283017838E-16));
#1669=DIRECTION('',(0.,-1.,0.));
#1670=DIRECTION('center_axis',(-1.,0.,-1.38777876010193E-16));
#1671=DIRECTION('ref_axis',(1.38777876010193E-16,0.,-1.));
#1672=DIRECTION('',(0.,1.,0.));
#1673=DIRECTION('',(-1.38777876010193E-16,0.,1.));
#1674=DIRECTION('center_axis',(1.,0.,0.));
#1675=DIRECTION('ref_axis',(0.,0.,1.));
#1676=DIRECTION('',(0.,-1.,0.));
#1677=DIRECTION('',(0.,0.,-1.));
#1678=DIRECTION('center_axis',(0.,1.,0.));
#1679=DIRECTION('ref_axis',(1.,0.,0.));
#1680=DIRECTION('center_axis',(0.,1.,0.));
#1681=DIRECTION('ref_axis',(0.707106781186547,0.,-0.707106781186547));
#1682=DIRECTION('',(0.,0.,1.));
#1683=DIRECTION('center_axis',(0.,1.,0.));
#1684=DIRECTION('ref_axis',(0.707106781186547,0.,0.707106781186547));
#1685=DIRECTION('',(-1.,0.,0.));
#1686=DIRECTION('center_axis',(0.,1.,0.));
#1687=DIRECTION('ref_axis',(-0.707106781186547,0.,0.707106781186547));
#1688=DIRECTION('',(0.,0.,-1.));
#1689=DIRECTION('center_axis',(0.,1.,0.));
#1690=DIRECTION('ref_axis',(-0.707106781186547,0.,-0.707106781186547));
#1691=DIRECTION('',(1.,0.,0.));
#1692=DIRECTION('center_axis',(0.,1.,0.));
#1693=DIRECTION('ref_axis',(1.,0.,-2.77555752020386E-16));
#1694=DIRECTION('',(0.,0.,1.));
#1695=DIRECTION('',(-1.,0.,2.22044601616309E-16));
#1696=DIRECTION('',(-1.,0.,0.));
#1697=DIRECTION('',(0.,0.,1.));
#1698=DIRECTION('center_axis',(0.,0.,-1.));
#1699=DIRECTION('ref_axis',(1.,0.,0.));
#1700=DIRECTION('center_axis',(-1.,0.,0.));
#1701=DIRECTION('ref_axis',(0.,0.,-1.));
#1702=DIRECTION('center_axis',(0.,-1.,0.));
#1703=DIRECTION('ref_axis',(1.,0.,-2.77555752020386E-16));
#1704=DIRECTION('',(0.,-1.,0.));
#1705=DIRECTION('center_axis',(-1.,0.,0.));
#1706=DIRECTION('ref_axis',(0.,0.,-1.));
#1707=DIRECTION('',(0.,-1.,0.));
#1708=DIRECTION('center_axis',(-2.22044601616309E-16,0.,-1.));
#1709=DIRECTION('ref_axis',(1.,0.,-2.22044601616309E-16));
#1710=DIRECTION('center_axis',(0.,1.,0.));
#1711=DIRECTION('ref_axis',(0.707106781186547,0.,-0.707106781186547));
#1712=DIRECTION('center_axis',(0.,-1.,0.));
#1713=DIRECTION('ref_axis',(0.707106781186547,0.,-0.707106781186547));
#1714=DIRECTION('',(0.,-1.,0.));
#1715=DIRECTION('',(0.,1.,0.));
#1716=DIRECTION('center_axis',(0.,0.,-1.));
#1717=DIRECTION('ref_axis',(-1.,0.,0.));
#1718=DIRECTION('',(0.,-1.,0.));
#1719=DIRECTION('',(-1.,0.,0.));
#1720=DIRECTION('center_axis',(0.,1.,0.));
#1721=DIRECTION('ref_axis',(-0.707106781186547,0.,-0.707106781186547));
#1722=DIRECTION('center_axis',(0.,-1.,0.));
#1723=DIRECTION('ref_axis',(-0.707106781186547,0.,-0.707106781186547));
#1724=DIRECTION('',(0.,1.,0.));
#1725=DIRECTION('center_axis',(-1.,0.,0.));
#1726=DIRECTION('ref_axis',(0.,0.,1.));
#1727=DIRECTION('',(0.,-1.,0.));
#1728=DIRECTION('',(0.,0.,1.));
#1729=DIRECTION('center_axis',(0.,1.,0.));
#1730=DIRECTION('ref_axis',(-0.707106781186547,0.,0.707106781186547));
#1731=DIRECTION('center_axis',(0.,-1.,0.));
#1732=DIRECTION('ref_axis',(-0.707106781186547,0.,0.707106781186547));
#1733=DIRECTION('',(0.,1.,0.));
#1734=DIRECTION('center_axis',(0.,0.,1.));
#1735=DIRECTION('ref_axis',(1.,0.,0.));
#1736=DIRECTION('',(0.,-1.,0.));
#1737=DIRECTION('',(1.,0.,0.));
#1738=DIRECTION('center_axis',(0.,1.,0.));
#1739=DIRECTION('ref_axis',(0.707106781186547,0.,0.707106781186547));
#1740=DIRECTION('center_axis',(0.,-1.,0.));
#1741=DIRECTION('ref_axis',(0.707106781186547,0.,0.707106781186547));
#1742=DIRECTION('',(0.,1.,0.));
#1743=DIRECTION('center_axis',(1.,0.,0.));
#1744=DIRECTION('ref_axis',(0.,0.,-1.));
#1745=DIRECTION('',(0.,0.,-1.));
#1746=DIRECTION('center_axis',(0.,1.,0.));
#1747=DIRECTION('ref_axis',(0.,0.,1.));
#1748=CARTESIAN_POINT('',(0.,0.,0.));
#1749=CARTESIAN_POINT('Origin',(-9.50000014156103,21.,9.50000014156103));
#1750=CARTESIAN_POINT('',(-15.0000002235174,21.,1.00000001490116));
#1751=CARTESIAN_POINT('',(-15.0000002235174,21.,4.00000005960464));
#1752=CARTESIAN_POINT('',(-15.0000002235174,21.,6.75000010058284));
#1753=CARTESIAN_POINT('',(-18.0000002682209,21.,1.00000001490115));
#1754=CARTESIAN_POINT('',(-12.2500001825392,21.,1.00000001490116));
#1755=CARTESIAN_POINT('',(-19.0000002831221,21.,0.));
#1756=CARTESIAN_POINT('Origin',(-18.0000002682209,21.,-6.21724899745788E-15));
#1757=CARTESIAN_POINT('',(-2.22044604925031E-15,21.,19.0000002831221));
#1758=CARTESIAN_POINT('Origin',(0.,21.,0.));
#1759=CARTESIAN_POINT('',(-1.00000001490116,21.,18.0000002682209));
#1760=CARTESIAN_POINT('Origin',(0.,21.,18.0000002682209));
#1761=CARTESIAN_POINT('',(-1.00000001490116,21.,15.0000002235174));
#1762=CARTESIAN_POINT('',(-1.00000001490116,21.,13.750000204891));
#1763=CARTESIAN_POINT('',(-4.00000005960464,21.,15.0000002235174));
#1764=CARTESIAN_POINT('',(-2.75000004097819,21.,15.0000002235174));
#1765=CARTESIAN_POINT('',(-4.00000005960465,21.,11.0000001639128));
#1766=CARTESIAN_POINT('Origin',(-4.00000005960464,21.,13.0000001937151));
#1767=CARTESIAN_POINT('',(-2.00000002980232,21.,11.0000001639128));
#1768=CARTESIAN_POINT('',(-6.75000010058284,21.,11.0000001639128));
#1769=CARTESIAN_POINT('',(-2.00000002980232,21.,9.79795896504934));
#1770=CARTESIAN_POINT('',(-2.00000002980232,21.,10.2500001527369));
#1771=CARTESIAN_POINT('',(-9.79795896504934,21.,2.00000002980232));
#1772=CARTESIAN_POINT('Origin',(0.,21.,0.));
#1773=CARTESIAN_POINT('',(-11.0000001639128,21.,2.00000002980232));
#1774=CARTESIAN_POINT('',(-9.64897955330519,21.,2.00000002980232));
#1775=CARTESIAN_POINT('',(-11.0000001639128,21.,4.00000005960464));
#1776=CARTESIAN_POINT('',(-11.0000001639128,21.,5.75000008568168));
#1777=CARTESIAN_POINT('Origin',(-13.0000001937151,21.,4.00000005960464));
#1778=CARTESIAN_POINT('Origin',(0.,26.,0.));
#1779=CARTESIAN_POINT('',(19.0000002831221,26.,-2.32682895305242E-15));
#1780=CARTESIAN_POINT('Origin',(0.,26.,0.));
#1781=CARTESIAN_POINT('',(19.0000002831221,21.,-2.22044604925031E-15));
#1782=CARTESIAN_POINT('',(19.0000002831221,26.,2.32682895305242E-15));
#1783=CARTESIAN_POINT('Origin',(0.,21.,0.));
#1784=CARTESIAN_POINT('',(2.22044604925031E-15,21.,-19.0000002831221));
#1785=CARTESIAN_POINT('Origin',(0.,21.,0.));
#1786=CARTESIAN_POINT('Origin',(0.,21.,0.));
#1787=CARTESIAN_POINT('Origin',(9.50000014156103,21.,9.50000014156103));
#1788=CARTESIAN_POINT('',(15.0000002235174,21.,1.00000001490116));
#1789=CARTESIAN_POINT('',(18.0000002682209,21.,1.00000001490116));
#1790=CARTESIAN_POINT('',(13.750000204891,21.,1.00000001490116));
#1791=CARTESIAN_POINT('',(15.0000002235174,21.,4.00000005960464));
#1792=CARTESIAN_POINT('',(15.0000002235174,21.,2.75000004097819));
#1793=CARTESIAN_POINT('',(11.0000001639128,21.,4.00000005960464));
#1794=CARTESIAN_POINT('Origin',(13.0000001937151,21.,4.00000005960464));
#1795=CARTESIAN_POINT('',(11.0000001639128,21.,2.00000002980232));
#1796=CARTESIAN_POINT('',(11.0000001639128,21.,6.75000010058284));
#1797=CARTESIAN_POINT('',(9.79795896504934,21.,2.00000002980232));
#1798=CARTESIAN_POINT('',(10.2500001527369,21.,2.00000002980232));
#1799=CARTESIAN_POINT('',(2.00000002980232,21.,9.79795896504934));
#1800=CARTESIAN_POINT('Origin',(0.,21.,0.));
#1801=CARTESIAN_POINT('',(2.00000002980232,21.,11.0000001639128));
#1802=CARTESIAN_POINT('',(2.00000002980232,21.,9.64897955330519));
#1803=CARTESIAN_POINT('',(4.00000005960464,21.,11.0000001639128));
#1804=CARTESIAN_POINT('',(5.75000008568168,21.,11.0000001639128));
#1805=CARTESIAN_POINT('',(4.00000005960464,21.,15.0000002235174));
#1806=CARTESIAN_POINT('Origin',(4.00000005960464,21.,13.0000001937151));
#1807=CARTESIAN_POINT('',(1.00000001490116,21.,15.0000002235174));
#1808=CARTESIAN_POINT('',(6.75000010058284,21.,15.0000002235174));
#1809=CARTESIAN_POINT('',(1.00000001490116,21.,18.0000002682209));
#1810=CARTESIAN_POINT('',(1.00000001490116,21.,12.2500001825392));
#1811=CARTESIAN_POINT('Origin',(0.,21.,18.0000002682209));
#1812=CARTESIAN_POINT('Origin',(18.0000002682209,21.,-3.99680294820757E-15));
#1813=CARTESIAN_POINT('Origin',(9.50000014156103,21.,-9.50000014156103));
#1814=CARTESIAN_POINT('',(1.00000001490117,21.,-15.0000002235174));
#1815=CARTESIAN_POINT('',(1.00000001490117,21.,-18.0000002682209));
#1816=CARTESIAN_POINT('',(1.00000001490117,21.,-13.750000204891));
#1817=CARTESIAN_POINT('',(4.00000005960465,21.,-15.0000002235174));
#1818=CARTESIAN_POINT('',(2.7500000409782,21.,-15.0000002235174));
#1819=CARTESIAN_POINT('',(4.00000005960465,21.,-11.0000001639128));
#1820=CARTESIAN_POINT('Origin',(4.00000005960465,21.,-13.0000001937151));
#1821=CARTESIAN_POINT('',(2.00000002980232,21.,-11.0000001639128));
#1822=CARTESIAN_POINT('',(6.75000010058284,21.,-11.0000001639128));
#1823=CARTESIAN_POINT('',(2.00000002980233,21.,-9.79795896504934));
#1824=CARTESIAN_POINT('',(2.00000002980232,21.,-10.2500001527369));
#1825=CARTESIAN_POINT('',(9.79795896504934,21.,-2.00000002980232));
#1826=CARTESIAN_POINT('Origin',(0.,21.,0.));
#1827=CARTESIAN_POINT('',(11.0000001639128,21.,-2.00000002980232));
#1828=CARTESIAN_POINT('',(9.64897955330519,21.,-2.00000002980232));
#1829=CARTESIAN_POINT('',(11.0000001639128,21.,-4.00000005960465));
#1830=CARTESIAN_POINT('',(11.0000001639128,21.,-5.75000008568168));
#1831=CARTESIAN_POINT('',(15.0000002235174,21.,-4.00000005960465));
#1832=CARTESIAN_POINT('Origin',(13.0000001937151,21.,-4.00000005960465));
#1833=CARTESIAN_POINT('',(15.0000002235174,21.,-1.00000001490116));
#1834=CARTESIAN_POINT('',(15.0000002235174,21.,-6.75000010058284));
#1835=CARTESIAN_POINT('',(18.0000002682209,21.,-1.00000001490117));
#1836=CARTESIAN_POINT('',(12.2500001825392,21.,-1.00000001490116));
#1837=CARTESIAN_POINT('Origin',(18.0000002682209,21.,-3.99680294820757E-15));
#1838=CARTESIAN_POINT('Origin',(4.42481032056314E-15,21.,-18.0000002682209));
#1839=CARTESIAN_POINT('Origin',(-9.50000014156103,21.,-9.50000014156103));
#1840=CARTESIAN_POINT('',(-15.0000002235174,21.,-1.00000001490117));
#1841=CARTESIAN_POINT('',(-18.0000002682209,21.,-1.00000001490117));
#1842=CARTESIAN_POINT('',(-13.750000204891,21.,-1.00000001490117));
#1843=CARTESIAN_POINT('',(-15.0000002235174,21.,-4.00000005960465));
#1844=CARTESIAN_POINT('',(-15.0000002235174,21.,-2.7500000409782));
#1845=CARTESIAN_POINT('',(-11.0000001639128,21.,-4.00000005960465));
#1846=CARTESIAN_POINT('Origin',(-13.0000001937151,21.,-4.00000005960465));
#1847=CARTESIAN_POINT('',(-11.0000001639128,21.,-2.00000002980232));
#1848=CARTESIAN_POINT('',(-11.0000001639128,21.,-6.75000010058284));
#1849=CARTESIAN_POINT('',(-9.79795896504934,21.,-2.00000002980233));
#1850=CARTESIAN_POINT('',(-10.2500001527369,21.,-2.00000002980232));
#1851=CARTESIAN_POINT('',(-2.00000002980232,21.,-9.79795896504934));
#1852=CARTESIAN_POINT('Origin',(0.,21.,0.));
#1853=CARTESIAN_POINT('',(-2.00000002980232,21.,-11.0000001639128));
#1854=CARTESIAN_POINT('',(-2.00000002980232,21.,-9.64897955330519));
#1855=CARTESIAN_POINT('',(-4.00000005960464,21.,-11.0000001639128));
#1856=CARTESIAN_POINT('',(-5.75000008568168,21.,-11.0000001639128));
#1857=CARTESIAN_POINT('',(-4.00000005960464,21.,-15.0000002235174));
#1858=CARTESIAN_POINT('Origin',(-4.00000005960464,21.,-13.0000001937151));
#1859=CARTESIAN_POINT('',(-1.00000001490116,21.,-15.0000002235174));
#1860=CARTESIAN_POINT('',(-6.75000010058284,21.,-15.0000002235174));
#1861=CARTESIAN_POINT('',(-1.00000001490116,21.,-18.0000002682209));
#1862=CARTESIAN_POINT('',(-1.00000001490116,21.,-12.2500001825392));
#1863=CARTESIAN_POINT('Origin',(4.42481032056314E-15,21.,-18.0000002682209));
#1864=CARTESIAN_POINT('Origin',(-18.0000002682209,21.,-6.21724899745788E-15));
#1865=CARTESIAN_POINT('Origin',(11.0000001639128,35.,2.00000002980232));
#1866=CARTESIAN_POINT('',(11.0000001639128,0.,2.00000002980232));
#1867=CARTESIAN_POINT('',(11.0000001639128,35.,2.00000002980232));
#1868=CARTESIAN_POINT('',(9.79795896504934,0.,2.00000002980232));
#1869=CARTESIAN_POINT('',(5.50000008195639,0.,2.00000002980232));
#1870=CARTESIAN_POINT('',(9.79795896504934,35.,2.00000002980232));
#1871=CARTESIAN_POINT('Origin',(11.0000001639128,35.,4.00000005960464));
#1872=CARTESIAN_POINT('',(11.0000001639128,0.,4.00000005960464));
#1873=CARTESIAN_POINT('',(11.0000001639128,35.,4.00000005960464));
#1874=CARTESIAN_POINT('',(11.0000001639128,0.,2.00000002980232));
#1875=CARTESIAN_POINT('Origin',(0.,35.,0.));
#1876=CARTESIAN_POINT('',(2.00000002980232,0.,-9.79795896504934));
#1877=CARTESIAN_POINT('',(2.00000002980232,35.,-9.79795896504934));
#1878=CARTESIAN_POINT('',(9.79795896504934,0.,-2.00000002980233));
#1879=CARTESIAN_POINT('Origin',(0.,0.,0.));
#1880=CARTESIAN_POINT('',(9.79795896504934,35.,-2.00000002980233));
#1881=CARTESIAN_POINT('Origin',(2.00000002980232,35.,-11.0000001639128));
#1882=CARTESIAN_POINT('',(2.00000002980232,0.,-11.0000001639128));
#1883=CARTESIAN_POINT('',(2.00000002980232,35.,-11.0000001639128));
#1884=CARTESIAN_POINT('',(2.00000002980232,0.,-5.50000008195639));
#1885=CARTESIAN_POINT('Origin',(-4.00000005960464,35.,11.0000001639128));
#1886=CARTESIAN_POINT('',(-4.00000005960464,0.,11.0000001639128));
#1887=CARTESIAN_POINT('',(-4.00000005960464,35.,11.0000001639128));
#1888=CARTESIAN_POINT('',(-2.00000002980232,0.,11.0000001639128));
#1889=CARTESIAN_POINT('',(-2.00000002980232,0.,11.0000001639128));
#1890=CARTESIAN_POINT('',(-2.00000002980232,35.,11.0000001639128));
#1891=CARTESIAN_POINT('Origin',(13.0000001937151,35.,4.00000005960464));
#1892=CARTESIAN_POINT('',(15.0000002235174,0.,4.00000005960464));
#1893=CARTESIAN_POINT('',(15.0000002235174,35.,4.00000005960464));
#1894=CARTESIAN_POINT('Origin',(13.0000001937151,0.,4.00000005960464));
#1895=CARTESIAN_POINT('Origin',(4.00000005960465,35.,-11.0000001639128));
#1896=CARTESIAN_POINT('',(4.00000005960465,0.,-11.0000001639128));
#1897=CARTESIAN_POINT('',(4.00000005960465,35.,-11.0000001639128));
#1898=CARTESIAN_POINT('',(2.00000002980232,0.,-11.0000001639128));
#1899=CARTESIAN_POINT('Origin',(-4.00000005960464,35.,13.0000001937151));
#1900=CARTESIAN_POINT('',(-4.00000005960464,0.,15.0000002235174));
#1901=CARTESIAN_POINT('',(-4.00000005960464,35.,15.0000002235174));
#1902=CARTESIAN_POINT('Origin',(-4.00000005960464,0.,13.0000001937151));
#1903=CARTESIAN_POINT('Origin',(15.0000002235174,35.,-4.00000005960465));
#1904=CARTESIAN_POINT('',(15.0000002235174,0.,1.00000001490116));
#1905=CARTESIAN_POINT('',(15.0000002235174,35.,1.00000001490116));
#1906=CARTESIAN_POINT('',(15.0000002235174,0.,-2.00000002980232));
#1907=CARTESIAN_POINT('Origin',(4.00000005960465,35.,-13.0000001937151));
#1908=CARTESIAN_POINT('',(4.00000005960465,0.,-15.0000002235174));
#1909=CARTESIAN_POINT('',(4.00000005960465,35.,-15.0000002235174));
#1910=CARTESIAN_POINT('Origin',(4.00000005960465,0.,-13.0000001937151));
#1911=CARTESIAN_POINT('Origin',(4.00000005960464,35.,15.0000002235174));
#1912=CARTESIAN_POINT('',(-1.00000001490116,0.,15.0000002235174));
#1913=CARTESIAN_POINT('',(-1.00000001490116,35.,15.0000002235174));
#1914=CARTESIAN_POINT('',(2.00000002980232,0.,15.0000002235174));
#1915=CARTESIAN_POINT('Origin',(18.0000002682209,35.,1.00000001490116));
#1916=CARTESIAN_POINT('',(18.0000002682209,0.,1.00000001490116));
#1917=CARTESIAN_POINT('',(18.0000002682209,35.,1.00000001490116));
#1918=CARTESIAN_POINT('',(9.00000013411045,0.,1.00000001490116));
#1919=CARTESIAN_POINT('Origin',(-4.00000005960464,35.,-15.0000002235174));
#1920=CARTESIAN_POINT('',(1.00000001490117,0.,-15.0000002235174));
#1921=CARTESIAN_POINT('',(1.00000001490117,35.,-15.0000002235174));
#1922=CARTESIAN_POINT('',(-2.00000002980232,0.,-15.0000002235174));
#1923=CARTESIAN_POINT('Origin',(-1.00000001490116,35.,18.0000002682209));
#1924=CARTESIAN_POINT('',(-1.00000001490116,0.,18.0000002682209));
#1925=CARTESIAN_POINT('',(-1.00000001490116,35.,18.0000002682209));
#1926=CARTESIAN_POINT('',(-1.00000001490116,0.,9.00000013411045));
#1927=CARTESIAN_POINT('Origin',(1.00000001490117,35.,-18.0000002682209));
#1928=CARTESIAN_POINT('',(1.00000001490117,0.,-18.0000002682209));
#1929=CARTESIAN_POINT('',(1.00000001490117,35.,-18.0000002682209));
#1930=CARTESIAN_POINT('',(1.00000001490116,0.,-9.00000013411045));
#1931=CARTESIAN_POINT('Origin',(-4.00000005960464,35.,-13.0000001937151));
#1932=CARTESIAN_POINT('',(-4.00000005960464,0.,-11.0000001639128));
#1933=CARTESIAN_POINT('',(-4.00000005960464,35.,-11.0000001639128));
#1934=CARTESIAN_POINT('',(-4.00000005960464,0.,-15.0000002235174));
#1935=CARTESIAN_POINT('Origin',(-4.00000005960464,0.,-13.0000001937151));
#1936=CARTESIAN_POINT('',(-4.00000005960464,35.,-15.0000002235174));
#1937=CARTESIAN_POINT('Origin',(-2.00000002980232,35.,-11.0000001639128));
#1938=CARTESIAN_POINT('',(-2.00000002980232,0.,-11.0000001639128));
#1939=CARTESIAN_POINT('',(-2.00000002980232,35.,-11.0000001639128));
#1940=CARTESIAN_POINT('',(-1.00000001490116,0.,-11.0000001639128));
#1941=CARTESIAN_POINT('Origin',(0.,35.,18.0000002682209));
#1942=CARTESIAN_POINT('',(1.00000001490116,0.,18.0000002682209));
#1943=CARTESIAN_POINT('',(1.00000001490116,35.,18.0000002682209));
#1944=CARTESIAN_POINT('Origin',(0.,0.,18.0000002682209));
#1945=CARTESIAN_POINT('Origin',(18.0000002682209,35.,-3.99680294820757E-15));
#1946=CARTESIAN_POINT('',(18.0000002682209,0.,-1.00000001490117));
#1947=CARTESIAN_POINT('',(18.0000002682209,35.,-1.00000001490117));
#1948=CARTESIAN_POINT('Origin',(18.0000002682209,0.,-3.99680294820757E-15));
#1949=CARTESIAN_POINT('Origin',(-2.00000002980232,35.,-9.79795896504934));
#1950=CARTESIAN_POINT('',(-2.00000002980232,0.,-9.79795896504934));
#1951=CARTESIAN_POINT('',(-2.00000002980232,35.,-9.79795896504934));
#1952=CARTESIAN_POINT('',(-2.00000002980232,0.,-4.89897948252467));
#1953=CARTESIAN_POINT('Origin',(4.42481032056314E-15,35.,-18.0000002682209));
#1954=CARTESIAN_POINT('',(-1.00000001490116,0.,-18.0000002682209));
#1955=CARTESIAN_POINT('',(-1.00000001490116,35.,-18.0000002682209));
#1956=CARTESIAN_POINT('Origin',(4.42481032056314E-15,0.,-18.0000002682209));
#1957=CARTESIAN_POINT('Origin',(0.,35.,0.));
#1958=CARTESIAN_POINT('',(-9.79795896504934,0.,-2.00000002980232));
#1959=CARTESIAN_POINT('',(-9.79795896504934,35.,-2.00000002980232));
#1960=CARTESIAN_POINT('Origin',(0.,0.,0.));
#1961=CARTESIAN_POINT('Origin',(-11.0000001639128,35.,-2.00000002980232));
#1962=CARTESIAN_POINT('',(-11.0000001639128,0.,-2.00000002980232));
#1963=CARTESIAN_POINT('',(-11.0000001639128,35.,-2.00000002980232));
#1964=CARTESIAN_POINT('',(-5.50000008195639,0.,-2.00000002980232));
#1965=CARTESIAN_POINT('Origin',(-11.0000001639128,35.,-4.00000005960465));
#1966=CARTESIAN_POINT('',(-11.0000001639128,0.,-4.00000005960465));
#1967=CARTESIAN_POINT('',(-11.0000001639128,35.,-4.00000005960465));
#1968=CARTESIAN_POINT('',(-11.0000001639128,0.,-2.00000002980232));
#1969=CARTESIAN_POINT('Origin',(-13.0000001937151,35.,-4.00000005960465));
#1970=CARTESIAN_POINT('',(-15.0000002235174,0.,-4.00000005960465));
#1971=CARTESIAN_POINT('',(-15.0000002235174,35.,-4.00000005960465));
#1972=CARTESIAN_POINT('Origin',(-13.0000001937151,0.,-4.00000005960465));
#1973=CARTESIAN_POINT('Origin',(-4.44089209850063E-15,35.,-3.88578058618805E-15));
#1974=CARTESIAN_POINT('',(22.0000003278255,35.,-6.58000358445928E-15));
#1975=CARTESIAN_POINT('Origin',(-4.44089209850063E-15,35.,-3.88578058618805E-15));
#1976=CARTESIAN_POINT('',(22.0000003278255,26.,-6.52256026967279E-15));
#1977=CARTESIAN_POINT('',(22.0000003278255,35.,-1.19155758791682E-15));
#1978=CARTESIAN_POINT('Origin',(-4.44089209850063E-15,26.,-3.88578058618805E-15));
#1979=CARTESIAN_POINT('Origin',(-4.44089209850063E-15,26.,-4.44089209850063E-15));
#1980=CARTESIAN_POINT('Origin',(-18.0000002682209,35.,-6.21724899745788E-15));
#1981=CARTESIAN_POINT('',(-18.0000002682209,0.,1.00000001490115));
#1982=CARTESIAN_POINT('',(-18.0000002682209,35.,1.00000001490115));
#1983=CARTESIAN_POINT('',(-18.0000002682209,0.,-1.00000001490117));
#1984=CARTESIAN_POINT('Origin',(-18.0000002682209,0.,-6.21724899745788E-15));
#1985=CARTESIAN_POINT('',(-18.0000002682209,35.,-1.00000001490117));
#1986=CARTESIAN_POINT('Origin',(-15.0000002235174,35.,1.00000001490116));
#1987=CARTESIAN_POINT('',(-15.0000002235174,0.,1.00000001490116));
#1988=CARTESIAN_POINT('',(-15.0000002235174,35.,1.00000001490116));
#1989=CARTESIAN_POINT('',(-7.50000011175871,0.,1.00000001490116));
#1990=CARTESIAN_POINT('Origin',(-15.0000002235174,35.,4.00000005960464));
#1991=CARTESIAN_POINT('',(-15.0000002235174,0.,4.00000005960464));
#1992=CARTESIAN_POINT('',(-15.0000002235174,35.,4.00000005960464));
#1993=CARTESIAN_POINT('',(-15.0000002235174,0.,2.00000002980232));
#1994=CARTESIAN_POINT('Origin',(-13.0000001937151,35.,4.00000005960464));
#1995=CARTESIAN_POINT('',(-11.0000001639128,0.,4.00000005960464));
#1996=CARTESIAN_POINT('',(-11.0000001639128,35.,4.00000005960464));
#1997=CARTESIAN_POINT('Origin',(-13.0000001937151,0.,4.00000005960464));
#1998=CARTESIAN_POINT('Origin',(-11.0000001639128,35.,2.00000002980232));
#1999=CARTESIAN_POINT('',(-11.0000001639128,0.,2.00000002980232));
#2000=CARTESIAN_POINT('',(-11.0000001639128,35.,2.00000002980232));
#2001=CARTESIAN_POINT('',(-11.0000001639128,0.,1.00000001490116));
#2002=CARTESIAN_POINT('Origin',(-9.79795896504934,35.,2.00000002980232));
#2003=CARTESIAN_POINT('',(-9.79795896504934,0.,2.00000002980232));
#2004=CARTESIAN_POINT('',(-9.79795896504934,35.,2.00000002980232));
#2005=CARTESIAN_POINT('',(-4.89897948252467,0.,2.00000002980232));
#2006=CARTESIAN_POINT('Origin',(0.,35.,0.));
#2007=CARTESIAN_POINT('',(-2.00000002980232,0.,9.79795896504934));
#2008=CARTESIAN_POINT('',(-2.00000002980232,35.,9.79795896504934));
#2009=CARTESIAN_POINT('Origin',(0.,0.,0.));
#2010=CARTESIAN_POINT('Origin',(-2.00000002980232,35.,11.0000001639128));
#2011=CARTESIAN_POINT('',(-2.00000002980232,0.,5.50000008195639));
#2012=CARTESIAN_POINT('Origin',(1.00000001490116,35.,15.0000002235174));
#2013=CARTESIAN_POINT('',(1.00000001490116,0.,15.0000002235174));
#2014=CARTESIAN_POINT('',(1.00000001490116,35.,15.0000002235174));
#2015=CARTESIAN_POINT('',(1.00000001490116,0.,7.50000011175871));
#2016=CARTESIAN_POINT('Origin',(4.00000005960464,35.,15.0000002235174));
#2017=CARTESIAN_POINT('',(4.00000005960464,0.,15.0000002235174));
#2018=CARTESIAN_POINT('',(4.00000005960464,35.,15.0000002235174));
#2019=CARTESIAN_POINT('',(2.00000002980232,0.,15.0000002235174));
#2020=CARTESIAN_POINT('Origin',(4.00000005960464,35.,13.0000001937151));
#2021=CARTESIAN_POINT('',(4.00000005960464,0.,11.0000001639128));
#2022=CARTESIAN_POINT('',(4.00000005960464,35.,11.0000001639128));
#2023=CARTESIAN_POINT('Origin',(4.00000005960464,0.,13.0000001937151));
#2024=CARTESIAN_POINT('Origin',(2.00000002980232,35.,11.0000001639128));
#2025=CARTESIAN_POINT('',(2.00000002980232,0.,11.0000001639128));
#2026=CARTESIAN_POINT('',(2.00000002980232,35.,11.0000001639128));
#2027=CARTESIAN_POINT('',(1.00000001490116,0.,11.0000001639128));
#2028=CARTESIAN_POINT('Origin',(2.00000002980232,35.,9.79795896504934));
#2029=CARTESIAN_POINT('',(2.00000002980232,0.,9.79795896504934));
#2030=CARTESIAN_POINT('',(2.00000002980232,35.,9.79795896504934));
#2031=CARTESIAN_POINT('',(2.00000002980232,0.,4.89897948252467));
#2032=CARTESIAN_POINT('Origin',(0.,35.,0.));
#2033=CARTESIAN_POINT('Origin',(0.,0.,0.));
#2034=CARTESIAN_POINT('Origin',(15.0000002235174,35.,-1.00000001490116));
#2035=CARTESIAN_POINT('',(15.0000002235174,0.,-1.00000001490116));
#2036=CARTESIAN_POINT('',(15.0000002235174,35.,-1.00000001490116));
#2037=CARTESIAN_POINT('',(7.50000011175871,0.,-1.00000001490116));
#2038=CARTESIAN_POINT('Origin',(-18.0000002682209,35.,-1.00000001490117));
#2039=CARTESIAN_POINT('',(-15.0000002235174,0.,-1.00000001490117));
#2040=CARTESIAN_POINT('',(-9.00000013411045,0.,-1.00000001490117));
#2041=CARTESIAN_POINT('',(-15.0000002235174,35.,-1.00000001490117));
#2042=CARTESIAN_POINT('Origin',(-1.00000001490116,35.,-15.0000002235174));
#2043=CARTESIAN_POINT('',(-1.00000001490116,0.,-15.0000002235174));
#2044=CARTESIAN_POINT('',(-1.00000001490116,35.,-15.0000002235174));
#2045=CARTESIAN_POINT('',(-1.00000001490116,0.,-7.50000011175871));
#2046=CARTESIAN_POINT('Origin',(15.0000002235174,35.,-4.00000005960465));
#2047=CARTESIAN_POINT('',(15.0000002235174,0.,-4.00000005960465));
#2048=CARTESIAN_POINT('',(15.0000002235174,35.,-4.00000005960465));
#2049=CARTESIAN_POINT('',(15.0000002235174,0.,-2.00000002980232));
#2050=CARTESIAN_POINT('Origin',(0.,0.,0.));
#2051=CARTESIAN_POINT('',(25.,0.,-17.5));
#2052=CARTESIAN_POINT('',(17.5,0.,-25.));
#2053=CARTESIAN_POINT('Origin',(17.5,0.,-17.5));
#2054=CARTESIAN_POINT('',(25.,0.,17.5));
#2055=CARTESIAN_POINT('',(25.,0.,-25.));
#2056=CARTESIAN_POINT('',(17.5,0.,25.));
#2057=CARTESIAN_POINT('Origin',(17.5,0.,17.5));
#2058=CARTESIAN_POINT('',(-17.5,0.,25.));
#2059=CARTESIAN_POINT('',(25.,0.,25.));
#2060=CARTESIAN_POINT('',(-25.,0.,17.5));
#2061=CARTESIAN_POINT('Origin',(-17.5,0.,17.5));
#2062=CARTESIAN_POINT('',(-25.,0.,-17.5));
#2063=CARTESIAN_POINT('',(-25.,0.,25.));
#2064=CARTESIAN_POINT('',(-17.5,0.,-25.));
#2065=CARTESIAN_POINT('Origin',(-17.5,0.,-17.5));
#2066=CARTESIAN_POINT('',(-25.,0.,-25.));
#2067=CARTESIAN_POINT('',(11.0000001639128,0.,-4.00000005960465));
#2068=CARTESIAN_POINT('Origin',(13.0000001937151,0.,-4.00000005960465));
#2069=CARTESIAN_POINT('',(11.0000001639128,0.,-2.00000002980233));
#2070=CARTESIAN_POINT('',(11.0000001639128,0.,-1.00000001490116));
#2071=CARTESIAN_POINT('',(4.89897948252467,0.,-2.00000002980232));
#2072=CARTESIAN_POINT('',(-2.00000002980232,0.,-15.0000002235174));
#2073=CARTESIAN_POINT('',(-15.0000002235174,0.,2.00000002980232));
#2074=CARTESIAN_POINT('Origin',(-4.00000005960464,35.,-15.0000002235174));
#2075=CARTESIAN_POINT('Origin',(-15.0000002235174,35.,4.00000005960464));
#2076=CARTESIAN_POINT('Origin',(13.0000001937151,35.,-4.00000005960465));
#2077=CARTESIAN_POINT('',(11.0000001639128,35.,-4.00000005960465));
#2078=CARTESIAN_POINT('Origin',(11.0000001639128,35.,-2.00000002980233));
#2079=CARTESIAN_POINT('',(11.0000001639128,35.,-2.00000002980233));
#2080=CARTESIAN_POINT('Origin',(9.79795896504934,35.,-2.00000002980233));
#2081=CARTESIAN_POINT('Origin',(17.5,0.,-17.5));
#2082=CARTESIAN_POINT('',(17.5,35.,-25.));
#2083=CARTESIAN_POINT('',(25.,35.,-17.5));
#2084=CARTESIAN_POINT('Origin',(17.5,35.,-17.5));
#2085=CARTESIAN_POINT('',(25.,0.,-17.5));
#2086=CARTESIAN_POINT('',(17.5,0.,-25.));
#2087=CARTESIAN_POINT('Origin',(25.,0.,-25.));
#2088=CARTESIAN_POINT('',(-17.5,35.,-25.));
#2089=CARTESIAN_POINT('',(-17.5,0.,-25.));
#2090=CARTESIAN_POINT('',(-25.,35.,-25.));
#2091=CARTESIAN_POINT('Origin',(-17.5,0.,-17.5));
#2092=CARTESIAN_POINT('',(-25.,35.,-17.5));
#2093=CARTESIAN_POINT('Origin',(-17.5,35.,-17.5));
#2094=CARTESIAN_POINT('',(-25.,0.,-17.5));
#2095=CARTESIAN_POINT('Origin',(-25.,0.,-25.));
#2096=CARTESIAN_POINT('',(-25.,35.,17.5));
#2097=CARTESIAN_POINT('',(-25.,0.,17.5));
#2098=CARTESIAN_POINT('',(-25.,35.,25.));
#2099=CARTESIAN_POINT('Origin',(-17.5,0.,17.5));
#2100=CARTESIAN_POINT('',(-17.5,35.,25.));
#2101=CARTESIAN_POINT('Origin',(-17.5,35.,17.5));
#2102=CARTESIAN_POINT('',(-17.5,0.,25.));
#2103=CARTESIAN_POINT('Origin',(-25.,0.,25.));
#2104=CARTESIAN_POINT('',(17.5,35.,25.));
#2105=CARTESIAN_POINT('',(17.5,0.,25.));
#2106=CARTESIAN_POINT('',(25.,35.,25.));
#2107=CARTESIAN_POINT('Origin',(17.5,0.,17.5));
#2108=CARTESIAN_POINT('',(25.,35.,17.5));
#2109=CARTESIAN_POINT('Origin',(17.5,35.,17.5));
#2110=CARTESIAN_POINT('',(25.,0.,17.5));
#2111=CARTESIAN_POINT('Origin',(25.,0.,25.));
#2112=CARTESIAN_POINT('',(25.,35.,-25.));
#2113=CARTESIAN_POINT('Origin',(0.,35.,0.));
#2114=UNCERTAINTY_MEASURE_WITH_UNIT(LENGTH_MEASURE(0.01),#2118,
'DISTANCE_ACCURACY_VALUE',
'Maximum model space distance between geometric entities at asserted c
onnectivities');
#2115=UNCERTAINTY_MEASURE_WITH_UNIT(LENGTH_MEASURE(0.01),#2118,
'DISTANCE_ACCURACY_VALUE',
'Maximum model space distance between geometric entities at asserted c
onnectivities');
#2116=(
GEOMETRIC_REPRESENTATION_CONTEXT(3)
GLOBAL_UNCERTAINTY_ASSIGNED_CONTEXT((#2114))
GLOBAL_UNIT_ASSIGNED_CONTEXT((#2118,#2120,#2121))
REPRESENTATION_CONTEXT('','3D')
);
#2117=(
GEOMETRIC_REPRESENTATION_CONTEXT(3)
GLOBAL_UNCERTAINTY_ASSIGNED_CONTEXT((#2115))
GLOBAL_UNIT_ASSIGNED_CONTEXT((#2118,#2120,#2121))
REPRESENTATION_CONTEXT('','3D')
);
#2118=(
LENGTH_UNIT()
NAMED_UNIT(*)
SI_UNIT(.MILLI.,.METRE.)
);
#2119=(
LENGTH_UNIT()
NAMED_UNIT(*)
SI_UNIT($,.METRE.)
);
#2120=(
NAMED_UNIT(*)
PLANE_ANGLE_UNIT()
SI_UNIT($,.RADIAN.)
);
#2121=(
NAMED_UNIT(*)
SI_UNIT($,.STERADIAN.)
SOLID_ANGLE_UNIT()
);
#2122=SHAPE_DEFINITION_REPRESENTATION(#2123,#2124);
#2123=PRODUCT_DEFINITION_SHAPE('',$,#2126);
#2124=SHAPE_REPRESENTATION('',(#1267),#2116);
#2125=PRODUCT_DEFINITION_CONTEXT('part definition',#2130,'design');
#2126=PRODUCT_DEFINITION('(Unsaved)','(Unsaved)',#2127,#2125);
#2127=PRODUCT_DEFINITION_FORMATION('',$,#2132);
#2128=PRODUCT_RELATED_PRODUCT_CATEGORY('(Unsaved)','(Unsaved)',(#2132));
#2129=APPLICATION_PROTOCOL_DEFINITION('international standard',
'automotive_design',2009,#2130);
#2130=APPLICATION_CONTEXT(
'Core Data for Automotive Mechanical Design Process');
#2131=PRODUCT_CONTEXT('part definition',#2130,'mechanical');
#2132=PRODUCT('(Unsaved)','(Unsaved)',$,(#2131));
#2133=PRESENTATION_STYLE_ASSIGNMENT((#2134));
#2134=SURFACE_STYLE_USAGE(.BOTH.,#2135);
#2135=SURFACE_SIDE_STYLE('',(#2136));
#2136=SURFACE_STYLE_FILL_AREA(#2137);
#2137=FILL_AREA_STYLE('Steel - Satin',(#2138));
#2138=FILL_AREA_STYLE_COLOUR('Steel - Satin',#2139);
#2139=COLOUR_RGB('Steel - Satin',0.627450980392157,0.627450980392157,0.627450980392157);
ENDSEC;
END-ISO-10303-21;
