ISO-10303-21;
HEADER;
/* Generated by software containing ST-Developer
 * from STEP Tools, Inc. (www.steptools.com) 
 */

FILE_DESCRIPTION(
/* description */ (''),
/* implementation_level */ '2;1');

FILE_NAME(
/* name */ 'drilled_004.step',
/* time_stamp */ '2024-11-25T12:04:11+03:00',
/* author */ (''),
/* organization */ (''),
/* preprocessor_version */ 'ST-DEVELOPER v20',
/* originating_system */ 'Autodesk Translation Framework v13.14.0.145',

/* authorisation */ '');

FILE_SCHEMA (('AUTOMOTIVE_DESIGN { 1 0 10303 214 3 1 1 }'));
ENDSEC;

DATA;
#10=MECHANICAL_DESIGN_GEOMETRIC_PRESENTATION_REPRESENTATION('',(#13),#1143);
#11=SHAPE_REPRESENTATION_RELATIONSHIP('SRR','None',#1150,#12);
#12=ADVANCED_BREP_SHAPE_REPRESENTATION('',(#14),#1142);
#13=STYLED_ITEM('',(#1159),#14);
#14=MANIFOLD_SOLID_BREP('Body1',#667);
#15=FACE_BOUND('',#81,.T.);
#16=FACE_BOUND('',#92,.T.);
#17=PLANE('',#684);
#18=PLANE('',#689);
#19=PLANE('',#694);
#20=PLANE('',#699);
#21=PLANE('',#701);
#22=PLANE('',#702);
#23=PLANE('',#703);
#24=PLANE('',#704);
#25=PLANE('',#713);
#26=PLANE('',#716);
#27=PLANE('',#717);
#28=PLANE('',#722);
#29=PLANE('',#725);
#30=PLANE('',#726);
#31=PLANE('',#740);
#32=PLANE('',#742);
#33=PLANE('',#744);
#34=PLANE('',#746);
#35=FACE_OUTER_BOUND('',#69,.T.);
#36=FACE_OUTER_BOUND('',#70,.T.);
#37=FACE_OUTER_BOUND('',#71,.T.);
#38=FACE_OUTER_BOUND('',#72,.T.);
#39=FACE_OUTER_BOUND('',#73,.T.);
#40=FACE_OUTER_BOUND('',#74,.T.);
#41=FACE_OUTER_BOUND('',#75,.T.);
#42=FACE_OUTER_BOUND('',#76,.T.);
#43=FACE_OUTER_BOUND('',#77,.T.);
#44=FACE_OUTER_BOUND('',#78,.T.);
#45=FACE_OUTER_BOUND('',#79,.T.);
#46=FACE_OUTER_BOUND('',#80,.T.);
#47=FACE_OUTER_BOUND('',#82,.T.);
#48=FACE_OUTER_BOUND('',#83,.T.);
#49=FACE_OUTER_BOUND('',#84,.T.);
#50=FACE_OUTER_BOUND('',#85,.T.);
#51=FACE_OUTER_BOUND('',#86,.T.);
#52=FACE_OUTER_BOUND('',#87,.T.);
#53=FACE_OUTER_BOUND('',#88,.T.);
#54=FACE_OUTER_BOUND('',#89,.T.);
#55=FACE_OUTER_BOUND('',#90,.T.);
#56=FACE_OUTER_BOUND('',#91,.T.);
#57=FACE_OUTER_BOUND('',#93,.T.);
#58=FACE_OUTER_BOUND('',#94,.T.);
#59=FACE_OUTER_BOUND('',#95,.T.);
#60=FACE_OUTER_BOUND('',#96,.T.);
#61=FACE_OUTER_BOUND('',#97,.T.);
#62=FACE_OUTER_BOUND('',#98,.T.);
#63=FACE_OUTER_BOUND('',#99,.T.);
#64=FACE_OUTER_BOUND('',#100,.T.);
#65=FACE_OUTER_BOUND('',#101,.T.);
#66=FACE_OUTER_BOUND('',#102,.T.);
#67=FACE_OUTER_BOUND('',#103,.T.);
#68=FACE_OUTER_BOUND('',#104,.T.);
#69=EDGE_LOOP('',(#425,#426,#427,#428));
#70=EDGE_LOOP('',(#429,#430,#431,#432));
#71=EDGE_LOOP('',(#433,#434,#435,#436));
#72=EDGE_LOOP('',(#437,#438,#439,#440));
#73=EDGE_LOOP('',(#441,#442,#443,#444));
#74=EDGE_LOOP('',(#445,#446,#447,#448));
#75=EDGE_LOOP('',(#449,#450,#451,#452));
#76=EDGE_LOOP('',(#453,#454,#455,#456));
#77=EDGE_LOOP('',(#457,#458,#459,#460,#461,#462));
#78=EDGE_LOOP('',(#463,#464,#465,#466,#467,#468));
#79=EDGE_LOOP('',(#469,#470,#471,#472,#473,#474));
#80=EDGE_LOOP('',(#475,#476,#477,#478,#479,#480,#481,#482));
#81=EDGE_LOOP('',(#483,#484,#485,#486,#487,#488,#489,#490,#491,#492,#493,
#494,#495,#496,#497,#498));
#82=EDGE_LOOP('',(#499,#500,#501,#502,#503,#504));
#83=EDGE_LOOP('',(#505,#506,#507,#508));
#84=EDGE_LOOP('',(#509,#510,#511,#512,#513,#514));
#85=EDGE_LOOP('',(#515,#516,#517,#518,#519,#520));
#86=EDGE_LOOP('',(#521,#522,#523,#524));
#87=EDGE_LOOP('',(#525,#526,#527,#528));
#88=EDGE_LOOP('',(#529,#530,#531,#532,#533,#534));
#89=EDGE_LOOP('',(#535,#536,#537,#538));
#90=EDGE_LOOP('',(#539,#540,#541,#542,#543,#544));
#91=EDGE_LOOP('',(#545,#546,#547,#548,#549,#550,#551,#552));
#92=EDGE_LOOP('',(#553,#554,#555,#556,#557,#558,#559,#560,#561,#562,#563,
#564,#565,#566,#567,#568));
#93=EDGE_LOOP('',(#569,#570,#571,#572));
#94=EDGE_LOOP('',(#573,#574,#575,#576));
#95=EDGE_LOOP('',(#577,#578,#579,#580));
#96=EDGE_LOOP('',(#581,#582,#583,#584));
#97=EDGE_LOOP('',(#585,#586,#587,#588));
#98=EDGE_LOOP('',(#589,#590,#591,#592));
#99=EDGE_LOOP('',(#593,#594,#595,#596));
#100=EDGE_LOOP('',(#597,#598,#599,#600));
#101=EDGE_LOOP('',(#601,#602,#603,#604));
#102=EDGE_LOOP('',(#605,#606,#607,#608));
#103=EDGE_LOOP('',(#609,#610,#611,#612));
#104=EDGE_LOOP('',(#613,#614,#615,#616));
#105=LINE('',#951,#169);
#106=LINE('',#954,#170);
#107=LINE('',#957,#171);
#108=LINE('',#959,#172);
#109=LINE('',#966,#173);
#110=LINE('',#969,#174);
#111=LINE('',#972,#175);
#112=LINE('',#974,#176);
#113=LINE('',#981,#177);
#114=LINE('',#984,#178);
#115=LINE('',#987,#179);
#116=LINE('',#989,#180);
#117=LINE('',#996,#181);
#118=LINE('',#999,#182);
#119=LINE('',#1002,#183);
#120=LINE('',#1004,#184);
#121=LINE('',#1008,#185);
#122=LINE('',#1010,#186);
#123=LINE('',#1012,#187);
#124=LINE('',#1013,#188);
#125=LINE('',#1016,#189);
#126=LINE('',#1018,#190);
#127=LINE('',#1020,#191);
#128=LINE('',#1021,#192);
#129=LINE('',#1024,#193);
#130=LINE('',#1026,#194);
#131=LINE('',#1028,#195);
#132=LINE('',#1029,#196);
#133=LINE('',#1035,#197);
#134=LINE('',#1039,#198);
#135=LINE('',#1043,#199);
#136=LINE('',#1046,#200);
#137=LINE('',#1049,#201);
#138=LINE('',#1052,#202);
#139=LINE('',#1054,#203);
#140=LINE('',#1057,#204);
#141=LINE('',#1060,#205);
#142=LINE('',#1063,#206);
#143=LINE('',#1065,#207);
#144=LINE('',#1066,#208);
#145=LINE('',#1070,#209);
#146=LINE('',#1073,#210);
#147=LINE('',#1074,#211);
#148=LINE('',#1077,#212);
#149=LINE('',#1079,#213);
#150=LINE('',#1080,#214);
#151=LINE('',#1086,#215);
#152=LINE('',#1089,#216);
#153=LINE('',#1090,#217);
#154=LINE('',#1094,#218);
#155=LINE('',#1097,#219);
#156=LINE('',#1098,#220);
#157=LINE('',#1104,#221);
#158=LINE('',#1108,#222);
#159=LINE('',#1112,#223);
#160=LINE('',#1115,#224);
#161=LINE('',#1125,#225);
#162=LINE('',#1126,#226);
#163=LINE('',#1128,#227);
#164=LINE('',#1130,#228);
#165=LINE('',#1132,#229);
#166=LINE('',#1134,#230);
#167=LINE('',#1136,#231);
#168=LINE('',#1138,#232);
#169=VECTOR('',#753,10.);
#170=VECTOR('',#756,10.);
#171=VECTOR('',#759,10.);
#172=VECTOR('',#760,10.);
#173=VECTOR('',#767,10.);
#174=VECTOR('',#770,10.);
#175=VECTOR('',#773,10.);
#176=VECTOR('',#774,10.);
#177=VECTOR('',#781,10.);
#178=VECTOR('',#784,10.);
#179=VECTOR('',#787,10.);
#180=VECTOR('',#788,10.);
#181=VECTOR('',#795,10.);
#182=VECTOR('',#798,10.);
#183=VECTOR('',#801,10.);
#184=VECTOR('',#802,10.);
#185=VECTOR('',#807,10.);
#186=VECTOR('',#808,10.);
#187=VECTOR('',#809,10.);
#188=VECTOR('',#810,10.);
#189=VECTOR('',#813,10.);
#190=VECTOR('',#814,10.);
#191=VECTOR('',#815,10.);
#192=VECTOR('',#816,10.);
#193=VECTOR('',#819,10.);
#194=VECTOR('',#820,10.);
#195=VECTOR('',#821,10.);
#196=VECTOR('',#822,10.);
#197=VECTOR('',#827,10.);
#198=VECTOR('',#830,10.);
#199=VECTOR('',#833,10.);
#200=VECTOR('',#836,10.);
#201=VECTOR('',#839,10.);
#202=VECTOR('',#842,10.);
#203=VECTOR('',#843,10.);
#204=VECTOR('',#846,10.);
#205=VECTOR('',#849,10.);
#206=VECTOR('',#852,10.);
#207=VECTOR('',#853,10.);
#208=VECTOR('',#854,10.);
#209=VECTOR('',#859,10.);
#210=VECTOR('',#862,10.);
#211=VECTOR('',#863,10.);
#212=VECTOR('',#866,10.);
#213=VECTOR('',#867,10.);
#214=VECTOR('',#868,10.);
#215=VECTOR('',#877,10.);
#216=VECTOR('',#880,10.);
#217=VECTOR('',#881,10.);
#218=VECTOR('',#886,10.);
#219=VECTOR('',#889,10.);
#220=VECTOR('',#890,10.);
#221=VECTOR('',#895,10.);
#222=VECTOR('',#898,10.);
#223=VECTOR('',#901,10.);
#224=VECTOR('',#904,10.);
#225=VECTOR('',#923,10.);
#226=VECTOR('',#924,10.);
#227=VECTOR('',#927,10.);
#228=VECTOR('',#930,10.);
#229=VECTOR('',#933,10.);
#230=VECTOR('',#936,10.);
#231=VECTOR('',#939,10.);
#232=VECTOR('',#942,10.);
#233=CIRCLE('',#682,13.0000001937151);
#234=CIRCLE('',#683,13.0000001937151);
#235=CIRCLE('',#685,10.);
#236=CIRCLE('',#687,13.0000001937151);
#237=CIRCLE('',#688,13.0000001937151);
#238=CIRCLE('',#690,10.);
#239=CIRCLE('',#692,13.0000001937151);
#240=CIRCLE('',#693,13.0000001937151);
#241=CIRCLE('',#695,10.);
#242=CIRCLE('',#697,13.0000001937151);
#243=CIRCLE('',#698,13.0000001937151);
#244=CIRCLE('',#700,10.);
#245=CIRCLE('',#705,7.5);
#246=CIRCLE('',#706,7.5);
#247=CIRCLE('',#707,7.5);
#248=CIRCLE('',#708,7.5);
#249=CIRCLE('',#709,2.00000002980232);
#250=CIRCLE('',#710,2.00000002980232);
#251=CIRCLE('',#711,2.00000002980232);
#252=CIRCLE('',#712,2.00000002980232);
#253=CIRCLE('',#715,2.00000002980232);
#254=CIRCLE('',#719,2.00000002980232);
#255=CIRCLE('',#721,2.00000002980232);
#256=CIRCLE('',#724,2.00000002980232);
#257=CIRCLE('',#727,7.5);
#258=CIRCLE('',#728,7.5);
#259=CIRCLE('',#729,7.5);
#260=CIRCLE('',#730,7.5);
#261=CIRCLE('',#731,10.);
#262=CIRCLE('',#732,10.);
#263=CIRCLE('',#733,10.);
#264=CIRCLE('',#734,10.);
#265=VERTEX_POINT('',#947);
#266=VERTEX_POINT('',#948);
#267=VERTEX_POINT('',#950);
#268=VERTEX_POINT('',#952);
#269=VERTEX_POINT('',#956);
#270=VERTEX_POINT('',#958);
#271=VERTEX_POINT('',#962);
#272=VERTEX_POINT('',#963);
#273=VERTEX_POINT('',#965);
#274=VERTEX_POINT('',#967);
#275=VERTEX_POINT('',#971);
#276=VERTEX_POINT('',#973);
#277=VERTEX_POINT('',#977);
#278=VERTEX_POINT('',#978);
#279=VERTEX_POINT('',#980);
#280=VERTEX_POINT('',#982);
#281=VERTEX_POINT('',#986);
#282=VERTEX_POINT('',#988);
#283=VERTEX_POINT('',#992);
#284=VERTEX_POINT('',#993);
#285=VERTEX_POINT('',#995);
#286=VERTEX_POINT('',#997);
#287=VERTEX_POINT('',#1001);
#288=VERTEX_POINT('',#1003);
#289=VERTEX_POINT('',#1007);
#290=VERTEX_POINT('',#1009);
#291=VERTEX_POINT('',#1011);
#292=VERTEX_POINT('',#1015);
#293=VERTEX_POINT('',#1017);
#294=VERTEX_POINT('',#1019);
#295=VERTEX_POINT('',#1023);
#296=VERTEX_POINT('',#1025);
#297=VERTEX_POINT('',#1027);
#298=VERTEX_POINT('',#1031);
#299=VERTEX_POINT('',#1032);
#300=VERTEX_POINT('',#1034);
#301=VERTEX_POINT('',#1036);
#302=VERTEX_POINT('',#1038);
#303=VERTEX_POINT('',#1040);
#304=VERTEX_POINT('',#1042);
#305=VERTEX_POINT('',#1044);
#306=VERTEX_POINT('',#1047);
#307=VERTEX_POINT('',#1050);
#308=VERTEX_POINT('',#1053);
#309=VERTEX_POINT('',#1055);
#310=VERTEX_POINT('',#1058);
#311=VERTEX_POINT('',#1062);
#312=VERTEX_POINT('',#1064);
#313=VERTEX_POINT('',#1068);
#314=VERTEX_POINT('',#1072);
#315=VERTEX_POINT('',#1076);
#316=VERTEX_POINT('',#1078);
#317=VERTEX_POINT('',#1084);
#318=VERTEX_POINT('',#1088);
#319=VERTEX_POINT('',#1092);
#320=VERTEX_POINT('',#1096);
#321=VERTEX_POINT('',#1100);
#322=VERTEX_POINT('',#1101);
#323=VERTEX_POINT('',#1103);
#324=VERTEX_POINT('',#1105);
#325=VERTEX_POINT('',#1107);
#326=VERTEX_POINT('',#1109);
#327=VERTEX_POINT('',#1111);
#328=VERTEX_POINT('',#1113);
#329=EDGE_CURVE('',#265,#266,#233,.T.);
#330=EDGE_CURVE('',#267,#265,#105,.T.);
#331=EDGE_CURVE('',#267,#268,#234,.T.);
#332=EDGE_CURVE('',#266,#268,#106,.T.);
#333=EDGE_CURVE('',#268,#269,#107,.T.);
#334=EDGE_CURVE('',#270,#267,#108,.T.);
#335=EDGE_CURVE('',#269,#270,#235,.T.);
#336=EDGE_CURVE('',#271,#272,#236,.T.);
#337=EDGE_CURVE('',#273,#271,#109,.T.);
#338=EDGE_CURVE('',#273,#274,#237,.T.);
#339=EDGE_CURVE('',#272,#274,#110,.T.);
#340=EDGE_CURVE('',#274,#275,#111,.T.);
#341=EDGE_CURVE('',#276,#273,#112,.T.);
#342=EDGE_CURVE('',#275,#276,#238,.T.);
#343=EDGE_CURVE('',#277,#278,#239,.T.);
#344=EDGE_CURVE('',#279,#277,#113,.T.);
#345=EDGE_CURVE('',#279,#280,#240,.T.);
#346=EDGE_CURVE('',#278,#280,#114,.T.);
#347=EDGE_CURVE('',#280,#281,#115,.T.);
#348=EDGE_CURVE('',#282,#279,#116,.T.);
#349=EDGE_CURVE('',#281,#282,#241,.T.);
#350=EDGE_CURVE('',#283,#284,#242,.T.);
#351=EDGE_CURVE('',#285,#283,#117,.T.);
#352=EDGE_CURVE('',#285,#286,#243,.T.);
#353=EDGE_CURVE('',#284,#286,#118,.T.);
#354=EDGE_CURVE('',#286,#287,#119,.T.);
#355=EDGE_CURVE('',#288,#285,#120,.T.);
#356=EDGE_CURVE('',#287,#288,#244,.T.);
#357=EDGE_CURVE('',#289,#269,#121,.T.);
#358=EDGE_CURVE('',#290,#289,#122,.T.);
#359=EDGE_CURVE('',#291,#290,#123,.T.);
#360=EDGE_CURVE('',#266,#291,#124,.T.);
#361=EDGE_CURVE('',#292,#275,#125,.T.);
#362=EDGE_CURVE('',#293,#292,#126,.T.);
#363=EDGE_CURVE('',#294,#293,#127,.T.);
#364=EDGE_CURVE('',#272,#294,#128,.T.);
#365=EDGE_CURVE('',#295,#281,#129,.T.);
#366=EDGE_CURVE('',#296,#295,#130,.T.);
#367=EDGE_CURVE('',#297,#296,#131,.T.);
#368=EDGE_CURVE('',#278,#297,#132,.T.);
#369=EDGE_CURVE('',#298,#299,#245,.T.);
#370=EDGE_CURVE('',#298,#300,#133,.T.);
#371=EDGE_CURVE('',#301,#300,#246,.T.);
#372=EDGE_CURVE('',#301,#302,#134,.T.);
#373=EDGE_CURVE('',#303,#302,#247,.T.);
#374=EDGE_CURVE('',#303,#304,#135,.T.);
#375=EDGE_CURVE('',#305,#304,#248,.T.);
#376=EDGE_CURVE('',#305,#299,#136,.T.);
#377=EDGE_CURVE('',#291,#306,#249,.T.);
#378=EDGE_CURVE('',#306,#277,#137,.T.);
#379=EDGE_CURVE('',#297,#307,#250,.T.);
#380=EDGE_CURVE('',#307,#283,#138,.T.);
#381=EDGE_CURVE('',#284,#308,#139,.T.);
#382=EDGE_CURVE('',#308,#309,#251,.T.);
#383=EDGE_CURVE('',#309,#271,#140,.T.);
#384=EDGE_CURVE('',#294,#310,#252,.T.);
#385=EDGE_CURVE('',#310,#265,#141,.T.);
#386=EDGE_CURVE('',#311,#287,#142,.T.);
#387=EDGE_CURVE('',#312,#311,#143,.T.);
#388=EDGE_CURVE('',#308,#312,#144,.T.);
#389=EDGE_CURVE('',#313,#296,#253,.T.);
#390=EDGE_CURVE('',#307,#313,#145,.T.);
#391=EDGE_CURVE('',#314,#313,#146,.T.);
#392=EDGE_CURVE('',#288,#314,#147,.T.);
#393=EDGE_CURVE('',#310,#315,#148,.T.);
#394=EDGE_CURVE('',#316,#315,#149,.T.);
#395=EDGE_CURVE('',#270,#316,#150,.T.);
#396=EDGE_CURVE('',#315,#293,#254,.T.);
#397=EDGE_CURVE('',#317,#290,#255,.T.);
#398=EDGE_CURVE('',#306,#317,#151,.T.);
#399=EDGE_CURVE('',#318,#317,#152,.T.);
#400=EDGE_CURVE('',#282,#318,#153,.T.);
#401=EDGE_CURVE('',#319,#312,#256,.T.);
#402=EDGE_CURVE('',#309,#319,#154,.T.);
#403=EDGE_CURVE('',#320,#319,#155,.T.);
#404=EDGE_CURVE('',#276,#320,#156,.T.);
#405=EDGE_CURVE('',#321,#322,#257,.T.);
#406=EDGE_CURVE('',#321,#323,#157,.T.);
#407=EDGE_CURVE('',#324,#323,#258,.T.);
#408=EDGE_CURVE('',#324,#325,#158,.T.);
#409=EDGE_CURVE('',#326,#325,#259,.T.);
#410=EDGE_CURVE('',#326,#327,#159,.T.);
#411=EDGE_CURVE('',#328,#327,#260,.T.);
#412=EDGE_CURVE('',#328,#322,#160,.T.);
#413=EDGE_CURVE('',#295,#318,#261,.T.);
#414=EDGE_CURVE('',#289,#316,#262,.T.);
#415=EDGE_CURVE('',#292,#320,#263,.T.);
#416=EDGE_CURVE('',#311,#314,#264,.T.);
#417=EDGE_CURVE('',#299,#321,#161,.T.);
#418=EDGE_CURVE('',#322,#298,#162,.T.);
#419=EDGE_CURVE('',#300,#328,#163,.T.);
#420=EDGE_CURVE('',#327,#301,#164,.T.);
#421=EDGE_CURVE('',#302,#326,#165,.T.);
#422=EDGE_CURVE('',#325,#303,#166,.T.);
#423=EDGE_CURVE('',#304,#324,#167,.T.);
#424=EDGE_CURVE('',#323,#305,#168,.T.);
#425=ORIENTED_EDGE('',*,*,#329,.F.);
#426=ORIENTED_EDGE('',*,*,#330,.F.);
#427=ORIENTED_EDGE('',*,*,#331,.T.);
#428=ORIENTED_EDGE('',*,*,#332,.F.);
#429=ORIENTED_EDGE('',*,*,#333,.F.);
#430=ORIENTED_EDGE('',*,*,#331,.F.);
#431=ORIENTED_EDGE('',*,*,#334,.F.);
#432=ORIENTED_EDGE('',*,*,#335,.F.);
#433=ORIENTED_EDGE('',*,*,#336,.F.);
#434=ORIENTED_EDGE('',*,*,#337,.F.);
#435=ORIENTED_EDGE('',*,*,#338,.T.);
#436=ORIENTED_EDGE('',*,*,#339,.F.);
#437=ORIENTED_EDGE('',*,*,#340,.F.);
#438=ORIENTED_EDGE('',*,*,#338,.F.);
#439=ORIENTED_EDGE('',*,*,#341,.F.);
#440=ORIENTED_EDGE('',*,*,#342,.F.);
#441=ORIENTED_EDGE('',*,*,#343,.F.);
#442=ORIENTED_EDGE('',*,*,#344,.F.);
#443=ORIENTED_EDGE('',*,*,#345,.T.);
#444=ORIENTED_EDGE('',*,*,#346,.F.);
#445=ORIENTED_EDGE('',*,*,#347,.F.);
#446=ORIENTED_EDGE('',*,*,#345,.F.);
#447=ORIENTED_EDGE('',*,*,#348,.F.);
#448=ORIENTED_EDGE('',*,*,#349,.F.);
#449=ORIENTED_EDGE('',*,*,#350,.F.);
#450=ORIENTED_EDGE('',*,*,#351,.F.);
#451=ORIENTED_EDGE('',*,*,#352,.T.);
#452=ORIENTED_EDGE('',*,*,#353,.F.);
#453=ORIENTED_EDGE('',*,*,#354,.F.);
#454=ORIENTED_EDGE('',*,*,#352,.F.);
#455=ORIENTED_EDGE('',*,*,#355,.F.);
#456=ORIENTED_EDGE('',*,*,#356,.F.);
#457=ORIENTED_EDGE('',*,*,#332,.T.);
#458=ORIENTED_EDGE('',*,*,#333,.T.);
#459=ORIENTED_EDGE('',*,*,#357,.F.);
#460=ORIENTED_EDGE('',*,*,#358,.F.);
#461=ORIENTED_EDGE('',*,*,#359,.F.);
#462=ORIENTED_EDGE('',*,*,#360,.F.);
#463=ORIENTED_EDGE('',*,*,#339,.T.);
#464=ORIENTED_EDGE('',*,*,#340,.T.);
#465=ORIENTED_EDGE('',*,*,#361,.F.);
#466=ORIENTED_EDGE('',*,*,#362,.F.);
#467=ORIENTED_EDGE('',*,*,#363,.F.);
#468=ORIENTED_EDGE('',*,*,#364,.F.);
#469=ORIENTED_EDGE('',*,*,#346,.T.);
#470=ORIENTED_EDGE('',*,*,#347,.T.);
#471=ORIENTED_EDGE('',*,*,#365,.F.);
#472=ORIENTED_EDGE('',*,*,#366,.F.);
#473=ORIENTED_EDGE('',*,*,#367,.F.);
#474=ORIENTED_EDGE('',*,*,#368,.F.);
#475=ORIENTED_EDGE('',*,*,#369,.F.);
#476=ORIENTED_EDGE('',*,*,#370,.T.);
#477=ORIENTED_EDGE('',*,*,#371,.F.);
#478=ORIENTED_EDGE('',*,*,#372,.T.);
#479=ORIENTED_EDGE('',*,*,#373,.F.);
#480=ORIENTED_EDGE('',*,*,#374,.T.);
#481=ORIENTED_EDGE('',*,*,#375,.F.);
#482=ORIENTED_EDGE('',*,*,#376,.T.);
#483=ORIENTED_EDGE('',*,*,#329,.T.);
#484=ORIENTED_EDGE('',*,*,#360,.T.);
#485=ORIENTED_EDGE('',*,*,#377,.T.);
#486=ORIENTED_EDGE('',*,*,#378,.T.);
#487=ORIENTED_EDGE('',*,*,#343,.T.);
#488=ORIENTED_EDGE('',*,*,#368,.T.);
#489=ORIENTED_EDGE('',*,*,#379,.T.);
#490=ORIENTED_EDGE('',*,*,#380,.T.);
#491=ORIENTED_EDGE('',*,*,#350,.T.);
#492=ORIENTED_EDGE('',*,*,#381,.T.);
#493=ORIENTED_EDGE('',*,*,#382,.T.);
#494=ORIENTED_EDGE('',*,*,#383,.T.);
#495=ORIENTED_EDGE('',*,*,#336,.T.);
#496=ORIENTED_EDGE('',*,*,#364,.T.);
#497=ORIENTED_EDGE('',*,*,#384,.T.);
#498=ORIENTED_EDGE('',*,*,#385,.T.);
#499=ORIENTED_EDGE('',*,*,#353,.T.);
#500=ORIENTED_EDGE('',*,*,#354,.T.);
#501=ORIENTED_EDGE('',*,*,#386,.F.);
#502=ORIENTED_EDGE('',*,*,#387,.F.);
#503=ORIENTED_EDGE('',*,*,#388,.F.);
#504=ORIENTED_EDGE('',*,*,#381,.F.);
#505=ORIENTED_EDGE('',*,*,#389,.F.);
#506=ORIENTED_EDGE('',*,*,#390,.F.);
#507=ORIENTED_EDGE('',*,*,#379,.F.);
#508=ORIENTED_EDGE('',*,*,#367,.T.);
#509=ORIENTED_EDGE('',*,*,#351,.T.);
#510=ORIENTED_EDGE('',*,*,#380,.F.);
#511=ORIENTED_EDGE('',*,*,#390,.T.);
#512=ORIENTED_EDGE('',*,*,#391,.F.);
#513=ORIENTED_EDGE('',*,*,#392,.F.);
#514=ORIENTED_EDGE('',*,*,#355,.T.);
#515=ORIENTED_EDGE('',*,*,#330,.T.);
#516=ORIENTED_EDGE('',*,*,#385,.F.);
#517=ORIENTED_EDGE('',*,*,#393,.T.);
#518=ORIENTED_EDGE('',*,*,#394,.F.);
#519=ORIENTED_EDGE('',*,*,#395,.F.);
#520=ORIENTED_EDGE('',*,*,#334,.T.);
#521=ORIENTED_EDGE('',*,*,#396,.F.);
#522=ORIENTED_EDGE('',*,*,#393,.F.);
#523=ORIENTED_EDGE('',*,*,#384,.F.);
#524=ORIENTED_EDGE('',*,*,#363,.T.);
#525=ORIENTED_EDGE('',*,*,#397,.F.);
#526=ORIENTED_EDGE('',*,*,#398,.F.);
#527=ORIENTED_EDGE('',*,*,#377,.F.);
#528=ORIENTED_EDGE('',*,*,#359,.T.);
#529=ORIENTED_EDGE('',*,*,#344,.T.);
#530=ORIENTED_EDGE('',*,*,#378,.F.);
#531=ORIENTED_EDGE('',*,*,#398,.T.);
#532=ORIENTED_EDGE('',*,*,#399,.F.);
#533=ORIENTED_EDGE('',*,*,#400,.F.);
#534=ORIENTED_EDGE('',*,*,#348,.T.);
#535=ORIENTED_EDGE('',*,*,#401,.F.);
#536=ORIENTED_EDGE('',*,*,#402,.F.);
#537=ORIENTED_EDGE('',*,*,#382,.F.);
#538=ORIENTED_EDGE('',*,*,#388,.T.);
#539=ORIENTED_EDGE('',*,*,#337,.T.);
#540=ORIENTED_EDGE('',*,*,#383,.F.);
#541=ORIENTED_EDGE('',*,*,#402,.T.);
#542=ORIENTED_EDGE('',*,*,#403,.F.);
#543=ORIENTED_EDGE('',*,*,#404,.F.);
#544=ORIENTED_EDGE('',*,*,#341,.T.);
#545=ORIENTED_EDGE('',*,*,#405,.F.);
#546=ORIENTED_EDGE('',*,*,#406,.T.);
#547=ORIENTED_EDGE('',*,*,#407,.F.);
#548=ORIENTED_EDGE('',*,*,#408,.T.);
#549=ORIENTED_EDGE('',*,*,#409,.F.);
#550=ORIENTED_EDGE('',*,*,#410,.T.);
#551=ORIENTED_EDGE('',*,*,#411,.F.);
#552=ORIENTED_EDGE('',*,*,#412,.T.);
#553=ORIENTED_EDGE('',*,*,#391,.T.);
#554=ORIENTED_EDGE('',*,*,#389,.T.);
#555=ORIENTED_EDGE('',*,*,#366,.T.);
#556=ORIENTED_EDGE('',*,*,#413,.T.);
#557=ORIENTED_EDGE('',*,*,#399,.T.);
#558=ORIENTED_EDGE('',*,*,#397,.T.);
#559=ORIENTED_EDGE('',*,*,#358,.T.);
#560=ORIENTED_EDGE('',*,*,#414,.T.);
#561=ORIENTED_EDGE('',*,*,#394,.T.);
#562=ORIENTED_EDGE('',*,*,#396,.T.);
#563=ORIENTED_EDGE('',*,*,#362,.T.);
#564=ORIENTED_EDGE('',*,*,#415,.T.);
#565=ORIENTED_EDGE('',*,*,#403,.T.);
#566=ORIENTED_EDGE('',*,*,#401,.T.);
#567=ORIENTED_EDGE('',*,*,#387,.T.);
#568=ORIENTED_EDGE('',*,*,#416,.T.);
#569=ORIENTED_EDGE('',*,*,#335,.T.);
#570=ORIENTED_EDGE('',*,*,#395,.T.);
#571=ORIENTED_EDGE('',*,*,#414,.F.);
#572=ORIENTED_EDGE('',*,*,#357,.T.);
#573=ORIENTED_EDGE('',*,*,#342,.T.);
#574=ORIENTED_EDGE('',*,*,#404,.T.);
#575=ORIENTED_EDGE('',*,*,#415,.F.);
#576=ORIENTED_EDGE('',*,*,#361,.T.);
#577=ORIENTED_EDGE('',*,*,#349,.T.);
#578=ORIENTED_EDGE('',*,*,#400,.T.);
#579=ORIENTED_EDGE('',*,*,#413,.F.);
#580=ORIENTED_EDGE('',*,*,#365,.T.);
#581=ORIENTED_EDGE('',*,*,#356,.T.);
#582=ORIENTED_EDGE('',*,*,#392,.T.);
#583=ORIENTED_EDGE('',*,*,#416,.F.);
#584=ORIENTED_EDGE('',*,*,#386,.T.);
#585=ORIENTED_EDGE('',*,*,#369,.T.);
#586=ORIENTED_EDGE('',*,*,#417,.T.);
#587=ORIENTED_EDGE('',*,*,#405,.T.);
#588=ORIENTED_EDGE('',*,*,#418,.T.);
#589=ORIENTED_EDGE('',*,*,#418,.F.);
#590=ORIENTED_EDGE('',*,*,#412,.F.);
#591=ORIENTED_EDGE('',*,*,#419,.F.);
#592=ORIENTED_EDGE('',*,*,#370,.F.);
#593=ORIENTED_EDGE('',*,*,#371,.T.);
#594=ORIENTED_EDGE('',*,*,#419,.T.);
#595=ORIENTED_EDGE('',*,*,#411,.T.);
#596=ORIENTED_EDGE('',*,*,#420,.T.);
#597=ORIENTED_EDGE('',*,*,#420,.F.);
#598=ORIENTED_EDGE('',*,*,#410,.F.);
#599=ORIENTED_EDGE('',*,*,#421,.F.);
#600=ORIENTED_EDGE('',*,*,#372,.F.);
#601=ORIENTED_EDGE('',*,*,#373,.T.);
#602=ORIENTED_EDGE('',*,*,#421,.T.);
#603=ORIENTED_EDGE('',*,*,#409,.T.);
#604=ORIENTED_EDGE('',*,*,#422,.T.);
#605=ORIENTED_EDGE('',*,*,#422,.F.);
#606=ORIENTED_EDGE('',*,*,#408,.F.);
#607=ORIENTED_EDGE('',*,*,#423,.F.);
#608=ORIENTED_EDGE('',*,*,#374,.F.);
#609=ORIENTED_EDGE('',*,*,#375,.T.);
#610=ORIENTED_EDGE('',*,*,#423,.T.);
#611=ORIENTED_EDGE('',*,*,#407,.T.);
#612=ORIENTED_EDGE('',*,*,#424,.T.);
#613=ORIENTED_EDGE('',*,*,#417,.F.);
#614=ORIENTED_EDGE('',*,*,#376,.F.);
#615=ORIENTED_EDGE('',*,*,#424,.F.);
#616=ORIENTED_EDGE('',*,*,#406,.F.);
#617=CYLINDRICAL_SURFACE('',#681,13.0000001937151);
#618=CYLINDRICAL_SURFACE('',#686,13.0000001937151);
#619=CYLINDRICAL_SURFACE('',#691,13.0000001937151);
#620=CYLINDRICAL_SURFACE('',#696,13.0000001937151);
#621=CYLINDRICAL_SURFACE('',#714,2.00000002980232);
#622=CYLINDRICAL_SURFACE('',#718,2.00000002980232);
#623=CYLINDRICAL_SURFACE('',#720,2.00000002980232);
#624=CYLINDRICAL_SURFACE('',#723,2.00000002980232);
#625=CYLINDRICAL_SURFACE('',#735,10.);
#626=CYLINDRICAL_SURFACE('',#736,10.);
#627=CYLINDRICAL_SURFACE('',#737,10.);
#628=CYLINDRICAL_SURFACE('',#738,10.);
#629=CYLINDRICAL_SURFACE('',#739,7.5);
#630=CYLINDRICAL_SURFACE('',#741,7.5);
#631=CYLINDRICAL_SURFACE('',#743,7.5);
#632=CYLINDRICAL_SURFACE('',#745,7.5);
#633=ADVANCED_FACE('',(#35),#617,.F.);
#634=ADVANCED_FACE('',(#36),#17,.T.);
#635=ADVANCED_FACE('',(#37),#618,.F.);
#636=ADVANCED_FACE('',(#38),#18,.T.);
#637=ADVANCED_FACE('',(#39),#619,.F.);
#638=ADVANCED_FACE('',(#40),#19,.T.);
#639=ADVANCED_FACE('',(#41),#620,.F.);
#640=ADVANCED_FACE('',(#42),#20,.T.);
#641=ADVANCED_FACE('',(#43),#21,.F.);
#642=ADVANCED_FACE('',(#44),#22,.F.);
#643=ADVANCED_FACE('',(#45),#23,.F.);
#644=ADVANCED_FACE('',(#46,#15),#24,.T.);
#645=ADVANCED_FACE('',(#47),#25,.F.);
#646=ADVANCED_FACE('',(#48),#621,.F.);
#647=ADVANCED_FACE('',(#49),#26,.F.);
#648=ADVANCED_FACE('',(#50),#27,.F.);
#649=ADVANCED_FACE('',(#51),#622,.F.);
#650=ADVANCED_FACE('',(#52),#623,.F.);
#651=ADVANCED_FACE('',(#53),#28,.F.);
#652=ADVANCED_FACE('',(#54),#624,.F.);
#653=ADVANCED_FACE('',(#55),#29,.F.);
#654=ADVANCED_FACE('',(#56,#16),#30,.F.);
#655=ADVANCED_FACE('',(#57),#625,.F.);
#656=ADVANCED_FACE('',(#58),#626,.F.);
#657=ADVANCED_FACE('',(#59),#627,.F.);
#658=ADVANCED_FACE('',(#60),#628,.F.);
#659=ADVANCED_FACE('',(#61),#629,.T.);
#660=ADVANCED_FACE('',(#62),#31,.T.);
#661=ADVANCED_FACE('',(#63),#630,.T.);
#662=ADVANCED_FACE('',(#64),#32,.T.);
#663=ADVANCED_FACE('',(#65),#631,.T.);
#664=ADVANCED_FACE('',(#66),#33,.T.);
#665=ADVANCED_FACE('',(#67),#632,.T.);
#666=ADVANCED_FACE('',(#68),#34,.T.);
#667=CLOSED_SHELL('',(#633,#634,#635,#636,#637,#638,#639,#640,#641,#642,
#643,#644,#645,#646,#647,#648,#649,#650,#651,#652,#653,#654,#655,#656,#657,
#658,#659,#660,#661,#662,#663,#664,#665,#666));
#668=DERIVED_UNIT_ELEMENT(#670,1.);
#669=DERIVED_UNIT_ELEMENT(#1145,-3.);
#670=(
MASS_UNIT()
NAMED_UNIT(*)
SI_UNIT(.KILO.,.GRAM.)
);
#671=DERIVED_UNIT((#668,#669));
#672=MEASURE_REPRESENTATION_ITEM('density measure',
POSITIVE_RATIO_MEASURE(7850.),#671);
#673=PROPERTY_DEFINITION_REPRESENTATION(#678,#675);
#674=PROPERTY_DEFINITION_REPRESENTATION(#679,#676);
#675=REPRESENTATION('material name',(#677),#1142);
#676=REPRESENTATION('density',(#672),#1142);
#677=DESCRIPTIVE_REPRESENTATION_ITEM('Steel','Steel');
#678=PROPERTY_DEFINITION('material property','material name',#1152);
#679=PROPERTY_DEFINITION('material property','density of part',#1152);
#680=AXIS2_PLACEMENT_3D('',#945,#747,#748);
#681=AXIS2_PLACEMENT_3D('',#946,#749,#750);
#682=AXIS2_PLACEMENT_3D('',#949,#751,#752);
#683=AXIS2_PLACEMENT_3D('',#953,#754,#755);
#684=AXIS2_PLACEMENT_3D('',#955,#757,#758);
#685=AXIS2_PLACEMENT_3D('',#960,#761,#762);
#686=AXIS2_PLACEMENT_3D('',#961,#763,#764);
#687=AXIS2_PLACEMENT_3D('',#964,#765,#766);
#688=AXIS2_PLACEMENT_3D('',#968,#768,#769);
#689=AXIS2_PLACEMENT_3D('',#970,#771,#772);
#690=AXIS2_PLACEMENT_3D('',#975,#775,#776);
#691=AXIS2_PLACEMENT_3D('',#976,#777,#778);
#692=AXIS2_PLACEMENT_3D('',#979,#779,#780);
#693=AXIS2_PLACEMENT_3D('',#983,#782,#783);
#694=AXIS2_PLACEMENT_3D('',#985,#785,#786);
#695=AXIS2_PLACEMENT_3D('',#990,#789,#790);
#696=AXIS2_PLACEMENT_3D('',#991,#791,#792);
#697=AXIS2_PLACEMENT_3D('',#994,#793,#794);
#698=AXIS2_PLACEMENT_3D('',#998,#796,#797);
#699=AXIS2_PLACEMENT_3D('',#1000,#799,#800);
#700=AXIS2_PLACEMENT_3D('',#1005,#803,#804);
#701=AXIS2_PLACEMENT_3D('',#1006,#805,#806);
#702=AXIS2_PLACEMENT_3D('',#1014,#811,#812);
#703=AXIS2_PLACEMENT_3D('',#1022,#817,#818);
#704=AXIS2_PLACEMENT_3D('',#1030,#823,#824);
#705=AXIS2_PLACEMENT_3D('',#1033,#825,#826);
#706=AXIS2_PLACEMENT_3D('',#1037,#828,#829);
#707=AXIS2_PLACEMENT_3D('',#1041,#831,#832);
#708=AXIS2_PLACEMENT_3D('',#1045,#834,#835);
#709=AXIS2_PLACEMENT_3D('',#1048,#837,#838);
#710=AXIS2_PLACEMENT_3D('',#1051,#840,#841);
#711=AXIS2_PLACEMENT_3D('',#1056,#844,#845);
#712=AXIS2_PLACEMENT_3D('',#1059,#847,#848);
#713=AXIS2_PLACEMENT_3D('',#1061,#850,#851);
#714=AXIS2_PLACEMENT_3D('',#1067,#855,#856);
#715=AXIS2_PLACEMENT_3D('',#1069,#857,#858);
#716=AXIS2_PLACEMENT_3D('',#1071,#860,#861);
#717=AXIS2_PLACEMENT_3D('',#1075,#864,#865);
#718=AXIS2_PLACEMENT_3D('',#1081,#869,#870);
#719=AXIS2_PLACEMENT_3D('',#1082,#871,#872);
#720=AXIS2_PLACEMENT_3D('',#1083,#873,#874);
#721=AXIS2_PLACEMENT_3D('',#1085,#875,#876);
#722=AXIS2_PLACEMENT_3D('',#1087,#878,#879);
#723=AXIS2_PLACEMENT_3D('',#1091,#882,#883);
#724=AXIS2_PLACEMENT_3D('',#1093,#884,#885);
#725=AXIS2_PLACEMENT_3D('',#1095,#887,#888);
#726=AXIS2_PLACEMENT_3D('',#1099,#891,#892);
#727=AXIS2_PLACEMENT_3D('',#1102,#893,#894);
#728=AXIS2_PLACEMENT_3D('',#1106,#896,#897);
#729=AXIS2_PLACEMENT_3D('',#1110,#899,#900);
#730=AXIS2_PLACEMENT_3D('',#1114,#902,#903);
#731=AXIS2_PLACEMENT_3D('',#1116,#905,#906);
#732=AXIS2_PLACEMENT_3D('',#1117,#907,#908);
#733=AXIS2_PLACEMENT_3D('',#1118,#909,#910);
#734=AXIS2_PLACEMENT_3D('',#1119,#911,#912);
#735=AXIS2_PLACEMENT_3D('',#1120,#913,#914);
#736=AXIS2_PLACEMENT_3D('',#1121,#915,#916);
#737=AXIS2_PLACEMENT_3D('',#1122,#917,#918);
#738=AXIS2_PLACEMENT_3D('',#1123,#919,#920);
#739=AXIS2_PLACEMENT_3D('',#1124,#921,#922);
#740=AXIS2_PLACEMENT_3D('',#1127,#925,#926);
#741=AXIS2_PLACEMENT_3D('',#1129,#928,#929);
#742=AXIS2_PLACEMENT_3D('',#1131,#931,#932);
#743=AXIS2_PLACEMENT_3D('',#1133,#934,#935);
#744=AXIS2_PLACEMENT_3D('',#1135,#937,#938);
#745=AXIS2_PLACEMENT_3D('',#1137,#940,#941);
#746=AXIS2_PLACEMENT_3D('',#1139,#943,#944);
#747=DIRECTION('axis',(0.,0.,1.));
#748=DIRECTION('refdir',(1.,0.,0.));
#749=DIRECTION('center_axis',(0.,-1.,0.));
#750=DIRECTION('ref_axis',(-1.,0.,0.));
#751=DIRECTION('center_axis',(0.,-1.,0.));
#752=DIRECTION('ref_axis',(-1.,0.,0.));
#753=DIRECTION('',(0.,1.,0.));
#754=DIRECTION('center_axis',(0.,-1.,0.));
#755=DIRECTION('ref_axis',(-1.,0.,0.));
#756=DIRECTION('',(0.,-1.,0.));
#757=DIRECTION('center_axis',(0.,1.,0.));
#758=DIRECTION('ref_axis',(-1.,0.,0.));
#759=DIRECTION('',(1.38777876010193E-16,0.,-1.));
#760=DIRECTION('',(1.,0.,2.31296460016988E-16));
#761=DIRECTION('center_axis',(0.,1.,0.));
#762=DIRECTION('ref_axis',(-1.,0.,0.));
#763=DIRECTION('center_axis',(0.,-1.,0.));
#764=DIRECTION('ref_axis',(-1.,0.,0.));
#765=DIRECTION('center_axis',(0.,-1.,0.));
#766=DIRECTION('ref_axis',(-1.,0.,0.));
#767=DIRECTION('',(0.,1.,0.));
#768=DIRECTION('center_axis',(0.,-1.,0.));
#769=DIRECTION('ref_axis',(-1.,0.,0.));
#770=DIRECTION('',(0.,-1.,0.));
#771=DIRECTION('center_axis',(0.,1.,0.));
#772=DIRECTION('ref_axis',(-1.,0.,0.));
#773=DIRECTION('',(-1.,0.,-2.31296460016988E-16));
#774=DIRECTION('',(0.,0.,-1.));
#775=DIRECTION('center_axis',(0.,1.,0.));
#776=DIRECTION('ref_axis',(-1.,0.,0.));
#777=DIRECTION('center_axis',(0.,-1.,0.));
#778=DIRECTION('ref_axis',(-1.,0.,0.));
#779=DIRECTION('center_axis',(0.,-1.,0.));
#780=DIRECTION('ref_axis',(-1.,0.,0.));
#781=DIRECTION('',(0.,1.,0.));
#782=DIRECTION('center_axis',(0.,-1.,0.));
#783=DIRECTION('ref_axis',(-1.,0.,0.));
#784=DIRECTION('',(0.,-1.,0.));
#785=DIRECTION('center_axis',(0.,1.,0.));
#786=DIRECTION('ref_axis',(-1.,0.,0.));
#787=DIRECTION('',(1.,0.,-2.31296460016988E-16));
#788=DIRECTION('',(-1.38777876010193E-16,0.,1.));
#789=DIRECTION('center_axis',(0.,1.,0.));
#790=DIRECTION('ref_axis',(-1.,0.,0.));
#791=DIRECTION('center_axis',(0.,-1.,0.));
#792=DIRECTION('ref_axis',(-1.,0.,0.));
#793=DIRECTION('center_axis',(0.,-1.,0.));
#794=DIRECTION('ref_axis',(-1.,0.,0.));
#795=DIRECTION('',(0.,1.,0.));
#796=DIRECTION('center_axis',(0.,-1.,0.));
#797=DIRECTION('ref_axis',(-1.,0.,0.));
#798=DIRECTION('',(0.,-1.,0.));
#799=DIRECTION('center_axis',(0.,1.,0.));
#800=DIRECTION('ref_axis',(-1.,0.,0.));
#801=DIRECTION('',(0.,0.,1.));
#802=DIRECTION('',(-1.,0.,2.31296460016988E-16));
#803=DIRECTION('center_axis',(0.,1.,0.));
#804=DIRECTION('ref_axis',(-1.,0.,0.));
#805=DIRECTION('center_axis',(1.,0.,1.38777876010193E-16));
#806=DIRECTION('ref_axis',(-1.38777876010193E-16,0.,1.));
#807=DIRECTION('',(0.,1.,0.));
#808=DIRECTION('',(1.38777876010193E-16,0.,-1.));
#809=DIRECTION('',(0.,-1.,0.));
#810=DIRECTION('',(-1.38777876010193E-16,0.,1.));
#811=DIRECTION('center_axis',(2.31296460016988E-16,0.,-1.));
#812=DIRECTION('ref_axis',(1.,0.,2.31296460016988E-16));
#813=DIRECTION('',(0.,1.,0.));
#814=DIRECTION('',(-1.,0.,-2.31296460016988E-16));
#815=DIRECTION('',(0.,-1.,0.));
#816=DIRECTION('',(1.,0.,2.31296460016988E-16));
#817=DIRECTION('center_axis',(2.31296460016988E-16,0.,1.));
#818=DIRECTION('ref_axis',(-1.,0.,2.31296460016988E-16));
#819=DIRECTION('',(0.,1.,0.));
#820=DIRECTION('',(1.,0.,-2.31296460016988E-16));
#821=DIRECTION('',(0.,-1.,0.));
#822=DIRECTION('',(-1.,0.,2.31296460016988E-16));
#823=DIRECTION('center_axis',(0.,1.,0.));
#824=DIRECTION('ref_axis',(0.,0.,1.));
#825=DIRECTION('center_axis',(0.,-1.,0.));
#826=DIRECTION('ref_axis',(0.707106781186547,0.,-0.707106781186547));
#827=DIRECTION('',(-1.,0.,0.));
#828=DIRECTION('center_axis',(0.,-1.,0.));
#829=DIRECTION('ref_axis',(-0.707106781186547,0.,-0.707106781186547));
#830=DIRECTION('',(0.,0.,1.));
#831=DIRECTION('center_axis',(0.,-1.,0.));
#832=DIRECTION('ref_axis',(-0.707106781186547,0.,0.707106781186547));
#833=DIRECTION('',(1.,0.,0.));
#834=DIRECTION('center_axis',(0.,-1.,0.));
#835=DIRECTION('ref_axis',(0.707106781186547,0.,0.707106781186547));
#836=DIRECTION('',(0.,0.,-1.));
#837=DIRECTION('center_axis',(0.,-1.,0.));
#838=DIRECTION('ref_axis',(-1.,0.,0.));
#839=DIRECTION('',(1.38777876010193E-16,0.,-1.));
#840=DIRECTION('center_axis',(0.,-1.,0.));
#841=DIRECTION('ref_axis',(0.,0.,-1.));
#842=DIRECTION('',(1.,0.,-2.31296460016988E-16));
#843=DIRECTION('',(0.,0.,-1.));
#844=DIRECTION('center_axis',(0.,-1.,0.));
#845=DIRECTION('ref_axis',(1.,0.,0.));
#846=DIRECTION('',(0.,0.,1.));
#847=DIRECTION('center_axis',(0.,-1.,0.));
#848=DIRECTION('ref_axis',(0.,0.,1.));
#849=DIRECTION('',(-1.,0.,-2.31296460016988E-16));
#850=DIRECTION('center_axis',(-1.,0.,0.));
#851=DIRECTION('ref_axis',(0.,0.,-1.));
#852=DIRECTION('',(0.,1.,0.));
#853=DIRECTION('',(0.,0.,1.));
#854=DIRECTION('',(0.,-1.,0.));
#855=DIRECTION('center_axis',(0.,-1.,0.));
#856=DIRECTION('ref_axis',(0.,0.,-1.));
#857=DIRECTION('center_axis',(0.,1.,0.));
#858=DIRECTION('ref_axis',(0.,0.,-1.));
#859=DIRECTION('',(0.,-1.,0.));
#860=DIRECTION('center_axis',(-2.31296460016988E-16,0.,-1.));
#861=DIRECTION('ref_axis',(1.,0.,-2.31296460016988E-16));
#862=DIRECTION('',(-1.,0.,2.31296460016988E-16));
#863=DIRECTION('',(0.,-1.,0.));
#864=DIRECTION('center_axis',(-2.31296460016988E-16,0.,1.));
#865=DIRECTION('ref_axis',(-1.,0.,-2.31296460016988E-16));
#866=DIRECTION('',(0.,-1.,0.));
#867=DIRECTION('',(1.,0.,2.31296460016988E-16));
#868=DIRECTION('',(0.,-1.,0.));
#869=DIRECTION('center_axis',(0.,-1.,0.));
#870=DIRECTION('ref_axis',(0.,0.,1.));
#871=DIRECTION('center_axis',(0.,1.,0.));
#872=DIRECTION('ref_axis',(0.,0.,1.));
#873=DIRECTION('center_axis',(0.,-1.,0.));
#874=DIRECTION('ref_axis',(-1.,0.,0.));
#875=DIRECTION('center_axis',(0.,1.,0.));
#876=DIRECTION('ref_axis',(-1.,0.,0.));
#877=DIRECTION('',(0.,-1.,0.));
#878=DIRECTION('center_axis',(-1.,0.,-1.38777876010193E-16));
#879=DIRECTION('ref_axis',(1.38777876010193E-16,0.,-1.));
#880=DIRECTION('',(-1.38777876010193E-16,0.,1.));
#881=DIRECTION('',(0.,-1.,0.));
#882=DIRECTION('center_axis',(0.,-1.,0.));
#883=DIRECTION('ref_axis',(1.,0.,0.));
#884=DIRECTION('center_axis',(0.,1.,0.));
#885=DIRECTION('ref_axis',(1.,0.,0.));
#886=DIRECTION('',(0.,-1.,0.));
#887=DIRECTION('center_axis',(1.,0.,0.));
#888=DIRECTION('ref_axis',(0.,0.,1.));
#889=DIRECTION('',(0.,0.,-1.));
#890=DIRECTION('',(0.,-1.,0.));
#891=DIRECTION('center_axis',(0.,1.,0.));
#892=DIRECTION('ref_axis',(1.,0.,0.));
#893=DIRECTION('center_axis',(0.,1.,0.));
#894=DIRECTION('ref_axis',(0.707106781186547,0.,-0.707106781186547));
#895=DIRECTION('',(0.,0.,1.));
#896=DIRECTION('center_axis',(0.,1.,0.));
#897=DIRECTION('ref_axis',(0.707106781186547,0.,0.707106781186547));
#898=DIRECTION('',(-1.,0.,0.));
#899=DIRECTION('center_axis',(0.,1.,0.));
#900=DIRECTION('ref_axis',(-0.707106781186547,0.,0.707106781186547));
#901=DIRECTION('',(0.,0.,-1.));
#902=DIRECTION('center_axis',(0.,1.,0.));
#903=DIRECTION('ref_axis',(-0.707106781186547,0.,-0.707106781186547));
#904=DIRECTION('',(1.,0.,0.));
#905=DIRECTION('center_axis',(0.,1.,0.));
#906=DIRECTION('ref_axis',(-1.,0.,0.));
#907=DIRECTION('center_axis',(0.,1.,0.));
#908=DIRECTION('ref_axis',(-1.,0.,0.));
#909=DIRECTION('center_axis',(0.,1.,0.));
#910=DIRECTION('ref_axis',(-1.,0.,0.));
#911=DIRECTION('center_axis',(0.,1.,0.));
#912=DIRECTION('ref_axis',(-1.,0.,0.));
#913=DIRECTION('center_axis',(0.,-1.,0.));
#914=DIRECTION('ref_axis',(-1.,0.,0.));
#915=DIRECTION('center_axis',(0.,-1.,0.));
#916=DIRECTION('ref_axis',(-1.,0.,0.));
#917=DIRECTION('center_axis',(0.,-1.,0.));
#918=DIRECTION('ref_axis',(-1.,0.,0.));
#919=DIRECTION('center_axis',(0.,-1.,0.));
#920=DIRECTION('ref_axis',(-1.,0.,0.));
#921=DIRECTION('center_axis',(0.,1.,0.));
#922=DIRECTION('ref_axis',(0.707106781186547,0.,-0.707106781186547));
#923=DIRECTION('',(0.,-1.,0.));
#924=DIRECTION('',(0.,1.,0.));
#925=DIRECTION('center_axis',(0.,0.,-1.));
#926=DIRECTION('ref_axis',(-1.,0.,0.));
#927=DIRECTION('',(0.,-1.,0.));
#928=DIRECTION('center_axis',(0.,1.,0.));
#929=DIRECTION('ref_axis',(-0.707106781186547,0.,-0.707106781186547));
#930=DIRECTION('',(0.,1.,0.));
#931=DIRECTION('center_axis',(-1.,0.,0.));
#932=DIRECTION('ref_axis',(0.,0.,1.));
#933=DIRECTION('',(0.,-1.,0.));
#934=DIRECTION('center_axis',(0.,1.,0.));
#935=DIRECTION('ref_axis',(-0.707106781186547,0.,0.707106781186547));
#936=DIRECTION('',(0.,1.,0.));
#937=DIRECTION('center_axis',(0.,0.,1.));
#938=DIRECTION('ref_axis',(1.,0.,0.));
#939=DIRECTION('',(0.,-1.,0.));
#940=DIRECTION('center_axis',(0.,1.,0.));
#941=DIRECTION('ref_axis',(0.707106781186547,0.,0.707106781186547));
#942=DIRECTION('',(0.,1.,0.));
#943=DIRECTION('center_axis',(1.,0.,0.));
#944=DIRECTION('ref_axis',(0.,0.,-1.));
#945=CARTESIAN_POINT('',(0.,0.,0.));
#946=CARTESIAN_POINT('Origin',(0.,35.,0.));
#947=CARTESIAN_POINT('',(12.845232770074,35.,2.00000002980232));
#948=CARTESIAN_POINT('',(2.00000002980232,35.,12.845232770074));
#949=CARTESIAN_POINT('Origin',(0.,35.,0.));
#950=CARTESIAN_POINT('',(12.845232770074,20.,2.00000002980232));
#951=CARTESIAN_POINT('',(12.845232770074,35.,2.00000002980233));
#952=CARTESIAN_POINT('',(2.00000002980232,20.,12.845232770074));
#953=CARTESIAN_POINT('Origin',(0.,20.,0.));
#954=CARTESIAN_POINT('',(2.00000002980232,35.,12.845232770074));
#955=CARTESIAN_POINT('Origin',(7.42261639993816,20.,7.42261639993817));
#956=CARTESIAN_POINT('',(2.00000002980233,20.,9.79795896504934));
#957=CARTESIAN_POINT('',(2.00000002980232,20.,8.61028768249375));
#958=CARTESIAN_POINT('',(9.79795896504934,20.,2.00000002980233));
#959=CARTESIAN_POINT('',(11.2113083117278,20.,2.00000002980232));
#960=CARTESIAN_POINT('Origin',(0.,20.,0.));
#961=CARTESIAN_POINT('Origin',(0.,35.,0.));
#962=CARTESIAN_POINT('',(2.00000002980232,35.,-12.845232770074));
#963=CARTESIAN_POINT('',(12.845232770074,35.,-2.00000002980232));
#964=CARTESIAN_POINT('Origin',(0.,35.,0.));
#965=CARTESIAN_POINT('',(2.00000002980232,20.,-12.845232770074));
#966=CARTESIAN_POINT('',(2.00000002980232,35.,-12.845232770074));
#967=CARTESIAN_POINT('',(12.845232770074,20.,-2.00000002980232));
#968=CARTESIAN_POINT('Origin',(0.,20.,0.));
#969=CARTESIAN_POINT('',(12.845232770074,35.,-2.00000002980232));
#970=CARTESIAN_POINT('Origin',(7.42261639993817,20.,-7.42261639993816));
#971=CARTESIAN_POINT('',(9.79795896504934,20.,-2.00000002980232));
#972=CARTESIAN_POINT('',(8.61028768249375,20.,-2.00000002980232));
#973=CARTESIAN_POINT('',(2.00000002980232,20.,-9.79795896504933));
#974=CARTESIAN_POINT('',(2.00000002980232,20.,-11.2113083117278));
#975=CARTESIAN_POINT('Origin',(0.,20.,0.));
#976=CARTESIAN_POINT('Origin',(0.,35.,0.));
#977=CARTESIAN_POINT('',(-2.00000002980232,35.,12.845232770074));
#978=CARTESIAN_POINT('',(-12.845232770074,35.,2.00000002980232));
#979=CARTESIAN_POINT('Origin',(0.,35.,0.));
#980=CARTESIAN_POINT('',(-2.00000002980232,20.,12.845232770074));
#981=CARTESIAN_POINT('',(-2.00000002980232,35.,12.845232770074));
#982=CARTESIAN_POINT('',(-12.845232770074,20.,2.00000002980232));
#983=CARTESIAN_POINT('Origin',(0.,20.,0.));
#984=CARTESIAN_POINT('',(-12.845232770074,35.,2.00000002980233));
#985=CARTESIAN_POINT('Origin',(-7.42261639993817,20.,7.42261639993816));
#986=CARTESIAN_POINT('',(-9.79795896504934,20.,2.00000002980233));
#987=CARTESIAN_POINT('',(-8.61028768249375,20.,2.00000002980233));
#988=CARTESIAN_POINT('',(-2.00000002980233,20.,9.79795896504934));
#989=CARTESIAN_POINT('',(-2.00000002980232,20.,11.2113083117278));
#990=CARTESIAN_POINT('Origin',(0.,20.,0.));
#991=CARTESIAN_POINT('Origin',(0.,35.,0.));
#992=CARTESIAN_POINT('',(-12.845232770074,35.,-2.00000002980232));
#993=CARTESIAN_POINT('',(-2.00000002980232,35.,-12.845232770074));
#994=CARTESIAN_POINT('Origin',(0.,35.,0.));
#995=CARTESIAN_POINT('',(-12.845232770074,20.,-2.00000002980232));
#996=CARTESIAN_POINT('',(-12.845232770074,35.,-2.00000002980232));
#997=CARTESIAN_POINT('',(-2.00000002980232,20.,-12.845232770074));
#998=CARTESIAN_POINT('Origin',(0.,20.,0.));
#999=CARTESIAN_POINT('',(-2.00000002980232,35.,-12.845232770074));
#1000=CARTESIAN_POINT('Origin',(-7.42261639993817,20.,-7.42261639993817));
#1001=CARTESIAN_POINT('',(-2.00000002980232,20.,-9.79795896504934));
#1002=CARTESIAN_POINT('',(-2.00000002980232,20.,-8.61028768249375));
#1003=CARTESIAN_POINT('',(-9.79795896504934,20.,-2.00000002980232));
#1004=CARTESIAN_POINT('',(-11.2113083117278,20.,-2.00000002980232));
#1005=CARTESIAN_POINT('Origin',(0.,20.,0.));
#1006=CARTESIAN_POINT('Origin',(2.00000002980232,35.,9.79795896504934));
#1007=CARTESIAN_POINT('',(2.00000002980232,0.,9.79795896504934));
#1008=CARTESIAN_POINT('',(2.00000002980232,35.,9.79795896504934));
#1009=CARTESIAN_POINT('',(2.00000002980232,0.,15.0000002235174));
#1010=CARTESIAN_POINT('',(2.00000002980232,0.,4.89897948252467));
#1011=CARTESIAN_POINT('',(2.00000002980232,35.,15.0000002235174));
#1012=CARTESIAN_POINT('',(2.00000002980232,35.,15.0000002235174));
#1013=CARTESIAN_POINT('',(2.00000002980232,35.,4.89897948252467));
#1014=CARTESIAN_POINT('Origin',(9.79795896504934,35.,-2.00000002980232));
#1015=CARTESIAN_POINT('',(9.79795896504934,0.,-2.00000002980232));
#1016=CARTESIAN_POINT('',(9.79795896504934,35.,-2.00000002980232));
#1017=CARTESIAN_POINT('',(15.0000002235174,0.,-2.00000002980232));
#1018=CARTESIAN_POINT('',(4.89897948252467,0.,-2.00000002980232));
#1019=CARTESIAN_POINT('',(15.0000002235174,35.,-2.00000002980232));
#1020=CARTESIAN_POINT('',(15.0000002235174,35.,-2.00000002980232));
#1021=CARTESIAN_POINT('',(4.89897948252467,35.,-2.00000002980232));
#1022=CARTESIAN_POINT('Origin',(-9.79795896504934,35.,2.00000002980233));
#1023=CARTESIAN_POINT('',(-9.79795896504934,0.,2.00000002980233));
#1024=CARTESIAN_POINT('',(-9.79795896504934,35.,2.00000002980233));
#1025=CARTESIAN_POINT('',(-15.0000002235174,0.,2.00000002980233));
#1026=CARTESIAN_POINT('',(-4.89897948252467,0.,2.00000002980232));
#1027=CARTESIAN_POINT('',(-15.0000002235174,35.,2.00000002980233));
#1028=CARTESIAN_POINT('',(-15.0000002235174,35.,2.00000002980233));
#1029=CARTESIAN_POINT('',(-4.89897948252467,35.,2.00000002980232));
#1030=CARTESIAN_POINT('Origin',(0.,35.,0.));
#1031=CARTESIAN_POINT('',(17.5,35.,-25.));
#1032=CARTESIAN_POINT('',(25.,35.,-17.5));
#1033=CARTESIAN_POINT('Origin',(17.5,35.,-17.5));
#1034=CARTESIAN_POINT('',(-17.5,35.,-25.));
#1035=CARTESIAN_POINT('',(-25.,35.,-25.));
#1036=CARTESIAN_POINT('',(-25.,35.,-17.5));
#1037=CARTESIAN_POINT('Origin',(-17.5,35.,-17.5));
#1038=CARTESIAN_POINT('',(-25.,35.,17.5));
#1039=CARTESIAN_POINT('',(-25.,35.,25.));
#1040=CARTESIAN_POINT('',(-17.5,35.,25.));
#1041=CARTESIAN_POINT('Origin',(-17.5,35.,17.5));
#1042=CARTESIAN_POINT('',(17.5,35.,25.));
#1043=CARTESIAN_POINT('',(25.,35.,25.));
#1044=CARTESIAN_POINT('',(25.,35.,17.5));
#1045=CARTESIAN_POINT('Origin',(17.5,35.,17.5));
#1046=CARTESIAN_POINT('',(25.,35.,-25.));
#1047=CARTESIAN_POINT('',(-2.00000002980232,35.,15.0000002235174));
#1048=CARTESIAN_POINT('Origin',(-1.83697022609402E-15,35.,15.0000002235174));
#1049=CARTESIAN_POINT('',(-2.00000002980232,35.,7.50000011175871));
#1050=CARTESIAN_POINT('',(-15.0000002235174,35.,-2.00000002980232));
#1051=CARTESIAN_POINT('Origin',(-15.0000002235174,35.,3.33066912350631E-15));
#1052=CARTESIAN_POINT('',(-7.50000011175871,35.,-2.00000002980232));
#1053=CARTESIAN_POINT('',(-2.00000002980232,35.,-15.0000002235174));
#1054=CARTESIAN_POINT('',(-2.00000002980232,35.,-4.89897948252467));
#1055=CARTESIAN_POINT('',(2.00000002980232,35.,-15.0000002235174));
#1056=CARTESIAN_POINT('Origin',(0.,35.,-15.0000002235174));
#1057=CARTESIAN_POINT('',(2.00000002980232,35.,-7.50000011175871));
#1058=CARTESIAN_POINT('',(15.0000002235174,35.,2.00000002980233));
#1059=CARTESIAN_POINT('Origin',(15.0000002235174,35.,3.33066912350631E-15));
#1060=CARTESIAN_POINT('',(7.50000011175871,35.,2.00000002980232));
#1061=CARTESIAN_POINT('Origin',(-2.00000002980232,35.,-9.79795896504934));
#1062=CARTESIAN_POINT('',(-2.00000002980232,0.,-9.79795896504934));
#1063=CARTESIAN_POINT('',(-2.00000002980232,35.,-9.79795896504934));
#1064=CARTESIAN_POINT('',(-2.00000002980232,0.,-15.0000002235174));
#1065=CARTESIAN_POINT('',(-2.00000002980232,0.,-4.89897948252467));
#1066=CARTESIAN_POINT('',(-2.00000002980232,35.,-15.0000002235174));
#1067=CARTESIAN_POINT('Origin',(-15.0000002235174,35.,3.33066912350631E-15));
#1068=CARTESIAN_POINT('',(-15.0000002235174,0.,-2.00000002980232));
#1069=CARTESIAN_POINT('Origin',(-15.0000002235174,0.,3.33066912350631E-15));
#1070=CARTESIAN_POINT('',(-15.0000002235174,35.,-2.00000002980232));
#1071=CARTESIAN_POINT('Origin',(-15.0000002235174,35.,-2.00000002980232));
#1072=CARTESIAN_POINT('',(-9.79795896504934,0.,-2.00000002980232));
#1073=CARTESIAN_POINT('',(-7.50000011175871,0.,-2.00000002980232));
#1074=CARTESIAN_POINT('',(-9.79795896504934,35.,-2.00000002980232));
#1075=CARTESIAN_POINT('Origin',(15.0000002235174,35.,2.00000002980233));
#1076=CARTESIAN_POINT('',(15.0000002235174,0.,2.00000002980233));
#1077=CARTESIAN_POINT('',(15.0000002235174,35.,2.00000002980233));
#1078=CARTESIAN_POINT('',(9.79795896504934,0.,2.00000002980232));
#1079=CARTESIAN_POINT('',(7.50000011175871,0.,2.00000002980232));
#1080=CARTESIAN_POINT('',(9.79795896504934,35.,2.00000002980232));
#1081=CARTESIAN_POINT('Origin',(15.0000002235174,35.,3.33066912350631E-15));
#1082=CARTESIAN_POINT('Origin',(15.0000002235174,0.,3.33066912350631E-15));
#1083=CARTESIAN_POINT('Origin',(-1.83697022609402E-15,35.,15.0000002235174));
#1084=CARTESIAN_POINT('',(-2.00000002980232,0.,15.0000002235174));
#1085=CARTESIAN_POINT('Origin',(-1.83697022609402E-15,0.,15.0000002235174));
#1086=CARTESIAN_POINT('',(-2.00000002980232,35.,15.0000002235174));
#1087=CARTESIAN_POINT('Origin',(-2.00000002980232,35.,15.0000002235174));
#1088=CARTESIAN_POINT('',(-2.00000002980232,0.,9.79795896504934));
#1089=CARTESIAN_POINT('',(-2.00000002980232,0.,7.50000011175871));
#1090=CARTESIAN_POINT('',(-2.00000002980232,35.,9.79795896504934));
#1091=CARTESIAN_POINT('Origin',(0.,35.,-15.0000002235174));
#1092=CARTESIAN_POINT('',(2.00000002980232,0.,-15.0000002235174));
#1093=CARTESIAN_POINT('Origin',(0.,0.,-15.0000002235174));
#1094=CARTESIAN_POINT('',(2.00000002980232,35.,-15.0000002235174));
#1095=CARTESIAN_POINT('Origin',(2.00000002980232,35.,-15.0000002235174));
#1096=CARTESIAN_POINT('',(2.00000002980232,0.,-9.79795896504934));
#1097=CARTESIAN_POINT('',(2.00000002980232,0.,-7.50000011175871));
#1098=CARTESIAN_POINT('',(2.00000002980232,35.,-9.79795896504934));
#1099=CARTESIAN_POINT('Origin',(0.,0.,0.));
#1100=CARTESIAN_POINT('',(25.,0.,-17.5));
#1101=CARTESIAN_POINT('',(17.5,0.,-25.));
#1102=CARTESIAN_POINT('Origin',(17.5,0.,-17.5));
#1103=CARTESIAN_POINT('',(25.,0.,17.5));
#1104=CARTESIAN_POINT('',(25.,0.,-25.));
#1105=CARTESIAN_POINT('',(17.5,0.,25.));
#1106=CARTESIAN_POINT('Origin',(17.5,0.,17.5));
#1107=CARTESIAN_POINT('',(-17.5,0.,25.));
#1108=CARTESIAN_POINT('',(25.,0.,25.));
#1109=CARTESIAN_POINT('',(-25.,0.,17.5));
#1110=CARTESIAN_POINT('Origin',(-17.5,0.,17.5));
#1111=CARTESIAN_POINT('',(-25.,0.,-17.5));
#1112=CARTESIAN_POINT('',(-25.,0.,25.));
#1113=CARTESIAN_POINT('',(-17.5,0.,-25.));
#1114=CARTESIAN_POINT('Origin',(-17.5,0.,-17.5));
#1115=CARTESIAN_POINT('',(-25.,0.,-25.));
#1116=CARTESIAN_POINT('Origin',(0.,0.,0.));
#1117=CARTESIAN_POINT('Origin',(0.,0.,0.));
#1118=CARTESIAN_POINT('Origin',(0.,0.,0.));
#1119=CARTESIAN_POINT('Origin',(0.,0.,0.));
#1120=CARTESIAN_POINT('Origin',(0.,35.,0.));
#1121=CARTESIAN_POINT('Origin',(0.,35.,0.));
#1122=CARTESIAN_POINT('Origin',(0.,35.,0.));
#1123=CARTESIAN_POINT('Origin',(0.,35.,0.));
#1124=CARTESIAN_POINT('Origin',(17.5,0.,-17.5));
#1125=CARTESIAN_POINT('',(25.,0.,-17.5));
#1126=CARTESIAN_POINT('',(17.5,0.,-25.));
#1127=CARTESIAN_POINT('Origin',(25.,0.,-25.));
#1128=CARTESIAN_POINT('',(-17.5,0.,-25.));
#1129=CARTESIAN_POINT('Origin',(-17.5,0.,-17.5));
#1130=CARTESIAN_POINT('',(-25.,0.,-17.5));
#1131=CARTESIAN_POINT('Origin',(-25.,0.,-25.));
#1132=CARTESIAN_POINT('',(-25.,0.,17.5));
#1133=CARTESIAN_POINT('Origin',(-17.5,0.,17.5));
#1134=CARTESIAN_POINT('',(-17.5,0.,25.));
#1135=CARTESIAN_POINT('Origin',(-25.,0.,25.));
#1136=CARTESIAN_POINT('',(17.5,0.,25.));
#1137=CARTESIAN_POINT('Origin',(17.5,0.,17.5));
#1138=CARTESIAN_POINT('',(25.,0.,17.5));
#1139=CARTESIAN_POINT('Origin',(25.,0.,25.));
#1140=UNCERTAINTY_MEASURE_WITH_UNIT(LENGTH_MEASURE(0.01),#1144,
'DISTANCE_ACCURACY_VALUE',
'Maximum model space distance between geometric entities at asserted c
onnectivities');
#1141=UNCERTAINTY_MEASURE_WITH_UNIT(LENGTH_MEASURE(0.01),#1144,
'DISTANCE_ACCURACY_VALUE',
'Maximum model space distance between geometric entities at asserted c
onnectivities');
#1142=(
GEOMETRIC_REPRESENTATION_CONTEXT(3)
GLOBAL_UNCERTAINTY_ASSIGNED_CONTEXT((#1140))
GLOBAL_UNIT_ASSIGNED_CONTEXT((#1144,#1146,#1147))
REPRESENTATION_CONTEXT('','3D')
);
#1143=(
GEOMETRIC_REPRESENTATION_CONTEXT(3)
GLOBAL_UNCERTAINTY_ASSIGNED_CONTEXT((#1141))
GLOBAL_UNIT_ASSIGNED_CONTEXT((#1144,#1146,#1147))
REPRESENTATION_CONTEXT('','3D')
);
#1144=(
LENGTH_UNIT()
NAMED_UNIT(*)
SI_UNIT(.MILLI.,.METRE.)
);
#1145=(
LENGTH_UNIT()
NAMED_UNIT(*)
SI_UNIT($,.METRE.)
);
#1146=(
NAMED_UNIT(*)
PLANE_ANGLE_UNIT()
SI_UNIT($,.RADIAN.)
);
#1147=(
NAMED_UNIT(*)
SI_UNIT($,.STERADIAN.)
SOLID_ANGLE_UNIT()
);
#1148=SHAPE_DEFINITION_REPRESENTATION(#1149,#1150);
#1149=PRODUCT_DEFINITION_SHAPE('',$,#1152);
#1150=SHAPE_REPRESENTATION('',(#680),#1142);
#1151=PRODUCT_DEFINITION_CONTEXT('part definition',#1156,'design');
#1152=PRODUCT_DEFINITION('(Unsaved)','(Unsaved)',#1153,#1151);
#1153=PRODUCT_DEFINITION_FORMATION('',$,#1158);
#1154=PRODUCT_RELATED_PRODUCT_CATEGORY('(Unsaved)','(Unsaved)',(#1158));
#1155=APPLICATION_PROTOCOL_DEFINITION('international standard',
'automotive_design',2009,#1156);
#1156=APPLICATION_CONTEXT(
'Core Data for Automotive Mechanical Design Process');
#1157=PRODUCT_CONTEXT('part definition',#1156,'mechanical');
#1158=PRODUCT('(Unsaved)','(Unsaved)',$,(#1157));
#1159=PRESENTATION_STYLE_ASSIGNMENT((#1160));
#1160=SURFACE_STYLE_USAGE(.BOTH.,#1161);
#1161=SURFACE_SIDE_STYLE('',(#1162));
#1162=SURFACE_STYLE_FILL_AREA(#1163);
#1163=FILL_AREA_STYLE('Steel - Satin',(#1164));
#1164=FILL_AREA_STYLE_COLOUR('Steel - Satin',#1165);
#1165=COLOUR_RGB('Steel - Satin',0.627450980392157,0.627450980392157,0.627450980392157);
ENDSEC;
END-ISO-10303-21;
