ISO-10303-21;
HEADER;
/* Generated by software containing ST-Developer
 * from STEP Tools, Inc. (www.steptools.com) 
 */

FILE_DESCRIPTION(
/* description */ (''),
/* implementation_level */ '2;1');

FILE_NAME(
/* name */ 'drilled_002.step',
/* time_stamp */ '2024-11-25T12:01:39+03:00',
/* author */ (''),
/* organization */ (''),
/* preprocessor_version */ 'ST-DEVELOPER v20',
/* originating_system */ 'Autodesk Translation Framework v13.14.0.145',

/* authorisation */ '');

FILE_SCHEMA (('AUTOMOTIVE_DESIGN { 1 0 10303 214 3 1 1 }'));
ENDSEC;

DATA;
#10=MECHANICAL_DESIGN_GEOMETRIC_PRESENTATION_REPRESENTATION('',(#13),#1007);
#11=SHAPE_REPRESENTATION_RELATIONSHIP('SRR','None',#1014,#12);
#12=ADVANCED_BREP_SHAPE_REPRESENTATION('',(#14),#1006);
#13=STYLED_ITEM('',(#1023),#14);
#14=MANIFOLD_SOLID_BREP('Body1',#587);
#15=FACE_BOUND('',#79,.T.);
#16=FACE_BOUND('',#94,.T.);
#17=PLANE('',#604);
#18=PLANE('',#605);
#19=PLANE('',#609);
#20=PLANE('',#610);
#21=PLANE('',#614);
#22=PLANE('',#615);
#23=PLANE('',#619);
#24=PLANE('',#620);
#25=PLANE('',#624);
#26=PLANE('',#625);
#27=PLANE('',#626);
#28=PLANE('',#648);
#29=PLANE('',#651);
#30=PLANE('',#654);
#31=PLANE('',#657);
#32=PLANE('',#658);
#33=FACE_OUTER_BOUND('',#63,.T.);
#34=FACE_OUTER_BOUND('',#64,.T.);
#35=FACE_OUTER_BOUND('',#65,.T.);
#36=FACE_OUTER_BOUND('',#66,.T.);
#37=FACE_OUTER_BOUND('',#67,.T.);
#38=FACE_OUTER_BOUND('',#68,.T.);
#39=FACE_OUTER_BOUND('',#69,.T.);
#40=FACE_OUTER_BOUND('',#70,.T.);
#41=FACE_OUTER_BOUND('',#71,.T.);
#42=FACE_OUTER_BOUND('',#72,.T.);
#43=FACE_OUTER_BOUND('',#73,.T.);
#44=FACE_OUTER_BOUND('',#74,.T.);
#45=FACE_OUTER_BOUND('',#75,.T.);
#46=FACE_OUTER_BOUND('',#76,.T.);
#47=FACE_OUTER_BOUND('',#77,.T.);
#48=FACE_OUTER_BOUND('',#78,.T.);
#49=FACE_OUTER_BOUND('',#80,.T.);
#50=FACE_OUTER_BOUND('',#81,.T.);
#51=FACE_OUTER_BOUND('',#82,.T.);
#52=FACE_OUTER_BOUND('',#83,.T.);
#53=FACE_OUTER_BOUND('',#84,.T.);
#54=FACE_OUTER_BOUND('',#85,.T.);
#55=FACE_OUTER_BOUND('',#86,.T.);
#56=FACE_OUTER_BOUND('',#87,.T.);
#57=FACE_OUTER_BOUND('',#88,.T.);
#58=FACE_OUTER_BOUND('',#89,.T.);
#59=FACE_OUTER_BOUND('',#90,.T.);
#60=FACE_OUTER_BOUND('',#91,.T.);
#61=FACE_OUTER_BOUND('',#92,.T.);
#62=FACE_OUTER_BOUND('',#93,.T.);
#63=EDGE_LOOP('',(#375,#376,#377,#378));
#64=EDGE_LOOP('',(#379,#380,#381,#382));
#65=EDGE_LOOP('',(#383,#384,#385,#386));
#66=EDGE_LOOP('',(#387,#388,#389,#390));
#67=EDGE_LOOP('',(#391,#392,#393,#394));
#68=EDGE_LOOP('',(#395,#396,#397,#398));
#69=EDGE_LOOP('',(#399,#400,#401,#402));
#70=EDGE_LOOP('',(#403,#404,#405,#406));
#71=EDGE_LOOP('',(#407,#408,#409,#410));
#72=EDGE_LOOP('',(#411,#412,#413,#414));
#73=EDGE_LOOP('',(#415,#416,#417,#418));
#74=EDGE_LOOP('',(#419,#420,#421,#422));
#75=EDGE_LOOP('',(#423,#424,#425,#426));
#76=EDGE_LOOP('',(#427,#428,#429,#430));
#77=EDGE_LOOP('',(#431,#432,#433,#434));
#78=EDGE_LOOP('',(#435,#436,#437,#438,#439,#440,#441,#442));
#79=EDGE_LOOP('',(#443,#444,#445,#446,#447,#448,#449,#450,#451,#452,#453,
#454,#455,#456,#457,#458,#459,#460,#461,#462));
#80=EDGE_LOOP('',(#463,#464,#465,#466));
#81=EDGE_LOOP('',(#467,#468,#469,#470));
#82=EDGE_LOOP('',(#471,#472,#473,#474));
#83=EDGE_LOOP('',(#475,#476,#477,#478));
#84=EDGE_LOOP('',(#479,#480,#481,#482));
#85=EDGE_LOOP('',(#483,#484,#485,#486));
#86=EDGE_LOOP('',(#487,#488,#489,#490));
#87=EDGE_LOOP('',(#491,#492,#493,#494));
#88=EDGE_LOOP('',(#495,#496,#497,#498));
#89=EDGE_LOOP('',(#499,#500,#501,#502));
#90=EDGE_LOOP('',(#503,#504,#505,#506));
#91=EDGE_LOOP('',(#507,#508,#509,#510));
#92=EDGE_LOOP('',(#511,#512,#513,#514));
#93=EDGE_LOOP('',(#515,#516,#517,#518,#519,#520,#521,#522));
#94=EDGE_LOOP('',(#523,#524,#525,#526,#527,#528,#529,#530,#531,#532,#533,
#534,#535,#536,#537,#538,#539,#540,#541,#542));
#95=LINE('',#839,#151);
#96=LINE('',#842,#152);
#97=LINE('',#845,#153);
#98=LINE('',#847,#154);
#99=LINE('',#848,#155);
#100=LINE('',#851,#156);
#101=LINE('',#853,#157);
#102=LINE('',#854,#158);
#103=LINE('',#860,#159);
#104=LINE('',#863,#160);
#105=LINE('',#866,#161);
#106=LINE('',#868,#162);
#107=LINE('',#869,#163);
#108=LINE('',#872,#164);
#109=LINE('',#874,#165);
#110=LINE('',#875,#166);
#111=LINE('',#881,#167);
#112=LINE('',#884,#168);
#113=LINE('',#887,#169);
#114=LINE('',#889,#170);
#115=LINE('',#890,#171);
#116=LINE('',#893,#172);
#117=LINE('',#895,#173);
#118=LINE('',#896,#174);
#119=LINE('',#902,#175);
#120=LINE('',#905,#176);
#121=LINE('',#908,#177);
#122=LINE('',#910,#178);
#123=LINE('',#911,#179);
#124=LINE('',#914,#180);
#125=LINE('',#916,#181);
#126=LINE('',#917,#182);
#127=LINE('',#923,#183);
#128=LINE('',#926,#184);
#129=LINE('',#929,#185);
#130=LINE('',#931,#186);
#131=LINE('',#932,#187);
#132=LINE('',#935,#188);
#133=LINE('',#937,#189);
#134=LINE('',#938,#190);
#135=LINE('',#944,#191);
#136=LINE('',#948,#192);
#137=LINE('',#952,#193);
#138=LINE('',#955,#194);
#139=LINE('',#975,#195);
#140=LINE('',#976,#196);
#141=LINE('',#979,#197);
#142=LINE('',#980,#198);
#143=LINE('',#984,#199);
#144=LINE('',#987,#200);
#145=LINE('',#988,#201);
#146=LINE('',#992,#202);
#147=LINE('',#995,#203);
#148=LINE('',#996,#204);
#149=LINE('',#1000,#205);
#150=LINE('',#1002,#206);
#151=VECTOR('',#665,10.);
#152=VECTOR('',#668,10.);
#153=VECTOR('',#671,10.);
#154=VECTOR('',#672,10.);
#155=VECTOR('',#673,10.);
#156=VECTOR('',#676,10.);
#157=VECTOR('',#677,10.);
#158=VECTOR('',#678,10.);
#159=VECTOR('',#683,10.);
#160=VECTOR('',#686,10.);
#161=VECTOR('',#689,10.);
#162=VECTOR('',#690,10.);
#163=VECTOR('',#691,10.);
#164=VECTOR('',#694,10.);
#165=VECTOR('',#695,10.);
#166=VECTOR('',#696,10.);
#167=VECTOR('',#701,10.);
#168=VECTOR('',#704,10.);
#169=VECTOR('',#707,10.);
#170=VECTOR('',#708,10.);
#171=VECTOR('',#709,10.);
#172=VECTOR('',#712,10.);
#173=VECTOR('',#713,10.);
#174=VECTOR('',#714,10.);
#175=VECTOR('',#719,10.);
#176=VECTOR('',#722,10.);
#177=VECTOR('',#725,10.);
#178=VECTOR('',#726,10.);
#179=VECTOR('',#727,10.);
#180=VECTOR('',#730,10.);
#181=VECTOR('',#731,10.);
#182=VECTOR('',#732,10.);
#183=VECTOR('',#737,10.);
#184=VECTOR('',#740,10.);
#185=VECTOR('',#743,10.);
#186=VECTOR('',#744,10.);
#187=VECTOR('',#745,10.);
#188=VECTOR('',#748,10.);
#189=VECTOR('',#749,10.);
#190=VECTOR('',#750,10.);
#191=VECTOR('',#755,10.);
#192=VECTOR('',#758,10.);
#193=VECTOR('',#761,10.);
#194=VECTOR('',#764,10.);
#195=VECTOR('',#799,10.);
#196=VECTOR('',#800,10.);
#197=VECTOR('',#803,10.);
#198=VECTOR('',#804,10.);
#199=VECTOR('',#809,10.);
#200=VECTOR('',#812,10.);
#201=VECTOR('',#813,10.);
#202=VECTOR('',#818,10.);
#203=VECTOR('',#821,10.);
#204=VECTOR('',#822,10.);
#205=VECTOR('',#827,10.);
#206=VECTOR('',#830,10.);
#207=CIRCLE('',#602,2.00000002980232);
#208=CIRCLE('',#603,2.00000002980232);
#209=CIRCLE('',#607,2.00000002980232);
#210=CIRCLE('',#608,2.00000002980232);
#211=CIRCLE('',#612,2.00000002980232);
#212=CIRCLE('',#613,2.00000002980232);
#213=CIRCLE('',#617,2.00000002980232);
#214=CIRCLE('',#618,2.00000002980232);
#215=CIRCLE('',#622,2.00000002980232);
#216=CIRCLE('',#623,2.00000002980232);
#217=CIRCLE('',#627,7.5);
#218=CIRCLE('',#628,7.5);
#219=CIRCLE('',#629,7.5);
#220=CIRCLE('',#630,7.5);
#221=CIRCLE('',#631,10.);
#222=CIRCLE('',#632,10.);
#223=CIRCLE('',#633,10.);
#224=CIRCLE('',#634,10.);
#225=CIRCLE('',#635,10.);
#226=CIRCLE('',#637,10.);
#227=CIRCLE('',#639,10.);
#228=CIRCLE('',#641,10.);
#229=CIRCLE('',#643,10.);
#230=CIRCLE('',#645,10.);
#231=CIRCLE('',#647,7.5);
#232=CIRCLE('',#650,7.5);
#233=CIRCLE('',#653,7.5);
#234=CIRCLE('',#656,7.5);
#235=VERTEX_POINT('',#835);
#236=VERTEX_POINT('',#836);
#237=VERTEX_POINT('',#838);
#238=VERTEX_POINT('',#840);
#239=VERTEX_POINT('',#844);
#240=VERTEX_POINT('',#846);
#241=VERTEX_POINT('',#850);
#242=VERTEX_POINT('',#852);
#243=VERTEX_POINT('',#856);
#244=VERTEX_POINT('',#857);
#245=VERTEX_POINT('',#859);
#246=VERTEX_POINT('',#861);
#247=VERTEX_POINT('',#865);
#248=VERTEX_POINT('',#867);
#249=VERTEX_POINT('',#871);
#250=VERTEX_POINT('',#873);
#251=VERTEX_POINT('',#877);
#252=VERTEX_POINT('',#878);
#253=VERTEX_POINT('',#880);
#254=VERTEX_POINT('',#882);
#255=VERTEX_POINT('',#886);
#256=VERTEX_POINT('',#888);
#257=VERTEX_POINT('',#892);
#258=VERTEX_POINT('',#894);
#259=VERTEX_POINT('',#898);
#260=VERTEX_POINT('',#899);
#261=VERTEX_POINT('',#901);
#262=VERTEX_POINT('',#903);
#263=VERTEX_POINT('',#907);
#264=VERTEX_POINT('',#909);
#265=VERTEX_POINT('',#913);
#266=VERTEX_POINT('',#915);
#267=VERTEX_POINT('',#919);
#268=VERTEX_POINT('',#920);
#269=VERTEX_POINT('',#922);
#270=VERTEX_POINT('',#924);
#271=VERTEX_POINT('',#928);
#272=VERTEX_POINT('',#930);
#273=VERTEX_POINT('',#934);
#274=VERTEX_POINT('',#936);
#275=VERTEX_POINT('',#940);
#276=VERTEX_POINT('',#941);
#277=VERTEX_POINT('',#943);
#278=VERTEX_POINT('',#945);
#279=VERTEX_POINT('',#947);
#280=VERTEX_POINT('',#949);
#281=VERTEX_POINT('',#951);
#282=VERTEX_POINT('',#953);
#283=VERTEX_POINT('',#972);
#284=VERTEX_POINT('',#973);
#285=VERTEX_POINT('',#978);
#286=VERTEX_POINT('',#982);
#287=VERTEX_POINT('',#986);
#288=VERTEX_POINT('',#990);
#289=VERTEX_POINT('',#994);
#290=VERTEX_POINT('',#998);
#291=EDGE_CURVE('',#235,#236,#207,.T.);
#292=EDGE_CURVE('',#237,#235,#95,.T.);
#293=EDGE_CURVE('',#238,#237,#208,.T.);
#294=EDGE_CURVE('',#238,#236,#96,.T.);
#295=EDGE_CURVE('',#236,#239,#97,.T.);
#296=EDGE_CURVE('',#240,#238,#98,.T.);
#297=EDGE_CURVE('',#239,#240,#99,.T.);
#298=EDGE_CURVE('',#241,#235,#100,.T.);
#299=EDGE_CURVE('',#242,#241,#101,.T.);
#300=EDGE_CURVE('',#237,#242,#102,.T.);
#301=EDGE_CURVE('',#243,#244,#209,.T.);
#302=EDGE_CURVE('',#245,#243,#103,.T.);
#303=EDGE_CURVE('',#246,#245,#210,.T.);
#304=EDGE_CURVE('',#246,#244,#104,.T.);
#305=EDGE_CURVE('',#244,#247,#105,.T.);
#306=EDGE_CURVE('',#248,#246,#106,.T.);
#307=EDGE_CURVE('',#247,#248,#107,.T.);
#308=EDGE_CURVE('',#249,#243,#108,.T.);
#309=EDGE_CURVE('',#250,#249,#109,.T.);
#310=EDGE_CURVE('',#245,#250,#110,.T.);
#311=EDGE_CURVE('',#251,#252,#211,.T.);
#312=EDGE_CURVE('',#253,#251,#111,.T.);
#313=EDGE_CURVE('',#254,#253,#212,.T.);
#314=EDGE_CURVE('',#254,#252,#112,.T.);
#315=EDGE_CURVE('',#252,#255,#113,.T.);
#316=EDGE_CURVE('',#256,#254,#114,.T.);
#317=EDGE_CURVE('',#255,#256,#115,.T.);
#318=EDGE_CURVE('',#257,#251,#116,.T.);
#319=EDGE_CURVE('',#258,#257,#117,.T.);
#320=EDGE_CURVE('',#253,#258,#118,.T.);
#321=EDGE_CURVE('',#259,#260,#213,.T.);
#322=EDGE_CURVE('',#261,#259,#119,.T.);
#323=EDGE_CURVE('',#262,#261,#214,.T.);
#324=EDGE_CURVE('',#262,#260,#120,.T.);
#325=EDGE_CURVE('',#260,#263,#121,.T.);
#326=EDGE_CURVE('',#264,#262,#122,.T.);
#327=EDGE_CURVE('',#263,#264,#123,.T.);
#328=EDGE_CURVE('',#265,#259,#124,.T.);
#329=EDGE_CURVE('',#266,#265,#125,.T.);
#330=EDGE_CURVE('',#261,#266,#126,.T.);
#331=EDGE_CURVE('',#267,#268,#215,.T.);
#332=EDGE_CURVE('',#269,#267,#127,.T.);
#333=EDGE_CURVE('',#270,#269,#216,.T.);
#334=EDGE_CURVE('',#270,#268,#128,.T.);
#335=EDGE_CURVE('',#268,#271,#129,.T.);
#336=EDGE_CURVE('',#272,#270,#130,.T.);
#337=EDGE_CURVE('',#271,#272,#131,.T.);
#338=EDGE_CURVE('',#273,#267,#132,.T.);
#339=EDGE_CURVE('',#274,#273,#133,.T.);
#340=EDGE_CURVE('',#269,#274,#134,.T.);
#341=EDGE_CURVE('',#275,#276,#217,.T.);
#342=EDGE_CURVE('',#275,#277,#135,.T.);
#343=EDGE_CURVE('',#278,#277,#218,.T.);
#344=EDGE_CURVE('',#278,#279,#136,.T.);
#345=EDGE_CURVE('',#280,#279,#219,.T.);
#346=EDGE_CURVE('',#280,#281,#137,.T.);
#347=EDGE_CURVE('',#282,#281,#220,.T.);
#348=EDGE_CURVE('',#282,#276,#138,.T.);
#349=EDGE_CURVE('',#239,#257,#221,.T.);
#350=EDGE_CURVE('',#255,#273,#222,.T.);
#351=EDGE_CURVE('',#271,#265,#223,.T.);
#352=EDGE_CURVE('',#263,#249,#224,.T.);
#353=EDGE_CURVE('',#247,#241,#225,.T.);
#354=EDGE_CURVE('',#266,#272,#226,.T.);
#355=EDGE_CURVE('',#274,#256,#227,.T.);
#356=EDGE_CURVE('',#250,#264,#228,.T.);
#357=EDGE_CURVE('',#258,#240,#229,.T.);
#358=EDGE_CURVE('',#242,#248,#230,.T.);
#359=EDGE_CURVE('',#283,#284,#231,.T.);
#360=EDGE_CURVE('',#284,#275,#139,.T.);
#361=EDGE_CURVE('',#276,#283,#140,.T.);
#362=EDGE_CURVE('',#285,#282,#141,.T.);
#363=EDGE_CURVE('',#283,#285,#142,.T.);
#364=EDGE_CURVE('',#286,#285,#232,.T.);
#365=EDGE_CURVE('',#281,#286,#143,.T.);
#366=EDGE_CURVE('',#287,#280,#144,.T.);
#367=EDGE_CURVE('',#286,#287,#145,.T.);
#368=EDGE_CURVE('',#288,#287,#233,.T.);
#369=EDGE_CURVE('',#279,#288,#146,.T.);
#370=EDGE_CURVE('',#289,#278,#147,.T.);
#371=EDGE_CURVE('',#288,#289,#148,.T.);
#372=EDGE_CURVE('',#290,#289,#234,.T.);
#373=EDGE_CURVE('',#277,#290,#149,.T.);
#374=EDGE_CURVE('',#290,#284,#150,.T.);
#375=ORIENTED_EDGE('',*,*,#291,.F.);
#376=ORIENTED_EDGE('',*,*,#292,.F.);
#377=ORIENTED_EDGE('',*,*,#293,.F.);
#378=ORIENTED_EDGE('',*,*,#294,.T.);
#379=ORIENTED_EDGE('',*,*,#295,.F.);
#380=ORIENTED_EDGE('',*,*,#294,.F.);
#381=ORIENTED_EDGE('',*,*,#296,.F.);
#382=ORIENTED_EDGE('',*,*,#297,.F.);
#383=ORIENTED_EDGE('',*,*,#298,.F.);
#384=ORIENTED_EDGE('',*,*,#299,.F.);
#385=ORIENTED_EDGE('',*,*,#300,.F.);
#386=ORIENTED_EDGE('',*,*,#292,.T.);
#387=ORIENTED_EDGE('',*,*,#301,.F.);
#388=ORIENTED_EDGE('',*,*,#302,.F.);
#389=ORIENTED_EDGE('',*,*,#303,.F.);
#390=ORIENTED_EDGE('',*,*,#304,.T.);
#391=ORIENTED_EDGE('',*,*,#305,.F.);
#392=ORIENTED_EDGE('',*,*,#304,.F.);
#393=ORIENTED_EDGE('',*,*,#306,.F.);
#394=ORIENTED_EDGE('',*,*,#307,.F.);
#395=ORIENTED_EDGE('',*,*,#308,.F.);
#396=ORIENTED_EDGE('',*,*,#309,.F.);
#397=ORIENTED_EDGE('',*,*,#310,.F.);
#398=ORIENTED_EDGE('',*,*,#302,.T.);
#399=ORIENTED_EDGE('',*,*,#311,.F.);
#400=ORIENTED_EDGE('',*,*,#312,.F.);
#401=ORIENTED_EDGE('',*,*,#313,.F.);
#402=ORIENTED_EDGE('',*,*,#314,.T.);
#403=ORIENTED_EDGE('',*,*,#315,.F.);
#404=ORIENTED_EDGE('',*,*,#314,.F.);
#405=ORIENTED_EDGE('',*,*,#316,.F.);
#406=ORIENTED_EDGE('',*,*,#317,.F.);
#407=ORIENTED_EDGE('',*,*,#318,.F.);
#408=ORIENTED_EDGE('',*,*,#319,.F.);
#409=ORIENTED_EDGE('',*,*,#320,.F.);
#410=ORIENTED_EDGE('',*,*,#312,.T.);
#411=ORIENTED_EDGE('',*,*,#321,.F.);
#412=ORIENTED_EDGE('',*,*,#322,.F.);
#413=ORIENTED_EDGE('',*,*,#323,.F.);
#414=ORIENTED_EDGE('',*,*,#324,.T.);
#415=ORIENTED_EDGE('',*,*,#325,.F.);
#416=ORIENTED_EDGE('',*,*,#324,.F.);
#417=ORIENTED_EDGE('',*,*,#326,.F.);
#418=ORIENTED_EDGE('',*,*,#327,.F.);
#419=ORIENTED_EDGE('',*,*,#328,.F.);
#420=ORIENTED_EDGE('',*,*,#329,.F.);
#421=ORIENTED_EDGE('',*,*,#330,.F.);
#422=ORIENTED_EDGE('',*,*,#322,.T.);
#423=ORIENTED_EDGE('',*,*,#331,.F.);
#424=ORIENTED_EDGE('',*,*,#332,.F.);
#425=ORIENTED_EDGE('',*,*,#333,.F.);
#426=ORIENTED_EDGE('',*,*,#334,.T.);
#427=ORIENTED_EDGE('',*,*,#335,.F.);
#428=ORIENTED_EDGE('',*,*,#334,.F.);
#429=ORIENTED_EDGE('',*,*,#336,.F.);
#430=ORIENTED_EDGE('',*,*,#337,.F.);
#431=ORIENTED_EDGE('',*,*,#338,.F.);
#432=ORIENTED_EDGE('',*,*,#339,.F.);
#433=ORIENTED_EDGE('',*,*,#340,.F.);
#434=ORIENTED_EDGE('',*,*,#332,.T.);
#435=ORIENTED_EDGE('',*,*,#341,.F.);
#436=ORIENTED_EDGE('',*,*,#342,.T.);
#437=ORIENTED_EDGE('',*,*,#343,.F.);
#438=ORIENTED_EDGE('',*,*,#344,.T.);
#439=ORIENTED_EDGE('',*,*,#345,.F.);
#440=ORIENTED_EDGE('',*,*,#346,.T.);
#441=ORIENTED_EDGE('',*,*,#347,.F.);
#442=ORIENTED_EDGE('',*,*,#348,.T.);
#443=ORIENTED_EDGE('',*,*,#298,.T.);
#444=ORIENTED_EDGE('',*,*,#291,.T.);
#445=ORIENTED_EDGE('',*,*,#295,.T.);
#446=ORIENTED_EDGE('',*,*,#349,.T.);
#447=ORIENTED_EDGE('',*,*,#318,.T.);
#448=ORIENTED_EDGE('',*,*,#311,.T.);
#449=ORIENTED_EDGE('',*,*,#315,.T.);
#450=ORIENTED_EDGE('',*,*,#350,.T.);
#451=ORIENTED_EDGE('',*,*,#338,.T.);
#452=ORIENTED_EDGE('',*,*,#331,.T.);
#453=ORIENTED_EDGE('',*,*,#335,.T.);
#454=ORIENTED_EDGE('',*,*,#351,.T.);
#455=ORIENTED_EDGE('',*,*,#328,.T.);
#456=ORIENTED_EDGE('',*,*,#321,.T.);
#457=ORIENTED_EDGE('',*,*,#325,.T.);
#458=ORIENTED_EDGE('',*,*,#352,.T.);
#459=ORIENTED_EDGE('',*,*,#308,.T.);
#460=ORIENTED_EDGE('',*,*,#301,.T.);
#461=ORIENTED_EDGE('',*,*,#305,.T.);
#462=ORIENTED_EDGE('',*,*,#353,.T.);
#463=ORIENTED_EDGE('',*,*,#329,.T.);
#464=ORIENTED_EDGE('',*,*,#351,.F.);
#465=ORIENTED_EDGE('',*,*,#337,.T.);
#466=ORIENTED_EDGE('',*,*,#354,.F.);
#467=ORIENTED_EDGE('',*,*,#317,.T.);
#468=ORIENTED_EDGE('',*,*,#355,.F.);
#469=ORIENTED_EDGE('',*,*,#339,.T.);
#470=ORIENTED_EDGE('',*,*,#350,.F.);
#471=ORIENTED_EDGE('',*,*,#309,.T.);
#472=ORIENTED_EDGE('',*,*,#352,.F.);
#473=ORIENTED_EDGE('',*,*,#327,.T.);
#474=ORIENTED_EDGE('',*,*,#356,.F.);
#475=ORIENTED_EDGE('',*,*,#297,.T.);
#476=ORIENTED_EDGE('',*,*,#357,.F.);
#477=ORIENTED_EDGE('',*,*,#319,.T.);
#478=ORIENTED_EDGE('',*,*,#349,.F.);
#479=ORIENTED_EDGE('',*,*,#299,.T.);
#480=ORIENTED_EDGE('',*,*,#353,.F.);
#481=ORIENTED_EDGE('',*,*,#307,.T.);
#482=ORIENTED_EDGE('',*,*,#358,.F.);
#483=ORIENTED_EDGE('',*,*,#359,.T.);
#484=ORIENTED_EDGE('',*,*,#360,.T.);
#485=ORIENTED_EDGE('',*,*,#341,.T.);
#486=ORIENTED_EDGE('',*,*,#361,.T.);
#487=ORIENTED_EDGE('',*,*,#361,.F.);
#488=ORIENTED_EDGE('',*,*,#348,.F.);
#489=ORIENTED_EDGE('',*,*,#362,.F.);
#490=ORIENTED_EDGE('',*,*,#363,.F.);
#491=ORIENTED_EDGE('',*,*,#364,.T.);
#492=ORIENTED_EDGE('',*,*,#362,.T.);
#493=ORIENTED_EDGE('',*,*,#347,.T.);
#494=ORIENTED_EDGE('',*,*,#365,.T.);
#495=ORIENTED_EDGE('',*,*,#365,.F.);
#496=ORIENTED_EDGE('',*,*,#346,.F.);
#497=ORIENTED_EDGE('',*,*,#366,.F.);
#498=ORIENTED_EDGE('',*,*,#367,.F.);
#499=ORIENTED_EDGE('',*,*,#368,.T.);
#500=ORIENTED_EDGE('',*,*,#366,.T.);
#501=ORIENTED_EDGE('',*,*,#345,.T.);
#502=ORIENTED_EDGE('',*,*,#369,.T.);
#503=ORIENTED_EDGE('',*,*,#369,.F.);
#504=ORIENTED_EDGE('',*,*,#344,.F.);
#505=ORIENTED_EDGE('',*,*,#370,.F.);
#506=ORIENTED_EDGE('',*,*,#371,.F.);
#507=ORIENTED_EDGE('',*,*,#372,.T.);
#508=ORIENTED_EDGE('',*,*,#370,.T.);
#509=ORIENTED_EDGE('',*,*,#343,.T.);
#510=ORIENTED_EDGE('',*,*,#373,.T.);
#511=ORIENTED_EDGE('',*,*,#360,.F.);
#512=ORIENTED_EDGE('',*,*,#374,.F.);
#513=ORIENTED_EDGE('',*,*,#373,.F.);
#514=ORIENTED_EDGE('',*,*,#342,.F.);
#515=ORIENTED_EDGE('',*,*,#359,.F.);
#516=ORIENTED_EDGE('',*,*,#363,.T.);
#517=ORIENTED_EDGE('',*,*,#364,.F.);
#518=ORIENTED_EDGE('',*,*,#367,.T.);
#519=ORIENTED_EDGE('',*,*,#368,.F.);
#520=ORIENTED_EDGE('',*,*,#371,.T.);
#521=ORIENTED_EDGE('',*,*,#372,.F.);
#522=ORIENTED_EDGE('',*,*,#374,.T.);
#523=ORIENTED_EDGE('',*,*,#300,.T.);
#524=ORIENTED_EDGE('',*,*,#358,.T.);
#525=ORIENTED_EDGE('',*,*,#306,.T.);
#526=ORIENTED_EDGE('',*,*,#303,.T.);
#527=ORIENTED_EDGE('',*,*,#310,.T.);
#528=ORIENTED_EDGE('',*,*,#356,.T.);
#529=ORIENTED_EDGE('',*,*,#326,.T.);
#530=ORIENTED_EDGE('',*,*,#323,.T.);
#531=ORIENTED_EDGE('',*,*,#330,.T.);
#532=ORIENTED_EDGE('',*,*,#354,.T.);
#533=ORIENTED_EDGE('',*,*,#336,.T.);
#534=ORIENTED_EDGE('',*,*,#333,.T.);
#535=ORIENTED_EDGE('',*,*,#340,.T.);
#536=ORIENTED_EDGE('',*,*,#355,.T.);
#537=ORIENTED_EDGE('',*,*,#316,.T.);
#538=ORIENTED_EDGE('',*,*,#313,.T.);
#539=ORIENTED_EDGE('',*,*,#320,.T.);
#540=ORIENTED_EDGE('',*,*,#357,.T.);
#541=ORIENTED_EDGE('',*,*,#296,.T.);
#542=ORIENTED_EDGE('',*,*,#293,.T.);
#543=CYLINDRICAL_SURFACE('',#601,2.00000002980232);
#544=CYLINDRICAL_SURFACE('',#606,2.00000002980232);
#545=CYLINDRICAL_SURFACE('',#611,2.00000002980232);
#546=CYLINDRICAL_SURFACE('',#616,2.00000002980232);
#547=CYLINDRICAL_SURFACE('',#621,2.00000002980232);
#548=CYLINDRICAL_SURFACE('',#636,10.);
#549=CYLINDRICAL_SURFACE('',#638,10.);
#550=CYLINDRICAL_SURFACE('',#640,10.);
#551=CYLINDRICAL_SURFACE('',#642,10.);
#552=CYLINDRICAL_SURFACE('',#644,10.);
#553=CYLINDRICAL_SURFACE('',#646,7.5);
#554=CYLINDRICAL_SURFACE('',#649,7.5);
#555=CYLINDRICAL_SURFACE('',#652,7.5);
#556=CYLINDRICAL_SURFACE('',#655,7.5);
#557=ADVANCED_FACE('',(#33),#543,.F.);
#558=ADVANCED_FACE('',(#34),#17,.F.);
#559=ADVANCED_FACE('',(#35),#18,.F.);
#560=ADVANCED_FACE('',(#36),#544,.F.);
#561=ADVANCED_FACE('',(#37),#19,.F.);
#562=ADVANCED_FACE('',(#38),#20,.F.);
#563=ADVANCED_FACE('',(#39),#545,.F.);
#564=ADVANCED_FACE('',(#40),#21,.F.);
#565=ADVANCED_FACE('',(#41),#22,.F.);
#566=ADVANCED_FACE('',(#42),#546,.F.);
#567=ADVANCED_FACE('',(#43),#23,.F.);
#568=ADVANCED_FACE('',(#44),#24,.F.);
#569=ADVANCED_FACE('',(#45),#547,.F.);
#570=ADVANCED_FACE('',(#46),#25,.F.);
#571=ADVANCED_FACE('',(#47),#26,.F.);
#572=ADVANCED_FACE('',(#48,#15),#27,.F.);
#573=ADVANCED_FACE('',(#49),#548,.F.);
#574=ADVANCED_FACE('',(#50),#549,.F.);
#575=ADVANCED_FACE('',(#51),#550,.F.);
#576=ADVANCED_FACE('',(#52),#551,.F.);
#577=ADVANCED_FACE('',(#53),#552,.F.);
#578=ADVANCED_FACE('',(#54),#553,.T.);
#579=ADVANCED_FACE('',(#55),#28,.T.);
#580=ADVANCED_FACE('',(#56),#554,.T.);
#581=ADVANCED_FACE('',(#57),#29,.T.);
#582=ADVANCED_FACE('',(#58),#555,.T.);
#583=ADVANCED_FACE('',(#59),#30,.T.);
#584=ADVANCED_FACE('',(#60),#556,.T.);
#585=ADVANCED_FACE('',(#61),#31,.T.);
#586=ADVANCED_FACE('',(#62,#16),#32,.T.);
#587=CLOSED_SHELL('',(#557,#558,#559,#560,#561,#562,#563,#564,#565,#566,
#567,#568,#569,#570,#571,#572,#573,#574,#575,#576,#577,#578,#579,#580,#581,
#582,#583,#584,#585,#586));
#588=DERIVED_UNIT_ELEMENT(#590,1.);
#589=DERIVED_UNIT_ELEMENT(#1009,-3.);
#590=(
MASS_UNIT()
NAMED_UNIT(*)
SI_UNIT(.KILO.,.GRAM.)
);
#591=DERIVED_UNIT((#588,#589));
#592=MEASURE_REPRESENTATION_ITEM('density measure',
POSITIVE_RATIO_MEASURE(7850.),#591);
#593=PROPERTY_DEFINITION_REPRESENTATION(#598,#595);
#594=PROPERTY_DEFINITION_REPRESENTATION(#599,#596);
#595=REPRESENTATION('material name',(#597),#1006);
#596=REPRESENTATION('density',(#592),#1006);
#597=DESCRIPTIVE_REPRESENTATION_ITEM('Steel','Steel');
#598=PROPERTY_DEFINITION('material property','material name',#1016);
#599=PROPERTY_DEFINITION('material property','density of part',#1016);
#600=AXIS2_PLACEMENT_3D('',#833,#659,#660);
#601=AXIS2_PLACEMENT_3D('',#834,#661,#662);
#602=AXIS2_PLACEMENT_3D('',#837,#663,#664);
#603=AXIS2_PLACEMENT_3D('',#841,#666,#667);
#604=AXIS2_PLACEMENT_3D('',#843,#669,#670);
#605=AXIS2_PLACEMENT_3D('',#849,#674,#675);
#606=AXIS2_PLACEMENT_3D('',#855,#679,#680);
#607=AXIS2_PLACEMENT_3D('',#858,#681,#682);
#608=AXIS2_PLACEMENT_3D('',#862,#684,#685);
#609=AXIS2_PLACEMENT_3D('',#864,#687,#688);
#610=AXIS2_PLACEMENT_3D('',#870,#692,#693);
#611=AXIS2_PLACEMENT_3D('',#876,#697,#698);
#612=AXIS2_PLACEMENT_3D('',#879,#699,#700);
#613=AXIS2_PLACEMENT_3D('',#883,#702,#703);
#614=AXIS2_PLACEMENT_3D('',#885,#705,#706);
#615=AXIS2_PLACEMENT_3D('',#891,#710,#711);
#616=AXIS2_PLACEMENT_3D('',#897,#715,#716);
#617=AXIS2_PLACEMENT_3D('',#900,#717,#718);
#618=AXIS2_PLACEMENT_3D('',#904,#720,#721);
#619=AXIS2_PLACEMENT_3D('',#906,#723,#724);
#620=AXIS2_PLACEMENT_3D('',#912,#728,#729);
#621=AXIS2_PLACEMENT_3D('',#918,#733,#734);
#622=AXIS2_PLACEMENT_3D('',#921,#735,#736);
#623=AXIS2_PLACEMENT_3D('',#925,#738,#739);
#624=AXIS2_PLACEMENT_3D('',#927,#741,#742);
#625=AXIS2_PLACEMENT_3D('',#933,#746,#747);
#626=AXIS2_PLACEMENT_3D('',#939,#751,#752);
#627=AXIS2_PLACEMENT_3D('',#942,#753,#754);
#628=AXIS2_PLACEMENT_3D('',#946,#756,#757);
#629=AXIS2_PLACEMENT_3D('',#950,#759,#760);
#630=AXIS2_PLACEMENT_3D('',#954,#762,#763);
#631=AXIS2_PLACEMENT_3D('',#956,#765,#766);
#632=AXIS2_PLACEMENT_3D('',#957,#767,#768);
#633=AXIS2_PLACEMENT_3D('',#958,#769,#770);
#634=AXIS2_PLACEMENT_3D('',#959,#771,#772);
#635=AXIS2_PLACEMENT_3D('',#960,#773,#774);
#636=AXIS2_PLACEMENT_3D('',#961,#775,#776);
#637=AXIS2_PLACEMENT_3D('',#962,#777,#778);
#638=AXIS2_PLACEMENT_3D('',#963,#779,#780);
#639=AXIS2_PLACEMENT_3D('',#964,#781,#782);
#640=AXIS2_PLACEMENT_3D('',#965,#783,#784);
#641=AXIS2_PLACEMENT_3D('',#966,#785,#786);
#642=AXIS2_PLACEMENT_3D('',#967,#787,#788);
#643=AXIS2_PLACEMENT_3D('',#968,#789,#790);
#644=AXIS2_PLACEMENT_3D('',#969,#791,#792);
#645=AXIS2_PLACEMENT_3D('',#970,#793,#794);
#646=AXIS2_PLACEMENT_3D('',#971,#795,#796);
#647=AXIS2_PLACEMENT_3D('',#974,#797,#798);
#648=AXIS2_PLACEMENT_3D('',#977,#801,#802);
#649=AXIS2_PLACEMENT_3D('',#981,#805,#806);
#650=AXIS2_PLACEMENT_3D('',#983,#807,#808);
#651=AXIS2_PLACEMENT_3D('',#985,#810,#811);
#652=AXIS2_PLACEMENT_3D('',#989,#814,#815);
#653=AXIS2_PLACEMENT_3D('',#991,#816,#817);
#654=AXIS2_PLACEMENT_3D('',#993,#819,#820);
#655=AXIS2_PLACEMENT_3D('',#997,#823,#824);
#656=AXIS2_PLACEMENT_3D('',#999,#825,#826);
#657=AXIS2_PLACEMENT_3D('',#1001,#828,#829);
#658=AXIS2_PLACEMENT_3D('',#1003,#831,#832);
#659=DIRECTION('axis',(0.,0.,1.));
#660=DIRECTION('refdir',(1.,0.,0.));
#661=DIRECTION('center_axis',(0.,-1.,0.));
#662=DIRECTION('ref_axis',(-0.809016994374948,0.,0.587785252292473));
#663=DIRECTION('center_axis',(0.,1.,0.));
#664=DIRECTION('ref_axis',(-0.809016994374948,0.,0.587785252292473));
#665=DIRECTION('',(0.,-1.,0.));
#666=DIRECTION('center_axis',(0.,-1.,0.));
#667=DIRECTION('ref_axis',(-0.809016994374948,0.,0.587785252292473));
#668=DIRECTION('',(0.,-1.,0.));
#669=DIRECTION('center_axis',(0.809016994374948,0.,-0.587785252292473));
#670=DIRECTION('ref_axis',(0.587785252292473,0.,0.809016994374948));
#671=DIRECTION('',(-0.587785252292473,0.,-0.809016994374948));
#672=DIRECTION('',(0.587785252292473,0.,0.809016994374948));
#673=DIRECTION('',(0.,1.,0.));
#674=DIRECTION('center_axis',(-0.809016994374948,0.,0.587785252292473));
#675=DIRECTION('ref_axis',(-0.587785252292473,0.,-0.809016994374948));
#676=DIRECTION('',(0.587785252292473,0.,0.809016994374948));
#677=DIRECTION('',(0.,-1.,0.));
#678=DIRECTION('',(-0.587785252292473,0.,-0.809016994374948));
#679=DIRECTION('center_axis',(0.,-1.,0.));
#680=DIRECTION('ref_axis',(-0.809016994374947,0.,-0.587785252292473));
#681=DIRECTION('center_axis',(0.,1.,0.));
#682=DIRECTION('ref_axis',(-0.809016994374947,0.,-0.587785252292473));
#683=DIRECTION('',(0.,-1.,0.));
#684=DIRECTION('center_axis',(0.,-1.,0.));
#685=DIRECTION('ref_axis',(-0.809016994374947,0.,-0.587785252292473));
#686=DIRECTION('',(0.,-1.,0.));
#687=DIRECTION('center_axis',(0.809016994374947,0.,0.587785252292473));
#688=DIRECTION('ref_axis',(-0.587785252292473,0.,0.809016994374947));
#689=DIRECTION('',(0.587785252292473,0.,-0.809016994374947));
#690=DIRECTION('',(-0.587785252292473,0.,0.809016994374947));
#691=DIRECTION('',(0.,1.,0.));
#692=DIRECTION('center_axis',(-0.809016994374947,0.,-0.587785252292473));
#693=DIRECTION('ref_axis',(0.587785252292473,0.,-0.809016994374947));
#694=DIRECTION('',(-0.587785252292473,0.,0.809016994374947));
#695=DIRECTION('',(0.,-1.,0.));
#696=DIRECTION('',(0.587785252292473,0.,-0.809016994374947));
#697=DIRECTION('center_axis',(0.,-1.,0.));
#698=DIRECTION('ref_axis',(0.309016994374947,0.,0.951056516295154));
#699=DIRECTION('center_axis',(0.,1.,0.));
#700=DIRECTION('ref_axis',(0.309016994374947,0.,0.951056516295154));
#701=DIRECTION('',(0.,-1.,0.));
#702=DIRECTION('center_axis',(0.,-1.,0.));
#703=DIRECTION('ref_axis',(0.309016994374947,0.,0.951056516295154));
#704=DIRECTION('',(0.,-1.,0.));
#705=DIRECTION('center_axis',(-0.309016994374947,0.,-0.951056516295154));
#706=DIRECTION('ref_axis',(0.951056516295154,0.,-0.309016994374947));
#707=DIRECTION('',(-0.951056516295154,0.,0.309016994374947));
#708=DIRECTION('',(0.951056516295154,0.,-0.309016994374947));
#709=DIRECTION('',(0.,1.,0.));
#710=DIRECTION('center_axis',(0.309016994374947,0.,0.951056516295154));
#711=DIRECTION('ref_axis',(-0.951056516295154,0.,0.309016994374947));
#712=DIRECTION('',(0.951056516295154,0.,-0.309016994374947));
#713=DIRECTION('',(0.,-1.,0.));
#714=DIRECTION('',(-0.951056516295154,0.,0.309016994374947));
#715=DIRECTION('center_axis',(0.,-1.,0.));
#716=DIRECTION('ref_axis',(0.309016994374948,0.,-0.951056516295154));
#717=DIRECTION('center_axis',(0.,1.,0.));
#718=DIRECTION('ref_axis',(0.309016994374948,0.,-0.951056516295154));
#719=DIRECTION('',(0.,-1.,0.));
#720=DIRECTION('center_axis',(0.,-1.,0.));
#721=DIRECTION('ref_axis',(0.309016994374948,0.,-0.951056516295154));
#722=DIRECTION('',(0.,-1.,0.));
#723=DIRECTION('center_axis',(-0.309016994374947,0.,0.951056516295154));
#724=DIRECTION('ref_axis',(-0.951056516295154,0.,-0.309016994374947));
#725=DIRECTION('',(0.951056516295154,0.,0.309016994374947));
#726=DIRECTION('',(-0.951056516295154,0.,-0.309016994374947));
#727=DIRECTION('',(0.,1.,0.));
#728=DIRECTION('center_axis',(0.309016994374948,0.,-0.951056516295154));
#729=DIRECTION('ref_axis',(0.951056516295154,0.,0.309016994374948));
#730=DIRECTION('',(-0.951056516295154,0.,-0.309016994374948));
#731=DIRECTION('',(0.,-1.,0.));
#732=DIRECTION('',(0.951056516295154,0.,0.309016994374948));
#733=DIRECTION('center_axis',(0.,-1.,0.));
#734=DIRECTION('ref_axis',(1.,0.,0.));
#735=DIRECTION('center_axis',(0.,1.,0.));
#736=DIRECTION('ref_axis',(1.,0.,0.));
#737=DIRECTION('',(0.,-1.,0.));
#738=DIRECTION('center_axis',(0.,-1.,0.));
#739=DIRECTION('ref_axis',(1.,0.,0.));
#740=DIRECTION('',(0.,-1.,0.));
#741=DIRECTION('center_axis',(-1.,0.,0.));
#742=DIRECTION('ref_axis',(0.,0.,-1.));
#743=DIRECTION('',(0.,0.,1.));
#744=DIRECTION('',(0.,0.,-1.));
#745=DIRECTION('',(0.,1.,0.));
#746=DIRECTION('center_axis',(1.,0.,0.));
#747=DIRECTION('ref_axis',(0.,0.,1.));
#748=DIRECTION('',(0.,0.,-1.));
#749=DIRECTION('',(0.,-1.,0.));
#750=DIRECTION('',(0.,0.,1.));
#751=DIRECTION('center_axis',(0.,1.,0.));
#752=DIRECTION('ref_axis',(1.,0.,0.));
#753=DIRECTION('center_axis',(0.,1.,0.));
#754=DIRECTION('ref_axis',(0.707106781186547,0.,-0.707106781186547));
#755=DIRECTION('',(0.,0.,1.));
#756=DIRECTION('center_axis',(0.,1.,0.));
#757=DIRECTION('ref_axis',(0.707106781186547,0.,0.707106781186547));
#758=DIRECTION('',(-1.,0.,0.));
#759=DIRECTION('center_axis',(0.,1.,0.));
#760=DIRECTION('ref_axis',(-0.707106781186547,0.,0.707106781186547));
#761=DIRECTION('',(0.,0.,-1.));
#762=DIRECTION('center_axis',(0.,1.,0.));
#763=DIRECTION('ref_axis',(-0.707106781186547,0.,-0.707106781186547));
#764=DIRECTION('',(1.,0.,0.));
#765=DIRECTION('center_axis',(0.,1.,0.));
#766=DIRECTION('ref_axis',(-1.,0.,0.));
#767=DIRECTION('center_axis',(0.,1.,0.));
#768=DIRECTION('ref_axis',(-1.,0.,0.));
#769=DIRECTION('center_axis',(0.,1.,0.));
#770=DIRECTION('ref_axis',(-1.,0.,0.));
#771=DIRECTION('center_axis',(0.,1.,0.));
#772=DIRECTION('ref_axis',(-1.,0.,0.));
#773=DIRECTION('center_axis',(0.,1.,0.));
#774=DIRECTION('ref_axis',(-1.,0.,0.));
#775=DIRECTION('center_axis',(0.,-1.,0.));
#776=DIRECTION('ref_axis',(-1.,0.,0.));
#777=DIRECTION('center_axis',(0.,-1.,0.));
#778=DIRECTION('ref_axis',(-1.,0.,0.));
#779=DIRECTION('center_axis',(0.,-1.,0.));
#780=DIRECTION('ref_axis',(-1.,0.,0.));
#781=DIRECTION('center_axis',(0.,-1.,0.));
#782=DIRECTION('ref_axis',(-1.,0.,0.));
#783=DIRECTION('center_axis',(0.,-1.,0.));
#784=DIRECTION('ref_axis',(-1.,0.,0.));
#785=DIRECTION('center_axis',(0.,-1.,0.));
#786=DIRECTION('ref_axis',(-1.,0.,0.));
#787=DIRECTION('center_axis',(0.,-1.,0.));
#788=DIRECTION('ref_axis',(0.951056516295153,0.,0.309016994374948));
#789=DIRECTION('center_axis',(0.,-1.,0.));
#790=DIRECTION('ref_axis',(-1.,0.,0.));
#791=DIRECTION('center_axis',(0.,-1.,0.));
#792=DIRECTION('ref_axis',(-1.,0.,0.));
#793=DIRECTION('center_axis',(0.,-1.,0.));
#794=DIRECTION('ref_axis',(-1.,0.,0.));
#795=DIRECTION('center_axis',(0.,1.,0.));
#796=DIRECTION('ref_axis',(0.707106781186547,0.,-0.707106781186547));
#797=DIRECTION('center_axis',(0.,-1.,0.));
#798=DIRECTION('ref_axis',(0.707106781186547,0.,-0.707106781186547));
#799=DIRECTION('',(0.,-1.,0.));
#800=DIRECTION('',(0.,1.,0.));
#801=DIRECTION('center_axis',(0.,0.,-1.));
#802=DIRECTION('ref_axis',(-1.,0.,0.));
#803=DIRECTION('',(0.,-1.,0.));
#804=DIRECTION('',(-1.,0.,0.));
#805=DIRECTION('center_axis',(0.,1.,0.));
#806=DIRECTION('ref_axis',(-0.707106781186547,0.,-0.707106781186547));
#807=DIRECTION('center_axis',(0.,-1.,0.));
#808=DIRECTION('ref_axis',(-0.707106781186547,0.,-0.707106781186547));
#809=DIRECTION('',(0.,1.,0.));
#810=DIRECTION('center_axis',(-1.,0.,0.));
#811=DIRECTION('ref_axis',(0.,0.,1.));
#812=DIRECTION('',(0.,-1.,0.));
#813=DIRECTION('',(0.,0.,1.));
#814=DIRECTION('center_axis',(0.,1.,0.));
#815=DIRECTION('ref_axis',(-0.707106781186547,0.,0.707106781186547));
#816=DIRECTION('center_axis',(0.,-1.,0.));
#817=DIRECTION('ref_axis',(-0.707106781186547,0.,0.707106781186547));
#818=DIRECTION('',(0.,1.,0.));
#819=DIRECTION('center_axis',(0.,0.,1.));
#820=DIRECTION('ref_axis',(1.,0.,0.));
#821=DIRECTION('',(0.,-1.,0.));
#822=DIRECTION('',(1.,0.,0.));
#823=DIRECTION('center_axis',(0.,1.,0.));
#824=DIRECTION('ref_axis',(0.707106781186547,0.,0.707106781186547));
#825=DIRECTION('center_axis',(0.,-1.,0.));
#826=DIRECTION('ref_axis',(0.707106781186547,0.,0.707106781186547));
#827=DIRECTION('',(0.,1.,0.));
#828=DIRECTION('center_axis',(1.,0.,0.));
#829=DIRECTION('ref_axis',(0.,0.,-1.));
#830=DIRECTION('',(0.,0.,-1.));
#831=DIRECTION('center_axis',(0.,1.,0.));
#832=DIRECTION('ref_axis',(0.,0.,1.));
#833=CARTESIAN_POINT('',(0.,0.,0.));
#834=CARTESIAN_POINT('Origin',(8.81677891576734,35.,12.1352550964536));
#835=CARTESIAN_POINT('',(7.19874490290686,0.,13.3108256185559));
#836=CARTESIAN_POINT('',(10.4348129286278,0.,10.9596845743513));
#837=CARTESIAN_POINT('Origin',(8.81677891576734,0.,12.1352550964536));
#838=CARTESIAN_POINT('',(7.19874490290686,35.,13.3108256185559));
#839=CARTESIAN_POINT('',(7.19874490290686,35.,13.3108256185559));
#840=CARTESIAN_POINT('',(10.4348129286278,35.,10.9596845743513));
#841=CARTESIAN_POINT('Origin',(8.81677891576734,35.,12.1352550964536));
#842=CARTESIAN_POINT('',(10.4348129286278,35.,10.9596845743513));
#843=CARTESIAN_POINT('Origin',(7.3771297950833,35.,6.75114479081098));
#844=CARTESIAN_POINT('',(7.3771297950833,0.,6.75114479081098));
#845=CARTESIAN_POINT('',(4.49758190397189,0.,2.78778713435433));
#846=CARTESIAN_POINT('',(7.3771297950833,35.,6.75114479081098));
#847=CARTESIAN_POINT('',(4.49758190397189,35.,2.78778713435433));
#848=CARTESIAN_POINT('',(7.3771297950833,35.,6.75114479081098));
#849=CARTESIAN_POINT('Origin',(7.19874490290686,35.,13.3108256185559));
#850=CARTESIAN_POINT('',(4.14106176936234,0.,9.1022858350156));
#851=CARTESIAN_POINT('',(2.79035544502319,0.,7.24319807032911));
#852=CARTESIAN_POINT('',(4.14106176936234,35.,9.1022858350156));
#853=CARTESIAN_POINT('',(4.14106176936234,35.,9.1022858350156));
#854=CARTESIAN_POINT('',(2.79035544502319,35.,7.24319807032911));
#855=CARTESIAN_POINT('Origin',(-8.81677891576734,35.,12.1352550964536));
#856=CARTESIAN_POINT('',(-10.4348129286278,0.,10.9596845743513));
#857=CARTESIAN_POINT('',(-7.19874490290686,0.,13.3108256185559));
#858=CARTESIAN_POINT('Origin',(-8.81677891576734,0.,12.1352550964536));
#859=CARTESIAN_POINT('',(-10.4348129286278,35.,10.9596845743513));
#860=CARTESIAN_POINT('',(-10.4348129286278,35.,10.9596845743513));
#861=CARTESIAN_POINT('',(-7.19874490290686,35.,13.3108256185559));
#862=CARTESIAN_POINT('Origin',(-8.81677891576734,35.,12.1352550964536));
#863=CARTESIAN_POINT('',(-7.19874490290686,35.,13.3108256185559));
#864=CARTESIAN_POINT('Origin',(-4.14106176936235,35.,9.1022858350156));
#865=CARTESIAN_POINT('',(-4.14106176936235,0.,9.1022858350156));
#866=CARTESIAN_POINT('',(-1.26151387825093,0.,5.13892817855895));
#867=CARTESIAN_POINT('',(-4.14106176936235,35.,9.1022858350156));
#868=CARTESIAN_POINT('',(-1.26151387825093,35.,5.13892817855895));
#869=CARTESIAN_POINT('',(-4.14106176936235,35.,9.1022858350156));
#870=CARTESIAN_POINT('Origin',(-10.4348129286278,35.,10.9596845743513));
#871=CARTESIAN_POINT('',(-7.37712979508331,0.,6.75114479081097));
#872=CARTESIAN_POINT('',(-6.02642347074415,0.,4.89205702612449));
#873=CARTESIAN_POINT('',(-7.37712979508331,35.,6.75114479081097));
#874=CARTESIAN_POINT('',(-7.37712979508331,35.,6.75114479081097));
#875=CARTESIAN_POINT('',(-6.02642347074415,35.,4.89205702612449));
#876=CARTESIAN_POINT('Origin',(14.265847957005,35.,-4.63525498469489));
#877=CARTESIAN_POINT('',(14.8838819549643,0.,-2.73314192376089));
#878=CARTESIAN_POINT('',(13.6478139991297,0.,-6.53736805865298));
#879=CARTESIAN_POINT('Origin',(14.265847957005,0.,-4.63525498469489));
#880=CARTESIAN_POINT('',(14.8838819549643,35.,-2.73314192376089));
#881=CARTESIAN_POINT('',(14.8838819549643,35.,-2.73314192376089));
#882=CARTESIAN_POINT('',(13.6478139991297,35.,-6.53736805865298));
#883=CARTESIAN_POINT('Origin',(14.265847957005,35.,-4.63525498469489));
#884=CARTESIAN_POINT('',(13.6478139991297,35.,-6.53736805865298));
#885=CARTESIAN_POINT('Origin',(8.70037872214338,35.,-4.92984889132261));
#886=CARTESIAN_POINT('',(8.70037872214338,0.,-4.92984889132261));
#887=CARTESIAN_POINT('',(4.04117236209203,-2.22044604925031E-15,-3.41598097612831));
#888=CARTESIAN_POINT('',(8.70037872214338,35.,-4.92984889132261));
#889=CARTESIAN_POINT('',(4.04117236209203,35.,-3.41598097612831));
#890=CARTESIAN_POINT('',(8.70037872214338,35.,-4.92984889132261));
#891=CARTESIAN_POINT('Origin',(14.8838819549643,35.,-2.73314192376089));
#892=CARTESIAN_POINT('',(9.93644671806201,0.,-1.12562276945461));
#893=CARTESIAN_POINT('',(7.75095797646182,0.,-0.415514431413444));
#894=CARTESIAN_POINT('',(9.93644671806201,35.,-1.12562276945461));
#895=CARTESIAN_POINT('',(9.93644671806201,35.,-1.12562276945461));
#896=CARTESIAN_POINT('',(7.75095797646182,35.,-0.415514431413444));
#897=CARTESIAN_POINT('Origin',(-14.265847957005,35.,-4.63525498469489));
#898=CARTESIAN_POINT('',(-13.6478139590457,0.,-6.53736804562889));
#899=CARTESIAN_POINT('',(-14.8838819549643,0.,-2.73314192376089));
#900=CARTESIAN_POINT('Origin',(-14.265847957005,0.,-4.63525498469489));
#901=CARTESIAN_POINT('',(-13.6478139590457,35.,-6.53736804562889));
#902=CARTESIAN_POINT('',(-13.6478139590457,35.,-6.53736804562889));
#903=CARTESIAN_POINT('',(-14.8838819549643,35.,-2.73314192376089));
#904=CARTESIAN_POINT('Origin',(-14.265847957005,35.,-4.63525498469489));
#905=CARTESIAN_POINT('',(-14.8838819549643,35.,-2.73314192376089));
#906=CARTESIAN_POINT('Origin',(-9.93644671806201,35.,-1.12562276945462));
#907=CARTESIAN_POINT('',(-9.93644671806201,0.,-1.12562276945462));
#908=CARTESIAN_POINT('',(-5.27724035801067,0.,0.388245145739691));
#909=CARTESIAN_POINT('',(-9.93644671806201,35.,-1.12562276945462));
#910=CARTESIAN_POINT('',(-5.27724035801067,35.,0.388245145739691));
#911=CARTESIAN_POINT('',(-9.93644671806201,35.,-1.12562276945462));
#912=CARTESIAN_POINT('Origin',(-13.6478139590457,35.,-6.53736804562889));
#913=CARTESIAN_POINT('',(-8.70037872214338,0.,-4.92984889132262));
#914=CARTESIAN_POINT('',(-6.51488998054318,0.,-4.21974055328145));
#915=CARTESIAN_POINT('',(-8.70037872214338,35.,-4.92984889132262));
#916=CARTESIAN_POINT('',(-8.70037872214337,35.,-4.92984889132262));
#917=CARTESIAN_POINT('',(-6.51488998054318,35.,-4.21974055328145));
#918=CARTESIAN_POINT('Origin',(0.,35.,-15.0000002235174));
#919=CARTESIAN_POINT('',(2.00000002980232,0.,-15.0000002235174));
#920=CARTESIAN_POINT('',(-2.00000002980232,0.,-15.0000002235174));
#921=CARTESIAN_POINT('Origin',(0.,0.,-15.0000002235174));
#922=CARTESIAN_POINT('',(2.00000002980232,35.,-15.0000002235174));
#923=CARTESIAN_POINT('',(2.00000002980232,35.,-15.0000002235174));
#924=CARTESIAN_POINT('',(-2.00000002980232,35.,-15.0000002235174));
#925=CARTESIAN_POINT('Origin',(0.,35.,-15.0000002235174));
#926=CARTESIAN_POINT('',(-2.00000002980232,35.,-15.0000002235174));
#927=CARTESIAN_POINT('Origin',(-2.00000002980232,35.,-9.79795896504934));
#928=CARTESIAN_POINT('',(-2.00000002980232,0.,-9.79795896504934));
#929=CARTESIAN_POINT('',(-2.00000002980232,0.,-4.89897948252467));
#930=CARTESIAN_POINT('',(-2.00000002980232,35.,-9.79795896504934));
#931=CARTESIAN_POINT('',(-2.00000002980232,35.,-4.89897948252467));
#932=CARTESIAN_POINT('',(-2.00000002980232,35.,-9.79795896504934));
#933=CARTESIAN_POINT('Origin',(2.00000002980232,35.,-15.0000002235174));
#934=CARTESIAN_POINT('',(2.00000002980232,0.,-9.79795896504934));
#935=CARTESIAN_POINT('',(2.00000002980232,0.,-7.50000011175871));
#936=CARTESIAN_POINT('',(2.00000002980232,35.,-9.79795896504934));
#937=CARTESIAN_POINT('',(2.00000002980232,35.,-9.79795896504934));
#938=CARTESIAN_POINT('',(2.00000002980232,35.,-7.50000011175871));
#939=CARTESIAN_POINT('Origin',(0.,0.,0.));
#940=CARTESIAN_POINT('',(25.,0.,-17.5));
#941=CARTESIAN_POINT('',(17.5,0.,-25.));
#942=CARTESIAN_POINT('Origin',(17.5,0.,-17.5));
#943=CARTESIAN_POINT('',(25.,0.,17.5));
#944=CARTESIAN_POINT('',(25.,0.,-25.));
#945=CARTESIAN_POINT('',(17.5,0.,25.));
#946=CARTESIAN_POINT('Origin',(17.5,0.,17.5));
#947=CARTESIAN_POINT('',(-17.5,0.,25.));
#948=CARTESIAN_POINT('',(25.,0.,25.));
#949=CARTESIAN_POINT('',(-25.,0.,17.5));
#950=CARTESIAN_POINT('Origin',(-17.5,0.,17.5));
#951=CARTESIAN_POINT('',(-25.,0.,-17.5));
#952=CARTESIAN_POINT('',(-25.,0.,25.));
#953=CARTESIAN_POINT('',(-17.5,0.,-25.));
#954=CARTESIAN_POINT('Origin',(-17.5,0.,-17.5));
#955=CARTESIAN_POINT('',(-25.,0.,-25.));
#956=CARTESIAN_POINT('Origin',(0.,0.,0.));
#957=CARTESIAN_POINT('Origin',(0.,0.,0.));
#958=CARTESIAN_POINT('Origin',(0.,0.,0.));
#959=CARTESIAN_POINT('Origin',(0.,0.,0.));
#960=CARTESIAN_POINT('Origin',(0.,0.,0.));
#961=CARTESIAN_POINT('Origin',(0.,35.,0.));
#962=CARTESIAN_POINT('Origin',(0.,35.,0.));
#963=CARTESIAN_POINT('Origin',(0.,35.,0.));
#964=CARTESIAN_POINT('Origin',(0.,35.,0.));
#965=CARTESIAN_POINT('Origin',(0.,35.,0.));
#966=CARTESIAN_POINT('Origin',(0.,35.,0.));
#967=CARTESIAN_POINT('Origin',(0.,35.,0.));
#968=CARTESIAN_POINT('Origin',(0.,35.,0.));
#969=CARTESIAN_POINT('Origin',(0.,35.,0.));
#970=CARTESIAN_POINT('Origin',(0.,35.,0.));
#971=CARTESIAN_POINT('Origin',(17.5,0.,-17.5));
#972=CARTESIAN_POINT('',(17.5,35.,-25.));
#973=CARTESIAN_POINT('',(25.,35.,-17.5));
#974=CARTESIAN_POINT('Origin',(17.5,35.,-17.5));
#975=CARTESIAN_POINT('',(25.,0.,-17.5));
#976=CARTESIAN_POINT('',(17.5,0.,-25.));
#977=CARTESIAN_POINT('Origin',(25.,0.,-25.));
#978=CARTESIAN_POINT('',(-17.5,35.,-25.));
#979=CARTESIAN_POINT('',(-17.5,0.,-25.));
#980=CARTESIAN_POINT('',(-25.,35.,-25.));
#981=CARTESIAN_POINT('Origin',(-17.5,0.,-17.5));
#982=CARTESIAN_POINT('',(-25.,35.,-17.5));
#983=CARTESIAN_POINT('Origin',(-17.5,35.,-17.5));
#984=CARTESIAN_POINT('',(-25.,0.,-17.5));
#985=CARTESIAN_POINT('Origin',(-25.,0.,-25.));
#986=CARTESIAN_POINT('',(-25.,35.,17.5));
#987=CARTESIAN_POINT('',(-25.,0.,17.5));
#988=CARTESIAN_POINT('',(-25.,35.,25.));
#989=CARTESIAN_POINT('Origin',(-17.5,0.,17.5));
#990=CARTESIAN_POINT('',(-17.5,35.,25.));
#991=CARTESIAN_POINT('Origin',(-17.5,35.,17.5));
#992=CARTESIAN_POINT('',(-17.5,0.,25.));
#993=CARTESIAN_POINT('Origin',(-25.,0.,25.));
#994=CARTESIAN_POINT('',(17.5,35.,25.));
#995=CARTESIAN_POINT('',(17.5,0.,25.));
#996=CARTESIAN_POINT('',(25.,35.,25.));
#997=CARTESIAN_POINT('Origin',(17.5,0.,17.5));
#998=CARTESIAN_POINT('',(25.,35.,17.5));
#999=CARTESIAN_POINT('Origin',(17.5,35.,17.5));
#1000=CARTESIAN_POINT('',(25.,0.,17.5));
#1001=CARTESIAN_POINT('Origin',(25.,0.,25.));
#1002=CARTESIAN_POINT('',(25.,35.,-25.));
#1003=CARTESIAN_POINT('Origin',(0.,35.,0.));
#1004=UNCERTAINTY_MEASURE_WITH_UNIT(LENGTH_MEASURE(0.01),#1008,
'DISTANCE_ACCURACY_VALUE',
'Maximum model space distance between geometric entities at asserted c
onnectivities');
#1005=UNCERTAINTY_MEASURE_WITH_UNIT(LENGTH_MEASURE(0.01),#1008,
'DISTANCE_ACCURACY_VALUE',
'Maximum model space distance between geometric entities at asserted c
onnectivities');
#1006=(
GEOMETRIC_REPRESENTATION_CONTEXT(3)
GLOBAL_UNCERTAINTY_ASSIGNED_CONTEXT((#1004))
GLOBAL_UNIT_ASSIGNED_CONTEXT((#1008,#1010,#1011))
REPRESENTATION_CONTEXT('','3D')
);
#1007=(
GEOMETRIC_REPRESENTATION_CONTEXT(3)
GLOBAL_UNCERTAINTY_ASSIGNED_CONTEXT((#1005))
GLOBAL_UNIT_ASSIGNED_CONTEXT((#1008,#1010,#1011))
REPRESENTATION_CONTEXT('','3D')
);
#1008=(
LENGTH_UNIT()
NAMED_UNIT(*)
SI_UNIT(.MILLI.,.METRE.)
);
#1009=(
LENGTH_UNIT()
NAMED_UNIT(*)
SI_UNIT($,.METRE.)
);
#1010=(
NAMED_UNIT(*)
PLANE_ANGLE_UNIT()
SI_UNIT($,.RADIAN.)
);
#1011=(
NAMED_UNIT(*)
SI_UNIT($,.STERADIAN.)
SOLID_ANGLE_UNIT()
);
#1012=SHAPE_DEFINITION_REPRESENTATION(#1013,#1014);
#1013=PRODUCT_DEFINITION_SHAPE('',$,#1016);
#1014=SHAPE_REPRESENTATION('',(#600),#1006);
#1015=PRODUCT_DEFINITION_CONTEXT('part definition',#1020,'design');
#1016=PRODUCT_DEFINITION('(Unsaved)','(Unsaved)',#1017,#1015);
#1017=PRODUCT_DEFINITION_FORMATION('',$,#1022);
#1018=PRODUCT_RELATED_PRODUCT_CATEGORY('(Unsaved)','(Unsaved)',(#1022));
#1019=APPLICATION_PROTOCOL_DEFINITION('international standard',
'automotive_design',2009,#1020);
#1020=APPLICATION_CONTEXT(
'Core Data for Automotive Mechanical Design Process');
#1021=PRODUCT_CONTEXT('part definition',#1020,'mechanical');
#1022=PRODUCT('(Unsaved)','(Unsaved)',$,(#1021));
#1023=PRESENTATION_STYLE_ASSIGNMENT((#1024));
#1024=SURFACE_STYLE_USAGE(.BOTH.,#1025);
#1025=SURFACE_SIDE_STYLE('',(#1026));
#1026=SURFACE_STYLE_FILL_AREA(#1027);
#1027=FILL_AREA_STYLE('Steel - Satin',(#1028));
#1028=FILL_AREA_STYLE_COLOUR('Steel - Satin',#1029);
#1029=COLOUR_RGB('Steel - Satin',0.627450980392157,0.627450980392157,0.627450980392157);
ENDSEC;
END-ISO-10303-21;
