ISO-10303-21;
HEADER;
/* Generated by software containing ST-Developer
 * from STEP Tools, Inc. (www.steptools.com) 
 */

FILE_DESCRIPTION(
/* description */ (''),
/* implementation_level */ '2;1');

FILE_NAME(
/* name */ 'drilled_010.step',
/* time_stamp */ '2024-11-25T12:19:43+03:00',
/* author */ (''),
/* organization */ (''),
/* preprocessor_version */ 'ST-DEVELOPER v20',
/* originating_system */ 'Autodesk Translation Framework v13.14.0.145',

/* authorisation */ '');

FILE_SCHEMA (('AUTOMOTIVE_DESIGN { 1 0 10303 214 3 1 1 }'));
ENDSEC;

DATA;
#10=MECHANICAL_DESIGN_GEOMETRIC_PRESENTATION_REPRESENTATION('',(#13),#1943);
#11=SHAPE_REPRESENTATION_RELATIONSHIP('SRR','None',#1950,#12);
#12=ADVANCED_BREP_SHAPE_REPRESENTATION('',(#14),#1942);
#13=STYLED_ITEM('',(#1959),#14);
#14=MANIFOLD_SOLID_BREP('Body1',#1163);
#15=FACE_BOUND('',#129,.T.);
#16=FACE_BOUND('',#172,.T.);
#17=PLANE('',#1180);
#18=PLANE('',#1181);
#19=PLANE('',#1185);
#20=PLANE('',#1186);
#21=PLANE('',#1190);
#22=PLANE('',#1191);
#23=PLANE('',#1195);
#24=PLANE('',#1196);
#25=PLANE('',#1197);
#26=PLANE('',#1198);
#27=PLANE('',#1199);
#28=PLANE('',#1200);
#29=PLANE('',#1217);
#30=PLANE('',#1218);
#31=PLANE('',#1221);
#32=PLANE('',#1222);
#33=PLANE('',#1223);
#34=PLANE('',#1226);
#35=PLANE('',#1227);
#36=PLANE('',#1230);
#37=PLANE('',#1231);
#38=PLANE('',#1232);
#39=PLANE('',#1235);
#40=PLANE('',#1238);
#41=PLANE('',#1239);
#42=PLANE('',#1240);
#43=PLANE('',#1243);
#44=PLANE('',#1244);
#45=PLANE('',#1245);
#46=PLANE('',#1248);
#47=PLANE('',#1249);
#48=PLANE('',#1250);
#49=PLANE('',#1253);
#50=PLANE('',#1264);
#51=PLANE('',#1267);
#52=PLANE('',#1270);
#53=PLANE('',#1273);
#54=PLANE('',#1274);
#55=FACE_OUTER_BOUND('',#113,.T.);
#56=FACE_OUTER_BOUND('',#114,.T.);
#57=FACE_OUTER_BOUND('',#115,.T.);
#58=FACE_OUTER_BOUND('',#116,.T.);
#59=FACE_OUTER_BOUND('',#117,.T.);
#60=FACE_OUTER_BOUND('',#118,.T.);
#61=FACE_OUTER_BOUND('',#119,.T.);
#62=FACE_OUTER_BOUND('',#120,.T.);
#63=FACE_OUTER_BOUND('',#121,.T.);
#64=FACE_OUTER_BOUND('',#122,.T.);
#65=FACE_OUTER_BOUND('',#123,.T.);
#66=FACE_OUTER_BOUND('',#124,.T.);
#67=FACE_OUTER_BOUND('',#125,.T.);
#68=FACE_OUTER_BOUND('',#126,.T.);
#69=FACE_OUTER_BOUND('',#127,.T.);
#70=FACE_OUTER_BOUND('',#128,.T.);
#71=FACE_OUTER_BOUND('',#130,.T.);
#72=FACE_OUTER_BOUND('',#131,.T.);
#73=FACE_OUTER_BOUND('',#132,.T.);
#74=FACE_OUTER_BOUND('',#133,.T.);
#75=FACE_OUTER_BOUND('',#134,.T.);
#76=FACE_OUTER_BOUND('',#135,.T.);
#77=FACE_OUTER_BOUND('',#136,.T.);
#78=FACE_OUTER_BOUND('',#137,.T.);
#79=FACE_OUTER_BOUND('',#138,.T.);
#80=FACE_OUTER_BOUND('',#139,.T.);
#81=FACE_OUTER_BOUND('',#140,.T.);
#82=FACE_OUTER_BOUND('',#141,.T.);
#83=FACE_OUTER_BOUND('',#142,.T.);
#84=FACE_OUTER_BOUND('',#143,.T.);
#85=FACE_OUTER_BOUND('',#144,.T.);
#86=FACE_OUTER_BOUND('',#145,.T.);
#87=FACE_OUTER_BOUND('',#146,.T.);
#88=FACE_OUTER_BOUND('',#147,.T.);
#89=FACE_OUTER_BOUND('',#148,.T.);
#90=FACE_OUTER_BOUND('',#149,.T.);
#91=FACE_OUTER_BOUND('',#150,.T.);
#92=FACE_OUTER_BOUND('',#151,.T.);
#93=FACE_OUTER_BOUND('',#152,.T.);
#94=FACE_OUTER_BOUND('',#153,.T.);
#95=FACE_OUTER_BOUND('',#154,.T.);
#96=FACE_OUTER_BOUND('',#155,.T.);
#97=FACE_OUTER_BOUND('',#156,.T.);
#98=FACE_OUTER_BOUND('',#157,.T.);
#99=FACE_OUTER_BOUND('',#158,.T.);
#100=FACE_OUTER_BOUND('',#159,.T.);
#101=FACE_OUTER_BOUND('',#160,.T.);
#102=FACE_OUTER_BOUND('',#161,.T.);
#103=FACE_OUTER_BOUND('',#162,.T.);
#104=FACE_OUTER_BOUND('',#163,.T.);
#105=FACE_OUTER_BOUND('',#164,.T.);
#106=FACE_OUTER_BOUND('',#165,.T.);
#107=FACE_OUTER_BOUND('',#166,.T.);
#108=FACE_OUTER_BOUND('',#167,.T.);
#109=FACE_OUTER_BOUND('',#168,.T.);
#110=FACE_OUTER_BOUND('',#169,.T.);
#111=FACE_OUTER_BOUND('',#170,.T.);
#112=FACE_OUTER_BOUND('',#171,.T.);
#113=EDGE_LOOP('',(#749,#750,#751,#752));
#114=EDGE_LOOP('',(#753,#754,#755,#756));
#115=EDGE_LOOP('',(#757,#758,#759,#760));
#116=EDGE_LOOP('',(#761,#762,#763,#764));
#117=EDGE_LOOP('',(#765,#766,#767,#768));
#118=EDGE_LOOP('',(#769,#770,#771,#772));
#119=EDGE_LOOP('',(#773,#774,#775,#776));
#120=EDGE_LOOP('',(#777,#778,#779,#780));
#121=EDGE_LOOP('',(#781,#782,#783,#784));
#122=EDGE_LOOP('',(#785,#786,#787,#788));
#123=EDGE_LOOP('',(#789,#790,#791,#792));
#124=EDGE_LOOP('',(#793,#794,#795,#796));
#125=EDGE_LOOP('',(#797,#798,#799,#800));
#126=EDGE_LOOP('',(#801,#802,#803,#804));
#127=EDGE_LOOP('',(#805,#806,#807,#808));
#128=EDGE_LOOP('',(#809,#810,#811,#812,#813,#814,#815,#816));
#129=EDGE_LOOP('',(#817,#818,#819,#820,#821,#822,#823,#824,#825,#826,#827,
#828,#829,#830,#831,#832,#833,#834,#835,#836,#837,#838,#839,#840,#841,#842,
#843,#844,#845,#846,#847,#848,#849,#850,#851,#852,#853,#854,#855,#856,#857,
#858,#859,#860,#861,#862,#863,#864));
#130=EDGE_LOOP('',(#865,#866,#867,#868));
#131=EDGE_LOOP('',(#869,#870,#871,#872));
#132=EDGE_LOOP('',(#873,#874,#875,#876));
#133=EDGE_LOOP('',(#877,#878,#879,#880));
#134=EDGE_LOOP('',(#881,#882,#883,#884));
#135=EDGE_LOOP('',(#885,#886,#887,#888));
#136=EDGE_LOOP('',(#889,#890,#891,#892));
#137=EDGE_LOOP('',(#893,#894,#895,#896));
#138=EDGE_LOOP('',(#897,#898,#899,#900));
#139=EDGE_LOOP('',(#901,#902,#903,#904));
#140=EDGE_LOOP('',(#905,#906,#907,#908));
#141=EDGE_LOOP('',(#909,#910,#911,#912));
#142=EDGE_LOOP('',(#913,#914,#915,#916));
#143=EDGE_LOOP('',(#917,#918,#919,#920));
#144=EDGE_LOOP('',(#921,#922,#923,#924));
#145=EDGE_LOOP('',(#925,#926,#927,#928));
#146=EDGE_LOOP('',(#929,#930,#931,#932));
#147=EDGE_LOOP('',(#933,#934,#935,#936));
#148=EDGE_LOOP('',(#937,#938,#939,#940));
#149=EDGE_LOOP('',(#941,#942,#943,#944));
#150=EDGE_LOOP('',(#945,#946,#947,#948));
#151=EDGE_LOOP('',(#949,#950,#951,#952));
#152=EDGE_LOOP('',(#953,#954,#955,#956));
#153=EDGE_LOOP('',(#957,#958,#959,#960));
#154=EDGE_LOOP('',(#961,#962,#963,#964));
#155=EDGE_LOOP('',(#965,#966,#967,#968));
#156=EDGE_LOOP('',(#969,#970,#971,#972));
#157=EDGE_LOOP('',(#973,#974,#975,#976));
#158=EDGE_LOOP('',(#977,#978,#979,#980));
#159=EDGE_LOOP('',(#981,#982,#983,#984));
#160=EDGE_LOOP('',(#985,#986,#987,#988));
#161=EDGE_LOOP('',(#989,#990,#991,#992));
#162=EDGE_LOOP('',(#993,#994,#995,#996));
#163=EDGE_LOOP('',(#997,#998,#999,#1000));
#164=EDGE_LOOP('',(#1001,#1002,#1003,#1004));
#165=EDGE_LOOP('',(#1005,#1006,#1007,#1008));
#166=EDGE_LOOP('',(#1009,#1010,#1011,#1012));
#167=EDGE_LOOP('',(#1013,#1014,#1015,#1016));
#168=EDGE_LOOP('',(#1017,#1018,#1019,#1020));
#169=EDGE_LOOP('',(#1021,#1022,#1023,#1024));
#170=EDGE_LOOP('',(#1025,#1026,#1027,#1028));
#171=EDGE_LOOP('',(#1029,#1030,#1031,#1032,#1033,#1034,#1035,#1036));
#172=EDGE_LOOP('',(#1037,#1038,#1039,#1040,#1041,#1042,#1043,#1044,#1045,
#1046,#1047,#1048,#1049,#1050,#1051,#1052,#1053,#1054,#1055,#1056,#1057,
#1058,#1059,#1060,#1061,#1062,#1063,#1064,#1065,#1066,#1067,#1068,#1069,
#1070,#1071,#1072,#1073,#1074,#1075,#1076,#1077,#1078,#1079,#1080,#1081,
#1082,#1083,#1084));
#173=LINE('',#1607,#301);
#174=LINE('',#1610,#302);
#175=LINE('',#1613,#303);
#176=LINE('',#1615,#304);
#177=LINE('',#1616,#305);
#178=LINE('',#1619,#306);
#179=LINE('',#1621,#307);
#180=LINE('',#1622,#308);
#181=LINE('',#1628,#309);
#182=LINE('',#1631,#310);
#183=LINE('',#1634,#311);
#184=LINE('',#1636,#312);
#185=LINE('',#1637,#313);
#186=LINE('',#1640,#314);
#187=LINE('',#1642,#315);
#188=LINE('',#1643,#316);
#189=LINE('',#1649,#317);
#190=LINE('',#1652,#318);
#191=LINE('',#1655,#319);
#192=LINE('',#1657,#320);
#193=LINE('',#1658,#321);
#194=LINE('',#1661,#322);
#195=LINE('',#1663,#323);
#196=LINE('',#1664,#324);
#197=LINE('',#1670,#325);
#198=LINE('',#1673,#326);
#199=LINE('',#1676,#327);
#200=LINE('',#1678,#328);
#201=LINE('',#1679,#329);
#202=LINE('',#1682,#330);
#203=LINE('',#1684,#331);
#204=LINE('',#1685,#332);
#205=LINE('',#1688,#333);
#206=LINE('',#1690,#334);
#207=LINE('',#1691,#335);
#208=LINE('',#1694,#336);
#209=LINE('',#1696,#337);
#210=LINE('',#1697,#338);
#211=LINE('',#1700,#339);
#212=LINE('',#1702,#340);
#213=LINE('',#1703,#341);
#214=LINE('',#1709,#342);
#215=LINE('',#1713,#343);
#216=LINE('',#1717,#344);
#217=LINE('',#1720,#345);
#218=LINE('',#1724,#346);
#219=LINE('',#1726,#347);
#220=LINE('',#1730,#348);
#221=LINE('',#1732,#349);
#222=LINE('',#1735,#350);
#223=LINE('',#1737,#351);
#224=LINE('',#1741,#352);
#225=LINE('',#1743,#353);
#226=LINE('',#1747,#354);
#227=LINE('',#1749,#355);
#228=LINE('',#1752,#356);
#229=LINE('',#1756,#357);
#230=LINE('',#1758,#358);
#231=LINE('',#1762,#359);
#232=LINE('',#1764,#360);
#233=LINE('',#1767,#361);
#234=LINE('',#1771,#362);
#235=LINE('',#1773,#363);
#236=LINE('',#1777,#364);
#237=LINE('',#1779,#365);
#238=LINE('',#1782,#366);
#239=LINE('',#1785,#367);
#240=LINE('',#1786,#368);
#241=LINE('',#1789,#369);
#242=LINE('',#1790,#370);
#243=LINE('',#1794,#371);
#244=LINE('',#1797,#372);
#245=LINE('',#1798,#373);
#246=LINE('',#1801,#374);
#247=LINE('',#1802,#375);
#248=LINE('',#1805,#376);
#249=LINE('',#1807,#377);
#250=LINE('',#1808,#378);
#251=LINE('',#1813,#379);
#252=LINE('',#1814,#380);
#253=LINE('',#1817,#381);
#254=LINE('',#1818,#382);
#255=LINE('',#1822,#383);
#256=LINE('',#1825,#384);
#257=LINE('',#1826,#385);
#258=LINE('',#1829,#386);
#259=LINE('',#1830,#387);
#260=LINE('',#1833,#388);
#261=LINE('',#1835,#389);
#262=LINE('',#1836,#390);
#263=LINE('',#1841,#391);
#264=LINE('',#1842,#392);
#265=LINE('',#1846,#393);
#266=LINE('',#1849,#394);
#267=LINE('',#1850,#395);
#268=LINE('',#1853,#396);
#269=LINE('',#1854,#397);
#270=LINE('',#1857,#398);
#271=LINE('',#1859,#399);
#272=LINE('',#1860,#400);
#273=LINE('',#1864,#401);
#274=LINE('',#1866,#402);
#275=LINE('',#1869,#403);
#276=LINE('',#1870,#404);
#277=LINE('',#1873,#405);
#278=LINE('',#1874,#406);
#279=LINE('',#1878,#407);
#280=LINE('',#1881,#408);
#281=LINE('',#1882,#409);
#282=LINE('',#1885,#410);
#283=LINE('',#1886,#411);
#284=LINE('',#1889,#412);
#285=LINE('',#1891,#413);
#286=LINE('',#1892,#414);
#287=LINE('',#1897,#415);
#288=LINE('',#1898,#416);
#289=LINE('',#1911,#417);
#290=LINE('',#1912,#418);
#291=LINE('',#1915,#419);
#292=LINE('',#1916,#420);
#293=LINE('',#1920,#421);
#294=LINE('',#1923,#422);
#295=LINE('',#1924,#423);
#296=LINE('',#1928,#424);
#297=LINE('',#1931,#425);
#298=LINE('',#1932,#426);
#299=LINE('',#1936,#427);
#300=LINE('',#1938,#428);
#301=VECTOR('',#1281,10.);
#302=VECTOR('',#1284,10.);
#303=VECTOR('',#1287,10.);
#304=VECTOR('',#1288,10.);
#305=VECTOR('',#1289,10.);
#306=VECTOR('',#1292,10.);
#307=VECTOR('',#1293,10.);
#308=VECTOR('',#1294,10.);
#309=VECTOR('',#1299,10.);
#310=VECTOR('',#1302,10.);
#311=VECTOR('',#1305,10.);
#312=VECTOR('',#1306,10.);
#313=VECTOR('',#1307,10.);
#314=VECTOR('',#1310,10.);
#315=VECTOR('',#1311,10.);
#316=VECTOR('',#1312,10.);
#317=VECTOR('',#1317,10.);
#318=VECTOR('',#1320,10.);
#319=VECTOR('',#1323,10.);
#320=VECTOR('',#1324,10.);
#321=VECTOR('',#1325,10.);
#322=VECTOR('',#1328,10.);
#323=VECTOR('',#1329,10.);
#324=VECTOR('',#1330,10.);
#325=VECTOR('',#1335,10.);
#326=VECTOR('',#1338,10.);
#327=VECTOR('',#1341,10.);
#328=VECTOR('',#1342,10.);
#329=VECTOR('',#1343,10.);
#330=VECTOR('',#1346,10.);
#331=VECTOR('',#1347,10.);
#332=VECTOR('',#1348,10.);
#333=VECTOR('',#1351,10.);
#334=VECTOR('',#1352,10.);
#335=VECTOR('',#1353,10.);
#336=VECTOR('',#1356,10.);
#337=VECTOR('',#1357,10.);
#338=VECTOR('',#1358,10.);
#339=VECTOR('',#1361,10.);
#340=VECTOR('',#1362,10.);
#341=VECTOR('',#1363,10.);
#342=VECTOR('',#1368,10.);
#343=VECTOR('',#1371,10.);
#344=VECTOR('',#1374,10.);
#345=VECTOR('',#1377,10.);
#346=VECTOR('',#1380,10.);
#347=VECTOR('',#1381,10.);
#348=VECTOR('',#1384,10.);
#349=VECTOR('',#1385,10.);
#350=VECTOR('',#1388,10.);
#351=VECTOR('',#1389,10.);
#352=VECTOR('',#1392,10.);
#353=VECTOR('',#1393,10.);
#354=VECTOR('',#1396,10.);
#355=VECTOR('',#1397,10.);
#356=VECTOR('',#1400,10.);
#357=VECTOR('',#1403,10.);
#358=VECTOR('',#1404,10.);
#359=VECTOR('',#1407,10.);
#360=VECTOR('',#1408,10.);
#361=VECTOR('',#1411,10.);
#362=VECTOR('',#1414,10.);
#363=VECTOR('',#1415,10.);
#364=VECTOR('',#1418,10.);
#365=VECTOR('',#1419,10.);
#366=VECTOR('',#1422,10.);
#367=VECTOR('',#1425,10.);
#368=VECTOR('',#1426,10.);
#369=VECTOR('',#1429,10.);
#370=VECTOR('',#1430,10.);
#371=VECTOR('',#1435,10.);
#372=VECTOR('',#1438,10.);
#373=VECTOR('',#1439,10.);
#374=VECTOR('',#1442,10.);
#375=VECTOR('',#1443,10.);
#376=VECTOR('',#1446,10.);
#377=VECTOR('',#1447,10.);
#378=VECTOR('',#1448,10.);
#379=VECTOR('',#1455,10.);
#380=VECTOR('',#1456,10.);
#381=VECTOR('',#1459,10.);
#382=VECTOR('',#1460,10.);
#383=VECTOR('',#1465,10.);
#384=VECTOR('',#1468,10.);
#385=VECTOR('',#1469,10.);
#386=VECTOR('',#1472,10.);
#387=VECTOR('',#1473,10.);
#388=VECTOR('',#1476,10.);
#389=VECTOR('',#1477,10.);
#390=VECTOR('',#1478,10.);
#391=VECTOR('',#1485,10.);
#392=VECTOR('',#1486,10.);
#393=VECTOR('',#1491,10.);
#394=VECTOR('',#1494,10.);
#395=VECTOR('',#1495,10.);
#396=VECTOR('',#1498,10.);
#397=VECTOR('',#1499,10.);
#398=VECTOR('',#1502,10.);
#399=VECTOR('',#1503,10.);
#400=VECTOR('',#1504,10.);
#401=VECTOR('',#1509,10.);
#402=VECTOR('',#1512,10.);
#403=VECTOR('',#1515,10.);
#404=VECTOR('',#1516,10.);
#405=VECTOR('',#1519,10.);
#406=VECTOR('',#1520,10.);
#407=VECTOR('',#1525,10.);
#408=VECTOR('',#1528,10.);
#409=VECTOR('',#1529,10.);
#410=VECTOR('',#1532,10.);
#411=VECTOR('',#1533,10.);
#412=VECTOR('',#1536,10.);
#413=VECTOR('',#1537,10.);
#414=VECTOR('',#1538,10.);
#415=VECTOR('',#1545,10.);
#416=VECTOR('',#1546,10.);
#417=VECTOR('',#1567,10.);
#418=VECTOR('',#1568,10.);
#419=VECTOR('',#1571,10.);
#420=VECTOR('',#1572,10.);
#421=VECTOR('',#1577,10.);
#422=VECTOR('',#1580,10.);
#423=VECTOR('',#1581,10.);
#424=VECTOR('',#1586,10.);
#425=VECTOR('',#1589,10.);
#426=VECTOR('',#1590,10.);
#427=VECTOR('',#1595,10.);
#428=VECTOR('',#1598,10.);
#429=CIRCLE('',#1178,1.00000001490116);
#430=CIRCLE('',#1179,1.00000001490116);
#431=CIRCLE('',#1183,1.00000001490116);
#432=CIRCLE('',#1184,1.00000001490116);
#433=CIRCLE('',#1188,1.00000001490116);
#434=CIRCLE('',#1189,1.00000001490116);
#435=CIRCLE('',#1193,1.00000001490116);
#436=CIRCLE('',#1194,1.00000001490116);
#437=CIRCLE('',#1201,7.5);
#438=CIRCLE('',#1202,7.5);
#439=CIRCLE('',#1203,7.5);
#440=CIRCLE('',#1204,7.5);
#441=CIRCLE('',#1205,2.00000002980232);
#442=CIRCLE('',#1206,10.);
#443=CIRCLE('',#1207,2.00000002980232);
#444=CIRCLE('',#1208,2.00000002980232);
#445=CIRCLE('',#1209,10.);
#446=CIRCLE('',#1210,2.00000002980232);
#447=CIRCLE('',#1211,2.00000002980232);
#448=CIRCLE('',#1212,10.);
#449=CIRCLE('',#1213,2.00000002980232);
#450=CIRCLE('',#1214,2.00000002980232);
#451=CIRCLE('',#1215,10.);
#452=CIRCLE('',#1216,2.00000002980232);
#453=CIRCLE('',#1220,2.00000002980232);
#454=CIRCLE('',#1225,2.00000002980232);
#455=CIRCLE('',#1229,2.00000002980232);
#456=CIRCLE('',#1234,2.00000002980232);
#457=CIRCLE('',#1237,2.00000002980232);
#458=CIRCLE('',#1242,2.00000002980232);
#459=CIRCLE('',#1247,2.00000002980232);
#460=CIRCLE('',#1252,2.00000002980232);
#461=CIRCLE('',#1255,10.);
#462=CIRCLE('',#1257,10.);
#463=CIRCLE('',#1259,10.);
#464=CIRCLE('',#1261,10.);
#465=CIRCLE('',#1263,7.5);
#466=CIRCLE('',#1266,7.5);
#467=CIRCLE('',#1269,7.5);
#468=CIRCLE('',#1272,7.5);
#469=VERTEX_POINT('',#1603);
#470=VERTEX_POINT('',#1604);
#471=VERTEX_POINT('',#1606);
#472=VERTEX_POINT('',#1608);
#473=VERTEX_POINT('',#1612);
#474=VERTEX_POINT('',#1614);
#475=VERTEX_POINT('',#1618);
#476=VERTEX_POINT('',#1620);
#477=VERTEX_POINT('',#1624);
#478=VERTEX_POINT('',#1625);
#479=VERTEX_POINT('',#1627);
#480=VERTEX_POINT('',#1629);
#481=VERTEX_POINT('',#1633);
#482=VERTEX_POINT('',#1635);
#483=VERTEX_POINT('',#1639);
#484=VERTEX_POINT('',#1641);
#485=VERTEX_POINT('',#1645);
#486=VERTEX_POINT('',#1646);
#487=VERTEX_POINT('',#1648);
#488=VERTEX_POINT('',#1650);
#489=VERTEX_POINT('',#1654);
#490=VERTEX_POINT('',#1656);
#491=VERTEX_POINT('',#1660);
#492=VERTEX_POINT('',#1662);
#493=VERTEX_POINT('',#1666);
#494=VERTEX_POINT('',#1667);
#495=VERTEX_POINT('',#1669);
#496=VERTEX_POINT('',#1671);
#497=VERTEX_POINT('',#1675);
#498=VERTEX_POINT('',#1677);
#499=VERTEX_POINT('',#1681);
#500=VERTEX_POINT('',#1683);
#501=VERTEX_POINT('',#1687);
#502=VERTEX_POINT('',#1689);
#503=VERTEX_POINT('',#1693);
#504=VERTEX_POINT('',#1695);
#505=VERTEX_POINT('',#1699);
#506=VERTEX_POINT('',#1701);
#507=VERTEX_POINT('',#1705);
#508=VERTEX_POINT('',#1706);
#509=VERTEX_POINT('',#1708);
#510=VERTEX_POINT('',#1710);
#511=VERTEX_POINT('',#1712);
#512=VERTEX_POINT('',#1714);
#513=VERTEX_POINT('',#1716);
#514=VERTEX_POINT('',#1718);
#515=VERTEX_POINT('',#1721);
#516=VERTEX_POINT('',#1723);
#517=VERTEX_POINT('',#1725);
#518=VERTEX_POINT('',#1727);
#519=VERTEX_POINT('',#1729);
#520=VERTEX_POINT('',#1731);
#521=VERTEX_POINT('',#1733);
#522=VERTEX_POINT('',#1736);
#523=VERTEX_POINT('',#1738);
#524=VERTEX_POINT('',#1740);
#525=VERTEX_POINT('',#1742);
#526=VERTEX_POINT('',#1744);
#527=VERTEX_POINT('',#1746);
#528=VERTEX_POINT('',#1748);
#529=VERTEX_POINT('',#1750);
#530=VERTEX_POINT('',#1753);
#531=VERTEX_POINT('',#1755);
#532=VERTEX_POINT('',#1757);
#533=VERTEX_POINT('',#1759);
#534=VERTEX_POINT('',#1761);
#535=VERTEX_POINT('',#1763);
#536=VERTEX_POINT('',#1765);
#537=VERTEX_POINT('',#1768);
#538=VERTEX_POINT('',#1770);
#539=VERTEX_POINT('',#1772);
#540=VERTEX_POINT('',#1774);
#541=VERTEX_POINT('',#1776);
#542=VERTEX_POINT('',#1778);
#543=VERTEX_POINT('',#1780);
#544=VERTEX_POINT('',#1784);
#545=VERTEX_POINT('',#1788);
#546=VERTEX_POINT('',#1792);
#547=VERTEX_POINT('',#1796);
#548=VERTEX_POINT('',#1800);
#549=VERTEX_POINT('',#1804);
#550=VERTEX_POINT('',#1806);
#551=VERTEX_POINT('',#1812);
#552=VERTEX_POINT('',#1816);
#553=VERTEX_POINT('',#1820);
#554=VERTEX_POINT('',#1824);
#555=VERTEX_POINT('',#1828);
#556=VERTEX_POINT('',#1832);
#557=VERTEX_POINT('',#1834);
#558=VERTEX_POINT('',#1840);
#559=VERTEX_POINT('',#1844);
#560=VERTEX_POINT('',#1848);
#561=VERTEX_POINT('',#1852);
#562=VERTEX_POINT('',#1856);
#563=VERTEX_POINT('',#1858);
#564=VERTEX_POINT('',#1862);
#565=VERTEX_POINT('',#1868);
#566=VERTEX_POINT('',#1872);
#567=VERTEX_POINT('',#1876);
#568=VERTEX_POINT('',#1880);
#569=VERTEX_POINT('',#1884);
#570=VERTEX_POINT('',#1888);
#571=VERTEX_POINT('',#1890);
#572=VERTEX_POINT('',#1896);
#573=VERTEX_POINT('',#1908);
#574=VERTEX_POINT('',#1909);
#575=VERTEX_POINT('',#1914);
#576=VERTEX_POINT('',#1918);
#577=VERTEX_POINT('',#1922);
#578=VERTEX_POINT('',#1926);
#579=VERTEX_POINT('',#1930);
#580=VERTEX_POINT('',#1934);
#581=EDGE_CURVE('',#469,#470,#429,.T.);
#582=EDGE_CURVE('',#471,#469,#173,.T.);
#583=EDGE_CURVE('',#472,#471,#430,.T.);
#584=EDGE_CURVE('',#472,#470,#174,.T.);
#585=EDGE_CURVE('',#470,#473,#175,.T.);
#586=EDGE_CURVE('',#474,#472,#176,.T.);
#587=EDGE_CURVE('',#473,#474,#177,.T.);
#588=EDGE_CURVE('',#475,#469,#178,.T.);
#589=EDGE_CURVE('',#476,#475,#179,.T.);
#590=EDGE_CURVE('',#471,#476,#180,.T.);
#591=EDGE_CURVE('',#477,#478,#431,.T.);
#592=EDGE_CURVE('',#479,#477,#181,.T.);
#593=EDGE_CURVE('',#480,#479,#432,.T.);
#594=EDGE_CURVE('',#480,#478,#182,.T.);
#595=EDGE_CURVE('',#478,#481,#183,.T.);
#596=EDGE_CURVE('',#482,#480,#184,.T.);
#597=EDGE_CURVE('',#481,#482,#185,.T.);
#598=EDGE_CURVE('',#483,#477,#186,.T.);
#599=EDGE_CURVE('',#484,#483,#187,.T.);
#600=EDGE_CURVE('',#479,#484,#188,.T.);
#601=EDGE_CURVE('',#485,#486,#433,.T.);
#602=EDGE_CURVE('',#487,#485,#189,.T.);
#603=EDGE_CURVE('',#488,#487,#434,.T.);
#604=EDGE_CURVE('',#488,#486,#190,.T.);
#605=EDGE_CURVE('',#486,#489,#191,.T.);
#606=EDGE_CURVE('',#490,#488,#192,.T.);
#607=EDGE_CURVE('',#489,#490,#193,.T.);
#608=EDGE_CURVE('',#491,#485,#194,.T.);
#609=EDGE_CURVE('',#492,#491,#195,.T.);
#610=EDGE_CURVE('',#487,#492,#196,.T.);
#611=EDGE_CURVE('',#493,#494,#435,.T.);
#612=EDGE_CURVE('',#495,#493,#197,.T.);
#613=EDGE_CURVE('',#496,#495,#436,.T.);
#614=EDGE_CURVE('',#496,#494,#198,.T.);
#615=EDGE_CURVE('',#494,#497,#199,.T.);
#616=EDGE_CURVE('',#498,#496,#200,.T.);
#617=EDGE_CURVE('',#497,#498,#201,.T.);
#618=EDGE_CURVE('',#499,#493,#202,.T.);
#619=EDGE_CURVE('',#500,#499,#203,.T.);
#620=EDGE_CURVE('',#495,#500,#204,.T.);
#621=EDGE_CURVE('',#501,#474,#205,.T.);
#622=EDGE_CURVE('',#501,#502,#206,.T.);
#623=EDGE_CURVE('',#473,#502,#207,.T.);
#624=EDGE_CURVE('',#503,#482,#208,.T.);
#625=EDGE_CURVE('',#503,#504,#209,.T.);
#626=EDGE_CURVE('',#481,#504,#210,.T.);
#627=EDGE_CURVE('',#505,#490,#211,.T.);
#628=EDGE_CURVE('',#505,#506,#212,.T.);
#629=EDGE_CURVE('',#489,#506,#213,.T.);
#630=EDGE_CURVE('',#507,#508,#437,.T.);
#631=EDGE_CURVE('',#507,#509,#214,.T.);
#632=EDGE_CURVE('',#510,#509,#438,.T.);
#633=EDGE_CURVE('',#510,#511,#215,.T.);
#634=EDGE_CURVE('',#512,#511,#439,.T.);
#635=EDGE_CURVE('',#512,#513,#216,.T.);
#636=EDGE_CURVE('',#514,#513,#440,.T.);
#637=EDGE_CURVE('',#514,#508,#217,.T.);
#638=EDGE_CURVE('',#502,#515,#441,.T.);
#639=EDGE_CURVE('',#515,#516,#218,.T.);
#640=EDGE_CURVE('',#516,#517,#219,.T.);
#641=EDGE_CURVE('',#517,#518,#442,.T.);
#642=EDGE_CURVE('',#518,#519,#220,.T.);
#643=EDGE_CURVE('',#519,#520,#221,.T.);
#644=EDGE_CURVE('',#520,#521,#443,.T.);
#645=EDGE_CURVE('',#521,#499,#222,.T.);
#646=EDGE_CURVE('',#497,#522,#223,.T.);
#647=EDGE_CURVE('',#522,#523,#444,.T.);
#648=EDGE_CURVE('',#523,#524,#224,.T.);
#649=EDGE_CURVE('',#524,#525,#225,.T.);
#650=EDGE_CURVE('',#525,#526,#445,.T.);
#651=EDGE_CURVE('',#526,#527,#226,.T.);
#652=EDGE_CURVE('',#527,#528,#227,.T.);
#653=EDGE_CURVE('',#528,#529,#446,.T.);
#654=EDGE_CURVE('',#529,#483,#228,.T.);
#655=EDGE_CURVE('',#504,#530,#447,.T.);
#656=EDGE_CURVE('',#530,#531,#229,.T.);
#657=EDGE_CURVE('',#531,#532,#230,.T.);
#658=EDGE_CURVE('',#532,#533,#448,.T.);
#659=EDGE_CURVE('',#533,#534,#231,.T.);
#660=EDGE_CURVE('',#534,#535,#232,.T.);
#661=EDGE_CURVE('',#535,#536,#449,.T.);
#662=EDGE_CURVE('',#536,#491,#233,.T.);
#663=EDGE_CURVE('',#506,#537,#450,.T.);
#664=EDGE_CURVE('',#537,#538,#234,.T.);
#665=EDGE_CURVE('',#538,#539,#235,.T.);
#666=EDGE_CURVE('',#539,#540,#451,.T.);
#667=EDGE_CURVE('',#540,#541,#236,.T.);
#668=EDGE_CURVE('',#541,#542,#237,.T.);
#669=EDGE_CURVE('',#542,#543,#452,.T.);
#670=EDGE_CURVE('',#543,#475,#238,.T.);
#671=EDGE_CURVE('',#544,#498,#239,.T.);
#672=EDGE_CURVE('',#544,#522,#240,.T.);
#673=EDGE_CURVE('',#545,#536,#241,.T.);
#674=EDGE_CURVE('',#492,#545,#242,.T.);
#675=EDGE_CURVE('',#546,#505,#453,.T.);
#676=EDGE_CURVE('',#546,#537,#243,.T.);
#677=EDGE_CURVE('',#547,#546,#244,.T.);
#678=EDGE_CURVE('',#547,#538,#245,.T.);
#679=EDGE_CURVE('',#548,#547,#246,.T.);
#680=EDGE_CURVE('',#539,#548,#247,.T.);
#681=EDGE_CURVE('',#549,#534,#248,.T.);
#682=EDGE_CURVE('',#550,#549,#249,.T.);
#683=EDGE_CURVE('',#550,#535,#250,.T.);
#684=EDGE_CURVE('',#545,#550,#454,.T.);
#685=EDGE_CURVE('',#551,#533,#251,.T.);
#686=EDGE_CURVE('',#549,#551,#252,.T.);
#687=EDGE_CURVE('',#552,#529,#253,.T.);
#688=EDGE_CURVE('',#484,#552,#254,.T.);
#689=EDGE_CURVE('',#553,#503,#455,.T.);
#690=EDGE_CURVE('',#553,#530,#255,.T.);
#691=EDGE_CURVE('',#554,#553,#256,.T.);
#692=EDGE_CURVE('',#554,#531,#257,.T.);
#693=EDGE_CURVE('',#555,#554,#258,.T.);
#694=EDGE_CURVE('',#532,#555,#259,.T.);
#695=EDGE_CURVE('',#556,#527,#260,.T.);
#696=EDGE_CURVE('',#557,#556,#261,.T.);
#697=EDGE_CURVE('',#557,#528,#262,.T.);
#698=EDGE_CURVE('',#552,#557,#456,.T.);
#699=EDGE_CURVE('',#558,#526,#263,.T.);
#700=EDGE_CURVE('',#556,#558,#264,.T.);
#701=EDGE_CURVE('',#559,#501,#457,.T.);
#702=EDGE_CURVE('',#559,#515,#265,.T.);
#703=EDGE_CURVE('',#560,#559,#266,.T.);
#704=EDGE_CURVE('',#560,#516,#267,.T.);
#705=EDGE_CURVE('',#561,#560,#268,.T.);
#706=EDGE_CURVE('',#517,#561,#269,.T.);
#707=EDGE_CURVE('',#562,#541,#270,.T.);
#708=EDGE_CURVE('',#563,#562,#271,.T.);
#709=EDGE_CURVE('',#563,#542,#272,.T.);
#710=EDGE_CURVE('',#564,#563,#458,.T.);
#711=EDGE_CURVE('',#564,#543,#273,.T.);
#712=EDGE_CURVE('',#476,#564,#274,.T.);
#713=EDGE_CURVE('',#565,#540,#275,.T.);
#714=EDGE_CURVE('',#562,#565,#276,.T.);
#715=EDGE_CURVE('',#566,#521,#277,.T.);
#716=EDGE_CURVE('',#500,#566,#278,.T.);
#717=EDGE_CURVE('',#567,#544,#459,.T.);
#718=EDGE_CURVE('',#567,#523,#279,.T.);
#719=EDGE_CURVE('',#568,#567,#280,.T.);
#720=EDGE_CURVE('',#568,#524,#281,.T.);
#721=EDGE_CURVE('',#569,#568,#282,.T.);
#722=EDGE_CURVE('',#525,#569,#283,.T.);
#723=EDGE_CURVE('',#570,#519,#284,.T.);
#724=EDGE_CURVE('',#571,#570,#285,.T.);
#725=EDGE_CURVE('',#571,#520,#286,.T.);
#726=EDGE_CURVE('',#566,#571,#460,.T.);
#727=EDGE_CURVE('',#572,#518,#287,.T.);
#728=EDGE_CURVE('',#570,#572,#288,.T.);
#729=EDGE_CURVE('',#572,#561,#461,.T.);
#730=EDGE_CURVE('',#558,#569,#462,.T.);
#731=EDGE_CURVE('',#565,#548,#463,.T.);
#732=EDGE_CURVE('',#551,#555,#464,.T.);
#733=EDGE_CURVE('',#573,#574,#465,.T.);
#734=EDGE_CURVE('',#574,#507,#289,.T.);
#735=EDGE_CURVE('',#508,#573,#290,.T.);
#736=EDGE_CURVE('',#575,#514,#291,.T.);
#737=EDGE_CURVE('',#573,#575,#292,.T.);
#738=EDGE_CURVE('',#576,#575,#466,.T.);
#739=EDGE_CURVE('',#513,#576,#293,.T.);
#740=EDGE_CURVE('',#577,#512,#294,.T.);
#741=EDGE_CURVE('',#576,#577,#295,.T.);
#742=EDGE_CURVE('',#578,#577,#467,.T.);
#743=EDGE_CURVE('',#511,#578,#296,.T.);
#744=EDGE_CURVE('',#579,#510,#297,.T.);
#745=EDGE_CURVE('',#578,#579,#298,.T.);
#746=EDGE_CURVE('',#580,#579,#468,.T.);
#747=EDGE_CURVE('',#509,#580,#299,.T.);
#748=EDGE_CURVE('',#580,#574,#300,.T.);
#749=ORIENTED_EDGE('',*,*,#581,.F.);
#750=ORIENTED_EDGE('',*,*,#582,.F.);
#751=ORIENTED_EDGE('',*,*,#583,.F.);
#752=ORIENTED_EDGE('',*,*,#584,.T.);
#753=ORIENTED_EDGE('',*,*,#585,.F.);
#754=ORIENTED_EDGE('',*,*,#584,.F.);
#755=ORIENTED_EDGE('',*,*,#586,.F.);
#756=ORIENTED_EDGE('',*,*,#587,.F.);
#757=ORIENTED_EDGE('',*,*,#588,.F.);
#758=ORIENTED_EDGE('',*,*,#589,.F.);
#759=ORIENTED_EDGE('',*,*,#590,.F.);
#760=ORIENTED_EDGE('',*,*,#582,.T.);
#761=ORIENTED_EDGE('',*,*,#591,.F.);
#762=ORIENTED_EDGE('',*,*,#592,.F.);
#763=ORIENTED_EDGE('',*,*,#593,.F.);
#764=ORIENTED_EDGE('',*,*,#594,.T.);
#765=ORIENTED_EDGE('',*,*,#595,.F.);
#766=ORIENTED_EDGE('',*,*,#594,.F.);
#767=ORIENTED_EDGE('',*,*,#596,.F.);
#768=ORIENTED_EDGE('',*,*,#597,.F.);
#769=ORIENTED_EDGE('',*,*,#598,.F.);
#770=ORIENTED_EDGE('',*,*,#599,.F.);
#771=ORIENTED_EDGE('',*,*,#600,.F.);
#772=ORIENTED_EDGE('',*,*,#592,.T.);
#773=ORIENTED_EDGE('',*,*,#601,.F.);
#774=ORIENTED_EDGE('',*,*,#602,.F.);
#775=ORIENTED_EDGE('',*,*,#603,.F.);
#776=ORIENTED_EDGE('',*,*,#604,.T.);
#777=ORIENTED_EDGE('',*,*,#605,.F.);
#778=ORIENTED_EDGE('',*,*,#604,.F.);
#779=ORIENTED_EDGE('',*,*,#606,.F.);
#780=ORIENTED_EDGE('',*,*,#607,.F.);
#781=ORIENTED_EDGE('',*,*,#608,.F.);
#782=ORIENTED_EDGE('',*,*,#609,.F.);
#783=ORIENTED_EDGE('',*,*,#610,.F.);
#784=ORIENTED_EDGE('',*,*,#602,.T.);
#785=ORIENTED_EDGE('',*,*,#611,.F.);
#786=ORIENTED_EDGE('',*,*,#612,.F.);
#787=ORIENTED_EDGE('',*,*,#613,.F.);
#788=ORIENTED_EDGE('',*,*,#614,.T.);
#789=ORIENTED_EDGE('',*,*,#615,.F.);
#790=ORIENTED_EDGE('',*,*,#614,.F.);
#791=ORIENTED_EDGE('',*,*,#616,.F.);
#792=ORIENTED_EDGE('',*,*,#617,.F.);
#793=ORIENTED_EDGE('',*,*,#618,.F.);
#794=ORIENTED_EDGE('',*,*,#619,.F.);
#795=ORIENTED_EDGE('',*,*,#620,.F.);
#796=ORIENTED_EDGE('',*,*,#612,.T.);
#797=ORIENTED_EDGE('',*,*,#587,.T.);
#798=ORIENTED_EDGE('',*,*,#621,.F.);
#799=ORIENTED_EDGE('',*,*,#622,.T.);
#800=ORIENTED_EDGE('',*,*,#623,.F.);
#801=ORIENTED_EDGE('',*,*,#597,.T.);
#802=ORIENTED_EDGE('',*,*,#624,.F.);
#803=ORIENTED_EDGE('',*,*,#625,.T.);
#804=ORIENTED_EDGE('',*,*,#626,.F.);
#805=ORIENTED_EDGE('',*,*,#607,.T.);
#806=ORIENTED_EDGE('',*,*,#627,.F.);
#807=ORIENTED_EDGE('',*,*,#628,.T.);
#808=ORIENTED_EDGE('',*,*,#629,.F.);
#809=ORIENTED_EDGE('',*,*,#630,.F.);
#810=ORIENTED_EDGE('',*,*,#631,.T.);
#811=ORIENTED_EDGE('',*,*,#632,.F.);
#812=ORIENTED_EDGE('',*,*,#633,.T.);
#813=ORIENTED_EDGE('',*,*,#634,.F.);
#814=ORIENTED_EDGE('',*,*,#635,.T.);
#815=ORIENTED_EDGE('',*,*,#636,.F.);
#816=ORIENTED_EDGE('',*,*,#637,.T.);
#817=ORIENTED_EDGE('',*,*,#588,.T.);
#818=ORIENTED_EDGE('',*,*,#581,.T.);
#819=ORIENTED_EDGE('',*,*,#585,.T.);
#820=ORIENTED_EDGE('',*,*,#623,.T.);
#821=ORIENTED_EDGE('',*,*,#638,.T.);
#822=ORIENTED_EDGE('',*,*,#639,.T.);
#823=ORIENTED_EDGE('',*,*,#640,.T.);
#824=ORIENTED_EDGE('',*,*,#641,.T.);
#825=ORIENTED_EDGE('',*,*,#642,.T.);
#826=ORIENTED_EDGE('',*,*,#643,.T.);
#827=ORIENTED_EDGE('',*,*,#644,.T.);
#828=ORIENTED_EDGE('',*,*,#645,.T.);
#829=ORIENTED_EDGE('',*,*,#618,.T.);
#830=ORIENTED_EDGE('',*,*,#611,.T.);
#831=ORIENTED_EDGE('',*,*,#615,.T.);
#832=ORIENTED_EDGE('',*,*,#646,.T.);
#833=ORIENTED_EDGE('',*,*,#647,.T.);
#834=ORIENTED_EDGE('',*,*,#648,.T.);
#835=ORIENTED_EDGE('',*,*,#649,.T.);
#836=ORIENTED_EDGE('',*,*,#650,.T.);
#837=ORIENTED_EDGE('',*,*,#651,.T.);
#838=ORIENTED_EDGE('',*,*,#652,.T.);
#839=ORIENTED_EDGE('',*,*,#653,.T.);
#840=ORIENTED_EDGE('',*,*,#654,.T.);
#841=ORIENTED_EDGE('',*,*,#598,.T.);
#842=ORIENTED_EDGE('',*,*,#591,.T.);
#843=ORIENTED_EDGE('',*,*,#595,.T.);
#844=ORIENTED_EDGE('',*,*,#626,.T.);
#845=ORIENTED_EDGE('',*,*,#655,.T.);
#846=ORIENTED_EDGE('',*,*,#656,.T.);
#847=ORIENTED_EDGE('',*,*,#657,.T.);
#848=ORIENTED_EDGE('',*,*,#658,.T.);
#849=ORIENTED_EDGE('',*,*,#659,.T.);
#850=ORIENTED_EDGE('',*,*,#660,.T.);
#851=ORIENTED_EDGE('',*,*,#661,.T.);
#852=ORIENTED_EDGE('',*,*,#662,.T.);
#853=ORIENTED_EDGE('',*,*,#608,.T.);
#854=ORIENTED_EDGE('',*,*,#601,.T.);
#855=ORIENTED_EDGE('',*,*,#605,.T.);
#856=ORIENTED_EDGE('',*,*,#629,.T.);
#857=ORIENTED_EDGE('',*,*,#663,.T.);
#858=ORIENTED_EDGE('',*,*,#664,.T.);
#859=ORIENTED_EDGE('',*,*,#665,.T.);
#860=ORIENTED_EDGE('',*,*,#666,.T.);
#861=ORIENTED_EDGE('',*,*,#667,.T.);
#862=ORIENTED_EDGE('',*,*,#668,.T.);
#863=ORIENTED_EDGE('',*,*,#669,.T.);
#864=ORIENTED_EDGE('',*,*,#670,.T.);
#865=ORIENTED_EDGE('',*,*,#617,.T.);
#866=ORIENTED_EDGE('',*,*,#671,.F.);
#867=ORIENTED_EDGE('',*,*,#672,.T.);
#868=ORIENTED_EDGE('',*,*,#646,.F.);
#869=ORIENTED_EDGE('',*,*,#609,.T.);
#870=ORIENTED_EDGE('',*,*,#662,.F.);
#871=ORIENTED_EDGE('',*,*,#673,.F.);
#872=ORIENTED_EDGE('',*,*,#674,.F.);
#873=ORIENTED_EDGE('',*,*,#663,.F.);
#874=ORIENTED_EDGE('',*,*,#628,.F.);
#875=ORIENTED_EDGE('',*,*,#675,.F.);
#876=ORIENTED_EDGE('',*,*,#676,.T.);
#877=ORIENTED_EDGE('',*,*,#664,.F.);
#878=ORIENTED_EDGE('',*,*,#676,.F.);
#879=ORIENTED_EDGE('',*,*,#677,.F.);
#880=ORIENTED_EDGE('',*,*,#678,.T.);
#881=ORIENTED_EDGE('',*,*,#665,.F.);
#882=ORIENTED_EDGE('',*,*,#678,.F.);
#883=ORIENTED_EDGE('',*,*,#679,.F.);
#884=ORIENTED_EDGE('',*,*,#680,.F.);
#885=ORIENTED_EDGE('',*,*,#660,.F.);
#886=ORIENTED_EDGE('',*,*,#681,.F.);
#887=ORIENTED_EDGE('',*,*,#682,.F.);
#888=ORIENTED_EDGE('',*,*,#683,.T.);
#889=ORIENTED_EDGE('',*,*,#661,.F.);
#890=ORIENTED_EDGE('',*,*,#683,.F.);
#891=ORIENTED_EDGE('',*,*,#684,.F.);
#892=ORIENTED_EDGE('',*,*,#673,.T.);
#893=ORIENTED_EDGE('',*,*,#659,.F.);
#894=ORIENTED_EDGE('',*,*,#685,.F.);
#895=ORIENTED_EDGE('',*,*,#686,.F.);
#896=ORIENTED_EDGE('',*,*,#681,.T.);
#897=ORIENTED_EDGE('',*,*,#599,.T.);
#898=ORIENTED_EDGE('',*,*,#654,.F.);
#899=ORIENTED_EDGE('',*,*,#687,.F.);
#900=ORIENTED_EDGE('',*,*,#688,.F.);
#901=ORIENTED_EDGE('',*,*,#655,.F.);
#902=ORIENTED_EDGE('',*,*,#625,.F.);
#903=ORIENTED_EDGE('',*,*,#689,.F.);
#904=ORIENTED_EDGE('',*,*,#690,.T.);
#905=ORIENTED_EDGE('',*,*,#656,.F.);
#906=ORIENTED_EDGE('',*,*,#690,.F.);
#907=ORIENTED_EDGE('',*,*,#691,.F.);
#908=ORIENTED_EDGE('',*,*,#692,.T.);
#909=ORIENTED_EDGE('',*,*,#657,.F.);
#910=ORIENTED_EDGE('',*,*,#692,.F.);
#911=ORIENTED_EDGE('',*,*,#693,.F.);
#912=ORIENTED_EDGE('',*,*,#694,.F.);
#913=ORIENTED_EDGE('',*,*,#652,.F.);
#914=ORIENTED_EDGE('',*,*,#695,.F.);
#915=ORIENTED_EDGE('',*,*,#696,.F.);
#916=ORIENTED_EDGE('',*,*,#697,.T.);
#917=ORIENTED_EDGE('',*,*,#653,.F.);
#918=ORIENTED_EDGE('',*,*,#697,.F.);
#919=ORIENTED_EDGE('',*,*,#698,.F.);
#920=ORIENTED_EDGE('',*,*,#687,.T.);
#921=ORIENTED_EDGE('',*,*,#651,.F.);
#922=ORIENTED_EDGE('',*,*,#699,.F.);
#923=ORIENTED_EDGE('',*,*,#700,.F.);
#924=ORIENTED_EDGE('',*,*,#695,.T.);
#925=ORIENTED_EDGE('',*,*,#638,.F.);
#926=ORIENTED_EDGE('',*,*,#622,.F.);
#927=ORIENTED_EDGE('',*,*,#701,.F.);
#928=ORIENTED_EDGE('',*,*,#702,.T.);
#929=ORIENTED_EDGE('',*,*,#639,.F.);
#930=ORIENTED_EDGE('',*,*,#702,.F.);
#931=ORIENTED_EDGE('',*,*,#703,.F.);
#932=ORIENTED_EDGE('',*,*,#704,.T.);
#933=ORIENTED_EDGE('',*,*,#640,.F.);
#934=ORIENTED_EDGE('',*,*,#704,.F.);
#935=ORIENTED_EDGE('',*,*,#705,.F.);
#936=ORIENTED_EDGE('',*,*,#706,.F.);
#937=ORIENTED_EDGE('',*,*,#668,.F.);
#938=ORIENTED_EDGE('',*,*,#707,.F.);
#939=ORIENTED_EDGE('',*,*,#708,.F.);
#940=ORIENTED_EDGE('',*,*,#709,.T.);
#941=ORIENTED_EDGE('',*,*,#669,.F.);
#942=ORIENTED_EDGE('',*,*,#709,.F.);
#943=ORIENTED_EDGE('',*,*,#710,.F.);
#944=ORIENTED_EDGE('',*,*,#711,.T.);
#945=ORIENTED_EDGE('',*,*,#589,.T.);
#946=ORIENTED_EDGE('',*,*,#670,.F.);
#947=ORIENTED_EDGE('',*,*,#711,.F.);
#948=ORIENTED_EDGE('',*,*,#712,.F.);
#949=ORIENTED_EDGE('',*,*,#667,.F.);
#950=ORIENTED_EDGE('',*,*,#713,.F.);
#951=ORIENTED_EDGE('',*,*,#714,.F.);
#952=ORIENTED_EDGE('',*,*,#707,.T.);
#953=ORIENTED_EDGE('',*,*,#619,.T.);
#954=ORIENTED_EDGE('',*,*,#645,.F.);
#955=ORIENTED_EDGE('',*,*,#715,.F.);
#956=ORIENTED_EDGE('',*,*,#716,.F.);
#957=ORIENTED_EDGE('',*,*,#647,.F.);
#958=ORIENTED_EDGE('',*,*,#672,.F.);
#959=ORIENTED_EDGE('',*,*,#717,.F.);
#960=ORIENTED_EDGE('',*,*,#718,.T.);
#961=ORIENTED_EDGE('',*,*,#648,.F.);
#962=ORIENTED_EDGE('',*,*,#718,.F.);
#963=ORIENTED_EDGE('',*,*,#719,.F.);
#964=ORIENTED_EDGE('',*,*,#720,.T.);
#965=ORIENTED_EDGE('',*,*,#649,.F.);
#966=ORIENTED_EDGE('',*,*,#720,.F.);
#967=ORIENTED_EDGE('',*,*,#721,.F.);
#968=ORIENTED_EDGE('',*,*,#722,.F.);
#969=ORIENTED_EDGE('',*,*,#643,.F.);
#970=ORIENTED_EDGE('',*,*,#723,.F.);
#971=ORIENTED_EDGE('',*,*,#724,.F.);
#972=ORIENTED_EDGE('',*,*,#725,.T.);
#973=ORIENTED_EDGE('',*,*,#644,.F.);
#974=ORIENTED_EDGE('',*,*,#725,.F.);
#975=ORIENTED_EDGE('',*,*,#726,.F.);
#976=ORIENTED_EDGE('',*,*,#715,.T.);
#977=ORIENTED_EDGE('',*,*,#642,.F.);
#978=ORIENTED_EDGE('',*,*,#727,.F.);
#979=ORIENTED_EDGE('',*,*,#728,.F.);
#980=ORIENTED_EDGE('',*,*,#723,.T.);
#981=ORIENTED_EDGE('',*,*,#706,.T.);
#982=ORIENTED_EDGE('',*,*,#729,.F.);
#983=ORIENTED_EDGE('',*,*,#727,.T.);
#984=ORIENTED_EDGE('',*,*,#641,.F.);
#985=ORIENTED_EDGE('',*,*,#699,.T.);
#986=ORIENTED_EDGE('',*,*,#650,.F.);
#987=ORIENTED_EDGE('',*,*,#722,.T.);
#988=ORIENTED_EDGE('',*,*,#730,.F.);
#989=ORIENTED_EDGE('',*,*,#680,.T.);
#990=ORIENTED_EDGE('',*,*,#731,.F.);
#991=ORIENTED_EDGE('',*,*,#713,.T.);
#992=ORIENTED_EDGE('',*,*,#666,.F.);
#993=ORIENTED_EDGE('',*,*,#685,.T.);
#994=ORIENTED_EDGE('',*,*,#658,.F.);
#995=ORIENTED_EDGE('',*,*,#694,.T.);
#996=ORIENTED_EDGE('',*,*,#732,.F.);
#997=ORIENTED_EDGE('',*,*,#733,.T.);
#998=ORIENTED_EDGE('',*,*,#734,.T.);
#999=ORIENTED_EDGE('',*,*,#630,.T.);
#1000=ORIENTED_EDGE('',*,*,#735,.T.);
#1001=ORIENTED_EDGE('',*,*,#735,.F.);
#1002=ORIENTED_EDGE('',*,*,#637,.F.);
#1003=ORIENTED_EDGE('',*,*,#736,.F.);
#1004=ORIENTED_EDGE('',*,*,#737,.F.);
#1005=ORIENTED_EDGE('',*,*,#738,.T.);
#1006=ORIENTED_EDGE('',*,*,#736,.T.);
#1007=ORIENTED_EDGE('',*,*,#636,.T.);
#1008=ORIENTED_EDGE('',*,*,#739,.T.);
#1009=ORIENTED_EDGE('',*,*,#739,.F.);
#1010=ORIENTED_EDGE('',*,*,#635,.F.);
#1011=ORIENTED_EDGE('',*,*,#740,.F.);
#1012=ORIENTED_EDGE('',*,*,#741,.F.);
#1013=ORIENTED_EDGE('',*,*,#742,.T.);
#1014=ORIENTED_EDGE('',*,*,#740,.T.);
#1015=ORIENTED_EDGE('',*,*,#634,.T.);
#1016=ORIENTED_EDGE('',*,*,#743,.T.);
#1017=ORIENTED_EDGE('',*,*,#743,.F.);
#1018=ORIENTED_EDGE('',*,*,#633,.F.);
#1019=ORIENTED_EDGE('',*,*,#744,.F.);
#1020=ORIENTED_EDGE('',*,*,#745,.F.);
#1021=ORIENTED_EDGE('',*,*,#746,.T.);
#1022=ORIENTED_EDGE('',*,*,#744,.T.);
#1023=ORIENTED_EDGE('',*,*,#632,.T.);
#1024=ORIENTED_EDGE('',*,*,#747,.T.);
#1025=ORIENTED_EDGE('',*,*,#734,.F.);
#1026=ORIENTED_EDGE('',*,*,#748,.F.);
#1027=ORIENTED_EDGE('',*,*,#747,.F.);
#1028=ORIENTED_EDGE('',*,*,#631,.F.);
#1029=ORIENTED_EDGE('',*,*,#733,.F.);
#1030=ORIENTED_EDGE('',*,*,#737,.T.);
#1031=ORIENTED_EDGE('',*,*,#738,.F.);
#1032=ORIENTED_EDGE('',*,*,#741,.T.);
#1033=ORIENTED_EDGE('',*,*,#742,.F.);
#1034=ORIENTED_EDGE('',*,*,#745,.T.);
#1035=ORIENTED_EDGE('',*,*,#746,.F.);
#1036=ORIENTED_EDGE('',*,*,#748,.T.);
#1037=ORIENTED_EDGE('',*,*,#590,.T.);
#1038=ORIENTED_EDGE('',*,*,#712,.T.);
#1039=ORIENTED_EDGE('',*,*,#710,.T.);
#1040=ORIENTED_EDGE('',*,*,#708,.T.);
#1041=ORIENTED_EDGE('',*,*,#714,.T.);
#1042=ORIENTED_EDGE('',*,*,#731,.T.);
#1043=ORIENTED_EDGE('',*,*,#679,.T.);
#1044=ORIENTED_EDGE('',*,*,#677,.T.);
#1045=ORIENTED_EDGE('',*,*,#675,.T.);
#1046=ORIENTED_EDGE('',*,*,#627,.T.);
#1047=ORIENTED_EDGE('',*,*,#606,.T.);
#1048=ORIENTED_EDGE('',*,*,#603,.T.);
#1049=ORIENTED_EDGE('',*,*,#610,.T.);
#1050=ORIENTED_EDGE('',*,*,#674,.T.);
#1051=ORIENTED_EDGE('',*,*,#684,.T.);
#1052=ORIENTED_EDGE('',*,*,#682,.T.);
#1053=ORIENTED_EDGE('',*,*,#686,.T.);
#1054=ORIENTED_EDGE('',*,*,#732,.T.);
#1055=ORIENTED_EDGE('',*,*,#693,.T.);
#1056=ORIENTED_EDGE('',*,*,#691,.T.);
#1057=ORIENTED_EDGE('',*,*,#689,.T.);
#1058=ORIENTED_EDGE('',*,*,#624,.T.);
#1059=ORIENTED_EDGE('',*,*,#596,.T.);
#1060=ORIENTED_EDGE('',*,*,#593,.T.);
#1061=ORIENTED_EDGE('',*,*,#600,.T.);
#1062=ORIENTED_EDGE('',*,*,#688,.T.);
#1063=ORIENTED_EDGE('',*,*,#698,.T.);
#1064=ORIENTED_EDGE('',*,*,#696,.T.);
#1065=ORIENTED_EDGE('',*,*,#700,.T.);
#1066=ORIENTED_EDGE('',*,*,#730,.T.);
#1067=ORIENTED_EDGE('',*,*,#721,.T.);
#1068=ORIENTED_EDGE('',*,*,#719,.T.);
#1069=ORIENTED_EDGE('',*,*,#717,.T.);
#1070=ORIENTED_EDGE('',*,*,#671,.T.);
#1071=ORIENTED_EDGE('',*,*,#616,.T.);
#1072=ORIENTED_EDGE('',*,*,#613,.T.);
#1073=ORIENTED_EDGE('',*,*,#620,.T.);
#1074=ORIENTED_EDGE('',*,*,#716,.T.);
#1075=ORIENTED_EDGE('',*,*,#726,.T.);
#1076=ORIENTED_EDGE('',*,*,#724,.T.);
#1077=ORIENTED_EDGE('',*,*,#728,.T.);
#1078=ORIENTED_EDGE('',*,*,#729,.T.);
#1079=ORIENTED_EDGE('',*,*,#705,.T.);
#1080=ORIENTED_EDGE('',*,*,#703,.T.);
#1081=ORIENTED_EDGE('',*,*,#701,.T.);
#1082=ORIENTED_EDGE('',*,*,#621,.T.);
#1083=ORIENTED_EDGE('',*,*,#586,.T.);
#1084=ORIENTED_EDGE('',*,*,#583,.T.);
#1085=CYLINDRICAL_SURFACE('',#1177,1.00000001490116);
#1086=CYLINDRICAL_SURFACE('',#1182,1.00000001490116);
#1087=CYLINDRICAL_SURFACE('',#1187,1.00000001490116);
#1088=CYLINDRICAL_SURFACE('',#1192,1.00000001490116);
#1089=CYLINDRICAL_SURFACE('',#1219,2.00000002980232);
#1090=CYLINDRICAL_SURFACE('',#1224,2.00000002980232);
#1091=CYLINDRICAL_SURFACE('',#1228,2.00000002980232);
#1092=CYLINDRICAL_SURFACE('',#1233,2.00000002980232);
#1093=CYLINDRICAL_SURFACE('',#1236,2.00000002980232);
#1094=CYLINDRICAL_SURFACE('',#1241,2.00000002980232);
#1095=CYLINDRICAL_SURFACE('',#1246,2.00000002980232);
#1096=CYLINDRICAL_SURFACE('',#1251,2.00000002980232);
#1097=CYLINDRICAL_SURFACE('',#1254,10.);
#1098=CYLINDRICAL_SURFACE('',#1256,10.);
#1099=CYLINDRICAL_SURFACE('',#1258,10.);
#1100=CYLINDRICAL_SURFACE('',#1260,10.);
#1101=CYLINDRICAL_SURFACE('',#1262,7.5);
#1102=CYLINDRICAL_SURFACE('',#1265,7.5);
#1103=CYLINDRICAL_SURFACE('',#1268,7.5);
#1104=CYLINDRICAL_SURFACE('',#1271,7.5);
#1105=ADVANCED_FACE('',(#55),#1085,.F.);
#1106=ADVANCED_FACE('',(#56),#17,.F.);
#1107=ADVANCED_FACE('',(#57),#18,.F.);
#1108=ADVANCED_FACE('',(#58),#1086,.F.);
#1109=ADVANCED_FACE('',(#59),#19,.F.);
#1110=ADVANCED_FACE('',(#60),#20,.F.);
#1111=ADVANCED_FACE('',(#61),#1087,.F.);
#1112=ADVANCED_FACE('',(#62),#21,.F.);
#1113=ADVANCED_FACE('',(#63),#22,.F.);
#1114=ADVANCED_FACE('',(#64),#1088,.F.);
#1115=ADVANCED_FACE('',(#65),#23,.F.);
#1116=ADVANCED_FACE('',(#66),#24,.F.);
#1117=ADVANCED_FACE('',(#67),#25,.F.);
#1118=ADVANCED_FACE('',(#68),#26,.F.);
#1119=ADVANCED_FACE('',(#69),#27,.F.);
#1120=ADVANCED_FACE('',(#70,#15),#28,.F.);
#1121=ADVANCED_FACE('',(#71),#29,.F.);
#1122=ADVANCED_FACE('',(#72),#30,.F.);
#1123=ADVANCED_FACE('',(#73),#1089,.F.);
#1124=ADVANCED_FACE('',(#74),#31,.F.);
#1125=ADVANCED_FACE('',(#75),#32,.F.);
#1126=ADVANCED_FACE('',(#76),#33,.F.);
#1127=ADVANCED_FACE('',(#77),#1090,.F.);
#1128=ADVANCED_FACE('',(#78),#34,.F.);
#1129=ADVANCED_FACE('',(#79),#35,.F.);
#1130=ADVANCED_FACE('',(#80),#1091,.F.);
#1131=ADVANCED_FACE('',(#81),#36,.F.);
#1132=ADVANCED_FACE('',(#82),#37,.F.);
#1133=ADVANCED_FACE('',(#83),#38,.F.);
#1134=ADVANCED_FACE('',(#84),#1092,.F.);
#1135=ADVANCED_FACE('',(#85),#39,.F.);
#1136=ADVANCED_FACE('',(#86),#1093,.F.);
#1137=ADVANCED_FACE('',(#87),#40,.F.);
#1138=ADVANCED_FACE('',(#88),#41,.F.);
#1139=ADVANCED_FACE('',(#89),#42,.F.);
#1140=ADVANCED_FACE('',(#90),#1094,.F.);
#1141=ADVANCED_FACE('',(#91),#43,.F.);
#1142=ADVANCED_FACE('',(#92),#44,.F.);
#1143=ADVANCED_FACE('',(#93),#45,.F.);
#1144=ADVANCED_FACE('',(#94),#1095,.F.);
#1145=ADVANCED_FACE('',(#95),#46,.F.);
#1146=ADVANCED_FACE('',(#96),#47,.F.);
#1147=ADVANCED_FACE('',(#97),#48,.F.);
#1148=ADVANCED_FACE('',(#98),#1096,.F.);
#1149=ADVANCED_FACE('',(#99),#49,.F.);
#1150=ADVANCED_FACE('',(#100),#1097,.F.);
#1151=ADVANCED_FACE('',(#101),#1098,.F.);
#1152=ADVANCED_FACE('',(#102),#1099,.F.);
#1153=ADVANCED_FACE('',(#103),#1100,.F.);
#1154=ADVANCED_FACE('',(#104),#1101,.T.);
#1155=ADVANCED_FACE('',(#105),#50,.T.);
#1156=ADVANCED_FACE('',(#106),#1102,.T.);
#1157=ADVANCED_FACE('',(#107),#51,.T.);
#1158=ADVANCED_FACE('',(#108),#1103,.T.);
#1159=ADVANCED_FACE('',(#109),#52,.T.);
#1160=ADVANCED_FACE('',(#110),#1104,.T.);
#1161=ADVANCED_FACE('',(#111),#53,.T.);
#1162=ADVANCED_FACE('',(#112,#16),#54,.T.);
#1163=CLOSED_SHELL('',(#1105,#1106,#1107,#1108,#1109,#1110,#1111,#1112,
#1113,#1114,#1115,#1116,#1117,#1118,#1119,#1120,#1121,#1122,#1123,#1124,
#1125,#1126,#1127,#1128,#1129,#1130,#1131,#1132,#1133,#1134,#1135,#1136,
#1137,#1138,#1139,#1140,#1141,#1142,#1143,#1144,#1145,#1146,#1147,#1148,
#1149,#1150,#1151,#1152,#1153,#1154,#1155,#1156,#1157,#1158,#1159,#1160,
#1161,#1162));
#1164=DERIVED_UNIT_ELEMENT(#1166,1.);
#1165=DERIVED_UNIT_ELEMENT(#1945,-3.);
#1166=(
MASS_UNIT()
NAMED_UNIT(*)
SI_UNIT(.KILO.,.GRAM.)
);
#1167=DERIVED_UNIT((#1164,#1165));
#1168=MEASURE_REPRESENTATION_ITEM('density measure',
POSITIVE_RATIO_MEASURE(7850.),#1167);
#1169=PROPERTY_DEFINITION_REPRESENTATION(#1174,#1171);
#1170=PROPERTY_DEFINITION_REPRESENTATION(#1175,#1172);
#1171=REPRESENTATION('material name',(#1173),#1942);
#1172=REPRESENTATION('density',(#1168),#1942);
#1173=DESCRIPTIVE_REPRESENTATION_ITEM('Steel','Steel');
#1174=PROPERTY_DEFINITION('material property','material name',#1952);
#1175=PROPERTY_DEFINITION('material property','density of part',#1952);
#1176=AXIS2_PLACEMENT_3D('',#1601,#1275,#1276);
#1177=AXIS2_PLACEMENT_3D('',#1602,#1277,#1278);
#1178=AXIS2_PLACEMENT_3D('',#1605,#1279,#1280);
#1179=AXIS2_PLACEMENT_3D('',#1609,#1282,#1283);
#1180=AXIS2_PLACEMENT_3D('',#1611,#1285,#1286);
#1181=AXIS2_PLACEMENT_3D('',#1617,#1290,#1291);
#1182=AXIS2_PLACEMENT_3D('',#1623,#1295,#1296);
#1183=AXIS2_PLACEMENT_3D('',#1626,#1297,#1298);
#1184=AXIS2_PLACEMENT_3D('',#1630,#1300,#1301);
#1185=AXIS2_PLACEMENT_3D('',#1632,#1303,#1304);
#1186=AXIS2_PLACEMENT_3D('',#1638,#1308,#1309);
#1187=AXIS2_PLACEMENT_3D('',#1644,#1313,#1314);
#1188=AXIS2_PLACEMENT_3D('',#1647,#1315,#1316);
#1189=AXIS2_PLACEMENT_3D('',#1651,#1318,#1319);
#1190=AXIS2_PLACEMENT_3D('',#1653,#1321,#1322);
#1191=AXIS2_PLACEMENT_3D('',#1659,#1326,#1327);
#1192=AXIS2_PLACEMENT_3D('',#1665,#1331,#1332);
#1193=AXIS2_PLACEMENT_3D('',#1668,#1333,#1334);
#1194=AXIS2_PLACEMENT_3D('',#1672,#1336,#1337);
#1195=AXIS2_PLACEMENT_3D('',#1674,#1339,#1340);
#1196=AXIS2_PLACEMENT_3D('',#1680,#1344,#1345);
#1197=AXIS2_PLACEMENT_3D('',#1686,#1349,#1350);
#1198=AXIS2_PLACEMENT_3D('',#1692,#1354,#1355);
#1199=AXIS2_PLACEMENT_3D('',#1698,#1359,#1360);
#1200=AXIS2_PLACEMENT_3D('',#1704,#1364,#1365);
#1201=AXIS2_PLACEMENT_3D('',#1707,#1366,#1367);
#1202=AXIS2_PLACEMENT_3D('',#1711,#1369,#1370);
#1203=AXIS2_PLACEMENT_3D('',#1715,#1372,#1373);
#1204=AXIS2_PLACEMENT_3D('',#1719,#1375,#1376);
#1205=AXIS2_PLACEMENT_3D('',#1722,#1378,#1379);
#1206=AXIS2_PLACEMENT_3D('',#1728,#1382,#1383);
#1207=AXIS2_PLACEMENT_3D('',#1734,#1386,#1387);
#1208=AXIS2_PLACEMENT_3D('',#1739,#1390,#1391);
#1209=AXIS2_PLACEMENT_3D('',#1745,#1394,#1395);
#1210=AXIS2_PLACEMENT_3D('',#1751,#1398,#1399);
#1211=AXIS2_PLACEMENT_3D('',#1754,#1401,#1402);
#1212=AXIS2_PLACEMENT_3D('',#1760,#1405,#1406);
#1213=AXIS2_PLACEMENT_3D('',#1766,#1409,#1410);
#1214=AXIS2_PLACEMENT_3D('',#1769,#1412,#1413);
#1215=AXIS2_PLACEMENT_3D('',#1775,#1416,#1417);
#1216=AXIS2_PLACEMENT_3D('',#1781,#1420,#1421);
#1217=AXIS2_PLACEMENT_3D('',#1783,#1423,#1424);
#1218=AXIS2_PLACEMENT_3D('',#1787,#1427,#1428);
#1219=AXIS2_PLACEMENT_3D('',#1791,#1431,#1432);
#1220=AXIS2_PLACEMENT_3D('',#1793,#1433,#1434);
#1221=AXIS2_PLACEMENT_3D('',#1795,#1436,#1437);
#1222=AXIS2_PLACEMENT_3D('',#1799,#1440,#1441);
#1223=AXIS2_PLACEMENT_3D('',#1803,#1444,#1445);
#1224=AXIS2_PLACEMENT_3D('',#1809,#1449,#1450);
#1225=AXIS2_PLACEMENT_3D('',#1810,#1451,#1452);
#1226=AXIS2_PLACEMENT_3D('',#1811,#1453,#1454);
#1227=AXIS2_PLACEMENT_3D('',#1815,#1457,#1458);
#1228=AXIS2_PLACEMENT_3D('',#1819,#1461,#1462);
#1229=AXIS2_PLACEMENT_3D('',#1821,#1463,#1464);
#1230=AXIS2_PLACEMENT_3D('',#1823,#1466,#1467);
#1231=AXIS2_PLACEMENT_3D('',#1827,#1470,#1471);
#1232=AXIS2_PLACEMENT_3D('',#1831,#1474,#1475);
#1233=AXIS2_PLACEMENT_3D('',#1837,#1479,#1480);
#1234=AXIS2_PLACEMENT_3D('',#1838,#1481,#1482);
#1235=AXIS2_PLACEMENT_3D('',#1839,#1483,#1484);
#1236=AXIS2_PLACEMENT_3D('',#1843,#1487,#1488);
#1237=AXIS2_PLACEMENT_3D('',#1845,#1489,#1490);
#1238=AXIS2_PLACEMENT_3D('',#1847,#1492,#1493);
#1239=AXIS2_PLACEMENT_3D('',#1851,#1496,#1497);
#1240=AXIS2_PLACEMENT_3D('',#1855,#1500,#1501);
#1241=AXIS2_PLACEMENT_3D('',#1861,#1505,#1506);
#1242=AXIS2_PLACEMENT_3D('',#1863,#1507,#1508);
#1243=AXIS2_PLACEMENT_3D('',#1865,#1510,#1511);
#1244=AXIS2_PLACEMENT_3D('',#1867,#1513,#1514);
#1245=AXIS2_PLACEMENT_3D('',#1871,#1517,#1518);
#1246=AXIS2_PLACEMENT_3D('',#1875,#1521,#1522);
#1247=AXIS2_PLACEMENT_3D('',#1877,#1523,#1524);
#1248=AXIS2_PLACEMENT_3D('',#1879,#1526,#1527);
#1249=AXIS2_PLACEMENT_3D('',#1883,#1530,#1531);
#1250=AXIS2_PLACEMENT_3D('',#1887,#1534,#1535);
#1251=AXIS2_PLACEMENT_3D('',#1893,#1539,#1540);
#1252=AXIS2_PLACEMENT_3D('',#1894,#1541,#1542);
#1253=AXIS2_PLACEMENT_3D('',#1895,#1543,#1544);
#1254=AXIS2_PLACEMENT_3D('',#1899,#1547,#1548);
#1255=AXIS2_PLACEMENT_3D('',#1900,#1549,#1550);
#1256=AXIS2_PLACEMENT_3D('',#1901,#1551,#1552);
#1257=AXIS2_PLACEMENT_3D('',#1902,#1553,#1554);
#1258=AXIS2_PLACEMENT_3D('',#1903,#1555,#1556);
#1259=AXIS2_PLACEMENT_3D('',#1904,#1557,#1558);
#1260=AXIS2_PLACEMENT_3D('',#1905,#1559,#1560);
#1261=AXIS2_PLACEMENT_3D('',#1906,#1561,#1562);
#1262=AXIS2_PLACEMENT_3D('',#1907,#1563,#1564);
#1263=AXIS2_PLACEMENT_3D('',#1910,#1565,#1566);
#1264=AXIS2_PLACEMENT_3D('',#1913,#1569,#1570);
#1265=AXIS2_PLACEMENT_3D('',#1917,#1573,#1574);
#1266=AXIS2_PLACEMENT_3D('',#1919,#1575,#1576);
#1267=AXIS2_PLACEMENT_3D('',#1921,#1578,#1579);
#1268=AXIS2_PLACEMENT_3D('',#1925,#1582,#1583);
#1269=AXIS2_PLACEMENT_3D('',#1927,#1584,#1585);
#1270=AXIS2_PLACEMENT_3D('',#1929,#1587,#1588);
#1271=AXIS2_PLACEMENT_3D('',#1933,#1591,#1592);
#1272=AXIS2_PLACEMENT_3D('',#1935,#1593,#1594);
#1273=AXIS2_PLACEMENT_3D('',#1937,#1596,#1597);
#1274=AXIS2_PLACEMENT_3D('',#1939,#1599,#1600);
#1275=DIRECTION('axis',(0.,0.,1.));
#1276=DIRECTION('refdir',(1.,0.,0.));
#1277=DIRECTION('center_axis',(0.,-1.,0.));
#1278=DIRECTION('ref_axis',(0.,0.,1.));
#1279=DIRECTION('center_axis',(0.,1.,0.));
#1280=DIRECTION('ref_axis',(0.,0.,1.));
#1281=DIRECTION('',(0.,-1.,0.));
#1282=DIRECTION('center_axis',(0.,-1.,0.));
#1283=DIRECTION('ref_axis',(0.,0.,1.));
#1284=DIRECTION('',(0.,-1.,0.));
#1285=DIRECTION('center_axis',(-2.42861283017838E-16,0.,-1.));
#1286=DIRECTION('ref_axis',(1.,0.,-2.42861283017838E-16));
#1287=DIRECTION('',(-1.,0.,2.42861283017838E-16));
#1288=DIRECTION('',(1.,0.,-2.42861283017838E-16));
#1289=DIRECTION('',(0.,1.,0.));
#1290=DIRECTION('center_axis',(2.42861283017838E-16,0.,1.));
#1291=DIRECTION('ref_axis',(-1.,0.,2.42861283017838E-16));
#1292=DIRECTION('',(1.,0.,-2.42861283017838E-16));
#1293=DIRECTION('',(0.,-1.,0.));
#1294=DIRECTION('',(-1.,0.,2.42861283017838E-16));
#1295=DIRECTION('center_axis',(0.,-1.,0.));
#1296=DIRECTION('ref_axis',(0.,0.,-1.));
#1297=DIRECTION('center_axis',(0.,1.,0.));
#1298=DIRECTION('ref_axis',(0.,0.,-1.));
#1299=DIRECTION('',(0.,-1.,0.));
#1300=DIRECTION('center_axis',(0.,-1.,0.));
#1301=DIRECTION('ref_axis',(0.,0.,-1.));
#1302=DIRECTION('',(0.,-1.,0.));
#1303=DIRECTION('center_axis',(-2.42861283017838E-16,0.,1.));
#1304=DIRECTION('ref_axis',(-1.,0.,-2.42861283017838E-16));
#1305=DIRECTION('',(1.,0.,2.42861283017838E-16));
#1306=DIRECTION('',(-1.,0.,-2.42861283017838E-16));
#1307=DIRECTION('',(0.,1.,0.));
#1308=DIRECTION('center_axis',(2.42861283017838E-16,0.,-1.));
#1309=DIRECTION('ref_axis',(1.,0.,2.42861283017838E-16));
#1310=DIRECTION('',(-1.,0.,-2.42861283017838E-16));
#1311=DIRECTION('',(0.,-1.,0.));
#1312=DIRECTION('',(1.,0.,2.42861283017838E-16));
#1313=DIRECTION('center_axis',(0.,-1.,0.));
#1314=DIRECTION('ref_axis',(-1.,0.,0.));
#1315=DIRECTION('center_axis',(0.,1.,0.));
#1316=DIRECTION('ref_axis',(-1.,0.,0.));
#1317=DIRECTION('',(0.,-1.,0.));
#1318=DIRECTION('center_axis',(0.,-1.,0.));
#1319=DIRECTION('ref_axis',(-1.,0.,0.));
#1320=DIRECTION('',(0.,-1.,0.));
#1321=DIRECTION('center_axis',(1.,0.,0.));
#1322=DIRECTION('ref_axis',(0.,0.,1.));
#1323=DIRECTION('',(0.,0.,-1.));
#1324=DIRECTION('',(0.,0.,1.));
#1325=DIRECTION('',(0.,1.,0.));
#1326=DIRECTION('center_axis',(-1.,0.,0.));
#1327=DIRECTION('ref_axis',(0.,0.,-1.));
#1328=DIRECTION('',(0.,0.,1.));
#1329=DIRECTION('',(0.,-1.,0.));
#1330=DIRECTION('',(0.,0.,-1.));
#1331=DIRECTION('center_axis',(0.,-1.,0.));
#1332=DIRECTION('ref_axis',(1.,0.,0.));
#1333=DIRECTION('center_axis',(0.,1.,0.));
#1334=DIRECTION('ref_axis',(1.,0.,0.));
#1335=DIRECTION('',(0.,-1.,0.));
#1336=DIRECTION('center_axis',(0.,-1.,0.));
#1337=DIRECTION('ref_axis',(1.,0.,0.));
#1338=DIRECTION('',(0.,-1.,0.));
#1339=DIRECTION('center_axis',(-1.,0.,-1.38777876010193E-16));
#1340=DIRECTION('ref_axis',(1.38777876010193E-16,0.,-1.));
#1341=DIRECTION('',(-1.38777876010193E-16,0.,1.));
#1342=DIRECTION('',(1.38777876010193E-16,0.,-1.));
#1343=DIRECTION('',(0.,1.,0.));
#1344=DIRECTION('center_axis',(1.,0.,1.38777876010193E-16));
#1345=DIRECTION('ref_axis',(-1.38777876010193E-16,0.,1.));
#1346=DIRECTION('',(1.38777876010193E-16,0.,-1.));
#1347=DIRECTION('',(0.,-1.,0.));
#1348=DIRECTION('',(-1.38777876010193E-16,0.,1.));
#1349=DIRECTION('center_axis',(1.,0.,0.));
#1350=DIRECTION('ref_axis',(0.,0.,1.));
#1351=DIRECTION('',(0.,0.,1.));
#1352=DIRECTION('',(0.,-1.,0.));
#1353=DIRECTION('',(0.,0.,-1.));
#1354=DIRECTION('center_axis',(-1.,0.,0.));
#1355=DIRECTION('ref_axis',(0.,0.,-1.));
#1356=DIRECTION('',(0.,0.,-1.));
#1357=DIRECTION('',(0.,-1.,0.));
#1358=DIRECTION('',(0.,0.,1.));
#1359=DIRECTION('center_axis',(0.,0.,1.));
#1360=DIRECTION('ref_axis',(-1.,0.,0.));
#1361=DIRECTION('',(-1.,0.,0.));
#1362=DIRECTION('',(0.,-1.,0.));
#1363=DIRECTION('',(1.,0.,0.));
#1364=DIRECTION('center_axis',(0.,1.,0.));
#1365=DIRECTION('ref_axis',(1.,0.,0.));
#1366=DIRECTION('center_axis',(0.,1.,0.));
#1367=DIRECTION('ref_axis',(0.707106781186547,0.,-0.707106781186547));
#1368=DIRECTION('',(0.,0.,1.));
#1369=DIRECTION('center_axis',(0.,1.,0.));
#1370=DIRECTION('ref_axis',(0.707106781186547,0.,0.707106781186547));
#1371=DIRECTION('',(-1.,0.,0.));
#1372=DIRECTION('center_axis',(0.,1.,0.));
#1373=DIRECTION('ref_axis',(-0.707106781186547,0.,0.707106781186547));
#1374=DIRECTION('',(0.,0.,-1.));
#1375=DIRECTION('center_axis',(0.,1.,0.));
#1376=DIRECTION('ref_axis',(-0.707106781186547,0.,-0.707106781186547));
#1377=DIRECTION('',(1.,0.,0.));
#1378=DIRECTION('center_axis',(0.,1.,0.));
#1379=DIRECTION('ref_axis',(1.,0.,-2.77555752020386E-16));
#1380=DIRECTION('',(0.,0.,1.));
#1381=DIRECTION('',(-1.,0.,2.22044601616309E-16));
#1382=DIRECTION('center_axis',(0.,1.,0.));
#1383=DIRECTION('ref_axis',(-1.,0.,0.));
#1384=DIRECTION('',(1.11022300808154E-16,0.,-1.));
#1385=DIRECTION('',(1.,0.,0.));
#1386=DIRECTION('center_axis',(0.,1.,0.));
#1387=DIRECTION('ref_axis',(-2.77555752020386E-16,0.,1.));
#1388=DIRECTION('',(-1.,0.,0.));
#1389=DIRECTION('',(-1.,0.,0.));
#1390=DIRECTION('center_axis',(0.,1.,0.));
#1391=DIRECTION('ref_axis',(0.,0.,-1.));
#1392=DIRECTION('',(1.,0.,0.));
#1393=DIRECTION('',(-1.11022300808154E-16,0.,1.));
#1394=DIRECTION('center_axis',(0.,1.,0.));
#1395=DIRECTION('ref_axis',(-1.,0.,0.));
#1396=DIRECTION('',(-1.,0.,-2.22044601616309E-16));
#1397=DIRECTION('',(0.,0.,-1.));
#1398=DIRECTION('center_axis',(0.,1.,0.));
#1399=DIRECTION('ref_axis',(1.,0.,2.77555752020386E-16));
#1400=DIRECTION('',(0.,0.,1.));
#1401=DIRECTION('center_axis',(0.,1.,0.));
#1402=DIRECTION('ref_axis',(-1.,0.,-2.77555752020386E-16));
#1403=DIRECTION('',(0.,0.,-1.));
#1404=DIRECTION('',(1.,0.,2.22044601616309E-16));
#1405=DIRECTION('center_axis',(0.,1.,0.));
#1406=DIRECTION('ref_axis',(-1.,0.,0.));
#1407=DIRECTION('',(0.,0.,1.));
#1408=DIRECTION('',(-1.,0.,0.));
#1409=DIRECTION('center_axis',(0.,1.,0.));
#1410=DIRECTION('ref_axis',(0.,0.,-1.));
#1411=DIRECTION('',(1.,0.,0.));
#1412=DIRECTION('center_axis',(0.,1.,0.));
#1413=DIRECTION('ref_axis',(0.,0.,1.));
#1414=DIRECTION('',(-1.,0.,0.));
#1415=DIRECTION('',(0.,0.,-1.));
#1416=DIRECTION('center_axis',(0.,1.,0.));
#1417=DIRECTION('ref_axis',(-1.,0.,0.));
#1418=DIRECTION('',(1.,0.,-2.22044601616309E-16));
#1419=DIRECTION('',(0.,0.,1.));
#1420=DIRECTION('center_axis',(0.,1.,0.));
#1421=DIRECTION('ref_axis',(-1.,0.,2.77555752020386E-16));
#1422=DIRECTION('',(0.,0.,-1.));
#1423=DIRECTION('center_axis',(0.,0.,-1.));
#1424=DIRECTION('ref_axis',(1.,0.,0.));
#1425=DIRECTION('',(1.,0.,0.));
#1426=DIRECTION('',(0.,-1.,0.));
#1427=DIRECTION('center_axis',(0.,0.,1.));
#1428=DIRECTION('ref_axis',(-1.,0.,0.));
#1429=DIRECTION('',(0.,-1.,0.));
#1430=DIRECTION('',(-1.,0.,0.));
#1431=DIRECTION('center_axis',(0.,-1.,0.));
#1432=DIRECTION('ref_axis',(0.,0.,1.));
#1433=DIRECTION('center_axis',(0.,-1.,0.));
#1434=DIRECTION('ref_axis',(0.,0.,1.));
#1435=DIRECTION('',(0.,-1.,0.));
#1436=DIRECTION('center_axis',(0.,0.,-1.));
#1437=DIRECTION('ref_axis',(1.,0.,0.));
#1438=DIRECTION('',(1.,0.,0.));
#1439=DIRECTION('',(0.,-1.,0.));
#1440=DIRECTION('center_axis',(1.,0.,0.));
#1441=DIRECTION('ref_axis',(0.,0.,1.));
#1442=DIRECTION('',(0.,0.,1.));
#1443=DIRECTION('',(0.,1.,0.));
#1444=DIRECTION('center_axis',(0.,0.,-1.));
#1445=DIRECTION('ref_axis',(1.,0.,0.));
#1446=DIRECTION('',(0.,-1.,0.));
#1447=DIRECTION('',(1.,0.,0.));
#1448=DIRECTION('',(0.,-1.,0.));
#1449=DIRECTION('center_axis',(0.,-1.,0.));
#1450=DIRECTION('ref_axis',(0.,0.,-1.));
#1451=DIRECTION('center_axis',(0.,-1.,0.));
#1452=DIRECTION('ref_axis',(0.,0.,-1.));
#1453=DIRECTION('center_axis',(-1.,0.,0.));
#1454=DIRECTION('ref_axis',(0.,0.,-1.));
#1455=DIRECTION('',(0.,-1.,0.));
#1456=DIRECTION('',(0.,0.,-1.));
#1457=DIRECTION('center_axis',(-1.,0.,0.));
#1458=DIRECTION('ref_axis',(0.,0.,-1.));
#1459=DIRECTION('',(0.,-1.,0.));
#1460=DIRECTION('',(0.,0.,-1.));
#1461=DIRECTION('center_axis',(0.,-1.,0.));
#1462=DIRECTION('ref_axis',(-1.,0.,-2.77555752020386E-16));
#1463=DIRECTION('center_axis',(0.,-1.,0.));
#1464=DIRECTION('ref_axis',(-1.,0.,-2.77555752020386E-16));
#1465=DIRECTION('',(0.,-1.,0.));
#1466=DIRECTION('center_axis',(1.,0.,0.));
#1467=DIRECTION('ref_axis',(0.,0.,1.));
#1468=DIRECTION('',(0.,0.,1.));
#1469=DIRECTION('',(0.,-1.,0.));
#1470=DIRECTION('center_axis',(-2.22044601616309E-16,0.,1.));
#1471=DIRECTION('ref_axis',(-1.,0.,-2.22044601616309E-16));
#1472=DIRECTION('',(-1.,0.,-2.22044601616309E-16));
#1473=DIRECTION('',(0.,1.,0.));
#1474=DIRECTION('center_axis',(1.,0.,0.));
#1475=DIRECTION('ref_axis',(0.,0.,1.));
#1476=DIRECTION('',(0.,-1.,0.));
#1477=DIRECTION('',(0.,0.,1.));
#1478=DIRECTION('',(0.,-1.,0.));
#1479=DIRECTION('center_axis',(0.,-1.,0.));
#1480=DIRECTION('ref_axis',(1.,0.,2.77555752020386E-16));
#1481=DIRECTION('center_axis',(0.,-1.,0.));
#1482=DIRECTION('ref_axis',(1.,0.,2.77555752020386E-16));
#1483=DIRECTION('center_axis',(2.22044601616309E-16,0.,-1.));
#1484=DIRECTION('ref_axis',(1.,0.,2.22044601616309E-16));
#1485=DIRECTION('',(0.,-1.,0.));
#1486=DIRECTION('',(1.,0.,2.22044601616309E-16));
#1487=DIRECTION('center_axis',(0.,-1.,0.));
#1488=DIRECTION('ref_axis',(1.,0.,-2.77555752020386E-16));
#1489=DIRECTION('center_axis',(0.,-1.,0.));
#1490=DIRECTION('ref_axis',(1.,0.,-2.77555752020386E-16));
#1491=DIRECTION('',(0.,-1.,0.));
#1492=DIRECTION('center_axis',(-1.,0.,0.));
#1493=DIRECTION('ref_axis',(0.,0.,-1.));
#1494=DIRECTION('',(0.,0.,-1.));
#1495=DIRECTION('',(0.,-1.,0.));
#1496=DIRECTION('center_axis',(-2.22044601616309E-16,0.,-1.));
#1497=DIRECTION('ref_axis',(1.,0.,-2.22044601616309E-16));
#1498=DIRECTION('',(1.,0.,-2.22044601616309E-16));
#1499=DIRECTION('',(0.,1.,0.));
#1500=DIRECTION('center_axis',(-1.,0.,0.));
#1501=DIRECTION('ref_axis',(0.,0.,-1.));
#1502=DIRECTION('',(0.,-1.,0.));
#1503=DIRECTION('',(0.,0.,-1.));
#1504=DIRECTION('',(0.,-1.,0.));
#1505=DIRECTION('center_axis',(0.,-1.,0.));
#1506=DIRECTION('ref_axis',(-1.,0.,2.77555752020386E-16));
#1507=DIRECTION('center_axis',(0.,-1.,0.));
#1508=DIRECTION('ref_axis',(-1.,0.,2.77555752020386E-16));
#1509=DIRECTION('',(0.,-1.,0.));
#1510=DIRECTION('center_axis',(1.,0.,0.));
#1511=DIRECTION('ref_axis',(0.,0.,1.));
#1512=DIRECTION('',(0.,0.,1.));
#1513=DIRECTION('center_axis',(2.22044601616309E-16,0.,1.));
#1514=DIRECTION('ref_axis',(-1.,0.,2.22044601616309E-16));
#1515=DIRECTION('',(0.,-1.,0.));
#1516=DIRECTION('',(-1.,0.,2.22044601616309E-16));
#1517=DIRECTION('center_axis',(0.,0.,-1.));
#1518=DIRECTION('ref_axis',(1.,0.,0.));
#1519=DIRECTION('',(0.,-1.,0.));
#1520=DIRECTION('',(1.,0.,0.));
#1521=DIRECTION('center_axis',(0.,-1.,0.));
#1522=DIRECTION('ref_axis',(0.,0.,-1.));
#1523=DIRECTION('center_axis',(0.,-1.,0.));
#1524=DIRECTION('ref_axis',(0.,0.,-1.));
#1525=DIRECTION('',(0.,-1.,0.));
#1526=DIRECTION('center_axis',(0.,0.,1.));
#1527=DIRECTION('ref_axis',(-1.,0.,0.));
#1528=DIRECTION('',(-1.,0.,0.));
#1529=DIRECTION('',(0.,-1.,0.));
#1530=DIRECTION('center_axis',(-1.,0.,-1.11022300808154E-16));
#1531=DIRECTION('ref_axis',(1.11022300808154E-16,0.,-1.));
#1532=DIRECTION('',(1.11022300808154E-16,0.,-1.));
#1533=DIRECTION('',(0.,1.,0.));
#1534=DIRECTION('center_axis',(0.,0.,1.));
#1535=DIRECTION('ref_axis',(-1.,0.,0.));
#1536=DIRECTION('',(0.,-1.,0.));
#1537=DIRECTION('',(-1.,0.,0.));
#1538=DIRECTION('',(0.,-1.,0.));
#1539=DIRECTION('center_axis',(0.,-1.,0.));
#1540=DIRECTION('ref_axis',(-2.77555752020386E-16,0.,1.));
#1541=DIRECTION('center_axis',(0.,-1.,0.));
#1542=DIRECTION('ref_axis',(-2.77555752020386E-16,0.,1.));
#1543=DIRECTION('center_axis',(1.,0.,1.11022300808154E-16));
#1544=DIRECTION('ref_axis',(-1.11022300808154E-16,0.,1.));
#1545=DIRECTION('',(0.,-1.,0.));
#1546=DIRECTION('',(-1.11022300808154E-16,0.,1.));
#1547=DIRECTION('center_axis',(0.,-1.,0.));
#1548=DIRECTION('ref_axis',(-1.,0.,0.));
#1549=DIRECTION('center_axis',(0.,-1.,0.));
#1550=DIRECTION('ref_axis',(-1.,0.,0.));
#1551=DIRECTION('center_axis',(0.,-1.,0.));
#1552=DIRECTION('ref_axis',(-1.,0.,0.));
#1553=DIRECTION('center_axis',(0.,-1.,0.));
#1554=DIRECTION('ref_axis',(-1.,0.,0.));
#1555=DIRECTION('center_axis',(0.,-1.,0.));
#1556=DIRECTION('ref_axis',(-1.,0.,0.));
#1557=DIRECTION('center_axis',(0.,-1.,0.));
#1558=DIRECTION('ref_axis',(-1.,0.,0.));
#1559=DIRECTION('center_axis',(0.,-1.,0.));
#1560=DIRECTION('ref_axis',(-1.,0.,0.));
#1561=DIRECTION('center_axis',(0.,-1.,0.));
#1562=DIRECTION('ref_axis',(-1.,0.,0.));
#1563=DIRECTION('center_axis',(0.,1.,0.));
#1564=DIRECTION('ref_axis',(0.707106781186547,0.,-0.707106781186547));
#1565=DIRECTION('center_axis',(0.,-1.,0.));
#1566=DIRECTION('ref_axis',(0.707106781186547,0.,-0.707106781186547));
#1567=DIRECTION('',(0.,-1.,0.));
#1568=DIRECTION('',(0.,1.,0.));
#1569=DIRECTION('center_axis',(0.,0.,-1.));
#1570=DIRECTION('ref_axis',(-1.,0.,0.));
#1571=DIRECTION('',(0.,-1.,0.));
#1572=DIRECTION('',(-1.,0.,0.));
#1573=DIRECTION('center_axis',(0.,1.,0.));
#1574=DIRECTION('ref_axis',(-0.707106781186547,0.,-0.707106781186547));
#1575=DIRECTION('center_axis',(0.,-1.,0.));
#1576=DIRECTION('ref_axis',(-0.707106781186547,0.,-0.707106781186547));
#1577=DIRECTION('',(0.,1.,0.));
#1578=DIRECTION('center_axis',(-1.,0.,0.));
#1579=DIRECTION('ref_axis',(0.,0.,1.));
#1580=DIRECTION('',(0.,-1.,0.));
#1581=DIRECTION('',(0.,0.,1.));
#1582=DIRECTION('center_axis',(0.,1.,0.));
#1583=DIRECTION('ref_axis',(-0.707106781186547,0.,0.707106781186547));
#1584=DIRECTION('center_axis',(0.,-1.,0.));
#1585=DIRECTION('ref_axis',(-0.707106781186547,0.,0.707106781186547));
#1586=DIRECTION('',(0.,1.,0.));
#1587=DIRECTION('center_axis',(0.,0.,1.));
#1588=DIRECTION('ref_axis',(1.,0.,0.));
#1589=DIRECTION('',(0.,-1.,0.));
#1590=DIRECTION('',(1.,0.,0.));
#1591=DIRECTION('center_axis',(0.,1.,0.));
#1592=DIRECTION('ref_axis',(0.707106781186547,0.,0.707106781186547));
#1593=DIRECTION('center_axis',(0.,-1.,0.));
#1594=DIRECTION('ref_axis',(0.707106781186547,0.,0.707106781186547));
#1595=DIRECTION('',(0.,1.,0.));
#1596=DIRECTION('center_axis',(1.,0.,0.));
#1597=DIRECTION('ref_axis',(0.,0.,-1.));
#1598=DIRECTION('',(0.,0.,-1.));
#1599=DIRECTION('center_axis',(0.,1.,0.));
#1600=DIRECTION('ref_axis',(0.,0.,1.));
#1601=CARTESIAN_POINT('',(0.,0.,0.));
#1602=CARTESIAN_POINT('Origin',(18.0000002682209,35.,-3.99680294820757E-15));
#1603=CARTESIAN_POINT('',(18.0000002682209,0.,1.00000001490116));
#1604=CARTESIAN_POINT('',(18.0000002682209,0.,-1.00000001490117));
#1605=CARTESIAN_POINT('Origin',(18.0000002682209,0.,-3.99680294820757E-15));
#1606=CARTESIAN_POINT('',(18.0000002682209,35.,1.00000001490116));
#1607=CARTESIAN_POINT('',(18.0000002682209,35.,1.00000001490116));
#1608=CARTESIAN_POINT('',(18.0000002682209,35.,-1.00000001490117));
#1609=CARTESIAN_POINT('Origin',(18.0000002682209,35.,-3.99680294820757E-15));
#1610=CARTESIAN_POINT('',(18.0000002682209,35.,-1.00000001490117));
#1611=CARTESIAN_POINT('Origin',(15.0000002235174,35.,-1.00000001490116));
#1612=CARTESIAN_POINT('',(15.0000002235174,0.,-1.00000001490116));
#1613=CARTESIAN_POINT('',(7.50000011175871,0.,-1.00000001490116));
#1614=CARTESIAN_POINT('',(15.0000002235174,35.,-1.00000001490116));
#1615=CARTESIAN_POINT('',(7.50000011175871,35.,-1.00000001490116));
#1616=CARTESIAN_POINT('',(15.0000002235174,35.,-1.00000001490116));
#1617=CARTESIAN_POINT('Origin',(18.0000002682209,35.,1.00000001490116));
#1618=CARTESIAN_POINT('',(15.0000002235174,0.,1.00000001490116));
#1619=CARTESIAN_POINT('',(9.00000013411045,0.,1.00000001490116));
#1620=CARTESIAN_POINT('',(15.0000002235174,35.,1.00000001490116));
#1621=CARTESIAN_POINT('',(15.0000002235174,35.,1.00000001490116));
#1622=CARTESIAN_POINT('',(9.00000013411045,35.,1.00000001490116));
#1623=CARTESIAN_POINT('Origin',(-18.0000002682209,35.,-6.21724899745788E-15));
#1624=CARTESIAN_POINT('',(-18.0000002682209,0.,-1.00000001490117));
#1625=CARTESIAN_POINT('',(-18.0000002682209,0.,1.00000001490115));
#1626=CARTESIAN_POINT('Origin',(-18.0000002682209,0.,-6.21724899745788E-15));
#1627=CARTESIAN_POINT('',(-18.0000002682209,35.,-1.00000001490117));
#1628=CARTESIAN_POINT('',(-18.0000002682209,35.,-1.00000001490117));
#1629=CARTESIAN_POINT('',(-18.0000002682209,35.,1.00000001490115));
#1630=CARTESIAN_POINT('Origin',(-18.0000002682209,35.,-6.21724899745788E-15));
#1631=CARTESIAN_POINT('',(-18.0000002682209,35.,1.00000001490115));
#1632=CARTESIAN_POINT('Origin',(-15.0000002235174,35.,1.00000001490116));
#1633=CARTESIAN_POINT('',(-15.0000002235174,0.,1.00000001490116));
#1634=CARTESIAN_POINT('',(-7.50000011175871,0.,1.00000001490116));
#1635=CARTESIAN_POINT('',(-15.0000002235174,35.,1.00000001490116));
#1636=CARTESIAN_POINT('',(-7.50000011175871,35.,1.00000001490116));
#1637=CARTESIAN_POINT('',(-15.0000002235174,35.,1.00000001490116));
#1638=CARTESIAN_POINT('Origin',(-18.0000002682209,35.,-1.00000001490117));
#1639=CARTESIAN_POINT('',(-15.0000002235174,0.,-1.00000001490117));
#1640=CARTESIAN_POINT('',(-9.00000013411045,0.,-1.00000001490117));
#1641=CARTESIAN_POINT('',(-15.0000002235174,35.,-1.00000001490117));
#1642=CARTESIAN_POINT('',(-15.0000002235174,35.,-1.00000001490117));
#1643=CARTESIAN_POINT('',(-9.00000013411045,35.,-1.00000001490117));
#1644=CARTESIAN_POINT('Origin',(0.,35.,18.0000002682209));
#1645=CARTESIAN_POINT('',(-1.00000001490116,0.,18.0000002682209));
#1646=CARTESIAN_POINT('',(1.00000001490116,0.,18.0000002682209));
#1647=CARTESIAN_POINT('Origin',(0.,0.,18.0000002682209));
#1648=CARTESIAN_POINT('',(-1.00000001490116,35.,18.0000002682209));
#1649=CARTESIAN_POINT('',(-1.00000001490116,35.,18.0000002682209));
#1650=CARTESIAN_POINT('',(1.00000001490116,35.,18.0000002682209));
#1651=CARTESIAN_POINT('Origin',(0.,35.,18.0000002682209));
#1652=CARTESIAN_POINT('',(1.00000001490116,35.,18.0000002682209));
#1653=CARTESIAN_POINT('Origin',(1.00000001490116,35.,15.0000002235174));
#1654=CARTESIAN_POINT('',(1.00000001490116,0.,15.0000002235174));
#1655=CARTESIAN_POINT('',(1.00000001490116,0.,7.50000011175871));
#1656=CARTESIAN_POINT('',(1.00000001490116,35.,15.0000002235174));
#1657=CARTESIAN_POINT('',(1.00000001490116,35.,7.50000011175871));
#1658=CARTESIAN_POINT('',(1.00000001490116,35.,15.0000002235174));
#1659=CARTESIAN_POINT('Origin',(-1.00000001490116,35.,18.0000002682209));
#1660=CARTESIAN_POINT('',(-1.00000001490116,0.,15.0000002235174));
#1661=CARTESIAN_POINT('',(-1.00000001490116,0.,9.00000013411045));
#1662=CARTESIAN_POINT('',(-1.00000001490116,35.,15.0000002235174));
#1663=CARTESIAN_POINT('',(-1.00000001490116,35.,15.0000002235174));
#1664=CARTESIAN_POINT('',(-1.00000001490116,35.,9.00000013411045));
#1665=CARTESIAN_POINT('Origin',(4.42481032056314E-15,35.,-18.0000002682209));
#1666=CARTESIAN_POINT('',(1.00000001490117,0.,-18.0000002682209));
#1667=CARTESIAN_POINT('',(-1.00000001490116,0.,-18.0000002682209));
#1668=CARTESIAN_POINT('Origin',(4.42481032056314E-15,0.,-18.0000002682209));
#1669=CARTESIAN_POINT('',(1.00000001490117,35.,-18.0000002682209));
#1670=CARTESIAN_POINT('',(1.00000001490117,35.,-18.0000002682209));
#1671=CARTESIAN_POINT('',(-1.00000001490116,35.,-18.0000002682209));
#1672=CARTESIAN_POINT('Origin',(4.42481032056314E-15,35.,-18.0000002682209));
#1673=CARTESIAN_POINT('',(-1.00000001490116,35.,-18.0000002682209));
#1674=CARTESIAN_POINT('Origin',(-1.00000001490116,35.,-15.0000002235174));
#1675=CARTESIAN_POINT('',(-1.00000001490116,0.,-15.0000002235174));
#1676=CARTESIAN_POINT('',(-1.00000001490116,0.,-7.50000011175871));
#1677=CARTESIAN_POINT('',(-1.00000001490116,35.,-15.0000002235174));
#1678=CARTESIAN_POINT('',(-1.00000001490116,35.,-7.50000011175871));
#1679=CARTESIAN_POINT('',(-1.00000001490116,35.,-15.0000002235174));
#1680=CARTESIAN_POINT('Origin',(1.00000001490117,35.,-18.0000002682209));
#1681=CARTESIAN_POINT('',(1.00000001490117,0.,-15.0000002235174));
#1682=CARTESIAN_POINT('',(1.00000001490116,0.,-9.00000013411045));
#1683=CARTESIAN_POINT('',(1.00000001490117,35.,-15.0000002235174));
#1684=CARTESIAN_POINT('',(1.00000001490117,35.,-15.0000002235174));
#1685=CARTESIAN_POINT('',(1.00000001490116,35.,-9.00000013411045));
#1686=CARTESIAN_POINT('Origin',(15.0000002235174,35.,-4.00000005960465));
#1687=CARTESIAN_POINT('',(15.0000002235174,35.,-4.00000005960465));
#1688=CARTESIAN_POINT('',(15.0000002235174,35.,-2.00000002980232));
#1689=CARTESIAN_POINT('',(15.0000002235174,0.,-4.00000005960465));
#1690=CARTESIAN_POINT('',(15.0000002235174,35.,-4.00000005960465));
#1691=CARTESIAN_POINT('',(15.0000002235174,0.,-2.00000002980232));
#1692=CARTESIAN_POINT('Origin',(-15.0000002235174,35.,4.00000005960464));
#1693=CARTESIAN_POINT('',(-15.0000002235174,35.,4.00000005960464));
#1694=CARTESIAN_POINT('',(-15.0000002235174,35.,2.00000002980232));
#1695=CARTESIAN_POINT('',(-15.0000002235174,0.,4.00000005960464));
#1696=CARTESIAN_POINT('',(-15.0000002235174,35.,4.00000005960464));
#1697=CARTESIAN_POINT('',(-15.0000002235174,0.,2.00000002980232));
#1698=CARTESIAN_POINT('Origin',(4.00000005960464,35.,15.0000002235174));
#1699=CARTESIAN_POINT('',(4.00000005960464,35.,15.0000002235174));
#1700=CARTESIAN_POINT('',(2.00000002980232,35.,15.0000002235174));
#1701=CARTESIAN_POINT('',(4.00000005960464,0.,15.0000002235174));
#1702=CARTESIAN_POINT('',(4.00000005960464,35.,15.0000002235174));
#1703=CARTESIAN_POINT('',(2.00000002980232,0.,15.0000002235174));
#1704=CARTESIAN_POINT('Origin',(0.,0.,0.));
#1705=CARTESIAN_POINT('',(25.,0.,-17.5));
#1706=CARTESIAN_POINT('',(17.5,0.,-25.));
#1707=CARTESIAN_POINT('Origin',(17.5,0.,-17.5));
#1708=CARTESIAN_POINT('',(25.,0.,17.5));
#1709=CARTESIAN_POINT('',(25.,0.,-25.));
#1710=CARTESIAN_POINT('',(17.5,0.,25.));
#1711=CARTESIAN_POINT('Origin',(17.5,0.,17.5));
#1712=CARTESIAN_POINT('',(-17.5,0.,25.));
#1713=CARTESIAN_POINT('',(25.,0.,25.));
#1714=CARTESIAN_POINT('',(-25.,0.,17.5));
#1715=CARTESIAN_POINT('Origin',(-17.5,0.,17.5));
#1716=CARTESIAN_POINT('',(-25.,0.,-17.5));
#1717=CARTESIAN_POINT('',(-25.,0.,25.));
#1718=CARTESIAN_POINT('',(-17.5,0.,-25.));
#1719=CARTESIAN_POINT('Origin',(-17.5,0.,-17.5));
#1720=CARTESIAN_POINT('',(-25.,0.,-25.));
#1721=CARTESIAN_POINT('',(11.0000001639128,0.,-4.00000005960465));
#1722=CARTESIAN_POINT('Origin',(13.0000001937151,0.,-4.00000005960465));
#1723=CARTESIAN_POINT('',(11.0000001639128,0.,-2.00000002980233));
#1724=CARTESIAN_POINT('',(11.0000001639128,0.,-1.00000001490116));
#1725=CARTESIAN_POINT('',(9.79795896504934,0.,-2.00000002980233));
#1726=CARTESIAN_POINT('',(4.89897948252467,0.,-2.00000002980232));
#1727=CARTESIAN_POINT('',(2.00000002980232,0.,-9.79795896504934));
#1728=CARTESIAN_POINT('Origin',(0.,0.,0.));
#1729=CARTESIAN_POINT('',(2.00000002980232,0.,-11.0000001639128));
#1730=CARTESIAN_POINT('',(2.00000002980232,0.,-5.50000008195639));
#1731=CARTESIAN_POINT('',(4.00000005960465,0.,-11.0000001639128));
#1732=CARTESIAN_POINT('',(2.00000002980232,0.,-11.0000001639128));
#1733=CARTESIAN_POINT('',(4.00000005960465,0.,-15.0000002235174));
#1734=CARTESIAN_POINT('Origin',(4.00000005960465,0.,-13.0000001937151));
#1735=CARTESIAN_POINT('',(-2.00000002980232,0.,-15.0000002235174));
#1736=CARTESIAN_POINT('',(-4.00000005960464,0.,-15.0000002235174));
#1737=CARTESIAN_POINT('',(-2.00000002980232,0.,-15.0000002235174));
#1738=CARTESIAN_POINT('',(-4.00000005960464,0.,-11.0000001639128));
#1739=CARTESIAN_POINT('Origin',(-4.00000005960464,0.,-13.0000001937151));
#1740=CARTESIAN_POINT('',(-2.00000002980232,0.,-11.0000001639128));
#1741=CARTESIAN_POINT('',(-1.00000001490116,0.,-11.0000001639128));
#1742=CARTESIAN_POINT('',(-2.00000002980232,0.,-9.79795896504934));
#1743=CARTESIAN_POINT('',(-2.00000002980232,0.,-4.89897948252467));
#1744=CARTESIAN_POINT('',(-9.79795896504934,0.,-2.00000002980232));
#1745=CARTESIAN_POINT('Origin',(0.,0.,0.));
#1746=CARTESIAN_POINT('',(-11.0000001639128,0.,-2.00000002980232));
#1747=CARTESIAN_POINT('',(-5.50000008195639,0.,-2.00000002980232));
#1748=CARTESIAN_POINT('',(-11.0000001639128,0.,-4.00000005960465));
#1749=CARTESIAN_POINT('',(-11.0000001639128,0.,-2.00000002980232));
#1750=CARTESIAN_POINT('',(-15.0000002235174,0.,-4.00000005960465));
#1751=CARTESIAN_POINT('Origin',(-13.0000001937151,0.,-4.00000005960465));
#1752=CARTESIAN_POINT('',(-15.0000002235174,0.,2.00000002980232));
#1753=CARTESIAN_POINT('',(-11.0000001639128,0.,4.00000005960464));
#1754=CARTESIAN_POINT('Origin',(-13.0000001937151,0.,4.00000005960464));
#1755=CARTESIAN_POINT('',(-11.0000001639128,0.,2.00000002980232));
#1756=CARTESIAN_POINT('',(-11.0000001639128,0.,1.00000001490116));
#1757=CARTESIAN_POINT('',(-9.79795896504934,0.,2.00000002980232));
#1758=CARTESIAN_POINT('',(-4.89897948252467,0.,2.00000002980232));
#1759=CARTESIAN_POINT('',(-2.00000002980232,0.,9.79795896504934));
#1760=CARTESIAN_POINT('Origin',(0.,0.,0.));
#1761=CARTESIAN_POINT('',(-2.00000002980232,0.,11.0000001639128));
#1762=CARTESIAN_POINT('',(-2.00000002980232,0.,5.50000008195639));
#1763=CARTESIAN_POINT('',(-4.00000005960464,0.,11.0000001639128));
#1764=CARTESIAN_POINT('',(-2.00000002980232,0.,11.0000001639128));
#1765=CARTESIAN_POINT('',(-4.00000005960464,0.,15.0000002235174));
#1766=CARTESIAN_POINT('Origin',(-4.00000005960464,0.,13.0000001937151));
#1767=CARTESIAN_POINT('',(2.00000002980232,0.,15.0000002235174));
#1768=CARTESIAN_POINT('',(4.00000005960464,0.,11.0000001639128));
#1769=CARTESIAN_POINT('Origin',(4.00000005960464,0.,13.0000001937151));
#1770=CARTESIAN_POINT('',(2.00000002980232,0.,11.0000001639128));
#1771=CARTESIAN_POINT('',(1.00000001490116,0.,11.0000001639128));
#1772=CARTESIAN_POINT('',(2.00000002980232,0.,9.79795896504934));
#1773=CARTESIAN_POINT('',(2.00000002980232,0.,4.89897948252467));
#1774=CARTESIAN_POINT('',(9.79795896504934,0.,2.00000002980232));
#1775=CARTESIAN_POINT('Origin',(0.,0.,0.));
#1776=CARTESIAN_POINT('',(11.0000001639128,0.,2.00000002980232));
#1777=CARTESIAN_POINT('',(5.50000008195639,0.,2.00000002980232));
#1778=CARTESIAN_POINT('',(11.0000001639128,0.,4.00000005960464));
#1779=CARTESIAN_POINT('',(11.0000001639128,0.,2.00000002980232));
#1780=CARTESIAN_POINT('',(15.0000002235174,0.,4.00000005960464));
#1781=CARTESIAN_POINT('Origin',(13.0000001937151,0.,4.00000005960464));
#1782=CARTESIAN_POINT('',(15.0000002235174,0.,-2.00000002980232));
#1783=CARTESIAN_POINT('Origin',(-4.00000005960464,35.,-15.0000002235174));
#1784=CARTESIAN_POINT('',(-4.00000005960464,35.,-15.0000002235174));
#1785=CARTESIAN_POINT('',(-2.00000002980232,35.,-15.0000002235174));
#1786=CARTESIAN_POINT('',(-4.00000005960464,35.,-15.0000002235174));
#1787=CARTESIAN_POINT('Origin',(4.00000005960464,35.,15.0000002235174));
#1788=CARTESIAN_POINT('',(-4.00000005960464,35.,15.0000002235174));
#1789=CARTESIAN_POINT('',(-4.00000005960464,35.,15.0000002235174));
#1790=CARTESIAN_POINT('',(2.00000002980232,35.,15.0000002235174));
#1791=CARTESIAN_POINT('Origin',(4.00000005960464,35.,13.0000001937151));
#1792=CARTESIAN_POINT('',(4.00000005960464,35.,11.0000001639128));
#1793=CARTESIAN_POINT('Origin',(4.00000005960464,35.,13.0000001937151));
#1794=CARTESIAN_POINT('',(4.00000005960464,35.,11.0000001639128));
#1795=CARTESIAN_POINT('Origin',(2.00000002980232,35.,11.0000001639128));
#1796=CARTESIAN_POINT('',(2.00000002980232,35.,11.0000001639128));
#1797=CARTESIAN_POINT('',(1.00000001490116,35.,11.0000001639128));
#1798=CARTESIAN_POINT('',(2.00000002980232,35.,11.0000001639128));
#1799=CARTESIAN_POINT('Origin',(2.00000002980232,35.,9.79795896504934));
#1800=CARTESIAN_POINT('',(2.00000002980232,35.,9.79795896504934));
#1801=CARTESIAN_POINT('',(2.00000002980232,35.,4.89897948252467));
#1802=CARTESIAN_POINT('',(2.00000002980232,35.,9.79795896504934));
#1803=CARTESIAN_POINT('Origin',(-4.00000005960464,35.,11.0000001639128));
#1804=CARTESIAN_POINT('',(-2.00000002980232,35.,11.0000001639128));
#1805=CARTESIAN_POINT('',(-2.00000002980232,35.,11.0000001639128));
#1806=CARTESIAN_POINT('',(-4.00000005960464,35.,11.0000001639128));
#1807=CARTESIAN_POINT('',(-2.00000002980232,35.,11.0000001639128));
#1808=CARTESIAN_POINT('',(-4.00000005960464,35.,11.0000001639128));
#1809=CARTESIAN_POINT('Origin',(-4.00000005960464,35.,13.0000001937151));
#1810=CARTESIAN_POINT('Origin',(-4.00000005960464,35.,13.0000001937151));
#1811=CARTESIAN_POINT('Origin',(-2.00000002980232,35.,11.0000001639128));
#1812=CARTESIAN_POINT('',(-2.00000002980232,35.,9.79795896504934));
#1813=CARTESIAN_POINT('',(-2.00000002980232,35.,9.79795896504934));
#1814=CARTESIAN_POINT('',(-2.00000002980232,35.,5.50000008195639));
#1815=CARTESIAN_POINT('Origin',(-15.0000002235174,35.,4.00000005960464));
#1816=CARTESIAN_POINT('',(-15.0000002235174,35.,-4.00000005960465));
#1817=CARTESIAN_POINT('',(-15.0000002235174,35.,-4.00000005960465));
#1818=CARTESIAN_POINT('',(-15.0000002235174,35.,2.00000002980232));
#1819=CARTESIAN_POINT('Origin',(-13.0000001937151,35.,4.00000005960464));
#1820=CARTESIAN_POINT('',(-11.0000001639128,35.,4.00000005960464));
#1821=CARTESIAN_POINT('Origin',(-13.0000001937151,35.,4.00000005960464));
#1822=CARTESIAN_POINT('',(-11.0000001639128,35.,4.00000005960464));
#1823=CARTESIAN_POINT('Origin',(-11.0000001639128,35.,2.00000002980232));
#1824=CARTESIAN_POINT('',(-11.0000001639128,35.,2.00000002980232));
#1825=CARTESIAN_POINT('',(-11.0000001639128,35.,1.00000001490116));
#1826=CARTESIAN_POINT('',(-11.0000001639128,35.,2.00000002980232));
#1827=CARTESIAN_POINT('Origin',(-9.79795896504934,35.,2.00000002980232));
#1828=CARTESIAN_POINT('',(-9.79795896504934,35.,2.00000002980232));
#1829=CARTESIAN_POINT('',(-4.89897948252467,35.,2.00000002980232));
#1830=CARTESIAN_POINT('',(-9.79795896504934,35.,2.00000002980232));
#1831=CARTESIAN_POINT('Origin',(-11.0000001639128,35.,-4.00000005960465));
#1832=CARTESIAN_POINT('',(-11.0000001639128,35.,-2.00000002980232));
#1833=CARTESIAN_POINT('',(-11.0000001639128,35.,-2.00000002980232));
#1834=CARTESIAN_POINT('',(-11.0000001639128,35.,-4.00000005960465));
#1835=CARTESIAN_POINT('',(-11.0000001639128,35.,-2.00000002980232));
#1836=CARTESIAN_POINT('',(-11.0000001639128,35.,-4.00000005960465));
#1837=CARTESIAN_POINT('Origin',(-13.0000001937151,35.,-4.00000005960465));
#1838=CARTESIAN_POINT('Origin',(-13.0000001937151,35.,-4.00000005960465));
#1839=CARTESIAN_POINT('Origin',(-11.0000001639128,35.,-2.00000002980232));
#1840=CARTESIAN_POINT('',(-9.79795896504934,35.,-2.00000002980232));
#1841=CARTESIAN_POINT('',(-9.79795896504934,35.,-2.00000002980232));
#1842=CARTESIAN_POINT('',(-5.50000008195639,35.,-2.00000002980232));
#1843=CARTESIAN_POINT('Origin',(13.0000001937151,35.,-4.00000005960465));
#1844=CARTESIAN_POINT('',(11.0000001639128,35.,-4.00000005960465));
#1845=CARTESIAN_POINT('Origin',(13.0000001937151,35.,-4.00000005960465));
#1846=CARTESIAN_POINT('',(11.0000001639128,35.,-4.00000005960465));
#1847=CARTESIAN_POINT('Origin',(11.0000001639128,35.,-2.00000002980233));
#1848=CARTESIAN_POINT('',(11.0000001639128,35.,-2.00000002980233));
#1849=CARTESIAN_POINT('',(11.0000001639128,35.,-1.00000001490116));
#1850=CARTESIAN_POINT('',(11.0000001639128,35.,-2.00000002980233));
#1851=CARTESIAN_POINT('Origin',(9.79795896504934,35.,-2.00000002980233));
#1852=CARTESIAN_POINT('',(9.79795896504934,35.,-2.00000002980233));
#1853=CARTESIAN_POINT('',(4.89897948252467,35.,-2.00000002980232));
#1854=CARTESIAN_POINT('',(9.79795896504934,35.,-2.00000002980233));
#1855=CARTESIAN_POINT('Origin',(11.0000001639128,35.,4.00000005960464));
#1856=CARTESIAN_POINT('',(11.0000001639128,35.,2.00000002980232));
#1857=CARTESIAN_POINT('',(11.0000001639128,35.,2.00000002980232));
#1858=CARTESIAN_POINT('',(11.0000001639128,35.,4.00000005960464));
#1859=CARTESIAN_POINT('',(11.0000001639128,35.,2.00000002980232));
#1860=CARTESIAN_POINT('',(11.0000001639128,35.,4.00000005960464));
#1861=CARTESIAN_POINT('Origin',(13.0000001937151,35.,4.00000005960464));
#1862=CARTESIAN_POINT('',(15.0000002235174,35.,4.00000005960464));
#1863=CARTESIAN_POINT('Origin',(13.0000001937151,35.,4.00000005960464));
#1864=CARTESIAN_POINT('',(15.0000002235174,35.,4.00000005960464));
#1865=CARTESIAN_POINT('Origin',(15.0000002235174,35.,-4.00000005960465));
#1866=CARTESIAN_POINT('',(15.0000002235174,35.,-2.00000002980232));
#1867=CARTESIAN_POINT('Origin',(11.0000001639128,35.,2.00000002980232));
#1868=CARTESIAN_POINT('',(9.79795896504934,35.,2.00000002980232));
#1869=CARTESIAN_POINT('',(9.79795896504934,35.,2.00000002980232));
#1870=CARTESIAN_POINT('',(5.50000008195639,35.,2.00000002980232));
#1871=CARTESIAN_POINT('Origin',(-4.00000005960464,35.,-15.0000002235174));
#1872=CARTESIAN_POINT('',(4.00000005960465,35.,-15.0000002235174));
#1873=CARTESIAN_POINT('',(4.00000005960465,35.,-15.0000002235174));
#1874=CARTESIAN_POINT('',(-2.00000002980232,35.,-15.0000002235174));
#1875=CARTESIAN_POINT('Origin',(-4.00000005960464,35.,-13.0000001937151));
#1876=CARTESIAN_POINT('',(-4.00000005960464,35.,-11.0000001639128));
#1877=CARTESIAN_POINT('Origin',(-4.00000005960464,35.,-13.0000001937151));
#1878=CARTESIAN_POINT('',(-4.00000005960464,35.,-11.0000001639128));
#1879=CARTESIAN_POINT('Origin',(-2.00000002980232,35.,-11.0000001639128));
#1880=CARTESIAN_POINT('',(-2.00000002980232,35.,-11.0000001639128));
#1881=CARTESIAN_POINT('',(-1.00000001490116,35.,-11.0000001639128));
#1882=CARTESIAN_POINT('',(-2.00000002980232,35.,-11.0000001639128));
#1883=CARTESIAN_POINT('Origin',(-2.00000002980232,35.,-9.79795896504934));
#1884=CARTESIAN_POINT('',(-2.00000002980232,35.,-9.79795896504934));
#1885=CARTESIAN_POINT('',(-2.00000002980232,35.,-4.89897948252467));
#1886=CARTESIAN_POINT('',(-2.00000002980232,35.,-9.79795896504934));
#1887=CARTESIAN_POINT('Origin',(4.00000005960465,35.,-11.0000001639128));
#1888=CARTESIAN_POINT('',(2.00000002980232,35.,-11.0000001639128));
#1889=CARTESIAN_POINT('',(2.00000002980232,35.,-11.0000001639128));
#1890=CARTESIAN_POINT('',(4.00000005960465,35.,-11.0000001639128));
#1891=CARTESIAN_POINT('',(2.00000002980232,35.,-11.0000001639128));
#1892=CARTESIAN_POINT('',(4.00000005960465,35.,-11.0000001639128));
#1893=CARTESIAN_POINT('Origin',(4.00000005960465,35.,-13.0000001937151));
#1894=CARTESIAN_POINT('Origin',(4.00000005960465,35.,-13.0000001937151));
#1895=CARTESIAN_POINT('Origin',(2.00000002980232,35.,-11.0000001639128));
#1896=CARTESIAN_POINT('',(2.00000002980232,35.,-9.79795896504934));
#1897=CARTESIAN_POINT('',(2.00000002980232,35.,-9.79795896504934));
#1898=CARTESIAN_POINT('',(2.00000002980232,35.,-5.50000008195639));
#1899=CARTESIAN_POINT('Origin',(0.,35.,0.));
#1900=CARTESIAN_POINT('Origin',(0.,35.,0.));
#1901=CARTESIAN_POINT('Origin',(0.,35.,0.));
#1902=CARTESIAN_POINT('Origin',(0.,35.,0.));
#1903=CARTESIAN_POINT('Origin',(0.,35.,0.));
#1904=CARTESIAN_POINT('Origin',(0.,35.,0.));
#1905=CARTESIAN_POINT('Origin',(0.,35.,0.));
#1906=CARTESIAN_POINT('Origin',(0.,35.,0.));
#1907=CARTESIAN_POINT('Origin',(17.5,0.,-17.5));
#1908=CARTESIAN_POINT('',(17.5,35.,-25.));
#1909=CARTESIAN_POINT('',(25.,35.,-17.5));
#1910=CARTESIAN_POINT('Origin',(17.5,35.,-17.5));
#1911=CARTESIAN_POINT('',(25.,0.,-17.5));
#1912=CARTESIAN_POINT('',(17.5,0.,-25.));
#1913=CARTESIAN_POINT('Origin',(25.,0.,-25.));
#1914=CARTESIAN_POINT('',(-17.5,35.,-25.));
#1915=CARTESIAN_POINT('',(-17.5,0.,-25.));
#1916=CARTESIAN_POINT('',(-25.,35.,-25.));
#1917=CARTESIAN_POINT('Origin',(-17.5,0.,-17.5));
#1918=CARTESIAN_POINT('',(-25.,35.,-17.5));
#1919=CARTESIAN_POINT('Origin',(-17.5,35.,-17.5));
#1920=CARTESIAN_POINT('',(-25.,0.,-17.5));
#1921=CARTESIAN_POINT('Origin',(-25.,0.,-25.));
#1922=CARTESIAN_POINT('',(-25.,35.,17.5));
#1923=CARTESIAN_POINT('',(-25.,0.,17.5));
#1924=CARTESIAN_POINT('',(-25.,35.,25.));
#1925=CARTESIAN_POINT('Origin',(-17.5,0.,17.5));
#1926=CARTESIAN_POINT('',(-17.5,35.,25.));
#1927=CARTESIAN_POINT('Origin',(-17.5,35.,17.5));
#1928=CARTESIAN_POINT('',(-17.5,0.,25.));
#1929=CARTESIAN_POINT('Origin',(-25.,0.,25.));
#1930=CARTESIAN_POINT('',(17.5,35.,25.));
#1931=CARTESIAN_POINT('',(17.5,0.,25.));
#1932=CARTESIAN_POINT('',(25.,35.,25.));
#1933=CARTESIAN_POINT('Origin',(17.5,0.,17.5));
#1934=CARTESIAN_POINT('',(25.,35.,17.5));
#1935=CARTESIAN_POINT('Origin',(17.5,35.,17.5));
#1936=CARTESIAN_POINT('',(25.,0.,17.5));
#1937=CARTESIAN_POINT('Origin',(25.,0.,25.));
#1938=CARTESIAN_POINT('',(25.,35.,-25.));
#1939=CARTESIAN_POINT('Origin',(0.,35.,0.));
#1940=UNCERTAINTY_MEASURE_WITH_UNIT(LENGTH_MEASURE(0.01),#1944,
'DISTANCE_ACCURACY_VALUE',
'Maximum model space distance between geometric entities at asserted c
onnectivities');
#1941=UNCERTAINTY_MEASURE_WITH_UNIT(LENGTH_MEASURE(0.01),#1944,
'DISTANCE_ACCURACY_VALUE',
'Maximum model space distance between geometric entities at asserted c
onnectivities');
#1942=(
GEOMETRIC_REPRESENTATION_CONTEXT(3)
GLOBAL_UNCERTAINTY_ASSIGNED_CONTEXT((#1940))
GLOBAL_UNIT_ASSIGNED_CONTEXT((#1944,#1946,#1947))
REPRESENTATION_CONTEXT('','3D')
);
#1943=(
GEOMETRIC_REPRESENTATION_CONTEXT(3)
GLOBAL_UNCERTAINTY_ASSIGNED_CONTEXT((#1941))
GLOBAL_UNIT_ASSIGNED_CONTEXT((#1944,#1946,#1947))
REPRESENTATION_CONTEXT('','3D')
);
#1944=(
LENGTH_UNIT()
NAMED_UNIT(*)
SI_UNIT(.MILLI.,.METRE.)
);
#1945=(
LENGTH_UNIT()
NAMED_UNIT(*)
SI_UNIT($,.METRE.)
);
#1946=(
NAMED_UNIT(*)
PLANE_ANGLE_UNIT()
SI_UNIT($,.RADIAN.)
);
#1947=(
NAMED_UNIT(*)
SI_UNIT($,.STERADIAN.)
SOLID_ANGLE_UNIT()
);
#1948=SHAPE_DEFINITION_REPRESENTATION(#1949,#1950);
#1949=PRODUCT_DEFINITION_SHAPE('',$,#1952);
#1950=SHAPE_REPRESENTATION('',(#1176),#1942);
#1951=PRODUCT_DEFINITION_CONTEXT('part definition',#1956,'design');
#1952=PRODUCT_DEFINITION('(Unsaved)','(Unsaved)',#1953,#1951);
#1953=PRODUCT_DEFINITION_FORMATION('',$,#1958);
#1954=PRODUCT_RELATED_PRODUCT_CATEGORY('(Unsaved)','(Unsaved)',(#1958));
#1955=APPLICATION_PROTOCOL_DEFINITION('international standard',
'automotive_design',2009,#1956);
#1956=APPLICATION_CONTEXT(
'Core Data for Automotive Mechanical Design Process');
#1957=PRODUCT_CONTEXT('part definition',#1956,'mechanical');
#1958=PRODUCT('(Unsaved)','(Unsaved)',$,(#1957));
#1959=PRESENTATION_STYLE_ASSIGNMENT((#1960));
#1960=SURFACE_STYLE_USAGE(.BOTH.,#1961);
#1961=SURFACE_SIDE_STYLE('',(#1962));
#1962=SURFACE_STYLE_FILL_AREA(#1963);
#1963=FILL_AREA_STYLE('Steel - Satin',(#1964));
#1964=FILL_AREA_STYLE_COLOUR('Steel - Satin',#1965);
#1965=COLOUR_RGB('Steel - Satin',0.627450980392157,0.627450980392157,0.627450980392157);
ENDSEC;
END-ISO-10303-21;
