ISO-10303-21;
HEADER;
/* Generated by software containing ST-Developer
 * from STEP Tools, Inc. (www.steptools.com) 
 */

FILE_DESCRIPTION(
/* description */ (''),
/* implementation_level */ '2;1');

FILE_NAME(
/* name */ 'drilled_009.step',
/* time_stamp */ '2024-11-25T12:18:06+03:00',
/* author */ (''),
/* organization */ (''),
/* preprocessor_version */ 'ST-DEVELOPER v20',
/* originating_system */ 'Autodesk Translation Framework v13.14.0.145',

/* authorisation */ '');

FILE_SCHEMA (('AUTOMOTIVE_DESIGN { 1 0 10303 214 3 1 1 }'));
ENDSEC;

DATA;
#10=MECHANICAL_DESIGN_GEOMETRIC_PRESENTATION_REPRESENTATION('',(#13),#1407);
#11=SHAPE_REPRESENTATION_RELATIONSHIP('SRR','None',#1414,#12);
#12=ADVANCED_BREP_SHAPE_REPRESENTATION('',(#14),#1406);
#13=STYLED_ITEM('',(#1423),#14);
#14=MANIFOLD_SOLID_BREP('Body1',#835);
#15=FACE_BOUND('',#136,.T.);
#16=FACE_BOUND('',#150,.T.);
#17=CIRCLE('',#851,2.00000002980232);
#18=CIRCLE('',#852,2.00000002980232);
#19=CIRCLE('',#857,2.00000002980232);
#20=CIRCLE('',#858,2.00000002980232);
#21=CIRCLE('',#862,2.00000002980232);
#22=CIRCLE('',#863,2.00000002980232);
#23=CIRCLE('',#868,2.00000002980232);
#24=CIRCLE('',#869,2.00000002980232);
#25=CIRCLE('',#872,2.00000002980232);
#26=CIRCLE('',#873,2.00000002980232);
#27=CIRCLE('',#878,2.00000002980232);
#28=CIRCLE('',#879,2.00000002980232);
#29=CIRCLE('',#884,2.00000002980232);
#30=CIRCLE('',#885,2.00000002980232);
#31=CIRCLE('',#890,2.00000002980232);
#32=CIRCLE('',#891,2.00000002980232);
#33=CIRCLE('',#894,7.5);
#34=CIRCLE('',#895,7.5);
#35=CIRCLE('',#896,7.5);
#36=CIRCLE('',#897,7.5);
#37=CIRCLE('',#898,10.);
#38=CIRCLE('',#899,10.);
#39=CIRCLE('',#900,10.);
#40=CIRCLE('',#901,10.);
#41=CIRCLE('',#903,10.);
#42=CIRCLE('',#905,10.);
#43=CIRCLE('',#907,10.);
#44=CIRCLE('',#909,10.);
#45=CIRCLE('',#911,7.5);
#46=CIRCLE('',#914,7.5);
#47=CIRCLE('',#917,7.5);
#48=CIRCLE('',#920,7.5);
#49=CYLINDRICAL_SURFACE('',#850,2.00000002980232);
#50=CYLINDRICAL_SURFACE('',#856,2.00000002980232);
#51=CYLINDRICAL_SURFACE('',#861,2.00000002980232);
#52=CYLINDRICAL_SURFACE('',#867,2.00000002980232);
#53=CYLINDRICAL_SURFACE('',#871,2.00000002980232);
#54=CYLINDRICAL_SURFACE('',#877,2.00000002980232);
#55=CYLINDRICAL_SURFACE('',#883,2.00000002980232);
#56=CYLINDRICAL_SURFACE('',#889,2.00000002980232);
#57=CYLINDRICAL_SURFACE('',#902,10.);
#58=CYLINDRICAL_SURFACE('',#904,10.);
#59=CYLINDRICAL_SURFACE('',#906,10.);
#60=CYLINDRICAL_SURFACE('',#908,10.);
#61=CYLINDRICAL_SURFACE('',#910,7.5);
#62=CYLINDRICAL_SURFACE('',#913,7.5);
#63=CYLINDRICAL_SURFACE('',#916,7.5);
#64=CYLINDRICAL_SURFACE('',#919,7.5);
#65=FACE_OUTER_BOUND('',#107,.T.);
#66=FACE_OUTER_BOUND('',#108,.T.);
#67=FACE_OUTER_BOUND('',#109,.T.);
#68=FACE_OUTER_BOUND('',#110,.T.);
#69=FACE_OUTER_BOUND('',#111,.T.);
#70=FACE_OUTER_BOUND('',#112,.T.);
#71=FACE_OUTER_BOUND('',#113,.T.);
#72=FACE_OUTER_BOUND('',#114,.T.);
#73=FACE_OUTER_BOUND('',#115,.T.);
#74=FACE_OUTER_BOUND('',#116,.T.);
#75=FACE_OUTER_BOUND('',#117,.T.);
#76=FACE_OUTER_BOUND('',#118,.T.);
#77=FACE_OUTER_BOUND('',#119,.T.);
#78=FACE_OUTER_BOUND('',#120,.T.);
#79=FACE_OUTER_BOUND('',#121,.T.);
#80=FACE_OUTER_BOUND('',#122,.T.);
#81=FACE_OUTER_BOUND('',#123,.T.);
#82=FACE_OUTER_BOUND('',#124,.T.);
#83=FACE_OUTER_BOUND('',#125,.T.);
#84=FACE_OUTER_BOUND('',#126,.T.);
#85=FACE_OUTER_BOUND('',#127,.T.);
#86=FACE_OUTER_BOUND('',#128,.T.);
#87=FACE_OUTER_BOUND('',#129,.T.);
#88=FACE_OUTER_BOUND('',#130,.T.);
#89=FACE_OUTER_BOUND('',#131,.T.);
#90=FACE_OUTER_BOUND('',#132,.T.);
#91=FACE_OUTER_BOUND('',#133,.T.);
#92=FACE_OUTER_BOUND('',#134,.T.);
#93=FACE_OUTER_BOUND('',#135,.T.);
#94=FACE_OUTER_BOUND('',#137,.T.);
#95=FACE_OUTER_BOUND('',#138,.T.);
#96=FACE_OUTER_BOUND('',#139,.T.);
#97=FACE_OUTER_BOUND('',#140,.T.);
#98=FACE_OUTER_BOUND('',#141,.T.);
#99=FACE_OUTER_BOUND('',#142,.T.);
#100=FACE_OUTER_BOUND('',#143,.T.);
#101=FACE_OUTER_BOUND('',#144,.T.);
#102=FACE_OUTER_BOUND('',#145,.T.);
#103=FACE_OUTER_BOUND('',#146,.T.);
#104=FACE_OUTER_BOUND('',#147,.T.);
#105=FACE_OUTER_BOUND('',#148,.T.);
#106=FACE_OUTER_BOUND('',#149,.T.);
#107=EDGE_LOOP('',(#527,#528,#529,#530));
#108=EDGE_LOOP('',(#531,#532,#533,#534));
#109=EDGE_LOOP('',(#535,#536,#537,#538));
#110=EDGE_LOOP('',(#539,#540,#541,#542));
#111=EDGE_LOOP('',(#543,#544,#545,#546));
#112=EDGE_LOOP('',(#547,#548,#549,#550));
#113=EDGE_LOOP('',(#551,#552,#553,#554));
#114=EDGE_LOOP('',(#555,#556,#557,#558));
#115=EDGE_LOOP('',(#559,#560,#561,#562));
#116=EDGE_LOOP('',(#563,#564,#565,#566));
#117=EDGE_LOOP('',(#567,#568,#569,#570));
#118=EDGE_LOOP('',(#571,#572,#573,#574));
#119=EDGE_LOOP('',(#575,#576,#577,#578));
#120=EDGE_LOOP('',(#579,#580,#581,#582));
#121=EDGE_LOOP('',(#583,#584,#585,#586));
#122=EDGE_LOOP('',(#587,#588,#589,#590));
#123=EDGE_LOOP('',(#591,#592,#593,#594));
#124=EDGE_LOOP('',(#595,#596,#597,#598));
#125=EDGE_LOOP('',(#599,#600,#601,#602));
#126=EDGE_LOOP('',(#603,#604,#605,#606));
#127=EDGE_LOOP('',(#607,#608,#609,#610));
#128=EDGE_LOOP('',(#611,#612,#613,#614));
#129=EDGE_LOOP('',(#615,#616,#617,#618));
#130=EDGE_LOOP('',(#619,#620,#621,#622));
#131=EDGE_LOOP('',(#623,#624,#625,#626));
#132=EDGE_LOOP('',(#627,#628,#629,#630));
#133=EDGE_LOOP('',(#631,#632,#633,#634));
#134=EDGE_LOOP('',(#635,#636,#637,#638));
#135=EDGE_LOOP('',(#639,#640,#641,#642,#643,#644,#645,#646));
#136=EDGE_LOOP('',(#647,#648,#649,#650,#651,#652,#653,#654,#655,#656,#657,
#658,#659,#660,#661,#662,#663,#664,#665,#666,#667,#668,#669,#670,#671,#672,
#673,#674,#675,#676,#677,#678));
#137=EDGE_LOOP('',(#679,#680,#681,#682));
#138=EDGE_LOOP('',(#683,#684,#685,#686));
#139=EDGE_LOOP('',(#687,#688,#689,#690));
#140=EDGE_LOOP('',(#691,#692,#693,#694));
#141=EDGE_LOOP('',(#695,#696,#697,#698));
#142=EDGE_LOOP('',(#699,#700,#701,#702));
#143=EDGE_LOOP('',(#703,#704,#705,#706));
#144=EDGE_LOOP('',(#707,#708,#709,#710));
#145=EDGE_LOOP('',(#711,#712,#713,#714));
#146=EDGE_LOOP('',(#715,#716,#717,#718));
#147=EDGE_LOOP('',(#719,#720,#721,#722));
#148=EDGE_LOOP('',(#723,#724,#725,#726));
#149=EDGE_LOOP('',(#727,#728,#729,#730,#731,#732,#733,#734));
#150=EDGE_LOOP('',(#735,#736,#737,#738,#739,#740,#741,#742,#743,#744,#745,
#746,#747,#748,#749,#750,#751,#752,#753,#754,#755,#756,#757,#758,#759,#760,
#761,#762,#763,#764,#765,#766));
#151=LINE('',#1165,#239);
#152=LINE('',#1167,#240);
#153=LINE('',#1169,#241);
#154=LINE('',#1170,#242);
#155=LINE('',#1176,#243);
#156=LINE('',#1179,#244);
#157=LINE('',#1181,#245);
#158=LINE('',#1182,#246);
#159=LINE('',#1185,#247);
#160=LINE('',#1187,#248);
#161=LINE('',#1188,#249);
#162=LINE('',#1192,#250);
#163=LINE('',#1194,#251);
#164=LINE('',#1196,#252);
#165=LINE('',#1197,#253);
#166=LINE('',#1203,#254);
#167=LINE('',#1205,#255);
#168=LINE('',#1206,#256);
#169=LINE('',#1210,#257);
#170=LINE('',#1212,#258);
#171=LINE('',#1214,#259);
#172=LINE('',#1215,#260);
#173=LINE('',#1221,#261);
#174=LINE('',#1224,#262);
#175=LINE('',#1226,#263);
#176=LINE('',#1227,#264);
#177=LINE('',#1230,#265);
#178=LINE('',#1232,#266);
#179=LINE('',#1233,#267);
#180=LINE('',#1237,#268);
#181=LINE('',#1239,#269);
#182=LINE('',#1241,#270);
#183=LINE('',#1242,#271);
#184=LINE('',#1248,#272);
#185=LINE('',#1250,#273);
#186=LINE('',#1251,#274);
#187=LINE('',#1257,#275);
#188=LINE('',#1260,#276);
#189=LINE('',#1263,#277);
#190=LINE('',#1265,#278);
#191=LINE('',#1266,#279);
#192=LINE('',#1269,#280);
#193=LINE('',#1271,#281);
#194=LINE('',#1272,#282);
#195=LINE('',#1276,#283);
#196=LINE('',#1278,#284);
#197=LINE('',#1280,#285);
#198=LINE('',#1281,#286);
#199=LINE('',#1287,#287);
#200=LINE('',#1289,#288);
#201=LINE('',#1290,#289);
#202=LINE('',#1293,#290);
#203=LINE('',#1295,#291);
#204=LINE('',#1296,#292);
#205=LINE('',#1300,#293);
#206=LINE('',#1302,#294);
#207=LINE('',#1304,#295);
#208=LINE('',#1305,#296);
#209=LINE('',#1311,#297);
#210=LINE('',#1314,#298);
#211=LINE('',#1316,#299);
#212=LINE('',#1317,#300);
#213=LINE('',#1320,#301);
#214=LINE('',#1322,#302);
#215=LINE('',#1323,#303);
#216=LINE('',#1327,#304);
#217=LINE('',#1329,#305);
#218=LINE('',#1331,#306);
#219=LINE('',#1332,#307);
#220=LINE('',#1338,#308);
#221=LINE('',#1340,#309);
#222=LINE('',#1341,#310);
#223=LINE('',#1347,#311);
#224=LINE('',#1351,#312);
#225=LINE('',#1355,#313);
#226=LINE('',#1358,#314);
#227=LINE('',#1375,#315);
#228=LINE('',#1376,#316);
#229=LINE('',#1379,#317);
#230=LINE('',#1380,#318);
#231=LINE('',#1384,#319);
#232=LINE('',#1387,#320);
#233=LINE('',#1388,#321);
#234=LINE('',#1392,#322);
#235=LINE('',#1395,#323);
#236=LINE('',#1396,#324);
#237=LINE('',#1400,#325);
#238=LINE('',#1402,#326);
#239=VECTOR('',#927,10.);
#240=VECTOR('',#928,10.);
#241=VECTOR('',#929,10.);
#242=VECTOR('',#930,10.);
#243=VECTOR('',#937,10.);
#244=VECTOR('',#940,10.);
#245=VECTOR('',#941,10.);
#246=VECTOR('',#942,10.);
#247=VECTOR('',#945,10.);
#248=VECTOR('',#946,10.);
#249=VECTOR('',#947,10.);
#250=VECTOR('',#950,10.);
#251=VECTOR('',#951,10.);
#252=VECTOR('',#952,10.);
#253=VECTOR('',#953,10.);
#254=VECTOR('',#962,10.);
#255=VECTOR('',#963,10.);
#256=VECTOR('',#964,10.);
#257=VECTOR('',#967,10.);
#258=VECTOR('',#968,10.);
#259=VECTOR('',#969,10.);
#260=VECTOR('',#970,10.);
#261=VECTOR('',#977,10.);
#262=VECTOR('',#980,10.);
#263=VECTOR('',#981,10.);
#264=VECTOR('',#982,10.);
#265=VECTOR('',#985,10.);
#266=VECTOR('',#986,10.);
#267=VECTOR('',#987,10.);
#268=VECTOR('',#990,10.);
#269=VECTOR('',#991,10.);
#270=VECTOR('',#992,10.);
#271=VECTOR('',#993,10.);
#272=VECTOR('',#1002,10.);
#273=VECTOR('',#1003,10.);
#274=VECTOR('',#1004,10.);
#275=VECTOR('',#1009,10.);
#276=VECTOR('',#1012,10.);
#277=VECTOR('',#1015,10.);
#278=VECTOR('',#1016,10.);
#279=VECTOR('',#1017,10.);
#280=VECTOR('',#1020,10.);
#281=VECTOR('',#1021,10.);
#282=VECTOR('',#1022,10.);
#283=VECTOR('',#1025,10.);
#284=VECTOR('',#1026,10.);
#285=VECTOR('',#1027,10.);
#286=VECTOR('',#1028,10.);
#287=VECTOR('',#1035,10.);
#288=VECTOR('',#1038,10.);
#289=VECTOR('',#1039,10.);
#290=VECTOR('',#1042,10.);
#291=VECTOR('',#1043,10.);
#292=VECTOR('',#1044,10.);
#293=VECTOR('',#1047,10.);
#294=VECTOR('',#1048,10.);
#295=VECTOR('',#1049,10.);
#296=VECTOR('',#1050,10.);
#297=VECTOR('',#1057,10.);
#298=VECTOR('',#1060,10.);
#299=VECTOR('',#1061,10.);
#300=VECTOR('',#1062,10.);
#301=VECTOR('',#1065,10.);
#302=VECTOR('',#1066,10.);
#303=VECTOR('',#1067,10.);
#304=VECTOR('',#1070,10.);
#305=VECTOR('',#1071,10.);
#306=VECTOR('',#1072,10.);
#307=VECTOR('',#1073,10.);
#308=VECTOR('',#1082,10.);
#309=VECTOR('',#1083,10.);
#310=VECTOR('',#1084,10.);
#311=VECTOR('',#1089,10.);
#312=VECTOR('',#1092,10.);
#313=VECTOR('',#1095,10.);
#314=VECTOR('',#1098,10.);
#315=VECTOR('',#1127,10.);
#316=VECTOR('',#1128,10.);
#317=VECTOR('',#1131,10.);
#318=VECTOR('',#1132,10.);
#319=VECTOR('',#1137,10.);
#320=VECTOR('',#1140,10.);
#321=VECTOR('',#1141,10.);
#322=VECTOR('',#1146,10.);
#323=VECTOR('',#1149,10.);
#324=VECTOR('',#1150,10.);
#325=VECTOR('',#1155,10.);
#326=VECTOR('',#1158,10.);
#327=VERTEX_POINT('',#1163);
#328=VERTEX_POINT('',#1164);
#329=VERTEX_POINT('',#1166);
#330=VERTEX_POINT('',#1168);
#331=VERTEX_POINT('',#1172);
#332=VERTEX_POINT('',#1174);
#333=VERTEX_POINT('',#1178);
#334=VERTEX_POINT('',#1180);
#335=VERTEX_POINT('',#1184);
#336=VERTEX_POINT('',#1186);
#337=VERTEX_POINT('',#1190);
#338=VERTEX_POINT('',#1191);
#339=VERTEX_POINT('',#1193);
#340=VERTEX_POINT('',#1195);
#341=VERTEX_POINT('',#1202);
#342=VERTEX_POINT('',#1204);
#343=VERTEX_POINT('',#1208);
#344=VERTEX_POINT('',#1209);
#345=VERTEX_POINT('',#1211);
#346=VERTEX_POINT('',#1213);
#347=VERTEX_POINT('',#1217);
#348=VERTEX_POINT('',#1219);
#349=VERTEX_POINT('',#1223);
#350=VERTEX_POINT('',#1225);
#351=VERTEX_POINT('',#1229);
#352=VERTEX_POINT('',#1231);
#353=VERTEX_POINT('',#1235);
#354=VERTEX_POINT('',#1236);
#355=VERTEX_POINT('',#1238);
#356=VERTEX_POINT('',#1240);
#357=VERTEX_POINT('',#1247);
#358=VERTEX_POINT('',#1249);
#359=VERTEX_POINT('',#1253);
#360=VERTEX_POINT('',#1254);
#361=VERTEX_POINT('',#1256);
#362=VERTEX_POINT('',#1258);
#363=VERTEX_POINT('',#1262);
#364=VERTEX_POINT('',#1264);
#365=VERTEX_POINT('',#1268);
#366=VERTEX_POINT('',#1270);
#367=VERTEX_POINT('',#1274);
#368=VERTEX_POINT('',#1275);
#369=VERTEX_POINT('',#1277);
#370=VERTEX_POINT('',#1279);
#371=VERTEX_POINT('',#1283);
#372=VERTEX_POINT('',#1285);
#373=VERTEX_POINT('',#1292);
#374=VERTEX_POINT('',#1294);
#375=VERTEX_POINT('',#1298);
#376=VERTEX_POINT('',#1299);
#377=VERTEX_POINT('',#1301);
#378=VERTEX_POINT('',#1303);
#379=VERTEX_POINT('',#1307);
#380=VERTEX_POINT('',#1309);
#381=VERTEX_POINT('',#1313);
#382=VERTEX_POINT('',#1315);
#383=VERTEX_POINT('',#1319);
#384=VERTEX_POINT('',#1321);
#385=VERTEX_POINT('',#1325);
#386=VERTEX_POINT('',#1326);
#387=VERTEX_POINT('',#1328);
#388=VERTEX_POINT('',#1330);
#389=VERTEX_POINT('',#1337);
#390=VERTEX_POINT('',#1339);
#391=VERTEX_POINT('',#1343);
#392=VERTEX_POINT('',#1344);
#393=VERTEX_POINT('',#1346);
#394=VERTEX_POINT('',#1348);
#395=VERTEX_POINT('',#1350);
#396=VERTEX_POINT('',#1352);
#397=VERTEX_POINT('',#1354);
#398=VERTEX_POINT('',#1356);
#399=VERTEX_POINT('',#1372);
#400=VERTEX_POINT('',#1373);
#401=VERTEX_POINT('',#1378);
#402=VERTEX_POINT('',#1382);
#403=VERTEX_POINT('',#1386);
#404=VERTEX_POINT('',#1390);
#405=VERTEX_POINT('',#1394);
#406=VERTEX_POINT('',#1398);
#407=EDGE_CURVE('',#327,#328,#151,.T.);
#408=EDGE_CURVE('',#329,#327,#152,.T.);
#409=EDGE_CURVE('',#330,#329,#153,.T.);
#410=EDGE_CURVE('',#330,#328,#154,.T.);
#411=EDGE_CURVE('',#328,#331,#17,.T.);
#412=EDGE_CURVE('',#332,#330,#18,.T.);
#413=EDGE_CURVE('',#332,#331,#155,.T.);
#414=EDGE_CURVE('',#331,#333,#156,.T.);
#415=EDGE_CURVE('',#334,#332,#157,.T.);
#416=EDGE_CURVE('',#334,#333,#158,.T.);
#417=EDGE_CURVE('',#333,#335,#159,.T.);
#418=EDGE_CURVE('',#336,#334,#160,.T.);
#419=EDGE_CURVE('',#335,#336,#161,.T.);
#420=EDGE_CURVE('',#337,#338,#162,.T.);
#421=EDGE_CURVE('',#339,#337,#163,.T.);
#422=EDGE_CURVE('',#340,#339,#164,.T.);
#423=EDGE_CURVE('',#340,#338,#165,.T.);
#424=EDGE_CURVE('',#338,#327,#19,.T.);
#425=EDGE_CURVE('',#329,#340,#20,.T.);
#426=EDGE_CURVE('',#341,#337,#166,.T.);
#427=EDGE_CURVE('',#342,#341,#167,.T.);
#428=EDGE_CURVE('',#339,#342,#168,.T.);
#429=EDGE_CURVE('',#343,#344,#169,.T.);
#430=EDGE_CURVE('',#345,#343,#170,.T.);
#431=EDGE_CURVE('',#346,#345,#171,.T.);
#432=EDGE_CURVE('',#346,#344,#172,.T.);
#433=EDGE_CURVE('',#344,#347,#21,.T.);
#434=EDGE_CURVE('',#348,#346,#22,.T.);
#435=EDGE_CURVE('',#348,#347,#173,.T.);
#436=EDGE_CURVE('',#347,#349,#174,.T.);
#437=EDGE_CURVE('',#350,#348,#175,.T.);
#438=EDGE_CURVE('',#350,#349,#176,.T.);
#439=EDGE_CURVE('',#349,#351,#177,.T.);
#440=EDGE_CURVE('',#352,#350,#178,.T.);
#441=EDGE_CURVE('',#351,#352,#179,.T.);
#442=EDGE_CURVE('',#353,#354,#180,.T.);
#443=EDGE_CURVE('',#355,#353,#181,.T.);
#444=EDGE_CURVE('',#356,#355,#182,.T.);
#445=EDGE_CURVE('',#356,#354,#183,.T.);
#446=EDGE_CURVE('',#354,#343,#23,.T.);
#447=EDGE_CURVE('',#345,#356,#24,.T.);
#448=EDGE_CURVE('',#357,#353,#184,.T.);
#449=EDGE_CURVE('',#358,#357,#185,.T.);
#450=EDGE_CURVE('',#355,#358,#186,.T.);
#451=EDGE_CURVE('',#359,#360,#25,.T.);
#452=EDGE_CURVE('',#361,#359,#187,.T.);
#453=EDGE_CURVE('',#362,#361,#26,.T.);
#454=EDGE_CURVE('',#362,#360,#188,.T.);
#455=EDGE_CURVE('',#360,#363,#189,.T.);
#456=EDGE_CURVE('',#364,#362,#190,.T.);
#457=EDGE_CURVE('',#364,#363,#191,.T.);
#458=EDGE_CURVE('',#363,#365,#192,.T.);
#459=EDGE_CURVE('',#366,#364,#193,.T.);
#460=EDGE_CURVE('',#365,#366,#194,.T.);
#461=EDGE_CURVE('',#367,#368,#195,.T.);
#462=EDGE_CURVE('',#369,#367,#196,.T.);
#463=EDGE_CURVE('',#370,#369,#197,.T.);
#464=EDGE_CURVE('',#370,#368,#198,.T.);
#465=EDGE_CURVE('',#368,#371,#27,.T.);
#466=EDGE_CURVE('',#372,#370,#28,.T.);
#467=EDGE_CURVE('',#372,#371,#199,.T.);
#468=EDGE_CURVE('',#371,#359,#200,.T.);
#469=EDGE_CURVE('',#361,#372,#201,.T.);
#470=EDGE_CURVE('',#373,#367,#202,.T.);
#471=EDGE_CURVE('',#374,#373,#203,.T.);
#472=EDGE_CURVE('',#369,#374,#204,.T.);
#473=EDGE_CURVE('',#375,#376,#205,.T.);
#474=EDGE_CURVE('',#377,#375,#206,.T.);
#475=EDGE_CURVE('',#378,#377,#207,.T.);
#476=EDGE_CURVE('',#378,#376,#208,.T.);
#477=EDGE_CURVE('',#376,#379,#29,.T.);
#478=EDGE_CURVE('',#380,#378,#30,.T.);
#479=EDGE_CURVE('',#380,#379,#209,.T.);
#480=EDGE_CURVE('',#379,#381,#210,.T.);
#481=EDGE_CURVE('',#382,#380,#211,.T.);
#482=EDGE_CURVE('',#382,#381,#212,.T.);
#483=EDGE_CURVE('',#381,#383,#213,.T.);
#484=EDGE_CURVE('',#384,#382,#214,.T.);
#485=EDGE_CURVE('',#383,#384,#215,.T.);
#486=EDGE_CURVE('',#385,#386,#216,.T.);
#487=EDGE_CURVE('',#387,#385,#217,.T.);
#488=EDGE_CURVE('',#388,#387,#218,.T.);
#489=EDGE_CURVE('',#388,#386,#219,.T.);
#490=EDGE_CURVE('',#386,#375,#31,.T.);
#491=EDGE_CURVE('',#377,#388,#32,.T.);
#492=EDGE_CURVE('',#389,#385,#220,.T.);
#493=EDGE_CURVE('',#390,#389,#221,.T.);
#494=EDGE_CURVE('',#387,#390,#222,.T.);
#495=EDGE_CURVE('',#391,#392,#33,.T.);
#496=EDGE_CURVE('',#391,#393,#223,.T.);
#497=EDGE_CURVE('',#394,#393,#34,.T.);
#498=EDGE_CURVE('',#394,#395,#224,.T.);
#499=EDGE_CURVE('',#396,#395,#35,.T.);
#500=EDGE_CURVE('',#396,#397,#225,.T.);
#501=EDGE_CURVE('',#398,#397,#36,.T.);
#502=EDGE_CURVE('',#398,#392,#226,.T.);
#503=EDGE_CURVE('',#335,#373,#37,.T.);
#504=EDGE_CURVE('',#365,#389,#38,.T.);
#505=EDGE_CURVE('',#383,#357,#39,.T.);
#506=EDGE_CURVE('',#351,#341,#40,.T.);
#507=EDGE_CURVE('',#390,#366,#41,.T.);
#508=EDGE_CURVE('',#358,#384,#42,.T.);
#509=EDGE_CURVE('',#374,#336,#43,.T.);
#510=EDGE_CURVE('',#342,#352,#44,.T.);
#511=EDGE_CURVE('',#399,#400,#45,.T.);
#512=EDGE_CURVE('',#400,#391,#227,.T.);
#513=EDGE_CURVE('',#392,#399,#228,.T.);
#514=EDGE_CURVE('',#401,#398,#229,.T.);
#515=EDGE_CURVE('',#399,#401,#230,.T.);
#516=EDGE_CURVE('',#402,#401,#46,.T.);
#517=EDGE_CURVE('',#397,#402,#231,.T.);
#518=EDGE_CURVE('',#403,#396,#232,.T.);
#519=EDGE_CURVE('',#402,#403,#233,.T.);
#520=EDGE_CURVE('',#404,#403,#47,.T.);
#521=EDGE_CURVE('',#395,#404,#234,.T.);
#522=EDGE_CURVE('',#405,#394,#235,.T.);
#523=EDGE_CURVE('',#404,#405,#236,.T.);
#524=EDGE_CURVE('',#406,#405,#48,.T.);
#525=EDGE_CURVE('',#393,#406,#237,.T.);
#526=EDGE_CURVE('',#406,#400,#238,.T.);
#527=ORIENTED_EDGE('',*,*,#407,.F.);
#528=ORIENTED_EDGE('',*,*,#408,.F.);
#529=ORIENTED_EDGE('',*,*,#409,.F.);
#530=ORIENTED_EDGE('',*,*,#410,.T.);
#531=ORIENTED_EDGE('',*,*,#411,.F.);
#532=ORIENTED_EDGE('',*,*,#410,.F.);
#533=ORIENTED_EDGE('',*,*,#412,.F.);
#534=ORIENTED_EDGE('',*,*,#413,.T.);
#535=ORIENTED_EDGE('',*,*,#414,.F.);
#536=ORIENTED_EDGE('',*,*,#413,.F.);
#537=ORIENTED_EDGE('',*,*,#415,.F.);
#538=ORIENTED_EDGE('',*,*,#416,.T.);
#539=ORIENTED_EDGE('',*,*,#417,.F.);
#540=ORIENTED_EDGE('',*,*,#416,.F.);
#541=ORIENTED_EDGE('',*,*,#418,.F.);
#542=ORIENTED_EDGE('',*,*,#419,.F.);
#543=ORIENTED_EDGE('',*,*,#420,.F.);
#544=ORIENTED_EDGE('',*,*,#421,.F.);
#545=ORIENTED_EDGE('',*,*,#422,.F.);
#546=ORIENTED_EDGE('',*,*,#423,.T.);
#547=ORIENTED_EDGE('',*,*,#424,.F.);
#548=ORIENTED_EDGE('',*,*,#423,.F.);
#549=ORIENTED_EDGE('',*,*,#425,.F.);
#550=ORIENTED_EDGE('',*,*,#408,.T.);
#551=ORIENTED_EDGE('',*,*,#426,.F.);
#552=ORIENTED_EDGE('',*,*,#427,.F.);
#553=ORIENTED_EDGE('',*,*,#428,.F.);
#554=ORIENTED_EDGE('',*,*,#421,.T.);
#555=ORIENTED_EDGE('',*,*,#429,.F.);
#556=ORIENTED_EDGE('',*,*,#430,.F.);
#557=ORIENTED_EDGE('',*,*,#431,.F.);
#558=ORIENTED_EDGE('',*,*,#432,.T.);
#559=ORIENTED_EDGE('',*,*,#433,.F.);
#560=ORIENTED_EDGE('',*,*,#432,.F.);
#561=ORIENTED_EDGE('',*,*,#434,.F.);
#562=ORIENTED_EDGE('',*,*,#435,.T.);
#563=ORIENTED_EDGE('',*,*,#436,.F.);
#564=ORIENTED_EDGE('',*,*,#435,.F.);
#565=ORIENTED_EDGE('',*,*,#437,.F.);
#566=ORIENTED_EDGE('',*,*,#438,.T.);
#567=ORIENTED_EDGE('',*,*,#439,.F.);
#568=ORIENTED_EDGE('',*,*,#438,.F.);
#569=ORIENTED_EDGE('',*,*,#440,.F.);
#570=ORIENTED_EDGE('',*,*,#441,.F.);
#571=ORIENTED_EDGE('',*,*,#442,.F.);
#572=ORIENTED_EDGE('',*,*,#443,.F.);
#573=ORIENTED_EDGE('',*,*,#444,.F.);
#574=ORIENTED_EDGE('',*,*,#445,.T.);
#575=ORIENTED_EDGE('',*,*,#446,.F.);
#576=ORIENTED_EDGE('',*,*,#445,.F.);
#577=ORIENTED_EDGE('',*,*,#447,.F.);
#578=ORIENTED_EDGE('',*,*,#430,.T.);
#579=ORIENTED_EDGE('',*,*,#448,.F.);
#580=ORIENTED_EDGE('',*,*,#449,.F.);
#581=ORIENTED_EDGE('',*,*,#450,.F.);
#582=ORIENTED_EDGE('',*,*,#443,.T.);
#583=ORIENTED_EDGE('',*,*,#451,.F.);
#584=ORIENTED_EDGE('',*,*,#452,.F.);
#585=ORIENTED_EDGE('',*,*,#453,.F.);
#586=ORIENTED_EDGE('',*,*,#454,.T.);
#587=ORIENTED_EDGE('',*,*,#455,.F.);
#588=ORIENTED_EDGE('',*,*,#454,.F.);
#589=ORIENTED_EDGE('',*,*,#456,.F.);
#590=ORIENTED_EDGE('',*,*,#457,.T.);
#591=ORIENTED_EDGE('',*,*,#458,.F.);
#592=ORIENTED_EDGE('',*,*,#457,.F.);
#593=ORIENTED_EDGE('',*,*,#459,.F.);
#594=ORIENTED_EDGE('',*,*,#460,.F.);
#595=ORIENTED_EDGE('',*,*,#461,.F.);
#596=ORIENTED_EDGE('',*,*,#462,.F.);
#597=ORIENTED_EDGE('',*,*,#463,.F.);
#598=ORIENTED_EDGE('',*,*,#464,.T.);
#599=ORIENTED_EDGE('',*,*,#465,.F.);
#600=ORIENTED_EDGE('',*,*,#464,.F.);
#601=ORIENTED_EDGE('',*,*,#466,.F.);
#602=ORIENTED_EDGE('',*,*,#467,.T.);
#603=ORIENTED_EDGE('',*,*,#468,.F.);
#604=ORIENTED_EDGE('',*,*,#467,.F.);
#605=ORIENTED_EDGE('',*,*,#469,.F.);
#606=ORIENTED_EDGE('',*,*,#452,.T.);
#607=ORIENTED_EDGE('',*,*,#470,.F.);
#608=ORIENTED_EDGE('',*,*,#471,.F.);
#609=ORIENTED_EDGE('',*,*,#472,.F.);
#610=ORIENTED_EDGE('',*,*,#462,.T.);
#611=ORIENTED_EDGE('',*,*,#473,.F.);
#612=ORIENTED_EDGE('',*,*,#474,.F.);
#613=ORIENTED_EDGE('',*,*,#475,.F.);
#614=ORIENTED_EDGE('',*,*,#476,.T.);
#615=ORIENTED_EDGE('',*,*,#477,.F.);
#616=ORIENTED_EDGE('',*,*,#476,.F.);
#617=ORIENTED_EDGE('',*,*,#478,.F.);
#618=ORIENTED_EDGE('',*,*,#479,.T.);
#619=ORIENTED_EDGE('',*,*,#480,.F.);
#620=ORIENTED_EDGE('',*,*,#479,.F.);
#621=ORIENTED_EDGE('',*,*,#481,.F.);
#622=ORIENTED_EDGE('',*,*,#482,.T.);
#623=ORIENTED_EDGE('',*,*,#483,.F.);
#624=ORIENTED_EDGE('',*,*,#482,.F.);
#625=ORIENTED_EDGE('',*,*,#484,.F.);
#626=ORIENTED_EDGE('',*,*,#485,.F.);
#627=ORIENTED_EDGE('',*,*,#486,.F.);
#628=ORIENTED_EDGE('',*,*,#487,.F.);
#629=ORIENTED_EDGE('',*,*,#488,.F.);
#630=ORIENTED_EDGE('',*,*,#489,.T.);
#631=ORIENTED_EDGE('',*,*,#490,.F.);
#632=ORIENTED_EDGE('',*,*,#489,.F.);
#633=ORIENTED_EDGE('',*,*,#491,.F.);
#634=ORIENTED_EDGE('',*,*,#474,.T.);
#635=ORIENTED_EDGE('',*,*,#492,.F.);
#636=ORIENTED_EDGE('',*,*,#493,.F.);
#637=ORIENTED_EDGE('',*,*,#494,.F.);
#638=ORIENTED_EDGE('',*,*,#487,.T.);
#639=ORIENTED_EDGE('',*,*,#495,.F.);
#640=ORIENTED_EDGE('',*,*,#496,.T.);
#641=ORIENTED_EDGE('',*,*,#497,.F.);
#642=ORIENTED_EDGE('',*,*,#498,.T.);
#643=ORIENTED_EDGE('',*,*,#499,.F.);
#644=ORIENTED_EDGE('',*,*,#500,.T.);
#645=ORIENTED_EDGE('',*,*,#501,.F.);
#646=ORIENTED_EDGE('',*,*,#502,.T.);
#647=ORIENTED_EDGE('',*,*,#426,.T.);
#648=ORIENTED_EDGE('',*,*,#420,.T.);
#649=ORIENTED_EDGE('',*,*,#424,.T.);
#650=ORIENTED_EDGE('',*,*,#407,.T.);
#651=ORIENTED_EDGE('',*,*,#411,.T.);
#652=ORIENTED_EDGE('',*,*,#414,.T.);
#653=ORIENTED_EDGE('',*,*,#417,.T.);
#654=ORIENTED_EDGE('',*,*,#503,.T.);
#655=ORIENTED_EDGE('',*,*,#470,.T.);
#656=ORIENTED_EDGE('',*,*,#461,.T.);
#657=ORIENTED_EDGE('',*,*,#465,.T.);
#658=ORIENTED_EDGE('',*,*,#468,.T.);
#659=ORIENTED_EDGE('',*,*,#451,.T.);
#660=ORIENTED_EDGE('',*,*,#455,.T.);
#661=ORIENTED_EDGE('',*,*,#458,.T.);
#662=ORIENTED_EDGE('',*,*,#504,.T.);
#663=ORIENTED_EDGE('',*,*,#492,.T.);
#664=ORIENTED_EDGE('',*,*,#486,.T.);
#665=ORIENTED_EDGE('',*,*,#490,.T.);
#666=ORIENTED_EDGE('',*,*,#473,.T.);
#667=ORIENTED_EDGE('',*,*,#477,.T.);
#668=ORIENTED_EDGE('',*,*,#480,.T.);
#669=ORIENTED_EDGE('',*,*,#483,.T.);
#670=ORIENTED_EDGE('',*,*,#505,.T.);
#671=ORIENTED_EDGE('',*,*,#448,.T.);
#672=ORIENTED_EDGE('',*,*,#442,.T.);
#673=ORIENTED_EDGE('',*,*,#446,.T.);
#674=ORIENTED_EDGE('',*,*,#429,.T.);
#675=ORIENTED_EDGE('',*,*,#433,.T.);
#676=ORIENTED_EDGE('',*,*,#436,.T.);
#677=ORIENTED_EDGE('',*,*,#439,.T.);
#678=ORIENTED_EDGE('',*,*,#506,.T.);
#679=ORIENTED_EDGE('',*,*,#460,.T.);
#680=ORIENTED_EDGE('',*,*,#507,.F.);
#681=ORIENTED_EDGE('',*,*,#493,.T.);
#682=ORIENTED_EDGE('',*,*,#504,.F.);
#683=ORIENTED_EDGE('',*,*,#449,.T.);
#684=ORIENTED_EDGE('',*,*,#505,.F.);
#685=ORIENTED_EDGE('',*,*,#485,.T.);
#686=ORIENTED_EDGE('',*,*,#508,.F.);
#687=ORIENTED_EDGE('',*,*,#419,.T.);
#688=ORIENTED_EDGE('',*,*,#509,.F.);
#689=ORIENTED_EDGE('',*,*,#471,.T.);
#690=ORIENTED_EDGE('',*,*,#503,.F.);
#691=ORIENTED_EDGE('',*,*,#427,.T.);
#692=ORIENTED_EDGE('',*,*,#506,.F.);
#693=ORIENTED_EDGE('',*,*,#441,.T.);
#694=ORIENTED_EDGE('',*,*,#510,.F.);
#695=ORIENTED_EDGE('',*,*,#511,.T.);
#696=ORIENTED_EDGE('',*,*,#512,.T.);
#697=ORIENTED_EDGE('',*,*,#495,.T.);
#698=ORIENTED_EDGE('',*,*,#513,.T.);
#699=ORIENTED_EDGE('',*,*,#513,.F.);
#700=ORIENTED_EDGE('',*,*,#502,.F.);
#701=ORIENTED_EDGE('',*,*,#514,.F.);
#702=ORIENTED_EDGE('',*,*,#515,.F.);
#703=ORIENTED_EDGE('',*,*,#516,.T.);
#704=ORIENTED_EDGE('',*,*,#514,.T.);
#705=ORIENTED_EDGE('',*,*,#501,.T.);
#706=ORIENTED_EDGE('',*,*,#517,.T.);
#707=ORIENTED_EDGE('',*,*,#517,.F.);
#708=ORIENTED_EDGE('',*,*,#500,.F.);
#709=ORIENTED_EDGE('',*,*,#518,.F.);
#710=ORIENTED_EDGE('',*,*,#519,.F.);
#711=ORIENTED_EDGE('',*,*,#520,.T.);
#712=ORIENTED_EDGE('',*,*,#518,.T.);
#713=ORIENTED_EDGE('',*,*,#499,.T.);
#714=ORIENTED_EDGE('',*,*,#521,.T.);
#715=ORIENTED_EDGE('',*,*,#521,.F.);
#716=ORIENTED_EDGE('',*,*,#498,.F.);
#717=ORIENTED_EDGE('',*,*,#522,.F.);
#718=ORIENTED_EDGE('',*,*,#523,.F.);
#719=ORIENTED_EDGE('',*,*,#524,.T.);
#720=ORIENTED_EDGE('',*,*,#522,.T.);
#721=ORIENTED_EDGE('',*,*,#497,.T.);
#722=ORIENTED_EDGE('',*,*,#525,.T.);
#723=ORIENTED_EDGE('',*,*,#512,.F.);
#724=ORIENTED_EDGE('',*,*,#526,.F.);
#725=ORIENTED_EDGE('',*,*,#525,.F.);
#726=ORIENTED_EDGE('',*,*,#496,.F.);
#727=ORIENTED_EDGE('',*,*,#511,.F.);
#728=ORIENTED_EDGE('',*,*,#515,.T.);
#729=ORIENTED_EDGE('',*,*,#516,.F.);
#730=ORIENTED_EDGE('',*,*,#519,.T.);
#731=ORIENTED_EDGE('',*,*,#520,.F.);
#732=ORIENTED_EDGE('',*,*,#523,.T.);
#733=ORIENTED_EDGE('',*,*,#524,.F.);
#734=ORIENTED_EDGE('',*,*,#526,.T.);
#735=ORIENTED_EDGE('',*,*,#428,.T.);
#736=ORIENTED_EDGE('',*,*,#510,.T.);
#737=ORIENTED_EDGE('',*,*,#440,.T.);
#738=ORIENTED_EDGE('',*,*,#437,.T.);
#739=ORIENTED_EDGE('',*,*,#434,.T.);
#740=ORIENTED_EDGE('',*,*,#431,.T.);
#741=ORIENTED_EDGE('',*,*,#447,.T.);
#742=ORIENTED_EDGE('',*,*,#444,.T.);
#743=ORIENTED_EDGE('',*,*,#450,.T.);
#744=ORIENTED_EDGE('',*,*,#508,.T.);
#745=ORIENTED_EDGE('',*,*,#484,.T.);
#746=ORIENTED_EDGE('',*,*,#481,.T.);
#747=ORIENTED_EDGE('',*,*,#478,.T.);
#748=ORIENTED_EDGE('',*,*,#475,.T.);
#749=ORIENTED_EDGE('',*,*,#491,.T.);
#750=ORIENTED_EDGE('',*,*,#488,.T.);
#751=ORIENTED_EDGE('',*,*,#494,.T.);
#752=ORIENTED_EDGE('',*,*,#507,.T.);
#753=ORIENTED_EDGE('',*,*,#459,.T.);
#754=ORIENTED_EDGE('',*,*,#456,.T.);
#755=ORIENTED_EDGE('',*,*,#453,.T.);
#756=ORIENTED_EDGE('',*,*,#469,.T.);
#757=ORIENTED_EDGE('',*,*,#466,.T.);
#758=ORIENTED_EDGE('',*,*,#463,.T.);
#759=ORIENTED_EDGE('',*,*,#472,.T.);
#760=ORIENTED_EDGE('',*,*,#509,.T.);
#761=ORIENTED_EDGE('',*,*,#418,.T.);
#762=ORIENTED_EDGE('',*,*,#415,.T.);
#763=ORIENTED_EDGE('',*,*,#412,.T.);
#764=ORIENTED_EDGE('',*,*,#409,.T.);
#765=ORIENTED_EDGE('',*,*,#425,.T.);
#766=ORIENTED_EDGE('',*,*,#422,.T.);
#767=PLANE('',#849);
#768=PLANE('',#853);
#769=PLANE('',#854);
#770=PLANE('',#855);
#771=PLANE('',#859);
#772=PLANE('',#860);
#773=PLANE('',#864);
#774=PLANE('',#865);
#775=PLANE('',#866);
#776=PLANE('',#870);
#777=PLANE('',#874);
#778=PLANE('',#875);
#779=PLANE('',#876);
#780=PLANE('',#880);
#781=PLANE('',#881);
#782=PLANE('',#882);
#783=PLANE('',#886);
#784=PLANE('',#887);
#785=PLANE('',#888);
#786=PLANE('',#892);
#787=PLANE('',#893);
#788=PLANE('',#912);
#789=PLANE('',#915);
#790=PLANE('',#918);
#791=PLANE('',#921);
#792=PLANE('',#922);
#793=ADVANCED_FACE('',(#65),#767,.F.);
#794=ADVANCED_FACE('',(#66),#49,.F.);
#795=ADVANCED_FACE('',(#67),#768,.F.);
#796=ADVANCED_FACE('',(#68),#769,.F.);
#797=ADVANCED_FACE('',(#69),#770,.F.);
#798=ADVANCED_FACE('',(#70),#50,.F.);
#799=ADVANCED_FACE('',(#71),#771,.F.);
#800=ADVANCED_FACE('',(#72),#772,.F.);
#801=ADVANCED_FACE('',(#73),#51,.F.);
#802=ADVANCED_FACE('',(#74),#773,.F.);
#803=ADVANCED_FACE('',(#75),#774,.F.);
#804=ADVANCED_FACE('',(#76),#775,.F.);
#805=ADVANCED_FACE('',(#77),#52,.F.);
#806=ADVANCED_FACE('',(#78),#776,.F.);
#807=ADVANCED_FACE('',(#79),#53,.F.);
#808=ADVANCED_FACE('',(#80),#777,.F.);
#809=ADVANCED_FACE('',(#81),#778,.F.);
#810=ADVANCED_FACE('',(#82),#779,.F.);
#811=ADVANCED_FACE('',(#83),#54,.F.);
#812=ADVANCED_FACE('',(#84),#780,.F.);
#813=ADVANCED_FACE('',(#85),#781,.F.);
#814=ADVANCED_FACE('',(#86),#782,.F.);
#815=ADVANCED_FACE('',(#87),#55,.F.);
#816=ADVANCED_FACE('',(#88),#783,.F.);
#817=ADVANCED_FACE('',(#89),#784,.F.);
#818=ADVANCED_FACE('',(#90),#785,.F.);
#819=ADVANCED_FACE('',(#91),#56,.F.);
#820=ADVANCED_FACE('',(#92),#786,.F.);
#821=ADVANCED_FACE('',(#93,#15),#787,.F.);
#822=ADVANCED_FACE('',(#94),#57,.F.);
#823=ADVANCED_FACE('',(#95),#58,.F.);
#824=ADVANCED_FACE('',(#96),#59,.F.);
#825=ADVANCED_FACE('',(#97),#60,.F.);
#826=ADVANCED_FACE('',(#98),#61,.T.);
#827=ADVANCED_FACE('',(#99),#788,.T.);
#828=ADVANCED_FACE('',(#100),#62,.T.);
#829=ADVANCED_FACE('',(#101),#789,.T.);
#830=ADVANCED_FACE('',(#102),#63,.T.);
#831=ADVANCED_FACE('',(#103),#790,.T.);
#832=ADVANCED_FACE('',(#104),#64,.T.);
#833=ADVANCED_FACE('',(#105),#791,.T.);
#834=ADVANCED_FACE('',(#106,#16),#792,.T.);
#835=CLOSED_SHELL('',(#793,#794,#795,#796,#797,#798,#799,#800,#801,#802,
#803,#804,#805,#806,#807,#808,#809,#810,#811,#812,#813,#814,#815,#816,#817,
#818,#819,#820,#821,#822,#823,#824,#825,#826,#827,#828,#829,#830,#831,#832,
#833,#834));
#836=DERIVED_UNIT_ELEMENT(#838,1.);
#837=DERIVED_UNIT_ELEMENT(#1409,-3.);
#838=(
MASS_UNIT()
NAMED_UNIT(*)
SI_UNIT(.KILO.,.GRAM.)
);
#839=DERIVED_UNIT((#836,#837));
#840=MEASURE_REPRESENTATION_ITEM('density measure',
POSITIVE_RATIO_MEASURE(7850.),#839);
#841=PROPERTY_DEFINITION_REPRESENTATION(#846,#843);
#842=PROPERTY_DEFINITION_REPRESENTATION(#847,#844);
#843=REPRESENTATION('material name',(#845),#1406);
#844=REPRESENTATION('density',(#840),#1406);
#845=DESCRIPTIVE_REPRESENTATION_ITEM('Steel','Steel');
#846=PROPERTY_DEFINITION('material property','material name',#1416);
#847=PROPERTY_DEFINITION('material property','density of part',#1416);
#848=AXIS2_PLACEMENT_3D('',#1161,#923,#924);
#849=AXIS2_PLACEMENT_3D('',#1162,#925,#926);
#850=AXIS2_PLACEMENT_3D('',#1171,#931,#932);
#851=AXIS2_PLACEMENT_3D('',#1173,#933,#934);
#852=AXIS2_PLACEMENT_3D('',#1175,#935,#936);
#853=AXIS2_PLACEMENT_3D('',#1177,#938,#939);
#854=AXIS2_PLACEMENT_3D('',#1183,#943,#944);
#855=AXIS2_PLACEMENT_3D('',#1189,#948,#949);
#856=AXIS2_PLACEMENT_3D('',#1198,#954,#955);
#857=AXIS2_PLACEMENT_3D('',#1199,#956,#957);
#858=AXIS2_PLACEMENT_3D('',#1200,#958,#959);
#859=AXIS2_PLACEMENT_3D('',#1201,#960,#961);
#860=AXIS2_PLACEMENT_3D('',#1207,#965,#966);
#861=AXIS2_PLACEMENT_3D('',#1216,#971,#972);
#862=AXIS2_PLACEMENT_3D('',#1218,#973,#974);
#863=AXIS2_PLACEMENT_3D('',#1220,#975,#976);
#864=AXIS2_PLACEMENT_3D('',#1222,#978,#979);
#865=AXIS2_PLACEMENT_3D('',#1228,#983,#984);
#866=AXIS2_PLACEMENT_3D('',#1234,#988,#989);
#867=AXIS2_PLACEMENT_3D('',#1243,#994,#995);
#868=AXIS2_PLACEMENT_3D('',#1244,#996,#997);
#869=AXIS2_PLACEMENT_3D('',#1245,#998,#999);
#870=AXIS2_PLACEMENT_3D('',#1246,#1000,#1001);
#871=AXIS2_PLACEMENT_3D('',#1252,#1005,#1006);
#872=AXIS2_PLACEMENT_3D('',#1255,#1007,#1008);
#873=AXIS2_PLACEMENT_3D('',#1259,#1010,#1011);
#874=AXIS2_PLACEMENT_3D('',#1261,#1013,#1014);
#875=AXIS2_PLACEMENT_3D('',#1267,#1018,#1019);
#876=AXIS2_PLACEMENT_3D('',#1273,#1023,#1024);
#877=AXIS2_PLACEMENT_3D('',#1282,#1029,#1030);
#878=AXIS2_PLACEMENT_3D('',#1284,#1031,#1032);
#879=AXIS2_PLACEMENT_3D('',#1286,#1033,#1034);
#880=AXIS2_PLACEMENT_3D('',#1288,#1036,#1037);
#881=AXIS2_PLACEMENT_3D('',#1291,#1040,#1041);
#882=AXIS2_PLACEMENT_3D('',#1297,#1045,#1046);
#883=AXIS2_PLACEMENT_3D('',#1306,#1051,#1052);
#884=AXIS2_PLACEMENT_3D('',#1308,#1053,#1054);
#885=AXIS2_PLACEMENT_3D('',#1310,#1055,#1056);
#886=AXIS2_PLACEMENT_3D('',#1312,#1058,#1059);
#887=AXIS2_PLACEMENT_3D('',#1318,#1063,#1064);
#888=AXIS2_PLACEMENT_3D('',#1324,#1068,#1069);
#889=AXIS2_PLACEMENT_3D('',#1333,#1074,#1075);
#890=AXIS2_PLACEMENT_3D('',#1334,#1076,#1077);
#891=AXIS2_PLACEMENT_3D('',#1335,#1078,#1079);
#892=AXIS2_PLACEMENT_3D('',#1336,#1080,#1081);
#893=AXIS2_PLACEMENT_3D('',#1342,#1085,#1086);
#894=AXIS2_PLACEMENT_3D('',#1345,#1087,#1088);
#895=AXIS2_PLACEMENT_3D('',#1349,#1090,#1091);
#896=AXIS2_PLACEMENT_3D('',#1353,#1093,#1094);
#897=AXIS2_PLACEMENT_3D('',#1357,#1096,#1097);
#898=AXIS2_PLACEMENT_3D('',#1359,#1099,#1100);
#899=AXIS2_PLACEMENT_3D('',#1360,#1101,#1102);
#900=AXIS2_PLACEMENT_3D('',#1361,#1103,#1104);
#901=AXIS2_PLACEMENT_3D('',#1362,#1105,#1106);
#902=AXIS2_PLACEMENT_3D('',#1363,#1107,#1108);
#903=AXIS2_PLACEMENT_3D('',#1364,#1109,#1110);
#904=AXIS2_PLACEMENT_3D('',#1365,#1111,#1112);
#905=AXIS2_PLACEMENT_3D('',#1366,#1113,#1114);
#906=AXIS2_PLACEMENT_3D('',#1367,#1115,#1116);
#907=AXIS2_PLACEMENT_3D('',#1368,#1117,#1118);
#908=AXIS2_PLACEMENT_3D('',#1369,#1119,#1120);
#909=AXIS2_PLACEMENT_3D('',#1370,#1121,#1122);
#910=AXIS2_PLACEMENT_3D('',#1371,#1123,#1124);
#911=AXIS2_PLACEMENT_3D('',#1374,#1125,#1126);
#912=AXIS2_PLACEMENT_3D('',#1377,#1129,#1130);
#913=AXIS2_PLACEMENT_3D('',#1381,#1133,#1134);
#914=AXIS2_PLACEMENT_3D('',#1383,#1135,#1136);
#915=AXIS2_PLACEMENT_3D('',#1385,#1138,#1139);
#916=AXIS2_PLACEMENT_3D('',#1389,#1142,#1143);
#917=AXIS2_PLACEMENT_3D('',#1391,#1144,#1145);
#918=AXIS2_PLACEMENT_3D('',#1393,#1147,#1148);
#919=AXIS2_PLACEMENT_3D('',#1397,#1151,#1152);
#920=AXIS2_PLACEMENT_3D('',#1399,#1153,#1154);
#921=AXIS2_PLACEMENT_3D('',#1401,#1156,#1157);
#922=AXIS2_PLACEMENT_3D('',#1403,#1159,#1160);
#923=DIRECTION('axis',(0.,0.,1.));
#924=DIRECTION('refdir',(1.,0.,0.));
#925=DIRECTION('center_axis',(0.,0.,1.));
#926=DIRECTION('ref_axis',(-1.,0.,0.));
#927=DIRECTION('',(1.,0.,0.));
#928=DIRECTION('',(0.,-1.,0.));
#929=DIRECTION('',(-1.,0.,0.));
#930=DIRECTION('',(0.,-1.,0.));
#931=DIRECTION('center_axis',(0.,-1.,0.));
#932=DIRECTION('ref_axis',(0.,0.,1.));
#933=DIRECTION('center_axis',(0.,1.,0.));
#934=DIRECTION('ref_axis',(0.,0.,1.));
#935=DIRECTION('center_axis',(0.,-1.,0.));
#936=DIRECTION('ref_axis',(0.,0.,1.));
#937=DIRECTION('',(0.,-1.,0.));
#938=DIRECTION('center_axis',(0.,0.,-1.));
#939=DIRECTION('ref_axis',(1.,0.,0.));
#940=DIRECTION('',(-1.,0.,0.));
#941=DIRECTION('',(1.,0.,0.));
#942=DIRECTION('',(0.,-1.,0.));
#943=DIRECTION('center_axis',(1.,0.,0.));
#944=DIRECTION('ref_axis',(0.,0.,1.));
#945=DIRECTION('',(0.,0.,-1.));
#946=DIRECTION('',(0.,0.,1.));
#947=DIRECTION('',(0.,1.,0.));
#948=DIRECTION('center_axis',(0.,0.,-1.));
#949=DIRECTION('ref_axis',(1.,0.,0.));
#950=DIRECTION('',(-1.,0.,0.));
#951=DIRECTION('',(0.,-1.,0.));
#952=DIRECTION('',(1.,0.,0.));
#953=DIRECTION('',(0.,-1.,0.));
#954=DIRECTION('center_axis',(0.,-1.,0.));
#955=DIRECTION('ref_axis',(0.,0.,-1.));
#956=DIRECTION('center_axis',(0.,1.,0.));
#957=DIRECTION('ref_axis',(0.,0.,-1.));
#958=DIRECTION('center_axis',(0.,-1.,0.));
#959=DIRECTION('ref_axis',(0.,0.,-1.));
#960=DIRECTION('center_axis',(-1.,0.,0.));
#961=DIRECTION('ref_axis',(0.,0.,-1.));
#962=DIRECTION('',(0.,0.,1.));
#963=DIRECTION('',(0.,-1.,0.));
#964=DIRECTION('',(0.,0.,-1.));
#965=DIRECTION('center_axis',(-1.,0.,0.));
#966=DIRECTION('ref_axis',(0.,0.,-1.));
#967=DIRECTION('',(0.,0.,1.));
#968=DIRECTION('',(0.,-1.,0.));
#969=DIRECTION('',(0.,0.,-1.));
#970=DIRECTION('',(0.,-1.,0.));
#971=DIRECTION('center_axis',(0.,-1.,0.));
#972=DIRECTION('ref_axis',(-1.,0.,-2.77555752020386E-16));
#973=DIRECTION('center_axis',(0.,1.,0.));
#974=DIRECTION('ref_axis',(-1.,0.,-2.77555752020386E-16));
#975=DIRECTION('center_axis',(0.,-1.,0.));
#976=DIRECTION('ref_axis',(-1.,0.,-2.77555752020386E-16));
#977=DIRECTION('',(0.,-1.,0.));
#978=DIRECTION('center_axis',(1.,0.,0.));
#979=DIRECTION('ref_axis',(0.,0.,1.));
#980=DIRECTION('',(0.,0.,-1.));
#981=DIRECTION('',(0.,0.,1.));
#982=DIRECTION('',(0.,-1.,0.));
#983=DIRECTION('center_axis',(-2.22044601616309E-16,0.,1.));
#984=DIRECTION('ref_axis',(-1.,0.,-2.22044601616309E-16));
#985=DIRECTION('',(1.,0.,2.22044601616309E-16));
#986=DIRECTION('',(-1.,0.,-2.22044601616309E-16));
#987=DIRECTION('',(0.,1.,0.));
#988=DIRECTION('center_axis',(1.,0.,0.));
#989=DIRECTION('ref_axis',(0.,0.,1.));
#990=DIRECTION('',(0.,0.,-1.));
#991=DIRECTION('',(0.,-1.,0.));
#992=DIRECTION('',(0.,0.,1.));
#993=DIRECTION('',(0.,-1.,0.));
#994=DIRECTION('center_axis',(0.,-1.,0.));
#995=DIRECTION('ref_axis',(1.,0.,2.77555752020386E-16));
#996=DIRECTION('center_axis',(0.,1.,0.));
#997=DIRECTION('ref_axis',(1.,0.,2.77555752020386E-16));
#998=DIRECTION('center_axis',(0.,-1.,0.));
#999=DIRECTION('ref_axis',(1.,0.,2.77555752020386E-16));
#1000=DIRECTION('center_axis',(2.22044601616309E-16,0.,-1.));
#1001=DIRECTION('ref_axis',(1.,0.,2.22044601616309E-16));
#1002=DIRECTION('',(-1.,0.,-2.22044601616309E-16));
#1003=DIRECTION('',(0.,-1.,0.));
#1004=DIRECTION('',(1.,0.,2.22044601616309E-16));
#1005=DIRECTION('center_axis',(0.,-1.,0.));
#1006=DIRECTION('ref_axis',(1.,0.,-2.77555752020386E-16));
#1007=DIRECTION('center_axis',(0.,1.,0.));
#1008=DIRECTION('ref_axis',(1.,0.,-2.77555752020386E-16));
#1009=DIRECTION('',(0.,-1.,0.));
#1010=DIRECTION('center_axis',(0.,-1.,0.));
#1011=DIRECTION('ref_axis',(1.,0.,-2.77555752020386E-16));
#1012=DIRECTION('',(0.,-1.,0.));
#1013=DIRECTION('center_axis',(-1.,0.,0.));
#1014=DIRECTION('ref_axis',(0.,0.,-1.));
#1015=DIRECTION('',(0.,0.,1.));
#1016=DIRECTION('',(0.,0.,-1.));
#1017=DIRECTION('',(0.,-1.,0.));
#1018=DIRECTION('center_axis',(-2.22044601616309E-16,0.,-1.));
#1019=DIRECTION('ref_axis',(1.,0.,-2.22044601616309E-16));
#1020=DIRECTION('',(-1.,0.,2.22044601616309E-16));
#1021=DIRECTION('',(1.,0.,-2.22044601616309E-16));
#1022=DIRECTION('',(0.,1.,0.));
#1023=DIRECTION('center_axis',(-1.,0.,0.));
#1024=DIRECTION('ref_axis',(0.,0.,-1.));
#1025=DIRECTION('',(0.,0.,1.));
#1026=DIRECTION('',(0.,-1.,0.));
#1027=DIRECTION('',(0.,0.,-1.));
#1028=DIRECTION('',(0.,-1.,0.));
#1029=DIRECTION('center_axis',(0.,-1.,0.));
#1030=DIRECTION('ref_axis',(-1.,0.,2.77555752020386E-16));
#1031=DIRECTION('center_axis',(0.,1.,0.));
#1032=DIRECTION('ref_axis',(-1.,0.,2.77555752020386E-16));
#1033=DIRECTION('center_axis',(0.,-1.,0.));
#1034=DIRECTION('ref_axis',(-1.,0.,2.77555752020386E-16));
#1035=DIRECTION('',(0.,-1.,0.));
#1036=DIRECTION('center_axis',(1.,0.,0.));
#1037=DIRECTION('ref_axis',(0.,0.,1.));
#1038=DIRECTION('',(0.,0.,-1.));
#1039=DIRECTION('',(0.,0.,1.));
#1040=DIRECTION('center_axis',(2.22044601616309E-16,0.,1.));
#1041=DIRECTION('ref_axis',(-1.,0.,2.22044601616309E-16));
#1042=DIRECTION('',(1.,0.,-2.22044601616309E-16));
#1043=DIRECTION('',(0.,-1.,0.));
#1044=DIRECTION('',(-1.,0.,2.22044601616309E-16));
#1045=DIRECTION('center_axis',(0.,0.,-1.));
#1046=DIRECTION('ref_axis',(1.,0.,0.));
#1047=DIRECTION('',(-1.,0.,0.));
#1048=DIRECTION('',(0.,-1.,0.));
#1049=DIRECTION('',(1.,0.,0.));
#1050=DIRECTION('',(0.,-1.,0.));
#1051=DIRECTION('center_axis',(0.,-1.,0.));
#1052=DIRECTION('ref_axis',(0.,0.,-1.));
#1053=DIRECTION('center_axis',(0.,1.,0.));
#1054=DIRECTION('ref_axis',(0.,0.,-1.));
#1055=DIRECTION('center_axis',(0.,-1.,0.));
#1056=DIRECTION('ref_axis',(0.,0.,-1.));
#1057=DIRECTION('',(0.,-1.,0.));
#1058=DIRECTION('center_axis',(0.,0.,1.));
#1059=DIRECTION('ref_axis',(-1.,0.,0.));
#1060=DIRECTION('',(1.,0.,0.));
#1061=DIRECTION('',(-1.,0.,0.));
#1062=DIRECTION('',(0.,-1.,0.));
#1063=DIRECTION('center_axis',(-1.,0.,-1.11022300808154E-16));
#1064=DIRECTION('ref_axis',(1.11022300808154E-16,0.,-1.));
#1065=DIRECTION('',(-1.11022300808154E-16,0.,1.));
#1066=DIRECTION('',(1.11022300808154E-16,0.,-1.));
#1067=DIRECTION('',(0.,1.,0.));
#1068=DIRECTION('center_axis',(0.,0.,1.));
#1069=DIRECTION('ref_axis',(-1.,0.,0.));
#1070=DIRECTION('',(1.,0.,0.));
#1071=DIRECTION('',(0.,-1.,0.));
#1072=DIRECTION('',(-1.,0.,0.));
#1073=DIRECTION('',(0.,-1.,0.));
#1074=DIRECTION('center_axis',(0.,-1.,0.));
#1075=DIRECTION('ref_axis',(-2.77555752020386E-16,0.,1.));
#1076=DIRECTION('center_axis',(0.,1.,0.));
#1077=DIRECTION('ref_axis',(-2.77555752020386E-16,0.,1.));
#1078=DIRECTION('center_axis',(0.,-1.,0.));
#1079=DIRECTION('ref_axis',(-2.77555752020386E-16,0.,1.));
#1080=DIRECTION('center_axis',(1.,0.,1.11022300808154E-16));
#1081=DIRECTION('ref_axis',(-1.11022300808154E-16,0.,1.));
#1082=DIRECTION('',(1.11022300808154E-16,0.,-1.));
#1083=DIRECTION('',(0.,-1.,0.));
#1084=DIRECTION('',(-1.11022300808154E-16,0.,1.));
#1085=DIRECTION('center_axis',(0.,1.,0.));
#1086=DIRECTION('ref_axis',(1.,0.,0.));
#1087=DIRECTION('center_axis',(0.,1.,0.));
#1088=DIRECTION('ref_axis',(0.707106781186547,0.,-0.707106781186547));
#1089=DIRECTION('',(0.,0.,1.));
#1090=DIRECTION('center_axis',(0.,1.,0.));
#1091=DIRECTION('ref_axis',(0.707106781186547,0.,0.707106781186547));
#1092=DIRECTION('',(-1.,0.,0.));
#1093=DIRECTION('center_axis',(0.,1.,0.));
#1094=DIRECTION('ref_axis',(-0.707106781186547,0.,0.707106781186547));
#1095=DIRECTION('',(0.,0.,-1.));
#1096=DIRECTION('center_axis',(0.,1.,0.));
#1097=DIRECTION('ref_axis',(-0.707106781186547,0.,-0.707106781186547));
#1098=DIRECTION('',(1.,0.,0.));
#1099=DIRECTION('center_axis',(0.,1.,0.));
#1100=DIRECTION('ref_axis',(-1.,0.,0.));
#1101=DIRECTION('center_axis',(0.,1.,0.));
#1102=DIRECTION('ref_axis',(-1.,0.,0.));
#1103=DIRECTION('center_axis',(0.,1.,0.));
#1104=DIRECTION('ref_axis',(-1.,0.,0.));
#1105=DIRECTION('center_axis',(0.,1.,0.));
#1106=DIRECTION('ref_axis',(-1.,0.,0.));
#1107=DIRECTION('center_axis',(0.,-1.,0.));
#1108=DIRECTION('ref_axis',(-1.,0.,0.));
#1109=DIRECTION('center_axis',(0.,-1.,0.));
#1110=DIRECTION('ref_axis',(-1.,0.,0.));
#1111=DIRECTION('center_axis',(0.,-1.,0.));
#1112=DIRECTION('ref_axis',(-1.,0.,0.));
#1113=DIRECTION('center_axis',(0.,-1.,0.));
#1114=DIRECTION('ref_axis',(-1.,0.,0.));
#1115=DIRECTION('center_axis',(0.,-1.,0.));
#1116=DIRECTION('ref_axis',(-1.,0.,0.));
#1117=DIRECTION('center_axis',(0.,-1.,0.));
#1118=DIRECTION('ref_axis',(-1.,0.,0.));
#1119=DIRECTION('center_axis',(0.,-1.,0.));
#1120=DIRECTION('ref_axis',(-1.,0.,0.));
#1121=DIRECTION('center_axis',(0.,-1.,0.));
#1122=DIRECTION('ref_axis',(-1.,0.,0.));
#1123=DIRECTION('center_axis',(0.,1.,0.));
#1124=DIRECTION('ref_axis',(0.707106781186547,0.,-0.707106781186547));
#1125=DIRECTION('center_axis',(0.,-1.,0.));
#1126=DIRECTION('ref_axis',(0.707106781186547,0.,-0.707106781186547));
#1127=DIRECTION('',(0.,-1.,0.));
#1128=DIRECTION('',(0.,1.,0.));
#1129=DIRECTION('center_axis',(0.,0.,-1.));
#1130=DIRECTION('ref_axis',(-1.,0.,0.));
#1131=DIRECTION('',(0.,-1.,0.));
#1132=DIRECTION('',(-1.,0.,0.));
#1133=DIRECTION('center_axis',(0.,1.,0.));
#1134=DIRECTION('ref_axis',(-0.707106781186547,0.,-0.707106781186547));
#1135=DIRECTION('center_axis',(0.,-1.,0.));
#1136=DIRECTION('ref_axis',(-0.707106781186547,0.,-0.707106781186547));
#1137=DIRECTION('',(0.,1.,0.));
#1138=DIRECTION('center_axis',(-1.,0.,0.));
#1139=DIRECTION('ref_axis',(0.,0.,1.));
#1140=DIRECTION('',(0.,-1.,0.));
#1141=DIRECTION('',(0.,0.,1.));
#1142=DIRECTION('center_axis',(0.,1.,0.));
#1143=DIRECTION('ref_axis',(-0.707106781186547,0.,0.707106781186547));
#1144=DIRECTION('center_axis',(0.,-1.,0.));
#1145=DIRECTION('ref_axis',(-0.707106781186547,0.,0.707106781186547));
#1146=DIRECTION('',(0.,1.,0.));
#1147=DIRECTION('center_axis',(0.,0.,1.));
#1148=DIRECTION('ref_axis',(1.,0.,0.));
#1149=DIRECTION('',(0.,-1.,0.));
#1150=DIRECTION('',(1.,0.,0.));
#1151=DIRECTION('center_axis',(0.,1.,0.));
#1152=DIRECTION('ref_axis',(0.707106781186547,0.,0.707106781186547));
#1153=DIRECTION('center_axis',(0.,-1.,0.));
#1154=DIRECTION('ref_axis',(0.707106781186547,0.,0.707106781186547));
#1155=DIRECTION('',(0.,1.,0.));
#1156=DIRECTION('center_axis',(1.,0.,0.));
#1157=DIRECTION('ref_axis',(0.,0.,-1.));
#1158=DIRECTION('',(0.,0.,-1.));
#1159=DIRECTION('center_axis',(0.,1.,0.));
#1160=DIRECTION('ref_axis',(0.,0.,1.));
#1161=CARTESIAN_POINT('',(0.,0.,0.));
#1162=CARTESIAN_POINT('Origin',(4.00000005960464,35.,15.0000002235174));
#1163=CARTESIAN_POINT('',(-4.00000005960464,0.,15.0000002235174));
#1164=CARTESIAN_POINT('',(4.00000005960464,0.,15.0000002235174));
#1165=CARTESIAN_POINT('',(2.00000002980232,0.,15.0000002235174));
#1166=CARTESIAN_POINT('',(-4.00000005960464,35.,15.0000002235174));
#1167=CARTESIAN_POINT('',(-4.00000005960464,35.,15.0000002235174));
#1168=CARTESIAN_POINT('',(4.00000005960464,35.,15.0000002235174));
#1169=CARTESIAN_POINT('',(2.00000002980232,35.,15.0000002235174));
#1170=CARTESIAN_POINT('',(4.00000005960464,35.,15.0000002235174));
#1171=CARTESIAN_POINT('Origin',(4.00000005960464,35.,13.0000001937151));
#1172=CARTESIAN_POINT('',(4.00000005960464,0.,11.0000001639128));
#1173=CARTESIAN_POINT('Origin',(4.00000005960464,0.,13.0000001937151));
#1174=CARTESIAN_POINT('',(4.00000005960464,35.,11.0000001639128));
#1175=CARTESIAN_POINT('Origin',(4.00000005960464,35.,13.0000001937151));
#1176=CARTESIAN_POINT('',(4.00000005960464,35.,11.0000001639128));
#1177=CARTESIAN_POINT('Origin',(2.00000002980232,35.,11.0000001639128));
#1178=CARTESIAN_POINT('',(2.00000002980232,0.,11.0000001639128));
#1179=CARTESIAN_POINT('',(1.00000001490116,0.,11.0000001639128));
#1180=CARTESIAN_POINT('',(2.00000002980232,35.,11.0000001639128));
#1181=CARTESIAN_POINT('',(1.00000001490116,35.,11.0000001639128));
#1182=CARTESIAN_POINT('',(2.00000002980232,35.,11.0000001639128));
#1183=CARTESIAN_POINT('Origin',(2.00000002980232,35.,9.79795896504934));
#1184=CARTESIAN_POINT('',(2.00000002980232,0.,9.79795896504934));
#1185=CARTESIAN_POINT('',(2.00000002980232,0.,4.89897948252467));
#1186=CARTESIAN_POINT('',(2.00000002980232,35.,9.79795896504934));
#1187=CARTESIAN_POINT('',(2.00000002980232,35.,4.89897948252467));
#1188=CARTESIAN_POINT('',(2.00000002980232,35.,9.79795896504934));
#1189=CARTESIAN_POINT('Origin',(-4.00000005960464,35.,11.0000001639128));
#1190=CARTESIAN_POINT('',(-2.00000002980232,0.,11.0000001639128));
#1191=CARTESIAN_POINT('',(-4.00000005960464,0.,11.0000001639128));
#1192=CARTESIAN_POINT('',(-2.00000002980232,0.,11.0000001639128));
#1193=CARTESIAN_POINT('',(-2.00000002980232,35.,11.0000001639128));
#1194=CARTESIAN_POINT('',(-2.00000002980232,35.,11.0000001639128));
#1195=CARTESIAN_POINT('',(-4.00000005960464,35.,11.0000001639128));
#1196=CARTESIAN_POINT('',(-2.00000002980232,35.,11.0000001639128));
#1197=CARTESIAN_POINT('',(-4.00000005960464,35.,11.0000001639128));
#1198=CARTESIAN_POINT('Origin',(-4.00000005960464,35.,13.0000001937151));
#1199=CARTESIAN_POINT('Origin',(-4.00000005960464,0.,13.0000001937151));
#1200=CARTESIAN_POINT('Origin',(-4.00000005960464,35.,13.0000001937151));
#1201=CARTESIAN_POINT('Origin',(-2.00000002980232,35.,11.0000001639128));
#1202=CARTESIAN_POINT('',(-2.00000002980232,0.,9.79795896504934));
#1203=CARTESIAN_POINT('',(-2.00000002980232,0.,5.50000008195639));
#1204=CARTESIAN_POINT('',(-2.00000002980232,35.,9.79795896504934));
#1205=CARTESIAN_POINT('',(-2.00000002980232,35.,9.79795896504934));
#1206=CARTESIAN_POINT('',(-2.00000002980232,35.,5.50000008195639));
#1207=CARTESIAN_POINT('Origin',(-15.0000002235174,35.,4.00000005960464));
#1208=CARTESIAN_POINT('',(-15.0000002235174,0.,-4.00000005960465));
#1209=CARTESIAN_POINT('',(-15.0000002235174,0.,4.00000005960464));
#1210=CARTESIAN_POINT('',(-15.0000002235174,0.,2.00000002980232));
#1211=CARTESIAN_POINT('',(-15.0000002235174,35.,-4.00000005960465));
#1212=CARTESIAN_POINT('',(-15.0000002235174,35.,-4.00000005960465));
#1213=CARTESIAN_POINT('',(-15.0000002235174,35.,4.00000005960464));
#1214=CARTESIAN_POINT('',(-15.0000002235174,35.,2.00000002980232));
#1215=CARTESIAN_POINT('',(-15.0000002235174,35.,4.00000005960464));
#1216=CARTESIAN_POINT('Origin',(-13.0000001937151,35.,4.00000005960464));
#1217=CARTESIAN_POINT('',(-11.0000001639128,0.,4.00000005960464));
#1218=CARTESIAN_POINT('Origin',(-13.0000001937151,0.,4.00000005960464));
#1219=CARTESIAN_POINT('',(-11.0000001639128,35.,4.00000005960464));
#1220=CARTESIAN_POINT('Origin',(-13.0000001937151,35.,4.00000005960464));
#1221=CARTESIAN_POINT('',(-11.0000001639128,35.,4.00000005960464));
#1222=CARTESIAN_POINT('Origin',(-11.0000001639128,35.,2.00000002980232));
#1223=CARTESIAN_POINT('',(-11.0000001639128,0.,2.00000002980232));
#1224=CARTESIAN_POINT('',(-11.0000001639128,0.,1.00000001490116));
#1225=CARTESIAN_POINT('',(-11.0000001639128,35.,2.00000002980232));
#1226=CARTESIAN_POINT('',(-11.0000001639128,35.,1.00000001490116));
#1227=CARTESIAN_POINT('',(-11.0000001639128,35.,2.00000002980232));
#1228=CARTESIAN_POINT('Origin',(-9.79795896504934,35.,2.00000002980232));
#1229=CARTESIAN_POINT('',(-9.79795896504934,0.,2.00000002980232));
#1230=CARTESIAN_POINT('',(-4.89897948252467,0.,2.00000002980232));
#1231=CARTESIAN_POINT('',(-9.79795896504934,35.,2.00000002980232));
#1232=CARTESIAN_POINT('',(-4.89897948252467,35.,2.00000002980232));
#1233=CARTESIAN_POINT('',(-9.79795896504934,35.,2.00000002980232));
#1234=CARTESIAN_POINT('Origin',(-11.0000001639128,35.,-4.00000005960465));
#1235=CARTESIAN_POINT('',(-11.0000001639128,0.,-2.00000002980232));
#1236=CARTESIAN_POINT('',(-11.0000001639128,0.,-4.00000005960465));
#1237=CARTESIAN_POINT('',(-11.0000001639128,0.,-2.00000002980232));
#1238=CARTESIAN_POINT('',(-11.0000001639128,35.,-2.00000002980232));
#1239=CARTESIAN_POINT('',(-11.0000001639128,35.,-2.00000002980232));
#1240=CARTESIAN_POINT('',(-11.0000001639128,35.,-4.00000005960465));
#1241=CARTESIAN_POINT('',(-11.0000001639128,35.,-2.00000002980232));
#1242=CARTESIAN_POINT('',(-11.0000001639128,35.,-4.00000005960465));
#1243=CARTESIAN_POINT('Origin',(-13.0000001937151,35.,-4.00000005960465));
#1244=CARTESIAN_POINT('Origin',(-13.0000001937151,0.,-4.00000005960465));
#1245=CARTESIAN_POINT('Origin',(-13.0000001937151,35.,-4.00000005960465));
#1246=CARTESIAN_POINT('Origin',(-11.0000001639128,35.,-2.00000002980232));
#1247=CARTESIAN_POINT('',(-9.79795896504934,0.,-2.00000002980232));
#1248=CARTESIAN_POINT('',(-5.50000008195639,0.,-2.00000002980232));
#1249=CARTESIAN_POINT('',(-9.79795896504934,35.,-2.00000002980232));
#1250=CARTESIAN_POINT('',(-9.79795896504934,35.,-2.00000002980232));
#1251=CARTESIAN_POINT('',(-5.50000008195639,35.,-2.00000002980232));
#1252=CARTESIAN_POINT('Origin',(13.0000001937151,35.,-4.00000005960465));
#1253=CARTESIAN_POINT('',(15.0000002235174,0.,-4.00000005960465));
#1254=CARTESIAN_POINT('',(11.0000001639128,0.,-4.00000005960465));
#1255=CARTESIAN_POINT('Origin',(13.0000001937151,0.,-4.00000005960465));
#1256=CARTESIAN_POINT('',(15.0000002235174,35.,-4.00000005960465));
#1257=CARTESIAN_POINT('',(15.0000002235174,35.,-4.00000005960465));
#1258=CARTESIAN_POINT('',(11.0000001639128,35.,-4.00000005960465));
#1259=CARTESIAN_POINT('Origin',(13.0000001937151,35.,-4.00000005960465));
#1260=CARTESIAN_POINT('',(11.0000001639128,35.,-4.00000005960465));
#1261=CARTESIAN_POINT('Origin',(11.0000001639128,35.,-2.00000002980233));
#1262=CARTESIAN_POINT('',(11.0000001639128,0.,-2.00000002980233));
#1263=CARTESIAN_POINT('',(11.0000001639128,0.,-1.00000001490116));
#1264=CARTESIAN_POINT('',(11.0000001639128,35.,-2.00000002980233));
#1265=CARTESIAN_POINT('',(11.0000001639128,35.,-1.00000001490116));
#1266=CARTESIAN_POINT('',(11.0000001639128,35.,-2.00000002980233));
#1267=CARTESIAN_POINT('Origin',(9.79795896504934,35.,-2.00000002980233));
#1268=CARTESIAN_POINT('',(9.79795896504934,0.,-2.00000002980233));
#1269=CARTESIAN_POINT('',(4.89897948252467,0.,-2.00000002980232));
#1270=CARTESIAN_POINT('',(9.79795896504934,35.,-2.00000002980233));
#1271=CARTESIAN_POINT('',(4.89897948252467,35.,-2.00000002980232));
#1272=CARTESIAN_POINT('',(9.79795896504934,35.,-2.00000002980233));
#1273=CARTESIAN_POINT('Origin',(11.0000001639128,35.,4.00000005960464));
#1274=CARTESIAN_POINT('',(11.0000001639128,0.,2.00000002980232));
#1275=CARTESIAN_POINT('',(11.0000001639128,0.,4.00000005960464));
#1276=CARTESIAN_POINT('',(11.0000001639128,0.,2.00000002980232));
#1277=CARTESIAN_POINT('',(11.0000001639128,35.,2.00000002980232));
#1278=CARTESIAN_POINT('',(11.0000001639128,35.,2.00000002980232));
#1279=CARTESIAN_POINT('',(11.0000001639128,35.,4.00000005960464));
#1280=CARTESIAN_POINT('',(11.0000001639128,35.,2.00000002980232));
#1281=CARTESIAN_POINT('',(11.0000001639128,35.,4.00000005960464));
#1282=CARTESIAN_POINT('Origin',(13.0000001937151,35.,4.00000005960464));
#1283=CARTESIAN_POINT('',(15.0000002235174,0.,4.00000005960464));
#1284=CARTESIAN_POINT('Origin',(13.0000001937151,0.,4.00000005960464));
#1285=CARTESIAN_POINT('',(15.0000002235174,35.,4.00000005960464));
#1286=CARTESIAN_POINT('Origin',(13.0000001937151,35.,4.00000005960464));
#1287=CARTESIAN_POINT('',(15.0000002235174,35.,4.00000005960464));
#1288=CARTESIAN_POINT('Origin',(15.0000002235174,35.,-4.00000005960465));
#1289=CARTESIAN_POINT('',(15.0000002235174,0.,-2.00000002980232));
#1290=CARTESIAN_POINT('',(15.0000002235174,35.,-2.00000002980232));
#1291=CARTESIAN_POINT('Origin',(11.0000001639128,35.,2.00000002980232));
#1292=CARTESIAN_POINT('',(9.79795896504934,0.,2.00000002980232));
#1293=CARTESIAN_POINT('',(5.50000008195639,0.,2.00000002980232));
#1294=CARTESIAN_POINT('',(9.79795896504934,35.,2.00000002980232));
#1295=CARTESIAN_POINT('',(9.79795896504934,35.,2.00000002980232));
#1296=CARTESIAN_POINT('',(5.50000008195639,35.,2.00000002980232));
#1297=CARTESIAN_POINT('Origin',(-4.00000005960464,35.,-15.0000002235174));
#1298=CARTESIAN_POINT('',(4.00000005960465,0.,-15.0000002235174));
#1299=CARTESIAN_POINT('',(-4.00000005960464,0.,-15.0000002235174));
#1300=CARTESIAN_POINT('',(-2.00000002980232,0.,-15.0000002235174));
#1301=CARTESIAN_POINT('',(4.00000005960465,35.,-15.0000002235174));
#1302=CARTESIAN_POINT('',(4.00000005960465,35.,-15.0000002235174));
#1303=CARTESIAN_POINT('',(-4.00000005960464,35.,-15.0000002235174));
#1304=CARTESIAN_POINT('',(-2.00000002980232,35.,-15.0000002235174));
#1305=CARTESIAN_POINT('',(-4.00000005960464,35.,-15.0000002235174));
#1306=CARTESIAN_POINT('Origin',(-4.00000005960464,35.,-13.0000001937151));
#1307=CARTESIAN_POINT('',(-4.00000005960464,0.,-11.0000001639128));
#1308=CARTESIAN_POINT('Origin',(-4.00000005960464,0.,-13.0000001937151));
#1309=CARTESIAN_POINT('',(-4.00000005960464,35.,-11.0000001639128));
#1310=CARTESIAN_POINT('Origin',(-4.00000005960464,35.,-13.0000001937151));
#1311=CARTESIAN_POINT('',(-4.00000005960464,35.,-11.0000001639128));
#1312=CARTESIAN_POINT('Origin',(-2.00000002980232,35.,-11.0000001639128));
#1313=CARTESIAN_POINT('',(-2.00000002980232,0.,-11.0000001639128));
#1314=CARTESIAN_POINT('',(-1.00000001490116,0.,-11.0000001639128));
#1315=CARTESIAN_POINT('',(-2.00000002980232,35.,-11.0000001639128));
#1316=CARTESIAN_POINT('',(-1.00000001490116,35.,-11.0000001639128));
#1317=CARTESIAN_POINT('',(-2.00000002980232,35.,-11.0000001639128));
#1318=CARTESIAN_POINT('Origin',(-2.00000002980232,35.,-9.79795896504934));
#1319=CARTESIAN_POINT('',(-2.00000002980232,0.,-9.79795896504934));
#1320=CARTESIAN_POINT('',(-2.00000002980232,0.,-4.89897948252467));
#1321=CARTESIAN_POINT('',(-2.00000002980232,35.,-9.79795896504934));
#1322=CARTESIAN_POINT('',(-2.00000002980232,35.,-4.89897948252467));
#1323=CARTESIAN_POINT('',(-2.00000002980232,35.,-9.79795896504934));
#1324=CARTESIAN_POINT('Origin',(4.00000005960465,35.,-11.0000001639128));
#1325=CARTESIAN_POINT('',(2.00000002980232,0.,-11.0000001639128));
#1326=CARTESIAN_POINT('',(4.00000005960465,0.,-11.0000001639128));
#1327=CARTESIAN_POINT('',(2.00000002980232,0.,-11.0000001639128));
#1328=CARTESIAN_POINT('',(2.00000002980232,35.,-11.0000001639128));
#1329=CARTESIAN_POINT('',(2.00000002980232,35.,-11.0000001639128));
#1330=CARTESIAN_POINT('',(4.00000005960465,35.,-11.0000001639128));
#1331=CARTESIAN_POINT('',(2.00000002980232,35.,-11.0000001639128));
#1332=CARTESIAN_POINT('',(4.00000005960465,35.,-11.0000001639128));
#1333=CARTESIAN_POINT('Origin',(4.00000005960465,35.,-13.0000001937151));
#1334=CARTESIAN_POINT('Origin',(4.00000005960465,0.,-13.0000001937151));
#1335=CARTESIAN_POINT('Origin',(4.00000005960465,35.,-13.0000001937151));
#1336=CARTESIAN_POINT('Origin',(2.00000002980232,35.,-11.0000001639128));
#1337=CARTESIAN_POINT('',(2.00000002980232,0.,-9.79795896504934));
#1338=CARTESIAN_POINT('',(2.00000002980232,0.,-5.50000008195639));
#1339=CARTESIAN_POINT('',(2.00000002980232,35.,-9.79795896504934));
#1340=CARTESIAN_POINT('',(2.00000002980232,35.,-9.79795896504934));
#1341=CARTESIAN_POINT('',(2.00000002980232,35.,-5.50000008195639));
#1342=CARTESIAN_POINT('Origin',(0.,0.,0.));
#1343=CARTESIAN_POINT('',(25.,0.,-17.5));
#1344=CARTESIAN_POINT('',(17.5,0.,-25.));
#1345=CARTESIAN_POINT('Origin',(17.5,0.,-17.5));
#1346=CARTESIAN_POINT('',(25.,0.,17.5));
#1347=CARTESIAN_POINT('',(25.,0.,-25.));
#1348=CARTESIAN_POINT('',(17.5,0.,25.));
#1349=CARTESIAN_POINT('Origin',(17.5,0.,17.5));
#1350=CARTESIAN_POINT('',(-17.5,0.,25.));
#1351=CARTESIAN_POINT('',(25.,0.,25.));
#1352=CARTESIAN_POINT('',(-25.,0.,17.5));
#1353=CARTESIAN_POINT('Origin',(-17.5,0.,17.5));
#1354=CARTESIAN_POINT('',(-25.,0.,-17.5));
#1355=CARTESIAN_POINT('',(-25.,0.,25.));
#1356=CARTESIAN_POINT('',(-17.5,0.,-25.));
#1357=CARTESIAN_POINT('Origin',(-17.5,0.,-17.5));
#1358=CARTESIAN_POINT('',(-25.,0.,-25.));
#1359=CARTESIAN_POINT('Origin',(0.,0.,0.));
#1360=CARTESIAN_POINT('Origin',(0.,0.,0.));
#1361=CARTESIAN_POINT('Origin',(0.,0.,0.));
#1362=CARTESIAN_POINT('Origin',(0.,0.,0.));
#1363=CARTESIAN_POINT('Origin',(0.,35.,0.));
#1364=CARTESIAN_POINT('Origin',(0.,35.,0.));
#1365=CARTESIAN_POINT('Origin',(0.,35.,0.));
#1366=CARTESIAN_POINT('Origin',(0.,35.,0.));
#1367=CARTESIAN_POINT('Origin',(0.,35.,0.));
#1368=CARTESIAN_POINT('Origin',(0.,35.,0.));
#1369=CARTESIAN_POINT('Origin',(0.,35.,0.));
#1370=CARTESIAN_POINT('Origin',(0.,35.,0.));
#1371=CARTESIAN_POINT('Origin',(17.5,0.,-17.5));
#1372=CARTESIAN_POINT('',(17.5,35.,-25.));
#1373=CARTESIAN_POINT('',(25.,35.,-17.5));
#1374=CARTESIAN_POINT('Origin',(17.5,35.,-17.5));
#1375=CARTESIAN_POINT('',(25.,0.,-17.5));
#1376=CARTESIAN_POINT('',(17.5,0.,-25.));
#1377=CARTESIAN_POINT('Origin',(25.,0.,-25.));
#1378=CARTESIAN_POINT('',(-17.5,35.,-25.));
#1379=CARTESIAN_POINT('',(-17.5,0.,-25.));
#1380=CARTESIAN_POINT('',(-25.,35.,-25.));
#1381=CARTESIAN_POINT('Origin',(-17.5,0.,-17.5));
#1382=CARTESIAN_POINT('',(-25.,35.,-17.5));
#1383=CARTESIAN_POINT('Origin',(-17.5,35.,-17.5));
#1384=CARTESIAN_POINT('',(-25.,0.,-17.5));
#1385=CARTESIAN_POINT('Origin',(-25.,0.,-25.));
#1386=CARTESIAN_POINT('',(-25.,35.,17.5));
#1387=CARTESIAN_POINT('',(-25.,0.,17.5));
#1388=CARTESIAN_POINT('',(-25.,35.,25.));
#1389=CARTESIAN_POINT('Origin',(-17.5,0.,17.5));
#1390=CARTESIAN_POINT('',(-17.5,35.,25.));
#1391=CARTESIAN_POINT('Origin',(-17.5,35.,17.5));
#1392=CARTESIAN_POINT('',(-17.5,0.,25.));
#1393=CARTESIAN_POINT('Origin',(-25.,0.,25.));
#1394=CARTESIAN_POINT('',(17.5,35.,25.));
#1395=CARTESIAN_POINT('',(17.5,0.,25.));
#1396=CARTESIAN_POINT('',(25.,35.,25.));
#1397=CARTESIAN_POINT('Origin',(17.5,0.,17.5));
#1398=CARTESIAN_POINT('',(25.,35.,17.5));
#1399=CARTESIAN_POINT('Origin',(17.5,35.,17.5));
#1400=CARTESIAN_POINT('',(25.,0.,17.5));
#1401=CARTESIAN_POINT('Origin',(25.,0.,25.));
#1402=CARTESIAN_POINT('',(25.,35.,-25.));
#1403=CARTESIAN_POINT('Origin',(0.,35.,0.));
#1404=UNCERTAINTY_MEASURE_WITH_UNIT(LENGTH_MEASURE(0.01),#1408,
'DISTANCE_ACCURACY_VALUE',
'Maximum model space distance between geometric entities at asserted c
onnectivities');
#1405=UNCERTAINTY_MEASURE_WITH_UNIT(LENGTH_MEASURE(0.01),#1408,
'DISTANCE_ACCURACY_VALUE',
'Maximum model space distance between geometric entities at asserted c
onnectivities');
#1406=(
GEOMETRIC_REPRESENTATION_CONTEXT(3)
GLOBAL_UNCERTAINTY_ASSIGNED_CONTEXT((#1404))
GLOBAL_UNIT_ASSIGNED_CONTEXT((#1408,#1410,#1411))
REPRESENTATION_CONTEXT('','3D')
);
#1407=(
GEOMETRIC_REPRESENTATION_CONTEXT(3)
GLOBAL_UNCERTAINTY_ASSIGNED_CONTEXT((#1405))
GLOBAL_UNIT_ASSIGNED_CONTEXT((#1408,#1410,#1411))
REPRESENTATION_CONTEXT('','3D')
);
#1408=(
LENGTH_UNIT()
NAMED_UNIT(*)
SI_UNIT(.MILLI.,.METRE.)
);
#1409=(
LENGTH_UNIT()
NAMED_UNIT(*)
SI_UNIT($,.METRE.)
);
#1410=(
NAMED_UNIT(*)
PLANE_ANGLE_UNIT()
SI_UNIT($,.RADIAN.)
);
#1411=(
NAMED_UNIT(*)
SI_UNIT($,.STERADIAN.)
SOLID_ANGLE_UNIT()
);
#1412=SHAPE_DEFINITION_REPRESENTATION(#1413,#1414);
#1413=PRODUCT_DEFINITION_SHAPE('',$,#1416);
#1414=SHAPE_REPRESENTATION('',(#848),#1406);
#1415=PRODUCT_DEFINITION_CONTEXT('part definition',#1420,'design');
#1416=PRODUCT_DEFINITION('(Unsaved)','(Unsaved)',#1417,#1415);
#1417=PRODUCT_DEFINITION_FORMATION('',$,#1422);
#1418=PRODUCT_RELATED_PRODUCT_CATEGORY('(Unsaved)','(Unsaved)',(#1422));
#1419=APPLICATION_PROTOCOL_DEFINITION('international standard',
'automotive_design',2009,#1420);
#1420=APPLICATION_CONTEXT(
'Core Data for Automotive Mechanical Design Process');
#1421=PRODUCT_CONTEXT('part definition',#1420,'mechanical');
#1422=PRODUCT('(Unsaved)','(Unsaved)',$,(#1421));
#1423=PRESENTATION_STYLE_ASSIGNMENT((#1424));
#1424=SURFACE_STYLE_USAGE(.BOTH.,#1425);
#1425=SURFACE_SIDE_STYLE('',(#1426));
#1426=SURFACE_STYLE_FILL_AREA(#1427);
#1427=FILL_AREA_STYLE('Steel - Satin',(#1428));
#1428=FILL_AREA_STYLE_COLOUR('Steel - Satin',#1429);
#1429=COLOUR_RGB('Steel - Satin',0.627450980392157,0.627450980392157,0.627450980392157);
ENDSEC;
END-ISO-10303-21;
