ISO-10303-21;
HEADER;
/* Generated by software containing ST-Developer
 * from STEP Tools, Inc. (www.steptools.com) 
 */

FILE_DESCRIPTION(
/* description */ (''),
/* implementation_level */ '2;1');

FILE_NAME(
/* name */ 'ex-milling_06.step',
/* time_stamp */ '2024-11-11T17:42:03+03:00',
/* author */ (''),
/* organization */ (''),
/* preprocessor_version */ 'ST-DEVELOPER v20',
/* originating_system */ 'Autodesk Translation Framework v13.14.0.145',

/* authorisation */ '');

FILE_SCHEMA (('AUTOMOTIVE_DESIGN { 1 0 10303 214 3 1 1 }'));
ENDSEC;

DATA;
#10=MECHANICAL_DESIGN_GEOMETRIC_PRESENTATION_REPRESENTATION('',(#13),#471);
#11=SHAPE_REPRESENTATION_RELATIONSHIP('SRR','None',#478,#12);
#12=ADVANCED_BREP_SHAPE_REPRESENTATION('',(#14),#470);
#13=STYLED_ITEM('',(#487),#14);
#14=MANIFOLD_SOLID_BREP('Body1',#283);
#15=CYLINDRICAL_SURFACE('',#311,5.00000007450581);
#16=CYLINDRICAL_SURFACE('',#312,2.00000007450581);
#17=CYLINDRICAL_SURFACE('',#313,5.00000007450581);
#18=CYLINDRICAL_SURFACE('',#314,2.00000007450581);
#19=FACE_BOUND('',#54,.T.);
#20=FACE_BOUND('',#55,.T.);
#21=FACE_BOUND('',#56,.T.);
#22=FACE_BOUND('',#57,.T.);
#23=FACE_BOUND('',#59,.T.);
#24=FACE_BOUND('',#60,.T.);
#25=FACE_BOUND('',#61,.T.);
#26=FACE_BOUND('',#62,.T.);
#27=CIRCLE('',#302,5.00000007450581);
#28=CIRCLE('',#303,2.00000007450581);
#29=CIRCLE('',#304,5.00000007450581);
#30=CIRCLE('',#305,2.00000007450581);
#31=CIRCLE('',#307,5.00000007450581);
#32=CIRCLE('',#308,2.00000007450581);
#33=CIRCLE('',#309,5.00000007450581);
#34=CIRCLE('',#310,2.00000007450581);
#35=FACE_OUTER_BOUND('',#49,.T.);
#36=FACE_OUTER_BOUND('',#50,.T.);
#37=FACE_OUTER_BOUND('',#51,.T.);
#38=FACE_OUTER_BOUND('',#52,.T.);
#39=FACE_OUTER_BOUND('',#53,.T.);
#40=FACE_OUTER_BOUND('',#58,.T.);
#41=FACE_OUTER_BOUND('',#63,.T.);
#42=FACE_OUTER_BOUND('',#64,.T.);
#43=FACE_OUTER_BOUND('',#65,.T.);
#44=FACE_OUTER_BOUND('',#66,.T.);
#45=FACE_OUTER_BOUND('',#67,.T.);
#46=FACE_OUTER_BOUND('',#68,.T.);
#47=FACE_OUTER_BOUND('',#69,.T.);
#48=FACE_OUTER_BOUND('',#70,.T.);
#49=EDGE_LOOP('',(#187,#188,#189,#190));
#50=EDGE_LOOP('',(#191,#192,#193,#194));
#51=EDGE_LOOP('',(#195,#196,#197,#198));
#52=EDGE_LOOP('',(#199,#200,#201,#202));
#53=EDGE_LOOP('',(#203,#204,#205,#206,#207,#208,#209,#210));
#54=EDGE_LOOP('',(#211));
#55=EDGE_LOOP('',(#212));
#56=EDGE_LOOP('',(#213));
#57=EDGE_LOOP('',(#214));
#58=EDGE_LOOP('',(#215,#216,#217,#218));
#59=EDGE_LOOP('',(#219));
#60=EDGE_LOOP('',(#220));
#61=EDGE_LOOP('',(#221));
#62=EDGE_LOOP('',(#222));
#63=EDGE_LOOP('',(#223,#224,#225,#226));
#64=EDGE_LOOP('',(#227,#228,#229,#230));
#65=EDGE_LOOP('',(#231,#232,#233,#234));
#66=EDGE_LOOP('',(#235,#236,#237,#238));
#67=EDGE_LOOP('',(#239,#240,#241,#242,#243,#244,#245,#246));
#68=EDGE_LOOP('',(#247,#248,#249,#250));
#69=EDGE_LOOP('',(#251,#252,#253,#254));
#70=EDGE_LOOP('',(#255,#256,#257,#258));
#71=LINE('',#397,#99);
#72=LINE('',#399,#100);
#73=LINE('',#401,#101);
#74=LINE('',#402,#102);
#75=LINE('',#405,#103);
#76=LINE('',#407,#104);
#77=LINE('',#408,#105);
#78=LINE('',#411,#106);
#79=LINE('',#413,#107);
#80=LINE('',#414,#108);
#81=LINE('',#416,#109);
#82=LINE('',#419,#110);
#83=LINE('',#421,#111);
#84=LINE('',#423,#112);
#85=LINE('',#425,#113);
#86=LINE('',#426,#114);
#87=LINE('',#438,#115);
#88=LINE('',#440,#116);
#89=LINE('',#442,#117);
#90=LINE('',#443,#118);
#91=LINE('',#453,#119);
#92=LINE('',#455,#120);
#93=LINE('',#457,#121);
#94=LINE('',#459,#122);
#95=LINE('',#461,#123);
#96=LINE('',#462,#124);
#97=LINE('',#464,#125);
#98=LINE('',#466,#126);
#99=VECTOR('',#323,10.);
#100=VECTOR('',#324,10.);
#101=VECTOR('',#325,10.);
#102=VECTOR('',#326,10.);
#103=VECTOR('',#329,10.);
#104=VECTOR('',#330,10.);
#105=VECTOR('',#331,10.);
#106=VECTOR('',#334,10.);
#107=VECTOR('',#335,10.);
#108=VECTOR('',#336,10.);
#109=VECTOR('',#339,10.);
#110=VECTOR('',#342,10.);
#111=VECTOR('',#343,10.);
#112=VECTOR('',#344,10.);
#113=VECTOR('',#345,10.);
#114=VECTOR('',#346,10.);
#115=VECTOR('',#357,10.);
#116=VECTOR('',#358,10.);
#117=VECTOR('',#359,10.);
#118=VECTOR('',#360,10.);
#119=VECTOR('',#371,5.00000007450581);
#120=VECTOR('',#374,5.00000007450581);
#121=VECTOR('',#377,5.00000007450581);
#122=VECTOR('',#380,5.00000007450581);
#123=VECTOR('',#383,10.);
#124=VECTOR('',#384,10.);
#125=VECTOR('',#387,10.);
#126=VECTOR('',#390,10.);
#127=VERTEX_POINT('',#395);
#128=VERTEX_POINT('',#396);
#129=VERTEX_POINT('',#398);
#130=VERTEX_POINT('',#400);
#131=VERTEX_POINT('',#404);
#132=VERTEX_POINT('',#406);
#133=VERTEX_POINT('',#410);
#134=VERTEX_POINT('',#412);
#135=VERTEX_POINT('',#418);
#136=VERTEX_POINT('',#420);
#137=VERTEX_POINT('',#422);
#138=VERTEX_POINT('',#424);
#139=VERTEX_POINT('',#427);
#140=VERTEX_POINT('',#429);
#141=VERTEX_POINT('',#431);
#142=VERTEX_POINT('',#433);
#143=VERTEX_POINT('',#436);
#144=VERTEX_POINT('',#437);
#145=VERTEX_POINT('',#439);
#146=VERTEX_POINT('',#441);
#147=VERTEX_POINT('',#444);
#148=VERTEX_POINT('',#446);
#149=VERTEX_POINT('',#448);
#150=VERTEX_POINT('',#450);
#151=EDGE_CURVE('',#127,#128,#71,.T.);
#152=EDGE_CURVE('',#127,#129,#72,.T.);
#153=EDGE_CURVE('',#129,#130,#73,.T.);
#154=EDGE_CURVE('',#128,#130,#74,.T.);
#155=EDGE_CURVE('',#131,#127,#75,.T.);
#156=EDGE_CURVE('',#131,#132,#76,.T.);
#157=EDGE_CURVE('',#132,#129,#77,.T.);
#158=EDGE_CURVE('',#133,#131,#78,.T.);
#159=EDGE_CURVE('',#134,#133,#79,.T.);
#160=EDGE_CURVE('',#134,#132,#80,.T.);
#161=EDGE_CURVE('',#130,#134,#81,.T.);
#162=EDGE_CURVE('',#128,#135,#82,.T.);
#163=EDGE_CURVE('',#135,#136,#83,.T.);
#164=EDGE_CURVE('',#136,#137,#84,.T.);
#165=EDGE_CURVE('',#137,#138,#85,.T.);
#166=EDGE_CURVE('',#138,#133,#86,.T.);
#167=EDGE_CURVE('',#139,#139,#27,.T.);
#168=EDGE_CURVE('',#140,#140,#28,.T.);
#169=EDGE_CURVE('',#141,#141,#29,.T.);
#170=EDGE_CURVE('',#142,#142,#30,.T.);
#171=EDGE_CURVE('',#143,#144,#87,.T.);
#172=EDGE_CURVE('',#144,#145,#88,.T.);
#173=EDGE_CURVE('',#145,#146,#89,.T.);
#174=EDGE_CURVE('',#146,#143,#90,.T.);
#175=EDGE_CURVE('',#147,#147,#31,.T.);
#176=EDGE_CURVE('',#148,#148,#32,.F.);
#177=EDGE_CURVE('',#149,#149,#33,.T.);
#178=EDGE_CURVE('',#150,#150,#34,.F.);
#179=EDGE_CURVE('',#139,#147,#91,.T.);
#180=EDGE_CURVE('',#140,#148,#92,.T.);
#181=EDGE_CURVE('',#141,#149,#93,.T.);
#182=EDGE_CURVE('',#142,#150,#94,.T.);
#183=EDGE_CURVE('',#144,#138,#95,.T.);
#184=EDGE_CURVE('',#143,#135,#96,.T.);
#185=EDGE_CURVE('',#145,#137,#97,.T.);
#186=EDGE_CURVE('',#146,#136,#98,.T.);
#187=ORIENTED_EDGE('',*,*,#151,.F.);
#188=ORIENTED_EDGE('',*,*,#152,.T.);
#189=ORIENTED_EDGE('',*,*,#153,.T.);
#190=ORIENTED_EDGE('',*,*,#154,.F.);
#191=ORIENTED_EDGE('',*,*,#155,.F.);
#192=ORIENTED_EDGE('',*,*,#156,.T.);
#193=ORIENTED_EDGE('',*,*,#157,.T.);
#194=ORIENTED_EDGE('',*,*,#152,.F.);
#195=ORIENTED_EDGE('',*,*,#158,.F.);
#196=ORIENTED_EDGE('',*,*,#159,.F.);
#197=ORIENTED_EDGE('',*,*,#160,.T.);
#198=ORIENTED_EDGE('',*,*,#156,.F.);
#199=ORIENTED_EDGE('',*,*,#161,.F.);
#200=ORIENTED_EDGE('',*,*,#153,.F.);
#201=ORIENTED_EDGE('',*,*,#157,.F.);
#202=ORIENTED_EDGE('',*,*,#160,.F.);
#203=ORIENTED_EDGE('',*,*,#158,.T.);
#204=ORIENTED_EDGE('',*,*,#155,.T.);
#205=ORIENTED_EDGE('',*,*,#151,.T.);
#206=ORIENTED_EDGE('',*,*,#162,.T.);
#207=ORIENTED_EDGE('',*,*,#163,.T.);
#208=ORIENTED_EDGE('',*,*,#164,.T.);
#209=ORIENTED_EDGE('',*,*,#165,.T.);
#210=ORIENTED_EDGE('',*,*,#166,.T.);
#211=ORIENTED_EDGE('',*,*,#167,.T.);
#212=ORIENTED_EDGE('',*,*,#168,.T.);
#213=ORIENTED_EDGE('',*,*,#169,.T.);
#214=ORIENTED_EDGE('',*,*,#170,.T.);
#215=ORIENTED_EDGE('',*,*,#171,.T.);
#216=ORIENTED_EDGE('',*,*,#172,.T.);
#217=ORIENTED_EDGE('',*,*,#173,.T.);
#218=ORIENTED_EDGE('',*,*,#174,.T.);
#219=ORIENTED_EDGE('',*,*,#175,.T.);
#220=ORIENTED_EDGE('',*,*,#176,.T.);
#221=ORIENTED_EDGE('',*,*,#177,.T.);
#222=ORIENTED_EDGE('',*,*,#178,.T.);
#223=ORIENTED_EDGE('',*,*,#167,.F.);
#224=ORIENTED_EDGE('',*,*,#179,.T.);
#225=ORIENTED_EDGE('',*,*,#175,.F.);
#226=ORIENTED_EDGE('',*,*,#179,.F.);
#227=ORIENTED_EDGE('',*,*,#168,.F.);
#228=ORIENTED_EDGE('',*,*,#180,.T.);
#229=ORIENTED_EDGE('',*,*,#176,.F.);
#230=ORIENTED_EDGE('',*,*,#180,.F.);
#231=ORIENTED_EDGE('',*,*,#169,.F.);
#232=ORIENTED_EDGE('',*,*,#181,.T.);
#233=ORIENTED_EDGE('',*,*,#177,.F.);
#234=ORIENTED_EDGE('',*,*,#181,.F.);
#235=ORIENTED_EDGE('',*,*,#170,.F.);
#236=ORIENTED_EDGE('',*,*,#182,.T.);
#237=ORIENTED_EDGE('',*,*,#178,.F.);
#238=ORIENTED_EDGE('',*,*,#182,.F.);
#239=ORIENTED_EDGE('',*,*,#159,.T.);
#240=ORIENTED_EDGE('',*,*,#166,.F.);
#241=ORIENTED_EDGE('',*,*,#183,.F.);
#242=ORIENTED_EDGE('',*,*,#171,.F.);
#243=ORIENTED_EDGE('',*,*,#184,.T.);
#244=ORIENTED_EDGE('',*,*,#162,.F.);
#245=ORIENTED_EDGE('',*,*,#154,.T.);
#246=ORIENTED_EDGE('',*,*,#161,.T.);
#247=ORIENTED_EDGE('',*,*,#172,.F.);
#248=ORIENTED_EDGE('',*,*,#183,.T.);
#249=ORIENTED_EDGE('',*,*,#165,.F.);
#250=ORIENTED_EDGE('',*,*,#185,.F.);
#251=ORIENTED_EDGE('',*,*,#173,.F.);
#252=ORIENTED_EDGE('',*,*,#185,.T.);
#253=ORIENTED_EDGE('',*,*,#164,.F.);
#254=ORIENTED_EDGE('',*,*,#186,.F.);
#255=ORIENTED_EDGE('',*,*,#174,.F.);
#256=ORIENTED_EDGE('',*,*,#186,.T.);
#257=ORIENTED_EDGE('',*,*,#163,.F.);
#258=ORIENTED_EDGE('',*,*,#184,.F.);
#259=PLANE('',#297);
#260=PLANE('',#298);
#261=PLANE('',#299);
#262=PLANE('',#300);
#263=PLANE('',#301);
#264=PLANE('',#306);
#265=PLANE('',#315);
#266=PLANE('',#316);
#267=PLANE('',#317);
#268=PLANE('',#318);
#269=ADVANCED_FACE('',(#35),#259,.F.);
#270=ADVANCED_FACE('',(#36),#260,.F.);
#271=ADVANCED_FACE('',(#37),#261,.F.);
#272=ADVANCED_FACE('',(#38),#262,.F.);
#273=ADVANCED_FACE('',(#39,#19,#20,#21,#22),#263,.T.);
#274=ADVANCED_FACE('',(#40,#23,#24,#25,#26),#264,.F.);
#275=ADVANCED_FACE('',(#41),#15,.F.);
#276=ADVANCED_FACE('',(#42),#16,.F.);
#277=ADVANCED_FACE('',(#43),#17,.F.);
#278=ADVANCED_FACE('',(#44),#18,.F.);
#279=ADVANCED_FACE('',(#45),#265,.T.);
#280=ADVANCED_FACE('',(#46),#266,.T.);
#281=ADVANCED_FACE('',(#47),#267,.T.);
#282=ADVANCED_FACE('',(#48),#268,.T.);
#283=CLOSED_SHELL('',(#269,#270,#271,#272,#273,#274,#275,#276,#277,#278,
#279,#280,#281,#282));
#284=DERIVED_UNIT_ELEMENT(#286,1.);
#285=DERIVED_UNIT_ELEMENT(#473,-3.);
#286=(
MASS_UNIT()
NAMED_UNIT(*)
SI_UNIT(.KILO.,.GRAM.)
);
#287=DERIVED_UNIT((#284,#285));
#288=MEASURE_REPRESENTATION_ITEM('density measure',
POSITIVE_RATIO_MEASURE(7850.),#287);
#289=PROPERTY_DEFINITION_REPRESENTATION(#294,#291);
#290=PROPERTY_DEFINITION_REPRESENTATION(#295,#292);
#291=REPRESENTATION('material name',(#293),#470);
#292=REPRESENTATION('density',(#288),#470);
#293=DESCRIPTIVE_REPRESENTATION_ITEM('Steel','Steel');
#294=PROPERTY_DEFINITION('material property','material name',#480);
#295=PROPERTY_DEFINITION('material property','density of part',#480);
#296=AXIS2_PLACEMENT_3D('',#393,#319,#320);
#297=AXIS2_PLACEMENT_3D('',#394,#321,#322);
#298=AXIS2_PLACEMENT_3D('',#403,#327,#328);
#299=AXIS2_PLACEMENT_3D('',#409,#332,#333);
#300=AXIS2_PLACEMENT_3D('',#415,#337,#338);
#301=AXIS2_PLACEMENT_3D('',#417,#340,#341);
#302=AXIS2_PLACEMENT_3D('',#428,#347,#348);
#303=AXIS2_PLACEMENT_3D('',#430,#349,#350);
#304=AXIS2_PLACEMENT_3D('',#432,#351,#352);
#305=AXIS2_PLACEMENT_3D('',#434,#353,#354);
#306=AXIS2_PLACEMENT_3D('',#435,#355,#356);
#307=AXIS2_PLACEMENT_3D('',#445,#361,#362);
#308=AXIS2_PLACEMENT_3D('',#447,#363,#364);
#309=AXIS2_PLACEMENT_3D('',#449,#365,#366);
#310=AXIS2_PLACEMENT_3D('',#451,#367,#368);
#311=AXIS2_PLACEMENT_3D('',#452,#369,#370);
#312=AXIS2_PLACEMENT_3D('',#454,#372,#373);
#313=AXIS2_PLACEMENT_3D('',#456,#375,#376);
#314=AXIS2_PLACEMENT_3D('',#458,#378,#379);
#315=AXIS2_PLACEMENT_3D('',#460,#381,#382);
#316=AXIS2_PLACEMENT_3D('',#463,#385,#386);
#317=AXIS2_PLACEMENT_3D('',#465,#388,#389);
#318=AXIS2_PLACEMENT_3D('',#467,#391,#392);
#319=DIRECTION('axis',(0.,0.,1.));
#320=DIRECTION('refdir',(1.,0.,0.));
#321=DIRECTION('center_axis',(1.,0.,0.));
#322=DIRECTION('ref_axis',(0.,0.,1.));
#323=DIRECTION('',(0.,0.,1.));
#324=DIRECTION('',(0.,-1.,0.));
#325=DIRECTION('',(0.,0.,1.));
#326=DIRECTION('',(0.,-1.,0.));
#327=DIRECTION('center_axis',(0.,0.,-1.));
#328=DIRECTION('ref_axis',(1.,0.,0.));
#329=DIRECTION('',(1.,0.,0.));
#330=DIRECTION('',(0.,-1.,0.));
#331=DIRECTION('',(1.,0.,0.));
#332=DIRECTION('center_axis',(-1.,0.,0.));
#333=DIRECTION('ref_axis',(0.,0.,-1.));
#334=DIRECTION('',(0.,0.,-1.));
#335=DIRECTION('',(0.,1.,0.));
#336=DIRECTION('',(0.,0.,-1.));
#337=DIRECTION('center_axis',(0.,-1.,0.));
#338=DIRECTION('ref_axis',(0.,0.,-1.));
#339=DIRECTION('',(-1.,0.,0.));
#340=DIRECTION('center_axis',(0.,1.,0.));
#341=DIRECTION('ref_axis',(0.,0.,1.));
#342=DIRECTION('',(1.,0.,0.));
#343=DIRECTION('',(0.,0.,-1.));
#344=DIRECTION('',(-1.,0.,0.));
#345=DIRECTION('',(0.,0.,1.));
#346=DIRECTION('',(1.,0.,0.));
#347=DIRECTION('center_axis',(0.,-1.,0.));
#348=DIRECTION('ref_axis',(-1.,0.,0.));
#349=DIRECTION('center_axis',(0.,-1.,0.));
#350=DIRECTION('ref_axis',(-1.,0.,0.));
#351=DIRECTION('center_axis',(0.,-1.,0.));
#352=DIRECTION('ref_axis',(-1.,0.,0.));
#353=DIRECTION('center_axis',(0.,-1.,0.));
#354=DIRECTION('ref_axis',(-1.,0.,0.));
#355=DIRECTION('center_axis',(0.,1.,0.));
#356=DIRECTION('ref_axis',(1.,0.,0.));
#357=DIRECTION('',(-1.,0.,0.));
#358=DIRECTION('',(0.,0.,-1.));
#359=DIRECTION('',(1.,0.,0.));
#360=DIRECTION('',(0.,0.,1.));
#361=DIRECTION('center_axis',(0.,1.,0.));
#362=DIRECTION('ref_axis',(-1.,0.,0.));
#363=DIRECTION('center_axis',(0.,-1.,0.));
#364=DIRECTION('ref_axis',(-1.,0.,0.));
#365=DIRECTION('center_axis',(0.,1.,0.));
#366=DIRECTION('ref_axis',(-1.,0.,0.));
#367=DIRECTION('center_axis',(0.,-1.,0.));
#368=DIRECTION('ref_axis',(-1.,0.,0.));
#369=DIRECTION('center_axis',(0.,-1.,0.));
#370=DIRECTION('ref_axis',(-1.,0.,0.));
#371=DIRECTION('',(0.,-1.,0.));
#372=DIRECTION('center_axis',(0.,-1.,0.));
#373=DIRECTION('ref_axis',(-1.,0.,0.));
#374=DIRECTION('',(0.,-1.,0.));
#375=DIRECTION('center_axis',(0.,-1.,0.));
#376=DIRECTION('ref_axis',(-1.,0.,0.));
#377=DIRECTION('',(0.,-1.,0.));
#378=DIRECTION('center_axis',(0.,-1.,0.));
#379=DIRECTION('ref_axis',(-1.,0.,0.));
#380=DIRECTION('',(0.,-1.,0.));
#381=DIRECTION('center_axis',(0.,0.,1.));
#382=DIRECTION('ref_axis',(1.,0.,0.));
#383=DIRECTION('',(0.,1.,0.));
#384=DIRECTION('',(0.,1.,0.));
#385=DIRECTION('center_axis',(-1.,0.,0.));
#386=DIRECTION('ref_axis',(0.,0.,1.));
#387=DIRECTION('',(0.,1.,0.));
#388=DIRECTION('center_axis',(0.,0.,-1.));
#389=DIRECTION('ref_axis',(-1.,0.,0.));
#390=DIRECTION('',(0.,1.,0.));
#391=DIRECTION('center_axis',(1.,0.,0.));
#392=DIRECTION('ref_axis',(0.,0.,-1.));
#393=CARTESIAN_POINT('',(0.,0.,0.));
#394=CARTESIAN_POINT('Origin',(11.0000001639128,40.,0.));
#395=CARTESIAN_POINT('',(11.0000001639128,40.,0.));
#396=CARTESIAN_POINT('',(11.0000001639128,40.,25.000000372529));
#397=CARTESIAN_POINT('',(11.0000001639128,40.,0.));
#398=CARTESIAN_POINT('',(11.0000001639128,19.,0.));
#399=CARTESIAN_POINT('',(11.0000001639128,40.,0.));
#400=CARTESIAN_POINT('',(11.0000001639128,19.,25.000000372529));
#401=CARTESIAN_POINT('',(11.0000001639128,19.,0.));
#402=CARTESIAN_POINT('',(11.0000001639128,20.,25.));
#403=CARTESIAN_POINT('Origin',(-11.0000001639128,40.,0.));
#404=CARTESIAN_POINT('',(-11.0000001639128,40.,0.));
#405=CARTESIAN_POINT('',(-5.50000008195639,40.,0.));
#406=CARTESIAN_POINT('',(-11.0000001639128,19.,0.));
#407=CARTESIAN_POINT('',(-11.0000001639128,40.,0.));
#408=CARTESIAN_POINT('',(-11.0000001639128,19.,0.));
#409=CARTESIAN_POINT('Origin',(-11.0000001639128,40.,25.000000372529));
#410=CARTESIAN_POINT('',(-11.0000001639128,40.,25.000000372529));
#411=CARTESIAN_POINT('',(-11.0000001639128,40.,12.5000001862645));
#412=CARTESIAN_POINT('',(-11.0000001639128,19.,25.000000372529));
#413=CARTESIAN_POINT('',(-11.0000001639128,20.,25.));
#414=CARTESIAN_POINT('',(-11.0000001639128,19.,25.000000372529));
#415=CARTESIAN_POINT('Origin',(0.,19.,12.5000001862645));
#416=CARTESIAN_POINT('',(-12.5,19.,25.));
#417=CARTESIAN_POINT('Origin',(0.,40.,0.));
#418=CARTESIAN_POINT('',(25.,40.,25.));
#419=CARTESIAN_POINT('',(25.,40.,25.));
#420=CARTESIAN_POINT('',(25.,40.,-25.));
#421=CARTESIAN_POINT('',(25.,40.,-25.));
#422=CARTESIAN_POINT('',(-25.,40.,-25.));
#423=CARTESIAN_POINT('',(-25.,40.,-25.));
#424=CARTESIAN_POINT('',(-25.,40.,25.));
#425=CARTESIAN_POINT('',(-25.,40.,25.));
#426=CARTESIAN_POINT('',(25.,40.,25.));
#427=CARTESIAN_POINT('',(20.0000002980232,40.,-15.0000002235174));
#428=CARTESIAN_POINT('Origin',(15.0000002235174,40.,-15.0000002235174));
#429=CARTESIAN_POINT('',(17.0000002980232,40.,15.0000002235174));
#430=CARTESIAN_POINT('Origin',(15.0000002235174,40.,15.0000002235174));
#431=CARTESIAN_POINT('',(-10.0000001490116,40.,-15.0000002235174));
#432=CARTESIAN_POINT('Origin',(-15.0000002235174,40.,-15.0000002235174));
#433=CARTESIAN_POINT('',(-13.0000001490116,40.,15.0000002235174));
#434=CARTESIAN_POINT('Origin',(-15.0000002235174,40.,15.0000002235174));
#435=CARTESIAN_POINT('Origin',(0.,0.,0.));
#436=CARTESIAN_POINT('',(25.,0.,25.));
#437=CARTESIAN_POINT('',(-25.,0.,25.));
#438=CARTESIAN_POINT('',(25.,0.,25.));
#439=CARTESIAN_POINT('',(-25.,0.,-25.));
#440=CARTESIAN_POINT('',(-25.,0.,25.));
#441=CARTESIAN_POINT('',(25.,0.,-25.));
#442=CARTESIAN_POINT('',(-25.,0.,-25.));
#443=CARTESIAN_POINT('',(25.,0.,-25.));
#444=CARTESIAN_POINT('',(20.0000002980232,0.,-15.0000002235174));
#445=CARTESIAN_POINT('Origin',(15.0000002235174,0.,-15.0000002235174));
#446=CARTESIAN_POINT('',(17.0000002980232,0.,15.0000002235174));
#447=CARTESIAN_POINT('Origin',(15.0000002235174,0.,15.0000002235174));
#448=CARTESIAN_POINT('',(-10.0000001490116,0.,-15.0000002235174));
#449=CARTESIAN_POINT('Origin',(-15.0000002235174,0.,-15.0000002235174));
#450=CARTESIAN_POINT('',(-13.0000001490116,0.,15.0000002235174));
#451=CARTESIAN_POINT('Origin',(-15.0000002235174,0.,15.0000002235174));
#452=CARTESIAN_POINT('Origin',(15.0000002235174,40.,-15.0000002235174));
#453=CARTESIAN_POINT('',(20.0000002980232,40.,-15.0000002235174));
#454=CARTESIAN_POINT('Origin',(15.0000002235174,40.,15.0000002235174));
#455=CARTESIAN_POINT('',(17.0000002980232,40.,15.0000002235174));
#456=CARTESIAN_POINT('Origin',(-15.0000002235174,40.,-15.0000002235174));
#457=CARTESIAN_POINT('',(-10.0000001490116,40.,-15.0000002235174));
#458=CARTESIAN_POINT('Origin',(-15.0000002235174,40.,15.0000002235174));
#459=CARTESIAN_POINT('',(-13.0000001490116,40.,15.0000002235174));
#460=CARTESIAN_POINT('Origin',(-25.,0.,25.));
#461=CARTESIAN_POINT('',(-25.,0.,25.));
#462=CARTESIAN_POINT('',(25.,0.,25.));
#463=CARTESIAN_POINT('Origin',(-25.,0.,-25.));
#464=CARTESIAN_POINT('',(-25.,0.,-25.));
#465=CARTESIAN_POINT('Origin',(25.,0.,-25.));
#466=CARTESIAN_POINT('',(25.,0.,-25.));
#467=CARTESIAN_POINT('Origin',(25.,0.,25.));
#468=UNCERTAINTY_MEASURE_WITH_UNIT(LENGTH_MEASURE(0.01),#472,
'DISTANCE_ACCURACY_VALUE',
'Maximum model space distance between geometric entities at asserted c
onnectivities');
#469=UNCERTAINTY_MEASURE_WITH_UNIT(LENGTH_MEASURE(0.01),#472,
'DISTANCE_ACCURACY_VALUE',
'Maximum model space distance between geometric entities at asserted c
onnectivities');
#470=(
GEOMETRIC_REPRESENTATION_CONTEXT(3)
GLOBAL_UNCERTAINTY_ASSIGNED_CONTEXT((#468))
GLOBAL_UNIT_ASSIGNED_CONTEXT((#472,#474,#475))
REPRESENTATION_CONTEXT('','3D')
);
#471=(
GEOMETRIC_REPRESENTATION_CONTEXT(3)
GLOBAL_UNCERTAINTY_ASSIGNED_CONTEXT((#469))
GLOBAL_UNIT_ASSIGNED_CONTEXT((#472,#474,#475))
REPRESENTATION_CONTEXT('','3D')
);
#472=(
LENGTH_UNIT()
NAMED_UNIT(*)
SI_UNIT(.MILLI.,.METRE.)
);
#473=(
LENGTH_UNIT()
NAMED_UNIT(*)
SI_UNIT($,.METRE.)
);
#474=(
NAMED_UNIT(*)
PLANE_ANGLE_UNIT()
SI_UNIT($,.RADIAN.)
);
#475=(
NAMED_UNIT(*)
SI_UNIT($,.STERADIAN.)
SOLID_ANGLE_UNIT()
);
#476=SHAPE_DEFINITION_REPRESENTATION(#477,#478);
#477=PRODUCT_DEFINITION_SHAPE('',$,#480);
#478=SHAPE_REPRESENTATION('',(#296),#470);
#479=PRODUCT_DEFINITION_CONTEXT('part definition',#484,'design');
#480=PRODUCT_DEFINITION('(Unsaved)','(Unsaved)',#481,#479);
#481=PRODUCT_DEFINITION_FORMATION('',$,#486);
#482=PRODUCT_RELATED_PRODUCT_CATEGORY('(Unsaved)','(Unsaved)',(#486));
#483=APPLICATION_PROTOCOL_DEFINITION('international standard',
'automotive_design',2009,#484);
#484=APPLICATION_CONTEXT(
'Core Data for Automotive Mechanical Design Process');
#485=PRODUCT_CONTEXT('part definition',#484,'mechanical');
#486=PRODUCT('(Unsaved)','(Unsaved)',$,(#485));
#487=PRESENTATION_STYLE_ASSIGNMENT((#488));
#488=SURFACE_STYLE_USAGE(.BOTH.,#489);
#489=SURFACE_SIDE_STYLE('',(#490));
#490=SURFACE_STYLE_FILL_AREA(#491);
#491=FILL_AREA_STYLE('Steel - Satin',(#492));
#492=FILL_AREA_STYLE_COLOUR('Steel - Satin',#493);
#493=COLOUR_RGB('Steel - Satin',0.627450980392157,0.627450980392157,0.627450980392157);
ENDSEC;
END-ISO-10303-21;
