ISO-10303-21;
HEADER;
/* Generated by software containing ST-Developer
 * from STEP Tools, Inc. (www.steptools.com) 
 */

FILE_DESCRIPTION(
/* description */ (''),
/* implementation_level */ '2;1');

FILE_NAME(
/* name */ 'ex-milling_07.step',
/* time_stamp */ '2024-11-11T17:43:42+03:00',
/* author */ (''),
/* organization */ (''),
/* preprocessor_version */ 'ST-DEVELOPER v20',
/* originating_system */ 'Autodesk Translation Framework v13.14.0.145',

/* authorisation */ '');

FILE_SCHEMA (('AUTOMOTIVE_DESIGN { 1 0 10303 214 3 1 1 }'));
ENDSEC;

DATA;
#10=MECHANICAL_DESIGN_GEOMETRIC_PRESENTATION_REPRESENTATION('',(#13),#541);
#11=SHAPE_REPRESENTATION_RELATIONSHIP('SRR','None',#548,#12);
#12=ADVANCED_BREP_SHAPE_REPRESENTATION('',(#14),#540);
#13=STYLED_ITEM('',(#557),#14);
#14=MANIFOLD_SOLID_BREP('Body1',#321);
#15=FACE_BOUND('',#56,.T.);
#16=FACE_BOUND('',#57,.T.);
#17=FACE_BOUND('',#58,.T.);
#18=FACE_BOUND('',#59,.T.);
#19=FACE_BOUND('',#61,.T.);
#20=FACE_BOUND('',#62,.T.);
#21=FACE_BOUND('',#63,.T.);
#22=FACE_BOUND('',#64,.T.);
#23=PLANE('',#338);
#24=PLANE('',#342);
#25=PLANE('',#343);
#26=PLANE('',#344);
#27=PLANE('',#345);
#28=PLANE('',#350);
#29=PLANE('',#359);
#30=PLANE('',#360);
#31=PLANE('',#361);
#32=PLANE('',#362);
#33=FACE_OUTER_BOUND('',#49,.T.);
#34=FACE_OUTER_BOUND('',#50,.T.);
#35=FACE_OUTER_BOUND('',#51,.T.);
#36=FACE_OUTER_BOUND('',#52,.T.);
#37=FACE_OUTER_BOUND('',#53,.T.);
#38=FACE_OUTER_BOUND('',#54,.T.);
#39=FACE_OUTER_BOUND('',#55,.T.);
#40=FACE_OUTER_BOUND('',#60,.T.);
#41=FACE_OUTER_BOUND('',#65,.T.);
#42=FACE_OUTER_BOUND('',#66,.T.);
#43=FACE_OUTER_BOUND('',#67,.T.);
#44=FACE_OUTER_BOUND('',#68,.T.);
#45=FACE_OUTER_BOUND('',#69,.T.);
#46=FACE_OUTER_BOUND('',#70,.T.);
#47=FACE_OUTER_BOUND('',#71,.T.);
#48=FACE_OUTER_BOUND('',#72,.T.);
#49=EDGE_LOOP('',(#215,#216,#217,#218));
#50=EDGE_LOOP('',(#219,#220,#221,#222));
#51=EDGE_LOOP('',(#223,#224,#225,#226));
#52=EDGE_LOOP('',(#227,#228,#229,#230));
#53=EDGE_LOOP('',(#231,#232,#233,#234));
#54=EDGE_LOOP('',(#235,#236,#237,#238,#239,#240));
#55=EDGE_LOOP('',(#241,#242,#243,#244,#245,#246,#247,#248,#249,#250));
#56=EDGE_LOOP('',(#251));
#57=EDGE_LOOP('',(#252));
#58=EDGE_LOOP('',(#253));
#59=EDGE_LOOP('',(#254));
#60=EDGE_LOOP('',(#255,#256,#257,#258));
#61=EDGE_LOOP('',(#259));
#62=EDGE_LOOP('',(#260));
#63=EDGE_LOOP('',(#261));
#64=EDGE_LOOP('',(#262));
#65=EDGE_LOOP('',(#263,#264,#265,#266));
#66=EDGE_LOOP('',(#267,#268,#269,#270));
#67=EDGE_LOOP('',(#271,#272,#273,#274));
#68=EDGE_LOOP('',(#275,#276,#277,#278));
#69=EDGE_LOOP('',(#279,#280,#281,#282,#283,#284,#285,#286));
#70=EDGE_LOOP('',(#287,#288,#289,#290));
#71=EDGE_LOOP('',(#291,#292,#293,#294));
#72=EDGE_LOOP('',(#295,#296,#297,#298));
#73=LINE('',#457,#103);
#74=LINE('',#460,#104);
#75=LINE('',#463,#105);
#76=LINE('',#465,#106);
#77=LINE('',#466,#107);
#78=LINE('',#472,#108);
#79=LINE('',#475,#109);
#80=LINE('',#477,#110);
#81=LINE('',#478,#111);
#82=LINE('',#481,#112);
#83=LINE('',#483,#113);
#84=LINE('',#484,#114);
#85=LINE('',#486,#115);
#86=LINE('',#489,#116);
#87=LINE('',#491,#117);
#88=LINE('',#493,#118);
#89=LINE('',#495,#119);
#90=LINE('',#496,#120);
#91=LINE('',#508,#121);
#92=LINE('',#510,#122);
#93=LINE('',#512,#123);
#94=LINE('',#513,#124);
#95=LINE('',#523,#125);
#96=LINE('',#525,#126);
#97=LINE('',#527,#127);
#98=LINE('',#529,#128);
#99=LINE('',#531,#129);
#100=LINE('',#532,#130);
#101=LINE('',#534,#131);
#102=LINE('',#536,#132);
#103=VECTOR('',#369,10.);
#104=VECTOR('',#372,10.);
#105=VECTOR('',#375,10.);
#106=VECTOR('',#376,10.);
#107=VECTOR('',#377,10.);
#108=VECTOR('',#384,10.);
#109=VECTOR('',#387,10.);
#110=VECTOR('',#388,10.);
#111=VECTOR('',#389,10.);
#112=VECTOR('',#392,10.);
#113=VECTOR('',#393,10.);
#114=VECTOR('',#394,10.);
#115=VECTOR('',#397,10.);
#116=VECTOR('',#400,10.);
#117=VECTOR('',#401,10.);
#118=VECTOR('',#402,10.);
#119=VECTOR('',#403,10.);
#120=VECTOR('',#404,10.);
#121=VECTOR('',#415,10.);
#122=VECTOR('',#416,10.);
#123=VECTOR('',#417,10.);
#124=VECTOR('',#418,10.);
#125=VECTOR('',#429,5.00000007450581);
#126=VECTOR('',#432,5.00000007450581);
#127=VECTOR('',#435,5.00000007450581);
#128=VECTOR('',#438,5.00000007450581);
#129=VECTOR('',#441,10.);
#130=VECTOR('',#442,10.);
#131=VECTOR('',#445,10.);
#132=VECTOR('',#448,10.);
#133=CIRCLE('',#336,4.);
#134=CIRCLE('',#337,4.);
#135=CIRCLE('',#340,4.);
#136=CIRCLE('',#341,4.);
#137=CIRCLE('',#346,5.00000007450581);
#138=CIRCLE('',#347,2.00000007450581);
#139=CIRCLE('',#348,5.00000007450581);
#140=CIRCLE('',#349,2.00000007450581);
#141=CIRCLE('',#351,5.00000007450581);
#142=CIRCLE('',#352,2.00000007450581);
#143=CIRCLE('',#353,5.00000007450581);
#144=CIRCLE('',#354,2.00000007450581);
#145=VERTEX_POINT('',#453);
#146=VERTEX_POINT('',#454);
#147=VERTEX_POINT('',#456);
#148=VERTEX_POINT('',#458);
#149=VERTEX_POINT('',#462);
#150=VERTEX_POINT('',#464);
#151=VERTEX_POINT('',#468);
#152=VERTEX_POINT('',#470);
#153=VERTEX_POINT('',#474);
#154=VERTEX_POINT('',#476);
#155=VERTEX_POINT('',#480);
#156=VERTEX_POINT('',#482);
#157=VERTEX_POINT('',#488);
#158=VERTEX_POINT('',#490);
#159=VERTEX_POINT('',#492);
#160=VERTEX_POINT('',#494);
#161=VERTEX_POINT('',#497);
#162=VERTEX_POINT('',#499);
#163=VERTEX_POINT('',#501);
#164=VERTEX_POINT('',#503);
#165=VERTEX_POINT('',#506);
#166=VERTEX_POINT('',#507);
#167=VERTEX_POINT('',#509);
#168=VERTEX_POINT('',#511);
#169=VERTEX_POINT('',#514);
#170=VERTEX_POINT('',#516);
#171=VERTEX_POINT('',#518);
#172=VERTEX_POINT('',#520);
#173=EDGE_CURVE('',#145,#146,#133,.T.);
#174=EDGE_CURVE('',#145,#147,#73,.T.);
#175=EDGE_CURVE('',#147,#148,#134,.T.);
#176=EDGE_CURVE('',#148,#146,#74,.T.);
#177=EDGE_CURVE('',#149,#148,#75,.T.);
#178=EDGE_CURVE('',#150,#149,#76,.T.);
#179=EDGE_CURVE('',#150,#146,#77,.T.);
#180=EDGE_CURVE('',#150,#151,#135,.T.);
#181=EDGE_CURVE('',#149,#152,#136,.T.);
#182=EDGE_CURVE('',#152,#151,#78,.T.);
#183=EDGE_CURVE('',#153,#152,#79,.T.);
#184=EDGE_CURVE('',#154,#153,#80,.T.);
#185=EDGE_CURVE('',#154,#151,#81,.T.);
#186=EDGE_CURVE('',#145,#155,#82,.T.);
#187=EDGE_CURVE('',#156,#155,#83,.T.);
#188=EDGE_CURVE('',#147,#156,#84,.T.);
#189=EDGE_CURVE('',#155,#154,#85,.T.);
#190=EDGE_CURVE('',#156,#157,#86,.T.);
#191=EDGE_CURVE('',#157,#158,#87,.T.);
#192=EDGE_CURVE('',#158,#159,#88,.T.);
#193=EDGE_CURVE('',#159,#160,#89,.T.);
#194=EDGE_CURVE('',#160,#153,#90,.T.);
#195=EDGE_CURVE('',#161,#161,#137,.T.);
#196=EDGE_CURVE('',#162,#162,#138,.T.);
#197=EDGE_CURVE('',#163,#163,#139,.T.);
#198=EDGE_CURVE('',#164,#164,#140,.T.);
#199=EDGE_CURVE('',#165,#166,#91,.T.);
#200=EDGE_CURVE('',#166,#167,#92,.T.);
#201=EDGE_CURVE('',#167,#168,#93,.T.);
#202=EDGE_CURVE('',#168,#165,#94,.T.);
#203=EDGE_CURVE('',#169,#169,#141,.T.);
#204=EDGE_CURVE('',#170,#170,#142,.F.);
#205=EDGE_CURVE('',#171,#171,#143,.T.);
#206=EDGE_CURVE('',#172,#172,#144,.F.);
#207=EDGE_CURVE('',#161,#169,#95,.T.);
#208=EDGE_CURVE('',#162,#170,#96,.T.);
#209=EDGE_CURVE('',#163,#171,#97,.T.);
#210=EDGE_CURVE('',#164,#172,#98,.T.);
#211=EDGE_CURVE('',#166,#160,#99,.T.);
#212=EDGE_CURVE('',#165,#157,#100,.T.);
#213=EDGE_CURVE('',#167,#159,#101,.T.);
#214=EDGE_CURVE('',#168,#158,#102,.T.);
#215=ORIENTED_EDGE('',*,*,#173,.F.);
#216=ORIENTED_EDGE('',*,*,#174,.T.);
#217=ORIENTED_EDGE('',*,*,#175,.T.);
#218=ORIENTED_EDGE('',*,*,#176,.T.);
#219=ORIENTED_EDGE('',*,*,#176,.F.);
#220=ORIENTED_EDGE('',*,*,#177,.F.);
#221=ORIENTED_EDGE('',*,*,#178,.F.);
#222=ORIENTED_EDGE('',*,*,#179,.T.);
#223=ORIENTED_EDGE('',*,*,#180,.F.);
#224=ORIENTED_EDGE('',*,*,#178,.T.);
#225=ORIENTED_EDGE('',*,*,#181,.T.);
#226=ORIENTED_EDGE('',*,*,#182,.T.);
#227=ORIENTED_EDGE('',*,*,#182,.F.);
#228=ORIENTED_EDGE('',*,*,#183,.F.);
#229=ORIENTED_EDGE('',*,*,#184,.F.);
#230=ORIENTED_EDGE('',*,*,#185,.T.);
#231=ORIENTED_EDGE('',*,*,#174,.F.);
#232=ORIENTED_EDGE('',*,*,#186,.T.);
#233=ORIENTED_EDGE('',*,*,#187,.F.);
#234=ORIENTED_EDGE('',*,*,#188,.F.);
#235=ORIENTED_EDGE('',*,*,#173,.T.);
#236=ORIENTED_EDGE('',*,*,#179,.F.);
#237=ORIENTED_EDGE('',*,*,#180,.T.);
#238=ORIENTED_EDGE('',*,*,#185,.F.);
#239=ORIENTED_EDGE('',*,*,#189,.F.);
#240=ORIENTED_EDGE('',*,*,#186,.F.);
#241=ORIENTED_EDGE('',*,*,#183,.T.);
#242=ORIENTED_EDGE('',*,*,#181,.F.);
#243=ORIENTED_EDGE('',*,*,#177,.T.);
#244=ORIENTED_EDGE('',*,*,#175,.F.);
#245=ORIENTED_EDGE('',*,*,#188,.T.);
#246=ORIENTED_EDGE('',*,*,#190,.T.);
#247=ORIENTED_EDGE('',*,*,#191,.T.);
#248=ORIENTED_EDGE('',*,*,#192,.T.);
#249=ORIENTED_EDGE('',*,*,#193,.T.);
#250=ORIENTED_EDGE('',*,*,#194,.T.);
#251=ORIENTED_EDGE('',*,*,#195,.T.);
#252=ORIENTED_EDGE('',*,*,#196,.T.);
#253=ORIENTED_EDGE('',*,*,#197,.T.);
#254=ORIENTED_EDGE('',*,*,#198,.T.);
#255=ORIENTED_EDGE('',*,*,#199,.T.);
#256=ORIENTED_EDGE('',*,*,#200,.T.);
#257=ORIENTED_EDGE('',*,*,#201,.T.);
#258=ORIENTED_EDGE('',*,*,#202,.T.);
#259=ORIENTED_EDGE('',*,*,#203,.T.);
#260=ORIENTED_EDGE('',*,*,#204,.T.);
#261=ORIENTED_EDGE('',*,*,#205,.T.);
#262=ORIENTED_EDGE('',*,*,#206,.T.);
#263=ORIENTED_EDGE('',*,*,#195,.F.);
#264=ORIENTED_EDGE('',*,*,#207,.T.);
#265=ORIENTED_EDGE('',*,*,#203,.F.);
#266=ORIENTED_EDGE('',*,*,#207,.F.);
#267=ORIENTED_EDGE('',*,*,#196,.F.);
#268=ORIENTED_EDGE('',*,*,#208,.T.);
#269=ORIENTED_EDGE('',*,*,#204,.F.);
#270=ORIENTED_EDGE('',*,*,#208,.F.);
#271=ORIENTED_EDGE('',*,*,#197,.F.);
#272=ORIENTED_EDGE('',*,*,#209,.T.);
#273=ORIENTED_EDGE('',*,*,#205,.F.);
#274=ORIENTED_EDGE('',*,*,#209,.F.);
#275=ORIENTED_EDGE('',*,*,#198,.F.);
#276=ORIENTED_EDGE('',*,*,#210,.T.);
#277=ORIENTED_EDGE('',*,*,#206,.F.);
#278=ORIENTED_EDGE('',*,*,#210,.F.);
#279=ORIENTED_EDGE('',*,*,#184,.T.);
#280=ORIENTED_EDGE('',*,*,#194,.F.);
#281=ORIENTED_EDGE('',*,*,#211,.F.);
#282=ORIENTED_EDGE('',*,*,#199,.F.);
#283=ORIENTED_EDGE('',*,*,#212,.T.);
#284=ORIENTED_EDGE('',*,*,#190,.F.);
#285=ORIENTED_EDGE('',*,*,#187,.T.);
#286=ORIENTED_EDGE('',*,*,#189,.T.);
#287=ORIENTED_EDGE('',*,*,#200,.F.);
#288=ORIENTED_EDGE('',*,*,#211,.T.);
#289=ORIENTED_EDGE('',*,*,#193,.F.);
#290=ORIENTED_EDGE('',*,*,#213,.F.);
#291=ORIENTED_EDGE('',*,*,#201,.F.);
#292=ORIENTED_EDGE('',*,*,#213,.T.);
#293=ORIENTED_EDGE('',*,*,#192,.F.);
#294=ORIENTED_EDGE('',*,*,#214,.F.);
#295=ORIENTED_EDGE('',*,*,#202,.F.);
#296=ORIENTED_EDGE('',*,*,#214,.T.);
#297=ORIENTED_EDGE('',*,*,#191,.F.);
#298=ORIENTED_EDGE('',*,*,#212,.F.);
#299=CYLINDRICAL_SURFACE('',#335,4.);
#300=CYLINDRICAL_SURFACE('',#339,4.);
#301=CYLINDRICAL_SURFACE('',#355,5.00000007450581);
#302=CYLINDRICAL_SURFACE('',#356,2.00000007450581);
#303=CYLINDRICAL_SURFACE('',#357,5.00000007450581);
#304=CYLINDRICAL_SURFACE('',#358,2.00000007450581);
#305=ADVANCED_FACE('',(#33),#299,.F.);
#306=ADVANCED_FACE('',(#34),#23,.F.);
#307=ADVANCED_FACE('',(#35),#300,.F.);
#308=ADVANCED_FACE('',(#36),#24,.F.);
#309=ADVANCED_FACE('',(#37),#25,.F.);
#310=ADVANCED_FACE('',(#38),#26,.F.);
#311=ADVANCED_FACE('',(#39,#15,#16,#17,#18),#27,.T.);
#312=ADVANCED_FACE('',(#40,#19,#20,#21,#22),#28,.F.);
#313=ADVANCED_FACE('',(#41),#301,.F.);
#314=ADVANCED_FACE('',(#42),#302,.F.);
#315=ADVANCED_FACE('',(#43),#303,.F.);
#316=ADVANCED_FACE('',(#44),#304,.F.);
#317=ADVANCED_FACE('',(#45),#29,.T.);
#318=ADVANCED_FACE('',(#46),#30,.T.);
#319=ADVANCED_FACE('',(#47),#31,.T.);
#320=ADVANCED_FACE('',(#48),#32,.T.);
#321=CLOSED_SHELL('',(#305,#306,#307,#308,#309,#310,#311,#312,#313,#314,
#315,#316,#317,#318,#319,#320));
#322=DERIVED_UNIT_ELEMENT(#324,1.);
#323=DERIVED_UNIT_ELEMENT(#543,-3.);
#324=(
MASS_UNIT()
NAMED_UNIT(*)
SI_UNIT(.KILO.,.GRAM.)
);
#325=DERIVED_UNIT((#322,#323));
#326=MEASURE_REPRESENTATION_ITEM('density measure',
POSITIVE_RATIO_MEASURE(7850.),#325);
#327=PROPERTY_DEFINITION_REPRESENTATION(#332,#329);
#328=PROPERTY_DEFINITION_REPRESENTATION(#333,#330);
#329=REPRESENTATION('material name',(#331),#540);
#330=REPRESENTATION('density',(#326),#540);
#331=DESCRIPTIVE_REPRESENTATION_ITEM('Steel','Steel');
#332=PROPERTY_DEFINITION('material property','material name',#550);
#333=PROPERTY_DEFINITION('material property','density of part',#550);
#334=AXIS2_PLACEMENT_3D('',#451,#363,#364);
#335=AXIS2_PLACEMENT_3D('',#452,#365,#366);
#336=AXIS2_PLACEMENT_3D('',#455,#367,#368);
#337=AXIS2_PLACEMENT_3D('',#459,#370,#371);
#338=AXIS2_PLACEMENT_3D('',#461,#373,#374);
#339=AXIS2_PLACEMENT_3D('',#467,#378,#379);
#340=AXIS2_PLACEMENT_3D('',#469,#380,#381);
#341=AXIS2_PLACEMENT_3D('',#471,#382,#383);
#342=AXIS2_PLACEMENT_3D('',#473,#385,#386);
#343=AXIS2_PLACEMENT_3D('',#479,#390,#391);
#344=AXIS2_PLACEMENT_3D('',#485,#395,#396);
#345=AXIS2_PLACEMENT_3D('',#487,#398,#399);
#346=AXIS2_PLACEMENT_3D('',#498,#405,#406);
#347=AXIS2_PLACEMENT_3D('',#500,#407,#408);
#348=AXIS2_PLACEMENT_3D('',#502,#409,#410);
#349=AXIS2_PLACEMENT_3D('',#504,#411,#412);
#350=AXIS2_PLACEMENT_3D('',#505,#413,#414);
#351=AXIS2_PLACEMENT_3D('',#515,#419,#420);
#352=AXIS2_PLACEMENT_3D('',#517,#421,#422);
#353=AXIS2_PLACEMENT_3D('',#519,#423,#424);
#354=AXIS2_PLACEMENT_3D('',#521,#425,#426);
#355=AXIS2_PLACEMENT_3D('',#522,#427,#428);
#356=AXIS2_PLACEMENT_3D('',#524,#430,#431);
#357=AXIS2_PLACEMENT_3D('',#526,#433,#434);
#358=AXIS2_PLACEMENT_3D('',#528,#436,#437);
#359=AXIS2_PLACEMENT_3D('',#530,#439,#440);
#360=AXIS2_PLACEMENT_3D('',#533,#443,#444);
#361=AXIS2_PLACEMENT_3D('',#535,#446,#447);
#362=AXIS2_PLACEMENT_3D('',#537,#449,#450);
#363=DIRECTION('axis',(0.,0.,1.));
#364=DIRECTION('refdir',(1.,0.,0.));
#365=DIRECTION('center_axis',(0.,-1.,0.));
#366=DIRECTION('ref_axis',(0.707106781186547,0.,-0.707106781186548));
#367=DIRECTION('center_axis',(0.,1.,0.));
#368=DIRECTION('ref_axis',(0.707106781186547,0.,-0.707106781186548));
#369=DIRECTION('',(0.,1.,0.));
#370=DIRECTION('center_axis',(0.,1.,0.));
#371=DIRECTION('ref_axis',(0.707106781186547,0.,-0.707106781186548));
#372=DIRECTION('',(0.,-1.,0.));
#373=DIRECTION('center_axis',(0.,0.,-1.));
#374=DIRECTION('ref_axis',(1.,0.,0.));
#375=DIRECTION('',(1.,0.,0.));
#376=DIRECTION('',(0.,1.,0.));
#377=DIRECTION('',(1.,0.,0.));
#378=DIRECTION('center_axis',(0.,-1.,0.));
#379=DIRECTION('ref_axis',(-0.707106781186548,0.,-0.707106781186547));
#380=DIRECTION('center_axis',(0.,1.,0.));
#381=DIRECTION('ref_axis',(-0.707106781186548,0.,-0.707106781186547));
#382=DIRECTION('center_axis',(0.,1.,0.));
#383=DIRECTION('ref_axis',(-0.707106781186548,0.,-0.707106781186547));
#384=DIRECTION('',(0.,-1.,0.));
#385=DIRECTION('center_axis',(-1.,0.,0.));
#386=DIRECTION('ref_axis',(0.,0.,-1.));
#387=DIRECTION('',(0.,0.,-1.));
#388=DIRECTION('',(0.,1.,0.));
#389=DIRECTION('',(0.,0.,-1.));
#390=DIRECTION('center_axis',(1.,0.,0.));
#391=DIRECTION('ref_axis',(0.,0.,1.));
#392=DIRECTION('',(0.,0.,1.));
#393=DIRECTION('',(0.,-1.,0.));
#394=DIRECTION('',(0.,0.,1.));
#395=DIRECTION('center_axis',(0.,-1.,0.));
#396=DIRECTION('ref_axis',(0.,0.,-1.));
#397=DIRECTION('',(-1.,0.,0.));
#398=DIRECTION('center_axis',(0.,1.,0.));
#399=DIRECTION('ref_axis',(0.,0.,1.));
#400=DIRECTION('',(1.,0.,0.));
#401=DIRECTION('',(0.,0.,-1.));
#402=DIRECTION('',(-1.,0.,0.));
#403=DIRECTION('',(0.,0.,1.));
#404=DIRECTION('',(1.,0.,0.));
#405=DIRECTION('center_axis',(0.,-1.,0.));
#406=DIRECTION('ref_axis',(-1.,0.,0.));
#407=DIRECTION('center_axis',(0.,-1.,0.));
#408=DIRECTION('ref_axis',(-1.,0.,0.));
#409=DIRECTION('center_axis',(0.,-1.,0.));
#410=DIRECTION('ref_axis',(-1.,0.,0.));
#411=DIRECTION('center_axis',(0.,-1.,0.));
#412=DIRECTION('ref_axis',(-1.,0.,0.));
#413=DIRECTION('center_axis',(0.,1.,0.));
#414=DIRECTION('ref_axis',(1.,0.,0.));
#415=DIRECTION('',(-1.,0.,0.));
#416=DIRECTION('',(0.,0.,-1.));
#417=DIRECTION('',(1.,0.,0.));
#418=DIRECTION('',(0.,0.,1.));
#419=DIRECTION('center_axis',(0.,1.,0.));
#420=DIRECTION('ref_axis',(-1.,0.,0.));
#421=DIRECTION('center_axis',(0.,-1.,0.));
#422=DIRECTION('ref_axis',(-1.,0.,0.));
#423=DIRECTION('center_axis',(0.,1.,0.));
#424=DIRECTION('ref_axis',(-1.,0.,0.));
#425=DIRECTION('center_axis',(0.,-1.,0.));
#426=DIRECTION('ref_axis',(-1.,0.,0.));
#427=DIRECTION('center_axis',(0.,-1.,0.));
#428=DIRECTION('ref_axis',(-1.,0.,0.));
#429=DIRECTION('',(0.,-1.,0.));
#430=DIRECTION('center_axis',(0.,-1.,0.));
#431=DIRECTION('ref_axis',(-1.,0.,0.));
#432=DIRECTION('',(0.,-1.,0.));
#433=DIRECTION('center_axis',(0.,-1.,0.));
#434=DIRECTION('ref_axis',(-1.,0.,0.));
#435=DIRECTION('',(0.,-1.,0.));
#436=DIRECTION('center_axis',(0.,-1.,0.));
#437=DIRECTION('ref_axis',(-1.,0.,0.));
#438=DIRECTION('',(0.,-1.,0.));
#439=DIRECTION('center_axis',(0.,0.,1.));
#440=DIRECTION('ref_axis',(1.,0.,0.));
#441=DIRECTION('',(0.,1.,0.));
#442=DIRECTION('',(0.,1.,0.));
#443=DIRECTION('center_axis',(-1.,0.,0.));
#444=DIRECTION('ref_axis',(0.,0.,1.));
#445=DIRECTION('',(0.,1.,0.));
#446=DIRECTION('center_axis',(0.,0.,-1.));
#447=DIRECTION('ref_axis',(-1.,0.,0.));
#448=DIRECTION('',(0.,1.,0.));
#449=DIRECTION('center_axis',(1.,0.,0.));
#450=DIRECTION('ref_axis',(0.,0.,-1.));
#451=CARTESIAN_POINT('',(0.,0.,0.));
#452=CARTESIAN_POINT('Origin',(7.00000016391277,40.,4.));
#453=CARTESIAN_POINT('',(11.0000001639128,19.,4.));
#454=CARTESIAN_POINT('',(7.00000016391277,19.,0.));
#455=CARTESIAN_POINT('Origin',(7.00000016391277,19.,4.));
#456=CARTESIAN_POINT('',(11.0000001639128,40.,4.));
#457=CARTESIAN_POINT('',(11.0000001639128,40.,4.));
#458=CARTESIAN_POINT('',(7.00000016391277,40.,0.));
#459=CARTESIAN_POINT('Origin',(7.00000016391277,40.,4.));
#460=CARTESIAN_POINT('',(7.00000016391277,40.,0.));
#461=CARTESIAN_POINT('Origin',(-11.0000001639128,40.,0.));
#462=CARTESIAN_POINT('',(-7.00000016391277,40.,0.));
#463=CARTESIAN_POINT('',(-5.50000008195639,40.,0.));
#464=CARTESIAN_POINT('',(-7.00000016391277,19.,0.));
#465=CARTESIAN_POINT('',(-7.00000016391277,40.,0.));
#466=CARTESIAN_POINT('',(-11.0000001639128,19.,0.));
#467=CARTESIAN_POINT('Origin',(-7.00000016391277,40.,4.));
#468=CARTESIAN_POINT('',(-11.0000001639128,19.,4.));
#469=CARTESIAN_POINT('Origin',(-7.00000016391277,19.,4.));
#470=CARTESIAN_POINT('',(-11.0000001639128,40.,4.));
#471=CARTESIAN_POINT('Origin',(-7.00000016391277,40.,4.));
#472=CARTESIAN_POINT('',(-11.0000001639128,40.,4.));
#473=CARTESIAN_POINT('Origin',(-11.0000001639128,40.,25.000000372529));
#474=CARTESIAN_POINT('',(-11.0000001639128,40.,25.000000372529));
#475=CARTESIAN_POINT('',(-11.0000001639128,40.,12.5000001862645));
#476=CARTESIAN_POINT('',(-11.0000001639128,19.,25.000000372529));
#477=CARTESIAN_POINT('',(-11.0000001639128,20.,25.));
#478=CARTESIAN_POINT('',(-11.0000001639128,19.,25.000000372529));
#479=CARTESIAN_POINT('Origin',(11.0000001639128,40.,0.));
#480=CARTESIAN_POINT('',(11.0000001639128,19.,25.000000372529));
#481=CARTESIAN_POINT('',(11.0000001639128,19.,0.));
#482=CARTESIAN_POINT('',(11.0000001639128,40.,25.000000372529));
#483=CARTESIAN_POINT('',(11.0000001639128,20.,25.));
#484=CARTESIAN_POINT('',(11.0000001639128,40.,0.));
#485=CARTESIAN_POINT('Origin',(0.,19.,12.5000001862645));
#486=CARTESIAN_POINT('',(-12.5,19.,25.));
#487=CARTESIAN_POINT('Origin',(0.,40.,0.));
#488=CARTESIAN_POINT('',(25.,40.,25.));
#489=CARTESIAN_POINT('',(25.,40.,25.));
#490=CARTESIAN_POINT('',(25.,40.,-25.));
#491=CARTESIAN_POINT('',(25.,40.,-25.));
#492=CARTESIAN_POINT('',(-25.,40.,-25.));
#493=CARTESIAN_POINT('',(-25.,40.,-25.));
#494=CARTESIAN_POINT('',(-25.,40.,25.));
#495=CARTESIAN_POINT('',(-25.,40.,25.));
#496=CARTESIAN_POINT('',(25.,40.,25.));
#497=CARTESIAN_POINT('',(20.0000002980232,40.,-15.0000002235174));
#498=CARTESIAN_POINT('Origin',(15.0000002235174,40.,-15.0000002235174));
#499=CARTESIAN_POINT('',(17.0000002980232,40.,15.0000002235174));
#500=CARTESIAN_POINT('Origin',(15.0000002235174,40.,15.0000002235174));
#501=CARTESIAN_POINT('',(-10.0000001490116,40.,-15.0000002235174));
#502=CARTESIAN_POINT('Origin',(-15.0000002235174,40.,-15.0000002235174));
#503=CARTESIAN_POINT('',(-13.0000001490116,40.,15.0000002235174));
#504=CARTESIAN_POINT('Origin',(-15.0000002235174,40.,15.0000002235174));
#505=CARTESIAN_POINT('Origin',(0.,0.,0.));
#506=CARTESIAN_POINT('',(25.,0.,25.));
#507=CARTESIAN_POINT('',(-25.,0.,25.));
#508=CARTESIAN_POINT('',(25.,0.,25.));
#509=CARTESIAN_POINT('',(-25.,0.,-25.));
#510=CARTESIAN_POINT('',(-25.,0.,25.));
#511=CARTESIAN_POINT('',(25.,0.,-25.));
#512=CARTESIAN_POINT('',(-25.,0.,-25.));
#513=CARTESIAN_POINT('',(25.,0.,-25.));
#514=CARTESIAN_POINT('',(20.0000002980232,0.,-15.0000002235174));
#515=CARTESIAN_POINT('Origin',(15.0000002235174,0.,-15.0000002235174));
#516=CARTESIAN_POINT('',(17.0000002980232,0.,15.0000002235174));
#517=CARTESIAN_POINT('Origin',(15.0000002235174,0.,15.0000002235174));
#518=CARTESIAN_POINT('',(-10.0000001490116,0.,-15.0000002235174));
#519=CARTESIAN_POINT('Origin',(-15.0000002235174,0.,-15.0000002235174));
#520=CARTESIAN_POINT('',(-13.0000001490116,0.,15.0000002235174));
#521=CARTESIAN_POINT('Origin',(-15.0000002235174,0.,15.0000002235174));
#522=CARTESIAN_POINT('Origin',(15.0000002235174,40.,-15.0000002235174));
#523=CARTESIAN_POINT('',(20.0000002980232,40.,-15.0000002235174));
#524=CARTESIAN_POINT('Origin',(15.0000002235174,40.,15.0000002235174));
#525=CARTESIAN_POINT('',(17.0000002980232,40.,15.0000002235174));
#526=CARTESIAN_POINT('Origin',(-15.0000002235174,40.,-15.0000002235174));
#527=CARTESIAN_POINT('',(-10.0000001490116,40.,-15.0000002235174));
#528=CARTESIAN_POINT('Origin',(-15.0000002235174,40.,15.0000002235174));
#529=CARTESIAN_POINT('',(-13.0000001490116,40.,15.0000002235174));
#530=CARTESIAN_POINT('Origin',(-25.,0.,25.));
#531=CARTESIAN_POINT('',(-25.,0.,25.));
#532=CARTESIAN_POINT('',(25.,0.,25.));
#533=CARTESIAN_POINT('Origin',(-25.,0.,-25.));
#534=CARTESIAN_POINT('',(-25.,0.,-25.));
#535=CARTESIAN_POINT('Origin',(25.,0.,-25.));
#536=CARTESIAN_POINT('',(25.,0.,-25.));
#537=CARTESIAN_POINT('Origin',(25.,0.,25.));
#538=UNCERTAINTY_MEASURE_WITH_UNIT(LENGTH_MEASURE(0.01),#542,
'DISTANCE_ACCURACY_VALUE',
'Maximum model space distance between geometric entities at asserted c
onnectivities');
#539=UNCERTAINTY_MEASURE_WITH_UNIT(LENGTH_MEASURE(0.01),#542,
'DISTANCE_ACCURACY_VALUE',
'Maximum model space distance between geometric entities at asserted c
onnectivities');
#540=(
GEOMETRIC_REPRESENTATION_CONTEXT(3)
GLOBAL_UNCERTAINTY_ASSIGNED_CONTEXT((#538))
GLOBAL_UNIT_ASSIGNED_CONTEXT((#542,#544,#545))
REPRESENTATION_CONTEXT('','3D')
);
#541=(
GEOMETRIC_REPRESENTATION_CONTEXT(3)
GLOBAL_UNCERTAINTY_ASSIGNED_CONTEXT((#539))
GLOBAL_UNIT_ASSIGNED_CONTEXT((#542,#544,#545))
REPRESENTATION_CONTEXT('','3D')
);
#542=(
LENGTH_UNIT()
NAMED_UNIT(*)
SI_UNIT(.MILLI.,.METRE.)
);
#543=(
LENGTH_UNIT()
NAMED_UNIT(*)
SI_UNIT($,.METRE.)
);
#544=(
NAMED_UNIT(*)
PLANE_ANGLE_UNIT()
SI_UNIT($,.RADIAN.)
);
#545=(
NAMED_UNIT(*)
SI_UNIT($,.STERADIAN.)
SOLID_ANGLE_UNIT()
);
#546=SHAPE_DEFINITION_REPRESENTATION(#547,#548);
#547=PRODUCT_DEFINITION_SHAPE('',$,#550);
#548=SHAPE_REPRESENTATION('',(#334),#540);
#549=PRODUCT_DEFINITION_CONTEXT('part definition',#554,'design');
#550=PRODUCT_DEFINITION('(Unsaved)','(Unsaved)',#551,#549);
#551=PRODUCT_DEFINITION_FORMATION('',$,#556);
#552=PRODUCT_RELATED_PRODUCT_CATEGORY('(Unsaved)','(Unsaved)',(#556));
#553=APPLICATION_PROTOCOL_DEFINITION('international standard',
'automotive_design',2009,#554);
#554=APPLICATION_CONTEXT(
'Core Data for Automotive Mechanical Design Process');
#555=PRODUCT_CONTEXT('part definition',#554,'mechanical');
#556=PRODUCT('(Unsaved)','(Unsaved)',$,(#555));
#557=PRESENTATION_STYLE_ASSIGNMENT((#558));
#558=SURFACE_STYLE_USAGE(.BOTH.,#559);
#559=SURFACE_SIDE_STYLE('',(#560));
#560=SURFACE_STYLE_FILL_AREA(#561);
#561=FILL_AREA_STYLE('Steel - Satin',(#562));
#562=FILL_AREA_STYLE_COLOUR('Steel - Satin',#563);
#563=COLOUR_RGB('Steel - Satin',0.627450980392157,0.627450980392157,0.627450980392157);
ENDSEC;
END-ISO-10303-21;
