ISO-10303-21;
HEADER;
/* Generated by software containing ST-Developer
 * from STEP Tools, Inc. (www.steptools.com) 
 */

FILE_DESCRIPTION(
/* description */ (''),
/* implementation_level */ '2;1');

FILE_NAME(
/* name */ 'ex-milling_09.step',
/* time_stamp */ '2024-11-21T21:34:07+03:00',
/* author */ (''),
/* organization */ (''),
/* preprocessor_version */ 'ST-DEVELOPER v20',
/* originating_system */ 'Autodesk Translation Framework v13.14.0.145',

/* authorisation */ '');

FILE_SCHEMA (('AUTOMOTIVE_DESIGN { 1 0 10303 214 3 1 1 }'));
ENDSEC;

DATA;
#10=MECHANICAL_DESIGN_GEOMETRIC_PRESENTATION_REPRESENTATION('',(#13),#742);
#11=SHAPE_REPRESENTATION_RELATIONSHIP('SRR','None',#749,#12);
#12=ADVANCED_BREP_SHAPE_REPRESENTATION('',(#14),#741);
#13=STYLED_ITEM('',(#758),#14);
#14=MANIFOLD_SOLID_BREP('Body1',#422);
#15=FACE_BOUND('',#60,.T.);
#16=FACE_BOUND('',#61,.T.);
#17=FACE_BOUND('',#62,.T.);
#18=FACE_BOUND('',#63,.T.);
#19=FACE_BOUND('',#64,.T.);
#20=FACE_BOUND('',#72,.T.);
#21=FACE_BOUND('',#80,.T.);
#22=FACE_BOUND('',#81,.T.);
#23=FACE_BOUND('',#82,.T.);
#24=FACE_BOUND('',#83,.T.);
#25=PLANE('',#442);
#26=PLANE('',#458);
#27=PLANE('',#462);
#28=PLANE('',#465);
#29=PLANE('',#476);
#30=PLANE('',#477);
#31=PLANE('',#482);
#32=PLANE('',#484);
#33=PLANE('',#486);
#34=FACE_OUTER_BOUND('',#57,.T.);
#35=FACE_OUTER_BOUND('',#58,.T.);
#36=FACE_OUTER_BOUND('',#59,.T.);
#37=FACE_OUTER_BOUND('',#65,.T.);
#38=FACE_OUTER_BOUND('',#66,.T.);
#39=FACE_OUTER_BOUND('',#67,.T.);
#40=FACE_OUTER_BOUND('',#68,.T.);
#41=FACE_OUTER_BOUND('',#69,.T.);
#42=FACE_OUTER_BOUND('',#70,.T.);
#43=FACE_OUTER_BOUND('',#71,.T.);
#44=FACE_OUTER_BOUND('',#73,.T.);
#45=FACE_OUTER_BOUND('',#74,.T.);
#46=FACE_OUTER_BOUND('',#75,.T.);
#47=FACE_OUTER_BOUND('',#76,.T.);
#48=FACE_OUTER_BOUND('',#77,.T.);
#49=FACE_OUTER_BOUND('',#78,.T.);
#50=FACE_OUTER_BOUND('',#79,.T.);
#51=FACE_OUTER_BOUND('',#84,.T.);
#52=FACE_OUTER_BOUND('',#85,.T.);
#53=FACE_OUTER_BOUND('',#86,.T.);
#54=FACE_OUTER_BOUND('',#87,.T.);
#55=FACE_OUTER_BOUND('',#88,.T.);
#56=FACE_OUTER_BOUND('',#89,.T.);
#57=EDGE_LOOP('',(#271,#272,#273,#274));
#58=EDGE_LOOP('',(#275,#276,#277,#278));
#59=EDGE_LOOP('',(#279,#280,#281,#282,#283,#284,#285,#286,#287,#288,#289,
#290,#291));
#60=EDGE_LOOP('',(#292));
#61=EDGE_LOOP('',(#293));
#62=EDGE_LOOP('',(#294));
#63=EDGE_LOOP('',(#295));
#64=EDGE_LOOP('',(#296));
#65=EDGE_LOOP('',(#297,#298,#299,#300));
#66=EDGE_LOOP('',(#301,#302,#303,#304));
#67=EDGE_LOOP('',(#305,#306,#307,#308));
#68=EDGE_LOOP('',(#309,#310,#311,#312));
#69=EDGE_LOOP('',(#313));
#70=EDGE_LOOP('',(#314,#315,#316,#317));
#71=EDGE_LOOP('',(#318));
#72=EDGE_LOOP('',(#319));
#73=EDGE_LOOP('',(#320,#321,#322,#323));
#74=EDGE_LOOP('',(#324,#325,#326,#327));
#75=EDGE_LOOP('',(#328,#329,#330,#331));
#76=EDGE_LOOP('',(#332,#333,#334,#335));
#77=EDGE_LOOP('',(#336,#337,#338,#339));
#78=EDGE_LOOP('',(#340,#341,#342,#343));
#79=EDGE_LOOP('',(#344,#345,#346,#347,#348,#349,#350,#351,#352,#353,#354,
#355,#356));
#80=EDGE_LOOP('',(#357));
#81=EDGE_LOOP('',(#358));
#82=EDGE_LOOP('',(#359));
#83=EDGE_LOOP('',(#360));
#84=EDGE_LOOP('',(#361,#362,#363,#364));
#85=EDGE_LOOP('',(#365,#366,#367,#368));
#86=EDGE_LOOP('',(#369,#370,#371,#372));
#87=EDGE_LOOP('',(#373,#374,#375,#376));
#88=EDGE_LOOP('',(#377,#378,#379,#380));
#89=EDGE_LOOP('',(#381,#382,#383,#384));
#90=LINE('',#626,#119);
#91=LINE('',#629,#120);
#92=LINE('',#634,#121);
#93=LINE('',#638,#122);
#94=LINE('',#642,#123);
#95=LINE('',#646,#124);
#96=LINE('',#650,#125);
#97=LINE('',#654,#126);
#98=LINE('',#672,#127);
#99=LINE('',#673,#128);
#100=LINE('',#678,#129);
#101=LINE('',#679,#130);
#102=LINE('',#684,#131);
#103=LINE('',#690,#132);
#104=LINE('',#694,#133);
#105=LINE('',#698,#134);
#106=LINE('',#702,#135);
#107=LINE('',#706,#136);
#108=LINE('',#710,#137);
#109=LINE('',#713,#138);
#110=LINE('',#716,#139);
#111=LINE('',#717,#140);
#112=LINE('',#720,#141);
#113=LINE('',#723,#142);
#114=LINE('',#727,#143);
#115=LINE('',#730,#144);
#116=LINE('',#733,#145);
#117=LINE('',#734,#146);
#118=LINE('',#737,#147);
#119=VECTOR('',#493,10.);
#120=VECTOR('',#496,10.);
#121=VECTOR('',#501,10.);
#122=VECTOR('',#506,10.);
#123=VECTOR('',#509,10.);
#124=VECTOR('',#512,10.);
#125=VECTOR('',#515,10.);
#126=VECTOR('',#518,10.);
#127=VECTOR('',#537,10.);
#128=VECTOR('',#538,10.);
#129=VECTOR('',#545,10.);
#130=VECTOR('',#546,10.);
#131=VECTOR('',#551,5.);
#132=VECTOR('',#560,10.);
#133=VECTOR('',#565,5.);
#134=VECTOR('',#570,5.);
#135=VECTOR('',#575,5.);
#136=VECTOR('',#580,5.);
#137=VECTOR('',#585,10.);
#138=VECTOR('',#588,10.);
#139=VECTOR('',#591,10.);
#140=VECTOR('',#592,10.);
#141=VECTOR('',#595,10.);
#142=VECTOR('',#598,10.);
#143=VECTOR('',#601,10.);
#144=VECTOR('',#606,10.);
#145=VECTOR('',#611,10.);
#146=VECTOR('',#612,10.);
#147=VECTOR('',#617,10.);
#148=CIRCLE('',#437,10.);
#149=CIRCLE('',#438,10.);
#150=CIRCLE('',#440,35.5148200070326);
#151=CIRCLE('',#441,35.5148200070326);
#152=CIRCLE('',#443,20.);
#153=CIRCLE('',#444,20.);
#154=CIRCLE('',#445,20.);
#155=CIRCLE('',#446,20.);
#156=CIRCLE('',#447,10.);
#157=CIRCLE('',#448,7.59974059929697);
#158=CIRCLE('',#449,5.);
#159=CIRCLE('',#450,5.);
#160=CIRCLE('',#451,5.);
#161=CIRCLE('',#452,5.);
#162=CIRCLE('',#453,10.);
#163=CIRCLE('',#455,10.);
#164=CIRCLE('',#457,7.59974059929697);
#165=CIRCLE('',#460,5.);
#166=CIRCLE('',#461,5.);
#167=CIRCLE('',#464,10.);
#168=CIRCLE('',#467,5.);
#169=CIRCLE('',#469,5.);
#170=CIRCLE('',#471,5.);
#171=CIRCLE('',#473,5.);
#172=CIRCLE('',#475,20.);
#173=CIRCLE('',#478,20.);
#174=CIRCLE('',#479,20.);
#175=CIRCLE('',#480,20.);
#176=VERTEX_POINT('',#622);
#177=VERTEX_POINT('',#623);
#178=VERTEX_POINT('',#625);
#179=VERTEX_POINT('',#627);
#180=VERTEX_POINT('',#631);
#181=VERTEX_POINT('',#633);
#182=VERTEX_POINT('',#637);
#183=VERTEX_POINT('',#639);
#184=VERTEX_POINT('',#641);
#185=VERTEX_POINT('',#643);
#186=VERTEX_POINT('',#645);
#187=VERTEX_POINT('',#647);
#188=VERTEX_POINT('',#649);
#189=VERTEX_POINT('',#651);
#190=VERTEX_POINT('',#653);
#191=VERTEX_POINT('',#655);
#192=VERTEX_POINT('',#658);
#193=VERTEX_POINT('',#660);
#194=VERTEX_POINT('',#662);
#195=VERTEX_POINT('',#664);
#196=VERTEX_POINT('',#666);
#197=VERTEX_POINT('',#669);
#198=VERTEX_POINT('',#670);
#199=VERTEX_POINT('',#677);
#200=VERTEX_POINT('',#681);
#201=VERTEX_POINT('',#683);
#202=VERTEX_POINT('',#688);
#203=VERTEX_POINT('',#693);
#204=VERTEX_POINT('',#697);
#205=VERTEX_POINT('',#701);
#206=VERTEX_POINT('',#705);
#207=VERTEX_POINT('',#709);
#208=VERTEX_POINT('',#711);
#209=VERTEX_POINT('',#715);
#210=VERTEX_POINT('',#719);
#211=VERTEX_POINT('',#722);
#212=VERTEX_POINT('',#724);
#213=VERTEX_POINT('',#726);
#214=EDGE_CURVE('',#176,#177,#148,.T.);
#215=EDGE_CURVE('',#177,#178,#90,.T.);
#216=EDGE_CURVE('',#178,#179,#149,.T.);
#217=EDGE_CURVE('',#179,#176,#91,.T.);
#218=EDGE_CURVE('',#180,#179,#150,.T.);
#219=EDGE_CURVE('',#180,#181,#92,.T.);
#220=EDGE_CURVE('',#176,#181,#151,.T.);
#221=EDGE_CURVE('',#178,#182,#93,.T.);
#222=EDGE_CURVE('',#183,#182,#152,.T.);
#223=EDGE_CURVE('',#183,#184,#94,.T.);
#224=EDGE_CURVE('',#185,#184,#153,.T.);
#225=EDGE_CURVE('',#185,#186,#95,.T.);
#226=EDGE_CURVE('',#187,#186,#154,.T.);
#227=EDGE_CURVE('',#187,#188,#96,.T.);
#228=EDGE_CURVE('',#189,#188,#155,.T.);
#229=EDGE_CURVE('',#189,#190,#97,.T.);
#230=EDGE_CURVE('',#191,#190,#156,.T.);
#231=EDGE_CURVE('',#191,#180,#157,.T.);
#232=EDGE_CURVE('',#192,#192,#158,.T.);
#233=EDGE_CURVE('',#193,#193,#159,.T.);
#234=EDGE_CURVE('',#194,#194,#160,.T.);
#235=EDGE_CURVE('',#195,#195,#161,.T.);
#236=EDGE_CURVE('',#196,#196,#162,.T.);
#237=EDGE_CURVE('',#197,#198,#163,.T.);
#238=EDGE_CURVE('',#198,#191,#98,.T.);
#239=EDGE_CURVE('',#190,#197,#99,.T.);
#240=EDGE_CURVE('',#181,#198,#164,.T.);
#241=EDGE_CURVE('',#199,#177,#100,.T.);
#242=EDGE_CURVE('',#182,#199,#101,.T.);
#243=EDGE_CURVE('',#200,#200,#165,.T.);
#244=EDGE_CURVE('',#200,#201,#102,.T.);
#245=EDGE_CURVE('',#201,#201,#166,.T.);
#246=EDGE_CURVE('',#202,#202,#167,.T.);
#247=EDGE_CURVE('',#202,#196,#103,.T.);
#248=EDGE_CURVE('',#195,#203,#104,.T.);
#249=EDGE_CURVE('',#203,#203,#168,.T.);
#250=EDGE_CURVE('',#194,#204,#105,.T.);
#251=EDGE_CURVE('',#204,#204,#169,.T.);
#252=EDGE_CURVE('',#193,#205,#106,.T.);
#253=EDGE_CURVE('',#205,#205,#170,.T.);
#254=EDGE_CURVE('',#192,#206,#107,.T.);
#255=EDGE_CURVE('',#206,#206,#171,.T.);
#256=EDGE_CURVE('',#186,#207,#108,.T.);
#257=EDGE_CURVE('',#207,#208,#172,.T.);
#258=EDGE_CURVE('',#208,#187,#109,.T.);
#259=EDGE_CURVE('',#209,#208,#110,.T.);
#260=EDGE_CURVE('',#188,#209,#111,.T.);
#261=EDGE_CURVE('',#197,#210,#112,.T.);
#262=EDGE_CURVE('',#209,#210,#173,.T.);
#263=EDGE_CURVE('',#207,#211,#113,.T.);
#264=EDGE_CURVE('',#212,#211,#174,.T.);
#265=EDGE_CURVE('',#212,#213,#114,.T.);
#266=EDGE_CURVE('',#199,#213,#175,.T.);
#267=EDGE_CURVE('',#210,#189,#115,.T.);
#268=EDGE_CURVE('',#184,#212,#116,.T.);
#269=EDGE_CURVE('',#211,#185,#117,.T.);
#270=EDGE_CURVE('',#213,#183,#118,.T.);
#271=ORIENTED_EDGE('',*,*,#214,.T.);
#272=ORIENTED_EDGE('',*,*,#215,.T.);
#273=ORIENTED_EDGE('',*,*,#216,.T.);
#274=ORIENTED_EDGE('',*,*,#217,.T.);
#275=ORIENTED_EDGE('',*,*,#217,.F.);
#276=ORIENTED_EDGE('',*,*,#218,.F.);
#277=ORIENTED_EDGE('',*,*,#219,.T.);
#278=ORIENTED_EDGE('',*,*,#220,.F.);
#279=ORIENTED_EDGE('',*,*,#216,.F.);
#280=ORIENTED_EDGE('',*,*,#221,.T.);
#281=ORIENTED_EDGE('',*,*,#222,.F.);
#282=ORIENTED_EDGE('',*,*,#223,.T.);
#283=ORIENTED_EDGE('',*,*,#224,.F.);
#284=ORIENTED_EDGE('',*,*,#225,.T.);
#285=ORIENTED_EDGE('',*,*,#226,.F.);
#286=ORIENTED_EDGE('',*,*,#227,.T.);
#287=ORIENTED_EDGE('',*,*,#228,.F.);
#288=ORIENTED_EDGE('',*,*,#229,.T.);
#289=ORIENTED_EDGE('',*,*,#230,.F.);
#290=ORIENTED_EDGE('',*,*,#231,.T.);
#291=ORIENTED_EDGE('',*,*,#218,.T.);
#292=ORIENTED_EDGE('',*,*,#232,.T.);
#293=ORIENTED_EDGE('',*,*,#233,.T.);
#294=ORIENTED_EDGE('',*,*,#234,.T.);
#295=ORIENTED_EDGE('',*,*,#235,.T.);
#296=ORIENTED_EDGE('',*,*,#236,.T.);
#297=ORIENTED_EDGE('',*,*,#237,.T.);
#298=ORIENTED_EDGE('',*,*,#238,.T.);
#299=ORIENTED_EDGE('',*,*,#230,.T.);
#300=ORIENTED_EDGE('',*,*,#239,.T.);
#301=ORIENTED_EDGE('',*,*,#238,.F.);
#302=ORIENTED_EDGE('',*,*,#240,.F.);
#303=ORIENTED_EDGE('',*,*,#219,.F.);
#304=ORIENTED_EDGE('',*,*,#231,.F.);
#305=ORIENTED_EDGE('',*,*,#215,.F.);
#306=ORIENTED_EDGE('',*,*,#241,.F.);
#307=ORIENTED_EDGE('',*,*,#242,.F.);
#308=ORIENTED_EDGE('',*,*,#221,.F.);
#309=ORIENTED_EDGE('',*,*,#243,.F.);
#310=ORIENTED_EDGE('',*,*,#244,.T.);
#311=ORIENTED_EDGE('',*,*,#245,.F.);
#312=ORIENTED_EDGE('',*,*,#244,.F.);
#313=ORIENTED_EDGE('',*,*,#243,.T.);
#314=ORIENTED_EDGE('',*,*,#246,.F.);
#315=ORIENTED_EDGE('',*,*,#247,.T.);
#316=ORIENTED_EDGE('',*,*,#236,.F.);
#317=ORIENTED_EDGE('',*,*,#247,.F.);
#318=ORIENTED_EDGE('',*,*,#246,.T.);
#319=ORIENTED_EDGE('',*,*,#245,.T.);
#320=ORIENTED_EDGE('',*,*,#235,.F.);
#321=ORIENTED_EDGE('',*,*,#248,.T.);
#322=ORIENTED_EDGE('',*,*,#249,.F.);
#323=ORIENTED_EDGE('',*,*,#248,.F.);
#324=ORIENTED_EDGE('',*,*,#234,.F.);
#325=ORIENTED_EDGE('',*,*,#250,.T.);
#326=ORIENTED_EDGE('',*,*,#251,.F.);
#327=ORIENTED_EDGE('',*,*,#250,.F.);
#328=ORIENTED_EDGE('',*,*,#233,.F.);
#329=ORIENTED_EDGE('',*,*,#252,.T.);
#330=ORIENTED_EDGE('',*,*,#253,.F.);
#331=ORIENTED_EDGE('',*,*,#252,.F.);
#332=ORIENTED_EDGE('',*,*,#232,.F.);
#333=ORIENTED_EDGE('',*,*,#254,.T.);
#334=ORIENTED_EDGE('',*,*,#255,.F.);
#335=ORIENTED_EDGE('',*,*,#254,.F.);
#336=ORIENTED_EDGE('',*,*,#226,.T.);
#337=ORIENTED_EDGE('',*,*,#256,.T.);
#338=ORIENTED_EDGE('',*,*,#257,.T.);
#339=ORIENTED_EDGE('',*,*,#258,.T.);
#340=ORIENTED_EDGE('',*,*,#258,.F.);
#341=ORIENTED_EDGE('',*,*,#259,.F.);
#342=ORIENTED_EDGE('',*,*,#260,.F.);
#343=ORIENTED_EDGE('',*,*,#227,.F.);
#344=ORIENTED_EDGE('',*,*,#214,.F.);
#345=ORIENTED_EDGE('',*,*,#220,.T.);
#346=ORIENTED_EDGE('',*,*,#240,.T.);
#347=ORIENTED_EDGE('',*,*,#237,.F.);
#348=ORIENTED_EDGE('',*,*,#261,.T.);
#349=ORIENTED_EDGE('',*,*,#262,.F.);
#350=ORIENTED_EDGE('',*,*,#259,.T.);
#351=ORIENTED_EDGE('',*,*,#257,.F.);
#352=ORIENTED_EDGE('',*,*,#263,.T.);
#353=ORIENTED_EDGE('',*,*,#264,.F.);
#354=ORIENTED_EDGE('',*,*,#265,.T.);
#355=ORIENTED_EDGE('',*,*,#266,.F.);
#356=ORIENTED_EDGE('',*,*,#241,.T.);
#357=ORIENTED_EDGE('',*,*,#249,.T.);
#358=ORIENTED_EDGE('',*,*,#251,.T.);
#359=ORIENTED_EDGE('',*,*,#253,.T.);
#360=ORIENTED_EDGE('',*,*,#255,.T.);
#361=ORIENTED_EDGE('',*,*,#228,.T.);
#362=ORIENTED_EDGE('',*,*,#260,.T.);
#363=ORIENTED_EDGE('',*,*,#262,.T.);
#364=ORIENTED_EDGE('',*,*,#267,.T.);
#365=ORIENTED_EDGE('',*,*,#239,.F.);
#366=ORIENTED_EDGE('',*,*,#229,.F.);
#367=ORIENTED_EDGE('',*,*,#267,.F.);
#368=ORIENTED_EDGE('',*,*,#261,.F.);
#369=ORIENTED_EDGE('',*,*,#224,.T.);
#370=ORIENTED_EDGE('',*,*,#268,.T.);
#371=ORIENTED_EDGE('',*,*,#264,.T.);
#372=ORIENTED_EDGE('',*,*,#269,.T.);
#373=ORIENTED_EDGE('',*,*,#256,.F.);
#374=ORIENTED_EDGE('',*,*,#225,.F.);
#375=ORIENTED_EDGE('',*,*,#269,.F.);
#376=ORIENTED_EDGE('',*,*,#263,.F.);
#377=ORIENTED_EDGE('',*,*,#222,.T.);
#378=ORIENTED_EDGE('',*,*,#242,.T.);
#379=ORIENTED_EDGE('',*,*,#266,.T.);
#380=ORIENTED_EDGE('',*,*,#270,.T.);
#381=ORIENTED_EDGE('',*,*,#268,.F.);
#382=ORIENTED_EDGE('',*,*,#223,.F.);
#383=ORIENTED_EDGE('',*,*,#270,.F.);
#384=ORIENTED_EDGE('',*,*,#265,.F.);
#385=CYLINDRICAL_SURFACE('',#436,10.);
#386=CYLINDRICAL_SURFACE('',#439,35.5148200070326);
#387=CYLINDRICAL_SURFACE('',#454,10.);
#388=CYLINDRICAL_SURFACE('',#456,7.59974059929697);
#389=CYLINDRICAL_SURFACE('',#459,5.);
#390=CYLINDRICAL_SURFACE('',#463,10.);
#391=CYLINDRICAL_SURFACE('',#466,5.);
#392=CYLINDRICAL_SURFACE('',#468,5.);
#393=CYLINDRICAL_SURFACE('',#470,5.);
#394=CYLINDRICAL_SURFACE('',#472,5.);
#395=CYLINDRICAL_SURFACE('',#474,20.);
#396=CYLINDRICAL_SURFACE('',#481,20.);
#397=CYLINDRICAL_SURFACE('',#483,20.);
#398=CYLINDRICAL_SURFACE('',#485,20.);
#399=ADVANCED_FACE('',(#34),#385,.T.);
#400=ADVANCED_FACE('',(#35),#386,.T.);
#401=ADVANCED_FACE('',(#36,#15,#16,#17,#18,#19),#25,.T.);
#402=ADVANCED_FACE('',(#37),#387,.T.);
#403=ADVANCED_FACE('',(#38),#388,.F.);
#404=ADVANCED_FACE('',(#39),#26,.T.);
#405=ADVANCED_FACE('',(#40),#389,.T.);
#406=ADVANCED_FACE('',(#41),#27,.T.);
#407=ADVANCED_FACE('',(#42),#390,.T.);
#408=ADVANCED_FACE('',(#43,#20),#28,.T.);
#409=ADVANCED_FACE('',(#44),#391,.F.);
#410=ADVANCED_FACE('',(#45),#392,.F.);
#411=ADVANCED_FACE('',(#46),#393,.F.);
#412=ADVANCED_FACE('',(#47),#394,.F.);
#413=ADVANCED_FACE('',(#48),#395,.T.);
#414=ADVANCED_FACE('',(#49),#29,.T.);
#415=ADVANCED_FACE('',(#50,#21,#22,#23,#24),#30,.F.);
#416=ADVANCED_FACE('',(#51),#396,.T.);
#417=ADVANCED_FACE('',(#52),#31,.T.);
#418=ADVANCED_FACE('',(#53),#397,.T.);
#419=ADVANCED_FACE('',(#54),#32,.T.);
#420=ADVANCED_FACE('',(#55),#398,.T.);
#421=ADVANCED_FACE('',(#56),#33,.T.);
#422=CLOSED_SHELL('',(#399,#400,#401,#402,#403,#404,#405,#406,#407,#408,
#409,#410,#411,#412,#413,#414,#415,#416,#417,#418,#419,#420,#421));
#423=DERIVED_UNIT_ELEMENT(#425,1.);
#424=DERIVED_UNIT_ELEMENT(#744,-3.);
#425=(
MASS_UNIT()
NAMED_UNIT(*)
SI_UNIT(.KILO.,.GRAM.)
);
#426=DERIVED_UNIT((#423,#424));
#427=MEASURE_REPRESENTATION_ITEM('density measure',
POSITIVE_RATIO_MEASURE(7850.),#426);
#428=PROPERTY_DEFINITION_REPRESENTATION(#433,#430);
#429=PROPERTY_DEFINITION_REPRESENTATION(#434,#431);
#430=REPRESENTATION('material name',(#432),#741);
#431=REPRESENTATION('density',(#427),#741);
#432=DESCRIPTIVE_REPRESENTATION_ITEM('Steel','Steel');
#433=PROPERTY_DEFINITION('material property','material name',#751);
#434=PROPERTY_DEFINITION('material property','density of part',#751);
#435=AXIS2_PLACEMENT_3D('',#620,#487,#488);
#436=AXIS2_PLACEMENT_3D('',#621,#489,#490);
#437=AXIS2_PLACEMENT_3D('',#624,#491,#492);
#438=AXIS2_PLACEMENT_3D('',#628,#494,#495);
#439=AXIS2_PLACEMENT_3D('',#630,#497,#498);
#440=AXIS2_PLACEMENT_3D('',#632,#499,#500);
#441=AXIS2_PLACEMENT_3D('',#635,#502,#503);
#442=AXIS2_PLACEMENT_3D('',#636,#504,#505);
#443=AXIS2_PLACEMENT_3D('',#640,#507,#508);
#444=AXIS2_PLACEMENT_3D('',#644,#510,#511);
#445=AXIS2_PLACEMENT_3D('',#648,#513,#514);
#446=AXIS2_PLACEMENT_3D('',#652,#516,#517);
#447=AXIS2_PLACEMENT_3D('',#656,#519,#520);
#448=AXIS2_PLACEMENT_3D('',#657,#521,#522);
#449=AXIS2_PLACEMENT_3D('',#659,#523,#524);
#450=AXIS2_PLACEMENT_3D('',#661,#525,#526);
#451=AXIS2_PLACEMENT_3D('',#663,#527,#528);
#452=AXIS2_PLACEMENT_3D('',#665,#529,#530);
#453=AXIS2_PLACEMENT_3D('',#667,#531,#532);
#454=AXIS2_PLACEMENT_3D('',#668,#533,#534);
#455=AXIS2_PLACEMENT_3D('',#671,#535,#536);
#456=AXIS2_PLACEMENT_3D('',#674,#539,#540);
#457=AXIS2_PLACEMENT_3D('',#675,#541,#542);
#458=AXIS2_PLACEMENT_3D('',#676,#543,#544);
#459=AXIS2_PLACEMENT_3D('',#680,#547,#548);
#460=AXIS2_PLACEMENT_3D('',#682,#549,#550);
#461=AXIS2_PLACEMENT_3D('',#685,#552,#553);
#462=AXIS2_PLACEMENT_3D('',#686,#554,#555);
#463=AXIS2_PLACEMENT_3D('',#687,#556,#557);
#464=AXIS2_PLACEMENT_3D('',#689,#558,#559);
#465=AXIS2_PLACEMENT_3D('',#691,#561,#562);
#466=AXIS2_PLACEMENT_3D('',#692,#563,#564);
#467=AXIS2_PLACEMENT_3D('',#695,#566,#567);
#468=AXIS2_PLACEMENT_3D('',#696,#568,#569);
#469=AXIS2_PLACEMENT_3D('',#699,#571,#572);
#470=AXIS2_PLACEMENT_3D('',#700,#573,#574);
#471=AXIS2_PLACEMENT_3D('',#703,#576,#577);
#472=AXIS2_PLACEMENT_3D('',#704,#578,#579);
#473=AXIS2_PLACEMENT_3D('',#707,#581,#582);
#474=AXIS2_PLACEMENT_3D('',#708,#583,#584);
#475=AXIS2_PLACEMENT_3D('',#712,#586,#587);
#476=AXIS2_PLACEMENT_3D('',#714,#589,#590);
#477=AXIS2_PLACEMENT_3D('',#718,#593,#594);
#478=AXIS2_PLACEMENT_3D('',#721,#596,#597);
#479=AXIS2_PLACEMENT_3D('',#725,#599,#600);
#480=AXIS2_PLACEMENT_3D('',#728,#602,#603);
#481=AXIS2_PLACEMENT_3D('',#729,#604,#605);
#482=AXIS2_PLACEMENT_3D('',#731,#607,#608);
#483=AXIS2_PLACEMENT_3D('',#732,#609,#610);
#484=AXIS2_PLACEMENT_3D('',#735,#613,#614);
#485=AXIS2_PLACEMENT_3D('',#736,#615,#616);
#486=AXIS2_PLACEMENT_3D('',#738,#618,#619);
#487=DIRECTION('axis',(0.,0.,1.));
#488=DIRECTION('refdir',(1.,0.,0.));
#489=DIRECTION('center_axis',(0.,-1.,0.));
#490=DIRECTION('ref_axis',(-0.316906259328122,0.,0.948456863963067));
#491=DIRECTION('center_axis',(0.,1.,0.));
#492=DIRECTION('ref_axis',(-0.316906259328122,0.,0.948456863963067));
#493=DIRECTION('',(0.,1.,0.));
#494=DIRECTION('center_axis',(0.,-1.,0.));
#495=DIRECTION('ref_axis',(-0.316906259328122,0.,0.948456863963067));
#496=DIRECTION('',(0.,-1.,0.));
#497=DIRECTION('center_axis',(0.,-1.,0.));
#498=DIRECTION('ref_axis',(-0.723088048188027,0.,0.690755871902389));
#499=DIRECTION('center_axis',(0.,1.,0.));
#500=DIRECTION('ref_axis',(-0.723088048188027,0.,0.690755871902389));
#501=DIRECTION('',(0.,-1.,0.));
#502=DIRECTION('center_axis',(0.,-1.,0.));
#503=DIRECTION('ref_axis',(-0.723088048188027,0.,0.690755871902389));
#504=DIRECTION('center_axis',(0.,1.,0.));
#505=DIRECTION('ref_axis',(0.,0.,1.));
#506=DIRECTION('',(1.,0.,0.));
#507=DIRECTION('center_axis',(0.,-1.,0.));
#508=DIRECTION('ref_axis',(0.707106781186547,0.,0.707106781186547));
#509=DIRECTION('',(0.,0.,-1.));
#510=DIRECTION('center_axis',(0.,-1.,0.));
#511=DIRECTION('ref_axis',(0.707106781186547,0.,-0.707106781186547));
#512=DIRECTION('',(-1.,0.,0.));
#513=DIRECTION('center_axis',(0.,-1.,0.));
#514=DIRECTION('ref_axis',(-0.707106781186547,0.,-0.707106781186547));
#515=DIRECTION('',(0.,0.,1.));
#516=DIRECTION('center_axis',(0.,-1.,0.));
#517=DIRECTION('ref_axis',(-0.707106781186547,0.,0.707106781186547));
#518=DIRECTION('',(1.,0.,0.));
#519=DIRECTION('center_axis',(0.,-1.,0.));
#520=DIRECTION('ref_axis',(0.,0.,-1.));
#521=DIRECTION('center_axis',(0.,-1.,0.));
#522=DIRECTION('ref_axis',(0.723088048188027,0.,-0.690755871902389));
#523=DIRECTION('center_axis',(0.,-1.,0.));
#524=DIRECTION('ref_axis',(-1.,0.,0.));
#525=DIRECTION('center_axis',(0.,-1.,0.));
#526=DIRECTION('ref_axis',(-1.,0.,0.));
#527=DIRECTION('center_axis',(0.,-1.,0.));
#528=DIRECTION('ref_axis',(-1.,0.,0.));
#529=DIRECTION('center_axis',(0.,-1.,0.));
#530=DIRECTION('ref_axis',(-1.,0.,0.));
#531=DIRECTION('center_axis',(0.,-1.,0.));
#532=DIRECTION('ref_axis',(-1.,0.,0.));
#533=DIRECTION('center_axis',(0.,1.,0.));
#534=DIRECTION('ref_axis',(0.,0.,-1.));
#535=DIRECTION('center_axis',(0.,1.,0.));
#536=DIRECTION('ref_axis',(0.,0.,-1.));
#537=DIRECTION('',(0.,1.,0.));
#538=DIRECTION('',(0.,-1.,0.));
#539=DIRECTION('center_axis',(0.,-1.,0.));
#540=DIRECTION('ref_axis',(0.723088048188027,0.,-0.690755871902389));
#541=DIRECTION('center_axis',(0.,1.,0.));
#542=DIRECTION('ref_axis',(0.723088048188027,0.,-0.690755871902389));
#543=DIRECTION('center_axis',(0.,0.,1.));
#544=DIRECTION('ref_axis',(1.,0.,0.));
#545=DIRECTION('',(-1.,0.,0.));
#546=DIRECTION('',(0.,-1.,0.));
#547=DIRECTION('center_axis',(0.,1.,0.));
#548=DIRECTION('ref_axis',(-1.,0.,0.));
#549=DIRECTION('center_axis',(0.,1.,0.));
#550=DIRECTION('ref_axis',(-1.,0.,0.));
#551=DIRECTION('',(0.,-1.,0.));
#552=DIRECTION('center_axis',(0.,-1.,0.));
#553=DIRECTION('ref_axis',(-1.,0.,0.));
#554=DIRECTION('center_axis',(0.,1.,0.));
#555=DIRECTION('ref_axis',(-1.,0.,0.));
#556=DIRECTION('center_axis',(0.,1.,0.));
#557=DIRECTION('ref_axis',(-1.,0.,0.));
#558=DIRECTION('center_axis',(0.,1.,0.));
#559=DIRECTION('ref_axis',(-1.,0.,0.));
#560=DIRECTION('',(0.,-1.,0.));
#561=DIRECTION('center_axis',(0.,1.,0.));
#562=DIRECTION('ref_axis',(-1.,0.,0.));
#563=DIRECTION('center_axis',(0.,-1.,0.));
#564=DIRECTION('ref_axis',(-1.,0.,0.));
#565=DIRECTION('',(0.,-1.,0.));
#566=DIRECTION('center_axis',(0.,1.,0.));
#567=DIRECTION('ref_axis',(-1.,0.,0.));
#568=DIRECTION('center_axis',(0.,-1.,0.));
#569=DIRECTION('ref_axis',(-1.,0.,0.));
#570=DIRECTION('',(0.,-1.,0.));
#571=DIRECTION('center_axis',(0.,1.,0.));
#572=DIRECTION('ref_axis',(-1.,0.,0.));
#573=DIRECTION('center_axis',(0.,-1.,0.));
#574=DIRECTION('ref_axis',(-1.,0.,0.));
#575=DIRECTION('',(0.,-1.,0.));
#576=DIRECTION('center_axis',(0.,1.,0.));
#577=DIRECTION('ref_axis',(-1.,0.,0.));
#578=DIRECTION('center_axis',(0.,-1.,0.));
#579=DIRECTION('ref_axis',(-1.,0.,0.));
#580=DIRECTION('',(0.,-1.,0.));
#581=DIRECTION('center_axis',(0.,1.,0.));
#582=DIRECTION('ref_axis',(-1.,0.,0.));
#583=DIRECTION('center_axis',(0.,1.,0.));
#584=DIRECTION('ref_axis',(-0.707106781186547,0.,-0.707106781186547));
#585=DIRECTION('',(0.,-1.,0.));
#586=DIRECTION('center_axis',(0.,1.,0.));
#587=DIRECTION('ref_axis',(-0.707106781186547,0.,-0.707106781186547));
#588=DIRECTION('',(0.,1.,0.));
#589=DIRECTION('center_axis',(-1.,0.,0.));
#590=DIRECTION('ref_axis',(0.,0.,1.));
#591=DIRECTION('',(0.,0.,-1.));
#592=DIRECTION('',(0.,-1.,0.));
#593=DIRECTION('center_axis',(0.,1.,0.));
#594=DIRECTION('ref_axis',(1.,0.,0.));
#595=DIRECTION('',(-1.,0.,0.));
#596=DIRECTION('center_axis',(0.,1.,0.));
#597=DIRECTION('ref_axis',(-0.707106781186547,0.,0.707106781186547));
#598=DIRECTION('',(1.,0.,0.));
#599=DIRECTION('center_axis',(0.,1.,0.));
#600=DIRECTION('ref_axis',(0.707106781186547,0.,-0.707106781186547));
#601=DIRECTION('',(0.,0.,1.));
#602=DIRECTION('center_axis',(0.,1.,0.));
#603=DIRECTION('ref_axis',(0.707106781186547,0.,0.707106781186547));
#604=DIRECTION('center_axis',(0.,1.,0.));
#605=DIRECTION('ref_axis',(-0.707106781186547,0.,0.707106781186547));
#606=DIRECTION('',(0.,1.,0.));
#607=DIRECTION('center_axis',(0.,0.,1.));
#608=DIRECTION('ref_axis',(1.,0.,0.));
#609=DIRECTION('center_axis',(0.,1.,0.));
#610=DIRECTION('ref_axis',(0.707106781186547,0.,-0.707106781186547));
#611=DIRECTION('',(0.,-1.,0.));
#612=DIRECTION('',(0.,1.,0.));
#613=DIRECTION('center_axis',(0.,0.,-1.));
#614=DIRECTION('ref_axis',(-1.,0.,0.));
#615=DIRECTION('center_axis',(0.,1.,0.));
#616=DIRECTION('ref_axis',(0.707106781186547,0.,0.707106781186547));
#617=DIRECTION('',(0.,1.,0.));
#618=DIRECTION('center_axis',(1.,0.,0.));
#619=DIRECTION('ref_axis',(0.,0.,-1.));
#620=CARTESIAN_POINT('',(0.,0.,0.));
#621=CARTESIAN_POINT('Origin',(10.3422651632665,25.,15.));
#622=CARTESIAN_POINT('',(4.33082682541412,0.,22.9914084559731));
#623=CARTESIAN_POINT('',(10.3422651632665,0.,25.));
#624=CARTESIAN_POINT('Origin',(10.3422651632665,0.,15.));
#625=CARTESIAN_POINT('',(10.3422651632665,25.,25.));
#626=CARTESIAN_POINT('',(10.3422651632665,25.,25.));
#627=CARTESIAN_POINT('',(4.33082682541412,25.,22.9914084559731));
#628=CARTESIAN_POINT('Origin',(10.3422651632665,25.,15.));
#629=CARTESIAN_POINT('',(4.33082682541412,25.,22.9914084559731));
#630=CARTESIAN_POINT('Origin',(25.6803418806343,25.,-5.38993483568326));
#631=CARTESIAN_POINT('',(0.,25.,19.142135623731));
#632=CARTESIAN_POINT('Origin',(25.6803418806343,25.,-5.38993483568326));
#633=CARTESIAN_POINT('',(0.,0.,19.142135623731));
#634=CARTESIAN_POINT('',(0.,25.,19.142135623731));
#635=CARTESIAN_POINT('Origin',(25.6803418806343,0.,-5.38993483568326));
#636=CARTESIAN_POINT('Origin',(0.,25.,0.));
#637=CARTESIAN_POINT('',(30.,25.,25.));
#638=CARTESIAN_POINT('',(50.,25.,25.));
#639=CARTESIAN_POINT('',(50.,25.,5.));
#640=CARTESIAN_POINT('Origin',(30.,25.,5.));
#641=CARTESIAN_POINT('',(50.,25.,-5.));
#642=CARTESIAN_POINT('',(50.,25.,-25.));
#643=CARTESIAN_POINT('',(30.,25.,-25.));
#644=CARTESIAN_POINT('Origin',(30.,25.,-5.));
#645=CARTESIAN_POINT('',(-30.,25.,-25.));
#646=CARTESIAN_POINT('',(-50.,25.,-25.));
#647=CARTESIAN_POINT('',(-50.,25.,-5.));
#648=CARTESIAN_POINT('Origin',(-30.,25.,-5.));
#649=CARTESIAN_POINT('',(-50.,25.,5.));
#650=CARTESIAN_POINT('',(-50.,25.,25.));
#651=CARTESIAN_POINT('',(-30.,25.,25.));
#652=CARTESIAN_POINT('Origin',(-30.,25.,5.));
#653=CARTESIAN_POINT('',(-20.3797305357184,25.,25.));
#654=CARTESIAN_POINT('',(50.,25.,25.));
#655=CARTESIAN_POINT('',(-11.9225326269992,25.,20.3362724380185));
#656=CARTESIAN_POINT('Origin',(-20.3797305357184,25.,15.));
#657=CARTESIAN_POINT('Origin',(-5.49528159668095,25.,24.3917010676303));
#658=CARTESIAN_POINT('',(-20.,25.,10.));
#659=CARTESIAN_POINT('Origin',(-25.,25.,10.));
#660=CARTESIAN_POINT('',(-20.,25.,-10.));
#661=CARTESIAN_POINT('Origin',(-25.,25.,-10.));
#662=CARTESIAN_POINT('',(30.,25.,10.));
#663=CARTESIAN_POINT('Origin',(25.,25.,10.));
#664=CARTESIAN_POINT('',(30.,25.,-10.));
#665=CARTESIAN_POINT('Origin',(25.,25.,-10.));
#666=CARTESIAN_POINT('',(10.,25.,-1.22464679914735E-15));
#667=CARTESIAN_POINT('Origin',(0.,25.,0.));
#668=CARTESIAN_POINT('Origin',(-20.3797305357184,25.,15.));
#669=CARTESIAN_POINT('',(-20.3797305357184,0.,25.));
#670=CARTESIAN_POINT('',(-11.9225326269992,0.,20.3362724380185));
#671=CARTESIAN_POINT('Origin',(-20.3797305357184,0.,15.));
#672=CARTESIAN_POINT('',(-11.9225326269992,25.,20.3362724380185));
#673=CARTESIAN_POINT('',(-20.3797305357184,25.,25.));
#674=CARTESIAN_POINT('Origin',(-5.49528159668095,25.,24.3917010676303));
#675=CARTESIAN_POINT('Origin',(-5.49528159668095,0.,24.3917010676303));
#676=CARTESIAN_POINT('Origin',(-50.,0.,25.));
#677=CARTESIAN_POINT('',(30.,0.,25.));
#678=CARTESIAN_POINT('',(50.,0.,25.));
#679=CARTESIAN_POINT('',(30.,0.,25.));
#680=CARTESIAN_POINT('Origin',(0.,75.,0.));
#681=CARTESIAN_POINT('',(5.,105.,-6.12323399573677E-16));
#682=CARTESIAN_POINT('Origin',(0.,105.,0.));
#683=CARTESIAN_POINT('',(5.,75.,-6.12323399573677E-16));
#684=CARTESIAN_POINT('',(5.,75.,-6.12323399573677E-16));
#685=CARTESIAN_POINT('Origin',(0.,75.,0.));
#686=CARTESIAN_POINT('Origin',(0.,105.,0.));
#687=CARTESIAN_POINT('Origin',(0.,25.,0.));
#688=CARTESIAN_POINT('',(10.,75.,-1.22464679914735E-15));
#689=CARTESIAN_POINT('Origin',(0.,75.,0.));
#690=CARTESIAN_POINT('',(10.,25.,-1.22464679914735E-15));
#691=CARTESIAN_POINT('Origin',(0.,75.,0.));
#692=CARTESIAN_POINT('Origin',(25.,25.,-10.));
#693=CARTESIAN_POINT('',(30.,0.,-10.));
#694=CARTESIAN_POINT('',(30.,25.,-10.));
#695=CARTESIAN_POINT('Origin',(25.,0.,-10.));
#696=CARTESIAN_POINT('Origin',(25.,25.,10.));
#697=CARTESIAN_POINT('',(30.,0.,10.));
#698=CARTESIAN_POINT('',(30.,25.,10.));
#699=CARTESIAN_POINT('Origin',(25.,0.,10.));
#700=CARTESIAN_POINT('Origin',(-25.,25.,-10.));
#701=CARTESIAN_POINT('',(-20.,0.,-10.));
#702=CARTESIAN_POINT('',(-20.,25.,-10.));
#703=CARTESIAN_POINT('Origin',(-25.,0.,-10.));
#704=CARTESIAN_POINT('Origin',(-25.,25.,10.));
#705=CARTESIAN_POINT('',(-20.,0.,10.));
#706=CARTESIAN_POINT('',(-20.,25.,10.));
#707=CARTESIAN_POINT('Origin',(-25.,0.,10.));
#708=CARTESIAN_POINT('Origin',(-30.,0.,-5.));
#709=CARTESIAN_POINT('',(-30.,0.,-25.));
#710=CARTESIAN_POINT('',(-30.,0.,-25.));
#711=CARTESIAN_POINT('',(-50.,0.,-5.));
#712=CARTESIAN_POINT('Origin',(-30.,0.,-5.));
#713=CARTESIAN_POINT('',(-50.,0.,-5.));
#714=CARTESIAN_POINT('Origin',(-50.,0.,-25.));
#715=CARTESIAN_POINT('',(-50.,0.,5.));
#716=CARTESIAN_POINT('',(-50.,0.,25.));
#717=CARTESIAN_POINT('',(-50.,0.,5.));
#718=CARTESIAN_POINT('Origin',(0.,0.,0.));
#719=CARTESIAN_POINT('',(-30.,0.,25.));
#720=CARTESIAN_POINT('',(50.,0.,25.));
#721=CARTESIAN_POINT('Origin',(-30.,0.,5.));
#722=CARTESIAN_POINT('',(30.,0.,-25.));
#723=CARTESIAN_POINT('',(-50.,0.,-25.));
#724=CARTESIAN_POINT('',(50.,0.,-5.));
#725=CARTESIAN_POINT('Origin',(30.,0.,-5.));
#726=CARTESIAN_POINT('',(50.,0.,5.));
#727=CARTESIAN_POINT('',(50.,0.,-25.));
#728=CARTESIAN_POINT('Origin',(30.,0.,5.));
#729=CARTESIAN_POINT('Origin',(-30.,0.,5.));
#730=CARTESIAN_POINT('',(-30.,0.,25.));
#731=CARTESIAN_POINT('Origin',(-50.,0.,25.));
#732=CARTESIAN_POINT('Origin',(30.,0.,-5.));
#733=CARTESIAN_POINT('',(50.,0.,-5.));
#734=CARTESIAN_POINT('',(30.,0.,-25.));
#735=CARTESIAN_POINT('Origin',(50.,0.,-25.));
#736=CARTESIAN_POINT('Origin',(30.,0.,5.));
#737=CARTESIAN_POINT('',(50.,0.,5.));
#738=CARTESIAN_POINT('Origin',(50.,0.,25.));
#739=UNCERTAINTY_MEASURE_WITH_UNIT(LENGTH_MEASURE(0.01),#743,
'DISTANCE_ACCURACY_VALUE',
'Maximum model space distance between geometric entities at asserted c
onnectivities');
#740=UNCERTAINTY_MEASURE_WITH_UNIT(LENGTH_MEASURE(0.01),#743,
'DISTANCE_ACCURACY_VALUE',
'Maximum model space distance between geometric entities at asserted c
onnectivities');
#741=(
GEOMETRIC_REPRESENTATION_CONTEXT(3)
GLOBAL_UNCERTAINTY_ASSIGNED_CONTEXT((#739))
GLOBAL_UNIT_ASSIGNED_CONTEXT((#743,#745,#746))
REPRESENTATION_CONTEXT('','3D')
);
#742=(
GEOMETRIC_REPRESENTATION_CONTEXT(3)
GLOBAL_UNCERTAINTY_ASSIGNED_CONTEXT((#740))
GLOBAL_UNIT_ASSIGNED_CONTEXT((#743,#745,#746))
REPRESENTATION_CONTEXT('','3D')
);
#743=(
LENGTH_UNIT()
NAMED_UNIT(*)
SI_UNIT(.MILLI.,.METRE.)
);
#744=(
LENGTH_UNIT()
NAMED_UNIT(*)
SI_UNIT($,.METRE.)
);
#745=(
NAMED_UNIT(*)
PLANE_ANGLE_UNIT()
SI_UNIT($,.RADIAN.)
);
#746=(
NAMED_UNIT(*)
SI_UNIT($,.STERADIAN.)
SOLID_ANGLE_UNIT()
);
#747=SHAPE_DEFINITION_REPRESENTATION(#748,#749);
#748=PRODUCT_DEFINITION_SHAPE('',$,#751);
#749=SHAPE_REPRESENTATION('',(#435),#741);
#750=PRODUCT_DEFINITION_CONTEXT('part definition',#755,'design');
#751=PRODUCT_DEFINITION('(Unsaved)','(Unsaved)',#752,#750);
#752=PRODUCT_DEFINITION_FORMATION('',$,#757);
#753=PRODUCT_RELATED_PRODUCT_CATEGORY('(Unsaved)','(Unsaved)',(#757));
#754=APPLICATION_PROTOCOL_DEFINITION('international standard',
'automotive_design',2009,#755);
#755=APPLICATION_CONTEXT(
'Core Data for Automotive Mechanical Design Process');
#756=PRODUCT_CONTEXT('part definition',#755,'mechanical');
#757=PRODUCT('(Unsaved)','(Unsaved)',$,(#756));
#758=PRESENTATION_STYLE_ASSIGNMENT((#759));
#759=SURFACE_STYLE_USAGE(.BOTH.,#760);
#760=SURFACE_SIDE_STYLE('',(#761));
#761=SURFACE_STYLE_FILL_AREA(#762);
#762=FILL_AREA_STYLE('Steel - Satin',(#763));
#763=FILL_AREA_STYLE_COLOUR('Steel - Satin',#764);
#764=COLOUR_RGB('Steel - Satin',0.627450980392157,0.627450980392157,0.627450980392157);
ENDSEC;
END-ISO-10303-21;
