ISO-10303-21;
HEADER;
/* Generated by software containing ST-Developer
 * from STEP Tools, Inc. (www.steptools.com) 
 */

FILE_DESCRIPTION(
/* description */ (''),
/* implementation_level */ '2;1');

FILE_NAME(
/* name */ 'ex-milling_01.step',
/* time_stamp */ '2024-10-31T15:19:55+03:00',
/* author */ (''),
/* organization */ (''),
/* preprocessor_version */ 'ST-DEVELOPER v20',
/* originating_system */ 'Autodesk Translation Framework v13.14.0.145',

/* authorisation */ '');

FILE_SCHEMA (('AUTOMOTIVE_DESIGN { 1 0 10303 214 3 1 1 }'));
ENDSEC;

DATA;
#10=MECHANICAL_DESIGN_GEOMETRIC_PRESENTATION_REPRESENTATION('',(#13),#1720);
#11=SHAPE_REPRESENTATION_RELATIONSHIP('SRR','None',#1727,#12);
#12=ADVANCED_BREP_SHAPE_REPRESENTATION('',(#14),#1719);
#13=STYLED_ITEM('',(#1736),#14);
#14=MANIFOLD_SOLID_BREP('Body1',#853);
#15=CONICAL_SURFACE('',#918,4.025682769217,0.78539816339745);
#16=CONICAL_SURFACE('',#924,4.025682769217,0.785398163397448);
#17=CONICAL_SURFACE('',#927,9.,0.785398163397448);
#18=CONICAL_SURFACE('',#930,9.,0.785398163397448);
#19=CONICAL_SURFACE('',#933,9.,0.785398163397448);
#20=TOROIDAL_SURFACE('',#910,12.5,2.5);
#21=TOROIDAL_SURFACE('',#915,12.5,2.5);
#22=ELLIPSE('',#886,6.09255967131447,6.);
#23=ELLIPSE('',#887,6.09255967131447,6.);
#24=ELLIPSE('',#893,5.11070282334313,5.);
#25=ELLIPSE('',#898,5.11070282334313,5.);
#26=CYLINDRICAL_SURFACE('',#883,9.99999999999999);
#27=CYLINDRICAL_SURFACE('',#889,3.9630240067924);
#28=CYLINDRICAL_SURFACE('',#895,1.);
#29=CYLINDRICAL_SURFACE('',#899,1.);
#30=CYLINDRICAL_SURFACE('',#901,5.);
#31=CYLINDRICAL_SURFACE('',#904,5.);
#32=CYLINDRICAL_SURFACE('',#907,2.5);
#33=CYLINDRICAL_SURFACE('',#913,2.5);
#34=CYLINDRICAL_SURFACE('',#916,9.99999999999999);
#35=CYLINDRICAL_SURFACE('',#921,3.525682769217);
#36=CYLINDRICAL_SURFACE('',#935,10.);
#37=CYLINDRICAL_SURFACE('',#938,10.);
#38=CYLINDRICAL_SURFACE('',#940,10.);
#39=CYLINDRICAL_SURFACE('',#944,10.);
#40=B_SPLINE_CURVE_WITH_KNOTS('',3,(#1289,#1290,#1291,#1292,#1293,#1294,
#1295,#1296,#1297,#1298),.UNSPECIFIED.,.F.,.F.,(4,1,1,1,1,1,1,4),(-1.5707963267949,
-1.12199737628207,-0.673198425769242,-0.224399475256414,0.224399475256413,
0.673198425769241,1.12199737628207,1.5707963267949),.UNSPECIFIED.);
#41=B_SPLINE_CURVE_WITH_KNOTS('',3,(#1301,#1302,#1303,#1304,#1305,#1306,
#1307,#1308,#1309,#1310),.UNSPECIFIED.,.F.,.F.,(4,1,1,1,1,1,1,4),(-1.5707963267949,
-1.12199737628207,-0.673198425769241,-0.224399475256413,0.224399475256414,
0.673198425769242,1.12199737628207,1.5707963267949),.UNSPECIFIED.);
#42=B_SPLINE_CURVE_WITH_KNOTS('',3,(#1327,#1328,#1329,#1330),
 .UNSPECIFIED.,.F.,.F.,(4,4),(-5.52374240951568,-5.50610971144483),
 .UNSPECIFIED.);
#43=B_SPLINE_CURVE_WITH_KNOTS('',3,(#1331,#1332,#1333,#1334),
 .UNSPECIFIED.,.F.,.F.,(4,4),(5.50610971144483,5.52374240951568),
 .UNSPECIFIED.);
#44=B_SPLINE_CURVE_WITH_KNOTS('',3,(#1360,#1361,#1362,#1363),
 .UNSPECIFIED.,.F.,.F.,(4,4),(0.00610971144483122,0.0237424095156777),
 .UNSPECIFIED.);
#45=B_SPLINE_CURVE_WITH_KNOTS('',3,(#1364,#1365,#1366,#1367),
 .UNSPECIFIED.,.F.,.F.,(4,4),(-0.0237424095156777,-0.00610971144483122),
 .UNSPECIFIED.);
#46=B_SPLINE_CURVE_WITH_KNOTS('',3,(#1412,#1413,#1414,#1415,#1416,#1417,
#1418,#1419,#1420,#1421),.UNSPECIFIED.,.F.,.F.,(4,1,1,1,1,1,1,4),(-1.55343319654648,
-1.10959514039034,-0.665757084234204,-0.221919028078068,0.221919028078068,
0.665757084234204,1.10959514039034,1.55343319654648),.UNSPECIFIED.);
#47=B_SPLINE_CURVE_WITH_KNOTS('',3,(#1424,#1425,#1426,#1427,#1428,#1429,
#1430,#1431,#1432,#1433),.UNSPECIFIED.,.F.,.F.,(4,1,1,1,1,1,1,4),(-1.55343319654648,
-1.10959514039034,-0.665757084234204,-0.221919028078068,0.221919028078068,
0.665757084234204,1.10959514039034,1.55343319654648),.UNSPECIFIED.);
#48=B_SPLINE_CURVE_WITH_KNOTS('',3,(#1450,#1451,#1452,#1453),
 .UNSPECIFIED.,.F.,.F.,(4,4),(1.55343319654648,1.5707963267949),
 .UNSPECIFIED.);
#49=B_SPLINE_CURVE_WITH_KNOTS('',3,(#1454,#1455,#1456,#1457),
 .UNSPECIFIED.,.F.,.F.,(4,4),(-1.5707963267949,-1.55343319654648),
 .UNSPECIFIED.);
#50=B_SPLINE_CURVE_WITH_KNOTS('',3,(#1474,#1475,#1476,#1477),
 .UNSPECIFIED.,.F.,.F.,(4,4),(-1.5707963267949,-1.55343319654648),
 .UNSPECIFIED.);
#51=B_SPLINE_CURVE_WITH_KNOTS('',3,(#1478,#1479,#1480,#1481),
 .UNSPECIFIED.,.F.,.F.,(4,4),(1.55343319654648,1.5707963267949),
 .UNSPECIFIED.);
#52=B_SPLINE_SURFACE_WITH_KNOTS('',3,3,((#1245,#1246,#1247,#1248,#1249,
#1250,#1251,#1252,#1253,#1254),(#1255,#1256,#1257,#1258,#1259,#1260,#1261,
#1262,#1263,#1264),(#1265,#1266,#1267,#1268,#1269,#1270,#1271,#1272,#1273,
#1274),(#1275,#1276,#1277,#1278,#1279,#1280,#1281,#1282,#1283,#1284)),
 .UNSPECIFIED.,.F.,.F.,.F.,(4,4),(4,1,1,1,1,1,1,4),(0.,1.),(-1.5707963267949,
-1.12199737628207,-0.673198425769241,-0.224399475256413,0.224399475256414,
0.673198425769242,1.12199737628207,1.5707963267949),.UNSPECIFIED.);
#53=B_SPLINE_SURFACE_WITH_KNOTS('',3,3,((#1311,#1312,#1313,#1314),(#1315,
#1316,#1317,#1318),(#1319,#1320,#1321,#1322),(#1323,#1324,#1325,#1326)),
 .UNSPECIFIED.,.F.,.F.,.F.,(4,4),(4,4),(0.,1.),(5.50610971144483,5.52374240951568),
 .UNSPECIFIED.);
#54=B_SPLINE_SURFACE_WITH_KNOTS('',3,3,((#1344,#1345,#1346,#1347),(#1348,
#1349,#1350,#1351),(#1352,#1353,#1354,#1355),(#1356,#1357,#1358,#1359)),
 .UNSPECIFIED.,.F.,.F.,.F.,(4,4),(4,4),(0.,1.),(-0.0237424095156777,-0.00610971144483122),
 .UNSPECIFIED.);
#55=B_SPLINE_SURFACE_WITH_KNOTS('',3,3,((#1368,#1369,#1370,#1371,#1372,
#1373,#1374,#1375,#1376,#1377),(#1378,#1379,#1380,#1381,#1382,#1383,#1384,
#1385,#1386,#1387),(#1388,#1389,#1390,#1391,#1392,#1393,#1394,#1395,#1396,
#1397),(#1398,#1399,#1400,#1401,#1402,#1403,#1404,#1405,#1406,#1407)),
 .UNSPECIFIED.,.F.,.F.,.F.,(4,4),(4,1,1,1,1,1,1,4),(0.,1.),(-1.55343319654648,
-1.10959514039034,-0.665757084234204,-0.221919028078068,0.221919028078068,
0.665757084234204,1.10959514039034,1.55343319654648),.UNSPECIFIED.);
#56=B_SPLINE_SURFACE_WITH_KNOTS('',3,3,((#1434,#1435,#1436,#1437),(#1438,
#1439,#1440,#1441),(#1442,#1443,#1444,#1445),(#1446,#1447,#1448,#1449)),
 .UNSPECIFIED.,.F.,.F.,.F.,(4,4),(4,4),(0.,1.),(-1.5707963267949,-1.55343319491398),
 .UNSPECIFIED.);
#57=B_SPLINE_SURFACE_WITH_KNOTS('',3,3,((#1458,#1459,#1460,#1461),(#1462,
#1463,#1464,#1465),(#1466,#1467,#1468,#1469),(#1470,#1471,#1472,#1473)),
 .UNSPECIFIED.,.F.,.F.,.F.,(4,4),(4,4),(0.,1.),(1.55343319491398,1.5707963267949),
 .UNSPECIFIED.);
#58=B_SPLINE_SURFACE_WITH_KNOTS('',3,3,((#1508,#1509,#1510,#1511,#1512,
#1513,#1514,#1515,#1516),(#1517,#1518,#1519,#1520,#1521,#1522,#1523,#1524,
#1525),(#1526,#1527,#1528,#1529,#1530,#1531,#1532,#1533,#1534),(#1535,#1536,
#1537,#1538,#1539,#1540,#1541,#1542,#1543),(#1544,#1545,#1546,#1547,#1548,
#1549,#1550,#1551,#1552),(#1553,#1554,#1555,#1556,#1557,#1558,#1559,#1560,
#1561)),.UNSPECIFIED.,.F.,.F.,.F.,(4,1,1,4),(4,1,1,1,1,1,4),(0.,0.285714285714286,
0.571428571428571,1.),(-1.5707963267949,-1.12199737628207,-0.673198425769242,
-0.224399475256414,0.673198425769241,1.12199737628207,1.5707963267949),
 .UNSPECIFIED.);
#59=B_SPLINE_SURFACE_WITH_KNOTS('',3,3,((#1571,#1572,#1573,#1574,#1575,
#1576,#1577,#1578,#1579),(#1580,#1581,#1582,#1583,#1584,#1585,#1586,#1587,
#1588),(#1589,#1590,#1591,#1592,#1593,#1594,#1595,#1596,#1597),(#1598,#1599,
#1600,#1601,#1602,#1603,#1604,#1605,#1606),(#1607,#1608,#1609,#1610,#1611,
#1612,#1613,#1614,#1615)),.UNSPECIFIED.,.F.,.F.,.F.,(4,1,4),(4,1,1,1,1,
1,4),(0.,0.571428571428571,1.),(-1.5707963267949,-1.12199737628207,-0.224399475256413,
0.224399475256414,0.673198425769242,1.12199737628207,1.5707963267949),
 .UNSPECIFIED.);
#60=FACE_BOUND('',#154,.T.);
#61=FACE_BOUND('',#167,.T.);
#62=FACE_BOUND('',#168,.T.);
#63=FACE_BOUND('',#189,.T.);
#64=FACE_BOUND('',#192,.T.);
#65=CIRCLE('',#871,10.);
#66=CIRCLE('',#874,8.);
#67=CIRCLE('',#875,8.);
#68=CIRCLE('',#876,8.);
#69=CIRCLE('',#877,12.5);
#70=CIRCLE('',#878,12.5);
#71=CIRCLE('',#884,9.99999999999999);
#72=CIRCLE('',#888,3.9630240067924);
#73=CIRCLE('',#890,3.9630240067924);
#74=CIRCLE('',#892,1.00000000000001);
#75=CIRCLE('',#894,1.);
#76=CIRCLE('',#896,1.);
#77=CIRCLE('',#897,1.);
#78=CIRCLE('',#902,5.);
#79=CIRCLE('',#905,5.);
#80=CIRCLE('',#908,2.5);
#81=CIRCLE('',#909,2.5);
#82=CIRCLE('',#911,2.5);
#83=CIRCLE('',#912,9.99999999999999);
#84=CIRCLE('',#914,2.5);
#85=CIRCLE('',#919,4.525682769217);
#86=CIRCLE('',#920,3.525682769217);
#87=CIRCLE('',#922,3.525682769217);
#88=CIRCLE('',#925,4.525682769217);
#89=CIRCLE('',#928,10.);
#90=CIRCLE('',#931,10.);
#91=CIRCLE('',#934,10.);
#92=CIRCLE('',#936,10.);
#93=CIRCLE('',#939,10.);
#94=CIRCLE('',#941,10.);
#95=CIRCLE('',#943,10.);
#96=FACE_OUTER_BOUND('',#148,.T.);
#97=FACE_OUTER_BOUND('',#149,.T.);
#98=FACE_OUTER_BOUND('',#150,.T.);
#99=FACE_OUTER_BOUND('',#151,.T.);
#100=FACE_OUTER_BOUND('',#152,.T.);
#101=FACE_OUTER_BOUND('',#153,.T.);
#102=FACE_OUTER_BOUND('',#155,.T.);
#103=FACE_OUTER_BOUND('',#156,.T.);
#104=FACE_OUTER_BOUND('',#157,.T.);
#105=FACE_OUTER_BOUND('',#158,.T.);
#106=FACE_OUTER_BOUND('',#159,.T.);
#107=FACE_OUTER_BOUND('',#160,.T.);
#108=FACE_OUTER_BOUND('',#161,.T.);
#109=FACE_OUTER_BOUND('',#162,.T.);
#110=FACE_OUTER_BOUND('',#163,.T.);
#111=FACE_OUTER_BOUND('',#164,.T.);
#112=FACE_OUTER_BOUND('',#165,.T.);
#113=FACE_OUTER_BOUND('',#166,.T.);
#114=FACE_OUTER_BOUND('',#169,.T.);
#115=FACE_OUTER_BOUND('',#170,.T.);
#116=FACE_OUTER_BOUND('',#171,.T.);
#117=FACE_OUTER_BOUND('',#172,.T.);
#118=FACE_OUTER_BOUND('',#173,.T.);
#119=FACE_OUTER_BOUND('',#174,.T.);
#120=FACE_OUTER_BOUND('',#175,.T.);
#121=FACE_OUTER_BOUND('',#176,.T.);
#122=FACE_OUTER_BOUND('',#177,.T.);
#123=FACE_OUTER_BOUND('',#178,.T.);
#124=FACE_OUTER_BOUND('',#179,.T.);
#125=FACE_OUTER_BOUND('',#180,.T.);
#126=FACE_OUTER_BOUND('',#181,.T.);
#127=FACE_OUTER_BOUND('',#182,.T.);
#128=FACE_OUTER_BOUND('',#183,.T.);
#129=FACE_OUTER_BOUND('',#184,.T.);
#130=FACE_OUTER_BOUND('',#185,.T.);
#131=FACE_OUTER_BOUND('',#186,.T.);
#132=FACE_OUTER_BOUND('',#187,.T.);
#133=FACE_OUTER_BOUND('',#188,.T.);
#134=FACE_OUTER_BOUND('',#190,.T.);
#135=FACE_OUTER_BOUND('',#191,.T.);
#136=FACE_OUTER_BOUND('',#193,.T.);
#137=FACE_OUTER_BOUND('',#194,.T.);
#138=FACE_OUTER_BOUND('',#195,.T.);
#139=FACE_OUTER_BOUND('',#196,.T.);
#140=FACE_OUTER_BOUND('',#197,.T.);
#141=FACE_OUTER_BOUND('',#198,.T.);
#142=FACE_OUTER_BOUND('',#199,.T.);
#143=FACE_OUTER_BOUND('',#200,.T.);
#144=FACE_OUTER_BOUND('',#201,.T.);
#145=FACE_OUTER_BOUND('',#202,.T.);
#146=FACE_OUTER_BOUND('',#203,.T.);
#147=FACE_OUTER_BOUND('',#204,.T.);
#148=EDGE_LOOP('',(#540,#541,#542,#543));
#149=EDGE_LOOP('',(#544,#545,#546,#547));
#150=EDGE_LOOP('',(#548,#549,#550,#551));
#151=EDGE_LOOP('',(#552,#553,#554,#555,#556,#557));
#152=EDGE_LOOP('',(#558,#559,#560,#561));
#153=EDGE_LOOP('',(#562,#563,#564,#565,#566,#567,#568,#569));
#154=EDGE_LOOP('',(#570,#571,#572,#573));
#155=EDGE_LOOP('',(#574,#575,#576,#577));
#156=EDGE_LOOP('',(#578,#579,#580,#581));
#157=EDGE_LOOP('',(#582,#583,#584,#585));
#158=EDGE_LOOP('',(#586,#587,#588,#589));
#159=EDGE_LOOP('',(#590,#591,#592,#593));
#160=EDGE_LOOP('',(#594,#595,#596,#597));
#161=EDGE_LOOP('',(#598,#599,#600,#601));
#162=EDGE_LOOP('',(#602,#603,#604,#605));
#163=EDGE_LOOP('',(#606,#607,#608,#609));
#164=EDGE_LOOP('',(#610,#611,#612,#613,#614));
#165=EDGE_LOOP('',(#615,#616,#617,#618));
#166=EDGE_LOOP('',(#619,#620,#621,#622,#623,#624,#625,#626));
#167=EDGE_LOOP('',(#627,#628,#629,#630));
#168=EDGE_LOOP('',(#631));
#169=EDGE_LOOP('',(#632,#633,#634,#635));
#170=EDGE_LOOP('',(#636));
#171=EDGE_LOOP('',(#637,#638,#639,#640));
#172=EDGE_LOOP('',(#641,#642,#643,#644));
#173=EDGE_LOOP('',(#645,#646,#647,#648));
#174=EDGE_LOOP('',(#649,#650,#651,#652));
#175=EDGE_LOOP('',(#653,#654,#655,#656));
#176=EDGE_LOOP('',(#657,#658,#659,#660));
#177=EDGE_LOOP('',(#661,#662,#663,#664));
#178=EDGE_LOOP('',(#665,#666,#667,#668));
#179=EDGE_LOOP('',(#669,#670,#671,#672));
#180=EDGE_LOOP('',(#673,#674,#675,#676));
#181=EDGE_LOOP('',(#677,#678,#679,#680));
#182=EDGE_LOOP('',(#681,#682,#683,#684));
#183=EDGE_LOOP('',(#685,#686,#687,#688));
#184=EDGE_LOOP('',(#689,#690,#691,#692,#693,#694));
#185=EDGE_LOOP('',(#695,#696,#697,#698,#699));
#186=EDGE_LOOP('',(#700,#701,#702,#703));
#187=EDGE_LOOP('',(#704,#705,#706,#707));
#188=EDGE_LOOP('',(#708,#709,#710,#711,#712,#713));
#189=EDGE_LOOP('',(#714));
#190=EDGE_LOOP('',(#715,#716,#717,#718));
#191=EDGE_LOOP('',(#719,#720,#721,#722));
#192=EDGE_LOOP('',(#723));
#193=EDGE_LOOP('',(#724,#725,#726,#727));
#194=EDGE_LOOP('',(#728,#729,#730,#731));
#195=EDGE_LOOP('',(#732,#733,#734,#735));
#196=EDGE_LOOP('',(#736,#737,#738,#739));
#197=EDGE_LOOP('',(#740,#741,#742,#743));
#198=EDGE_LOOP('',(#744,#745,#746,#747));
#199=EDGE_LOOP('',(#748,#749,#750,#751));
#200=EDGE_LOOP('',(#752,#753,#754,#755));
#201=EDGE_LOOP('',(#756,#757,#758,#759));
#202=EDGE_LOOP('',(#760,#761,#762,#763,#764,#765,#766,#767));
#203=EDGE_LOOP('',(#768,#769,#770,#771));
#204=EDGE_LOOP('',(#772,#773,#774,#775,#776,#777));
#205=LINE('',#1182,#277);
#206=LINE('',#1184,#278);
#207=LINE('',#1186,#279);
#208=LINE('',#1187,#280);
#209=LINE('',#1191,#281);
#210=LINE('',#1193,#282);
#211=LINE('',#1195,#283);
#212=LINE('',#1196,#284);
#213=LINE('',#1198,#285);
#214=LINE('',#1199,#286);
#215=LINE('',#1202,#287);
#216=LINE('',#1205,#288);
#217=LINE('',#1208,#289);
#218=LINE('',#1210,#290);
#219=LINE('',#1211,#291);
#220=LINE('',#1214,#292);
#221=LINE('',#1218,#293);
#222=LINE('',#1222,#294);
#223=LINE('',#1226,#295);
#224=LINE('',#1230,#296);
#225=LINE('',#1234,#297);
#226=LINE('',#1235,#298);
#227=LINE('',#1239,#299);
#228=LINE('',#1241,#300);
#229=LINE('',#1243,#301);
#230=LINE('',#1244,#302);
#231=LINE('',#1287,#303);
#232=LINE('',#1300,#304);
#233=LINE('',#1338,#305);
#234=LINE('',#1340,#306);
#235=LINE('',#1342,#307);
#236=LINE('',#1343,#308);
#237=LINE('',#1410,#309);
#238=LINE('',#1423,#310);
#239=LINE('',#1484,#311);
#240=LINE('',#1486,#312);
#241=LINE('',#1487,#313);
#242=LINE('',#1490,#314);
#243=LINE('',#1497,#315);
#244=LINE('',#1500,#316);
#245=LINE('',#1505,#317);
#246=LINE('',#1570,#318);
#247=LINE('',#1620,#319);
#248=LINE('',#1623,#320);
#249=LINE('',#1625,#321);
#250=LINE('',#1626,#322);
#251=LINE('',#1629,#323);
#252=LINE('',#1633,#324);
#253=LINE('',#1634,#325);
#254=LINE('',#1641,#326);
#255=LINE('',#1650,#327);
#256=LINE('',#1656,#328);
#257=LINE('',#1661,#329);
#258=LINE('',#1664,#330);
#259=LINE('',#1666,#331);
#260=LINE('',#1667,#332);
#261=LINE('',#1671,#333);
#262=LINE('',#1675,#334);
#263=LINE('',#1677,#335);
#264=LINE('',#1679,#336);
#265=LINE('',#1680,#337);
#266=LINE('',#1684,#338);
#267=LINE('',#1687,#339);
#268=LINE('',#1688,#340);
#269=LINE('',#1691,#341);
#270=LINE('',#1693,#342);
#271=LINE('',#1698,#343);
#272=LINE('',#1702,#344);
#273=LINE('',#1703,#345);
#274=LINE('',#1709,#346);
#275=LINE('',#1713,#347);
#276=LINE('',#1715,#348);
#277=VECTOR('',#950,10.);
#278=VECTOR('',#951,10.);
#279=VECTOR('',#952,10.);
#280=VECTOR('',#953,10.);
#281=VECTOR('',#956,10.);
#282=VECTOR('',#957,10.);
#283=VECTOR('',#958,10.);
#284=VECTOR('',#959,10.);
#285=VECTOR('',#962,10.);
#286=VECTOR('',#963,10.);
#287=VECTOR('',#966,10.);
#288=VECTOR('',#969,10.);
#289=VECTOR('',#972,10.);
#290=VECTOR('',#973,10.);
#291=VECTOR('',#974,10.);
#292=VECTOR('',#977,10.);
#293=VECTOR('',#980,10.);
#294=VECTOR('',#983,10.);
#295=VECTOR('',#986,10.);
#296=VECTOR('',#989,10.);
#297=VECTOR('',#994,10.);
#298=VECTOR('',#995,10.);
#299=VECTOR('',#998,10.);
#300=VECTOR('',#999,10.);
#301=VECTOR('',#1000,10.);
#302=VECTOR('',#1001,10.);
#303=VECTOR('',#1002,10.);
#304=VECTOR('',#1003,10.);
#305=VECTOR('',#1006,10.);
#306=VECTOR('',#1007,10.);
#307=VECTOR('',#1008,10.);
#308=VECTOR('',#1009,10.);
#309=VECTOR('',#1010,10.);
#310=VECTOR('',#1011,10.);
#311=VECTOR('',#1014,10.);
#312=VECTOR('',#1015,10.);
#313=VECTOR('',#1016,10.);
#314=VECTOR('',#1019,10.);
#315=VECTOR('',#1026,10.);
#316=VECTOR('',#1029,10.);
#317=VECTOR('',#1034,3.9630240067924);
#318=VECTOR('',#1049,10.);
#319=VECTOR('',#1056,10.);
#320=VECTOR('',#1059,10.);
#321=VECTOR('',#1060,10.);
#322=VECTOR('',#1061,10.);
#323=VECTOR('',#1064,10.);
#324=VECTOR('',#1069,10.);
#325=VECTOR('',#1070,10.);
#326=VECTOR('',#1081,10.);
#327=VECTOR('',#1098,10.);
#328=VECTOR('',#1105,4.025682769217);
#329=VECTOR('',#1112,3.525682769217);
#330=VECTOR('',#1115,10.);
#331=VECTOR('',#1116,10.);
#332=VECTOR('',#1117,10.);
#333=VECTOR('',#1122,4.025682769217);
#334=VECTOR('',#1125,10.);
#335=VECTOR('',#1126,10.);
#336=VECTOR('',#1127,10.);
#337=VECTOR('',#1128,10.);
#338=VECTOR('',#1133,10.);
#339=VECTOR('',#1136,10.);
#340=VECTOR('',#1137,10.);
#341=VECTOR('',#1142,10.);
#342=VECTOR('',#1145,10.);
#343=VECTOR('',#1152,10.);
#344=VECTOR('',#1157,10.);
#345=VECTOR('',#1158,10.);
#346=VECTOR('',#1167,10.);
#347=VECTOR('',#1172,10.);
#348=VECTOR('',#1175,10.);
#349=VERTEX_POINT('',#1180);
#350=VERTEX_POINT('',#1181);
#351=VERTEX_POINT('',#1183);
#352=VERTEX_POINT('',#1185);
#353=VERTEX_POINT('',#1189);
#354=VERTEX_POINT('',#1190);
#355=VERTEX_POINT('',#1192);
#356=VERTEX_POINT('',#1194);
#357=VERTEX_POINT('',#1201);
#358=VERTEX_POINT('',#1203);
#359=VERTEX_POINT('',#1207);
#360=VERTEX_POINT('',#1209);
#361=VERTEX_POINT('',#1213);
#362=VERTEX_POINT('',#1215);
#363=VERTEX_POINT('',#1217);
#364=VERTEX_POINT('',#1219);
#365=VERTEX_POINT('',#1221);
#366=VERTEX_POINT('',#1224);
#367=VERTEX_POINT('',#1225);
#368=VERTEX_POINT('',#1227);
#369=VERTEX_POINT('',#1229);
#370=VERTEX_POINT('',#1233);
#371=VERTEX_POINT('',#1237);
#372=VERTEX_POINT('',#1238);
#373=VERTEX_POINT('',#1240);
#374=VERTEX_POINT('',#1242);
#375=VERTEX_POINT('',#1285);
#376=VERTEX_POINT('',#1286);
#377=VERTEX_POINT('',#1288);
#378=VERTEX_POINT('',#1299);
#379=VERTEX_POINT('',#1336);
#380=VERTEX_POINT('',#1337);
#381=VERTEX_POINT('',#1339);
#382=VERTEX_POINT('',#1341);
#383=VERTEX_POINT('',#1408);
#384=VERTEX_POINT('',#1409);
#385=VERTEX_POINT('',#1411);
#386=VERTEX_POINT('',#1422);
#387=VERTEX_POINT('',#1483);
#388=VERTEX_POINT('',#1485);
#389=VERTEX_POINT('',#1489);
#390=VERTEX_POINT('',#1493);
#391=VERTEX_POINT('',#1494);
#392=VERTEX_POINT('',#1496);
#393=VERTEX_POINT('',#1498);
#394=VERTEX_POINT('',#1501);
#395=VERTEX_POINT('',#1504);
#396=VERTEX_POINT('',#1562);
#397=VERTEX_POINT('',#1564);
#398=VERTEX_POINT('',#1568);
#399=VERTEX_POINT('',#1616);
#400=VERTEX_POINT('',#1622);
#401=VERTEX_POINT('',#1624);
#402=VERTEX_POINT('',#1628);
#403=VERTEX_POINT('',#1632);
#404=VERTEX_POINT('',#1640);
#405=VERTEX_POINT('',#1653);
#406=VERTEX_POINT('',#1655);
#407=VERTEX_POINT('',#1659);
#408=VERTEX_POINT('',#1663);
#409=VERTEX_POINT('',#1665);
#410=VERTEX_POINT('',#1669);
#411=VERTEX_POINT('',#1673);
#412=VERTEX_POINT('',#1674);
#413=VERTEX_POINT('',#1676);
#414=VERTEX_POINT('',#1678);
#415=VERTEX_POINT('',#1682);
#416=VERTEX_POINT('',#1686);
#417=VERTEX_POINT('',#1697);
#418=VERTEX_POINT('',#1701);
#419=VERTEX_POINT('',#1707);
#420=VERTEX_POINT('',#1711);
#421=EDGE_CURVE('',#349,#350,#205,.T.);
#422=EDGE_CURVE('',#349,#351,#206,.T.);
#423=EDGE_CURVE('',#352,#351,#207,.T.);
#424=EDGE_CURVE('',#350,#352,#208,.T.);
#425=EDGE_CURVE('',#353,#354,#209,.T.);
#426=EDGE_CURVE('',#353,#355,#210,.T.);
#427=EDGE_CURVE('',#355,#356,#211,.T.);
#428=EDGE_CURVE('',#354,#356,#212,.T.);
#429=EDGE_CURVE('',#352,#353,#213,.T.);
#430=EDGE_CURVE('',#351,#355,#214,.T.);
#431=EDGE_CURVE('',#357,#349,#215,.T.);
#432=EDGE_CURVE('',#358,#357,#65,.T.);
#433=EDGE_CURVE('',#356,#358,#216,.T.);
#434=EDGE_CURVE('',#352,#359,#217,.T.);
#435=EDGE_CURVE('',#360,#359,#218,.T.);
#436=EDGE_CURVE('',#360,#350,#219,.T.);
#437=EDGE_CURVE('',#361,#353,#220,.T.);
#438=EDGE_CURVE('',#362,#361,#66,.T.);
#439=EDGE_CURVE('',#363,#362,#221,.T.);
#440=EDGE_CURVE('',#364,#363,#67,.T.);
#441=EDGE_CURVE('',#365,#364,#222,.T.);
#442=EDGE_CURVE('',#359,#365,#68,.T.);
#443=EDGE_CURVE('',#366,#367,#223,.T.);
#444=EDGE_CURVE('',#368,#366,#69,.T.);
#445=EDGE_CURVE('',#369,#368,#224,.T.);
#446=EDGE_CURVE('',#367,#369,#70,.T.);
#447=EDGE_CURVE('',#354,#370,#225,.T.);
#448=EDGE_CURVE('',#370,#361,#226,.T.);
#449=EDGE_CURVE('',#371,#372,#227,.T.);
#450=EDGE_CURVE('',#372,#373,#228,.T.);
#451=EDGE_CURVE('',#373,#374,#229,.T.);
#452=EDGE_CURVE('',#374,#371,#230,.T.);
#453=EDGE_CURVE('',#375,#376,#231,.T.);
#454=EDGE_CURVE('',#376,#377,#40,.T.);
#455=EDGE_CURVE('',#377,#378,#232,.T.);
#456=EDGE_CURVE('',#378,#375,#41,.T.);
#457=EDGE_CURVE('',#377,#372,#42,.T.);
#458=EDGE_CURVE('',#371,#378,#43,.T.);
#459=EDGE_CURVE('',#379,#380,#233,.T.);
#460=EDGE_CURVE('',#380,#381,#234,.T.);
#461=EDGE_CURVE('',#381,#382,#235,.T.);
#462=EDGE_CURVE('',#382,#379,#236,.T.);
#463=EDGE_CURVE('',#379,#376,#44,.T.);
#464=EDGE_CURVE('',#375,#380,#45,.T.);
#465=EDGE_CURVE('',#383,#384,#237,.T.);
#466=EDGE_CURVE('',#384,#385,#46,.T.);
#467=EDGE_CURVE('',#385,#386,#238,.T.);
#468=EDGE_CURVE('',#386,#383,#47,.T.);
#469=EDGE_CURVE('',#383,#382,#48,.T.);
#470=EDGE_CURVE('',#381,#384,#49,.T.);
#471=EDGE_CURVE('',#373,#386,#50,.T.);
#472=EDGE_CURVE('',#385,#374,#51,.T.);
#473=EDGE_CURVE('',#387,#385,#239,.T.);
#474=EDGE_CURVE('',#388,#387,#240,.T.);
#475=EDGE_CURVE('',#388,#371,#241,.T.);
#476=EDGE_CURVE('',#389,#384,#242,.T.);
#477=EDGE_CURVE('',#387,#389,#71,.T.);
#478=EDGE_CURVE('',#390,#391,#22,.T.);
#479=EDGE_CURVE('',#392,#390,#243,.T.);
#480=EDGE_CURVE('',#393,#392,#23,.T.);
#481=EDGE_CURVE('',#391,#393,#244,.T.);
#482=EDGE_CURVE('',#394,#394,#72,.T.);
#483=EDGE_CURVE('',#394,#395,#245,.T.);
#484=EDGE_CURVE('',#395,#395,#73,.T.);
#485=EDGE_CURVE('',#391,#396,#74,.T.);
#486=EDGE_CURVE('',#396,#397,#24,.T.);
#487=EDGE_CURVE('',#397,#390,#75,.T.);
#488=EDGE_CURVE('',#398,#392,#76,.T.);
#489=EDGE_CURVE('',#397,#398,#246,.T.);
#490=EDGE_CURVE('',#399,#393,#77,.T.);
#491=EDGE_CURVE('',#398,#399,#25,.T.);
#492=EDGE_CURVE('',#399,#396,#247,.T.);
#493=EDGE_CURVE('',#397,#400,#248,.T.);
#494=EDGE_CURVE('',#400,#401,#249,.T.);
#495=EDGE_CURVE('',#398,#401,#250,.T.);
#496=EDGE_CURVE('',#396,#402,#251,.T.);
#497=EDGE_CURVE('',#402,#400,#78,.T.);
#498=EDGE_CURVE('',#399,#403,#252,.T.);
#499=EDGE_CURVE('',#403,#402,#253,.T.);
#500=EDGE_CURVE('',#401,#403,#79,.T.);
#501=EDGE_CURVE('',#367,#389,#80,.T.);
#502=EDGE_CURVE('',#389,#404,#254,.T.);
#503=EDGE_CURVE('',#404,#366,#81,.T.);
#504=EDGE_CURVE('',#388,#368,#82,.T.);
#505=EDGE_CURVE('',#404,#388,#83,.T.);
#506=EDGE_CURVE('',#387,#369,#84,.T.);
#507=EDGE_CURVE('',#404,#380,#255,.T.);
#508=EDGE_CURVE('',#405,#405,#85,.T.);
#509=EDGE_CURVE('',#405,#406,#256,.T.);
#510=EDGE_CURVE('',#406,#406,#86,.T.);
#511=EDGE_CURVE('',#407,#407,#87,.T.);
#512=EDGE_CURVE('',#407,#406,#257,.T.);
#513=EDGE_CURVE('',#408,#358,#258,.T.);
#514=EDGE_CURVE('',#409,#408,#259,.T.);
#515=EDGE_CURVE('',#370,#409,#260,.T.);
#516=EDGE_CURVE('',#410,#410,#88,.T.);
#517=EDGE_CURVE('',#410,#407,#261,.T.);
#518=EDGE_CURVE('',#411,#412,#262,.T.);
#519=EDGE_CURVE('',#413,#411,#263,.T.);
#520=EDGE_CURVE('',#414,#413,#264,.T.);
#521=EDGE_CURVE('',#412,#414,#265,.T.);
#522=EDGE_CURVE('',#370,#415,#89,.T.);
#523=EDGE_CURVE('',#415,#362,#266,.T.);
#524=EDGE_CURVE('',#416,#363,#267,.T.);
#525=EDGE_CURVE('',#415,#416,#268,.T.);
#526=EDGE_CURVE('',#416,#411,#90,.T.);
#527=EDGE_CURVE('',#411,#364,#269,.T.);
#528=EDGE_CURVE('',#412,#365,#270,.T.);
#529=EDGE_CURVE('',#412,#360,#91,.T.);
#530=EDGE_CURVE('',#416,#417,#271,.T.);
#531=EDGE_CURVE('',#417,#413,#92,.T.);
#532=EDGE_CURVE('',#418,#415,#272,.T.);
#533=EDGE_CURVE('',#417,#418,#273,.T.);
#534=EDGE_CURVE('',#409,#418,#93,.T.);
#535=EDGE_CURVE('',#414,#419,#94,.T.);
#536=EDGE_CURVE('',#419,#360,#274,.T.);
#537=EDGE_CURVE('',#420,#408,#95,.T.);
#538=EDGE_CURVE('',#420,#419,#275,.T.);
#539=EDGE_CURVE('',#357,#420,#276,.T.);
#540=ORIENTED_EDGE('',*,*,#421,.F.);
#541=ORIENTED_EDGE('',*,*,#422,.T.);
#542=ORIENTED_EDGE('',*,*,#423,.F.);
#543=ORIENTED_EDGE('',*,*,#424,.F.);
#544=ORIENTED_EDGE('',*,*,#425,.F.);
#545=ORIENTED_EDGE('',*,*,#426,.T.);
#546=ORIENTED_EDGE('',*,*,#427,.T.);
#547=ORIENTED_EDGE('',*,*,#428,.F.);
#548=ORIENTED_EDGE('',*,*,#429,.F.);
#549=ORIENTED_EDGE('',*,*,#423,.T.);
#550=ORIENTED_EDGE('',*,*,#430,.T.);
#551=ORIENTED_EDGE('',*,*,#426,.F.);
#552=ORIENTED_EDGE('',*,*,#431,.F.);
#553=ORIENTED_EDGE('',*,*,#432,.F.);
#554=ORIENTED_EDGE('',*,*,#433,.F.);
#555=ORIENTED_EDGE('',*,*,#427,.F.);
#556=ORIENTED_EDGE('',*,*,#430,.F.);
#557=ORIENTED_EDGE('',*,*,#422,.F.);
#558=ORIENTED_EDGE('',*,*,#424,.T.);
#559=ORIENTED_EDGE('',*,*,#434,.T.);
#560=ORIENTED_EDGE('',*,*,#435,.F.);
#561=ORIENTED_EDGE('',*,*,#436,.T.);
#562=ORIENTED_EDGE('',*,*,#429,.T.);
#563=ORIENTED_EDGE('',*,*,#437,.F.);
#564=ORIENTED_EDGE('',*,*,#438,.F.);
#565=ORIENTED_EDGE('',*,*,#439,.F.);
#566=ORIENTED_EDGE('',*,*,#440,.F.);
#567=ORIENTED_EDGE('',*,*,#441,.F.);
#568=ORIENTED_EDGE('',*,*,#442,.F.);
#569=ORIENTED_EDGE('',*,*,#434,.F.);
#570=ORIENTED_EDGE('',*,*,#443,.F.);
#571=ORIENTED_EDGE('',*,*,#444,.F.);
#572=ORIENTED_EDGE('',*,*,#445,.F.);
#573=ORIENTED_EDGE('',*,*,#446,.F.);
#574=ORIENTED_EDGE('',*,*,#425,.T.);
#575=ORIENTED_EDGE('',*,*,#447,.T.);
#576=ORIENTED_EDGE('',*,*,#448,.T.);
#577=ORIENTED_EDGE('',*,*,#437,.T.);
#578=ORIENTED_EDGE('',*,*,#449,.T.);
#579=ORIENTED_EDGE('',*,*,#450,.T.);
#580=ORIENTED_EDGE('',*,*,#451,.T.);
#581=ORIENTED_EDGE('',*,*,#452,.T.);
#582=ORIENTED_EDGE('',*,*,#453,.T.);
#583=ORIENTED_EDGE('',*,*,#454,.T.);
#584=ORIENTED_EDGE('',*,*,#455,.T.);
#585=ORIENTED_EDGE('',*,*,#456,.T.);
#586=ORIENTED_EDGE('',*,*,#455,.F.);
#587=ORIENTED_EDGE('',*,*,#457,.T.);
#588=ORIENTED_EDGE('',*,*,#449,.F.);
#589=ORIENTED_EDGE('',*,*,#458,.T.);
#590=ORIENTED_EDGE('',*,*,#459,.T.);
#591=ORIENTED_EDGE('',*,*,#460,.T.);
#592=ORIENTED_EDGE('',*,*,#461,.T.);
#593=ORIENTED_EDGE('',*,*,#462,.T.);
#594=ORIENTED_EDGE('',*,*,#459,.F.);
#595=ORIENTED_EDGE('',*,*,#463,.T.);
#596=ORIENTED_EDGE('',*,*,#453,.F.);
#597=ORIENTED_EDGE('',*,*,#464,.T.);
#598=ORIENTED_EDGE('',*,*,#465,.T.);
#599=ORIENTED_EDGE('',*,*,#466,.T.);
#600=ORIENTED_EDGE('',*,*,#467,.T.);
#601=ORIENTED_EDGE('',*,*,#468,.T.);
#602=ORIENTED_EDGE('',*,*,#465,.F.);
#603=ORIENTED_EDGE('',*,*,#469,.T.);
#604=ORIENTED_EDGE('',*,*,#461,.F.);
#605=ORIENTED_EDGE('',*,*,#470,.T.);
#606=ORIENTED_EDGE('',*,*,#451,.F.);
#607=ORIENTED_EDGE('',*,*,#471,.T.);
#608=ORIENTED_EDGE('',*,*,#467,.F.);
#609=ORIENTED_EDGE('',*,*,#472,.T.);
#610=ORIENTED_EDGE('',*,*,#452,.F.);
#611=ORIENTED_EDGE('',*,*,#472,.F.);
#612=ORIENTED_EDGE('',*,*,#473,.F.);
#613=ORIENTED_EDGE('',*,*,#474,.F.);
#614=ORIENTED_EDGE('',*,*,#475,.T.);
#615=ORIENTED_EDGE('',*,*,#466,.F.);
#616=ORIENTED_EDGE('',*,*,#476,.F.);
#617=ORIENTED_EDGE('',*,*,#477,.F.);
#618=ORIENTED_EDGE('',*,*,#473,.T.);
#619=ORIENTED_EDGE('',*,*,#468,.F.);
#620=ORIENTED_EDGE('',*,*,#471,.F.);
#621=ORIENTED_EDGE('',*,*,#450,.F.);
#622=ORIENTED_EDGE('',*,*,#457,.F.);
#623=ORIENTED_EDGE('',*,*,#454,.F.);
#624=ORIENTED_EDGE('',*,*,#463,.F.);
#625=ORIENTED_EDGE('',*,*,#462,.F.);
#626=ORIENTED_EDGE('',*,*,#469,.F.);
#627=ORIENTED_EDGE('',*,*,#478,.F.);
#628=ORIENTED_EDGE('',*,*,#479,.F.);
#629=ORIENTED_EDGE('',*,*,#480,.F.);
#630=ORIENTED_EDGE('',*,*,#481,.F.);
#631=ORIENTED_EDGE('',*,*,#482,.T.);
#632=ORIENTED_EDGE('',*,*,#482,.F.);
#633=ORIENTED_EDGE('',*,*,#483,.T.);
#634=ORIENTED_EDGE('',*,*,#484,.T.);
#635=ORIENTED_EDGE('',*,*,#483,.F.);
#636=ORIENTED_EDGE('',*,*,#484,.F.);
#637=ORIENTED_EDGE('',*,*,#485,.T.);
#638=ORIENTED_EDGE('',*,*,#486,.T.);
#639=ORIENTED_EDGE('',*,*,#487,.T.);
#640=ORIENTED_EDGE('',*,*,#478,.T.);
#641=ORIENTED_EDGE('',*,*,#488,.T.);
#642=ORIENTED_EDGE('',*,*,#479,.T.);
#643=ORIENTED_EDGE('',*,*,#487,.F.);
#644=ORIENTED_EDGE('',*,*,#489,.T.);
#645=ORIENTED_EDGE('',*,*,#490,.T.);
#646=ORIENTED_EDGE('',*,*,#480,.T.);
#647=ORIENTED_EDGE('',*,*,#488,.F.);
#648=ORIENTED_EDGE('',*,*,#491,.T.);
#649=ORIENTED_EDGE('',*,*,#485,.F.);
#650=ORIENTED_EDGE('',*,*,#481,.T.);
#651=ORIENTED_EDGE('',*,*,#490,.F.);
#652=ORIENTED_EDGE('',*,*,#492,.T.);
#653=ORIENTED_EDGE('',*,*,#489,.F.);
#654=ORIENTED_EDGE('',*,*,#493,.T.);
#655=ORIENTED_EDGE('',*,*,#494,.T.);
#656=ORIENTED_EDGE('',*,*,#495,.F.);
#657=ORIENTED_EDGE('',*,*,#486,.F.);
#658=ORIENTED_EDGE('',*,*,#496,.T.);
#659=ORIENTED_EDGE('',*,*,#497,.T.);
#660=ORIENTED_EDGE('',*,*,#493,.F.);
#661=ORIENTED_EDGE('',*,*,#492,.F.);
#662=ORIENTED_EDGE('',*,*,#498,.T.);
#663=ORIENTED_EDGE('',*,*,#499,.T.);
#664=ORIENTED_EDGE('',*,*,#496,.F.);
#665=ORIENTED_EDGE('',*,*,#491,.F.);
#666=ORIENTED_EDGE('',*,*,#495,.T.);
#667=ORIENTED_EDGE('',*,*,#500,.T.);
#668=ORIENTED_EDGE('',*,*,#498,.F.);
#669=ORIENTED_EDGE('',*,*,#500,.F.);
#670=ORIENTED_EDGE('',*,*,#494,.F.);
#671=ORIENTED_EDGE('',*,*,#497,.F.);
#672=ORIENTED_EDGE('',*,*,#499,.F.);
#673=ORIENTED_EDGE('',*,*,#501,.T.);
#674=ORIENTED_EDGE('',*,*,#502,.T.);
#675=ORIENTED_EDGE('',*,*,#503,.T.);
#676=ORIENTED_EDGE('',*,*,#443,.T.);
#677=ORIENTED_EDGE('',*,*,#504,.T.);
#678=ORIENTED_EDGE('',*,*,#444,.T.);
#679=ORIENTED_EDGE('',*,*,#503,.F.);
#680=ORIENTED_EDGE('',*,*,#505,.T.);
#681=ORIENTED_EDGE('',*,*,#506,.T.);
#682=ORIENTED_EDGE('',*,*,#445,.T.);
#683=ORIENTED_EDGE('',*,*,#504,.F.);
#684=ORIENTED_EDGE('',*,*,#474,.T.);
#685=ORIENTED_EDGE('',*,*,#501,.F.);
#686=ORIENTED_EDGE('',*,*,#446,.T.);
#687=ORIENTED_EDGE('',*,*,#506,.F.);
#688=ORIENTED_EDGE('',*,*,#477,.T.);
#689=ORIENTED_EDGE('',*,*,#458,.F.);
#690=ORIENTED_EDGE('',*,*,#475,.F.);
#691=ORIENTED_EDGE('',*,*,#505,.F.);
#692=ORIENTED_EDGE('',*,*,#507,.T.);
#693=ORIENTED_EDGE('',*,*,#464,.F.);
#694=ORIENTED_EDGE('',*,*,#456,.F.);
#695=ORIENTED_EDGE('',*,*,#460,.F.);
#696=ORIENTED_EDGE('',*,*,#507,.F.);
#697=ORIENTED_EDGE('',*,*,#502,.F.);
#698=ORIENTED_EDGE('',*,*,#476,.T.);
#699=ORIENTED_EDGE('',*,*,#470,.F.);
#700=ORIENTED_EDGE('',*,*,#508,.T.);
#701=ORIENTED_EDGE('',*,*,#509,.T.);
#702=ORIENTED_EDGE('',*,*,#510,.T.);
#703=ORIENTED_EDGE('',*,*,#509,.F.);
#704=ORIENTED_EDGE('',*,*,#511,.F.);
#705=ORIENTED_EDGE('',*,*,#512,.T.);
#706=ORIENTED_EDGE('',*,*,#510,.F.);
#707=ORIENTED_EDGE('',*,*,#512,.F.);
#708=ORIENTED_EDGE('',*,*,#433,.T.);
#709=ORIENTED_EDGE('',*,*,#513,.F.);
#710=ORIENTED_EDGE('',*,*,#514,.F.);
#711=ORIENTED_EDGE('',*,*,#515,.F.);
#712=ORIENTED_EDGE('',*,*,#447,.F.);
#713=ORIENTED_EDGE('',*,*,#428,.T.);
#714=ORIENTED_EDGE('',*,*,#508,.F.);
#715=ORIENTED_EDGE('',*,*,#516,.T.);
#716=ORIENTED_EDGE('',*,*,#517,.T.);
#717=ORIENTED_EDGE('',*,*,#511,.T.);
#718=ORIENTED_EDGE('',*,*,#517,.F.);
#719=ORIENTED_EDGE('',*,*,#518,.F.);
#720=ORIENTED_EDGE('',*,*,#519,.F.);
#721=ORIENTED_EDGE('',*,*,#520,.F.);
#722=ORIENTED_EDGE('',*,*,#521,.F.);
#723=ORIENTED_EDGE('',*,*,#516,.F.);
#724=ORIENTED_EDGE('',*,*,#448,.F.);
#725=ORIENTED_EDGE('',*,*,#522,.T.);
#726=ORIENTED_EDGE('',*,*,#523,.T.);
#727=ORIENTED_EDGE('',*,*,#438,.T.);
#728=ORIENTED_EDGE('',*,*,#524,.T.);
#729=ORIENTED_EDGE('',*,*,#439,.T.);
#730=ORIENTED_EDGE('',*,*,#523,.F.);
#731=ORIENTED_EDGE('',*,*,#525,.T.);
#732=ORIENTED_EDGE('',*,*,#524,.F.);
#733=ORIENTED_EDGE('',*,*,#526,.T.);
#734=ORIENTED_EDGE('',*,*,#527,.T.);
#735=ORIENTED_EDGE('',*,*,#440,.T.);
#736=ORIENTED_EDGE('',*,*,#528,.T.);
#737=ORIENTED_EDGE('',*,*,#441,.T.);
#738=ORIENTED_EDGE('',*,*,#527,.F.);
#739=ORIENTED_EDGE('',*,*,#518,.T.);
#740=ORIENTED_EDGE('',*,*,#528,.F.);
#741=ORIENTED_EDGE('',*,*,#529,.T.);
#742=ORIENTED_EDGE('',*,*,#435,.T.);
#743=ORIENTED_EDGE('',*,*,#442,.T.);
#744=ORIENTED_EDGE('',*,*,#526,.F.);
#745=ORIENTED_EDGE('',*,*,#530,.T.);
#746=ORIENTED_EDGE('',*,*,#531,.T.);
#747=ORIENTED_EDGE('',*,*,#519,.T.);
#748=ORIENTED_EDGE('',*,*,#525,.F.);
#749=ORIENTED_EDGE('',*,*,#532,.F.);
#750=ORIENTED_EDGE('',*,*,#533,.F.);
#751=ORIENTED_EDGE('',*,*,#530,.F.);
#752=ORIENTED_EDGE('',*,*,#522,.F.);
#753=ORIENTED_EDGE('',*,*,#515,.T.);
#754=ORIENTED_EDGE('',*,*,#534,.T.);
#755=ORIENTED_EDGE('',*,*,#532,.T.);
#756=ORIENTED_EDGE('',*,*,#529,.F.);
#757=ORIENTED_EDGE('',*,*,#521,.T.);
#758=ORIENTED_EDGE('',*,*,#535,.T.);
#759=ORIENTED_EDGE('',*,*,#536,.T.);
#760=ORIENTED_EDGE('',*,*,#535,.F.);
#761=ORIENTED_EDGE('',*,*,#520,.T.);
#762=ORIENTED_EDGE('',*,*,#531,.F.);
#763=ORIENTED_EDGE('',*,*,#533,.T.);
#764=ORIENTED_EDGE('',*,*,#534,.F.);
#765=ORIENTED_EDGE('',*,*,#514,.T.);
#766=ORIENTED_EDGE('',*,*,#537,.F.);
#767=ORIENTED_EDGE('',*,*,#538,.T.);
#768=ORIENTED_EDGE('',*,*,#432,.T.);
#769=ORIENTED_EDGE('',*,*,#539,.T.);
#770=ORIENTED_EDGE('',*,*,#537,.T.);
#771=ORIENTED_EDGE('',*,*,#513,.T.);
#772=ORIENTED_EDGE('',*,*,#421,.T.);
#773=ORIENTED_EDGE('',*,*,#436,.F.);
#774=ORIENTED_EDGE('',*,*,#536,.F.);
#775=ORIENTED_EDGE('',*,*,#538,.F.);
#776=ORIENTED_EDGE('',*,*,#539,.F.);
#777=ORIENTED_EDGE('',*,*,#431,.T.);
#778=PLANE('',#867);
#779=PLANE('',#868);
#780=PLANE('',#869);
#781=PLANE('',#870);
#782=PLANE('',#872);
#783=PLANE('',#873);
#784=PLANE('',#879);
#785=PLANE('',#880);
#786=PLANE('',#881);
#787=PLANE('',#882);
#788=PLANE('',#885);
#789=PLANE('',#891);
#790=PLANE('',#900);
#791=PLANE('',#903);
#792=PLANE('',#906);
#793=PLANE('',#917);
#794=PLANE('',#923);
#795=PLANE('',#926);
#796=PLANE('',#929);
#797=PLANE('',#932);
#798=PLANE('',#937);
#799=PLANE('',#942);
#800=PLANE('',#945);
#801=ADVANCED_FACE('',(#96),#778,.F.);
#802=ADVANCED_FACE('',(#97),#779,.F.);
#803=ADVANCED_FACE('',(#98),#780,.F.);
#804=ADVANCED_FACE('',(#99),#781,.F.);
#805=ADVANCED_FACE('',(#100),#782,.T.);
#806=ADVANCED_FACE('',(#101,#60),#783,.T.);
#807=ADVANCED_FACE('',(#102),#784,.T.);
#808=ADVANCED_FACE('',(#103),#785,.T.);
#809=ADVANCED_FACE('',(#104),#52,.T.);
#810=ADVANCED_FACE('',(#105),#53,.T.);
#811=ADVANCED_FACE('',(#106),#786,.T.);
#812=ADVANCED_FACE('',(#107),#54,.T.);
#813=ADVANCED_FACE('',(#108),#55,.T.);
#814=ADVANCED_FACE('',(#109),#56,.T.);
#815=ADVANCED_FACE('',(#110),#57,.T.);
#816=ADVANCED_FACE('',(#111),#787,.T.);
#817=ADVANCED_FACE('',(#112),#26,.T.);
#818=ADVANCED_FACE('',(#113,#61,#62),#788,.T.);
#819=ADVANCED_FACE('',(#114),#27,.F.);
#820=ADVANCED_FACE('',(#115),#789,.T.);
#821=ADVANCED_FACE('',(#116),#58,.F.);
#822=ADVANCED_FACE('',(#117),#28,.T.);
#823=ADVANCED_FACE('',(#118),#59,.F.);
#824=ADVANCED_FACE('',(#119),#29,.T.);
#825=ADVANCED_FACE('',(#120),#790,.F.);
#826=ADVANCED_FACE('',(#121),#30,.F.);
#827=ADVANCED_FACE('',(#122),#791,.F.);
#828=ADVANCED_FACE('',(#123),#31,.F.);
#829=ADVANCED_FACE('',(#124),#792,.T.);
#830=ADVANCED_FACE('',(#125),#32,.F.);
#831=ADVANCED_FACE('',(#126),#20,.F.);
#832=ADVANCED_FACE('',(#127),#33,.F.);
#833=ADVANCED_FACE('',(#128),#21,.F.);
#834=ADVANCED_FACE('',(#129),#34,.T.);
#835=ADVANCED_FACE('',(#130),#793,.T.);
#836=ADVANCED_FACE('',(#131),#15,.F.);
#837=ADVANCED_FACE('',(#132),#35,.F.);
#838=ADVANCED_FACE('',(#133,#63),#794,.T.);
#839=ADVANCED_FACE('',(#134),#16,.F.);
#840=ADVANCED_FACE('',(#135,#64),#795,.T.);
#841=ADVANCED_FACE('',(#136),#17,.T.);
#842=ADVANCED_FACE('',(#137),#796,.T.);
#843=ADVANCED_FACE('',(#138),#18,.T.);
#844=ADVANCED_FACE('',(#139),#797,.T.);
#845=ADVANCED_FACE('',(#140),#19,.T.);
#846=ADVANCED_FACE('',(#141),#36,.T.);
#847=ADVANCED_FACE('',(#142),#798,.T.);
#848=ADVANCED_FACE('',(#143),#37,.T.);
#849=ADVANCED_FACE('',(#144),#38,.T.);
#850=ADVANCED_FACE('',(#145),#799,.F.);
#851=ADVANCED_FACE('',(#146),#39,.T.);
#852=ADVANCED_FACE('',(#147),#800,.T.);
#853=CLOSED_SHELL('',(#801,#802,#803,#804,#805,#806,#807,#808,#809,#810,
#811,#812,#813,#814,#815,#816,#817,#818,#819,#820,#821,#822,#823,#824,#825,
#826,#827,#828,#829,#830,#831,#832,#833,#834,#835,#836,#837,#838,#839,#840,
#841,#842,#843,#844,#845,#846,#847,#848,#849,#850,#851,#852));
#854=DERIVED_UNIT_ELEMENT(#856,1.);
#855=DERIVED_UNIT_ELEMENT(#1722,-3.);
#856=(
MASS_UNIT()
NAMED_UNIT(*)
SI_UNIT(.KILO.,.GRAM.)
);
#857=DERIVED_UNIT((#854,#855));
#858=MEASURE_REPRESENTATION_ITEM('density measure',
POSITIVE_RATIO_MEASURE(7850.),#857);
#859=PROPERTY_DEFINITION_REPRESENTATION(#864,#861);
#860=PROPERTY_DEFINITION_REPRESENTATION(#865,#862);
#861=REPRESENTATION('material name',(#863),#1719);
#862=REPRESENTATION('density',(#858),#1719);
#863=DESCRIPTIVE_REPRESENTATION_ITEM('Steel','Steel');
#864=PROPERTY_DEFINITION('material property','material name',#1729);
#865=PROPERTY_DEFINITION('material property','density of part',#1729);
#866=AXIS2_PLACEMENT_3D('',#1178,#946,#947);
#867=AXIS2_PLACEMENT_3D('',#1179,#948,#949);
#868=AXIS2_PLACEMENT_3D('',#1188,#954,#955);
#869=AXIS2_PLACEMENT_3D('',#1197,#960,#961);
#870=AXIS2_PLACEMENT_3D('',#1200,#964,#965);
#871=AXIS2_PLACEMENT_3D('',#1204,#967,#968);
#872=AXIS2_PLACEMENT_3D('',#1206,#970,#971);
#873=AXIS2_PLACEMENT_3D('',#1212,#975,#976);
#874=AXIS2_PLACEMENT_3D('',#1216,#978,#979);
#875=AXIS2_PLACEMENT_3D('',#1220,#981,#982);
#876=AXIS2_PLACEMENT_3D('',#1223,#984,#985);
#877=AXIS2_PLACEMENT_3D('',#1228,#987,#988);
#878=AXIS2_PLACEMENT_3D('',#1231,#990,#991);
#879=AXIS2_PLACEMENT_3D('',#1232,#992,#993);
#880=AXIS2_PLACEMENT_3D('',#1236,#996,#997);
#881=AXIS2_PLACEMENT_3D('',#1335,#1004,#1005);
#882=AXIS2_PLACEMENT_3D('',#1482,#1012,#1013);
#883=AXIS2_PLACEMENT_3D('',#1488,#1017,#1018);
#884=AXIS2_PLACEMENT_3D('',#1491,#1020,#1021);
#885=AXIS2_PLACEMENT_3D('',#1492,#1022,#1023);
#886=AXIS2_PLACEMENT_3D('',#1495,#1024,#1025);
#887=AXIS2_PLACEMENT_3D('',#1499,#1027,#1028);
#888=AXIS2_PLACEMENT_3D('',#1502,#1030,#1031);
#889=AXIS2_PLACEMENT_3D('',#1503,#1032,#1033);
#890=AXIS2_PLACEMENT_3D('',#1506,#1035,#1036);
#891=AXIS2_PLACEMENT_3D('',#1507,#1037,#1038);
#892=AXIS2_PLACEMENT_3D('',#1563,#1039,#1040);
#893=AXIS2_PLACEMENT_3D('',#1565,#1041,#1042);
#894=AXIS2_PLACEMENT_3D('',#1566,#1043,#1044);
#895=AXIS2_PLACEMENT_3D('',#1567,#1045,#1046);
#896=AXIS2_PLACEMENT_3D('',#1569,#1047,#1048);
#897=AXIS2_PLACEMENT_3D('',#1617,#1050,#1051);
#898=AXIS2_PLACEMENT_3D('',#1618,#1052,#1053);
#899=AXIS2_PLACEMENT_3D('',#1619,#1054,#1055);
#900=AXIS2_PLACEMENT_3D('',#1621,#1057,#1058);
#901=AXIS2_PLACEMENT_3D('',#1627,#1062,#1063);
#902=AXIS2_PLACEMENT_3D('',#1630,#1065,#1066);
#903=AXIS2_PLACEMENT_3D('',#1631,#1067,#1068);
#904=AXIS2_PLACEMENT_3D('',#1635,#1071,#1072);
#905=AXIS2_PLACEMENT_3D('',#1636,#1073,#1074);
#906=AXIS2_PLACEMENT_3D('',#1637,#1075,#1076);
#907=AXIS2_PLACEMENT_3D('',#1638,#1077,#1078);
#908=AXIS2_PLACEMENT_3D('',#1639,#1079,#1080);
#909=AXIS2_PLACEMENT_3D('',#1642,#1082,#1083);
#910=AXIS2_PLACEMENT_3D('',#1643,#1084,#1085);
#911=AXIS2_PLACEMENT_3D('',#1644,#1086,#1087);
#912=AXIS2_PLACEMENT_3D('',#1645,#1088,#1089);
#913=AXIS2_PLACEMENT_3D('',#1646,#1090,#1091);
#914=AXIS2_PLACEMENT_3D('',#1647,#1092,#1093);
#915=AXIS2_PLACEMENT_3D('',#1648,#1094,#1095);
#916=AXIS2_PLACEMENT_3D('',#1649,#1096,#1097);
#917=AXIS2_PLACEMENT_3D('',#1651,#1099,#1100);
#918=AXIS2_PLACEMENT_3D('',#1652,#1101,#1102);
#919=AXIS2_PLACEMENT_3D('',#1654,#1103,#1104);
#920=AXIS2_PLACEMENT_3D('',#1657,#1106,#1107);
#921=AXIS2_PLACEMENT_3D('',#1658,#1108,#1109);
#922=AXIS2_PLACEMENT_3D('',#1660,#1110,#1111);
#923=AXIS2_PLACEMENT_3D('',#1662,#1113,#1114);
#924=AXIS2_PLACEMENT_3D('',#1668,#1118,#1119);
#925=AXIS2_PLACEMENT_3D('',#1670,#1120,#1121);
#926=AXIS2_PLACEMENT_3D('',#1672,#1123,#1124);
#927=AXIS2_PLACEMENT_3D('',#1681,#1129,#1130);
#928=AXIS2_PLACEMENT_3D('',#1683,#1131,#1132);
#929=AXIS2_PLACEMENT_3D('',#1685,#1134,#1135);
#930=AXIS2_PLACEMENT_3D('',#1689,#1138,#1139);
#931=AXIS2_PLACEMENT_3D('',#1690,#1140,#1141);
#932=AXIS2_PLACEMENT_3D('',#1692,#1143,#1144);
#933=AXIS2_PLACEMENT_3D('',#1694,#1146,#1147);
#934=AXIS2_PLACEMENT_3D('',#1695,#1148,#1149);
#935=AXIS2_PLACEMENT_3D('',#1696,#1150,#1151);
#936=AXIS2_PLACEMENT_3D('',#1699,#1153,#1154);
#937=AXIS2_PLACEMENT_3D('',#1700,#1155,#1156);
#938=AXIS2_PLACEMENT_3D('',#1704,#1159,#1160);
#939=AXIS2_PLACEMENT_3D('',#1705,#1161,#1162);
#940=AXIS2_PLACEMENT_3D('',#1706,#1163,#1164);
#941=AXIS2_PLACEMENT_3D('',#1708,#1165,#1166);
#942=AXIS2_PLACEMENT_3D('',#1710,#1168,#1169);
#943=AXIS2_PLACEMENT_3D('',#1712,#1170,#1171);
#944=AXIS2_PLACEMENT_3D('',#1714,#1173,#1174);
#945=AXIS2_PLACEMENT_3D('',#1716,#1176,#1177);
#946=DIRECTION('axis',(0.,0.,1.));
#947=DIRECTION('refdir',(1.,0.,0.));
#948=DIRECTION('center_axis',(-2.22044585734443E-16,0.,-1.));
#949=DIRECTION('ref_axis',(1.,0.,-2.22044585734443E-16));
#950=DIRECTION('',(0.,1.,0.));
#951=DIRECTION('',(1.,0.,-2.22044585734443E-16));
#952=DIRECTION('',(0.,-1.,0.));
#953=DIRECTION('',(0.707106781186548,0.707106781186547,-1.57009232298582E-16));
#954=DIRECTION('center_axis',(1.,0.,0.));
#955=DIRECTION('ref_axis',(0.,0.,1.));
#956=DIRECTION('',(0.,-0.707106781186547,0.707106781186548));
#957=DIRECTION('',(0.,-1.,0.));
#958=DIRECTION('',(0.,0.,1.));
#959=DIRECTION('',(0.,-1.,0.));
#960=DIRECTION('center_axis',(0.729537215132413,0.,-0.68394111715618));
#961=DIRECTION('ref_axis',(0.68394111715618,0.,0.729537215132413));
#962=DIRECTION('',(0.68394111715618,0.,0.729537215132413));
#963=DIRECTION('',(0.68394111715618,0.,0.729537215132413));
#964=DIRECTION('center_axis',(0.,-1.,0.));
#965=DIRECTION('ref_axis',(0.,0.,-1.));
#966=DIRECTION('',(0.,0.,-1.));
#967=DIRECTION('center_axis',(0.,-1.,0.));
#968=DIRECTION('ref_axis',(-0.707106781186547,0.,0.707106781186547));
#969=DIRECTION('',(-1.,0.,0.));
#970=DIRECTION('center_axis',(-0.707106781186547,0.707106781186548,0.));
#971=DIRECTION('ref_axis',(0.,0.,1.));
#972=DIRECTION('',(0.,0.,-1.));
#973=DIRECTION('',(0.707106781186546,0.707106781186549,0.));
#974=DIRECTION('',(0.,0.,1.));
#975=DIRECTION('center_axis',(0.,1.,0.));
#976=DIRECTION('ref_axis',(0.,0.,1.));
#977=DIRECTION('',(-1.,0.,0.));
#978=DIRECTION('center_axis',(0.,-1.,0.));
#979=DIRECTION('ref_axis',(0.707106781186548,0.,0.707106781186548));
#980=DIRECTION('',(0.,0.,1.));
#981=DIRECTION('center_axis',(0.,-1.,0.));
#982=DIRECTION('ref_axis',(0.707106781186548,0.,-0.707106781186548));
#983=DIRECTION('',(1.,0.,0.));
#984=DIRECTION('center_axis',(0.,-1.,0.));
#985=DIRECTION('ref_axis',(-0.707106781186548,0.,-0.707106781186548));
#986=DIRECTION('',(1.,0.,-1.00929365875014E-16));
#987=DIRECTION('center_axis',(0.,1.,0.));
#988=DIRECTION('ref_axis',(-1.,0.,-6.12323399573677E-17));
#989=DIRECTION('',(-1.,0.,1.00929365875014E-16));
#990=DIRECTION('center_axis',(0.,1.,0.));
#991=DIRECTION('ref_axis',(1.,0.,6.12323399573676E-17));
#992=DIRECTION('center_axis',(0.,0.707106781186548,0.707106781186547));
#993=DIRECTION('ref_axis',(1.,0.,0.));
#994=DIRECTION('',(1.,0.,0.));
#995=DIRECTION('',(0.,0.707106781186547,-0.707106781186548));
#996=DIRECTION('center_axis',(0.122787803968973,0.69636424032002,-0.707106781186547));
#997=DIRECTION('ref_axis',(-0.985255774317392,0.,-0.171087869746036));
#998=DIRECTION('',(0.122787803968971,0.696364240320018,0.707106781186548));
#999=DIRECTION('',(0.984807753012208,-0.17364817766693,-9.93960220203198E-17));
#1000=DIRECTION('',(-0.122787803968974,-0.696364240320018,-0.707106781186548));
#1001=DIRECTION('',(-0.984807753012208,0.17364817766693,9.93960220203198E-17));
#1002=DIRECTION('',(0.122880338502897,0.696889029739954,-0.706573494151542));
#1003=DIRECTION('',(-0.122880338502897,-0.696889029739954,-0.706573494151542));
#1004=DIRECTION('center_axis',(0.122787803968973,0.696364240320019,0.707106781186548));
#1005=DIRECTION('ref_axis',(0.985255774317392,0.,-0.171087869746035));
#1006=DIRECTION('',(-0.122787803968974,-0.696364240320019,0.707106781186547));
#1007=DIRECTION('',(0.984807753012208,-0.17364817766693,-9.93960220203198E-17));
#1008=DIRECTION('',(0.122787803968974,0.696364240320019,-0.707106781186547));
#1009=DIRECTION('',(-0.984807753012208,0.17364817766693,9.93960220203198E-17));
#1010=DIRECTION('',(-0.11077941278049,-0.697940208152999,0.707536138686468));
#1011=DIRECTION('',(0.110779412780493,0.697940208152998,0.70753613868647));
#1012=DIRECTION('center_axis',(-1.00929365875014E-16,0.,-1.));
#1013=DIRECTION('ref_axis',(-1.,0.,1.00929365875014E-16));
#1014=DIRECTION('',(0.,1.,0.));
#1015=DIRECTION('',(1.,0.,-1.00929365875014E-16));
#1016=DIRECTION('',(0.,1.,0.));
#1017=DIRECTION('center_axis',(0.,1.,0.));
#1018=DIRECTION('ref_axis',(0.,0.,1.));
#1019=DIRECTION('',(0.,1.,0.));
#1020=DIRECTION('center_axis',(0.,-1.,0.));
#1021=DIRECTION('ref_axis',(1.,0.,6.12323399573676E-17));
#1022=DIRECTION('center_axis',(0.17364817766693,0.984807753012208,0.));
#1023=DIRECTION('ref_axis',(-0.984807753012208,0.17364817766693,0.));
#1024=DIRECTION('center_axis',(0.17364817766693,0.984807753012208,0.));
#1025=DIRECTION('ref_axis',(0.984807753012208,-0.17364817766693,0.));
#1026=DIRECTION('',(0.984807753012208,-0.17364817766693,0.));
#1027=DIRECTION('center_axis',(0.17364817766693,0.984807753012208,0.));
#1028=DIRECTION('ref_axis',(-0.984807753012208,0.17364817766693,0.));
#1029=DIRECTION('',(-0.984807753012208,0.17364817766693,0.));
#1030=DIRECTION('center_axis',(-0.17364817766693,-0.984807753012208,0.));
#1031=DIRECTION('ref_axis',(0.,0.,-1.));
#1032=DIRECTION('center_axis',(-0.17364817766693,-0.984807753012208,0.));
#1033=DIRECTION('ref_axis',(0.,0.,-1.));
#1034=DIRECTION('',(-0.17364817766693,-0.984807753012208,0.));
#1035=DIRECTION('center_axis',(-0.17364817766693,-0.984807753012208,0.));
#1036=DIRECTION('ref_axis',(0.,0.,-1.));
#1037=DIRECTION('center_axis',(0.17364817766693,0.984807753012208,0.));
#1038=DIRECTION('ref_axis',(0.,0.,-1.));
#1039=DIRECTION('center_axis',(0.984807753012208,-0.173648177666929,0.));
#1040=DIRECTION('ref_axis',(0.173648177666929,0.984807753012208,0.));
#1041=DIRECTION('center_axis',(-0.207009078950658,-0.978339021623895,0.));
#1042=DIRECTION('ref_axis',(0.978339021623895,-0.207009078950658,0.));
#1043=DIRECTION('center_axis',(0.984807753012208,-0.173648177666929,0.));
#1044=DIRECTION('ref_axis',(0.,0.,-1.));
#1045=DIRECTION('center_axis',(-0.984807753012208,0.17364817766693,0.));
#1046=DIRECTION('ref_axis',(0.122787803968974,0.69636424032002,-0.707106781186547));
#1047=DIRECTION('center_axis',(0.984807753012208,-0.173648177666929,2.18671248444704E-15));
#1048=DIRECTION('ref_axis',(2.22044604925031E-15,0.,-1.));
#1049=DIRECTION('',(-0.984807753012208,0.17364817766693,0.));
#1050=DIRECTION('center_axis',(-0.984807753012208,0.173648177666929,0.));
#1051=DIRECTION('ref_axis',(0.,0.,1.));
#1052=DIRECTION('center_axis',(-0.207009078950658,-0.978339021623895,0.));
#1053=DIRECTION('ref_axis',(-0.978339021623895,0.207009078950658,0.));
#1054=DIRECTION('center_axis',(0.984807753012208,-0.17364817766693,0.));
#1055=DIRECTION('ref_axis',(0.122787803968974,0.69636424032002,0.707106781186547));
#1056=DIRECTION('',(0.984807753012208,-0.17364817766693,0.));
#1057=DIRECTION('center_axis',(0.,0.,1.));
#1058=DIRECTION('ref_axis',(-1.,0.,0.));
#1059=DIRECTION('',(0.,-1.,0.));
#1060=DIRECTION('',(-1.,0.,0.));
#1061=DIRECTION('',(0.,-1.,0.));
#1062=DIRECTION('center_axis',(0.,-1.,0.));
#1063=DIRECTION('ref_axis',(0.,0.,1.));
#1064=DIRECTION('',(0.,-1.,0.));
#1065=DIRECTION('center_axis',(0.,-1.,0.));
#1066=DIRECTION('ref_axis',(0.,0.,1.));
#1067=DIRECTION('center_axis',(0.,0.,-1.));
#1068=DIRECTION('ref_axis',(1.,0.,0.));
#1069=DIRECTION('',(0.,-1.,0.));
#1070=DIRECTION('',(1.,0.,0.));
#1071=DIRECTION('center_axis',(0.,-1.,0.));
#1072=DIRECTION('ref_axis',(0.,0.,-1.));
#1073=DIRECTION('center_axis',(0.,-1.,0.));
#1074=DIRECTION('ref_axis',(0.,0.,-1.));
#1075=DIRECTION('center_axis',(0.,1.,0.));
#1076=DIRECTION('ref_axis',(1.,0.,0.));
#1077=DIRECTION('center_axis',(-1.,0.,1.00929365875014E-16));
#1078=DIRECTION('ref_axis',(0.,-0.707106781186547,-0.707106781186547));
#1079=DIRECTION('center_axis',(1.,0.,-1.77635683940025E-15));
#1080=DIRECTION('ref_axis',(0.,-1.,0.));
#1081=DIRECTION('',(-1.,0.,1.00929365875014E-16));
#1082=DIRECTION('center_axis',(-1.,0.,0.));
#1083=DIRECTION('ref_axis',(0.,0.,-1.));
#1084=DIRECTION('center_axis',(0.,-1.,0.));
#1085=DIRECTION('ref_axis',(0.,0.,-1.));
#1086=DIRECTION('center_axis',(1.,0.,0.));
#1087=DIRECTION('ref_axis',(0.,0.,1.));
#1088=DIRECTION('center_axis',(0.,-1.,0.));
#1089=DIRECTION('ref_axis',(-1.,0.,-6.12323399573677E-17));
#1090=DIRECTION('center_axis',(1.,0.,-1.00929365875014E-16));
#1091=DIRECTION('ref_axis',(0.,-0.707106781186547,0.707106781186547));
#1092=DIRECTION('center_axis',(1.,0.,0.));
#1093=DIRECTION('ref_axis',(0.,0.,1.));
#1094=DIRECTION('center_axis',(0.,-1.,0.));
#1095=DIRECTION('ref_axis',(0.,0.,-1.));
#1096=DIRECTION('center_axis',(0.,1.,0.));
#1097=DIRECTION('ref_axis',(0.,0.,-1.));
#1098=DIRECTION('',(0.,1.,0.));
#1099=DIRECTION('center_axis',(1.00929365875014E-16,0.,1.));
#1100=DIRECTION('ref_axis',(1.,0.,-1.00929365875014E-16));
#1101=DIRECTION('center_axis',(0.,0.,1.));
#1102=DIRECTION('ref_axis',(-1.,0.,0.));
#1103=DIRECTION('center_axis',(0.,0.,1.));
#1104=DIRECTION('ref_axis',(-1.,0.,0.));
#1105=DIRECTION('',(-0.707106781186549,-8.65956056235495E-17,-0.707106781186546));
#1106=DIRECTION('center_axis',(0.,0.,-1.));
#1107=DIRECTION('ref_axis',(-1.,0.,0.));
#1108=DIRECTION('center_axis',(0.,0.,1.));
#1109=DIRECTION('ref_axis',(-1.,0.,0.));
#1110=DIRECTION('center_axis',(0.,0.,1.));
#1111=DIRECTION('ref_axis',(-1.,0.,0.));
#1112=DIRECTION('',(0.,0.,1.));
#1113=DIRECTION('center_axis',(0.,0.,1.));
#1114=DIRECTION('ref_axis',(1.,0.,0.));
#1115=DIRECTION('',(0.,1.,0.));
#1116=DIRECTION('',(-1.,0.,0.));
#1117=DIRECTION('',(0.,-1.,0.));
#1118=DIRECTION('center_axis',(0.,0.,-1.));
#1119=DIRECTION('ref_axis',(-1.,0.,0.));
#1120=DIRECTION('center_axis',(0.,0.,-1.));
#1121=DIRECTION('ref_axis',(-1.,0.,0.));
#1122=DIRECTION('',(-0.707106781186547,8.65956056235493E-17,0.707106781186548));
#1123=DIRECTION('center_axis',(0.,0.,-1.));
#1124=DIRECTION('ref_axis',(-1.,0.,0.));
#1125=DIRECTION('',(-1.,0.,0.));
#1126=DIRECTION('',(0.,1.,0.));
#1127=DIRECTION('',(1.,0.,0.));
#1128=DIRECTION('',(0.,-1.,0.));
#1129=DIRECTION('center_axis',(0.,-1.,0.));
#1130=DIRECTION('ref_axis',(0.707106781186548,0.,0.707106781186548));
#1131=DIRECTION('center_axis',(0.,1.,0.));
#1132=DIRECTION('ref_axis',(0.707106781186547,0.,0.707106781186547));
#1133=DIRECTION('',(-0.707106781186546,0.707106781186549,0.));
#1134=DIRECTION('center_axis',(0.707106781186547,0.707106781186548,0.));
#1135=DIRECTION('ref_axis',(0.,0.,-1.));
#1136=DIRECTION('',(-0.707106781186548,0.707106781186547,0.));
#1137=DIRECTION('',(0.,0.,-1.));
#1138=DIRECTION('center_axis',(0.,-1.,0.));
#1139=DIRECTION('ref_axis',(0.707106781186548,0.,-0.707106781186548));
#1140=DIRECTION('center_axis',(0.,1.,0.));
#1141=DIRECTION('ref_axis',(0.707106781186547,0.,-0.707106781186547));
#1142=DIRECTION('',(0.,0.707106781186548,0.707106781186547));
#1143=DIRECTION('center_axis',(0.,0.707106781186548,-0.707106781186547));
#1144=DIRECTION('ref_axis',(-1.,0.,0.));
#1145=DIRECTION('',(0.,0.707106781186547,0.707106781186548));
#1146=DIRECTION('center_axis',(0.,-1.,0.));
#1147=DIRECTION('ref_axis',(-0.707106781186548,0.,-0.707106781186548));
#1148=DIRECTION('center_axis',(0.,1.,0.));
#1149=DIRECTION('ref_axis',(-0.707106781186547,0.,-0.707106781186547));
#1150=DIRECTION('center_axis',(0.,1.,0.));
#1151=DIRECTION('ref_axis',(0.707106781186547,0.,-0.707106781186547));
#1152=DIRECTION('',(0.,-1.,0.));
#1153=DIRECTION('center_axis',(0.,1.,0.));
#1154=DIRECTION('ref_axis',(0.707106781186547,0.,-0.707106781186547));
#1155=DIRECTION('center_axis',(1.,0.,0.));
#1156=DIRECTION('ref_axis',(0.,0.,-1.));
#1157=DIRECTION('',(0.,1.,0.));
#1158=DIRECTION('',(0.,0.,1.));
#1159=DIRECTION('center_axis',(0.,1.,0.));
#1160=DIRECTION('ref_axis',(0.707106781186547,0.,0.707106781186547));
#1161=DIRECTION('center_axis',(0.,1.,0.));
#1162=DIRECTION('ref_axis',(0.707106781186547,0.,0.707106781186547));
#1163=DIRECTION('center_axis',(0.,1.,0.));
#1164=DIRECTION('ref_axis',(-0.707106781186547,0.,-0.707106781186547));
#1165=DIRECTION('center_axis',(0.,1.,0.));
#1166=DIRECTION('ref_axis',(-0.707106781186547,0.,-0.707106781186547));
#1167=DIRECTION('',(0.,1.,0.));
#1168=DIRECTION('center_axis',(0.,1.,0.));
#1169=DIRECTION('ref_axis',(1.,0.,0.));
#1170=DIRECTION('center_axis',(0.,1.,0.));
#1171=DIRECTION('ref_axis',(-0.707106781186547,0.,0.707106781186547));
#1172=DIRECTION('',(0.,0.,-1.));
#1173=DIRECTION('center_axis',(0.,1.,0.));
#1174=DIRECTION('ref_axis',(-0.707106781186547,0.,0.707106781186547));
#1175=DIRECTION('',(0.,-1.,0.));
#1176=DIRECTION('center_axis',(-1.,0.,0.));
#1177=DIRECTION('ref_axis',(0.,0.,1.));
#1178=CARTESIAN_POINT('',(0.,0.,0.));
#1179=CARTESIAN_POINT('Origin',(-58.0000008642673,15.,1.15154352900824));
#1180=CARTESIAN_POINT('',(-50.,8.,1.15154352900824));
#1181=CARTESIAN_POINT('',(-50.,13.,1.15154352900824));
#1182=CARTESIAN_POINT('',(-50.,7.5,1.15154352900824));
#1183=CARTESIAN_POINT('',(-48.,8.,1.15154352900824));
#1184=CARTESIAN_POINT('',(-58.0000008642673,8.,1.15154352900824));
#1185=CARTESIAN_POINT('',(-48.,15.,1.15154352900824));
#1186=CARTESIAN_POINT('',(-48.,15.,1.15154352900824));
#1187=CARTESIAN_POINT('',(-51.0000002160668,11.9999997839332,1.15154352900824));
#1188=CARTESIAN_POINT('Origin',(-27.5170727182217,15.,23.));
#1189=CARTESIAN_POINT('',(-27.5170727182217,15.,23.));
#1190=CARTESIAN_POINT('',(-27.5170727182217,13.,25.));
#1191=CARTESIAN_POINT('',(-27.5170727182217,14.5,23.5));
#1192=CARTESIAN_POINT('',(-27.5170727182217,8.,23.));
#1193=CARTESIAN_POINT('',(-27.5170727182217,15.,23.));
#1194=CARTESIAN_POINT('',(-27.5170727182217,8.,25.));
#1195=CARTESIAN_POINT('',(-27.5170727182217,8.,23.));
#1196=CARTESIAN_POINT('',(-27.5170727182217,7.5,25.));
#1197=CARTESIAN_POINT('Origin',(-48.,15.,1.15154352900824));
#1198=CARTESIAN_POINT('',(-37.0606765246237,15.,12.8201556119345));
#1199=CARTESIAN_POINT('',(-48.,8.,1.15154352900824));
#1200=CARTESIAN_POINT('Origin',(-42.7585367912445,8.,16.5757720029227));
#1201=CARTESIAN_POINT('',(-50.,8.,15.));
#1202=CARTESIAN_POINT('',(-50.,8.,-4.21211399853865));
#1203=CARTESIAN_POINT('',(-40.,8.,25.));
#1204=CARTESIAN_POINT('Origin',(-40.,8.,15.));
#1205=CARTESIAN_POINT('',(-46.3792683956223,8.,25.));
#1206=CARTESIAN_POINT('Origin',(-49.,14.,-12.5));
#1207=CARTESIAN_POINT('',(-48.,15.,-15.));
#1208=CARTESIAN_POINT('',(-48.,15.,-12.5));
#1209=CARTESIAN_POINT('',(-50.,13.,-15.));
#1210=CARTESIAN_POINT('',(-50.,13.,-15.));
#1211=CARTESIAN_POINT('',(-50.,13.,-12.5));
#1212=CARTESIAN_POINT('Origin',(0.,15.,0.));
#1213=CARTESIAN_POINT('',(40.,15.,23.));
#1214=CARTESIAN_POINT('',(-25.,15.,23.));
#1215=CARTESIAN_POINT('',(48.,15.,15.));
#1216=CARTESIAN_POINT('Origin',(40.,15.,15.));
#1217=CARTESIAN_POINT('',(48.,15.,-15.));
#1218=CARTESIAN_POINT('',(48.,15.,12.5));
#1219=CARTESIAN_POINT('',(40.,15.,-23.));
#1220=CARTESIAN_POINT('Origin',(40.,15.,-15.));
#1221=CARTESIAN_POINT('',(-40.,15.,-23.));
#1222=CARTESIAN_POINT('',(25.,15.,-23.));
#1223=CARTESIAN_POINT('Origin',(-40.,15.,-15.));
#1224=CARTESIAN_POINT('',(-25.1519224698779,15.,12.5));
#1225=CARTESIAN_POINT('',(29.8480775301221,15.,12.5));
#1226=CARTESIAN_POINT('',(-12.575961234939,15.,12.5));
#1227=CARTESIAN_POINT('',(-25.1519224698779,15.,-12.5));
#1228=CARTESIAN_POINT('Origin',(-25.1519224698779,15.,-1.11022302462516E-15));
#1229=CARTESIAN_POINT('',(29.8480775301221,15.,-12.5));
#1230=CARTESIAN_POINT('',(14.924038765061,15.,-12.5));
#1231=CARTESIAN_POINT('Origin',(29.8480775301221,15.,-7.04301576281721E-15));
#1232=CARTESIAN_POINT('Origin',(-25.,14.,24.));
#1233=CARTESIAN_POINT('',(40.,13.,25.));
#1234=CARTESIAN_POINT('',(-25.,13.,25.));
#1235=CARTESIAN_POINT('',(40.,13.,25.));
#1236=CARTESIAN_POINT('Origin',(17.4597090078035,32.9559944214442,-9.5));
#1237=CARTESIAN_POINT('',(-25.1519224698779,39.9618614370227,-9.99999999999999));
#1238=CARTESIAN_POINT('',(-24.978274292211,40.9466691900349,-9.));
#1239=CARTESIAN_POINT('',(-25.1519224698779,39.9618614370227,-9.99999999999999));
#1240=CARTESIAN_POINT('',(29.8480775301221,31.2793041099429,-9.));
#1241=CARTESIAN_POINT('',(17.546533096637,33.4483982979503,-9.));
#1242=CARTESIAN_POINT('',(29.6744293524551,30.2944963569307,-10.));
#1243=CARTESIAN_POINT('',(29.8480775301221,31.2793041099429,-9.));
#1244=CARTESIAN_POINT('',(17.3728849189701,32.4635905449381,-10.));
#1245=CARTESIAN_POINT('Ctrl Pts',(-25.1519224698779,40.9772880489085,-8.99999999999999));
#1246=CARTESIAN_POINT('Ctrl Pts',(-26.502830302833,41.2154895483088,-8.99999999999999));
#1247=CARTESIAN_POINT('Ctrl Pts',(-29.2044767775811,41.6918627141428,-8.38401889436119));
#1248=CARTESIAN_POINT('Ctrl Pts',(-32.4458147749153,42.2633980566684,-5.79555597757702));
#1249=CARTESIAN_POINT('Ctrl Pts',(-34.2425744168788,42.5802152593946,-2.06711154145173));
#1250=CARTESIAN_POINT('Ctrl Pts',(-34.2404252947422,42.5798363111771,2.06683431332381));
#1251=CARTESIAN_POINT('Ctrl Pts',(-32.4477431857151,42.2637380875223,5.79672872066252));
#1252=CARTESIAN_POINT('Ctrl Pts',(-29.2032657217925,41.6916491723322,8.38313195947411));
#1253=CARTESIAN_POINT('Ctrl Pts',(-26.502830302833,41.2154895483088,8.99999999999999));
#1254=CARTESIAN_POINT('Ctrl Pts',(-25.1519224698779,40.9772880489085,8.99999999999999));
#1255=CARTESIAN_POINT('Ctrl Pts',(-25.2098051299703,40.6490191710556,-9.33283073509167));
#1256=CARTESIAN_POINT('Ctrl Pts',(-26.609000663989,40.8957483527548,-9.3241715093909));
#1257=CARTESIAN_POINT('Ctrl Pts',(-29.3990991689364,41.3884742788241,-8.66909029380837));
#1258=CARTESIAN_POINT('Ctrl Pts',(-32.7311231853813,41.9784742614393,-5.98016136362143));
#1259=CARTESIAN_POINT('Ctrl Pts',(-34.5727159285653,42.305178798058,-2.13059275775446));
#1260=CARTESIAN_POINT('Ctrl Pts',(-34.5705655806965,42.3047916953055,2.13032773796251));
#1261=CARTESIAN_POINT('Ctrl Pts',(-32.7330823649965,41.9788223518575,5.98129813844125));
#1262=CARTESIAN_POINT('Ctrl Pts',(-29.3978592100417,41.3882552770481,8.66822638410862));
#1263=CARTESIAN_POINT('Ctrl Pts',(-26.609000663989,40.8957483527548,9.32417150939089));
#1264=CARTESIAN_POINT('Ctrl Pts',(-25.2098051299703,40.6490191710556,9.33283073509167));
#1265=CARTESIAN_POINT('Ctrl Pts',(-25.2676877900626,40.3207502932028,-9.66566147018335));
#1266=CARTESIAN_POINT('Ctrl Pts',(-26.715171025145,40.5760071572008,-9.6483430187818));
#1267=CARTESIAN_POINT('Ctrl Pts',(-29.5937215602917,41.0850858435054,-8.95416169325555));
#1268=CARTESIAN_POINT('Ctrl Pts',(-33.0164315958473,41.6935504662101,-6.16476674966584));
#1269=CARTESIAN_POINT('Ctrl Pts',(-34.9028574402517,42.0301423367213,-2.19407397405718));
#1270=CARTESIAN_POINT('Ctrl Pts',(-34.9007058666508,42.0297470794339,2.1938211626012));
#1271=CARTESIAN_POINT('Ctrl Pts',(-33.018421544278,41.6939066161928,6.16586755621997));
#1272=CARTESIAN_POINT('Ctrl Pts',(-29.592452698291,41.0848613817641,8.95332080874313));
#1273=CARTESIAN_POINT('Ctrl Pts',(-26.715171025145,40.5760071572008,9.64834301878179));
#1274=CARTESIAN_POINT('Ctrl Pts',(-25.2676877900626,40.3207502932028,9.66566147018335));
#1275=CARTESIAN_POINT('Ctrl Pts',(-25.325570450155,39.99248141535,-9.99849220527503));
#1276=CARTESIAN_POINT('Ctrl Pts',(-26.821341386301,40.2562659616468,-9.9725145281727));
#1277=CARTESIAN_POINT('Ctrl Pts',(-29.788343951647,40.7816974081867,-9.23923309270273));
#1278=CARTESIAN_POINT('Ctrl Pts',(-33.3017400063134,41.4086266709811,-6.34937213571025));
#1279=CARTESIAN_POINT('Ctrl Pts',(-35.2329989519381,41.7551058753846,-2.25755519035991));
#1280=CARTESIAN_POINT('Ctrl Pts',(-35.2308461526051,41.7547024635623,2.25731458723989));
#1281=CARTESIAN_POINT('Ctrl Pts',(-33.3037607235595,41.408990880528,6.3504369739987));
#1282=CARTESIAN_POINT('Ctrl Pts',(-29.7870461865402,40.78146748648,9.23841523337764));
#1283=CARTESIAN_POINT('Ctrl Pts',(-26.821341386301,40.2562659616468,9.9725145281727));
#1284=CARTESIAN_POINT('Ctrl Pts',(-25.3255704501549,39.99248141535,9.99849220527503));
#1285=CARTESIAN_POINT('',(-25.3255704501549,39.99248141535,9.99849220527503));
#1286=CARTESIAN_POINT('',(-25.1519224698779,40.9772880489085,8.99999999999999));
#1287=CARTESIAN_POINT('',(-25.3255704501549,39.99248141535,9.99849220527503));
#1288=CARTESIAN_POINT('',(-25.1519224698779,40.9772880489085,-8.99999999999999));
#1289=CARTESIAN_POINT('Ctrl Pts',(-25.1519224698779,40.9772880489085,8.99999999999999));
#1290=CARTESIAN_POINT('Ctrl Pts',(-26.502830302833,41.2154895483088,8.99999999999999));
#1291=CARTESIAN_POINT('Ctrl Pts',(-29.2032657217925,41.6916491723322,8.38313195947411));
#1292=CARTESIAN_POINT('Ctrl Pts',(-32.4477431857151,42.2637380875223,5.79672872066252));
#1293=CARTESIAN_POINT('Ctrl Pts',(-34.2404252947422,42.5798363111771,2.06683431332381));
#1294=CARTESIAN_POINT('Ctrl Pts',(-34.2425744168788,42.5802152593946,-2.06711154145173));
#1295=CARTESIAN_POINT('Ctrl Pts',(-32.4458147749153,42.2633980566684,-5.79555597757702));
#1296=CARTESIAN_POINT('Ctrl Pts',(-29.2044767775811,41.6918627141428,-8.38401889436119));
#1297=CARTESIAN_POINT('Ctrl Pts',(-26.502830302833,41.2154895483088,-8.99999999999999));
#1298=CARTESIAN_POINT('Ctrl Pts',(-25.1519224698779,40.9772880489085,-8.99999999999999));
#1299=CARTESIAN_POINT('',(-25.325570450155,39.99248141535,-9.99849220527503));
#1300=CARTESIAN_POINT('',(-25.1519224698779,40.9772880489085,-8.99999999999999));
#1301=CARTESIAN_POINT('Ctrl Pts',(-25.325570450155,39.99248141535,-9.99849220527503));
#1302=CARTESIAN_POINT('Ctrl Pts',(-26.821341386301,40.2562659616468,-9.9725145281727));
#1303=CARTESIAN_POINT('Ctrl Pts',(-29.788343951647,40.7816974081867,-9.23923309270273));
#1304=CARTESIAN_POINT('Ctrl Pts',(-33.3017400063134,41.4086266709811,-6.34937213571025));
#1305=CARTESIAN_POINT('Ctrl Pts',(-35.2329989519381,41.7551058753846,-2.25755519035991));
#1306=CARTESIAN_POINT('Ctrl Pts',(-35.2308461526051,41.7547024635623,2.25731458723989));
#1307=CARTESIAN_POINT('Ctrl Pts',(-33.3037607235595,41.408990880528,6.3504369739987));
#1308=CARTESIAN_POINT('Ctrl Pts',(-29.7870461865402,40.78146748648,9.23841523337764));
#1309=CARTESIAN_POINT('Ctrl Pts',(-26.821341386301,40.2562659616468,9.9725145281727));
#1310=CARTESIAN_POINT('Ctrl Pts',(-25.3255704501549,39.99248141535,9.99849220527503));
#1311=CARTESIAN_POINT('Ctrl Pts',(-24.978274292211,40.9466691900349,-8.99999999999999));
#1312=CARTESIAN_POINT('Ctrl Pts',(-25.0361570181,40.9568754763261,-8.99999999999999));
#1313=CARTESIAN_POINT('Ctrl Pts',(-25.0940397439889,40.9670817626173,-8.99999999999999));
#1314=CARTESIAN_POINT('Ctrl Pts',(-25.1519224698779,40.9772880489085,-8.99999999999999));
#1315=CARTESIAN_POINT('Ctrl Pts',(-25.0361570181,40.6183999390308,-9.33333333333333));
#1316=CARTESIAN_POINT('Ctrl Pts',(-25.0940397439889,40.628606225322,-9.33333333333333));
#1317=CARTESIAN_POINT('Ctrl Pts',(-25.1519224918165,40.6388123871934,-9.33316582470759));
#1318=CARTESIAN_POINT('Ctrl Pts',(-25.2098051299703,40.6490191710556,-9.33283073509167));
#1319=CARTESIAN_POINT('Ctrl Pts',(-25.0940397439889,40.2901306880268,-9.66666666666666));
#1320=CARTESIAN_POINT('Ctrl Pts',(-25.1519224698779,40.300336974318,-9.66666666666666));
#1321=CARTESIAN_POINT('Ctrl Pts',(-25.2098052396441,40.3105430117694,-9.66633164941519));
#1322=CARTESIAN_POINT('Ctrl Pts',(-25.2676877900626,40.3207502932028,-9.66566147018335));
#1323=CARTESIAN_POINT('Ctrl Pts',(-25.1519224698779,39.9618614370227,-9.99999999999999));
#1324=CARTESIAN_POINT('Ctrl Pts',(-25.2098051957669,39.9720677233139,-9.99999999999999));
#1325=CARTESIAN_POINT('Ctrl Pts',(-25.2676879874716,39.9822736363455,-9.99949747412278));
#1326=CARTESIAN_POINT('Ctrl Pts',(-25.325570450155,39.99248141535,-9.99849220527503));
#1327=CARTESIAN_POINT('Ctrl Pts',(-25.1519224698779,40.9772880489085,-8.99999999999999));
#1328=CARTESIAN_POINT('Ctrl Pts',(-25.0940397439889,40.9670817626173,-8.99999999999999));
#1329=CARTESIAN_POINT('Ctrl Pts',(-25.0361570181,40.9568754763261,-8.99999999999999));
#1330=CARTESIAN_POINT('Ctrl Pts',(-24.978274292211,40.9466691900349,-8.99999999999999));
#1331=CARTESIAN_POINT('Ctrl Pts',(-25.1519224698779,39.9618614370227,-9.99999999999999));
#1332=CARTESIAN_POINT('Ctrl Pts',(-25.2098051957669,39.9720677233139,-9.99999999999999));
#1333=CARTESIAN_POINT('Ctrl Pts',(-25.2676879874716,39.9822736363455,-9.99949747412278));
#1334=CARTESIAN_POINT('Ctrl Pts',(-25.325570450155,39.99248141535,-9.99849220527503));
#1335=CARTESIAN_POINT('Origin',(-9.2110645280027,37.6587713921722,9.49999999999999));
#1336=CARTESIAN_POINT('',(-24.978274292211,40.9466691900349,8.99999999999999));
#1337=CARTESIAN_POINT('',(-25.1519224698779,39.9618614370227,9.99999999999999));
#1338=CARTESIAN_POINT('',(-24.978274292211,40.9466691900349,8.99999999999999));
#1339=CARTESIAN_POINT('',(29.6744293524552,30.2944963569307,9.99999999999999));
#1340=CARTESIAN_POINT('',(-9.29788861683617,37.1663675156661,9.99999999999999));
#1341=CARTESIAN_POINT('',(29.8480775301221,31.2793041099429,8.99999999999999));
#1342=CARTESIAN_POINT('',(29.6744293524552,30.2944963569307,9.99999999999999));
#1343=CARTESIAN_POINT('',(-9.12424043916923,38.1511752686783,8.99999999999999));
#1344=CARTESIAN_POINT('Ctrl Pts',(-25.1519224698779,40.9772880489085,8.99999999999999));
#1345=CARTESIAN_POINT('Ctrl Pts',(-25.0940397439889,40.9670817626173,8.99999999999999));
#1346=CARTESIAN_POINT('Ctrl Pts',(-25.0361570181,40.9568754763261,8.99999999999999));
#1347=CARTESIAN_POINT('Ctrl Pts',(-24.978274292211,40.9466691900349,8.99999999999999));
#1348=CARTESIAN_POINT('Ctrl Pts',(-25.2098051299703,40.6490191710556,9.33283073509167));
#1349=CARTESIAN_POINT('Ctrl Pts',(-25.1519224918165,40.6388123871934,9.33316582470759));
#1350=CARTESIAN_POINT('Ctrl Pts',(-25.0940397439889,40.628606225322,9.33333333333333));
#1351=CARTESIAN_POINT('Ctrl Pts',(-25.0361570181,40.6183999390308,9.33333333333333));
#1352=CARTESIAN_POINT('Ctrl Pts',(-25.2676877900626,40.3207502932028,9.66566147018335));
#1353=CARTESIAN_POINT('Ctrl Pts',(-25.209805239644,40.3105430117694,9.66633164941518));
#1354=CARTESIAN_POINT('Ctrl Pts',(-25.1519224698779,40.300336974318,9.66666666666666));
#1355=CARTESIAN_POINT('Ctrl Pts',(-25.0940397439889,40.2901306880268,9.66666666666666));
#1356=CARTESIAN_POINT('Ctrl Pts',(-25.3255704501549,39.99248141535,9.99849220527503));
#1357=CARTESIAN_POINT('Ctrl Pts',(-25.2676879874716,39.9822736363455,9.99949747412278));
#1358=CARTESIAN_POINT('Ctrl Pts',(-25.2098051957669,39.9720677233139,9.99999999999999));
#1359=CARTESIAN_POINT('Ctrl Pts',(-25.1519224698779,39.9618614370227,9.99999999999999));
#1360=CARTESIAN_POINT('Ctrl Pts',(-24.978274292211,40.9466691900349,8.99999999999999));
#1361=CARTESIAN_POINT('Ctrl Pts',(-25.0361570181,40.9568754763261,8.99999999999999));
#1362=CARTESIAN_POINT('Ctrl Pts',(-25.0940397439889,40.9670817626173,8.99999999999999));
#1363=CARTESIAN_POINT('Ctrl Pts',(-25.1519224698779,40.9772880489085,8.99999999999999));
#1364=CARTESIAN_POINT('Ctrl Pts',(-25.3255704501549,39.99248141535,9.99849220527503));
#1365=CARTESIAN_POINT('Ctrl Pts',(-25.2676879874716,39.9822736363455,9.99949747412278));
#1366=CARTESIAN_POINT('Ctrl Pts',(-25.2098051957669,39.9720677233139,9.99999999999999));
#1367=CARTESIAN_POINT('Ctrl Pts',(-25.1519224698779,39.9618614370227,9.99999999999999));
#1368=CARTESIAN_POINT('Ctrl Pts',(30.0048613101688,31.2516588993832,8.9986388375384));
#1369=CARTESIAN_POINT('Ctrl Pts',(31.3406332621554,31.0161262641743,8.97544332412577));
#1370=CARTESIAN_POINT('Ctrl Pts',(34.0014478710087,30.5469528579703,8.32693973904349));
#1371=CARTESIAN_POINT('Ctrl Pts',(37.1795332767801,29.986570653937,5.73704114647732));
#1372=CARTESIAN_POINT('Ctrl Pts',(38.937062793983,29.6766707806626,2.04314477828687));
#1373=CARTESIAN_POINT('Ctrl Pts',(38.9350200604744,29.6770309696945,-2.04287549062814));
#1374=CARTESIAN_POINT('Ctrl Pts',(37.1813696803698,29.9862468464366,-5.73812880813015));
#1375=CARTESIAN_POINT('Ctrl Pts',(34.0002883377985,30.5471573149602,-8.32610303643635));
#1376=CARTESIAN_POINT('Ctrl Pts',(31.3406332621554,31.0161262641743,-8.97544332412578));
#1377=CARTESIAN_POINT('Ctrl Pts',(30.0048613101688,31.2516588993832,-8.99863883753842));
#1378=CARTESIAN_POINT('Ctrl Pts',(29.95260004471,30.9223988178746,9.33242589169227));
#1379=CARTESIAN_POINT('Ctrl Pts',(31.3364122966937,30.6784084928296,9.31696221688938));
#1380=CARTESIAN_POINT('Ctrl Pts',(34.1009427200211,30.1916870027771,8.66227862264374));
#1381=CARTESIAN_POINT('Ctrl Pts',(37.4229863997815,29.6083898829635,5.98445010910129));
#1382=CARTESIAN_POINT('Ctrl Pts',(39.2690519380906,29.2848835999389,2.13482393209389));
#1383=CARTESIAN_POINT('Ctrl Pts',(39.2668305932837,29.2852672705386,-2.1344919327829));
#1384=CARTESIAN_POINT('Ctrl Pts',(37.4249005501547,29.6080546293412,-5.98569397840996));
#1385=CARTESIAN_POINT('Ctrl Pts',(34.0997543916139,30.1918964981583,-8.66134114247989));
#1386=CARTESIAN_POINT('Ctrl Pts',(31.3364122966937,30.6784084928296,-9.3169622168894));
#1387=CARTESIAN_POINT('Ctrl Pts',(29.95260004471,30.9223988178746,-9.33242589169228));
#1388=CARTESIAN_POINT('Ctrl Pts',(29.9003387792512,30.5931387363661,9.66621294584612));
#1389=CARTESIAN_POINT('Ctrl Pts',(31.3321913312319,30.3406907214849,9.658481109653));
#1390=CARTESIAN_POINT('Ctrl Pts',(34.2004375690335,29.8364211475839,8.99761750624398));
#1391=CARTESIAN_POINT('Ctrl Pts',(37.6664395227829,29.23020911199,6.23185907172526));
#1392=CARTESIAN_POINT('Ctrl Pts',(39.6010410821981,28.8930964192153,2.22650308590091));
#1393=CARTESIAN_POINT('Ctrl Pts',(39.5986411260931,28.8935035713827,-2.22610837493766));
#1394=CARTESIAN_POINT('Ctrl Pts',(37.6684314199397,29.2298624122458,-6.23325914868978));
#1395=CARTESIAN_POINT('Ctrl Pts',(34.1992204454293,29.8366356813563,-8.99657924852344));
#1396=CARTESIAN_POINT('Ctrl Pts',(31.3321913312319,30.3406907214849,-9.65848110965301));
#1397=CARTESIAN_POINT('Ctrl Pts',(29.9003387792512,30.5931387363661,-9.66621294584614));
#1398=CARTESIAN_POINT('Ctrl Pts',(29.8480775137923,30.2638786548575,9.99999999999999));
#1399=CARTESIAN_POINT('Ctrl Pts',(31.3279703657701,30.0029729501402,10.0000000024166));
#1400=CARTESIAN_POINT('Ctrl Pts',(34.299932418046,29.4811552923907,9.33295638984422));
#1401=CARTESIAN_POINT('Ctrl Pts',(37.9098926457844,28.8520283410166,6.47926803434924));
#1402=CARTESIAN_POINT('Ctrl Pts',(39.9330302263056,28.5013092384917,2.31818223970793));
#1403=CARTESIAN_POINT('Ctrl Pts',(39.9304516589024,28.5017398722268,-2.31772481709242));
#1404=CARTESIAN_POINT('Ctrl Pts',(37.9119622897247,28.8516701951504,-6.4808243189696));
#1405=CARTESIAN_POINT('Ctrl Pts',(34.2986864992448,29.4813748645543,-9.33181735456698));
#1406=CARTESIAN_POINT('Ctrl Pts',(31.3279703657701,30.0029729501402,-10.0000000024166));
#1407=CARTESIAN_POINT('Ctrl Pts',(29.8480775137923,30.2638786548575,-10.));
#1408=CARTESIAN_POINT('',(30.0048613101688,31.2516588993832,8.9986388375384));
#1409=CARTESIAN_POINT('',(29.8480775142702,30.2638786575679,9.99999999999999));
#1410=CARTESIAN_POINT('',(30.0048613101688,31.2516588993832,8.9986388375384));
#1411=CARTESIAN_POINT('',(29.8480775142702,30.2638786575679,-10.));
#1412=CARTESIAN_POINT('Ctrl Pts',(29.8480775137923,30.2638786548575,9.99999999999999));
#1413=CARTESIAN_POINT('Ctrl Pts',(31.3279703657701,30.0029729501402,10.0000000024166));
#1414=CARTESIAN_POINT('Ctrl Pts',(34.299932418046,29.4811552923907,9.33295638984422));
#1415=CARTESIAN_POINT('Ctrl Pts',(37.9098926457844,28.8520283410166,6.47926803434924));
#1416=CARTESIAN_POINT('Ctrl Pts',(39.9330302263056,28.5013092384917,2.31818223970793));
#1417=CARTESIAN_POINT('Ctrl Pts',(39.9304516589024,28.5017398722268,-2.31772481709242));
#1418=CARTESIAN_POINT('Ctrl Pts',(37.9119622897247,28.8516701951504,-6.4808243189696));
#1419=CARTESIAN_POINT('Ctrl Pts',(34.2986864992448,29.4813748645543,-9.33181735456698));
#1420=CARTESIAN_POINT('Ctrl Pts',(31.3279703657701,30.0029729501402,-10.0000000024166));
#1421=CARTESIAN_POINT('Ctrl Pts',(29.8480775137923,30.2638786548575,-10.));
#1422=CARTESIAN_POINT('',(30.0048613101688,31.2516588993832,-8.99863883753842));
#1423=CARTESIAN_POINT('',(29.8480775142702,30.2638786575679,-10.));
#1424=CARTESIAN_POINT('Ctrl Pts',(30.0048613101688,31.2516588993832,-8.99863883753842));
#1425=CARTESIAN_POINT('Ctrl Pts',(31.3406332621554,31.0161262641743,-8.97544332412578));
#1426=CARTESIAN_POINT('Ctrl Pts',(34.0002883377985,30.5471573149602,-8.32610303643635));
#1427=CARTESIAN_POINT('Ctrl Pts',(37.1813696803698,29.9862468464366,-5.73812880813015));
#1428=CARTESIAN_POINT('Ctrl Pts',(38.9350200604744,29.6770309696945,-2.04287549062814));
#1429=CARTESIAN_POINT('Ctrl Pts',(38.937062793983,29.6766707806626,2.04314477828687));
#1430=CARTESIAN_POINT('Ctrl Pts',(37.1795332767801,29.986570653937,5.73704114647732));
#1431=CARTESIAN_POINT('Ctrl Pts',(34.0014478710087,30.5469528579703,8.32693973904349));
#1432=CARTESIAN_POINT('Ctrl Pts',(31.3406332621554,31.0161262641743,8.97544332412577));
#1433=CARTESIAN_POINT('Ctrl Pts',(30.0048613101688,31.2516588993832,8.9986388375384));
#1434=CARTESIAN_POINT('Ctrl Pts',(29.8480775301221,31.2793041099429,8.99999999999999));
#1435=CARTESIAN_POINT('Ctrl Pts',(29.9003414465946,31.2700885713513,8.99999999999999));
#1436=CARTESIAN_POINT('Ctrl Pts',(29.9526053629806,31.2608730327749,8.9995462556318));
#1437=CARTESIAN_POINT('Ctrl Pts',(30.0048613249082,31.2516588967842,8.99863883728245));
#1438=CARTESIAN_POINT('Ctrl Pts',(29.7901948042331,30.9510348589388,9.33333333333332));
#1439=CARTESIAN_POINT('Ctrl Pts',(29.8443297839714,30.9414894014109,9.33333333333332));
#1440=CARTESIAN_POINT('Ctrl Pts',(29.898464741261,30.9319438195653,9.33303083708786));
#1441=CARTESIAN_POINT('Ctrl Pts',(29.9526000599795,30.9223988151823,9.33242589152163));
#1442=CARTESIAN_POINT('Ctrl Pts',(29.7323120783441,30.6227656079347,9.66666666666665));
#1443=CARTESIAN_POINT('Ctrl Pts',(29.7883181213481,30.6128902314704,9.66666666666665));
#1444=CARTESIAN_POINT('Ctrl Pts',(29.8443241195414,30.6030146063557,9.66651541854392));
#1445=CARTESIAN_POINT('Ctrl Pts',(29.9003387950508,30.5931387335804,9.66621294576081));
#1446=CARTESIAN_POINT('Ctrl Pts',(29.6744293524552,30.2944963569307,9.99999999999999));
#1447=CARTESIAN_POINT('Ctrl Pts',(29.7323064587249,30.28429106153,9.99999999999999));
#1448=CARTESIAN_POINT('Ctrl Pts',(29.7901834978217,30.2740853931461,9.99999999999999));
#1449=CARTESIAN_POINT('Ctrl Pts',(29.8480775301221,30.2638786519785,9.99999999999999));
#1450=CARTESIAN_POINT('Ctrl Pts',(30.0048613101688,31.2516588993832,8.9986388375384));
#1451=CARTESIAN_POINT('Ctrl Pts',(29.9526053531528,31.2608730345078,8.99954625571712));
#1452=CARTESIAN_POINT('Ctrl Pts',(29.9003414416807,31.2700885722177,8.99999999999999));
#1453=CARTESIAN_POINT('Ctrl Pts',(29.8480775301221,31.2793041099429,8.99999999999999));
#1454=CARTESIAN_POINT('Ctrl Pts',(29.6744293524552,30.2944963569307,9.99999999999999));
#1455=CARTESIAN_POINT('Ctrl Pts',(29.7323064532832,30.2842910624895,9.99999999999999));
#1456=CARTESIAN_POINT('Ctrl Pts',(29.7901834869385,30.2740853950652,9.99999999999999));
#1457=CARTESIAN_POINT('Ctrl Pts',(29.8480775137923,30.2638786548575,9.99999999999999));
#1458=CARTESIAN_POINT('Ctrl Pts',(30.0048613249082,31.2516588967842,-8.99863883728247));
#1459=CARTESIAN_POINT('Ctrl Pts',(29.9526053629806,31.2608730327749,-8.99954625563181));
#1460=CARTESIAN_POINT('Ctrl Pts',(29.9003414465946,31.2700885713513,-9.));
#1461=CARTESIAN_POINT('Ctrl Pts',(29.8480775301221,31.2793041099429,-9.));
#1462=CARTESIAN_POINT('Ctrl Pts',(29.9526000599795,30.9223988151823,-9.33242589152164));
#1463=CARTESIAN_POINT('Ctrl Pts',(29.898464741261,30.9319438195653,-9.33303083708787));
#1464=CARTESIAN_POINT('Ctrl Pts',(29.8443297839714,30.9414894014109,-9.33333333333333));
#1465=CARTESIAN_POINT('Ctrl Pts',(29.7901948042331,30.9510348589388,-9.33333333333333));
#1466=CARTESIAN_POINT('Ctrl Pts',(29.9003387950508,30.5931387335804,-9.66621294576082));
#1467=CARTESIAN_POINT('Ctrl Pts',(29.8443241195414,30.6030146063557,-9.66651541854394));
#1468=CARTESIAN_POINT('Ctrl Pts',(29.7883181213481,30.6128902314704,-9.66666666666667));
#1469=CARTESIAN_POINT('Ctrl Pts',(29.7323120783441,30.6227656079347,-9.66666666666667));
#1470=CARTESIAN_POINT('Ctrl Pts',(29.8480775301221,30.2638786519785,-10.));
#1471=CARTESIAN_POINT('Ctrl Pts',(29.7901834978217,30.2740853931461,-10.));
#1472=CARTESIAN_POINT('Ctrl Pts',(29.7323064587249,30.28429106153,-10.));
#1473=CARTESIAN_POINT('Ctrl Pts',(29.6744293524551,30.2944963569307,-10.));
#1474=CARTESIAN_POINT('Ctrl Pts',(29.8480775301221,31.2793041099429,-9.));
#1475=CARTESIAN_POINT('Ctrl Pts',(29.9003414416807,31.2700885722177,-9.));
#1476=CARTESIAN_POINT('Ctrl Pts',(29.9526053531528,31.2608730345078,-8.99954625571713));
#1477=CARTESIAN_POINT('Ctrl Pts',(30.0048613101688,31.2516588993832,-8.99863883753842));
#1478=CARTESIAN_POINT('Ctrl Pts',(29.8480775137923,30.2638786548575,-10.));
#1479=CARTESIAN_POINT('Ctrl Pts',(29.7901834869384,30.2740853950652,-10.));
#1480=CARTESIAN_POINT('Ctrl Pts',(29.7323064532832,30.2842910624895,-10.));
#1481=CARTESIAN_POINT('Ctrl Pts',(29.6744293524551,30.2944963569307,-10.));
#1482=CARTESIAN_POINT('Origin',(29.8480775301221,13.2635182233307,-10.));
#1483=CARTESIAN_POINT('',(29.8480775301221,17.5,-10.));
#1484=CARTESIAN_POINT('',(29.8480775301221,13.2635182233307,-10.));
#1485=CARTESIAN_POINT('',(-25.1519224698779,17.5,-9.99999999999999));
#1486=CARTESIAN_POINT('',(14.924038765061,17.5,-10.));
#1487=CARTESIAN_POINT('',(-25.1519224698779,13.2635182233307,-9.99999999999999));
#1488=CARTESIAN_POINT('Origin',(29.8480775301221,13.2635182233307,-7.04301576281721E-15));
#1489=CARTESIAN_POINT('',(29.8480775301221,17.5,9.99999999999999));
#1490=CARTESIAN_POINT('',(29.8480775301221,13.2635182233307,9.99999999999999));
#1491=CARTESIAN_POINT('Origin',(29.8480775301221,17.5,-7.04301576281721E-15));
#1492=CARTESIAN_POINT('Origin',(2.16410782762011,36.1607349016097,-4.44089209850063E-15));
#1493=CARTESIAN_POINT('',(15.1736481776669,33.866801931281,6.));
#1494=CARTESIAN_POINT('',(15.1736481776669,33.866801931281,-6.));
#1495=CARTESIAN_POINT('Origin',(15.1736481776669,33.866801931281,0.));
#1496=CARTESIAN_POINT('',(-14.8263518223331,39.1566113525349,6.));
#1497=CARTESIAN_POINT('',(7.20520230149398,35.2718539335654,6.));
#1498=CARTESIAN_POINT('',(-14.8263518223331,39.1566113525349,-6.));
#1499=CARTESIAN_POINT('Origin',(-14.8263518223331,39.1566113525349,0.));
#1500=CARTESIAN_POINT('',(-7.34249235440033,37.8370050085079,-6.));
#1501=CARTESIAN_POINT('',(29.8480775301221,31.2793041099429,3.9630240067924));
#1502=CARTESIAN_POINT('Origin',(29.8480775301221,31.2793041099429,-7.04301576281721E-15));
#1503=CARTESIAN_POINT('Origin',(29.8480775301221,31.2793041099429,-7.04301576281721E-15));
#1504=CARTESIAN_POINT('',(28.1115957534528,21.4312265798208,3.9630240067924));
#1505=CARTESIAN_POINT('',(29.8480775301221,31.2793041099429,3.9630240067924));
#1506=CARTESIAN_POINT('Origin',(28.1115957534528,21.4312265798208,-7.04301576281721E-15));
#1507=CARTESIAN_POINT('Origin',(28.1115957534528,21.4312265798208,-7.21644966006352E-15));
#1508=CARTESIAN_POINT('Ctrl Pts',(15.,32.8819941782688,-5.));
#1509=CARTESIAN_POINT('Ctrl Pts',(15.7479982508547,32.7237234504907,-5.));
#1510=CARTESIAN_POINT('Ctrl Pts',(17.2464548663608,32.4066614536089,-4.65784606874263));
#1511=CARTESIAN_POINT('Ctrl Pts',(19.0388779759559,32.0273983875285,-3.22512197097561));
#1512=CARTESIAN_POINT('Ctrl Pts',(20.3897098483588,31.7415726609218,-0.456269606252701));
#1513=CARTESIAN_POINT('Ctrl Pts',(19.6587875961812,31.8962302375528,2.74975863700721));
#1514=CARTESIAN_POINT('Ctrl Pts',(17.2370996715569,32.4086409415133,4.65719116606221));
#1515=CARTESIAN_POINT('Ctrl Pts',(15.7479982508547,32.7237234504907,5.));
#1516=CARTESIAN_POINT('Ctrl Pts',(15.,32.8819941782688,5.));
#1517=CARTESIAN_POINT('Ctrl Pts',(15.0259777066318,33.029321073605,-5.));
#1518=CARTESIAN_POINT('Ctrl Pts',(15.7743813148977,32.8734905843733,-4.9961027976059));
#1519=CARTESIAN_POINT('Ctrl Pts',(17.2699014017397,32.5616393254738,-4.64583394358104));
#1520=CARTESIAN_POINT('Ctrl Pts',(19.0498706859741,32.1894279177254,-3.20895713380295));
#1521=CARTESIAN_POINT('Ctrl Pts',(20.3846502367286,31.9095531018241,-0.452208891870934));
#1522=CARTESIAN_POINT('Ctrl Pts',(19.6645076889116,32.0607909991033,2.73192895215267));
#1523=CARTESIAN_POINT('Ctrl Pts',(17.2610104608313,32.5635439866527,4.64526822582554));
#1524=CARTESIAN_POINT('Ctrl Pts',(15.7743813148977,32.8734905843733,4.9961027976059));
#1525=CARTESIAN_POINT('Ctrl Pts',(15.0259777066318,33.029321073605,5.));
#1526=CARTESIAN_POINT('Ctrl Pts',(15.0778447049468,33.3234734381873,-5.06846802066137));
#1527=CARTESIAN_POINT('Ctrl Pts',(15.8373504034632,33.1724959846988,-5.05911155009253));
#1528=CARTESIAN_POINT('Ctrl Pts',(17.349719128694,32.8709689498699,-4.69269428919249));
#1529=CARTESIAN_POINT('Ctrl Pts',(19.1371972631833,32.5127675368486,-3.23002936793456));
#1530=CARTESIAN_POINT('Ctrl Pts',(20.467729313494,32.2446947050998,-0.45257499345885));
#1531=CARTESIAN_POINT('Ctrl Pts',(19.753012145392,32.3891598502778,2.74400758509932));
#1532=CARTESIAN_POINT('Ctrl Pts',(17.3413969649361,32.8727292049365,4.69225018759264));
#1533=CARTESIAN_POINT('Ctrl Pts',(15.8373504034632,33.1724959846988,5.05911155009253));
#1534=CARTESIAN_POINT('Ctrl Pts',(15.0778447049468,33.3234734381873,5.06846802066137));
#1535=CARTESIAN_POINT('Ctrl Pts',(15.150879456126,33.73767409475,-5.40295662823507));
#1536=CARTESIAN_POINT('Ctrl Pts',(15.9610627593839,33.5902362487535,-5.39316858726888));
#1537=CARTESIAN_POINT('Ctrl Pts',(17.574527996497,33.2963011449663,-5.00284203680443));
#1538=CARTESIAN_POINT('Ctrl Pts',(19.4817657644783,32.9480328254341,-3.44350857496114));
#1539=CARTESIAN_POINT('Ctrl Pts',(20.9013006275884,32.688242995529,-0.482455704897707));
#1540=CARTESIAN_POINT('Ctrl Pts',(20.1388248057762,32.8279660216801,2.92534577188429));
#1541=CARTESIAN_POINT('Ctrl Pts',(17.5656627764472,33.2979529277113,5.00237355883332));
#1542=CARTESIAN_POINT('Ctrl Pts',(15.9610627593839,33.5902362487535,5.39316858726888));
#1543=CARTESIAN_POINT('Ctrl Pts',(15.150879456126,33.73767409475,5.40295662823507));
#1544=CARTESIAN_POINT('Ctrl Pts',(15.1736481776669,33.866801931281,-5.77560052474359));
#1545=CARTESIAN_POINT('Ctrl Pts',(16.038661350538,33.7143515162863,-5.7718664748308));
#1546=CARTESIAN_POINT('Ctrl Pts',(17.7680273896343,33.4093186503611,-5.36877241696808));
#1547=CARTESIAN_POINT('Ctrl Pts',(19.827892571135,33.0462746927036,-3.70956230690536));
#1548=CARTESIAN_POINT('Ctrl Pts',(21.3735514924649,32.7737449647504,-0.523036764633922));
#1549=CARTESIAN_POINT('Ctrl Pts',(20.5393195427278,32.9208947492021,3.15875187386244));
#1550=CARTESIAN_POINT('Ctrl Pts',(17.7576757736041,33.4111699148346,5.36811088967763));
#1551=CARTESIAN_POINT('Ctrl Pts',(16.038661350538,33.7143515162863,5.7718664748308));
#1552=CARTESIAN_POINT('Ctrl Pts',(15.1736481776669,33.866801931281,5.77560052474359));
#1553=CARTESIAN_POINT('Ctrl Pts',(15.1736481776669,33.866801931281,-6.));
#1554=CARTESIAN_POINT('Ctrl Pts',(16.0712460786926,33.7085312035029,-6.));
#1555=CARTESIAN_POINT('Ctrl Pts',(17.8693940172999,33.3914692066211,-5.58941528249116));
#1556=CARTESIAN_POINT('Ctrl Pts',(20.0203017488141,33.0122061405407,-3.87014636517073));
#1557=CARTESIAN_POINT('Ctrl Pts',(21.6412999956975,32.726380413934,-0.547523527503242));
#1558=CARTESIAN_POINT('Ctrl Pts',(20.7641932930844,32.881037990565,3.29971036440866));
#1559=CARTESIAN_POINT('Ctrl Pts',(17.8581677835352,33.3934486945255,5.58862939927465));
#1560=CARTESIAN_POINT('Ctrl Pts',(16.0712460786926,33.7085312035029,6.));
#1561=CARTESIAN_POINT('Ctrl Pts',(15.1736481776669,33.866801931281,6.));
#1562=CARTESIAN_POINT('',(15.,32.8819941782688,-5.));
#1563=CARTESIAN_POINT('Origin',(15.,32.8819941782688,-6.));
#1564=CARTESIAN_POINT('',(15.,32.8819941782688,5.));
#1565=CARTESIAN_POINT('Origin',(15.,32.8819941782688,0.));
#1566=CARTESIAN_POINT('Origin',(15.,32.8819941782688,6.));
#1567=CARTESIAN_POINT('Origin',(7.03155412382705,34.2870461805532,6.));
#1568=CARTESIAN_POINT('',(-15.,38.1718035995227,5.));
#1569=CARTESIAN_POINT('Origin',(-15.,38.1718035995227,6.));
#1570=CARTESIAN_POINT('',(7.03155412382705,34.2870461805532,5.));
#1571=CARTESIAN_POINT('Ctrl Pts',(-15.,38.1718035995227,5.));
#1572=CARTESIAN_POINT('Ctrl Pts',(-15.7479982508547,38.3300743273008,5.));
#1573=CARTESIAN_POINT('Ctrl Pts',(-18.0078500859518,38.8082417484182,4.50139410599711));
#1574=CARTESIAN_POINT('Ctrl Pts',(-20.0542467376912,39.241243679938,1.92786062042031));
#1575=CARTESIAN_POINT('Ctrl Pts',(-20.0371671812362,39.2376297759921,-1.15378131982206));
#1576=CARTESIAN_POINT('Ctrl Pts',(-19.0453906668703,39.0277774260132,-3.22224925743157));
#1577=CARTESIAN_POINT('Ctrl Pts',(-17.2423103511631,38.646259376361,-4.65987758379733));
#1578=CARTESIAN_POINT('Ctrl Pts',(-15.7479982508547,38.3300743273008,-5.));
#1579=CARTESIAN_POINT('Ctrl Pts',(-15.,38.1718035995227,-5.));
#1580=CARTESIAN_POINT('Ctrl Pts',(-14.9480445867364,38.4664573901952,5.));
#1581=CARTESIAN_POINT('Ctrl Pts',(-15.6964425981979,38.6197495401679,5.00801008928512));
#1582=CARTESIAN_POINT('Ctrl Pts',(-17.970509628683,39.0842455383484,4.53229828314531));
#1583=CARTESIAN_POINT('Ctrl Pts',(-20.0550777224188,39.5068206692612,1.94811811603343));
#1584=CARTESIAN_POINT('Ctrl Pts',(-20.0376427168757,39.5033334277108,-1.16565582583766));
#1585=CARTESIAN_POINT('Ctrl Pts',(-19.0275764020681,39.2985114883605,-3.24853987537715));
#1586=CARTESIAN_POINT('Ctrl Pts',(-17.2001964466841,38.9269706571802,-4.68185972649026));
#1587=CARTESIAN_POINT('Ctrl Pts',(-15.6964425981979,38.6197495401679,-5.00801008928512));
#1588=CARTESIAN_POINT('Ctrl Pts',(-14.9480445867364,38.4664573901952,-5.));
#1589=CARTESIAN_POINT('Ctrl Pts',(-14.8581121447069,38.976489613671,5.25121280365711));
#1590=CARTESIAN_POINT('Ctrl Pts',(-15.6460933758968,39.1218567117284,5.26356412269455));
#1591=CARTESIAN_POINT('Ctrl Pts',(-18.0444110444957,39.5634740524045,4.77640051212655));
#1592=CARTESIAN_POINT('Ctrl Pts',(-20.2549026196742,39.9688007182294,2.05622418619662));
#1593=CARTESIAN_POINT('Ctrl Pts',(-20.2359549885833,39.9653311309298,-1.23020092053247));
#1594=CARTESIAN_POINT('Ctrl Pts',(-19.1655067304596,39.7690313104692,-3.42548557931159));
#1595=CARTESIAN_POINT('Ctrl Pts',(-17.2313297629579,39.4137605628509,-4.92964845453687));
#1596=CARTESIAN_POINT('Ctrl Pts',(-15.6460933758968,39.1218567117284,-5.26356412269455));
#1597=CARTESIAN_POINT('Ctrl Pts',(-14.8581121447069,38.976489613671,-5.25121280365711));
#1598=CARTESIAN_POINT('Ctrl Pts',(-14.8263518223331,39.1566113525349,5.77560052474359));
#1599=CARTESIAN_POINT('Ctrl Pts',(-15.6914701333404,39.3090870338281,5.77927947125789));
#1600=CARTESIAN_POINT('Ctrl Pts',(-18.3102670691577,39.7708895963768,5.2142579496672));
#1601=CARTESIAN_POINT('Ctrl Pts',(-20.693235445234,40.1910223329195,2.23632976224671));
#1602=CARTESIAN_POINT('Ctrl Pts',(-20.6731758684249,40.18752832979,-1.33827105186835));
#1603=CARTESIAN_POINT('Ctrl Pts',(-19.5185604514266,39.9839171861988,-3.73445144332228));
#1604=CARTESIAN_POINT('Ctrl Pts',(-17.4229052808527,39.6144803953065,-5.39340589111687));
#1605=CARTESIAN_POINT('Ctrl Pts',(-15.6914701333404,39.3090870338281,-5.77927947125789));
#1606=CARTESIAN_POINT('Ctrl Pts',(-14.8263518223331,39.1566113525349,-5.77560052474359));
#1607=CARTESIAN_POINT('Ctrl Pts',(-14.8263518223331,39.1566113525349,6.));
#1608=CARTESIAN_POINT('Ctrl Pts',(-15.7239497233587,39.314882080313,6.));
#1609=CARTESIAN_POINT('Ctrl Pts',(-18.4357719254753,39.7930495014304,5.40167292719654));
#1610=CARTESIAN_POINT('Ctrl Pts',(-20.8914479075625,40.2260514329502,2.31343274450437));
#1611=CARTESIAN_POINT('Ctrl Pts',(-20.8709524398165,40.2224375290043,-1.38453758378647));
#1612=CARTESIAN_POINT('Ctrl Pts',(-19.6808206225775,40.0125851790254,-3.86669910891788));
#1613=CARTESIAN_POINT('Ctrl Pts',(-17.5171242437289,39.6310671293733,-5.59185310055679));
#1614=CARTESIAN_POINT('Ctrl Pts',(-15.7239497233587,39.314882080313,-6.));
#1615=CARTESIAN_POINT('Ctrl Pts',(-14.8263518223331,39.1566113525349,-6.));
#1616=CARTESIAN_POINT('',(-15.,38.1718035995227,-5.));
#1617=CARTESIAN_POINT('Origin',(-15.,38.1718035995227,-6.));
#1618=CARTESIAN_POINT('Origin',(-15.,38.1718035995227,0.));
#1619=CARTESIAN_POINT('Origin',(-7.51614053206726,36.8521972554957,-6.));
#1620=CARTESIAN_POINT('',(-7.51614053206726,36.8521972554957,-5.));
#1621=CARTESIAN_POINT('Origin',(15.,50.,5.));
#1622=CARTESIAN_POINT('',(15.,25.,5.));
#1623=CARTESIAN_POINT('',(15.,50.,5.));
#1624=CARTESIAN_POINT('',(-15.,25.,5.));
#1625=CARTESIAN_POINT('',(-15.,25.,5.));
#1626=CARTESIAN_POINT('',(-15.,50.,5.));
#1627=CARTESIAN_POINT('Origin',(15.,50.,0.));
#1628=CARTESIAN_POINT('',(15.,25.,-5.));
#1629=CARTESIAN_POINT('',(15.,50.,-5.));
#1630=CARTESIAN_POINT('Origin',(15.,25.,0.));
#1631=CARTESIAN_POINT('Origin',(-15.,50.,-5.));
#1632=CARTESIAN_POINT('',(-15.,25.,-5.));
#1633=CARTESIAN_POINT('',(-15.,50.,-5.));
#1634=CARTESIAN_POINT('',(15.,25.,-5.));
#1635=CARTESIAN_POINT('Origin',(-15.,50.,0.));
#1636=CARTESIAN_POINT('Origin',(-15.,25.,0.));
#1637=CARTESIAN_POINT('Origin',(0.,25.,0.));
#1638=CARTESIAN_POINT('Origin',(-12.575961234939,17.5,12.5));
#1639=CARTESIAN_POINT('Origin',(29.8480775301221,17.5,12.5));
#1640=CARTESIAN_POINT('',(-25.1519224698779,17.5,9.99999999999999));
#1641=CARTESIAN_POINT('',(-12.575961234939,17.5,9.99999999999999));
#1642=CARTESIAN_POINT('Origin',(-25.1519224698779,17.5,12.5));
#1643=CARTESIAN_POINT('Origin',(-25.1519224698779,17.5,-1.11022302462516E-15));
#1644=CARTESIAN_POINT('Origin',(-25.1519224698779,17.5,-12.5));
#1645=CARTESIAN_POINT('Origin',(-25.1519224698779,17.5,-1.11022302462516E-15));
#1646=CARTESIAN_POINT('Origin',(14.924038765061,17.5,-12.5));
#1647=CARTESIAN_POINT('Origin',(29.8480775301221,17.5,-12.5));
#1648=CARTESIAN_POINT('Origin',(29.8480775301221,17.5,-7.04301576281721E-15));
#1649=CARTESIAN_POINT('Origin',(-25.1519224698779,13.2635182233307,-1.11022302462516E-15));
#1650=CARTESIAN_POINT('',(-25.1519224698779,13.2635182233307,9.99999999999999));
#1651=CARTESIAN_POINT('Origin',(-25.1519224698779,13.2635182233307,9.99999999999999));
#1652=CARTESIAN_POINT('Origin',(0.,7.11956442444626,24.5));
#1653=CARTESIAN_POINT('',(4.525682769217,7.11956442444626,25.));
#1654=CARTESIAN_POINT('Origin',(0.,7.11956442444626,25.));
#1655=CARTESIAN_POINT('',(3.525682769217,7.11956442444626,24.));
#1656=CARTESIAN_POINT('',(4.025682769217,7.11956442444626,24.5));
#1657=CARTESIAN_POINT('Origin',(0.,7.11956442444626,24.));
#1658=CARTESIAN_POINT('Origin',(0.,7.11956442444626,-25.));
#1659=CARTESIAN_POINT('',(3.525682769217,7.11956442444626,-24.));
#1660=CARTESIAN_POINT('Origin',(0.,7.11956442444626,-24.));
#1661=CARTESIAN_POINT('',(3.525682769217,7.11956442444626,-25.));
#1662=CARTESIAN_POINT('Origin',(-50.,0.,25.));
#1663=CARTESIAN_POINT('',(-40.,0.,25.));
#1664=CARTESIAN_POINT('',(-40.,0.,25.));
#1665=CARTESIAN_POINT('',(40.,0.,25.));
#1666=CARTESIAN_POINT('',(50.,0.,25.));
#1667=CARTESIAN_POINT('',(40.,0.,25.));
#1668=CARTESIAN_POINT('Origin',(0.,7.11956442444626,-24.5));
#1669=CARTESIAN_POINT('',(4.525682769217,7.11956442444626,-25.));
#1670=CARTESIAN_POINT('Origin',(0.,7.11956442444626,-25.));
#1671=CARTESIAN_POINT('',(4.025682769217,7.11956442444626,-24.5));
#1672=CARTESIAN_POINT('Origin',(50.,0.,-25.));
#1673=CARTESIAN_POINT('',(40.,13.,-25.));
#1674=CARTESIAN_POINT('',(-40.,13.,-25.));
#1675=CARTESIAN_POINT('',(25.,13.,-25.));
#1676=CARTESIAN_POINT('',(40.,0.,-25.));
#1677=CARTESIAN_POINT('',(40.,0.,-25.));
#1678=CARTESIAN_POINT('',(-40.,0.,-25.));
#1679=CARTESIAN_POINT('',(-50.,0.,-25.));
#1680=CARTESIAN_POINT('',(-40.,0.,-25.));
#1681=CARTESIAN_POINT('Origin',(40.,14.,15.));
#1682=CARTESIAN_POINT('',(50.,13.,15.));
#1683=CARTESIAN_POINT('Origin',(40.,13.,15.));
#1684=CARTESIAN_POINT('',(50.,13.,15.));
#1685=CARTESIAN_POINT('Origin',(49.,14.,12.5));
#1686=CARTESIAN_POINT('',(50.,13.,-15.));
#1687=CARTESIAN_POINT('',(50.,13.,-15.));
#1688=CARTESIAN_POINT('',(50.,13.,12.5));
#1689=CARTESIAN_POINT('Origin',(40.,14.,-15.));
#1690=CARTESIAN_POINT('Origin',(40.,13.,-15.));
#1691=CARTESIAN_POINT('',(40.,13.,-25.));
#1692=CARTESIAN_POINT('Origin',(25.,14.,-24.));
#1693=CARTESIAN_POINT('',(-40.,13.,-25.));
#1694=CARTESIAN_POINT('Origin',(-40.,14.,-15.));
#1695=CARTESIAN_POINT('Origin',(-40.,13.,-15.));
#1696=CARTESIAN_POINT('Origin',(40.,0.,-15.));
#1697=CARTESIAN_POINT('',(50.,0.,-15.));
#1698=CARTESIAN_POINT('',(50.,0.,-15.));
#1699=CARTESIAN_POINT('Origin',(40.,0.,-15.));
#1700=CARTESIAN_POINT('Origin',(50.,0.,25.));
#1701=CARTESIAN_POINT('',(50.,0.,15.));
#1702=CARTESIAN_POINT('',(50.,0.,15.));
#1703=CARTESIAN_POINT('',(50.,0.,-25.));
#1704=CARTESIAN_POINT('Origin',(40.,0.,15.));
#1705=CARTESIAN_POINT('Origin',(40.,0.,15.));
#1706=CARTESIAN_POINT('Origin',(-40.,0.,-15.));
#1707=CARTESIAN_POINT('',(-50.,0.,-15.));
#1708=CARTESIAN_POINT('Origin',(-40.,0.,-15.));
#1709=CARTESIAN_POINT('',(-50.,0.,-15.));
#1710=CARTESIAN_POINT('Origin',(0.,0.,0.));
#1711=CARTESIAN_POINT('',(-50.,0.,15.));
#1712=CARTESIAN_POINT('Origin',(-40.,0.,15.));
#1713=CARTESIAN_POINT('',(-50.,0.,25.));
#1714=CARTESIAN_POINT('Origin',(-40.,0.,15.));
#1715=CARTESIAN_POINT('',(-50.,0.,15.));
#1716=CARTESIAN_POINT('Origin',(-50.,0.,-25.));
#1717=UNCERTAINTY_MEASURE_WITH_UNIT(LENGTH_MEASURE(0.01),#1721,
'DISTANCE_ACCURACY_VALUE',
'Maximum model space distance between geometric entities at asserted c
onnectivities');
#1718=UNCERTAINTY_MEASURE_WITH_UNIT(LENGTH_MEASURE(0.01),#1721,
'DISTANCE_ACCURACY_VALUE',
'Maximum model space distance between geometric entities at asserted c
onnectivities');
#1719=(
GEOMETRIC_REPRESENTATION_CONTEXT(3)
GLOBAL_UNCERTAINTY_ASSIGNED_CONTEXT((#1717))
GLOBAL_UNIT_ASSIGNED_CONTEXT((#1721,#1723,#1724))
REPRESENTATION_CONTEXT('','3D')
);
#1720=(
GEOMETRIC_REPRESENTATION_CONTEXT(3)
GLOBAL_UNCERTAINTY_ASSIGNED_CONTEXT((#1718))
GLOBAL_UNIT_ASSIGNED_CONTEXT((#1721,#1723,#1724))
REPRESENTATION_CONTEXT('','3D')
);
#1721=(
LENGTH_UNIT()
NAMED_UNIT(*)
SI_UNIT(.MILLI.,.METRE.)
);
#1722=(
LENGTH_UNIT()
NAMED_UNIT(*)
SI_UNIT($,.METRE.)
);
#1723=(
NAMED_UNIT(*)
PLANE_ANGLE_UNIT()
SI_UNIT($,.RADIAN.)
);
#1724=(
NAMED_UNIT(*)
SI_UNIT($,.STERADIAN.)
SOLID_ANGLE_UNIT()
);
#1725=SHAPE_DEFINITION_REPRESENTATION(#1726,#1727);
#1726=PRODUCT_DEFINITION_SHAPE('',$,#1729);
#1727=SHAPE_REPRESENTATION('',(#866),#1719);
#1728=PRODUCT_DEFINITION_CONTEXT('part definition',#1733,'design');
#1729=PRODUCT_DEFINITION('(Unsaved)','(Unsaved)',#1730,#1728);
#1730=PRODUCT_DEFINITION_FORMATION('',$,#1735);
#1731=PRODUCT_RELATED_PRODUCT_CATEGORY('(Unsaved)','(Unsaved)',(#1735));
#1732=APPLICATION_PROTOCOL_DEFINITION('international standard',
'automotive_design',2009,#1733);
#1733=APPLICATION_CONTEXT(
'Core Data for Automotive Mechanical Design Process');
#1734=PRODUCT_CONTEXT('part definition',#1733,'mechanical');
#1735=PRODUCT('(Unsaved)','(Unsaved)',$,(#1734));
#1736=PRESENTATION_STYLE_ASSIGNMENT((#1737));
#1737=SURFACE_STYLE_USAGE(.BOTH.,#1738);
#1738=SURFACE_SIDE_STYLE('',(#1739));
#1739=SURFACE_STYLE_FILL_AREA(#1740);
#1740=FILL_AREA_STYLE('Steel - Satin',(#1741));
#1741=FILL_AREA_STYLE_COLOUR('Steel - Satin',#1742);
#1742=COLOUR_RGB('Steel - Satin',0.627450980392157,0.627450980392157,0.627450980392157);
ENDSEC;
END-ISO-10303-21;
