ISO-10303-21;
HEADER;
/* Generated by software containing ST-Developer
 * from STEP Tools, Inc. (www.steptools.com) 
 */

FILE_DESCRIPTION(
/* description */ (''),
/* implementation_level */ '2;1');

FILE_NAME(
/* name */ 'ex-milling_03.step',
/* time_stamp */ '2024-11-07T14:15:38+03:00',
/* author */ (''),
/* organization */ (''),
/* preprocessor_version */ 'ST-DEVELOPER v20',
/* originating_system */ 'Autodesk Translation Framework v13.14.0.145',

/* authorisation */ '');

FILE_SCHEMA (('AUTOMOTIVE_DESIGN { 1 0 10303 214 3 1 1 }'));
ENDSEC;

DATA;
#10=MECHANICAL_DESIGN_GEOMETRIC_PRESENTATION_REPRESENTATION('',(#13),#2335);
#11=SHAPE_REPRESENTATION_RELATIONSHIP('SRR','None',#2342,#12);
#12=ADVANCED_BREP_SHAPE_REPRESENTATION('',(#14),#2334);
#13=STYLED_ITEM('',(#2351),#14);
#14=MANIFOLD_SOLID_BREP('Body1',#1405);
#15=CYLINDRICAL_SURFACE('',#1424,5.);
#16=CYLINDRICAL_SURFACE('',#1426,2.7);
#17=CYLINDRICAL_SURFACE('',#1433,11.);
#18=CYLINDRICAL_SURFACE('',#1436,7.00000003793025);
#19=CYLINDRICAL_SURFACE('',#1440,6.00000008940697);
#20=CYLINDRICAL_SURFACE('',#1459,11.);
#21=CYLINDRICAL_SURFACE('',#1461,8.);
#22=CYLINDRICAL_SURFACE('',#1489,5.00000007450581);
#23=CYLINDRICAL_SURFACE('',#1495,5.);
#24=CYLINDRICAL_SURFACE('',#1499,3.);
#25=CYLINDRICAL_SURFACE('',#1502,5.);
#26=CYLINDRICAL_SURFACE('',#1505,9.00000013411045);
#27=CYLINDRICAL_SURFACE('',#1511,15.0000002235174);
#28=CYLINDRICAL_SURFACE('',#1515,15.0000002235174);
#29=CYLINDRICAL_SURFACE('',#1518,5.);
#30=CYLINDRICAL_SURFACE('',#1522,5.);
#31=CYLINDRICAL_SURFACE('',#1526,1.5);
#32=CYLINDRICAL_SURFACE('',#1529,1.5);
#33=FACE_BOUND('',#172,.T.);
#34=FACE_BOUND('',#193,.T.);
#35=FACE_BOUND('',#218,.T.);
#36=FACE_BOUND('',#224,.T.);
#37=FACE_BOUND('',#232,.T.);
#38=FACE_BOUND('',#252,.T.);
#39=PLANE('',#1421);
#40=PLANE('',#1427);
#41=PLANE('',#1428);
#42=PLANE('',#1430);
#43=PLANE('',#1435);
#44=PLANE('',#1439);
#45=PLANE('',#1443);
#46=PLANE('',#1444);
#47=PLANE('',#1445);
#48=PLANE('',#1450);
#49=PLANE('',#1451);
#50=PLANE('',#1452);
#51=PLANE('',#1453);
#52=PLANE('',#1454);
#53=PLANE('',#1455);
#54=PLANE('',#1456);
#55=PLANE('',#1463);
#56=PLANE('',#1464);
#57=PLANE('',#1465);
#58=PLANE('',#1466);
#59=PLANE('',#1467);
#60=PLANE('',#1468);
#61=PLANE('',#1472);
#62=PLANE('',#1473);
#63=PLANE('',#1474);
#64=PLANE('',#1478);
#65=PLANE('',#1479);
#66=PLANE('',#1483);
#67=PLANE('',#1487);
#68=PLANE('',#1488);
#69=PLANE('',#1490);
#70=PLANE('',#1491);
#71=PLANE('',#1492);
#72=PLANE('',#1493);
#73=PLANE('',#1494);
#74=PLANE('',#1497);
#75=PLANE('',#1498);
#76=PLANE('',#1501);
#77=PLANE('',#1504);
#78=PLANE('',#1507);
#79=PLANE('',#1508);
#80=PLANE('',#1513);
#81=PLANE('',#1514);
#82=PLANE('',#1516);
#83=PLANE('',#1517);
#84=PLANE('',#1521);
#85=PLANE('',#1525);
#86=PLANE('',#1528);
#87=PLANE('',#1531);
#88=PLANE('',#1532);
#89=PLANE('',#1533);
#90=PLANE('',#1534);
#91=PLANE('',#1535);
#92=PLANE('',#1536);
#93=FACE_OUTER_BOUND('',#170,.T.);
#94=FACE_OUTER_BOUND('',#171,.T.);
#95=FACE_OUTER_BOUND('',#173,.T.);
#96=FACE_OUTER_BOUND('',#174,.T.);
#97=FACE_OUTER_BOUND('',#175,.T.);
#98=FACE_OUTER_BOUND('',#176,.T.);
#99=FACE_OUTER_BOUND('',#177,.T.);
#100=FACE_OUTER_BOUND('',#178,.T.);
#101=FACE_OUTER_BOUND('',#179,.T.);
#102=FACE_OUTER_BOUND('',#180,.T.);
#103=FACE_OUTER_BOUND('',#181,.T.);
#104=FACE_OUTER_BOUND('',#182,.T.);
#105=FACE_OUTER_BOUND('',#183,.T.);
#106=FACE_OUTER_BOUND('',#184,.T.);
#107=FACE_OUTER_BOUND('',#185,.T.);
#108=FACE_OUTER_BOUND('',#186,.T.);
#109=FACE_OUTER_BOUND('',#187,.T.);
#110=FACE_OUTER_BOUND('',#188,.T.);
#111=FACE_OUTER_BOUND('',#189,.T.);
#112=FACE_OUTER_BOUND('',#190,.T.);
#113=FACE_OUTER_BOUND('',#191,.T.);
#114=FACE_OUTER_BOUND('',#192,.T.);
#115=FACE_OUTER_BOUND('',#194,.T.);
#116=FACE_OUTER_BOUND('',#195,.T.);
#117=FACE_OUTER_BOUND('',#196,.T.);
#118=FACE_OUTER_BOUND('',#197,.T.);
#119=FACE_OUTER_BOUND('',#198,.T.);
#120=FACE_OUTER_BOUND('',#199,.T.);
#121=FACE_OUTER_BOUND('',#200,.T.);
#122=FACE_OUTER_BOUND('',#201,.T.);
#123=FACE_OUTER_BOUND('',#202,.T.);
#124=FACE_OUTER_BOUND('',#203,.T.);
#125=FACE_OUTER_BOUND('',#204,.T.);
#126=FACE_OUTER_BOUND('',#205,.T.);
#127=FACE_OUTER_BOUND('',#206,.T.);
#128=FACE_OUTER_BOUND('',#207,.T.);
#129=FACE_OUTER_BOUND('',#208,.T.);
#130=FACE_OUTER_BOUND('',#209,.T.);
#131=FACE_OUTER_BOUND('',#210,.T.);
#132=FACE_OUTER_BOUND('',#211,.T.);
#133=FACE_OUTER_BOUND('',#212,.T.);
#134=FACE_OUTER_BOUND('',#213,.T.);
#135=FACE_OUTER_BOUND('',#214,.T.);
#136=FACE_OUTER_BOUND('',#215,.T.);
#137=FACE_OUTER_BOUND('',#216,.T.);
#138=FACE_OUTER_BOUND('',#217,.T.);
#139=FACE_OUTER_BOUND('',#219,.T.);
#140=FACE_OUTER_BOUND('',#220,.T.);
#141=FACE_OUTER_BOUND('',#221,.T.);
#142=FACE_OUTER_BOUND('',#222,.T.);
#143=FACE_OUTER_BOUND('',#223,.T.);
#144=FACE_OUTER_BOUND('',#225,.T.);
#145=FACE_OUTER_BOUND('',#226,.T.);
#146=FACE_OUTER_BOUND('',#227,.T.);
#147=FACE_OUTER_BOUND('',#228,.T.);
#148=FACE_OUTER_BOUND('',#229,.T.);
#149=FACE_OUTER_BOUND('',#230,.T.);
#150=FACE_OUTER_BOUND('',#231,.T.);
#151=FACE_OUTER_BOUND('',#233,.T.);
#152=FACE_OUTER_BOUND('',#234,.T.);
#153=FACE_OUTER_BOUND('',#235,.T.);
#154=FACE_OUTER_BOUND('',#236,.T.);
#155=FACE_OUTER_BOUND('',#237,.T.);
#156=FACE_OUTER_BOUND('',#238,.T.);
#157=FACE_OUTER_BOUND('',#239,.T.);
#158=FACE_OUTER_BOUND('',#240,.T.);
#159=FACE_OUTER_BOUND('',#241,.T.);
#160=FACE_OUTER_BOUND('',#242,.T.);
#161=FACE_OUTER_BOUND('',#243,.T.);
#162=FACE_OUTER_BOUND('',#244,.T.);
#163=FACE_OUTER_BOUND('',#245,.T.);
#164=FACE_OUTER_BOUND('',#246,.T.);
#165=FACE_OUTER_BOUND('',#247,.T.);
#166=FACE_OUTER_BOUND('',#248,.T.);
#167=FACE_OUTER_BOUND('',#249,.T.);
#168=FACE_OUTER_BOUND('',#250,.T.);
#169=FACE_OUTER_BOUND('',#251,.T.);
#170=EDGE_LOOP('',(#929,#930,#931));
#171=EDGE_LOOP('',(#932));
#172=EDGE_LOOP('',(#933));
#173=EDGE_LOOP('',(#934,#935,#936,#937));
#174=EDGE_LOOP('',(#938,#939,#940,#941));
#175=EDGE_LOOP('',(#942,#943,#944,#945));
#176=EDGE_LOOP('',(#946,#947,#948,#949));
#177=EDGE_LOOP('',(#950,#951,#952,#953,#954,#955,#956));
#178=EDGE_LOOP('',(#957,#958,#959,#960,#961,#962));
#179=EDGE_LOOP('',(#963,#964,#965,#966));
#180=EDGE_LOOP('',(#967,#968,#969,#970));
#181=EDGE_LOOP('',(#971,#972,#973,#974));
#182=EDGE_LOOP('',(#975,#976,#977,#978));
#183=EDGE_LOOP('',(#979,#980,#981,#982));
#184=EDGE_LOOP('',(#983,#984,#985,#986,#987,#988));
#185=EDGE_LOOP('',(#989,#990,#991,#992,#993,#994,#995,#996,#997,#998,#999,
#1000,#1001,#1002,#1003,#1004));
#186=EDGE_LOOP('',(#1005,#1006,#1007,#1008));
#187=EDGE_LOOP('',(#1009,#1010,#1011,#1012));
#188=EDGE_LOOP('',(#1013,#1014,#1015,#1016));
#189=EDGE_LOOP('',(#1017,#1018,#1019,#1020));
#190=EDGE_LOOP('',(#1021,#1022,#1023,#1024));
#191=EDGE_LOOP('',(#1025,#1026,#1027,#1028,#1029,#1030));
#192=EDGE_LOOP('',(#1031));
#193=EDGE_LOOP('',(#1032));
#194=EDGE_LOOP('',(#1033,#1034,#1035,#1036));
#195=EDGE_LOOP('',(#1037,#1038,#1039,#1040));
#196=EDGE_LOOP('',(#1041,#1042,#1043,#1044));
#197=EDGE_LOOP('',(#1045,#1046,#1047,#1048));
#198=EDGE_LOOP('',(#1049,#1050,#1051,#1052));
#199=EDGE_LOOP('',(#1053,#1054,#1055,#1056));
#200=EDGE_LOOP('',(#1057,#1058,#1059,#1060));
#201=EDGE_LOOP('',(#1061,#1062,#1063,#1064));
#202=EDGE_LOOP('',(#1065,#1066,#1067,#1068));
#203=EDGE_LOOP('',(#1069,#1070,#1071,#1072));
#204=EDGE_LOOP('',(#1073,#1074,#1075,#1076));
#205=EDGE_LOOP('',(#1077,#1078,#1079,#1080));
#206=EDGE_LOOP('',(#1081,#1082,#1083,#1084));
#207=EDGE_LOOP('',(#1085,#1086,#1087,#1088));
#208=EDGE_LOOP('',(#1089,#1090,#1091,#1092));
#209=EDGE_LOOP('',(#1093,#1094,#1095,#1096));
#210=EDGE_LOOP('',(#1097,#1098,#1099,#1100));
#211=EDGE_LOOP('',(#1101,#1102,#1103,#1104));
#212=EDGE_LOOP('',(#1105,#1106,#1107,#1108));
#213=EDGE_LOOP('',(#1109,#1110,#1111,#1112));
#214=EDGE_LOOP('',(#1113,#1114,#1115,#1116));
#215=EDGE_LOOP('',(#1117,#1118,#1119,#1120,#1121,#1122));
#216=EDGE_LOOP('',(#1123,#1124,#1125,#1126));
#217=EDGE_LOOP('',(#1127,#1128,#1129,#1130,#1131,#1132,#1133,#1134,#1135,
#1136,#1137,#1138,#1139,#1140,#1141,#1142,#1143,#1144,#1145,#1146));
#218=EDGE_LOOP('',(#1147));
#219=EDGE_LOOP('',(#1148,#1149,#1150,#1151));
#220=EDGE_LOOP('',(#1152,#1153,#1154,#1155));
#221=EDGE_LOOP('',(#1156,#1157,#1158,#1159));
#222=EDGE_LOOP('',(#1160,#1161,#1162,#1163));
#223=EDGE_LOOP('',(#1164,#1165,#1166,#1167,#1168,#1169,#1170,#1171,#1172,
#1173,#1174,#1175,#1176,#1177,#1178,#1179,#1180));
#224=EDGE_LOOP('',(#1181));
#225=EDGE_LOOP('',(#1182,#1183,#1184,#1185));
#226=EDGE_LOOP('',(#1186,#1187,#1188,#1189));
#227=EDGE_LOOP('',(#1190,#1191,#1192,#1193));
#228=EDGE_LOOP('',(#1194,#1195,#1196,#1197));
#229=EDGE_LOOP('',(#1198,#1199,#1200,#1201));
#230=EDGE_LOOP('',(#1202,#1203,#1204,#1205,#1206,#1207));
#231=EDGE_LOOP('',(#1208,#1209,#1210,#1211,#1212,#1213,#1214,#1215,#1216,
#1217,#1218));
#232=EDGE_LOOP('',(#1219));
#233=EDGE_LOOP('',(#1220,#1221,#1222,#1223));
#234=EDGE_LOOP('',(#1224));
#235=EDGE_LOOP('',(#1225,#1226,#1227,#1228));
#236=EDGE_LOOP('',(#1229,#1230,#1231,#1232));
#237=EDGE_LOOP('',(#1233,#1234,#1235,#1236));
#238=EDGE_LOOP('',(#1237,#1238,#1239,#1240));
#239=EDGE_LOOP('',(#1241,#1242,#1243,#1244));
#240=EDGE_LOOP('',(#1245,#1246,#1247,#1248));
#241=EDGE_LOOP('',(#1249,#1250,#1251,#1252));
#242=EDGE_LOOP('',(#1253,#1254,#1255,#1256,#1257,#1258));
#243=EDGE_LOOP('',(#1259,#1260,#1261,#1262));
#244=EDGE_LOOP('',(#1263,#1264,#1265,#1266));
#245=EDGE_LOOP('',(#1267,#1268,#1269,#1270));
#246=EDGE_LOOP('',(#1271,#1272,#1273,#1274));
#247=EDGE_LOOP('',(#1275,#1276,#1277,#1278));
#248=EDGE_LOOP('',(#1279,#1280,#1281,#1282));
#249=EDGE_LOOP('',(#1283,#1284,#1285,#1286,#1287,#1288,#1289,#1290,#1291,
#1292,#1293,#1294,#1295,#1296,#1297,#1298,#1299,#1300));
#250=EDGE_LOOP('',(#1301,#1302,#1303,#1304,#1305,#1306,#1307,#1308,#1309,
#1310,#1311,#1312,#1313,#1314,#1315,#1316));
#251=EDGE_LOOP('',(#1317,#1318,#1319,#1320,#1321));
#252=EDGE_LOOP('',(#1322));
#253=LINE('',#1936,#409);
#254=LINE('',#1945,#410);
#255=LINE('',#1947,#411);
#256=LINE('',#1951,#412);
#257=LINE('',#1953,#413);
#258=LINE('',#1955,#414);
#259=LINE('',#1956,#415);
#260=LINE('',#1959,#416);
#261=LINE('',#1961,#417);
#262=LINE('',#1967,#418);
#263=LINE('',#1969,#419);
#264=LINE('',#1973,#420);
#265=LINE('',#1974,#421);
#266=LINE('',#1977,#422);
#267=LINE('',#1980,#423);
#268=LINE('',#1984,#424);
#269=LINE('',#1986,#425);
#270=LINE('',#1988,#426);
#271=LINE('',#1989,#427);
#272=LINE('',#1994,#428);
#273=LINE('',#1998,#429);
#274=LINE('',#2000,#430);
#275=LINE('',#2001,#431);
#276=LINE('',#2006,#432);
#277=LINE('',#2010,#433);
#278=LINE('',#2012,#434);
#279=LINE('',#2013,#435);
#280=LINE('',#2015,#436);
#281=LINE('',#2018,#437);
#282=LINE('',#2020,#438);
#283=LINE('',#2024,#439);
#284=LINE('',#2028,#440);
#285=LINE('',#2032,#441);
#286=LINE('',#2036,#442);
#287=LINE('',#2037,#443);
#288=LINE('',#2040,#444);
#289=LINE('',#2041,#445);
#290=LINE('',#2045,#446);
#291=LINE('',#2047,#447);
#292=LINE('',#2049,#448);
#293=LINE('',#2050,#449);
#294=LINE('',#2054,#450);
#295=LINE('',#2056,#451);
#296=LINE('',#2058,#452);
#297=LINE('',#2059,#453);
#298=LINE('',#2061,#454);
#299=LINE('',#2062,#455);
#300=LINE('',#2065,#456);
#301=LINE('',#2067,#457);
#302=LINE('',#2068,#458);
#303=LINE('',#2071,#459);
#304=LINE('',#2073,#460);
#305=LINE('',#2075,#461);
#306=LINE('',#2077,#462);
#307=LINE('',#2078,#463);
#308=LINE('',#2087,#464);
#309=LINE('',#2090,#465);
#310=LINE('',#2095,#466);
#311=LINE('',#2096,#467);
#312=LINE('',#2098,#468);
#313=LINE('',#2099,#469);
#314=LINE('',#2102,#470);
#315=LINE('',#2103,#471);
#316=LINE('',#2106,#472);
#317=LINE('',#2108,#473);
#318=LINE('',#2109,#474);
#319=LINE('',#2113,#475);
#320=LINE('',#2115,#476);
#321=LINE('',#2117,#477);
#322=LINE('',#2118,#478);
#323=LINE('',#2121,#479);
#324=LINE('',#2123,#480);
#325=LINE('',#2124,#481);
#326=LINE('',#2127,#482);
#327=LINE('',#2129,#483);
#328=LINE('',#2130,#484);
#329=LINE('',#2134,#485);
#330=LINE('',#2138,#486);
#331=LINE('',#2139,#487);
#332=LINE('',#2142,#488);
#333=LINE('',#2144,#489);
#334=LINE('',#2145,#490);
#335=LINE('',#2149,#491);
#336=LINE('',#2151,#492);
#337=LINE('',#2153,#493);
#338=LINE('',#2154,#494);
#339=LINE('',#2159,#495);
#340=LINE('',#2162,#496);
#341=LINE('',#2163,#497);
#342=LINE('',#2166,#498);
#343=LINE('',#2168,#499);
#344=LINE('',#2169,#500);
#345=LINE('',#2174,#501);
#346=LINE('',#2179,#502);
#347=LINE('',#2180,#503);
#348=LINE('',#2181,#504);
#349=LINE('',#2186,#505);
#350=LINE('',#2189,#506);
#351=LINE('',#2190,#507);
#352=LINE('',#2192,#508);
#353=LINE('',#2193,#509);
#354=LINE('',#2195,#510);
#355=LINE('',#2198,#511);
#356=LINE('',#2200,#512);
#357=LINE('',#2201,#513);
#358=LINE('',#2204,#514);
#359=LINE('',#2205,#515);
#360=LINE('',#2208,#516);
#361=LINE('',#2209,#517);
#362=LINE('',#2211,#518);
#363=LINE('',#2213,#519);
#364=LINE('',#2215,#520);
#365=LINE('',#2217,#521);
#366=LINE('',#2219,#522);
#367=LINE('',#2220,#523);
#368=LINE('',#2221,#524);
#369=LINE('',#2224,#525);
#370=LINE('',#2225,#526);
#371=LINE('',#2228,#527);
#372=LINE('',#2229,#528);
#373=LINE('',#2232,#529);
#374=LINE('',#2236,#530);
#375=LINE('',#2237,#531);
#376=LINE('',#2241,#532);
#377=LINE('',#2244,#533);
#378=LINE('',#2247,#534);
#379=LINE('',#2248,#535);
#380=LINE('',#2252,#536);
#381=LINE('',#2255,#537);
#382=LINE('',#2256,#538);
#383=LINE('',#2261,#539);
#384=LINE('',#2262,#540);
#385=LINE('',#2263,#541);
#386=LINE('',#2266,#542);
#387=LINE('',#2272,#543);
#388=LINE('',#2276,#544);
#389=LINE('',#2280,#545);
#390=LINE('',#2282,#546);
#391=LINE('',#2283,#547);
#392=LINE('',#2286,#548);
#393=LINE('',#2288,#549);
#394=LINE('',#2289,#550);
#395=LINE('',#2294,#551);
#396=LINE('',#2298,#552);
#397=LINE('',#2300,#553);
#398=LINE('',#2301,#554);
#399=LINE('',#2308,#555);
#400=LINE('',#2311,#556);
#401=LINE('',#2314,#557);
#402=LINE('',#2315,#558);
#403=LINE('',#2318,#559);
#404=LINE('',#2322,#560);
#405=LINE('',#2323,#561);
#406=LINE('',#2325,#562);
#407=LINE('',#2327,#563);
#408=LINE('',#2330,#564);
#409=VECTOR('',#1543,1.35);
#410=VECTOR('',#1554,5.);
#411=VECTOR('',#1557,2.7);
#412=VECTOR('',#1560,10.);
#413=VECTOR('',#1561,10.);
#414=VECTOR('',#1562,10.);
#415=VECTOR('',#1563,10.);
#416=VECTOR('',#1566,10.);
#417=VECTOR('',#1567,10.);
#418=VECTOR('',#1574,10.);
#419=VECTOR('',#1575,10.);
#420=VECTOR('',#1578,10.);
#421=VECTOR('',#1579,10.);
#422=VECTOR('',#1582,10.);
#423=VECTOR('',#1585,10.);
#424=VECTOR('',#1588,10.);
#425=VECTOR('',#1589,10.);
#426=VECTOR('',#1590,10.);
#427=VECTOR('',#1591,10.);
#428=VECTOR('',#1596,10.);
#429=VECTOR('',#1601,10.);
#430=VECTOR('',#1602,10.);
#431=VECTOR('',#1603,10.);
#432=VECTOR('',#1608,10.);
#433=VECTOR('',#1613,10.);
#434=VECTOR('',#1614,10.);
#435=VECTOR('',#1615,10.);
#436=VECTOR('',#1618,10.);
#437=VECTOR('',#1621,10.);
#438=VECTOR('',#1622,10.);
#439=VECTOR('',#1625,10.);
#440=VECTOR('',#1628,10.);
#441=VECTOR('',#1631,10.);
#442=VECTOR('',#1634,10.);
#443=VECTOR('',#1635,10.);
#444=VECTOR('',#1638,10.);
#445=VECTOR('',#1639,10.);
#446=VECTOR('',#1642,10.);
#447=VECTOR('',#1643,10.);
#448=VECTOR('',#1644,10.);
#449=VECTOR('',#1645,10.);
#450=VECTOR('',#1648,10.);
#451=VECTOR('',#1649,10.);
#452=VECTOR('',#1650,10.);
#453=VECTOR('',#1651,10.);
#454=VECTOR('',#1654,10.);
#455=VECTOR('',#1655,10.);
#456=VECTOR('',#1658,10.);
#457=VECTOR('',#1659,10.);
#458=VECTOR('',#1660,10.);
#459=VECTOR('',#1663,10.);
#460=VECTOR('',#1664,10.);
#461=VECTOR('',#1665,10.);
#462=VECTOR('',#1666,10.);
#463=VECTOR('',#1667,10.);
#464=VECTOR('',#1678,11.);
#465=VECTOR('',#1681,8.);
#466=VECTOR('',#1686,10.);
#467=VECTOR('',#1687,10.);
#468=VECTOR('',#1688,10.);
#469=VECTOR('',#1689,10.);
#470=VECTOR('',#1692,10.);
#471=VECTOR('',#1693,10.);
#472=VECTOR('',#1696,10.);
#473=VECTOR('',#1697,10.);
#474=VECTOR('',#1698,10.);
#475=VECTOR('',#1701,10.);
#476=VECTOR('',#1702,10.);
#477=VECTOR('',#1703,10.);
#478=VECTOR('',#1704,10.);
#479=VECTOR('',#1707,10.);
#480=VECTOR('',#1708,10.);
#481=VECTOR('',#1709,10.);
#482=VECTOR('',#1712,10.);
#483=VECTOR('',#1713,10.);
#484=VECTOR('',#1714,10.);
#485=VECTOR('',#1717,10.);
#486=VECTOR('',#1724,10.);
#487=VECTOR('',#1725,10.);
#488=VECTOR('',#1728,10.);
#489=VECTOR('',#1729,10.);
#490=VECTOR('',#1730,10.);
#491=VECTOR('',#1733,10.);
#492=VECTOR('',#1734,10.);
#493=VECTOR('',#1735,10.);
#494=VECTOR('',#1736,10.);
#495=VECTOR('',#1741,10.);
#496=VECTOR('',#1746,10.);
#497=VECTOR('',#1747,10.);
#498=VECTOR('',#1750,10.);
#499=VECTOR('',#1751,10.);
#500=VECTOR('',#1752,10.);
#501=VECTOR('',#1757,10.);
#502=VECTOR('',#1762,10.);
#503=VECTOR('',#1763,10.);
#504=VECTOR('',#1764,10.);
#505=VECTOR('',#1769,10.);
#506=VECTOR('',#1774,10.);
#507=VECTOR('',#1775,10.);
#508=VECTOR('',#1778,10.);
#509=VECTOR('',#1779,10.);
#510=VECTOR('',#1782,10.);
#511=VECTOR('',#1785,10.);
#512=VECTOR('',#1786,10.);
#513=VECTOR('',#1787,10.);
#514=VECTOR('',#1790,10.);
#515=VECTOR('',#1791,10.);
#516=VECTOR('',#1794,10.);
#517=VECTOR('',#1795,10.);
#518=VECTOR('',#1796,10.);
#519=VECTOR('',#1797,10.);
#520=VECTOR('',#1798,10.);
#521=VECTOR('',#1799,10.);
#522=VECTOR('',#1800,10.);
#523=VECTOR('',#1801,10.);
#524=VECTOR('',#1802,10.);
#525=VECTOR('',#1805,10.);
#526=VECTOR('',#1806,10.);
#527=VECTOR('',#1809,10.);
#528=VECTOR('',#1810,10.);
#529=VECTOR('',#1813,10.);
#530=VECTOR('',#1818,10.);
#531=VECTOR('',#1819,10.);
#532=VECTOR('',#1824,10.);
#533=VECTOR('',#1827,10.);
#534=VECTOR('',#1830,10.);
#535=VECTOR('',#1831,10.);
#536=VECTOR('',#1836,10.);
#537=VECTOR('',#1839,10.);
#538=VECTOR('',#1840,10.);
#539=VECTOR('',#1847,10.);
#540=VECTOR('',#1848,10.);
#541=VECTOR('',#1849,10.);
#542=VECTOR('',#1852,10.);
#543=VECTOR('',#1859,15.0000002235174);
#544=VECTOR('',#1866,10.);
#545=VECTOR('',#1871,10.);
#546=VECTOR('',#1872,10.);
#547=VECTOR('',#1873,10.);
#548=VECTOR('',#1876,10.);
#549=VECTOR('',#1877,10.);
#550=VECTOR('',#1878,10.);
#551=VECTOR('',#1883,10.);
#552=VECTOR('',#1888,10.);
#553=VECTOR('',#1889,10.);
#554=VECTOR('',#1890,10.);
#555=VECTOR('',#1901,10.);
#556=VECTOR('',#1904,10.);
#557=VECTOR('',#1907,10.);
#558=VECTOR('',#1908,10.);
#559=VECTOR('',#1911,10.);
#560=VECTOR('',#1916,10.);
#561=VECTOR('',#1917,10.);
#562=VECTOR('',#1920,10.);
#563=VECTOR('',#1923,10.);
#564=VECTOR('',#1928,10.);
#565=CIRCLE('',#1420,2.7);
#566=CIRCLE('',#1422,5.);
#567=CIRCLE('',#1423,2.7);
#568=CIRCLE('',#1425,5.);
#569=CIRCLE('',#1429,11.);
#570=CIRCLE('',#1431,11.);
#571=CIRCLE('',#1432,15.0000002235174);
#572=CIRCLE('',#1434,11.);
#573=CIRCLE('',#1437,7.00000003793025);
#574=CIRCLE('',#1438,7.00000003793025);
#575=CIRCLE('',#1441,6.00000008940697);
#576=CIRCLE('',#1442,6.00000008940697);
#577=CIRCLE('',#1446,5.00000007450581);
#578=CIRCLE('',#1447,5.);
#579=CIRCLE('',#1448,9.00000013411045);
#580=CIRCLE('',#1449,3.);
#581=CIRCLE('',#1457,11.);
#582=CIRCLE('',#1458,8.);
#583=CIRCLE('',#1460,11.);
#584=CIRCLE('',#1462,8.);
#585=CIRCLE('',#1470,6.00000007450581);
#586=CIRCLE('',#1471,5.00000007450581);
#587=CIRCLE('',#1476,5.);
#588=CIRCLE('',#1477,6.);
#589=CIRCLE('',#1481,1.5);
#590=CIRCLE('',#1482,2.5);
#591=CIRCLE('',#1485,1.5);
#592=CIRCLE('',#1486,2.5);
#593=CIRCLE('',#1496,5.);
#594=CIRCLE('',#1500,3.);
#595=CIRCLE('',#1503,5.);
#596=CIRCLE('',#1506,9.00000013411045);
#597=CIRCLE('',#1509,15.0000002235174);
#598=CIRCLE('',#1510,15.0000002235174);
#599=CIRCLE('',#1512,15.0000002235174);
#600=CIRCLE('',#1519,5.);
#601=CIRCLE('',#1520,5.);
#602=CIRCLE('',#1523,5.);
#603=CIRCLE('',#1524,5.);
#604=CIRCLE('',#1527,1.5);
#605=CIRCLE('',#1530,1.5);
#606=VERTEX_POINT('',#1933);
#607=VERTEX_POINT('',#1935);
#608=VERTEX_POINT('',#1938);
#609=VERTEX_POINT('',#1940);
#610=VERTEX_POINT('',#1943);
#611=VERTEX_POINT('',#1949);
#612=VERTEX_POINT('',#1950);
#613=VERTEX_POINT('',#1952);
#614=VERTEX_POINT('',#1954);
#615=VERTEX_POINT('',#1958);
#616=VERTEX_POINT('',#1960);
#617=VERTEX_POINT('',#1964);
#618=VERTEX_POINT('',#1966);
#619=VERTEX_POINT('',#1968);
#620=VERTEX_POINT('',#1970);
#621=VERTEX_POINT('',#1972);
#622=VERTEX_POINT('',#1976);
#623=VERTEX_POINT('',#1978);
#624=VERTEX_POINT('',#1982);
#625=VERTEX_POINT('',#1983);
#626=VERTEX_POINT('',#1985);
#627=VERTEX_POINT('',#1987);
#628=VERTEX_POINT('',#1991);
#629=VERTEX_POINT('',#1993);
#630=VERTEX_POINT('',#1997);
#631=VERTEX_POINT('',#1999);
#632=VERTEX_POINT('',#2003);
#633=VERTEX_POINT('',#2005);
#634=VERTEX_POINT('',#2009);
#635=VERTEX_POINT('',#2011);
#636=VERTEX_POINT('',#2017);
#637=VERTEX_POINT('',#2019);
#638=VERTEX_POINT('',#2021);
#639=VERTEX_POINT('',#2023);
#640=VERTEX_POINT('',#2025);
#641=VERTEX_POINT('',#2027);
#642=VERTEX_POINT('',#2029);
#643=VERTEX_POINT('',#2031);
#644=VERTEX_POINT('',#2033);
#645=VERTEX_POINT('',#2035);
#646=VERTEX_POINT('',#2039);
#647=VERTEX_POINT('',#2043);
#648=VERTEX_POINT('',#2044);
#649=VERTEX_POINT('',#2046);
#650=VERTEX_POINT('',#2048);
#651=VERTEX_POINT('',#2052);
#652=VERTEX_POINT('',#2053);
#653=VERTEX_POINT('',#2055);
#654=VERTEX_POINT('',#2057);
#655=VERTEX_POINT('',#2064);
#656=VERTEX_POINT('',#2066);
#657=VERTEX_POINT('',#2070);
#658=VERTEX_POINT('',#2072);
#659=VERTEX_POINT('',#2074);
#660=VERTEX_POINT('',#2076);
#661=VERTEX_POINT('',#2080);
#662=VERTEX_POINT('',#2082);
#663=VERTEX_POINT('',#2085);
#664=VERTEX_POINT('',#2089);
#665=VERTEX_POINT('',#2093);
#666=VERTEX_POINT('',#2094);
#667=VERTEX_POINT('',#2097);
#668=VERTEX_POINT('',#2101);
#669=VERTEX_POINT('',#2105);
#670=VERTEX_POINT('',#2107);
#671=VERTEX_POINT('',#2111);
#672=VERTEX_POINT('',#2112);
#673=VERTEX_POINT('',#2114);
#674=VERTEX_POINT('',#2116);
#675=VERTEX_POINT('',#2120);
#676=VERTEX_POINT('',#2122);
#677=VERTEX_POINT('',#2126);
#678=VERTEX_POINT('',#2128);
#679=VERTEX_POINT('',#2132);
#680=VERTEX_POINT('',#2133);
#681=VERTEX_POINT('',#2141);
#682=VERTEX_POINT('',#2143);
#683=VERTEX_POINT('',#2147);
#684=VERTEX_POINT('',#2148);
#685=VERTEX_POINT('',#2150);
#686=VERTEX_POINT('',#2152);
#687=VERTEX_POINT('',#2156);
#688=VERTEX_POINT('',#2158);
#689=VERTEX_POINT('',#2165);
#690=VERTEX_POINT('',#2167);
#691=VERTEX_POINT('',#2171);
#692=VERTEX_POINT('',#2173);
#693=VERTEX_POINT('',#2177);
#694=VERTEX_POINT('',#2178);
#695=VERTEX_POINT('',#2183);
#696=VERTEX_POINT('',#2185);
#697=VERTEX_POINT('',#2197);
#698=VERTEX_POINT('',#2199);
#699=VERTEX_POINT('',#2203);
#700=VERTEX_POINT('',#2207);
#701=VERTEX_POINT('',#2210);
#702=VERTEX_POINT('',#2212);
#703=VERTEX_POINT('',#2214);
#704=VERTEX_POINT('',#2216);
#705=VERTEX_POINT('',#2218);
#706=VERTEX_POINT('',#2223);
#707=VERTEX_POINT('',#2227);
#708=VERTEX_POINT('',#2231);
#709=VERTEX_POINT('',#2235);
#710=VERTEX_POINT('',#2240);
#711=VERTEX_POINT('',#2242);
#712=VERTEX_POINT('',#2246);
#713=VERTEX_POINT('',#2250);
#714=VERTEX_POINT('',#2254);
#715=VERTEX_POINT('',#2260);
#716=VERTEX_POINT('',#2265);
#717=VERTEX_POINT('',#2268);
#718=VERTEX_POINT('',#2271);
#719=VERTEX_POINT('',#2279);
#720=VERTEX_POINT('',#2281);
#721=VERTEX_POINT('',#2285);
#722=VERTEX_POINT('',#2287);
#723=VERTEX_POINT('',#2291);
#724=VERTEX_POINT('',#2293);
#725=VERTEX_POINT('',#2297);
#726=VERTEX_POINT('',#2299);
#727=VERTEX_POINT('',#2307);
#728=VERTEX_POINT('',#2309);
#729=VERTEX_POINT('',#2313);
#730=VERTEX_POINT('',#2317);
#731=VERTEX_POINT('',#2321);
#732=EDGE_CURVE('',#606,#606,#565,.T.);
#733=EDGE_CURVE('',#606,#607,#253,.T.);
#734=EDGE_CURVE('',#608,#608,#566,.T.);
#735=EDGE_CURVE('',#609,#609,#567,.T.);
#736=EDGE_CURVE('',#610,#610,#568,.T.);
#737=EDGE_CURVE('',#610,#608,#254,.T.);
#738=EDGE_CURVE('',#609,#606,#255,.T.);
#739=EDGE_CURVE('',#611,#612,#256,.T.);
#740=EDGE_CURVE('',#613,#611,#257,.T.);
#741=EDGE_CURVE('',#613,#614,#258,.T.);
#742=EDGE_CURVE('',#612,#614,#259,.T.);
#743=EDGE_CURVE('',#615,#613,#260,.T.);
#744=EDGE_CURVE('',#616,#615,#261,.T.);
#745=EDGE_CURVE('',#614,#616,#569,.T.);
#746=EDGE_CURVE('',#617,#612,#570,.T.);
#747=EDGE_CURVE('',#617,#618,#262,.T.);
#748=EDGE_CURVE('',#618,#619,#263,.T.);
#749=EDGE_CURVE('',#619,#620,#571,.T.);
#750=EDGE_CURVE('',#620,#621,#264,.T.);
#751=EDGE_CURVE('',#621,#611,#265,.T.);
#752=EDGE_CURVE('',#616,#622,#266,.T.);
#753=EDGE_CURVE('',#622,#623,#572,.T.);
#754=EDGE_CURVE('',#623,#617,#267,.T.);
#755=EDGE_CURVE('',#624,#625,#268,.T.);
#756=EDGE_CURVE('',#624,#626,#269,.T.);
#757=EDGE_CURVE('',#626,#627,#270,.T.);
#758=EDGE_CURVE('',#625,#627,#271,.T.);
#759=EDGE_CURVE('',#628,#624,#573,.T.);
#760=EDGE_CURVE('',#628,#629,#272,.T.);
#761=EDGE_CURVE('',#629,#626,#574,.T.);
#762=EDGE_CURVE('',#630,#628,#273,.T.);
#763=EDGE_CURVE('',#630,#631,#274,.T.);
#764=EDGE_CURVE('',#631,#629,#275,.T.);
#765=EDGE_CURVE('',#632,#630,#575,.T.);
#766=EDGE_CURVE('',#632,#633,#276,.T.);
#767=EDGE_CURVE('',#633,#631,#576,.T.);
#768=EDGE_CURVE('',#634,#632,#277,.T.);
#769=EDGE_CURVE('',#635,#634,#278,.T.);
#770=EDGE_CURVE('',#635,#633,#279,.T.);
#771=EDGE_CURVE('',#627,#635,#280,.T.);
#772=EDGE_CURVE('',#636,#625,#281,.T.);
#773=EDGE_CURVE('',#637,#636,#282,.T.);
#774=EDGE_CURVE('',#638,#637,#577,.T.);
#775=EDGE_CURVE('',#639,#638,#283,.T.);
#776=EDGE_CURVE('',#639,#640,#578,.T.);
#777=EDGE_CURVE('',#641,#640,#284,.T.);
#778=EDGE_CURVE('',#642,#641,#579,.T.);
#779=EDGE_CURVE('',#643,#642,#285,.T.);
#780=EDGE_CURVE('',#643,#644,#580,.T.);
#781=EDGE_CURVE('',#645,#644,#286,.T.);
#782=EDGE_CURVE('',#634,#645,#287,.T.);
#783=EDGE_CURVE('',#646,#615,#288,.T.);
#784=EDGE_CURVE('',#622,#646,#289,.T.);
#785=EDGE_CURVE('',#647,#648,#290,.T.);
#786=EDGE_CURVE('',#649,#647,#291,.T.);
#787=EDGE_CURVE('',#649,#650,#292,.T.);
#788=EDGE_CURVE('',#648,#650,#293,.T.);
#789=EDGE_CURVE('',#651,#652,#294,.T.);
#790=EDGE_CURVE('',#653,#651,#295,.T.);
#791=EDGE_CURVE('',#653,#654,#296,.T.);
#792=EDGE_CURVE('',#652,#654,#297,.T.);
#793=EDGE_CURVE('',#650,#653,#298,.T.);
#794=EDGE_CURVE('',#654,#649,#299,.T.);
#795=EDGE_CURVE('',#655,#652,#300,.T.);
#796=EDGE_CURVE('',#656,#655,#301,.T.);
#797=EDGE_CURVE('',#656,#651,#302,.T.);
#798=EDGE_CURVE('',#648,#657,#303,.T.);
#799=EDGE_CURVE('',#657,#658,#304,.T.);
#800=EDGE_CURVE('',#658,#659,#305,.T.);
#801=EDGE_CURVE('',#660,#659,#306,.T.);
#802=EDGE_CURVE('',#647,#660,#307,.T.);
#803=EDGE_CURVE('',#661,#661,#581,.T.);
#804=EDGE_CURVE('',#662,#662,#582,.T.);
#805=EDGE_CURVE('',#663,#663,#583,.T.);
#806=EDGE_CURVE('',#663,#661,#308,.T.);
#807=EDGE_CURVE('',#662,#664,#309,.T.);
#808=EDGE_CURVE('',#664,#664,#584,.T.);
#809=EDGE_CURVE('',#665,#666,#310,.T.);
#810=EDGE_CURVE('',#666,#659,#311,.T.);
#811=EDGE_CURVE('',#659,#667,#312,.T.);
#812=EDGE_CURVE('',#665,#667,#313,.T.);
#813=EDGE_CURVE('',#666,#668,#314,.T.);
#814=EDGE_CURVE('',#668,#660,#315,.T.);
#815=EDGE_CURVE('',#668,#669,#316,.T.);
#816=EDGE_CURVE('',#669,#670,#317,.T.);
#817=EDGE_CURVE('',#670,#660,#318,.T.);
#818=EDGE_CURVE('',#671,#672,#319,.T.);
#819=EDGE_CURVE('',#672,#673,#320,.T.);
#820=EDGE_CURVE('',#673,#674,#321,.T.);
#821=EDGE_CURVE('',#674,#671,#322,.T.);
#822=EDGE_CURVE('',#674,#675,#323,.T.);
#823=EDGE_CURVE('',#675,#676,#324,.T.);
#824=EDGE_CURVE('',#676,#671,#325,.T.);
#825=EDGE_CURVE('',#677,#676,#326,.T.);
#826=EDGE_CURVE('',#675,#678,#327,.T.);
#827=EDGE_CURVE('',#678,#677,#328,.T.);
#828=EDGE_CURVE('',#679,#680,#329,.T.);
#829=EDGE_CURVE('',#680,#673,#585,.T.);
#830=EDGE_CURVE('',#672,#679,#586,.T.);
#831=EDGE_CURVE('',#669,#680,#330,.T.);
#832=EDGE_CURVE('',#679,#670,#331,.T.);
#833=EDGE_CURVE('',#681,#677,#332,.T.);
#834=EDGE_CURVE('',#678,#682,#333,.T.);
#835=EDGE_CURVE('',#682,#681,#334,.T.);
#836=EDGE_CURVE('',#683,#684,#335,.T.);
#837=EDGE_CURVE('',#684,#685,#336,.T.);
#838=EDGE_CURVE('',#685,#686,#337,.T.);
#839=EDGE_CURVE('',#686,#683,#338,.T.);
#840=EDGE_CURVE('',#684,#687,#587,.T.);
#841=EDGE_CURVE('',#687,#688,#339,.T.);
#842=EDGE_CURVE('',#688,#685,#588,.T.);
#843=EDGE_CURVE('',#682,#688,#340,.T.);
#844=EDGE_CURVE('',#687,#681,#341,.T.);
#845=EDGE_CURVE('',#667,#689,#342,.T.);
#846=EDGE_CURVE('',#689,#690,#343,.T.);
#847=EDGE_CURVE('',#690,#665,#344,.T.);
#848=EDGE_CURVE('',#689,#691,#589,.T.);
#849=EDGE_CURVE('',#691,#692,#345,.T.);
#850=EDGE_CURVE('',#692,#690,#590,.T.);
#851=EDGE_CURVE('',#693,#694,#346,.T.);
#852=EDGE_CURVE('',#694,#692,#347,.T.);
#853=EDGE_CURVE('',#691,#693,#348,.T.);
#854=EDGE_CURVE('',#693,#695,#591,.T.);
#855=EDGE_CURVE('',#695,#696,#349,.T.);
#856=EDGE_CURVE('',#696,#694,#592,.T.);
#857=EDGE_CURVE('',#686,#696,#350,.T.);
#858=EDGE_CURVE('',#695,#683,#351,.T.);
#859=EDGE_CURVE('',#679,#637,#352,.T.);
#860=EDGE_CURVE('',#670,#636,#353,.T.);
#861=EDGE_CURVE('',#672,#638,#354,.T.);
#862=EDGE_CURVE('',#697,#671,#355,.T.);
#863=EDGE_CURVE('',#698,#697,#356,.T.);
#864=EDGE_CURVE('',#639,#698,#357,.T.);
#865=EDGE_CURVE('',#699,#676,#358,.T.);
#866=EDGE_CURVE('',#699,#697,#359,.T.);
#867=EDGE_CURVE('',#621,#700,#360,.T.);
#868=EDGE_CURVE('',#700,#699,#361,.T.);
#869=EDGE_CURVE('',#677,#701,#362,.T.);
#870=EDGE_CURVE('',#701,#702,#363,.T.);
#871=EDGE_CURVE('',#702,#703,#364,.T.);
#872=EDGE_CURVE('',#703,#704,#365,.T.);
#873=EDGE_CURVE('',#704,#705,#366,.T.);
#874=EDGE_CURVE('',#705,#657,#367,.T.);
#875=EDGE_CURVE('',#646,#656,#368,.T.);
#876=EDGE_CURVE('',#681,#706,#369,.T.);
#877=EDGE_CURVE('',#706,#701,#370,.T.);
#878=EDGE_CURVE('',#707,#687,#371,.T.);
#879=EDGE_CURVE('',#707,#706,#372,.T.);
#880=EDGE_CURVE('',#684,#708,#373,.T.);
#881=EDGE_CURVE('',#707,#708,#593,.T.);
#882=EDGE_CURVE('',#683,#709,#374,.T.);
#883=EDGE_CURVE('',#709,#708,#375,.T.);
#884=EDGE_CURVE('',#643,#710,#376,.T.);
#885=EDGE_CURVE('',#710,#711,#594,.T.);
#886=EDGE_CURVE('',#711,#644,#377,.T.);
#887=EDGE_CURVE('',#712,#642,#378,.T.);
#888=EDGE_CURVE('',#710,#712,#379,.T.);
#889=EDGE_CURVE('',#698,#713,#595,.T.);
#890=EDGE_CURVE('',#713,#640,#380,.T.);
#891=EDGE_CURVE('',#714,#713,#381,.T.);
#892=EDGE_CURVE('',#714,#641,#382,.T.);
#893=EDGE_CURVE('',#712,#714,#596,.T.);
#894=EDGE_CURVE('',#715,#711,#383,.T.);
#895=EDGE_CURVE('',#619,#715,#384,.T.);
#896=EDGE_CURVE('',#645,#618,#385,.T.);
#897=EDGE_CURVE('',#716,#700,#386,.T.);
#898=EDGE_CURVE('',#715,#716,#597,.T.);
#899=EDGE_CURVE('',#717,#717,#598,.T.);
#900=EDGE_CURVE('',#717,#718,#387,.T.);
#901=EDGE_CURVE('',#718,#718,#599,.T.);
#902=EDGE_CURVE('',#620,#716,#388,.T.);
#903=EDGE_CURVE('',#705,#719,#389,.T.);
#904=EDGE_CURVE('',#704,#720,#390,.T.);
#905=EDGE_CURVE('',#719,#720,#391,.T.);
#906=EDGE_CURVE('',#721,#702,#392,.T.);
#907=EDGE_CURVE('',#721,#722,#393,.T.);
#908=EDGE_CURVE('',#722,#703,#394,.T.);
#909=EDGE_CURVE('',#723,#721,#600,.T.);
#910=EDGE_CURVE('',#723,#724,#395,.T.);
#911=EDGE_CURVE('',#724,#722,#601,.T.);
#912=EDGE_CURVE('',#725,#723,#396,.T.);
#913=EDGE_CURVE('',#725,#726,#397,.T.);
#914=EDGE_CURVE('',#726,#724,#398,.T.);
#915=EDGE_CURVE('',#719,#725,#602,.T.);
#916=EDGE_CURVE('',#720,#726,#603,.T.);
#917=EDGE_CURVE('',#693,#727,#399,.T.);
#918=EDGE_CURVE('',#728,#727,#604,.T.);
#919=EDGE_CURVE('',#728,#695,#400,.T.);
#920=EDGE_CURVE('',#729,#691,#401,.T.);
#921=EDGE_CURVE('',#729,#727,#402,.T.);
#922=EDGE_CURVE('',#689,#730,#403,.T.);
#923=EDGE_CURVE('',#729,#730,#605,.T.);
#924=EDGE_CURVE('',#667,#731,#404,.T.);
#925=EDGE_CURVE('',#731,#730,#405,.T.);
#926=EDGE_CURVE('',#728,#709,#406,.T.);
#927=EDGE_CURVE('',#658,#731,#407,.T.);
#928=EDGE_CURVE('',#655,#623,#408,.T.);
#929=ORIENTED_EDGE('',*,*,#732,.F.);
#930=ORIENTED_EDGE('',*,*,#733,.T.);
#931=ORIENTED_EDGE('',*,*,#733,.F.);
#932=ORIENTED_EDGE('',*,*,#734,.F.);
#933=ORIENTED_EDGE('',*,*,#735,.T.);
#934=ORIENTED_EDGE('',*,*,#736,.F.);
#935=ORIENTED_EDGE('',*,*,#737,.T.);
#936=ORIENTED_EDGE('',*,*,#734,.T.);
#937=ORIENTED_EDGE('',*,*,#737,.F.);
#938=ORIENTED_EDGE('',*,*,#735,.F.);
#939=ORIENTED_EDGE('',*,*,#738,.T.);
#940=ORIENTED_EDGE('',*,*,#732,.T.);
#941=ORIENTED_EDGE('',*,*,#738,.F.);
#942=ORIENTED_EDGE('',*,*,#739,.F.);
#943=ORIENTED_EDGE('',*,*,#740,.F.);
#944=ORIENTED_EDGE('',*,*,#741,.T.);
#945=ORIENTED_EDGE('',*,*,#742,.F.);
#946=ORIENTED_EDGE('',*,*,#743,.F.);
#947=ORIENTED_EDGE('',*,*,#744,.F.);
#948=ORIENTED_EDGE('',*,*,#745,.F.);
#949=ORIENTED_EDGE('',*,*,#741,.F.);
#950=ORIENTED_EDGE('',*,*,#739,.T.);
#951=ORIENTED_EDGE('',*,*,#746,.F.);
#952=ORIENTED_EDGE('',*,*,#747,.T.);
#953=ORIENTED_EDGE('',*,*,#748,.T.);
#954=ORIENTED_EDGE('',*,*,#749,.T.);
#955=ORIENTED_EDGE('',*,*,#750,.T.);
#956=ORIENTED_EDGE('',*,*,#751,.T.);
#957=ORIENTED_EDGE('',*,*,#742,.T.);
#958=ORIENTED_EDGE('',*,*,#745,.T.);
#959=ORIENTED_EDGE('',*,*,#752,.T.);
#960=ORIENTED_EDGE('',*,*,#753,.T.);
#961=ORIENTED_EDGE('',*,*,#754,.T.);
#962=ORIENTED_EDGE('',*,*,#746,.T.);
#963=ORIENTED_EDGE('',*,*,#755,.F.);
#964=ORIENTED_EDGE('',*,*,#756,.T.);
#965=ORIENTED_EDGE('',*,*,#757,.T.);
#966=ORIENTED_EDGE('',*,*,#758,.F.);
#967=ORIENTED_EDGE('',*,*,#759,.F.);
#968=ORIENTED_EDGE('',*,*,#760,.T.);
#969=ORIENTED_EDGE('',*,*,#761,.T.);
#970=ORIENTED_EDGE('',*,*,#756,.F.);
#971=ORIENTED_EDGE('',*,*,#762,.F.);
#972=ORIENTED_EDGE('',*,*,#763,.T.);
#973=ORIENTED_EDGE('',*,*,#764,.T.);
#974=ORIENTED_EDGE('',*,*,#760,.F.);
#975=ORIENTED_EDGE('',*,*,#765,.F.);
#976=ORIENTED_EDGE('',*,*,#766,.T.);
#977=ORIENTED_EDGE('',*,*,#767,.T.);
#978=ORIENTED_EDGE('',*,*,#763,.F.);
#979=ORIENTED_EDGE('',*,*,#768,.F.);
#980=ORIENTED_EDGE('',*,*,#769,.F.);
#981=ORIENTED_EDGE('',*,*,#770,.T.);
#982=ORIENTED_EDGE('',*,*,#766,.F.);
#983=ORIENTED_EDGE('',*,*,#770,.F.);
#984=ORIENTED_EDGE('',*,*,#771,.F.);
#985=ORIENTED_EDGE('',*,*,#757,.F.);
#986=ORIENTED_EDGE('',*,*,#761,.F.);
#987=ORIENTED_EDGE('',*,*,#764,.F.);
#988=ORIENTED_EDGE('',*,*,#767,.F.);
#989=ORIENTED_EDGE('',*,*,#768,.T.);
#990=ORIENTED_EDGE('',*,*,#765,.T.);
#991=ORIENTED_EDGE('',*,*,#762,.T.);
#992=ORIENTED_EDGE('',*,*,#759,.T.);
#993=ORIENTED_EDGE('',*,*,#755,.T.);
#994=ORIENTED_EDGE('',*,*,#772,.F.);
#995=ORIENTED_EDGE('',*,*,#773,.F.);
#996=ORIENTED_EDGE('',*,*,#774,.F.);
#997=ORIENTED_EDGE('',*,*,#775,.F.);
#998=ORIENTED_EDGE('',*,*,#776,.T.);
#999=ORIENTED_EDGE('',*,*,#777,.F.);
#1000=ORIENTED_EDGE('',*,*,#778,.F.);
#1001=ORIENTED_EDGE('',*,*,#779,.F.);
#1002=ORIENTED_EDGE('',*,*,#780,.T.);
#1003=ORIENTED_EDGE('',*,*,#781,.F.);
#1004=ORIENTED_EDGE('',*,*,#782,.F.);
#1005=ORIENTED_EDGE('',*,*,#744,.T.);
#1006=ORIENTED_EDGE('',*,*,#783,.F.);
#1007=ORIENTED_EDGE('',*,*,#784,.F.);
#1008=ORIENTED_EDGE('',*,*,#752,.F.);
#1009=ORIENTED_EDGE('',*,*,#785,.F.);
#1010=ORIENTED_EDGE('',*,*,#786,.F.);
#1011=ORIENTED_EDGE('',*,*,#787,.T.);
#1012=ORIENTED_EDGE('',*,*,#788,.F.);
#1013=ORIENTED_EDGE('',*,*,#789,.F.);
#1014=ORIENTED_EDGE('',*,*,#790,.F.);
#1015=ORIENTED_EDGE('',*,*,#791,.T.);
#1016=ORIENTED_EDGE('',*,*,#792,.F.);
#1017=ORIENTED_EDGE('',*,*,#791,.F.);
#1018=ORIENTED_EDGE('',*,*,#793,.F.);
#1019=ORIENTED_EDGE('',*,*,#787,.F.);
#1020=ORIENTED_EDGE('',*,*,#794,.F.);
#1021=ORIENTED_EDGE('',*,*,#789,.T.);
#1022=ORIENTED_EDGE('',*,*,#795,.F.);
#1023=ORIENTED_EDGE('',*,*,#796,.F.);
#1024=ORIENTED_EDGE('',*,*,#797,.T.);
#1025=ORIENTED_EDGE('',*,*,#785,.T.);
#1026=ORIENTED_EDGE('',*,*,#798,.T.);
#1027=ORIENTED_EDGE('',*,*,#799,.T.);
#1028=ORIENTED_EDGE('',*,*,#800,.T.);
#1029=ORIENTED_EDGE('',*,*,#801,.F.);
#1030=ORIENTED_EDGE('',*,*,#802,.F.);
#1031=ORIENTED_EDGE('',*,*,#803,.F.);
#1032=ORIENTED_EDGE('',*,*,#804,.T.);
#1033=ORIENTED_EDGE('',*,*,#805,.F.);
#1034=ORIENTED_EDGE('',*,*,#806,.T.);
#1035=ORIENTED_EDGE('',*,*,#803,.T.);
#1036=ORIENTED_EDGE('',*,*,#806,.F.);
#1037=ORIENTED_EDGE('',*,*,#804,.F.);
#1038=ORIENTED_EDGE('',*,*,#807,.T.);
#1039=ORIENTED_EDGE('',*,*,#808,.F.);
#1040=ORIENTED_EDGE('',*,*,#807,.F.);
#1041=ORIENTED_EDGE('',*,*,#809,.T.);
#1042=ORIENTED_EDGE('',*,*,#810,.T.);
#1043=ORIENTED_EDGE('',*,*,#811,.T.);
#1044=ORIENTED_EDGE('',*,*,#812,.F.);
#1045=ORIENTED_EDGE('',*,*,#813,.T.);
#1046=ORIENTED_EDGE('',*,*,#814,.T.);
#1047=ORIENTED_EDGE('',*,*,#801,.T.);
#1048=ORIENTED_EDGE('',*,*,#810,.F.);
#1049=ORIENTED_EDGE('',*,*,#815,.T.);
#1050=ORIENTED_EDGE('',*,*,#816,.T.);
#1051=ORIENTED_EDGE('',*,*,#817,.T.);
#1052=ORIENTED_EDGE('',*,*,#814,.F.);
#1053=ORIENTED_EDGE('',*,*,#818,.T.);
#1054=ORIENTED_EDGE('',*,*,#819,.T.);
#1055=ORIENTED_EDGE('',*,*,#820,.T.);
#1056=ORIENTED_EDGE('',*,*,#821,.T.);
#1057=ORIENTED_EDGE('',*,*,#822,.T.);
#1058=ORIENTED_EDGE('',*,*,#823,.T.);
#1059=ORIENTED_EDGE('',*,*,#824,.T.);
#1060=ORIENTED_EDGE('',*,*,#821,.F.);
#1061=ORIENTED_EDGE('',*,*,#825,.T.);
#1062=ORIENTED_EDGE('',*,*,#823,.F.);
#1063=ORIENTED_EDGE('',*,*,#826,.T.);
#1064=ORIENTED_EDGE('',*,*,#827,.T.);
#1065=ORIENTED_EDGE('',*,*,#828,.T.);
#1066=ORIENTED_EDGE('',*,*,#829,.T.);
#1067=ORIENTED_EDGE('',*,*,#819,.F.);
#1068=ORIENTED_EDGE('',*,*,#830,.T.);
#1069=ORIENTED_EDGE('',*,*,#831,.T.);
#1070=ORIENTED_EDGE('',*,*,#828,.F.);
#1071=ORIENTED_EDGE('',*,*,#832,.T.);
#1072=ORIENTED_EDGE('',*,*,#816,.F.);
#1073=ORIENTED_EDGE('',*,*,#833,.T.);
#1074=ORIENTED_EDGE('',*,*,#827,.F.);
#1075=ORIENTED_EDGE('',*,*,#834,.T.);
#1076=ORIENTED_EDGE('',*,*,#835,.T.);
#1077=ORIENTED_EDGE('',*,*,#836,.T.);
#1078=ORIENTED_EDGE('',*,*,#837,.T.);
#1079=ORIENTED_EDGE('',*,*,#838,.T.);
#1080=ORIENTED_EDGE('',*,*,#839,.T.);
#1081=ORIENTED_EDGE('',*,*,#837,.F.);
#1082=ORIENTED_EDGE('',*,*,#840,.T.);
#1083=ORIENTED_EDGE('',*,*,#841,.T.);
#1084=ORIENTED_EDGE('',*,*,#842,.T.);
#1085=ORIENTED_EDGE('',*,*,#843,.T.);
#1086=ORIENTED_EDGE('',*,*,#841,.F.);
#1087=ORIENTED_EDGE('',*,*,#844,.T.);
#1088=ORIENTED_EDGE('',*,*,#835,.F.);
#1089=ORIENTED_EDGE('',*,*,#845,.T.);
#1090=ORIENTED_EDGE('',*,*,#846,.T.);
#1091=ORIENTED_EDGE('',*,*,#847,.T.);
#1092=ORIENTED_EDGE('',*,*,#812,.T.);
#1093=ORIENTED_EDGE('',*,*,#846,.F.);
#1094=ORIENTED_EDGE('',*,*,#848,.T.);
#1095=ORIENTED_EDGE('',*,*,#849,.T.);
#1096=ORIENTED_EDGE('',*,*,#850,.T.);
#1097=ORIENTED_EDGE('',*,*,#851,.T.);
#1098=ORIENTED_EDGE('',*,*,#852,.T.);
#1099=ORIENTED_EDGE('',*,*,#849,.F.);
#1100=ORIENTED_EDGE('',*,*,#853,.T.);
#1101=ORIENTED_EDGE('',*,*,#851,.F.);
#1102=ORIENTED_EDGE('',*,*,#854,.T.);
#1103=ORIENTED_EDGE('',*,*,#855,.T.);
#1104=ORIENTED_EDGE('',*,*,#856,.T.);
#1105=ORIENTED_EDGE('',*,*,#857,.T.);
#1106=ORIENTED_EDGE('',*,*,#855,.F.);
#1107=ORIENTED_EDGE('',*,*,#858,.T.);
#1108=ORIENTED_EDGE('',*,*,#839,.F.);
#1109=ORIENTED_EDGE('',*,*,#832,.F.);
#1110=ORIENTED_EDGE('',*,*,#859,.T.);
#1111=ORIENTED_EDGE('',*,*,#773,.T.);
#1112=ORIENTED_EDGE('',*,*,#860,.F.);
#1113=ORIENTED_EDGE('',*,*,#830,.F.);
#1114=ORIENTED_EDGE('',*,*,#861,.T.);
#1115=ORIENTED_EDGE('',*,*,#774,.T.);
#1116=ORIENTED_EDGE('',*,*,#859,.F.);
#1117=ORIENTED_EDGE('',*,*,#818,.F.);
#1118=ORIENTED_EDGE('',*,*,#862,.F.);
#1119=ORIENTED_EDGE('',*,*,#863,.F.);
#1120=ORIENTED_EDGE('',*,*,#864,.F.);
#1121=ORIENTED_EDGE('',*,*,#775,.T.);
#1122=ORIENTED_EDGE('',*,*,#861,.F.);
#1123=ORIENTED_EDGE('',*,*,#824,.F.);
#1124=ORIENTED_EDGE('',*,*,#865,.F.);
#1125=ORIENTED_EDGE('',*,*,#866,.T.);
#1126=ORIENTED_EDGE('',*,*,#862,.T.);
#1127=ORIENTED_EDGE('',*,*,#740,.T.);
#1128=ORIENTED_EDGE('',*,*,#751,.F.);
#1129=ORIENTED_EDGE('',*,*,#867,.T.);
#1130=ORIENTED_EDGE('',*,*,#868,.T.);
#1131=ORIENTED_EDGE('',*,*,#865,.T.);
#1132=ORIENTED_EDGE('',*,*,#825,.F.);
#1133=ORIENTED_EDGE('',*,*,#869,.T.);
#1134=ORIENTED_EDGE('',*,*,#870,.T.);
#1135=ORIENTED_EDGE('',*,*,#871,.T.);
#1136=ORIENTED_EDGE('',*,*,#872,.T.);
#1137=ORIENTED_EDGE('',*,*,#873,.T.);
#1138=ORIENTED_EDGE('',*,*,#874,.T.);
#1139=ORIENTED_EDGE('',*,*,#798,.F.);
#1140=ORIENTED_EDGE('',*,*,#788,.T.);
#1141=ORIENTED_EDGE('',*,*,#793,.T.);
#1142=ORIENTED_EDGE('',*,*,#790,.T.);
#1143=ORIENTED_EDGE('',*,*,#797,.F.);
#1144=ORIENTED_EDGE('',*,*,#875,.F.);
#1145=ORIENTED_EDGE('',*,*,#783,.T.);
#1146=ORIENTED_EDGE('',*,*,#743,.T.);
#1147=ORIENTED_EDGE('',*,*,#736,.T.);
#1148=ORIENTED_EDGE('',*,*,#833,.F.);
#1149=ORIENTED_EDGE('',*,*,#876,.T.);
#1150=ORIENTED_EDGE('',*,*,#877,.T.);
#1151=ORIENTED_EDGE('',*,*,#869,.F.);
#1152=ORIENTED_EDGE('',*,*,#844,.F.);
#1153=ORIENTED_EDGE('',*,*,#878,.F.);
#1154=ORIENTED_EDGE('',*,*,#879,.T.);
#1155=ORIENTED_EDGE('',*,*,#876,.F.);
#1156=ORIENTED_EDGE('',*,*,#840,.F.);
#1157=ORIENTED_EDGE('',*,*,#880,.T.);
#1158=ORIENTED_EDGE('',*,*,#881,.F.);
#1159=ORIENTED_EDGE('',*,*,#878,.T.);
#1160=ORIENTED_EDGE('',*,*,#836,.F.);
#1161=ORIENTED_EDGE('',*,*,#882,.T.);
#1162=ORIENTED_EDGE('',*,*,#883,.T.);
#1163=ORIENTED_EDGE('',*,*,#880,.F.);
#1164=ORIENTED_EDGE('',*,*,#838,.F.);
#1165=ORIENTED_EDGE('',*,*,#842,.F.);
#1166=ORIENTED_EDGE('',*,*,#843,.F.);
#1167=ORIENTED_EDGE('',*,*,#834,.F.);
#1168=ORIENTED_EDGE('',*,*,#826,.F.);
#1169=ORIENTED_EDGE('',*,*,#822,.F.);
#1170=ORIENTED_EDGE('',*,*,#820,.F.);
#1171=ORIENTED_EDGE('',*,*,#829,.F.);
#1172=ORIENTED_EDGE('',*,*,#831,.F.);
#1173=ORIENTED_EDGE('',*,*,#815,.F.);
#1174=ORIENTED_EDGE('',*,*,#813,.F.);
#1175=ORIENTED_EDGE('',*,*,#809,.F.);
#1176=ORIENTED_EDGE('',*,*,#847,.F.);
#1177=ORIENTED_EDGE('',*,*,#850,.F.);
#1178=ORIENTED_EDGE('',*,*,#852,.F.);
#1179=ORIENTED_EDGE('',*,*,#856,.F.);
#1180=ORIENTED_EDGE('',*,*,#857,.F.);
#1181=ORIENTED_EDGE('',*,*,#805,.T.);
#1182=ORIENTED_EDGE('',*,*,#780,.F.);
#1183=ORIENTED_EDGE('',*,*,#884,.T.);
#1184=ORIENTED_EDGE('',*,*,#885,.T.);
#1185=ORIENTED_EDGE('',*,*,#886,.T.);
#1186=ORIENTED_EDGE('',*,*,#884,.F.);
#1187=ORIENTED_EDGE('',*,*,#779,.T.);
#1188=ORIENTED_EDGE('',*,*,#887,.F.);
#1189=ORIENTED_EDGE('',*,*,#888,.F.);
#1190=ORIENTED_EDGE('',*,*,#776,.F.);
#1191=ORIENTED_EDGE('',*,*,#864,.T.);
#1192=ORIENTED_EDGE('',*,*,#889,.T.);
#1193=ORIENTED_EDGE('',*,*,#890,.T.);
#1194=ORIENTED_EDGE('',*,*,#890,.F.);
#1195=ORIENTED_EDGE('',*,*,#891,.F.);
#1196=ORIENTED_EDGE('',*,*,#892,.T.);
#1197=ORIENTED_EDGE('',*,*,#777,.T.);
#1198=ORIENTED_EDGE('',*,*,#893,.F.);
#1199=ORIENTED_EDGE('',*,*,#887,.T.);
#1200=ORIENTED_EDGE('',*,*,#778,.T.);
#1201=ORIENTED_EDGE('',*,*,#892,.F.);
#1202=ORIENTED_EDGE('',*,*,#886,.F.);
#1203=ORIENTED_EDGE('',*,*,#894,.F.);
#1204=ORIENTED_EDGE('',*,*,#895,.F.);
#1205=ORIENTED_EDGE('',*,*,#748,.F.);
#1206=ORIENTED_EDGE('',*,*,#896,.F.);
#1207=ORIENTED_EDGE('',*,*,#781,.T.);
#1208=ORIENTED_EDGE('',*,*,#894,.T.);
#1209=ORIENTED_EDGE('',*,*,#885,.F.);
#1210=ORIENTED_EDGE('',*,*,#888,.T.);
#1211=ORIENTED_EDGE('',*,*,#893,.T.);
#1212=ORIENTED_EDGE('',*,*,#891,.T.);
#1213=ORIENTED_EDGE('',*,*,#889,.F.);
#1214=ORIENTED_EDGE('',*,*,#863,.T.);
#1215=ORIENTED_EDGE('',*,*,#866,.F.);
#1216=ORIENTED_EDGE('',*,*,#868,.F.);
#1217=ORIENTED_EDGE('',*,*,#897,.F.);
#1218=ORIENTED_EDGE('',*,*,#898,.F.);
#1219=ORIENTED_EDGE('',*,*,#899,.T.);
#1220=ORIENTED_EDGE('',*,*,#899,.F.);
#1221=ORIENTED_EDGE('',*,*,#900,.T.);
#1222=ORIENTED_EDGE('',*,*,#901,.T.);
#1223=ORIENTED_EDGE('',*,*,#900,.F.);
#1224=ORIENTED_EDGE('',*,*,#901,.F.);
#1225=ORIENTED_EDGE('',*,*,#750,.F.);
#1226=ORIENTED_EDGE('',*,*,#902,.T.);
#1227=ORIENTED_EDGE('',*,*,#897,.T.);
#1228=ORIENTED_EDGE('',*,*,#867,.F.);
#1229=ORIENTED_EDGE('',*,*,#749,.F.);
#1230=ORIENTED_EDGE('',*,*,#895,.T.);
#1231=ORIENTED_EDGE('',*,*,#898,.T.);
#1232=ORIENTED_EDGE('',*,*,#902,.F.);
#1233=ORIENTED_EDGE('',*,*,#903,.F.);
#1234=ORIENTED_EDGE('',*,*,#873,.F.);
#1235=ORIENTED_EDGE('',*,*,#904,.T.);
#1236=ORIENTED_EDGE('',*,*,#905,.F.);
#1237=ORIENTED_EDGE('',*,*,#906,.F.);
#1238=ORIENTED_EDGE('',*,*,#907,.T.);
#1239=ORIENTED_EDGE('',*,*,#908,.T.);
#1240=ORIENTED_EDGE('',*,*,#871,.F.);
#1241=ORIENTED_EDGE('',*,*,#909,.F.);
#1242=ORIENTED_EDGE('',*,*,#910,.T.);
#1243=ORIENTED_EDGE('',*,*,#911,.T.);
#1244=ORIENTED_EDGE('',*,*,#907,.F.);
#1245=ORIENTED_EDGE('',*,*,#912,.F.);
#1246=ORIENTED_EDGE('',*,*,#913,.T.);
#1247=ORIENTED_EDGE('',*,*,#914,.T.);
#1248=ORIENTED_EDGE('',*,*,#910,.F.);
#1249=ORIENTED_EDGE('',*,*,#915,.F.);
#1250=ORIENTED_EDGE('',*,*,#905,.T.);
#1251=ORIENTED_EDGE('',*,*,#916,.T.);
#1252=ORIENTED_EDGE('',*,*,#913,.F.);
#1253=ORIENTED_EDGE('',*,*,#916,.F.);
#1254=ORIENTED_EDGE('',*,*,#904,.F.);
#1255=ORIENTED_EDGE('',*,*,#872,.F.);
#1256=ORIENTED_EDGE('',*,*,#908,.F.);
#1257=ORIENTED_EDGE('',*,*,#911,.F.);
#1258=ORIENTED_EDGE('',*,*,#914,.F.);
#1259=ORIENTED_EDGE('',*,*,#854,.F.);
#1260=ORIENTED_EDGE('',*,*,#917,.T.);
#1261=ORIENTED_EDGE('',*,*,#918,.F.);
#1262=ORIENTED_EDGE('',*,*,#919,.T.);
#1263=ORIENTED_EDGE('',*,*,#853,.F.);
#1264=ORIENTED_EDGE('',*,*,#920,.F.);
#1265=ORIENTED_EDGE('',*,*,#921,.T.);
#1266=ORIENTED_EDGE('',*,*,#917,.F.);
#1267=ORIENTED_EDGE('',*,*,#848,.F.);
#1268=ORIENTED_EDGE('',*,*,#922,.T.);
#1269=ORIENTED_EDGE('',*,*,#923,.F.);
#1270=ORIENTED_EDGE('',*,*,#920,.T.);
#1271=ORIENTED_EDGE('',*,*,#845,.F.);
#1272=ORIENTED_EDGE('',*,*,#924,.T.);
#1273=ORIENTED_EDGE('',*,*,#925,.T.);
#1274=ORIENTED_EDGE('',*,*,#922,.F.);
#1275=ORIENTED_EDGE('',*,*,#858,.F.);
#1276=ORIENTED_EDGE('',*,*,#919,.F.);
#1277=ORIENTED_EDGE('',*,*,#926,.T.);
#1278=ORIENTED_EDGE('',*,*,#882,.F.);
#1279=ORIENTED_EDGE('',*,*,#811,.F.);
#1280=ORIENTED_EDGE('',*,*,#800,.F.);
#1281=ORIENTED_EDGE('',*,*,#927,.T.);
#1282=ORIENTED_EDGE('',*,*,#924,.F.);
#1283=ORIENTED_EDGE('',*,*,#906,.T.);
#1284=ORIENTED_EDGE('',*,*,#870,.F.);
#1285=ORIENTED_EDGE('',*,*,#877,.F.);
#1286=ORIENTED_EDGE('',*,*,#879,.F.);
#1287=ORIENTED_EDGE('',*,*,#881,.T.);
#1288=ORIENTED_EDGE('',*,*,#883,.F.);
#1289=ORIENTED_EDGE('',*,*,#926,.F.);
#1290=ORIENTED_EDGE('',*,*,#918,.T.);
#1291=ORIENTED_EDGE('',*,*,#921,.F.);
#1292=ORIENTED_EDGE('',*,*,#923,.T.);
#1293=ORIENTED_EDGE('',*,*,#925,.F.);
#1294=ORIENTED_EDGE('',*,*,#927,.F.);
#1295=ORIENTED_EDGE('',*,*,#799,.F.);
#1296=ORIENTED_EDGE('',*,*,#874,.F.);
#1297=ORIENTED_EDGE('',*,*,#903,.T.);
#1298=ORIENTED_EDGE('',*,*,#915,.T.);
#1299=ORIENTED_EDGE('',*,*,#912,.T.);
#1300=ORIENTED_EDGE('',*,*,#909,.T.);
#1301=ORIENTED_EDGE('',*,*,#769,.T.);
#1302=ORIENTED_EDGE('',*,*,#782,.T.);
#1303=ORIENTED_EDGE('',*,*,#896,.T.);
#1304=ORIENTED_EDGE('',*,*,#747,.F.);
#1305=ORIENTED_EDGE('',*,*,#754,.F.);
#1306=ORIENTED_EDGE('',*,*,#928,.F.);
#1307=ORIENTED_EDGE('',*,*,#795,.T.);
#1308=ORIENTED_EDGE('',*,*,#792,.T.);
#1309=ORIENTED_EDGE('',*,*,#794,.T.);
#1310=ORIENTED_EDGE('',*,*,#786,.T.);
#1311=ORIENTED_EDGE('',*,*,#802,.T.);
#1312=ORIENTED_EDGE('',*,*,#817,.F.);
#1313=ORIENTED_EDGE('',*,*,#860,.T.);
#1314=ORIENTED_EDGE('',*,*,#772,.T.);
#1315=ORIENTED_EDGE('',*,*,#758,.T.);
#1316=ORIENTED_EDGE('',*,*,#771,.T.);
#1317=ORIENTED_EDGE('',*,*,#753,.F.);
#1318=ORIENTED_EDGE('',*,*,#784,.T.);
#1319=ORIENTED_EDGE('',*,*,#875,.T.);
#1320=ORIENTED_EDGE('',*,*,#796,.T.);
#1321=ORIENTED_EDGE('',*,*,#928,.T.);
#1322=ORIENTED_EDGE('',*,*,#808,.T.);
#1323=CONICAL_SURFACE('',#1419,1.35,1.02974425867665);
#1324=CONICAL_SURFACE('',#1469,5.50000007450581,0.785398163397448);
#1325=CONICAL_SURFACE('',#1475,5.5,0.785398163397448);
#1326=CONICAL_SURFACE('',#1480,2.,0.785398163397448);
#1327=CONICAL_SURFACE('',#1484,2.,0.785398163397448);
#1328=ADVANCED_FACE('',(#93),#1323,.F.);
#1329=ADVANCED_FACE('',(#94,#33),#39,.F.);
#1330=ADVANCED_FACE('',(#95),#15,.F.);
#1331=ADVANCED_FACE('',(#96),#16,.F.);
#1332=ADVANCED_FACE('',(#97),#40,.F.);
#1333=ADVANCED_FACE('',(#98),#41,.T.);
#1334=ADVANCED_FACE('',(#99),#42,.T.);
#1335=ADVANCED_FACE('',(#100),#17,.T.);
#1336=ADVANCED_FACE('',(#101),#43,.F.);
#1337=ADVANCED_FACE('',(#102),#18,.F.);
#1338=ADVANCED_FACE('',(#103),#44,.F.);
#1339=ADVANCED_FACE('',(#104),#19,.F.);
#1340=ADVANCED_FACE('',(#105),#45,.F.);
#1341=ADVANCED_FACE('',(#106),#46,.T.);
#1342=ADVANCED_FACE('',(#107),#47,.T.);
#1343=ADVANCED_FACE('',(#108),#48,.T.);
#1344=ADVANCED_FACE('',(#109),#49,.F.);
#1345=ADVANCED_FACE('',(#110),#50,.F.);
#1346=ADVANCED_FACE('',(#111),#51,.F.);
#1347=ADVANCED_FACE('',(#112),#52,.T.);
#1348=ADVANCED_FACE('',(#113),#53,.T.);
#1349=ADVANCED_FACE('',(#114,#34),#54,.F.);
#1350=ADVANCED_FACE('',(#115),#20,.F.);
#1351=ADVANCED_FACE('',(#116),#21,.F.);
#1352=ADVANCED_FACE('',(#117),#55,.T.);
#1353=ADVANCED_FACE('',(#118),#56,.T.);
#1354=ADVANCED_FACE('',(#119),#57,.T.);
#1355=ADVANCED_FACE('',(#120),#58,.T.);
#1356=ADVANCED_FACE('',(#121),#59,.T.);
#1357=ADVANCED_FACE('',(#122),#60,.T.);
#1358=ADVANCED_FACE('',(#123),#1324,.F.);
#1359=ADVANCED_FACE('',(#124),#61,.T.);
#1360=ADVANCED_FACE('',(#125),#62,.T.);
#1361=ADVANCED_FACE('',(#126),#63,.T.);
#1362=ADVANCED_FACE('',(#127),#1325,.F.);
#1363=ADVANCED_FACE('',(#128),#64,.T.);
#1364=ADVANCED_FACE('',(#129),#65,.T.);
#1365=ADVANCED_FACE('',(#130),#1326,.F.);
#1366=ADVANCED_FACE('',(#131),#66,.T.);
#1367=ADVANCED_FACE('',(#132),#1327,.F.);
#1368=ADVANCED_FACE('',(#133),#67,.T.);
#1369=ADVANCED_FACE('',(#134),#68,.F.);
#1370=ADVANCED_FACE('',(#135),#22,.F.);
#1371=ADVANCED_FACE('',(#136),#69,.F.);
#1372=ADVANCED_FACE('',(#137),#70,.F.);
#1373=ADVANCED_FACE('',(#138,#35),#71,.T.);
#1374=ADVANCED_FACE('',(#139),#72,.F.);
#1375=ADVANCED_FACE('',(#140),#73,.F.);
#1376=ADVANCED_FACE('',(#141),#23,.F.);
#1377=ADVANCED_FACE('',(#142),#74,.F.);
#1378=ADVANCED_FACE('',(#143,#36),#75,.T.);
#1379=ADVANCED_FACE('',(#144),#24,.F.);
#1380=ADVANCED_FACE('',(#145),#76,.F.);
#1381=ADVANCED_FACE('',(#146),#25,.F.);
#1382=ADVANCED_FACE('',(#147),#77,.F.);
#1383=ADVANCED_FACE('',(#148),#26,.T.);
#1384=ADVANCED_FACE('',(#149),#78,.F.);
#1385=ADVANCED_FACE('',(#150,#37),#79,.T.);
#1386=ADVANCED_FACE('',(#151),#27,.F.);
#1387=ADVANCED_FACE('',(#152),#80,.T.);
#1388=ADVANCED_FACE('',(#153),#81,.F.);
#1389=ADVANCED_FACE('',(#154),#28,.F.);
#1390=ADVANCED_FACE('',(#155),#82,.F.);
#1391=ADVANCED_FACE('',(#156),#83,.F.);
#1392=ADVANCED_FACE('',(#157),#29,.F.);
#1393=ADVANCED_FACE('',(#158),#84,.F.);
#1394=ADVANCED_FACE('',(#159),#30,.F.);
#1395=ADVANCED_FACE('',(#160),#85,.T.);
#1396=ADVANCED_FACE('',(#161),#31,.F.);
#1397=ADVANCED_FACE('',(#162),#86,.F.);
#1398=ADVANCED_FACE('',(#163),#32,.F.);
#1399=ADVANCED_FACE('',(#164),#87,.F.);
#1400=ADVANCED_FACE('',(#165),#88,.F.);
#1401=ADVANCED_FACE('',(#166),#89,.F.);
#1402=ADVANCED_FACE('',(#167),#90,.F.);
#1403=ADVANCED_FACE('',(#168),#91,.T.);
#1404=ADVANCED_FACE('',(#169,#38),#92,.F.);
#1405=CLOSED_SHELL('',(#1328,#1329,#1330,#1331,#1332,#1333,#1334,#1335,
#1336,#1337,#1338,#1339,#1340,#1341,#1342,#1343,#1344,#1345,#1346,#1347,
#1348,#1349,#1350,#1351,#1352,#1353,#1354,#1355,#1356,#1357,#1358,#1359,
#1360,#1361,#1362,#1363,#1364,#1365,#1366,#1367,#1368,#1369,#1370,#1371,
#1372,#1373,#1374,#1375,#1376,#1377,#1378,#1379,#1380,#1381,#1382,#1383,
#1384,#1385,#1386,#1387,#1388,#1389,#1390,#1391,#1392,#1393,#1394,#1395,
#1396,#1397,#1398,#1399,#1400,#1401,#1402,#1403,#1404));
#1406=DERIVED_UNIT_ELEMENT(#1408,1.);
#1407=DERIVED_UNIT_ELEMENT(#2337,-3.);
#1408=(
MASS_UNIT()
NAMED_UNIT(*)
SI_UNIT(.KILO.,.GRAM.)
);
#1409=DERIVED_UNIT((#1406,#1407));
#1410=MEASURE_REPRESENTATION_ITEM('density measure',
POSITIVE_RATIO_MEASURE(7850.),#1409);
#1411=PROPERTY_DEFINITION_REPRESENTATION(#1416,#1413);
#1412=PROPERTY_DEFINITION_REPRESENTATION(#1417,#1414);
#1413=REPRESENTATION('material name',(#1415),#2334);
#1414=REPRESENTATION('density',(#1410),#2334);
#1415=DESCRIPTIVE_REPRESENTATION_ITEM('Steel','Steel');
#1416=PROPERTY_DEFINITION('material property','material name',#2344);
#1417=PROPERTY_DEFINITION('material property','density of part',#2344);
#1418=AXIS2_PLACEMENT_3D('',#1931,#1537,#1538);
#1419=AXIS2_PLACEMENT_3D('',#1932,#1539,#1540);
#1420=AXIS2_PLACEMENT_3D('',#1934,#1541,#1542);
#1421=AXIS2_PLACEMENT_3D('',#1937,#1544,#1545);
#1422=AXIS2_PLACEMENT_3D('',#1939,#1546,#1547);
#1423=AXIS2_PLACEMENT_3D('',#1941,#1548,#1549);
#1424=AXIS2_PLACEMENT_3D('',#1942,#1550,#1551);
#1425=AXIS2_PLACEMENT_3D('',#1944,#1552,#1553);
#1426=AXIS2_PLACEMENT_3D('',#1946,#1555,#1556);
#1427=AXIS2_PLACEMENT_3D('',#1948,#1558,#1559);
#1428=AXIS2_PLACEMENT_3D('',#1957,#1564,#1565);
#1429=AXIS2_PLACEMENT_3D('',#1962,#1568,#1569);
#1430=AXIS2_PLACEMENT_3D('',#1963,#1570,#1571);
#1431=AXIS2_PLACEMENT_3D('',#1965,#1572,#1573);
#1432=AXIS2_PLACEMENT_3D('',#1971,#1576,#1577);
#1433=AXIS2_PLACEMENT_3D('',#1975,#1580,#1581);
#1434=AXIS2_PLACEMENT_3D('',#1979,#1583,#1584);
#1435=AXIS2_PLACEMENT_3D('',#1981,#1586,#1587);
#1436=AXIS2_PLACEMENT_3D('',#1990,#1592,#1593);
#1437=AXIS2_PLACEMENT_3D('',#1992,#1594,#1595);
#1438=AXIS2_PLACEMENT_3D('',#1995,#1597,#1598);
#1439=AXIS2_PLACEMENT_3D('',#1996,#1599,#1600);
#1440=AXIS2_PLACEMENT_3D('',#2002,#1604,#1605);
#1441=AXIS2_PLACEMENT_3D('',#2004,#1606,#1607);
#1442=AXIS2_PLACEMENT_3D('',#2007,#1609,#1610);
#1443=AXIS2_PLACEMENT_3D('',#2008,#1611,#1612);
#1444=AXIS2_PLACEMENT_3D('',#2014,#1616,#1617);
#1445=AXIS2_PLACEMENT_3D('',#2016,#1619,#1620);
#1446=AXIS2_PLACEMENT_3D('',#2022,#1623,#1624);
#1447=AXIS2_PLACEMENT_3D('',#2026,#1626,#1627);
#1448=AXIS2_PLACEMENT_3D('',#2030,#1629,#1630);
#1449=AXIS2_PLACEMENT_3D('',#2034,#1632,#1633);
#1450=AXIS2_PLACEMENT_3D('',#2038,#1636,#1637);
#1451=AXIS2_PLACEMENT_3D('',#2042,#1640,#1641);
#1452=AXIS2_PLACEMENT_3D('',#2051,#1646,#1647);
#1453=AXIS2_PLACEMENT_3D('',#2060,#1652,#1653);
#1454=AXIS2_PLACEMENT_3D('',#2063,#1656,#1657);
#1455=AXIS2_PLACEMENT_3D('',#2069,#1661,#1662);
#1456=AXIS2_PLACEMENT_3D('',#2079,#1668,#1669);
#1457=AXIS2_PLACEMENT_3D('',#2081,#1670,#1671);
#1458=AXIS2_PLACEMENT_3D('',#2083,#1672,#1673);
#1459=AXIS2_PLACEMENT_3D('',#2084,#1674,#1675);
#1460=AXIS2_PLACEMENT_3D('',#2086,#1676,#1677);
#1461=AXIS2_PLACEMENT_3D('',#2088,#1679,#1680);
#1462=AXIS2_PLACEMENT_3D('',#2091,#1682,#1683);
#1463=AXIS2_PLACEMENT_3D('',#2092,#1684,#1685);
#1464=AXIS2_PLACEMENT_3D('',#2100,#1690,#1691);
#1465=AXIS2_PLACEMENT_3D('',#2104,#1694,#1695);
#1466=AXIS2_PLACEMENT_3D('',#2110,#1699,#1700);
#1467=AXIS2_PLACEMENT_3D('',#2119,#1705,#1706);
#1468=AXIS2_PLACEMENT_3D('',#2125,#1710,#1711);
#1469=AXIS2_PLACEMENT_3D('',#2131,#1715,#1716);
#1470=AXIS2_PLACEMENT_3D('',#2135,#1718,#1719);
#1471=AXIS2_PLACEMENT_3D('',#2136,#1720,#1721);
#1472=AXIS2_PLACEMENT_3D('',#2137,#1722,#1723);
#1473=AXIS2_PLACEMENT_3D('',#2140,#1726,#1727);
#1474=AXIS2_PLACEMENT_3D('',#2146,#1731,#1732);
#1475=AXIS2_PLACEMENT_3D('',#2155,#1737,#1738);
#1476=AXIS2_PLACEMENT_3D('',#2157,#1739,#1740);
#1477=AXIS2_PLACEMENT_3D('',#2160,#1742,#1743);
#1478=AXIS2_PLACEMENT_3D('',#2161,#1744,#1745);
#1479=AXIS2_PLACEMENT_3D('',#2164,#1748,#1749);
#1480=AXIS2_PLACEMENT_3D('',#2170,#1753,#1754);
#1481=AXIS2_PLACEMENT_3D('',#2172,#1755,#1756);
#1482=AXIS2_PLACEMENT_3D('',#2175,#1758,#1759);
#1483=AXIS2_PLACEMENT_3D('',#2176,#1760,#1761);
#1484=AXIS2_PLACEMENT_3D('',#2182,#1765,#1766);
#1485=AXIS2_PLACEMENT_3D('',#2184,#1767,#1768);
#1486=AXIS2_PLACEMENT_3D('',#2187,#1770,#1771);
#1487=AXIS2_PLACEMENT_3D('',#2188,#1772,#1773);
#1488=AXIS2_PLACEMENT_3D('',#2191,#1776,#1777);
#1489=AXIS2_PLACEMENT_3D('',#2194,#1780,#1781);
#1490=AXIS2_PLACEMENT_3D('',#2196,#1783,#1784);
#1491=AXIS2_PLACEMENT_3D('',#2202,#1788,#1789);
#1492=AXIS2_PLACEMENT_3D('',#2206,#1792,#1793);
#1493=AXIS2_PLACEMENT_3D('',#2222,#1803,#1804);
#1494=AXIS2_PLACEMENT_3D('',#2226,#1807,#1808);
#1495=AXIS2_PLACEMENT_3D('',#2230,#1811,#1812);
#1496=AXIS2_PLACEMENT_3D('',#2233,#1814,#1815);
#1497=AXIS2_PLACEMENT_3D('',#2234,#1816,#1817);
#1498=AXIS2_PLACEMENT_3D('',#2238,#1820,#1821);
#1499=AXIS2_PLACEMENT_3D('',#2239,#1822,#1823);
#1500=AXIS2_PLACEMENT_3D('',#2243,#1825,#1826);
#1501=AXIS2_PLACEMENT_3D('',#2245,#1828,#1829);
#1502=AXIS2_PLACEMENT_3D('',#2249,#1832,#1833);
#1503=AXIS2_PLACEMENT_3D('',#2251,#1834,#1835);
#1504=AXIS2_PLACEMENT_3D('',#2253,#1837,#1838);
#1505=AXIS2_PLACEMENT_3D('',#2257,#1841,#1842);
#1506=AXIS2_PLACEMENT_3D('',#2258,#1843,#1844);
#1507=AXIS2_PLACEMENT_3D('',#2259,#1845,#1846);
#1508=AXIS2_PLACEMENT_3D('',#2264,#1850,#1851);
#1509=AXIS2_PLACEMENT_3D('',#2267,#1853,#1854);
#1510=AXIS2_PLACEMENT_3D('',#2269,#1855,#1856);
#1511=AXIS2_PLACEMENT_3D('',#2270,#1857,#1858);
#1512=AXIS2_PLACEMENT_3D('',#2273,#1860,#1861);
#1513=AXIS2_PLACEMENT_3D('',#2274,#1862,#1863);
#1514=AXIS2_PLACEMENT_3D('',#2275,#1864,#1865);
#1515=AXIS2_PLACEMENT_3D('',#2277,#1867,#1868);
#1516=AXIS2_PLACEMENT_3D('',#2278,#1869,#1870);
#1517=AXIS2_PLACEMENT_3D('',#2284,#1874,#1875);
#1518=AXIS2_PLACEMENT_3D('',#2290,#1879,#1880);
#1519=AXIS2_PLACEMENT_3D('',#2292,#1881,#1882);
#1520=AXIS2_PLACEMENT_3D('',#2295,#1884,#1885);
#1521=AXIS2_PLACEMENT_3D('',#2296,#1886,#1887);
#1522=AXIS2_PLACEMENT_3D('',#2302,#1891,#1892);
#1523=AXIS2_PLACEMENT_3D('',#2303,#1893,#1894);
#1524=AXIS2_PLACEMENT_3D('',#2304,#1895,#1896);
#1525=AXIS2_PLACEMENT_3D('',#2305,#1897,#1898);
#1526=AXIS2_PLACEMENT_3D('',#2306,#1899,#1900);
#1527=AXIS2_PLACEMENT_3D('',#2310,#1902,#1903);
#1528=AXIS2_PLACEMENT_3D('',#2312,#1905,#1906);
#1529=AXIS2_PLACEMENT_3D('',#2316,#1909,#1910);
#1530=AXIS2_PLACEMENT_3D('',#2319,#1912,#1913);
#1531=AXIS2_PLACEMENT_3D('',#2320,#1914,#1915);
#1532=AXIS2_PLACEMENT_3D('',#2324,#1918,#1919);
#1533=AXIS2_PLACEMENT_3D('',#2326,#1921,#1922);
#1534=AXIS2_PLACEMENT_3D('',#2328,#1924,#1925);
#1535=AXIS2_PLACEMENT_3D('',#2329,#1926,#1927);
#1536=AXIS2_PLACEMENT_3D('',#2331,#1929,#1930);
#1537=DIRECTION('axis',(0.,0.,1.));
#1538=DIRECTION('refdir',(1.,0.,0.));
#1539=DIRECTION('center_axis',(0.,0.,1.));
#1540=DIRECTION('ref_axis',(1.,0.,0.));
#1541=DIRECTION('center_axis',(0.,0.,-1.));
#1542=DIRECTION('ref_axis',(1.,0.,0.));
#1543=DIRECTION('',(0.857167300702112,-1.04972719113862E-16,-0.515038074910054));
#1544=DIRECTION('center_axis',(0.,0.,-1.));
#1545=DIRECTION('ref_axis',(1.,0.,0.));
#1546=DIRECTION('center_axis',(0.,0.,-1.));
#1547=DIRECTION('ref_axis',(1.,0.,0.));
#1548=DIRECTION('center_axis',(0.,0.,-1.));
#1549=DIRECTION('ref_axis',(1.,0.,0.));
#1550=DIRECTION('center_axis',(0.,0.,-1.));
#1551=DIRECTION('ref_axis',(1.,0.,0.));
#1552=DIRECTION('center_axis',(0.,0.,-1.));
#1553=DIRECTION('ref_axis',(1.,0.,0.));
#1554=DIRECTION('',(0.,0.,-1.));
#1555=DIRECTION('center_axis',(0.,0.,-1.));
#1556=DIRECTION('ref_axis',(1.,0.,0.));
#1557=DIRECTION('',(0.,0.,-1.));
#1558=DIRECTION('center_axis',(-1.,0.,0.));
#1559=DIRECTION('ref_axis',(0.,0.,-1.));
#1560=DIRECTION('',(0.,0.,-1.));
#1561=DIRECTION('',(0.,1.,0.));
#1562=DIRECTION('',(0.,0.,-1.));
#1563=DIRECTION('',(0.,-1.,0.));
#1564=DIRECTION('center_axis',(0.,1.,0.));
#1565=DIRECTION('ref_axis',(-1.,0.,0.));
#1566=DIRECTION('',(-1.,0.,0.));
#1567=DIRECTION('',(0.,0.,1.));
#1568=DIRECTION('center_axis',(0.,-1.,0.));
#1569=DIRECTION('ref_axis',(0.707106781186548,0.,-0.707106781186548));
#1570=DIRECTION('center_axis',(0.,1.,0.));
#1571=DIRECTION('ref_axis',(0.,0.,1.));
#1572=DIRECTION('center_axis',(0.,-1.,0.));
#1573=DIRECTION('ref_axis',(0.707106781186548,0.,-0.707106781186548));
#1574=DIRECTION('',(-1.,0.,0.));
#1575=DIRECTION('',(0.,0.,1.));
#1576=DIRECTION('center_axis',(0.,-1.,0.));
#1577=DIRECTION('ref_axis',(1.,0.,0.));
#1578=DIRECTION('',(0.,0.,1.));
#1579=DIRECTION('',(1.,0.,0.));
#1580=DIRECTION('center_axis',(0.,1.,0.));
#1581=DIRECTION('ref_axis',(0.707106781186548,0.,-0.707106781186548));
#1582=DIRECTION('',(0.,-1.,0.));
#1583=DIRECTION('center_axis',(0.,1.,0.));
#1584=DIRECTION('ref_axis',(0.707106781186548,0.,-0.707106781186548));
#1585=DIRECTION('',(0.,1.,0.));
#1586=DIRECTION('center_axis',(-1.,0.,-9.48255397986663E-9));
#1587=DIRECTION('ref_axis',(9.48255397986663E-9,0.,-1.));
#1588=DIRECTION('',(9.48255397986663E-9,0.,-1.));
#1589=DIRECTION('',(0.,-1.,0.));
#1590=DIRECTION('',(9.48255397986663E-9,0.,-1.));
#1591=DIRECTION('',(0.,-1.,0.));
#1592=DIRECTION('center_axis',(0.,-1.,0.));
#1593=DIRECTION('ref_axis',(-1.,0.,-9.48255373842259E-9));
#1594=DIRECTION('center_axis',(0.,-1.,0.));
#1595=DIRECTION('ref_axis',(-1.,0.,-9.48255373842259E-9));
#1596=DIRECTION('',(0.,-1.,0.));
#1597=DIRECTION('center_axis',(0.,-1.,0.));
#1598=DIRECTION('ref_axis',(-1.,0.,-9.48255373842259E-9));
#1599=DIRECTION('center_axis',(0.,0.,1.));
#1600=DIRECTION('ref_axis',(-1.,0.,0.));
#1601=DIRECTION('',(-1.,0.,0.));
#1602=DIRECTION('',(0.,-1.,0.));
#1603=DIRECTION('',(-1.,0.,0.));
#1604=DIRECTION('center_axis',(0.,-1.,0.));
#1605=DIRECTION('ref_axis',(0.,0.,1.));
#1606=DIRECTION('center_axis',(0.,-1.,0.));
#1607=DIRECTION('ref_axis',(0.,0.,1.));
#1608=DIRECTION('',(0.,-1.,0.));
#1609=DIRECTION('center_axis',(0.,-1.,0.));
#1610=DIRECTION('ref_axis',(0.,0.,1.));
#1611=DIRECTION('center_axis',(1.,0.,0.));
#1612=DIRECTION('ref_axis',(0.,0.,1.));
#1613=DIRECTION('',(0.,0.,1.));
#1614=DIRECTION('',(0.,1.,0.));
#1615=DIRECTION('',(0.,0.,1.));
#1616=DIRECTION('center_axis',(0.,1.,0.));
#1617=DIRECTION('ref_axis',(-1.,0.,0.));
#1618=DIRECTION('',(1.,0.,0.));
#1619=DIRECTION('center_axis',(0.,1.,0.));
#1620=DIRECTION('ref_axis',(-1.,0.,0.));
#1621=DIRECTION('',(1.,0.,0.));
#1622=DIRECTION('',(0.,0.,-1.));
#1623=DIRECTION('center_axis',(0.,-1.,0.));
#1624=DIRECTION('ref_axis',(-1.,0.,0.));
#1625=DIRECTION('',(-1.,0.,0.));
#1626=DIRECTION('center_axis',(0.,1.,0.));
#1627=DIRECTION('ref_axis',(0.707106781186547,0.,0.707106781186547));
#1628=DIRECTION('',(0.,0.,1.));
#1629=DIRECTION('center_axis',(0.,1.,0.));
#1630=DIRECTION('ref_axis',(0.,0.,-1.));
#1631=DIRECTION('',(-1.,0.,0.));
#1632=DIRECTION('center_axis',(0.,1.,0.));
#1633=DIRECTION('ref_axis',(0.707106781186547,0.,0.707106781186548));
#1634=DIRECTION('',(0.,0.,1.));
#1635=DIRECTION('',(1.,0.,0.));
#1636=DIRECTION('center_axis',(1.,0.,0.));
#1637=DIRECTION('ref_axis',(0.,0.,-1.));
#1638=DIRECTION('',(0.,1.,0.));
#1639=DIRECTION('',(0.,0.,1.));
#1640=DIRECTION('center_axis',(0.,1.,0.));
#1641=DIRECTION('ref_axis',(0.,0.,1.));
#1642=DIRECTION('',(0.,0.,1.));
#1643=DIRECTION('',(-1.,0.,0.));
#1644=DIRECTION('',(0.,0.,1.));
#1645=DIRECTION('',(1.,0.,0.));
#1646=DIRECTION('center_axis',(0.,-1.,0.));
#1647=DIRECTION('ref_axis',(0.,0.,-1.));
#1648=DIRECTION('',(0.,0.,-1.));
#1649=DIRECTION('',(-1.,0.,0.));
#1650=DIRECTION('',(0.,0.,-1.));
#1651=DIRECTION('',(1.,0.,0.));
#1652=DIRECTION('center_axis',(1.,0.,0.));
#1653=DIRECTION('ref_axis',(0.,0.,-1.));
#1654=DIRECTION('',(0.,-1.,0.));
#1655=DIRECTION('',(0.,1.,0.));
#1656=DIRECTION('center_axis',(-1.,0.,0.));
#1657=DIRECTION('ref_axis',(0.,0.,1.));
#1658=DIRECTION('',(0.,1.,0.));
#1659=DIRECTION('',(0.,0.,-1.));
#1660=DIRECTION('',(0.,1.,0.));
#1661=DIRECTION('center_axis',(-1.,0.,0.));
#1662=DIRECTION('ref_axis',(0.,0.,1.));
#1663=DIRECTION('',(0.,1.,0.));
#1664=DIRECTION('',(0.,0.,-1.));
#1665=DIRECTION('',(0.,1.,0.));
#1666=DIRECTION('',(0.,0.,1.));
#1667=DIRECTION('',(0.,1.,0.));
#1668=DIRECTION('center_axis',(0.,-1.,0.));
#1669=DIRECTION('ref_axis',(0.,0.,1.));
#1670=DIRECTION('center_axis',(0.,-1.,0.));
#1671=DIRECTION('ref_axis',(0.,0.,1.));
#1672=DIRECTION('center_axis',(0.,-1.,0.));
#1673=DIRECTION('ref_axis',(0.,0.,1.));
#1674=DIRECTION('center_axis',(0.,-1.,0.));
#1675=DIRECTION('ref_axis',(0.,0.,1.));
#1676=DIRECTION('center_axis',(0.,-1.,0.));
#1677=DIRECTION('ref_axis',(0.,0.,1.));
#1678=DIRECTION('',(0.,-1.,0.));
#1679=DIRECTION('center_axis',(0.,-1.,0.));
#1680=DIRECTION('ref_axis',(0.,0.,1.));
#1681=DIRECTION('',(0.,-1.,0.));
#1682=DIRECTION('center_axis',(0.,1.,0.));
#1683=DIRECTION('ref_axis',(0.,0.,1.));
#1684=DIRECTION('center_axis',(0.,0.707106781186549,0.707106781186546));
#1685=DIRECTION('ref_axis',(1.,0.,0.));
#1686=DIRECTION('',(-1.,0.,0.));
#1687=DIRECTION('',(-0.577350269189625,-0.577350269189625,0.577350269189628));
#1688=DIRECTION('',(1.,0.,0.));
#1689=DIRECTION('',(0.577350269189627,-0.577350269189624,0.577350269189626));
#1690=DIRECTION('center_axis',(-0.707106781186549,0.707106781186546,0.));
#1691=DIRECTION('ref_axis',(0.,0.,1.));
#1692=DIRECTION('',(0.,0.,-1.));
#1693=DIRECTION('',(-0.577350269189624,-0.577350269189627,-0.577350269189627));
#1694=DIRECTION('center_axis',(0.,0.707106781186548,-0.707106781186548));
#1695=DIRECTION('ref_axis',(-1.,0.,0.));
#1696=DIRECTION('',(1.,0.,0.));
#1697=DIRECTION('',(0.577350269189626,-0.577350269189624,-0.577350269189627));
#1698=DIRECTION('',(-1.,0.,0.));
#1699=DIRECTION('center_axis',(0.,0.707106781186549,-0.707106781186546));
#1700=DIRECTION('ref_axis',(-1.,0.,0.));
#1701=DIRECTION('',(-1.,0.,0.));
#1702=DIRECTION('',(0.,0.707106781186546,0.707106781186549));
#1703=DIRECTION('',(1.,0.,0.));
#1704=DIRECTION('',(0.577350269189627,-0.577350269189624,-0.577350269189627));
#1705=DIRECTION('center_axis',(0.707106781186546,0.707106781186549,0.));
#1706=DIRECTION('ref_axis',(0.,0.,-1.));
#1707=DIRECTION('',(0.,0.,1.));
#1708=DIRECTION('',(0.577350269189627,-0.577350269189624,0.577350269189627));
#1709=DIRECTION('',(0.,0.,-1.));
#1710=DIRECTION('center_axis',(0.,0.707106781186548,0.707106781186548));
#1711=DIRECTION('ref_axis',(1.,0.,0.));
#1712=DIRECTION('',(1.,0.,0.));
#1713=DIRECTION('',(-1.,0.,0.));
#1714=DIRECTION('',(-0.209350510053241,-0.691437764350648,0.691437764350651));
#1715=DIRECTION('center_axis',(0.,1.,0.));
#1716=DIRECTION('ref_axis',(-1.,0.,0.));
#1717=DIRECTION('',(-0.707106781186547,0.707106781186547,0.));
#1718=DIRECTION('center_axis',(0.,1.,0.));
#1719=DIRECTION('ref_axis',(-1.,0.,0.));
#1720=DIRECTION('center_axis',(0.,-1.,0.));
#1721=DIRECTION('ref_axis',(-1.,0.,0.));
#1722=DIRECTION('center_axis',(0.707106781186546,0.707106781186549,0.));
#1723=DIRECTION('ref_axis',(0.,0.,-1.));
#1724=DIRECTION('',(0.,0.,1.));
#1725=DIRECTION('',(0.,0.,-1.));
#1726=DIRECTION('center_axis',(-0.392232270276369,0.707106781186546,0.588348405414553));
#1727=DIRECTION('ref_axis',(0.832050294337844,0.,0.554700196225229));
#1728=DIRECTION('',(0.832050294337844,0.,0.554700196225229));
#1729=DIRECTION('',(-0.832050294337844,0.,-0.554700196225229));
#1730=DIRECTION('',(-0.661335502539432,-0.661335502539429,0.353936019870595));
#1731=DIRECTION('center_axis',(-0.223606797749979,0.707106781186549,0.670820393249936));
#1732=DIRECTION('ref_axis',(0.948683298050514,0.,0.316227766016838));
#1733=DIRECTION('',(0.948683298050514,0.,0.316227766016838));
#1734=DIRECTION('',(0.22360679774998,0.707106781186546,-0.670820393249938));
#1735=DIRECTION('',(-0.948683298050514,0.,-0.316227766016838));
#1736=DIRECTION('',(-0.630004060271711,-0.630004060271708,0.454081235113631));
#1737=DIRECTION('center_axis',(0.,1.,0.));
#1738=DIRECTION('ref_axis',(0.811242185175561,0.,-0.584710284663765));
#1739=DIRECTION('center_axis',(0.,-1.,0.));
#1740=DIRECTION('ref_axis',(0.811242185175561,0.,-0.584710284663765));
#1741=DIRECTION('',(0.707106781186547,0.707106781186548,0.));
#1742=DIRECTION('center_axis',(0.,1.,0.));
#1743=DIRECTION('ref_axis',(0.811242185175561,0.,-0.584710284663765));
#1744=DIRECTION('center_axis',(-0.707106781186546,0.707106781186549,0.));
#1745=DIRECTION('ref_axis',(0.,0.,1.));
#1746=DIRECTION('',(0.,0.,-1.));
#1747=DIRECTION('',(0.,0.,1.));
#1748=DIRECTION('center_axis',(0.707106781186546,0.707106781186549,0.));
#1749=DIRECTION('ref_axis',(0.,0.,-1.));
#1750=DIRECTION('',(0.,0.,-1.));
#1751=DIRECTION('',(-0.707106781186549,0.707106781186546,0.));
#1752=DIRECTION('',(0.,0.,1.));
#1753=DIRECTION('center_axis',(0.,1.,0.));
#1754=DIRECTION('ref_axis',(-0.707106781186548,0.,-0.707106781186548));
#1755=DIRECTION('center_axis',(0.,-1.,0.));
#1756=DIRECTION('ref_axis',(-0.707106781186548,0.,-0.707106781186548));
#1757=DIRECTION('',(0.,0.707106781186547,-0.707106781186547));
#1758=DIRECTION('center_axis',(0.,1.,0.));
#1759=DIRECTION('ref_axis',(-0.707106781186548,0.,-0.707106781186548));
#1760=DIRECTION('center_axis',(0.,0.707106781186549,0.707106781186546));
#1761=DIRECTION('ref_axis',(1.,0.,0.));
#1762=DIRECTION('',(0.,0.707106781186546,-0.707106781186549));
#1763=DIRECTION('',(-1.,0.,0.));
#1764=DIRECTION('',(1.,0.,0.));
#1765=DIRECTION('center_axis',(0.,1.,0.));
#1766=DIRECTION('ref_axis',(0.707106781186548,0.,-0.707106781186548));
#1767=DIRECTION('center_axis',(0.,-1.,0.));
#1768=DIRECTION('ref_axis',(0.707106781186548,0.,-0.707106781186548));
#1769=DIRECTION('',(0.707106781186547,0.707106781186547,0.));
#1770=DIRECTION('center_axis',(0.,1.,0.));
#1771=DIRECTION('ref_axis',(0.707106781186548,0.,-0.707106781186548));
#1772=DIRECTION('center_axis',(-0.707106781186546,0.707106781186549,0.));
#1773=DIRECTION('ref_axis',(0.,0.,1.));
#1774=DIRECTION('',(0.,0.,-1.));
#1775=DIRECTION('',(0.,0.,1.));
#1776=DIRECTION('center_axis',(-1.,0.,0.));
#1777=DIRECTION('ref_axis',(0.,0.,-1.));
#1778=DIRECTION('',(0.,-1.,0.));
#1779=DIRECTION('',(0.,-1.,0.));
#1780=DIRECTION('center_axis',(0.,-1.,0.));
#1781=DIRECTION('ref_axis',(-1.,0.,0.));
#1782=DIRECTION('',(0.,-1.,0.));
#1783=DIRECTION('center_axis',(0.,0.,1.));
#1784=DIRECTION('ref_axis',(-1.,0.,0.));
#1785=DIRECTION('',(0.,1.,0.));
#1786=DIRECTION('',(-1.,0.,0.));
#1787=DIRECTION('',(0.,1.,0.));
#1788=DIRECTION('center_axis',(-1.,0.,0.));
#1789=DIRECTION('ref_axis',(0.,0.,-1.));
#1790=DIRECTION('',(0.,1.,0.));
#1791=DIRECTION('',(0.,0.,-1.));
#1792=DIRECTION('center_axis',(0.,0.,1.));
#1793=DIRECTION('ref_axis',(1.,0.,0.));
#1794=DIRECTION('',(0.,-1.,0.));
#1795=DIRECTION('',(-1.,0.,0.));
#1796=DIRECTION('',(0.,-1.,0.));
#1797=DIRECTION('',(-1.,0.,0.));
#1798=DIRECTION('',(0.,-1.,0.));
#1799=DIRECTION('',(-1.,0.,0.));
#1800=DIRECTION('',(0.,1.,0.));
#1801=DIRECTION('',(-1.,0.,0.));
#1802=DIRECTION('',(-1.,0.,0.));
#1803=DIRECTION('center_axis',(0.554700196225229,0.,-0.832050294337844));
#1804=DIRECTION('ref_axis',(0.832050294337844,0.,0.554700196225229));
#1805=DIRECTION('',(0.,-1.,0.));
#1806=DIRECTION('',(0.832050294337844,0.,0.554700196225229));
#1807=DIRECTION('center_axis',(1.,0.,0.));
#1808=DIRECTION('ref_axis',(0.,0.,1.));
#1809=DIRECTION('',(0.,1.,0.));
#1810=DIRECTION('',(0.,0.,1.));
#1811=DIRECTION('center_axis',(0.,-1.,0.));
#1812=DIRECTION('ref_axis',(0.811242185175561,0.,-0.584710284663765));
#1813=DIRECTION('',(0.,-1.,0.));
#1814=DIRECTION('center_axis',(0.,1.,0.));
#1815=DIRECTION('ref_axis',(0.811242185175561,0.,-0.584710284663765));
#1816=DIRECTION('center_axis',(0.316227766016838,0.,-0.948683298050514));
#1817=DIRECTION('ref_axis',(0.948683298050514,0.,0.316227766016838));
#1818=DIRECTION('',(0.,-1.,0.));
#1819=DIRECTION('',(0.948683298050514,0.,0.316227766016838));
#1820=DIRECTION('center_axis',(0.,1.,0.));
#1821=DIRECTION('ref_axis',(0.,0.,1.));
#1822=DIRECTION('center_axis',(0.,-1.,0.));
#1823=DIRECTION('ref_axis',(0.707106781186547,0.,0.707106781186548));
#1824=DIRECTION('',(0.,1.,0.));
#1825=DIRECTION('center_axis',(0.,1.,0.));
#1826=DIRECTION('ref_axis',(0.707106781186547,0.,0.707106781186548));
#1827=DIRECTION('',(0.,-1.,0.));
#1828=DIRECTION('center_axis',(0.,0.,1.));
#1829=DIRECTION('ref_axis',(-1.,0.,0.));
#1830=DIRECTION('',(0.,-1.,0.));
#1831=DIRECTION('',(-1.,0.,0.));
#1832=DIRECTION('center_axis',(0.,-1.,0.));
#1833=DIRECTION('ref_axis',(0.707106781186547,0.,0.707106781186547));
#1834=DIRECTION('center_axis',(0.,1.,0.));
#1835=DIRECTION('ref_axis',(0.707106781186547,0.,0.707106781186547));
#1836=DIRECTION('',(0.,-1.,0.));
#1837=DIRECTION('center_axis',(1.,0.,0.));
#1838=DIRECTION('ref_axis',(0.,0.,1.));
#1839=DIRECTION('',(0.,0.,1.));
#1840=DIRECTION('',(0.,-1.,0.));
#1841=DIRECTION('center_axis',(0.,-1.,0.));
#1842=DIRECTION('ref_axis',(0.,0.,-1.));
#1843=DIRECTION('center_axis',(0.,1.,0.));
#1844=DIRECTION('ref_axis',(0.,0.,-1.));
#1845=DIRECTION('center_axis',(1.,0.,0.));
#1846=DIRECTION('ref_axis',(0.,0.,1.));
#1847=DIRECTION('',(0.,0.,1.));
#1848=DIRECTION('',(0.,-1.,0.));
#1849=DIRECTION('',(0.,1.,0.));
#1850=DIRECTION('center_axis',(0.,1.,0.));
#1851=DIRECTION('ref_axis',(-1.,0.,0.));
#1852=DIRECTION('',(0.,0.,1.));
#1853=DIRECTION('center_axis',(0.,-1.,0.));
#1854=DIRECTION('ref_axis',(1.,0.,0.));
#1855=DIRECTION('center_axis',(0.,-1.,0.));
#1856=DIRECTION('ref_axis',(-1.,0.,0.));
#1857=DIRECTION('center_axis',(0.,-1.,0.));
#1858=DIRECTION('ref_axis',(-1.,0.,0.));
#1859=DIRECTION('',(0.,-1.,0.));
#1860=DIRECTION('center_axis',(0.,-1.,0.));
#1861=DIRECTION('ref_axis',(-1.,0.,0.));
#1862=DIRECTION('center_axis',(0.,1.,0.));
#1863=DIRECTION('ref_axis',(-1.,0.,0.));
#1864=DIRECTION('center_axis',(1.,0.,0.));
#1865=DIRECTION('ref_axis',(0.,0.,1.));
#1866=DIRECTION('',(0.,-1.,0.));
#1867=DIRECTION('center_axis',(0.,-1.,0.));
#1868=DIRECTION('ref_axis',(1.,0.,0.));
#1869=DIRECTION('center_axis',(-1.,0.,0.));
#1870=DIRECTION('ref_axis',(0.,0.,-1.));
#1871=DIRECTION('',(0.,0.,-1.));
#1872=DIRECTION('',(0.,0.,-1.));
#1873=DIRECTION('',(0.,-1.,0.));
#1874=DIRECTION('center_axis',(1.,0.,0.));
#1875=DIRECTION('ref_axis',(0.,0.,1.));
#1876=DIRECTION('',(0.,0.,1.));
#1877=DIRECTION('',(0.,-1.,0.));
#1878=DIRECTION('',(0.,0.,1.));
#1879=DIRECTION('center_axis',(0.,-1.,0.));
#1880=DIRECTION('ref_axis',(1.,0.,0.));
#1881=DIRECTION('center_axis',(0.,-1.,0.));
#1882=DIRECTION('ref_axis',(1.,0.,0.));
#1883=DIRECTION('',(0.,-1.,0.));
#1884=DIRECTION('center_axis',(0.,-1.,0.));
#1885=DIRECTION('ref_axis',(1.,0.,0.));
#1886=DIRECTION('center_axis',(0.,0.,-1.));
#1887=DIRECTION('ref_axis',(1.,0.,0.));
#1888=DIRECTION('',(1.,0.,0.));
#1889=DIRECTION('',(0.,-1.,0.));
#1890=DIRECTION('',(1.,0.,0.));
#1891=DIRECTION('center_axis',(0.,-1.,0.));
#1892=DIRECTION('ref_axis',(0.,0.,-1.));
#1893=DIRECTION('center_axis',(0.,-1.,0.));
#1894=DIRECTION('ref_axis',(0.,0.,-1.));
#1895=DIRECTION('center_axis',(0.,-1.,0.));
#1896=DIRECTION('ref_axis',(0.,0.,-1.));
#1897=DIRECTION('center_axis',(0.,1.,0.));
#1898=DIRECTION('ref_axis',(-1.,0.,0.));
#1899=DIRECTION('center_axis',(0.,-1.,0.));
#1900=DIRECTION('ref_axis',(0.707106781186547,0.,-0.707106781186547));
#1901=DIRECTION('',(0.,-1.,0.));
#1902=DIRECTION('center_axis',(0.,1.,0.));
#1903=DIRECTION('ref_axis',(0.707106781186547,0.,-0.707106781186547));
#1904=DIRECTION('',(0.,1.,0.));
#1905=DIRECTION('center_axis',(0.,0.,-1.));
#1906=DIRECTION('ref_axis',(1.,0.,0.));
#1907=DIRECTION('',(0.,1.,0.));
#1908=DIRECTION('',(1.,0.,0.));
#1909=DIRECTION('center_axis',(0.,-1.,0.));
#1910=DIRECTION('ref_axis',(-0.707106781186547,0.,-0.707106781186547));
#1911=DIRECTION('',(0.,-1.,0.));
#1912=DIRECTION('center_axis',(0.,1.,0.));
#1913=DIRECTION('ref_axis',(-0.707106781186547,0.,-0.707106781186547));
#1914=DIRECTION('center_axis',(-1.,0.,0.));
#1915=DIRECTION('ref_axis',(0.,0.,-1.));
#1916=DIRECTION('',(0.,-1.,0.));
#1917=DIRECTION('',(0.,0.,-1.));
#1918=DIRECTION('center_axis',(1.,0.,0.));
#1919=DIRECTION('ref_axis',(0.,0.,1.));
#1920=DIRECTION('',(0.,0.,1.));
#1921=DIRECTION('center_axis',(0.,0.,-1.));
#1922=DIRECTION('ref_axis',(1.,0.,0.));
#1923=DIRECTION('',(1.,0.,0.));
#1924=DIRECTION('center_axis',(0.,-1.,0.));
#1925=DIRECTION('ref_axis',(0.,0.,-1.));
#1926=DIRECTION('center_axis',(0.,0.,-1.));
#1927=DIRECTION('ref_axis',(-1.,0.,0.));
#1928=DIRECTION('',(1.,0.,0.));
#1929=DIRECTION('center_axis',(0.,1.,0.));
#1930=DIRECTION('ref_axis',(1.,0.,0.));
#1931=CARTESIAN_POINT('',(0.,0.,0.));
#1932=CARTESIAN_POINT('Origin',(41.4485484366775,7.3510060827256,28.1888381643133));
#1933=CARTESIAN_POINT('',(38.7485484366775,7.3510060827256,29.0000000000005));
#1934=CARTESIAN_POINT('Origin',(41.4485484366775,7.3510060827256,29.0000000000005));
#1935=CARTESIAN_POINT('',(41.4485484366775,7.3510060827256,27.3776763286261));
#1936=CARTESIAN_POINT('',(40.0985484366775,7.3510060827256,28.1888381643133));
#1937=CARTESIAN_POINT('Origin',(41.4485484366775,7.3510060827256,33.0000000000005));
#1938=CARTESIAN_POINT('',(36.4485484366775,7.3510060827256,33.0000000000005));
#1939=CARTESIAN_POINT('Origin',(41.4485484366775,7.3510060827256,33.0000000000005));
#1940=CARTESIAN_POINT('',(38.7485484366775,7.3510060827256,33.0000000000005));
#1941=CARTESIAN_POINT('Origin',(41.4485484366775,7.3510060827256,33.0000000000005));
#1942=CARTESIAN_POINT('Origin',(41.4485484366775,7.3510060827256,34.0000000000005));
#1943=CARTESIAN_POINT('',(36.4485484366775,7.3510060827256,35.));
#1944=CARTESIAN_POINT('Origin',(41.4485484366775,7.3510060827256,35.));
#1945=CARTESIAN_POINT('',(36.4485484366775,7.3510060827256,34.0000000000005));
#1946=CARTESIAN_POINT('Origin',(41.4485484366775,7.3510060827256,32.0000000000005));
#1947=CARTESIAN_POINT('',(38.7485484366775,7.3510060827256,32.0000000000005));
#1948=CARTESIAN_POINT('Origin',(71.778174593052,25.,35.0000003360626));
#1949=CARTESIAN_POINT('',(71.778174593052,25.,35.0000003360626));
#1950=CARTESIAN_POINT('',(71.778174593052,25.,-31.778174593052));
#1951=CARTESIAN_POINT('',(71.778174593052,25.,17.5000001680313));
#1952=CARTESIAN_POINT('',(71.778174593052,23.,35.0000003360626));
#1953=CARTESIAN_POINT('',(71.778174593052,12.5,35.));
#1954=CARTESIAN_POINT('',(71.778174593052,23.,-31.778174593052));
#1955=CARTESIAN_POINT('',(71.778174593052,23.,40.0000005960464));
#1956=CARTESIAN_POINT('',(71.778174593052,0.,-31.778174593052));
#1957=CARTESIAN_POINT('Origin',(73.389087296526,23.,1.61091287150531));
#1958=CARTESIAN_POINT('',(75.,23.,35.));
#1959=CARTESIAN_POINT('',(11.694543648263,23.,35.));
#1960=CARTESIAN_POINT('',(75.,23.,-24.));
#1961=CARTESIAN_POINT('',(75.,23.,18.3054564357527));
#1962=CARTESIAN_POINT('Origin',(64.,23.,-24.));
#1963=CARTESIAN_POINT('Origin',(12.5,25.,0.));
#1964=CARTESIAN_POINT('',(64.,25.,-35.));
#1965=CARTESIAN_POINT('Origin',(64.,25.,-24.));
#1966=CARTESIAN_POINT('',(55.0000008195639,25.,-35.));
#1967=CARTESIAN_POINT('',(-50.,25.,-35.));
#1968=CARTESIAN_POINT('',(55.0000008195639,25.,-25.000000372529));
#1969=CARTESIAN_POINT('',(55.0000008195639,25.,-17.5));
#1970=CARTESIAN_POINT('',(70.0000010430813,25.,-10.0000001490116));
#1971=CARTESIAN_POINT('Origin',(55.0000008195639,25.,-10.0000001490116));
#1972=CARTESIAN_POINT('',(70.0000010430813,25.,35.0000005215406));
#1973=CARTESIAN_POINT('',(70.0000010430813,25.,-5.00000007450581));
#1974=CARTESIAN_POINT('',(75.,25.,35.));
#1975=CARTESIAN_POINT('Origin',(64.,0.,-24.));
#1976=CARTESIAN_POINT('',(75.,0.,-24.));
#1977=CARTESIAN_POINT('',(75.,0.,-24.));
#1978=CARTESIAN_POINT('',(64.,0.,-35.));
#1979=CARTESIAN_POINT('Origin',(64.,0.,-24.));
#1980=CARTESIAN_POINT('',(64.,0.,-35.));
#1981=CARTESIAN_POINT('Origin',(4.00000011649997,9.,-32.0000004768372));
#1982=CARTESIAN_POINT('',(4.00000011649997,9.,-32.0000004768372));
#1983=CARTESIAN_POINT('',(4.00000014494763,9.,-35.0000004836104));
#1984=CARTESIAN_POINT('',(4.00000004775145,9.,-24.7500004802238));
#1985=CARTESIAN_POINT('',(4.00000011649997,6.,-32.0000004768372));
#1986=CARTESIAN_POINT('',(4.00000011649997,9.,-32.0000004768372));
#1987=CARTESIAN_POINT('',(4.00000014494763,6.,-35.0000004836104));
#1988=CARTESIAN_POINT('',(4.00000014494763,6.,-35.0000004836104));
#1989=CARTESIAN_POINT('',(4.00000014494762,4.5,-35.));
#1990=CARTESIAN_POINT('Origin',(11.0000001544302,9.,-32.0000004104593));
#1991=CARTESIAN_POINT('',(11.0000001639128,9.,-25.000000372529));
#1992=CARTESIAN_POINT('Origin',(11.0000001544302,9.,-32.0000004104593));
#1993=CARTESIAN_POINT('',(11.0000001639128,6.,-25.000000372529));
#1994=CARTESIAN_POINT('',(11.0000001639128,9.,-25.000000372529));
#1995=CARTESIAN_POINT('Origin',(11.0000001544302,6.,-32.0000004104593));
#1996=CARTESIAN_POINT('Origin',(40.0000005960464,9.,-25.000000372529));
#1997=CARTESIAN_POINT('',(40.0000005960464,9.,-25.000000372529));
#1998=CARTESIAN_POINT('',(33.7500005029142,9.,-25.000000372529));
#1999=CARTESIAN_POINT('',(40.0000005960464,6.,-25.000000372529));
#2000=CARTESIAN_POINT('',(40.0000005960464,9.,-25.000000372529));
#2001=CARTESIAN_POINT('',(11.0000001639128,6.,-25.000000372529));
#2002=CARTESIAN_POINT('Origin',(40.0000005960464,9.,-31.000000461936));
#2003=CARTESIAN_POINT('',(46.0000006854534,9.,-31.000000461936));
#2004=CARTESIAN_POINT('Origin',(40.0000005960464,9.,-31.000000461936));
#2005=CARTESIAN_POINT('',(46.0000006854534,6.,-31.000000461936));
#2006=CARTESIAN_POINT('',(46.0000006854534,9.,-31.000000461936));
#2007=CARTESIAN_POINT('Origin',(40.0000005960464,6.,-31.000000461936));
#2008=CARTESIAN_POINT('Origin',(46.0000006854534,9.,-35.0000005215406));
#2009=CARTESIAN_POINT('',(46.0000006854534,9.,-35.0000005215406));
#2010=CARTESIAN_POINT('',(46.0000006854534,9.,-26.2500003911555));
#2011=CARTESIAN_POINT('',(46.0000006854534,6.,-35.0000005215406));
#2012=CARTESIAN_POINT('',(46.0000006854534,4.5,-35.));
#2013=CARTESIAN_POINT('',(46.0000006854534,6.,-31.000000461936));
#2014=CARTESIAN_POINT('Origin',(25.0000004009767,6.,-30.0000004470348));
#2015=CARTESIAN_POINT('',(50.0000002004883,6.,-35.));
#2016=CARTESIAN_POINT('Origin',(27.5000004097819,9.,-17.5000002607703));
#2017=CARTESIAN_POINT('',(0.,9.,-35.0000005215406));
#2018=CARTESIAN_POINT('',(51.250000204891,9.,-35.));
#2019=CARTESIAN_POINT('',(0.,9.,-5.00000007450581));
#2020=CARTESIAN_POINT('',(0.,9.,-35.0000005215406));
#2021=CARTESIAN_POINT('',(5.00000007450581,9.,0.));
#2022=CARTESIAN_POINT('Origin',(5.00000007450581,9.,-5.00000007450581));
#2023=CARTESIAN_POINT('',(20.000000372529,9.,0.));
#2024=CARTESIAN_POINT('',(5.00000007450581,9.,0.));
#2025=CARTESIAN_POINT('',(25.000000372529,9.,-5.));
#2026=CARTESIAN_POINT('Origin',(20.000000372529,9.,-5.));
#2027=CARTESIAN_POINT('',(25.000000372529,9.,-11.0000001639128));
#2028=CARTESIAN_POINT('',(25.000000372529,9.,0.));
#2029=CARTESIAN_POINT('',(34.0000005066395,9.,-20.0000002980232));
#2030=CARTESIAN_POINT('Origin',(34.0000005066395,9.,-11.0000001639128));
#2031=CARTESIAN_POINT('',(52.0000008195639,9.,-20.0000002980232));
#2032=CARTESIAN_POINT('',(34.0000005066395,9.,-20.0000002980232));
#2033=CARTESIAN_POINT('',(55.0000008195639,9.,-23.0000002980232));
#2034=CARTESIAN_POINT('Origin',(52.0000008195639,9.,-23.0000002980232));
#2035=CARTESIAN_POINT('',(55.0000008195639,9.,-35.));
#2036=CARTESIAN_POINT('',(55.0000008195639,9.,-20.0000002980232));
#2037=CARTESIAN_POINT('',(51.250000204891,9.,-35.));
#2038=CARTESIAN_POINT('Origin',(75.,0.,35.));
#2039=CARTESIAN_POINT('',(75.,0.,35.));
#2040=CARTESIAN_POINT('',(75.,0.,35.));
#2041=CARTESIAN_POINT('',(75.,0.,-35.));
#2042=CARTESIAN_POINT('Origin',(-50.,10.0000001490116,-35.0000005215406));
#2043=CARTESIAN_POINT('',(-50.,10.0000001490116,-35.0000005215406));
#2044=CARTESIAN_POINT('',(-50.,10.0000001490116,35.0000005215406));
#2045=CARTESIAN_POINT('',(-50.,10.0000001490116,-35.0000002607703));
#2046=CARTESIAN_POINT('',(-47.,10.0000001490116,-35.0000005215406));
#2047=CARTESIAN_POINT('',(12.5,10.0000001490116,-35.));
#2048=CARTESIAN_POINT('',(-47.,10.0000001490116,35.0000005215406));
#2049=CARTESIAN_POINT('',(-47.,10.0000001490116,-35.0000005215406));
#2050=CARTESIAN_POINT('',(-50.,10.0000001490116,35.));
#2051=CARTESIAN_POINT('Origin',(-50.,6.00000008940697,35.0000005215406));
#2052=CARTESIAN_POINT('',(-50.,6.00000008940697,35.0000005215406));
#2053=CARTESIAN_POINT('',(-50.,6.00000008940697,-35.0000005215406));
#2054=CARTESIAN_POINT('',(-50.,6.00000008940697,2.60770320892334E-7));
#2055=CARTESIAN_POINT('',(-47.,6.00000008940697,35.0000005215406));
#2056=CARTESIAN_POINT('',(-50.,6.00000008940697,35.));
#2057=CARTESIAN_POINT('',(-47.,6.00000008940697,-35.0000005215406));
#2058=CARTESIAN_POINT('',(-47.,6.00000008940697,35.0000005215406));
#2059=CARTESIAN_POINT('',(12.5,6.00000008940697,-35.));
#2060=CARTESIAN_POINT('Origin',(-47.,8.00000011920929,0.));
#2061=CARTESIAN_POINT('',(-47.,4.00000005960464,35.));
#2062=CARTESIAN_POINT('',(-47.,4.00000005960464,-35.));
#2063=CARTESIAN_POINT('Origin',(-50.,0.,-35.));
#2064=CARTESIAN_POINT('',(-50.,0.,-35.));
#2065=CARTESIAN_POINT('',(-50.,0.,-35.));
#2066=CARTESIAN_POINT('',(-50.,0.,35.));
#2067=CARTESIAN_POINT('',(-50.,0.,35.));
#2068=CARTESIAN_POINT('',(-50.,0.,35.));
#2069=CARTESIAN_POINT('Origin',(-50.,0.,-35.));
#2070=CARTESIAN_POINT('',(-50.,15.,35.));
#2071=CARTESIAN_POINT('',(-50.,0.,35.));
#2072=CARTESIAN_POINT('',(-50.,15.,10.));
#2073=CARTESIAN_POINT('',(-50.,15.,-12.5));
#2074=CARTESIAN_POINT('',(-50.,24.,10.));
#2075=CARTESIAN_POINT('',(-50.,12.5,10.));
#2076=CARTESIAN_POINT('',(-50.,24.,-35.));
#2077=CARTESIAN_POINT('',(-50.,24.,-17.5));
#2078=CARTESIAN_POINT('',(-50.,0.,-35.));
#2079=CARTESIAN_POINT('Origin',(-33.9999389648438,13.,-15.0938820838928));
#2080=CARTESIAN_POINT('',(-33.9999389648438,13.,-26.0938820838928));
#2081=CARTESIAN_POINT('Origin',(-33.9999389648438,13.,-15.0938820838928));
#2082=CARTESIAN_POINT('',(-33.9999389648438,13.,-23.0938820838928));
#2083=CARTESIAN_POINT('Origin',(-33.9999389648438,13.,-15.0938820838928));
#2084=CARTESIAN_POINT('Origin',(-33.9999389648438,19.,-15.0938820838928));
#2085=CARTESIAN_POINT('',(-33.9999389648438,25.,-26.0938820838928));
#2086=CARTESIAN_POINT('Origin',(-33.9999389648438,25.,-15.0938820838928));
#2087=CARTESIAN_POINT('',(-33.9999389648438,19.,-26.0938820838928));
#2088=CARTESIAN_POINT('Origin',(-33.9999389648438,12.5,-15.0938820838928));
#2089=CARTESIAN_POINT('',(-33.9999389648438,0.,-23.0938820838928));
#2090=CARTESIAN_POINT('',(-33.9999389648438,12.5,-23.0938820838928));
#2091=CARTESIAN_POINT('Origin',(-33.9999389648438,0.,-15.0938820838928));
#2092=CARTESIAN_POINT('Origin',(-18.75,24.5,9.5));
#2093=CARTESIAN_POINT('',(-16.,25.,9.));
#2094=CARTESIAN_POINT('',(-49.,25.,9.));
#2095=CARTESIAN_POINT('',(-18.75,25.,9.));
#2096=CARTESIAN_POINT('',(-49.,25.,9.));
#2097=CARTESIAN_POINT('',(-15.,24.,10.));
#2098=CARTESIAN_POINT('',(-18.75,24.,10.));
#2099=CARTESIAN_POINT('',(-16.,25.,9.));
#2100=CARTESIAN_POINT('Origin',(-49.5,24.5,-17.5));
#2101=CARTESIAN_POINT('',(-49.,25.,-34.));
#2102=CARTESIAN_POINT('',(-49.,25.,-17.5));
#2103=CARTESIAN_POINT('',(-49.,25.,-34.));
#2104=CARTESIAN_POINT('Origin',(43.75,24.5,-34.5));
#2105=CARTESIAN_POINT('',(-1.,25.,-34.));
#2106=CARTESIAN_POINT('',(43.75,25.,-34.));
#2107=CARTESIAN_POINT('',(0.,24.,-35.));
#2108=CARTESIAN_POINT('',(-1.,25.,-34.));
#2109=CARTESIAN_POINT('',(43.75,24.,-35.));
#2110=CARTESIAN_POINT('Origin',(18.7500001862645,24.5,0.5));
#2111=CARTESIAN_POINT('',(18.0000002682209,24.,0.));
#2112=CARTESIAN_POINT('',(5.00000007450581,24.,0.));
#2113=CARTESIAN_POINT('',(18.7500001862645,24.,0.));
#2114=CARTESIAN_POINT('',(5.00000007450581,25.,1.));
#2115=CARTESIAN_POINT('',(5.00000007450581,24.,0.));
#2116=CARTESIAN_POINT('',(17.0000002682209,25.,1.));
#2117=CARTESIAN_POINT('',(18.7500001862645,25.,1.));
#2118=CARTESIAN_POINT('',(17.0000002682209,25.,1.));
#2119=CARTESIAN_POINT('Origin',(17.5000002682209,24.5,17.5000002607703));
#2120=CARTESIAN_POINT('',(17.0000002682209,25.,34.));
#2121=CARTESIAN_POINT('',(17.0000002682209,25.,17.5000002607703));
#2122=CARTESIAN_POINT('',(18.0000002682209,24.,35.));
#2123=CARTESIAN_POINT('',(17.0000002682209,25.,34.));
#2124=CARTESIAN_POINT('',(18.0000002682209,24.,17.5000002607703));
#2125=CARTESIAN_POINT('Origin',(-18.75,24.5,34.5));
#2126=CARTESIAN_POINT('',(12.5,24.,35.));
#2127=CARTESIAN_POINT('',(-18.75,24.,35.));
#2128=CARTESIAN_POINT('',(12.802775637732,25.,34.));
#2129=CARTESIAN_POINT('',(-18.75,25.,34.));
#2130=CARTESIAN_POINT('',(12.802775637732,25.,34.));
#2131=CARTESIAN_POINT('Origin',(5.00000007450581,24.5,-5.00000007450581));
#2132=CARTESIAN_POINT('',(0.,24.,-5.00000007450581));
#2133=CARTESIAN_POINT('',(-1.,25.,-5.00000007450581));
#2134=CARTESIAN_POINT('',(0.,24.,-5.00000007450581));
#2135=CARTESIAN_POINT('Origin',(5.00000007450581,25.,-5.00000007450581));
#2136=CARTESIAN_POINT('Origin',(5.00000007450581,24.,-5.00000007450581));
#2137=CARTESIAN_POINT('Origin',(-0.5,24.5,-2.5000000372529));
#2138=CARTESIAN_POINT('',(-1.,25.,-2.5000000372529));
#2139=CARTESIAN_POINT('',(0.,24.,-2.5000000372529));
#2140=CARTESIAN_POINT('Origin',(0.950427021189537,24.5,26.6993594682157));
#2141=CARTESIAN_POINT('',(5.,24.,30.));
#2142=CARTESIAN_POINT('',(0.673076923076924,24.,27.1153846153846));
#2143=CARTESIAN_POINT('',(6.,25.,29.464816241512));
#2144=CARTESIAN_POINT('',(1.22777711930215,25.,26.2833343210468));
#2145=CARTESIAN_POINT('',(6.,25.,29.464816241512));
#2146=CARTESIAN_POINT('Origin',(-1.96688611699158,24.5,17.1506583509747));
#2147=CARTESIAN_POINT('',(-10.,24.,15.));
#2148=CARTESIAN_POINT('',(1.58113883008419,24.,18.8603796100281));
#2149=CARTESIAN_POINT('',(-2.125,24.,17.625));
#2150=CARTESIAN_POINT('',(1.89736659610103,25.,17.9116963119776));
#2151=CARTESIAN_POINT('',(1.58113883008419,24.,18.8603796100281));
#2152=CARTESIAN_POINT('',(-9.,25.,14.2792407799439));
#2153=CARTESIAN_POINT('',(-1.80877223398316,25.,16.6763167019495));
#2154=CARTESIAN_POINT('',(-9.,25.,14.2792407799439));
#2155=CARTESIAN_POINT('Origin',(0.,24.5,23.6037961002806));
#2156=CARTESIAN_POINT('',(5.,24.,23.6037961002806));
#2157=CARTESIAN_POINT('Origin',(0.,24.,23.6037961002806));
#2158=CARTESIAN_POINT('',(6.,25.,23.6037961002806));
#2159=CARTESIAN_POINT('',(5.,24.,23.6037961002806));
#2160=CARTESIAN_POINT('Origin',(0.,25.,23.6037961002806));
#2161=CARTESIAN_POINT('Origin',(5.5,24.5,10.));
#2162=CARTESIAN_POINT('',(6.,25.,10.));
#2163=CARTESIAN_POINT('',(5.,24.,10.));
#2164=CARTESIAN_POINT('Origin',(-15.5,24.5,5.));
#2165=CARTESIAN_POINT('',(-15.,24.,-13.5));
#2166=CARTESIAN_POINT('',(-15.,24.,5.));
#2167=CARTESIAN_POINT('',(-16.,25.,-13.5));
#2168=CARTESIAN_POINT('',(-15.,24.,-13.5));
#2169=CARTESIAN_POINT('',(-16.,25.,5.));
#2170=CARTESIAN_POINT('Origin',(-13.5,24.5,-13.5));
#2171=CARTESIAN_POINT('',(-13.5,24.,-15.));
#2172=CARTESIAN_POINT('Origin',(-13.5,24.,-13.5));
#2173=CARTESIAN_POINT('',(-13.5,25.,-16.));
#2174=CARTESIAN_POINT('',(-13.5,24.,-15.));
#2175=CARTESIAN_POINT('Origin',(-13.5,25.,-13.5));
#2176=CARTESIAN_POINT('Origin',(-1.25,24.5,-15.5));
#2177=CARTESIAN_POINT('',(-11.5,24.,-15.));
#2178=CARTESIAN_POINT('',(-11.5,25.,-16.));
#2179=CARTESIAN_POINT('',(-11.5,24.,-15.));
#2180=CARTESIAN_POINT('',(-1.25,25.,-16.));
#2181=CARTESIAN_POINT('',(-1.25,24.,-15.));
#2182=CARTESIAN_POINT('Origin',(-11.5,24.5,-13.5));
#2183=CARTESIAN_POINT('',(-10.,24.,-13.5));
#2184=CARTESIAN_POINT('Origin',(-11.5,24.,-13.5));
#2185=CARTESIAN_POINT('',(-9.,25.,-13.5));
#2186=CARTESIAN_POINT('',(-10.,24.,-13.5));
#2187=CARTESIAN_POINT('Origin',(-11.5,25.,-13.5));
#2188=CARTESIAN_POINT('Origin',(-9.5,24.5,-7.5));
#2189=CARTESIAN_POINT('',(-9.,25.,-7.5));
#2190=CARTESIAN_POINT('',(-10.,24.,-7.5));
#2191=CARTESIAN_POINT('Origin',(0.,25.,-5.00000007450581));
#2192=CARTESIAN_POINT('',(0.,25.,-5.00000007450581));
#2193=CARTESIAN_POINT('',(0.,12.5,-35.));
#2194=CARTESIAN_POINT('Origin',(5.00000007450581,25.,-5.00000007450581));
#2195=CARTESIAN_POINT('',(5.00000007450581,25.,0.));
#2196=CARTESIAN_POINT('Origin',(25.000000372529,25.,0.));
#2197=CARTESIAN_POINT('',(18.0000002682209,15.,0.));
#2198=CARTESIAN_POINT('',(18.0000002682209,25.,0.));
#2199=CARTESIAN_POINT('',(20.000000372529,15.,0.));
#2200=CARTESIAN_POINT('',(34.5000005140901,15.,0.));
#2201=CARTESIAN_POINT('',(20.000000372529,25.,0.));
#2202=CARTESIAN_POINT('Origin',(18.0000002682209,25.,35.0000005215406));
#2203=CARTESIAN_POINT('',(18.0000002682209,15.,35.0000005215406));
#2204=CARTESIAN_POINT('',(18.0000002682209,12.5,35.));
#2205=CARTESIAN_POINT('',(18.0000002682209,15.,35.0000005215406));
#2206=CARTESIAN_POINT('Origin',(-50.,0.,35.));
#2207=CARTESIAN_POINT('',(70.0000010430813,15.,35.0000005215406));
#2208=CARTESIAN_POINT('',(70.0000010430813,12.5,35.));
#2209=CARTESIAN_POINT('',(-2.99999967217445,15.,35.));
#2210=CARTESIAN_POINT('',(12.5,15.,35.));
#2211=CARTESIAN_POINT('',(12.5,12.5,35.));
#2212=CARTESIAN_POINT('',(-10.,15.,35.));
#2213=CARTESIAN_POINT('',(-34.375,15.,35.));
#2214=CARTESIAN_POINT('',(-10.,11.,35.));
#2215=CARTESIAN_POINT('',(-10.,7.5,35.));
#2216=CARTESIAN_POINT('',(-40.,11.,35.));
#2217=CARTESIAN_POINT('',(-37.5,11.,35.));
#2218=CARTESIAN_POINT('',(-40.,15.,35.));
#2219=CARTESIAN_POINT('',(-40.,7.5,35.));
#2220=CARTESIAN_POINT('',(-34.375,15.,35.));
#2221=CARTESIAN_POINT('',(75.,0.,35.));
#2222=CARTESIAN_POINT('Origin',(5.,25.,30.));
#2223=CARTESIAN_POINT('',(5.,15.,30.));
#2224=CARTESIAN_POINT('',(5.,25.,30.));
#2225=CARTESIAN_POINT('',(5.,15.,30.));
#2226=CARTESIAN_POINT('Origin',(5.,25.,20.));
#2227=CARTESIAN_POINT('',(5.,15.,23.6037961002806));
#2228=CARTESIAN_POINT('',(5.,25.,23.6037961002806));
#2229=CARTESIAN_POINT('',(5.,15.,20.));
#2230=CARTESIAN_POINT('Origin',(0.,25.,23.6037961002806));
#2231=CARTESIAN_POINT('',(1.58113883008419,15.,18.8603796100281));
#2232=CARTESIAN_POINT('',(1.58113883008419,25.,18.8603796100281));
#2233=CARTESIAN_POINT('Origin',(0.,15.,23.6037961002806));
#2234=CARTESIAN_POINT('Origin',(-10.,25.,15.));
#2235=CARTESIAN_POINT('',(-10.,15.,15.));
#2236=CARTESIAN_POINT('',(-10.,25.,15.));
#2237=CARTESIAN_POINT('',(-10.,15.,15.));
#2238=CARTESIAN_POINT('Origin',(12.5,25.,0.));
#2239=CARTESIAN_POINT('Origin',(52.0000008195639,25.,-23.0000002980232));
#2240=CARTESIAN_POINT('',(52.0000008195639,15.,-20.0000002980232));
#2241=CARTESIAN_POINT('',(52.0000008195639,25.,-20.0000002980232));
#2242=CARTESIAN_POINT('',(55.0000008195639,15.,-23.0000002980232));
#2243=CARTESIAN_POINT('Origin',(52.0000008195639,15.,-23.0000002980232));
#2244=CARTESIAN_POINT('',(55.0000008195639,25.,-23.0000002980232));
#2245=CARTESIAN_POINT('Origin',(55.0000008195639,25.,-20.0000002980232));
#2246=CARTESIAN_POINT('',(34.0000005066395,15.,-20.0000002980232));
#2247=CARTESIAN_POINT('',(34.0000005066395,25.,-20.0000002980232));
#2248=CARTESIAN_POINT('',(49.5000007376075,15.,-20.0000002980232));
#2249=CARTESIAN_POINT('Origin',(20.000000372529,25.,-5.));
#2250=CARTESIAN_POINT('',(25.000000372529,15.,-5.));
#2251=CARTESIAN_POINT('Origin',(20.000000372529,15.,-5.));
#2252=CARTESIAN_POINT('',(25.000000372529,25.,-5.));
#2253=CARTESIAN_POINT('Origin',(25.000000372529,25.,-11.0000001639128));
#2254=CARTESIAN_POINT('',(25.000000372529,15.,-11.0000001639128));
#2255=CARTESIAN_POINT('',(25.000000372529,15.,-3.00000004470348));
#2256=CARTESIAN_POINT('',(25.000000372529,25.,-11.0000001639128));
#2257=CARTESIAN_POINT('Origin',(34.0000005066395,25.,-11.0000001639128));
#2258=CARTESIAN_POINT('Origin',(34.0000005066395,15.,-11.0000001639128));
#2259=CARTESIAN_POINT('Origin',(55.0000008195639,25.,-35.));
#2260=CARTESIAN_POINT('',(55.0000008195639,15.,-25.000000372529));
#2261=CARTESIAN_POINT('',(55.0000008195639,15.,-14.9999999627471));
#2262=CARTESIAN_POINT('',(55.0000008195639,25.,-25.000000372529));
#2263=CARTESIAN_POINT('',(55.0000008195639,12.5,-35.));
#2264=CARTESIAN_POINT('Origin',(44.0000006556511,15.,5.00000007450581));
#2265=CARTESIAN_POINT('',(70.0000010430813,15.,-10.0000001490116));
#2266=CARTESIAN_POINT('',(70.0000010430813,15.,-10.0000001490116));
#2267=CARTESIAN_POINT('Origin',(55.0000008195639,15.,-10.0000001490116));
#2268=CARTESIAN_POINT('',(59.0000008791685,15.,10.0000001490116));
#2269=CARTESIAN_POINT('Origin',(44.0000006556511,15.,10.0000001490116));
#2270=CARTESIAN_POINT('Origin',(44.0000006556511,15.,10.0000001490116));
#2271=CARTESIAN_POINT('',(59.0000008791685,8.,10.0000001490116));
#2272=CARTESIAN_POINT('',(59.0000008791685,15.,10.0000001490116));
#2273=CARTESIAN_POINT('Origin',(44.0000006556511,8.,10.0000001490116));
#2274=CARTESIAN_POINT('Origin',(44.0000006556511,8.,10.0000001490116));
#2275=CARTESIAN_POINT('Origin',(70.0000010430813,25.,-10.0000001490116));
#2276=CARTESIAN_POINT('',(70.0000010430813,25.,-10.0000001490116));
#2277=CARTESIAN_POINT('Origin',(55.0000008195639,25.,-10.0000001490116));
#2278=CARTESIAN_POINT('Origin',(-40.,15.,35.));
#2279=CARTESIAN_POINT('',(-40.,15.,25.));
#2280=CARTESIAN_POINT('',(-40.,15.,22.5));
#2281=CARTESIAN_POINT('',(-40.,11.,25.));
#2282=CARTESIAN_POINT('',(-40.,11.,35.));
#2283=CARTESIAN_POINT('',(-40.,15.,25.));
#2284=CARTESIAN_POINT('Origin',(-10.,15.,25.));
#2285=CARTESIAN_POINT('',(-10.,15.,25.));
#2286=CARTESIAN_POINT('',(-10.,15.,17.5));
#2287=CARTESIAN_POINT('',(-10.,11.,25.));
#2288=CARTESIAN_POINT('',(-10.,15.,25.));
#2289=CARTESIAN_POINT('',(-10.,11.,25.));
#2290=CARTESIAN_POINT('Origin',(-15.,15.,25.));
#2291=CARTESIAN_POINT('',(-15.,15.,20.));
#2292=CARTESIAN_POINT('Origin',(-15.,15.,25.));
#2293=CARTESIAN_POINT('',(-15.,11.,20.));
#2294=CARTESIAN_POINT('',(-15.,15.,20.));
#2295=CARTESIAN_POINT('Origin',(-15.,11.,25.));
#2296=CARTESIAN_POINT('Origin',(-35.,15.,20.));
#2297=CARTESIAN_POINT('',(-35.,15.,20.));
#2298=CARTESIAN_POINT('',(-26.875,15.,20.));
#2299=CARTESIAN_POINT('',(-35.,11.,20.));
#2300=CARTESIAN_POINT('',(-35.,15.,20.));
#2301=CARTESIAN_POINT('',(-35.,11.,20.));
#2302=CARTESIAN_POINT('Origin',(-35.,15.,25.));
#2303=CARTESIAN_POINT('Origin',(-35.,15.,25.));
#2304=CARTESIAN_POINT('Origin',(-35.,11.,25.));
#2305=CARTESIAN_POINT('Origin',(-25.,11.,27.5));
#2306=CARTESIAN_POINT('Origin',(-11.5,25.,-13.5));
#2307=CARTESIAN_POINT('',(-11.5,15.,-15.));
#2308=CARTESIAN_POINT('',(-11.5,25.,-15.));
#2309=CARTESIAN_POINT('',(-10.,15.,-13.5));
#2310=CARTESIAN_POINT('Origin',(-11.5,15.,-13.5));
#2311=CARTESIAN_POINT('',(-10.,25.,-13.5));
#2312=CARTESIAN_POINT('Origin',(-15.,25.,-15.));
#2313=CARTESIAN_POINT('',(-13.5,15.,-15.));
#2314=CARTESIAN_POINT('',(-13.5,25.,-15.));
#2315=CARTESIAN_POINT('',(-15.,15.,-15.));
#2316=CARTESIAN_POINT('Origin',(-13.5,25.,-13.5));
#2317=CARTESIAN_POINT('',(-15.,15.,-13.5));
#2318=CARTESIAN_POINT('',(-15.,25.,-13.5));
#2319=CARTESIAN_POINT('Origin',(-13.5,15.,-13.5));
#2320=CARTESIAN_POINT('Origin',(-15.,25.,10.));
#2321=CARTESIAN_POINT('',(-15.,15.,10.));
#2322=CARTESIAN_POINT('',(-15.,25.,10.));
#2323=CARTESIAN_POINT('',(-15.,15.,10.));
#2324=CARTESIAN_POINT('Origin',(-10.,25.,-15.));
#2325=CARTESIAN_POINT('',(-10.,15.,-15.));
#2326=CARTESIAN_POINT('Origin',(-50.,25.,10.));
#2327=CARTESIAN_POINT('',(-50.,15.,10.));
#2328=CARTESIAN_POINT('Origin',(-18.75,15.,10.));
#2329=CARTESIAN_POINT('Origin',(75.,0.,-35.));
#2330=CARTESIAN_POINT('',(-50.,0.,-35.));
#2331=CARTESIAN_POINT('Origin',(12.5,0.,0.));
#2332=UNCERTAINTY_MEASURE_WITH_UNIT(LENGTH_MEASURE(0.01),#2336,
'DISTANCE_ACCURACY_VALUE',
'Maximum model space distance between geometric entities at asserted c
onnectivities');
#2333=UNCERTAINTY_MEASURE_WITH_UNIT(LENGTH_MEASURE(0.01),#2336,
'DISTANCE_ACCURACY_VALUE',
'Maximum model space distance between geometric entities at asserted c
onnectivities');
#2334=(
GEOMETRIC_REPRESENTATION_CONTEXT(3)
GLOBAL_UNCERTAINTY_ASSIGNED_CONTEXT((#2332))
GLOBAL_UNIT_ASSIGNED_CONTEXT((#2336,#2338,#2339))
REPRESENTATION_CONTEXT('','3D')
);
#2335=(
GEOMETRIC_REPRESENTATION_CONTEXT(3)
GLOBAL_UNCERTAINTY_ASSIGNED_CONTEXT((#2333))
GLOBAL_UNIT_ASSIGNED_CONTEXT((#2336,#2338,#2339))
REPRESENTATION_CONTEXT('','3D')
);
#2336=(
LENGTH_UNIT()
NAMED_UNIT(*)
SI_UNIT(.MILLI.,.METRE.)
);
#2337=(
LENGTH_UNIT()
NAMED_UNIT(*)
SI_UNIT($,.METRE.)
);
#2338=(
NAMED_UNIT(*)
PLANE_ANGLE_UNIT()
SI_UNIT($,.RADIAN.)
);
#2339=(
NAMED_UNIT(*)
SI_UNIT($,.STERADIAN.)
SOLID_ANGLE_UNIT()
);
#2340=SHAPE_DEFINITION_REPRESENTATION(#2341,#2342);
#2341=PRODUCT_DEFINITION_SHAPE('',$,#2344);
#2342=SHAPE_REPRESENTATION('',(#1418),#2334);
#2343=PRODUCT_DEFINITION_CONTEXT('part definition',#2348,'design');
#2344=PRODUCT_DEFINITION('(Unsaved)','(Unsaved)',#2345,#2343);
#2345=PRODUCT_DEFINITION_FORMATION('',$,#2350);
#2346=PRODUCT_RELATED_PRODUCT_CATEGORY('(Unsaved)','(Unsaved)',(#2350));
#2347=APPLICATION_PROTOCOL_DEFINITION('international standard',
'automotive_design',2009,#2348);
#2348=APPLICATION_CONTEXT(
'Core Data for Automotive Mechanical Design Process');
#2349=PRODUCT_CONTEXT('part definition',#2348,'mechanical');
#2350=PRODUCT('(Unsaved)','(Unsaved)',$,(#2349));
#2351=PRESENTATION_STYLE_ASSIGNMENT((#2352));
#2352=SURFACE_STYLE_USAGE(.BOTH.,#2353);
#2353=SURFACE_SIDE_STYLE('',(#2354));
#2354=SURFACE_STYLE_FILL_AREA(#2355);
#2355=FILL_AREA_STYLE('Steel - Satin',(#2356));
#2356=FILL_AREA_STYLE_COLOUR('Steel - Satin',#2357);
#2357=COLOUR_RGB('Steel - Satin',0.627450980392157,0.627450980392157,0.627450980392157);
ENDSEC;
END-ISO-10303-21;
