ISO-10303-21;
HEADER;
FILE_DESCRIPTION(('Open CASCADE Model'),'2;1');
FILE_NAME('Open CASCADE Shape Model','2024-07-21T17:54:50',(
    'CAD Processor'),('OPEN CASCADE S.A.S'),
  'Open CASCADE STEP processor 7.4','CAD Processor','Unknown');
FILE_SCHEMA((
'AP242_MANAGED_MODEL_BASED_3D_ENGINEERING_MIM_LF. {1 0 10303 442 1 1 4 
}'));
ENDSEC;
DATA;
#1 = APPLICATION_PROTOCOL_DEFINITION('international standard',
  'ap242_managed_model_based_3d_engineering',2013,#2);
#2 = APPLICATION_CONTEXT('Managed model based 3d engineering');
#3 = SHAPE_DEFINITION_REPRESENTATION(#4,#10);
#4 = PRODUCT_DEFINITION_SHAPE('','',#5);
#5 = PRODUCT_DEFINITION('design','',#6,#9);
#6 = PRODUCT_DEFINITION_FORMATION('','',#7);
#7 = PRODUCT('chassis','chassis','',(#8));
#8 = PRODUCT_CONTEXT('',#2,'mechanical');
#9 = PRODUCT_DEFINITION_CONTEXT('part definition',#2,'design');
#10 = SHAPE_REPRESENTATION('',(#11,#15,#19),#23);
#11 = AXIS2_PLACEMENT_3D('',#12,#13,#14);
#12 = CARTESIAN_POINT('',(0.E+000,0.E+000,0.E+000));
#13 = DIRECTION('',(0.E+000,0.E+000,1.));
#14 = DIRECTION('',(1.,0.E+000,-0.E+000));
#15 = AXIS2_PLACEMENT_3D('',#16,#17,#18);
#16 = CARTESIAN_POINT('',(0.E+000,500.,0.E+000));
#17 = DIRECTION('',(0.E+000,0.E+000,1.));
#18 = DIRECTION('',(1.,0.E+000,0.E+000));
#19 = AXIS2_PLACEMENT_3D('',#20,#21,#22);
#20 = CARTESIAN_POINT('',(0.E+000,-500.,0.E+000));
#21 = DIRECTION('',(0.E+000,0.E+000,1.));
#22 = DIRECTION('',(1.,0.E+000,0.E+000));
#23 = ( GEOMETRIC_REPRESENTATION_CONTEXT(3) 
GLOBAL_UNCERTAINTY_ASSIGNED_CONTEXT((#27)) GLOBAL_UNIT_ASSIGNED_CONTEXT(
(#24,#25,#26)) REPRESENTATION_CONTEXT('Context #1',
  '3D Context with UNIT and UNCERTAINTY') );
#24 = ( LENGTH_UNIT() NAMED_UNIT(*) SI_UNIT(.MILLI.,.METRE.) );
#25 = ( NAMED_UNIT(*) PLANE_ANGLE_UNIT() SI_UNIT($,.RADIAN.) );
#26 = ( NAMED_UNIT(*) SI_UNIT($,.STERADIAN.) SOLID_ANGLE_UNIT() );
#27 = UNCERTAINTY_MEASURE_WITH_UNIT(LENGTH_MEASURE(1.E-007),#24,
  'distance_accuracy_value','confusion accuracy');
#28 = PRODUCT_RELATED_PRODUCT_CATEGORY('part',$,(#7));
#29 = SHAPE_REPRESENTATION('',(#11,#30,#83,#136),#189);
#30 = MANIFOLD_SOLID_BREP('',#31);
#31 = CLOSED_SHELL('',(#32,#65,#74));
#32 = ADVANCED_FACE('',(#33),#60,.T.);
#33 = FACE_BOUND('',#34,.T.);
#34 = EDGE_LOOP('',(#35,#44,#52,#59));
#35 = ORIENTED_EDGE('',*,*,#36,.F.);
#36 = EDGE_CURVE('',#37,#37,#39,.T.);
#37 = VERTEX_POINT('',#38);
#38 = CARTESIAN_POINT('',(-550.,6.123233995737E-014,-250.));
#39 = CIRCLE('',#40,250.);
#40 = AXIS2_PLACEMENT_3D('',#41,#42,#43);
#41 = CARTESIAN_POINT('',(-550.,0.E+000,-6.123233995735E-015));
#42 = DIRECTION('',(-1.,0.E+000,-1.224646799147E-016));
#43 = DIRECTION('',(1.224646799147E-016,0.E+000,-1.));
#44 = ORIENTED_EDGE('',*,*,#45,.F.);
#45 = EDGE_CURVE('',#46,#37,#48,.T.);
#46 = VERTEX_POINT('',#47);
#47 = CARTESIAN_POINT('',(-450.,6.123233995737E-014,-250.));
#48 = LINE('',#49,#50);
#49 = CARTESIAN_POINT('',(-450.,6.123233995737E-014,-250.));
#50 = VECTOR('',#51,1.);
#51 = DIRECTION('',(-1.,0.E+000,-1.224646799147E-016));
#52 = ORIENTED_EDGE('',*,*,#53,.T.);
#53 = EDGE_CURVE('',#46,#46,#54,.T.);
#54 = CIRCLE('',#55,250.);
#55 = AXIS2_PLACEMENT_3D('',#56,#57,#58);
#56 = CARTESIAN_POINT('',(-450.,0.E+000,6.123233995735E-015));
#57 = DIRECTION('',(-1.,0.E+000,-1.224646799147E-016));
#58 = DIRECTION('',(1.224646799147E-016,0.E+000,-1.));
#59 = ORIENTED_EDGE('',*,*,#45,.T.);
#60 = CYLINDRICAL_SURFACE('',#61,250.);
#61 = AXIS2_PLACEMENT_3D('',#62,#63,#64);
#62 = CARTESIAN_POINT('',(-450.,0.E+000,6.123233995735E-015));
#63 = DIRECTION('',(-1.,0.E+000,-1.224646799147E-016));
#64 = DIRECTION('',(1.224646799147E-016,0.E+000,-1.));
#65 = ADVANCED_FACE('',(#66),#69,.T.);
#66 = FACE_BOUND('',#67,.T.);
#67 = EDGE_LOOP('',(#68));
#68 = ORIENTED_EDGE('',*,*,#36,.T.);
#69 = PLANE('',#70);
#70 = AXIS2_PLACEMENT_3D('',#71,#72,#73);
#71 = CARTESIAN_POINT('',(-550.,0.E+000,-6.123233995735E-015));
#72 = DIRECTION('',(-1.,0.E+000,-1.224646799147E-016));
#73 = DIRECTION('',(1.224646799147E-016,0.E+000,-1.));
#74 = ADVANCED_FACE('',(#75),#78,.F.);
#75 = FACE_BOUND('',#76,.T.);
#76 = EDGE_LOOP('',(#77));
#77 = ORIENTED_EDGE('',*,*,#53,.F.);
#78 = PLANE('',#79);
#79 = AXIS2_PLACEMENT_3D('',#80,#81,#82);
#80 = CARTESIAN_POINT('',(-450.,0.E+000,6.123233995735E-015));
#81 = DIRECTION('',(-1.,0.E+000,-1.224646799147E-016));
#82 = DIRECTION('',(1.224646799147E-016,0.E+000,-1.));
#83 = MANIFOLD_SOLID_BREP('',#84);
#84 = CLOSED_SHELL('',(#85,#118,#127));
#85 = ADVANCED_FACE('',(#86),#113,.T.);
#86 = FACE_BOUND('',#87,.T.);
#87 = EDGE_LOOP('',(#88,#97,#105,#112));
#88 = ORIENTED_EDGE('',*,*,#89,.F.);
#89 = EDGE_CURVE('',#90,#90,#92,.T.);
#90 = VERTEX_POINT('',#91);
#91 = CARTESIAN_POINT('',(550.,6.123233995737E-014,250.));
#92 = CIRCLE('',#93,250.);
#93 = AXIS2_PLACEMENT_3D('',#94,#95,#96);
#94 = CARTESIAN_POINT('',(550.,0.E+000,0.E+000));
#95 = DIRECTION('',(1.,0.E+000,-0.E+000));
#96 = DIRECTION('',(0.E+000,0.E+000,1.));
#97 = ORIENTED_EDGE('',*,*,#98,.F.);
#98 = EDGE_CURVE('',#99,#90,#101,.T.);
#99 = VERTEX_POINT('',#100);
#100 = CARTESIAN_POINT('',(450.,6.123233995737E-014,250.));
#101 = LINE('',#102,#103);
#102 = CARTESIAN_POINT('',(450.,6.123233995737E-014,250.));
#103 = VECTOR('',#104,1.);
#104 = DIRECTION('',(1.,0.E+000,0.E+000));
#105 = ORIENTED_EDGE('',*,*,#106,.T.);
#106 = EDGE_CURVE('',#99,#99,#107,.T.);
#107 = CIRCLE('',#108,250.);
#108 = AXIS2_PLACEMENT_3D('',#109,#110,#111);
#109 = CARTESIAN_POINT('',(450.,0.E+000,0.E+000));
#110 = DIRECTION('',(1.,0.E+000,-0.E+000));
#111 = DIRECTION('',(0.E+000,0.E+000,1.));
#112 = ORIENTED_EDGE('',*,*,#98,.T.);
#113 = CYLINDRICAL_SURFACE('',#114,250.);
#114 = AXIS2_PLACEMENT_3D('',#115,#116,#117);
#115 = CARTESIAN_POINT('',(450.,0.E+000,0.E+000));
#116 = DIRECTION('',(1.,0.E+000,0.E+000));
#117 = DIRECTION('',(0.E+000,0.E+000,1.));
#118 = ADVANCED_FACE('',(#119),#122,.T.);
#119 = FACE_BOUND('',#120,.T.);
#120 = EDGE_LOOP('',(#121));
#121 = ORIENTED_EDGE('',*,*,#89,.T.);
#122 = PLANE('',#123);
#123 = AXIS2_PLACEMENT_3D('',#124,#125,#126);
#124 = CARTESIAN_POINT('',(550.,0.E+000,0.E+000));
#125 = DIRECTION('',(1.,0.E+000,0.E+000));
#126 = DIRECTION('',(0.E+000,0.E+000,1.));
#127 = ADVANCED_FACE('',(#128),#131,.F.);
#128 = FACE_BOUND('',#129,.T.);
#129 = EDGE_LOOP('',(#130));
#130 = ORIENTED_EDGE('',*,*,#106,.F.);
#131 = PLANE('',#132);
#132 = AXIS2_PLACEMENT_3D('',#133,#134,#135);
#133 = CARTESIAN_POINT('',(450.,0.E+000,0.E+000));
#134 = DIRECTION('',(1.,0.E+000,0.E+000));
#135 = DIRECTION('',(0.E+000,0.E+000,1.));
#136 = MANIFOLD_SOLID_BREP('',#137);
#137 = CLOSED_SHELL('',(#138,#171,#180));
#138 = ADVANCED_FACE('',(#139),#166,.T.);
#139 = FACE_BOUND('',#140,.T.);
#140 = EDGE_LOOP('',(#141,#150,#158,#165));
#141 = ORIENTED_EDGE('',*,*,#142,.F.);
#142 = EDGE_CURVE('',#143,#143,#145,.T.);
#143 = VERTEX_POINT('',#144);
#144 = CARTESIAN_POINT('',(500.,6.123233995737E-015,25.));
#145 = CIRCLE('',#146,25.);
#146 = AXIS2_PLACEMENT_3D('',#147,#148,#149);
#147 = CARTESIAN_POINT('',(500.,0.E+000,0.E+000));
#148 = DIRECTION('',(1.,0.E+000,-0.E+000));
#149 = DIRECTION('',(0.E+000,0.E+000,1.));
#150 = ORIENTED_EDGE('',*,*,#151,.F.);
#151 = EDGE_CURVE('',#152,#143,#154,.T.);
#152 = VERTEX_POINT('',#153);
#153 = CARTESIAN_POINT('',(-500.,6.123233995737E-015,25.));
#154 = LINE('',#155,#156);
#155 = CARTESIAN_POINT('',(-500.,6.123233995737E-015,25.));
#156 = VECTOR('',#157,1.);
#157 = DIRECTION('',(1.,0.E+000,0.E+000));
#158 = ORIENTED_EDGE('',*,*,#159,.T.);
#159 = EDGE_CURVE('',#152,#152,#160,.T.);
#160 = CIRCLE('',#161,25.);
#161 = AXIS2_PLACEMENT_3D('',#162,#163,#164);
#162 = CARTESIAN_POINT('',(-500.,0.E+000,0.E+000));
#163 = DIRECTION('',(1.,0.E+000,-0.E+000));
#164 = DIRECTION('',(0.E+000,0.E+000,1.));
#165 = ORIENTED_EDGE('',*,*,#151,.T.);
#166 = CYLINDRICAL_SURFACE('',#167,25.);
#167 = AXIS2_PLACEMENT_3D('',#168,#169,#170);
#168 = CARTESIAN_POINT('',(-500.,0.E+000,0.E+000));
#169 = DIRECTION('',(1.,0.E+000,0.E+000));
#170 = DIRECTION('',(0.E+000,0.E+000,1.));
#171 = ADVANCED_FACE('',(#172),#175,.T.);
#172 = FACE_BOUND('',#173,.T.);
#173 = EDGE_LOOP('',(#174));
#174 = ORIENTED_EDGE('',*,*,#142,.T.);
#175 = PLANE('',#176);
#176 = AXIS2_PLACEMENT_3D('',#177,#178,#179);
#177 = CARTESIAN_POINT('',(500.,0.E+000,0.E+000));
#178 = DIRECTION('',(1.,0.E+000,0.E+000));
#179 = DIRECTION('',(0.E+000,0.E+000,1.));
#180 = ADVANCED_FACE('',(#181),#184,.F.);
#181 = FACE_BOUND('',#182,.T.);
#182 = EDGE_LOOP('',(#183));
#183 = ORIENTED_EDGE('',*,*,#159,.F.);
#184 = PLANE('',#185);
#185 = AXIS2_PLACEMENT_3D('',#186,#187,#188);
#186 = CARTESIAN_POINT('',(-500.,0.E+000,0.E+000));
#187 = DIRECTION('',(1.,0.E+000,0.E+000));
#188 = DIRECTION('',(0.E+000,0.E+000,1.));
#189 = ( GEOMETRIC_REPRESENTATION_CONTEXT(3) 
GLOBAL_UNCERTAINTY_ASSIGNED_CONTEXT((#193)) GLOBAL_UNIT_ASSIGNED_CONTEXT
((#190,#191,#192)) REPRESENTATION_CONTEXT('Context #1',
  '3D Context with UNIT and UNCERTAINTY') );
#190 = ( LENGTH_UNIT() NAMED_UNIT(*) SI_UNIT(.MILLI.,.METRE.) );
#191 = ( NAMED_UNIT(*) PLANE_ANGLE_UNIT() SI_UNIT($,.RADIAN.) );
#192 = ( NAMED_UNIT(*) SI_UNIT($,.STERADIAN.) SOLID_ANGLE_UNIT() );
#193 = UNCERTAINTY_MEASURE_WITH_UNIT(LENGTH_MEASURE(1.E-007),#190,
  'distance_accuracy_value','confusion accuracy');
#194 = SHAPE_DEFINITION_REPRESENTATION(#195,#29);
#195 = PRODUCT_DEFINITION_SHAPE('','',#196);
#196 = PRODUCT_DEFINITION('design','',#197,#200);
#197 = PRODUCT_DEFINITION_FORMATION('','',#198);
#198 = PRODUCT('wheel-axle','wheel-axle','',(#199));
#199 = PRODUCT_CONTEXT('',#2,'mechanical');
#200 = PRODUCT_DEFINITION_CONTEXT('part definition',#2,'design');
#201 = CONTEXT_DEPENDENT_SHAPE_REPRESENTATION(#202,#204);
#202 = ( REPRESENTATION_RELATIONSHIP('','',#29,#10) 
REPRESENTATION_RELATIONSHIP_WITH_TRANSFORMATION(#203) 
SHAPE_REPRESENTATION_RELATIONSHIP() );
#203 = ITEM_DEFINED_TRANSFORMATION('','',#11,#15);
#204 = PRODUCT_DEFINITION_SHAPE('Placement','Placement of an item',#205
  );
#205 = NEXT_ASSEMBLY_USAGE_OCCURRENCE('1','wheel-axle-ref','',#5,#196,$
  );
#206 = PRODUCT_RELATED_PRODUCT_CATEGORY('part',$,(#198));
#207 = CONTEXT_DEPENDENT_SHAPE_REPRESENTATION(#208,#210);
#208 = ( REPRESENTATION_RELATIONSHIP('','',#29,#10) 
REPRESENTATION_RELATIONSHIP_WITH_TRANSFORMATION(#209) 
SHAPE_REPRESENTATION_RELATIONSHIP() );
#209 = ITEM_DEFINED_TRANSFORMATION('','',#11,#19);
#210 = PRODUCT_DEFINITION_SHAPE('Placement','Placement of an item',#211
  );
#211 = NEXT_ASSEMBLY_USAGE_OCCURRENCE('2','wheel-axle-ref','',#5,#196,$
  );
#212 = MECHANICAL_DESIGN_GEOMETRIC_PRESENTATION_REPRESENTATION('',(#213,
    #223,#231,#240,#247),#189);
#213 = STYLED_ITEM('color',(#214),#30);
#214 = PRESENTATION_STYLE_ASSIGNMENT((#215,#221));
#215 = SURFACE_STYLE_USAGE(.BOTH.,#216);
#216 = SURFACE_SIDE_STYLE('',(#217));
#217 = SURFACE_STYLE_FILL_AREA(#218);
#218 = FILL_AREA_STYLE('',(#219));
#219 = FILL_AREA_STYLE_COLOUR('',#220);
#220 = DRAUGHTING_PRE_DEFINED_COLOUR('red');
#221 = CURVE_STYLE('',#222,POSITIVE_LENGTH_MEASURE(0.1),#220);
#222 = DRAUGHTING_PRE_DEFINED_CURVE_FONT('continuous');
#223 = OVER_RIDING_STYLED_ITEM('overriding color',(#224),#65,#213);
#224 = PRESENTATION_STYLE_ASSIGNMENT((#225));
#225 = SURFACE_STYLE_USAGE(.BOTH.,#226);
#226 = SURFACE_SIDE_STYLE('',(#227));
#227 = SURFACE_STYLE_FILL_AREA(#228);
#228 = FILL_AREA_STYLE('',(#229));
#229 = FILL_AREA_STYLE_COLOUR('',#230);
#230 = DRAUGHTING_PRE_DEFINED_COLOUR('blue');
#231 = STYLED_ITEM('color',(#232),#83);
#232 = PRESENTATION_STYLE_ASSIGNMENT((#233,#238));
#233 = SURFACE_STYLE_USAGE(.BOTH.,#234);
#234 = SURFACE_SIDE_STYLE('',(#235));
#235 = SURFACE_STYLE_FILL_AREA(#236);
#236 = FILL_AREA_STYLE('',(#237));
#237 = FILL_AREA_STYLE_COLOUR('',#220);
#238 = CURVE_STYLE('',#239,POSITIVE_LENGTH_MEASURE(0.1),#220);
#239 = DRAUGHTING_PRE_DEFINED_CURVE_FONT('continuous');
#240 = OVER_RIDING_STYLED_ITEM('overriding color',(#241),#118,#231);
#241 = PRESENTATION_STYLE_ASSIGNMENT((#242));
#242 = SURFACE_STYLE_USAGE(.BOTH.,#243);
#243 = SURFACE_SIDE_STYLE('',(#244));
#244 = SURFACE_STYLE_FILL_AREA(#245);
#245 = FILL_AREA_STYLE('',(#246));
#246 = FILL_AREA_STYLE_COLOUR('',#230);
#247 = STYLED_ITEM('color',(#248),#136);
#248 = PRESENTATION_STYLE_ASSIGNMENT((#249,#255));
#249 = SURFACE_STYLE_USAGE(.BOTH.,#250);
#250 = SURFACE_SIDE_STYLE('',(#251));
#251 = SURFACE_STYLE_FILL_AREA(#252);
#252 = FILL_AREA_STYLE('',(#253));
#253 = FILL_AREA_STYLE_COLOUR('',#254);
#254 = DRAUGHTING_PRE_DEFINED_COLOUR('green');
#255 = CURVE_STYLE('',#256,POSITIVE_LENGTH_MEASURE(0.1),#254);
#256 = DRAUGHTING_PRE_DEFINED_CURVE_FONT('continuous');
ENDSEC;
END-ISO-10303-21;
