ISO-10303-21;
HEADER;
FILE_DESCRIPTION (( 'STEP AP214' ),
    '1' );
FILE_NAME ('azv_clamp_named-faces.STEP',
    '2025-04-09T16:52:37',
    ( '' ),
    ( '' ),
    'SwSTEP 2.0',
    'SolidWorks 2024',
    '' );
FILE_SCHEMA (( 'AUTOMOTIVE_DESIGN' ));
ENDSEC;

DATA;
#1 = PRESENTATION_STYLE_ASSIGNMENT (( #146 ) ) ;
#2 = ORIENTED_EDGE ( 'NONE', *, *, #233, .T. ) ;
#3 = VECTOR ( 'NONE', #228, 1000.000000000000000 ) ;
#4 = CARTESIAN_POINT ( 'NONE',  ( 20.00000000000000000, 165.0000000000000000, 80.00000000000000000 ) ) ;
#5 = ADVANCED_FACE ( 'wall_inner_1', ( #349 ), #282, .T. ) ;
#6 = ORIENTED_EDGE ( 'NONE', *, *, #411, .F. ) ;
#7 = CARTESIAN_POINT ( 'NONE',  ( 50.00000000000000000, 50.00000000000000000, 0.000000000000000000 ) ) ;
#8 = ORIENTED_EDGE ( 'NONE', *, *, #419, .F. ) ;
#9 = DIRECTION ( 'NONE',  ( -1.000000000000000000, 0.000000000000000000, 0.000000000000000000 ) ) ;
#10 = DIRECTION ( 'NONE',  ( 0.000000000000000000, 0.000000000000000000, 1.000000000000000000 ) ) ;
#11 = VECTOR ( 'NONE', #27, 1000.000000000000000 ) ;
#12 = EDGE_CURVE ( 'NONE', #430, #305, #107, .T. ) ;
#13 = AXIS2_PLACEMENT_3D ( 'NONE', #97, #162, #412 ) ;
#14 = PLANE ( 'NONE',  #195 ) ;
#15 = DIRECTION ( 'NONE',  ( 1.000000000000000000, 0.000000000000000000, 0.000000000000000000 ) ) ;
#16 = DIRECTION ( 'NONE',  ( 0.000000000000000000, 0.000000000000000000, 1.000000000000000000 ) ) ;
#17 = CARTESIAN_POINT ( 'NONE',  ( 50.00000000000000000, 50.00000000000000000, 0.000000000000000000 ) ) ;
#18 = AXIS2_PLACEMENT_3D ( 'NONE', #262, #119, #47 ) ;
#19 = DIRECTION ( 'NONE',  ( -1.000000000000000000, 3.552713678799999707E-16, 0.000000000000000000 ) ) ;
#20 = EDGE_CURVE ( 'NONE', #176, #427, #160, .T. ) ;
#21 = CARTESIAN_POINT ( 'NONE',  ( 175.0000000000000000, 145.0000000000000000, 10.00000000000000000 ) ) ;
#22 = DIRECTION ( 'NONE',  ( 1.000000000000000000, 0.000000000000000000, 0.000000000000000000 ) ) ;
#23 = ORIENTED_EDGE ( 'NONE', *, *, #293, .F. ) ;
#24 = ADVANCED_FACE ( 'hole_1_2', ( #374 ), #439, .F. ) ;
#25 = ADVANCED_BREP_SHAPE_REPRESENTATION ( 'azv_clamp_named-faces', ( #383, #72 ), #58 ) ;
#26 = VECTOR ( 'NONE', #132, 1000.000000000000000 ) ;
#27 = DIRECTION ( 'NONE',  ( 0.000000000000000000, 0.000000000000000000, 1.000000000000000000 ) ) ;
#28 = ORIENTED_EDGE ( 'NONE', *, *, #156, .T. ) ;
#29 = DIRECTION ( 'NONE',  ( 0.000000000000000000, 0.000000000000000000, 1.000000000000000000 ) ) ;
#30 = PRODUCT_DEFINITION_CONTEXT ( 'detailed design', #126, 'design' ) ;
#31 = CARTESIAN_POINT ( 'NONE',  ( 0.000000000000000000, 0.000000000000000000, 10.00000000000000000 ) ) ;
#32 = CARTESIAN_POINT ( 'NONE',  ( 20.00000000000000000, 155.0000000000000000, 80.00000000000000000 ) ) ;
#33 = AXIS2_PLACEMENT_3D ( 'NONE', #120, #371, #231 ) ;
#34 = VERTEX_POINT ( 'NONE', #301 ) ;
#35 = ADVANCED_FACE ( 'thickness_6', ( #296 ), #263, .F. ) ;
#36 = COLOUR_RGB ( '',0.7921568627450980005, 0.8196078431372548767, 0.9333333333333333481 ) ;
#37 = CARTESIAN_POINT ( 'NONE',  ( 0.000000000000000000, 165.0000000000000000, 0.000000000000000000 ) ) ;
#38 = ORIENTED_EDGE ( 'NONE', *, *, #233, .F. ) ;
#39 = ORIENTED_EDGE ( 'NONE', *, *, #299, .T. ) ;
#40 = ADVANCED_FACE ( 'thickness_3', ( #259 ), #14, .T. ) ;
#41 = LINE ( 'NONE', #4, #460 ) ;
#42 = ORIENTED_EDGE ( 'NONE', *, *, #388, .T. ) ;
#43 = CIRCLE ( 'NONE', #268, 30.00000000000000000 ) ;
#44 = PRODUCT_DEFINITION_FORMATION_WITH_SPECIFIED_SOURCE ( 'ANY', '', #403, .NOT_KNOWN. ) ;
#45 =( NAMED_UNIT ( * ) SI_UNIT ( $, .STERADIAN. ) SOLID_ANGLE_UNIT ( ) );
#46 = ORIENTED_EDGE ( 'NONE', *, *, #317, .F. ) ;
#47 = DIRECTION ( 'NONE',  ( 0.000000000000000000, 0.000000000000000000, -1.000000000000000000 ) ) ;
#48 = CARTESIAN_POINT ( 'NONE',  ( 50.00000000000000000, 50.00000000000000000, 0.000000000000000000 ) ) ;
#49 = CARTESIAN_POINT ( 'NONE',  ( 67.50000000000000000, 50.00000000000000000, 10.00000000000000000 ) ) ;
#50 = LINE ( 'NONE', #308, #431 ) ;
#51 = EDGE_CURVE ( 'NONE', #163, #309, #413, .T. ) ;
#52 = CIRCLE ( 'NONE', #320, 17.50000000000000000 ) ;
#53 = VECTOR ( 'NONE', #370, 1000.000000000000000 ) ;
#54 = CARTESIAN_POINT ( 'NONE',  ( 20.00000000000000000, 155.0000000000000000, 0.000000000000000000 ) ) ;
#55 = CARTESIAN_POINT ( 'NONE',  ( 175.0000000000000000, 145.0000000000000000, 20.00000000000000000 ) ) ;
#56 = CARTESIAN_POINT ( 'NONE',  ( 20.00000000000000000, 145.0000000000000000, 20.00000000000000000 ) ) ;
#57 = DIRECTION ( 'NONE',  ( 1.000000000000000000, 0.000000000000000000, 0.000000000000000000 ) ) ;
#58 =( GEOMETRIC_REPRESENTATION_CONTEXT ( 3 ) GLOBAL_UNCERTAINTY_ASSIGNED_CONTEXT ( ( #143 ) ) GLOBAL_UNIT_ASSIGNED_CONTEXT ( ( #330, #402, #443 ) ) REPRESENTATION_CONTEXT ( 'NONE', 'WORKASPACE' ) );
#59 = PLANE ( 'NONE',  #13 ) ;
#60 = CARTESIAN_POINT ( 'NONE',  ( 20.00000000000000000, 155.0000000000000000, 0.000000000000000000 ) ) ;
#61 = ORIENTED_EDGE ( 'NONE', *, *, #429, .T. ) ;
#62 = FACE_OUTER_BOUND ( 'NONE', #279, .T. ) ;
#63 = LINE ( 'NONE', #204, #385 ) ;
#64 = AXIS2_PLACEMENT_3D ( 'NONE', #80, #148, #287 ) ;
#65 = ORIENTED_EDGE ( 'NONE', *, *, #363, .T. ) ;
#66 = FACE_BOUND ( 'NONE', #133, .T. ) ;
#67 = ORIENTED_EDGE ( 'NONE', *, *, #12, .F. ) ;
#68 = DIRECTION ( 'NONE',  ( 1.000000000000000000, 0.000000000000000000, 0.000000000000000000 ) ) ;
#69 = EDGE_CURVE ( 'NONE', #135, #34, #88, .T. ) ;
#70 = ORIENTED_EDGE ( 'NONE', *, *, #400, .T. ) ;
#71 = LINE ( 'NONE', #351, #401 ) ;
#72 = AXIS2_PLACEMENT_3D ( 'NONE', #224, #436, #158 ) ;
#73 = ORIENTED_EDGE ( 'NONE', *, *, #184, .T. ) ;
#74 = VECTOR ( 'NONE', #249, 1000.000000000000000 ) ;
#75 = SURFACE_SIDE_STYLE ('',( #398 ) ) ;
#76 = VERTEX_POINT ( 'NONE', #447 ) ;
#77 = ADVANCED_FACE ( 'thickness_5', ( #192 ), #266, .F. ) ;
#78 = PLANE ( 'NONE',  #368 ) ;
#79 = VERTEX_POINT ( 'NONE', #405 ) ;
#80 = CARTESIAN_POINT ( 'NONE',  ( 50.00000000000000000, 50.00000000000000000, 10.00000000000000000 ) ) ;
#81 = ORIENTED_EDGE ( 'NONE', *, *, #419, .T. ) ;
#82 = CARTESIAN_POINT ( 'NONE',  ( 20.00000000000000000, 155.0000000000000000, 20.00000000000000000 ) ) ;
#83 = CARTESIAN_POINT ( 'NONE',  ( 175.0000000000000000, 165.0000000000000000, 0.000000000000000000 ) ) ;
#84 = LINE ( 'NONE', #336, #290 ) ;
#85 = DIRECTION ( 'NONE',  ( 0.000000000000000000, -8.326672684688674053E-15, -1.000000000000000000 ) ) ;
#86 = DIRECTION ( 'NONE',  ( 0.000000000000000000, 0.000000000000000000, -1.000000000000000000 ) ) ;
#87 = AXIS2_PLACEMENT_3D ( 'NONE', #31, #410, #92 ) ;
#88 = LINE ( 'NONE', #261, #242 ) ;
#89 = EDGE_CURVE ( 'NONE', #305, #76, #157, .T. ) ;
#90 = CARTESIAN_POINT ( 'NONE',  ( 20.00000000000000000, 50.00000000000000000, 10.00000000000000000 ) ) ;
#91 = CARTESIAN_POINT ( 'NONE',  ( 80.00000000000000000, 20.00000000000000000, 0.000000000000000000 ) ) ;
#92 = DIRECTION ( 'NONE',  ( 1.000000000000000000, 0.000000000000000000, 0.000000000000000000 ) ) ;
#93 = VECTOR ( 'NONE', #432, 1000.000000000000000 ) ;
#94 = CARTESIAN_POINT ( 'NONE',  ( 175.0000000000000000, 145.0000000000000000, 0.000000000000000000 ) ) ;
#95 = EDGE_CURVE ( 'NONE', #217, #241, #191, .T. ) ;
#96 = EDGE_LOOP ( 'NONE', ( #215, #348, #380, #307 ) ) ;
#97 = CARTESIAN_POINT ( 'NONE',  ( 0.000000000000000000, 0.000000000000000000, 0.000000000000000000 ) ) ;
#98 = EDGE_LOOP ( 'NONE', ( #42, #346, #209, #462, #113, #344, #81, #275 ) ) ;
#99 = CARTESIAN_POINT ( 'NONE',  ( 20.00000000000000000, 165.0000000000000000, 80.00000000000000000 ) ) ;
#100 = EDGE_LOOP ( 'NONE', ( #39, #325, #382, #248 ) ) ;
#101 = CYLINDRICAL_SURFACE ( 'NONE', #210, 30.00000000000000000 ) ;
#102 = ORIENTED_EDGE ( 'NONE', *, *, #388, .F. ) ;
#103 = PRODUCT_RELATED_PRODUCT_CATEGORY ( 'part', '', ( #403 ) ) ;
#104 = CARTESIAN_POINT ( 'NONE',  ( 175.0000000000000000, 165.0000000000000000, 10.00000000000000000 ) ) ;
#105 = VERTEX_POINT ( 'NONE', #125 ) ;
#106 = CARTESIAN_POINT ( 'NONE',  ( 0.000000000000000000, 155.0000000000000000, 0.000000000000000000 ) ) ;
#107 = CIRCLE ( 'NONE', #445, 17.50000000000000000 ) ;
#108 = EDGE_CURVE ( 'NONE', #34, #111, #84, .T. ) ;
#109 = ORIENTED_EDGE ( 'NONE', *, *, #202, .F. ) ;
#110 = DIRECTION ( 'NONE',  ( 0.000000000000000000, -1.000000000000000000, 0.000000000000000000 ) ) ;
#111 = VERTEX_POINT ( 'NONE', #444 ) ;
#112 = CARTESIAN_POINT ( 'NONE',  ( 20.00000000000000000, 50.00000000000000000, 0.000000000000000000 ) ) ;
#113 = ORIENTED_EDGE ( 'NONE', *, *, #429, .F. ) ;
#114 = CARTESIAN_POINT ( 'NONE',  ( 175.0000000000000000, 120.0000000000000000, 0.000000000000000000 ) ) ;
#115 = VERTEX_POINT ( 'NONE', #161 ) ;
#116 = AXIS2_PLACEMENT_3D ( 'NONE', #17, #448, #408 ) ;
#117 = EDGE_CURVE ( 'NONE', #269, #284, #43, .T. ) ;
#118 = DIRECTION ( 'NONE',  ( 0.000000000000000000, 0.000000000000000000, -1.000000000000000000 ) ) ;
#119 = DIRECTION ( 'NONE',  ( 0.7249994335940641577, -0.6887494619150611452, 0.000000000000000000 ) ) ;
#120 = CARTESIAN_POINT ( 'NONE',  ( 20.00000000000000000, 145.0000000000000000, 20.00000000000000000 ) ) ;
#121 = PLANE ( 'NONE',  #18 ) ;
#122 = DIRECTION ( 'NONE',  ( 0.000000000000000000, 0.000000000000000000, -1.000000000000000000 ) ) ;
#123 = EDGE_CURVE ( 'NONE', #418, #76, #52, .T. ) ;
#124 = VECTOR ( 'NONE', #406, 1000.000000000000000 ) ;
#125 = CARTESIAN_POINT ( 'NONE',  ( 175.0000000000000000, 155.0000000000000000, 80.00000000000000000 ) ) ;
#126 = APPLICATION_CONTEXT ( 'automotive_design' ) ;
#127 = DIRECTION ( 'NONE',  ( 1.000000000000000000, 0.000000000000000000, 0.000000000000000000 ) ) ;
#128 = LINE ( 'NONE', #32, #182 ) ;
#129 = VERTEX_POINT ( 'NONE', #153 ) ;
#130 = AXIS2_PLACEMENT_3D ( 'NONE', #172, #453, #29 ) ;
#131 = ADVANCED_FACE ( 'hole_1_1', ( #225 ), #366, .F. ) ;
#132 = DIRECTION ( 'NONE',  ( -1.000000000000000000, 0.000000000000000000, 0.000000000000000000 ) ) ;
#133 = EDGE_LOOP ( 'NONE', ( #67, #178 ) ) ;
#134 = DIRECTION ( 'NONE',  ( 0.000000000000000000, 0.000000000000000000, 1.000000000000000000 ) ) ;
#135 = VERTEX_POINT ( 'NONE', #329 ) ;
#136 = DIRECTION ( 'NONE',  ( 1.000000000000000000, 0.000000000000000000, 0.000000000000000000 ) ) ;
#137 = PRODUCT_DEFINITION ( 'UNKNOWN', '', #44, #30 ) ;
#138 = AXIS2_PLACEMENT_3D ( 'NONE', #326, #118, #364 ) ;
#139 = CARTESIAN_POINT ( 'NONE',  ( 175.0000000000000000, 120.0000000000000000, 10.00000000000000000 ) ) ;
#140 = ORIENTED_EDGE ( 'NONE', *, *, #293, .T. ) ;
#141 = LINE ( 'NONE', #144, #285 ) ;
#142 = EDGE_LOOP ( 'NONE', ( #151, #422, #288, #437 ) ) ;
#143 = UNCERTAINTY_MEASURE_WITH_UNIT (LENGTH_MEASURE( 1.000000000000000082E-05 ), #330, 'distance_accuracy_value', 'NONE');
#144 = CARTESIAN_POINT ( 'NONE',  ( 20.00000000000000000, 50.00000000000000000, 0.000000000000000000 ) ) ;
#145 = EDGE_LOOP ( 'NONE', ( #352, #254, #70, #61 ) ) ;
#146 = SURFACE_STYLE_USAGE ( .BOTH. , #75 ) ;
#147 = ORIENTED_EDGE ( 'NONE', *, *, #69, .F. ) ;
#148 = DIRECTION ( 'NONE',  ( 0.000000000000000000, 0.000000000000000000, 1.000000000000000000 ) ) ;
#149 = ORIENTED_EDGE ( 'NONE', *, *, #197, .F. ) ;
#150 = DIRECTION ( 'NONE',  ( -0.6887494619150610342, -0.7249994335940640466, 0.000000000000000000 ) ) ;
#151 = ORIENTED_EDGE ( 'NONE', *, *, #449, .T. ) ;
#152 = EDGE_CURVE ( 'NONE', #433, #250, #154, .T. ) ;
#153 = CARTESIAN_POINT ( 'NONE',  ( 20.00000000000000000, 145.0000000000000000, 0.000000000000000000 ) ) ;
#154 = LINE ( 'NONE', #442, #124 ) ;
#155 = SHAPE_DEFINITION_REPRESENTATION ( #373, #25 ) ;
#156 = EDGE_CURVE ( 'NONE', #241, #361, #237, .T. ) ;
#157 = LINE ( 'NONE', #334, #201 ) ;
#158 = DIRECTION ( 'NONE',  ( 1.000000000000000000, 0.000000000000000000, 0.000000000000000000 ) ) ;
#159 = CARTESIAN_POINT ( 'NONE',  ( 50.00000000000000000, 50.00000000000000000, 10.00000000000000000 ) ) ;
#160 = CIRCLE ( 'NONE', #33, 10.00000000000000000 ) ;
#161 = CARTESIAN_POINT ( 'NONE',  ( 20.00000000000000000, 50.00000000000000000, 10.00000000000000000 ) ) ;
#162 = DIRECTION ( 'NONE',  ( 0.000000000000000000, 0.000000000000000000, 1.000000000000000000 ) ) ;
#163 = VERTEX_POINT ( 'NONE', #21 ) ;
#164 = FACE_OUTER_BOUND ( 'NONE', #98, .T. ) ;
#165 = ORIENTED_EDGE ( 'NONE', *, *, #317, .T. ) ;
#166 = AXIS2_PLACEMENT_3D ( 'NONE', #340, #416, #276 ) ;
#167 = FACE_OUTER_BOUND ( 'NONE', #142, .T. ) ;
#168 = ORIENTED_EDGE ( 'NONE', *, *, #117, .T. ) ;
#169 = LINE ( 'NONE', #272, #189 ) ;
#170 = ADVANCED_FACE ( 'bend_outer_1', ( #167 ), #302, .T. ) ;
#171 = ORIENTED_EDGE ( 'NONE', *, *, #117, .F. ) ;
#172 = CARTESIAN_POINT ( 'NONE',  ( 175.0000000000000000, 155.0000000000000000, 80.00000000000000000 ) ) ;
#173 = ORIENTED_EDGE ( 'NONE', *, *, #152, .T. ) ;
#174 = CLOSED_SHELL ( 'NONE', ( #35, #77, #303, #239, #5, #407, #280, #226, #218, #170, #454, #40, #24, #131 ) ) ;
#175 = DIRECTION ( 'NONE',  ( 0.000000000000000000, 0.000000000000000000, -1.000000000000000000 ) ) ;
#176 = VERTEX_POINT ( 'NONE', #378 ) ;
#177 = DIRECTION ( 'NONE',  ( 1.000000000000000000, 0.000000000000000000, 0.000000000000000000 ) ) ;
#178 = ORIENTED_EDGE ( 'NONE', *, *, #184, .F. ) ;
#179 =( NAMED_UNIT ( * ) PLANE_ANGLE_UNIT ( ) SI_UNIT ( $, .RADIAN. ) );
#180 = ORIENTED_EDGE ( 'NONE', *, *, #202, .T. ) ;
#181 = DIRECTION ( 'NONE',  ( 1.000000000000000000, 0.000000000000000000, 0.000000000000000000 ) ) ;
#182 = VECTOR ( 'NONE', #214, 1000.000000000000000 ) ;
#183 = ORIENTED_EDGE ( 'NONE', *, *, #299, .F. ) ;
#184 = EDGE_CURVE ( 'NONE', #305, #430, #394, .T. ) ;
#185 = EDGE_LOOP ( 'NONE', ( #323, #213 ) ) ;
#186 = DIRECTION ( 'NONE',  ( 0.000000000000000000, 0.000000000000000000, 1.000000000000000000 ) ) ;
#187 = DIRECTION ( 'NONE',  ( 0.000000000000000000, 1.000000000000000000, 0.000000000000000000 ) ) ;
#188 = DIRECTION ( 'NONE',  ( 1.000000000000000000, 0.000000000000000000, 0.000000000000000000 ) ) ;
#189 = VECTOR ( 'NONE', #384, 1000.000000000000000 ) ;
#190 = EDGE_CURVE ( 'NONE', #79, #217, #211, .T. ) ;
#191 = LINE ( 'NONE', #83, #3 ) ;
#192 = FACE_OUTER_BOUND ( 'NONE', #236, .T. ) ;
#193 = CARTESIAN_POINT ( 'NONE',  ( 175.0000000000000000, 155.0000000000000000, 80.00000000000000000 ) ) ;
#194 = DIRECTION ( 'NONE',  ( 0.000000000000000000, 1.000000000000000000, 0.000000000000000000 ) ) ;
#195 = AXIS2_PLACEMENT_3D ( 'NONE', #91, #232, #331 ) ;
#196 = CARTESIAN_POINT ( 'NONE',  ( 80.00000000000000000, 20.00000000000000000, 0.000000000000000000 ) ) ;
#197 = EDGE_CURVE ( 'NONE', #163, #176, #451, .T. ) ;
#198 = CARTESIAN_POINT ( 'NONE',  ( 175.0000000000000000, 120.0000000000000000, 0.000000000000000000 ) ) ;
#199 = CARTESIAN_POINT ( 'NONE',  ( 50.00000000000000000, 50.00000000000000000, 10.00000000000000000 ) ) ;
#200 = EDGE_LOOP ( 'NONE', ( #393, #205, #109, #23 ) ) ;
#201 = VECTOR ( 'NONE', #264, 1000.000000000000000 ) ;
#202 = EDGE_CURVE ( 'NONE', #284, #111, #63, .T. ) ;
#203 = VECTOR ( 'NONE', #278, 1000.000000000000000 ) ;
#204 = CARTESIAN_POINT ( 'NONE',  ( 50.00000000000000000, 20.00000000000000000, 0.000000000000000000 ) ) ;
#205 = ORIENTED_EDGE ( 'NONE', *, *, #108, .T. ) ;
#206 = FACE_OUTER_BOUND ( 'NONE', #277, .T. ) ;
#207 = EDGE_LOOP ( 'NONE', ( #149, #452, #258, #455 ) ) ;
#208 = FILL_AREA_STYLE ('',( #395 ) ) ;
#209 = ORIENTED_EDGE ( 'NONE', *, *, #95, .F. ) ;
#210 = AXIS2_PLACEMENT_3D ( 'NONE', #342, #450, #22 ) ;
#211 = CIRCLE ( 'NONE', #166, 19.99999999999998934 ) ;
#212 = DIRECTION ( 'NONE',  ( -1.000000000000000000, 0.000000000000000000, 0.000000000000000000 ) ) ;
#213 = ORIENTED_EDGE ( 'NONE', *, *, #327, .T. ) ;
#214 = DIRECTION ( 'NONE',  ( 1.000000000000000000, 0.000000000000000000, 0.000000000000000000 ) ) ;
#215 = ORIENTED_EDGE ( 'NONE', *, *, #12, .T. ) ;
#216 = DIRECTION ( 'NONE',  ( 0.000000000000000000, 0.000000000000000000, -1.000000000000000000 ) ) ;
#217 = VERTEX_POINT ( 'NONE', #94 ) ;
#218 = ADVANCED_FACE ( 'wall_outer_2', ( #267, #235 ), #59, .F. ) ;
#219 = LINE ( 'NONE', #112, #203 ) ;
#220 = VECTOR ( 'NONE', #187, 1000.000000000000000 ) ;
#221 = ORIENTED_EDGE ( 'NONE', *, *, #363, .F. ) ;
#222 = UNCERTAINTY_MEASURE_WITH_UNIT (LENGTH_MEASURE( 1.000000000000000082E-05 ), #424, 'distance_accuracy_value', 'NONE');
#223 = CARTESIAN_POINT ( 'NONE',  ( 50.00000000000000000, 50.00000000000000000, 0.000000000000000000 ) ) ;
#224 = CARTESIAN_POINT ( 'NONE',  ( 0.000000000000000000, 0.000000000000000000, 0.000000000000000000 ) ) ;
#225 = FACE_OUTER_BOUND ( 'NONE', #96, .T. ) ;
#226 = ADVANCED_FACE ( 'thickness_4', ( #62 ), #101, .T. ) ;
#227 = FACE_OUTER_BOUND ( 'NONE', #357, .T. ) ;
#228 = DIRECTION ( 'NONE',  ( 0.000000000000000000, -1.000000000000000000, 0.000000000000000000 ) ) ;
#229 = VECTOR ( 'NONE', #389, 1000.000000000000114 ) ;
#230 = CARTESIAN_POINT ( 'NONE',  ( 175.0000000000000000, 165.0000000000000000, 80.00000000000000000 ) ) ;
#231 = DIRECTION ( 'NONE',  ( 0.000000000000000000, 0.000000000000000000, -1.000000000000000000 ) ) ;
#232 = DIRECTION ( 'NONE',  ( -3.552713678799999707E-16, -1.000000000000000000, 0.000000000000000000 ) ) ;
#233 = EDGE_CURVE ( 'NONE', #427, #433, #240, .T. ) ;
#234 = CARTESIAN_POINT ( 'NONE',  ( 50.00000000000000000, 20.00000000000000000, 0.000000000000000000 ) ) ;
#235 = FACE_OUTER_BOUND ( 'NONE', #459, .T. ) ;
#236 = EDGE_LOOP ( 'NONE', ( #355, #46, #65, #386, #396, #2, #173, #238 ) ) ;
#237 = LINE ( 'NONE', #198, #256 ) ;
#238 = ORIENTED_EDGE ( 'NONE', *, *, #353, .F. ) ;
#239 = ADVANCED_FACE ( 'thickness_1', ( #164 ), #304, .F. ) ;
#240 = LINE ( 'NONE', #60, #11 ) ;
#241 = VERTEX_POINT ( 'NONE', #417 ) ;
#242 = VECTOR ( 'NONE', #298, 1000.000000000000000 ) ;
#243 = VECTOR ( 'NONE', #440, 1000.000000000000000 ) ;
#244 = LINE ( 'NONE', #139, #229 ) ;
#245 = ORIENTED_EDGE ( 'NONE', *, *, #273, .T. ) ;
#246 = FACE_OUTER_BOUND ( 'NONE', #207, .T. ) ;
#247 = CARTESIAN_POINT ( 'NONE',  ( 20.00000000000000000, 165.0000000000000000, 0.000000000000000000 ) ) ;
#248 = ORIENTED_EDGE ( 'NONE', *, *, #152, .F. ) ;
#249 = DIRECTION ( 'NONE',  ( 0.000000000000000000, 0.000000000000000000, 1.000000000000000000 ) ) ;
#250 = VERTEX_POINT ( 'NONE', #99 ) ;
#251 = EDGE_LOOP ( 'NONE', ( #465, #73, #316, #341 ) ) ;
#252 = EDGE_CURVE ( 'NONE', #79, #399, #169, .T. ) ;
#253 = DIRECTION ( 'NONE',  ( 0.000000000000000000, 0.000000000000000000, 1.000000000000000000 ) ) ;
#254 = ORIENTED_EDGE ( 'NONE', *, *, #353, .T. ) ;
#255 = CARTESIAN_POINT ( 'NONE',  ( 20.00000000000000000, 155.0000000000000000, 80.00000000000000000 ) ) ;
#256 = VECTOR ( 'NONE', #381, 1000.000000000000000 ) ;
#257 = CIRCLE ( 'NONE', #387, 20.00000000000000000 ) ;
#258 = ORIENTED_EDGE ( 'NONE', *, *, #411, .T. ) ;
#259 = FACE_OUTER_BOUND ( 'NONE', #200, .T. ) ;
#260 = PRODUCT_CONTEXT ( 'NONE', #297, 'mechanical' ) ;
#261 = CARTESIAN_POINT ( 'NONE',  ( 80.00000000000000000, 20.00000000000000000, 0.000000000000000000 ) ) ;
#262 = CARTESIAN_POINT ( 'NONE',  ( 175.0000000000000000, 120.0000000000000000, 0.000000000000000000 ) ) ;
#263 = PLANE ( 'NONE',  #138 ) ;
#264 = DIRECTION ( 'NONE',  ( 0.000000000000000000, 0.000000000000000000, -1.000000000000000000 ) ) ;
#265 = EDGE_CURVE ( 'NONE', #105, #392, #50, .T. ) ;
#266 = PLANE ( 'NONE',  #358 ) ;
#267 = FACE_BOUND ( 'NONE', #185, .T. ) ;
#268 = AXIS2_PLACEMENT_3D ( 'NONE', #223, #10, #295 ) ;
#269 = VERTEX_POINT ( 'NONE', #458 ) ;
#270 =( GEOMETRIC_REPRESENTATION_CONTEXT ( 3 ) GLOBAL_UNCERTAINTY_ASSIGNED_CONTEXT ( ( #222 ) ) GLOBAL_UNIT_ASSIGNED_CONTEXT ( ( #424, #179, #45 ) ) REPRESENTATION_CONTEXT ( 'NONE', 'WORKASPACE' ) );
#271 = VECTOR ( 'NONE', #212, 1000.000000000000000 ) ;
#272 = CARTESIAN_POINT ( 'NONE',  ( 176.0000002000000165, 165.0000000000000000, 20.00000000000000000 ) ) ;
#273 = EDGE_CURVE ( 'NONE', #361, #34, #244, .T. ) ;
#274 = DIRECTION ( 'NONE',  ( 0.000000000000000000, 0.000000000000000000, -1.000000000000000000 ) ) ;
#275 = ORIENTED_EDGE ( 'NONE', *, *, #51, .F. ) ;
#276 = DIRECTION ( 'NONE',  ( 0.000000000000000000, 1.000000000000000000, 1.873501354054952609E-14 ) ) ;
#277 = EDGE_LOOP ( 'NONE', ( #404, #286, #311, #457, #102, #319 ) ) ;
#278 = DIRECTION ( 'NONE',  ( 0.000000000000000000, 1.000000000000000000, 0.000000000000000000 ) ) ;
#279 = EDGE_LOOP ( 'NONE', ( #168, #180, #314, #221 ) ) ;
#280 = ADVANCED_FACE ( 'wall_inner_2', ( #66, #206 ), #347, .T. ) ;
#281 = LINE ( 'NONE', #247, #74 ) ;
#282 = PLANE ( 'NONE',  #350 ) ;
#283 = LINE ( 'NONE', #428, #423 ) ;
#284 = VERTEX_POINT ( 'NONE', #234 ) ;
#285 = VECTOR ( 'NONE', #391, 1000.000000000000000 ) ;
#286 = ORIENTED_EDGE ( 'NONE', *, *, #312, .T. ) ;
#287 = DIRECTION ( 'NONE',  ( 1.000000000000000000, 0.000000000000000000, 0.000000000000000000 ) ) ;
#288 = ORIENTED_EDGE ( 'NONE', *, *, #190, .T. ) ;
#289 = ORIENTED_EDGE ( 'NONE', *, *, #333, .F. ) ;
#290 = VECTOR ( 'NONE', #19, 1000.000000000000000 ) ;
#291 = MECHANICAL_DESIGN_GEOMETRIC_PRESENTATION_REPRESENTATION (  '', ( #337 ), #270 ) ;
#292 = CARTESIAN_POINT ( 'NONE',  ( 50.00000000000000000, 50.00000000000000000, 0.000000000000000000 ) ) ;
#293 = EDGE_CURVE ( 'NONE', #135, #284, #375, .T. ) ;
#294 = LINE ( 'NONE', #230, #243 ) ;
#295 = DIRECTION ( 'NONE',  ( 1.000000000000000000, 0.000000000000000000, 0.000000000000000000 ) ) ;
#296 = FACE_OUTER_BOUND ( 'NONE', #100, .T. ) ;
#297 = APPLICATION_CONTEXT ( 'automotive_design' ) ;
#298 = DIRECTION ( 'NONE',  ( 0.000000000000000000, 0.000000000000000000, 1.000000000000000000 ) ) ;
#299 = EDGE_CURVE ( 'NONE', #433, #105, #128, .T. ) ;
#300 = VECTOR ( 'NONE', #150, 1000.000000000000114 ) ;
#301 = CARTESIAN_POINT ( 'NONE',  ( 80.00000000000000000, 20.00000000000000000, 10.00000000000000000 ) ) ;
#302 = CYLINDRICAL_SURFACE ( 'NONE', #376, 20.00000000000000000 ) ;
#303 = ADVANCED_FACE ( 'wall_outer_1', ( #464 ), #78, .F. ) ;
#304 = PLANE ( 'NONE',  #130 ) ;
#305 = VERTEX_POINT ( 'NONE', #354 ) ;
#306 = DIRECTION ( 'NONE',  ( 0.000000000000000000, 0.000000000000000000, 1.000000000000000000 ) ) ;
#307 = ORIENTED_EDGE ( 'NONE', *, *, #379, .F. ) ;
#308 = CARTESIAN_POINT ( 'NONE',  ( 175.0000000000000000, 155.0000000000000000, 80.00000000000000000 ) ) ;
#309 = VERTEX_POINT ( 'NONE', #360 ) ;
#310 = DIRECTION ( 'NONE',  ( 1.000000000000000000, 0.000000000000000000, 0.000000000000000000 ) ) ;
#311 = ORIENTED_EDGE ( 'NONE', *, *, #108, .F. ) ;
#312 = EDGE_CURVE ( 'NONE', #115, #111, #414, .T. ) ;
#313 = CARTESIAN_POINT ( 'NONE',  ( 175.0000000000000000, 120.0000000000000000, 10.00000000000000000 ) ) ;
#314 = ORIENTED_EDGE ( 'NONE', *, *, #312, .F. ) ;
#315 = DIRECTION ( 'NONE',  ( 0.000000000000000000, 0.000000000000000000, -1.000000000000000000 ) ) ;
#316 = ORIENTED_EDGE ( 'NONE', *, *, #379, .T. ) ;
#317 = EDGE_CURVE ( 'NONE', #269, #129, #219, .T. ) ;
#318 = LINE ( 'NONE', #104, #93 ) ;
#319 = ORIENTED_EDGE ( 'NONE', *, *, #197, .T. ) ;
#320 = AXIS2_PLACEMENT_3D ( 'NONE', #48, #186, #369 ) ;
#321 = AXIS2_PLACEMENT_3D ( 'NONE', #426, #68, #175 ) ;
#322 = CYLINDRICAL_SURFACE ( 'NONE', #321, 10.00000000000000000 ) ;
#323 = ORIENTED_EDGE ( 'NONE', *, *, #123, .T. ) ;
#324 = CARTESIAN_POINT ( 'NONE',  ( 175.0000000000000000, 165.0000000000000000, 80.00000000000000000 ) ) ;
#325 = ORIENTED_EDGE ( 'NONE', *, *, #265, .T. ) ;
#326 = CARTESIAN_POINT ( 'NONE',  ( 20.00000000000000000, 155.0000000000000000, 80.00000000000000000 ) ) ;
#327 = EDGE_CURVE ( 'NONE', #76, #418, #359, .T. ) ;
#328 = APPLICATION_PROTOCOL_DEFINITION ( 'draft international standard', 'automotive_design', 1998, #297 ) ;
#329 = CARTESIAN_POINT ( 'NONE',  ( 80.00000000000000000, 20.00000000000000000, 0.000000000000000000 ) ) ;
#330 =( LENGTH_UNIT ( ) NAMED_UNIT ( * ) SI_UNIT ( .MILLI., .METRE. ) );
#331 = DIRECTION ( 'NONE',  ( -1.000000000000000000, 3.552713678799999707E-16, 0.000000000000000000 ) ) ;
#332 = APPLICATION_PROTOCOL_DEFINITION ( 'draft international standard', 'automotive_design', 1998, #126 ) ;
#333 = EDGE_CURVE ( 'NONE', #217, #129, #461, .T. ) ;
#334 = CARTESIAN_POINT ( 'NONE',  ( 32.50000000000000000, 50.00000000000000000, 0.000000000000000000 ) ) ;
#335 = LINE ( 'NONE', #90, #220 ) ;
#336 = CARTESIAN_POINT ( 'NONE',  ( 80.00000000000000000, 20.00000000000000000, 10.00000000000000000 ) ) ;
#337 = STYLED_ITEM ( 'NONE', ( #1 ), #383 ) ;
#338 = DIRECTION ( 'NONE',  ( -1.000000000000000000, 3.552713678799999707E-16, 0.000000000000000000 ) ) ;
#339 = ORIENTED_EDGE ( 'NONE', *, *, #463, .F. ) ;
#340 = CARTESIAN_POINT ( 'NONE',  ( 175.0000000000000000, 145.0000000000000000, 20.00000000000000000 ) ) ;
#341 = ORIENTED_EDGE ( 'NONE', *, *, #327, .F. ) ;
#342 = CARTESIAN_POINT ( 'NONE',  ( 50.00000000000000000, 50.00000000000000000, 0.000000000000000000 ) ) ;
#343 = VECTOR ( 'NONE', #338, 1000.000000000000000 ) ;
#344 = ORIENTED_EDGE ( 'NONE', *, *, #265, .F. ) ;
#345 = CARTESIAN_POINT ( 'NONE',  ( 176.0000002000000165, 145.0000000000000000, 20.00000000000000000 ) ) ;
#346 = ORIENTED_EDGE ( 'NONE', *, *, #156, .F. ) ;
#347 = PLANE ( 'NONE',  #87 ) ;
#348 = ORIENTED_EDGE ( 'NONE', *, *, #89, .T. ) ;
#349 = FACE_OUTER_BOUND ( 'NONE', #390, .T. ) ;
#350 = AXIS2_PLACEMENT_3D ( 'NONE', #106, #435, #397 ) ;
#351 = CARTESIAN_POINT ( 'NONE',  ( 176.0000002000000165, 155.0000000000000000, 20.00000000000000000 ) ) ;
#352 = ORIENTED_EDGE ( 'NONE', *, *, #252, .T. ) ;
#353 = EDGE_CURVE ( 'NONE', #399, #250, #281, .T. ) ;
#354 = CARTESIAN_POINT ( 'NONE',  ( 32.50000000000000000, 50.00000000000000000, 10.00000000000000000 ) ) ;
#355 = ORIENTED_EDGE ( 'NONE', *, *, #449, .F. ) ;
#356 = CARTESIAN_POINT ( 'NONE',  ( 20.00000000000000000, 165.0000000000000000, 20.00000000000000000 ) ) ;
#357 = EDGE_LOOP ( 'NONE', ( #28, #245, #147, #339 ) ) ;
#358 = AXIS2_PLACEMENT_3D ( 'NONE', #54, #57, #194 ) ;
#359 = CIRCLE ( 'NONE', #446, 17.50000000000000000 ) ;
#360 = CARTESIAN_POINT ( 'NONE',  ( 175.0000000000000000, 155.0000000000000000, 20.00000000000000000 ) ) ;
#361 = VERTEX_POINT ( 'NONE', #313 ) ;
#362 = LINE ( 'NONE', #114, #300 ) ;
#363 = EDGE_CURVE ( 'NONE', #269, #115, #141, .T. ) ;
#364 = DIRECTION ( 'NONE',  ( 0.000000000000000000, -1.000000000000000000, 0.000000000000000000 ) ) ;
#365 = LINE ( 'NONE', #193, #53 ) ;
#366 = CYLINDRICAL_SURFACE ( 'NONE', #421, 17.50000000000000000 ) ;
#367 = AXIS2_PLACEMENT_3D ( 'NONE', #55, #127, #86 ) ;
#368 = AXIS2_PLACEMENT_3D ( 'NONE', #37, #110, #315 ) ;
#369 = DIRECTION ( 'NONE',  ( 1.000000000000000000, 0.000000000000000000, 0.000000000000000000 ) ) ;
#370 = DIRECTION ( 'NONE',  ( 0.000000000000000000, 0.000000000000000000, -1.000000000000000000 ) ) ;
#371 = DIRECTION ( 'NONE',  ( 1.000000000000000000, 0.000000000000000000, 0.000000000000000000 ) ) ;
#372 = CARTESIAN_POINT ( 'NONE',  ( 67.50000000000000000, 50.00000000000000000, 0.000000000000000000 ) ) ;
#373 = PRODUCT_DEFINITION_SHAPE ( 'NONE', 'NONE',  #137 ) ;
#374 = FACE_OUTER_BOUND ( 'NONE', #251, .T. ) ;
#375 = LINE ( 'NONE', #196, #343 ) ;
#376 = AXIS2_PLACEMENT_3D ( 'NONE', #345, #310, #274 ) ;
#377 = PRESENTATION_LAYER_ASSIGNMENT (  '', '', ( #337 ) ) ;
#378 = CARTESIAN_POINT ( 'NONE',  ( 20.00000000000000000, 145.0000000000000000, 10.00000000000000000 ) ) ;
#379 = EDGE_CURVE ( 'NONE', #430, #418, #283, .T. ) ;
#380 = ORIENTED_EDGE ( 'NONE', *, *, #123, .F. ) ;
#381 = DIRECTION ( 'NONE',  ( 0.000000000000000000, 0.000000000000000000, 1.000000000000000000 ) ) ;
#382 = ORIENTED_EDGE ( 'NONE', *, *, #400, .F. ) ;
#383 = MANIFOLD_SOLID_BREP ( 'NONE', #174 ) ;
#384 = DIRECTION ( 'NONE',  ( -1.000000000000000000, 0.000000000000000000, 0.000000000000000000 ) ) ;
#385 = VECTOR ( 'NONE', #306, 1000.000000000000000 ) ;
#386 = ORIENTED_EDGE ( 'NONE', *, *, #441, .T. ) ;
#387 = AXIS2_PLACEMENT_3D ( 'NONE', #56, #15, #85 ) ;
#388 = EDGE_CURVE ( 'NONE', #163, #361, #318, .T. ) ;
#389 = DIRECTION ( 'NONE',  ( -0.6887494619150610342, -0.7249994335940640466, 0.000000000000000000 ) ) ;
#390 = EDGE_LOOP ( 'NONE', ( #8, #183, #38, #6 ) ) ;
#391 = DIRECTION ( 'NONE',  ( 0.000000000000000000, 0.000000000000000000, 1.000000000000000000 ) ) ;
#392 = VERTEX_POINT ( 'NONE', #324 ) ;
#393 = ORIENTED_EDGE ( 'NONE', *, *, #69, .T. ) ;
#394 = CIRCLE ( 'NONE', #438, 17.50000000000000000 ) ;
#395 = FILL_AREA_STYLE_COLOUR ( '', #36 ) ;
#396 = ORIENTED_EDGE ( 'NONE', *, *, #20, .T. ) ;
#397 = DIRECTION ( 'NONE',  ( 0.000000000000000000, 0.000000000000000000, -1.000000000000000000 ) ) ;
#398 = SURFACE_STYLE_FILL_AREA ( #208 ) ;
#399 = VERTEX_POINT ( 'NONE', #356 ) ;
#400 = EDGE_CURVE ( 'NONE', #250, #392, #41, .T. ) ;
#401 = VECTOR ( 'NONE', #9, 1000.000000000000000 ) ;
#402 =( NAMED_UNIT ( * ) PLANE_ANGLE_UNIT ( ) SI_UNIT ( $, .RADIAN. ) );
#403 = PRODUCT ( 'azv_clamp_named-faces', 'azv_clamp_named-faces', '', ( #260 ) ) ;
#404 = ORIENTED_EDGE ( 'NONE', *, *, #441, .F. ) ;
#405 = CARTESIAN_POINT ( 'NONE',  ( 175.0000000000000000, 165.0000000000000000, 20.00000000000000000 ) ) ;
#406 = DIRECTION ( 'NONE',  ( 0.000000000000000000, 1.000000000000000000, 0.000000000000000000 ) ) ;
#407 = ADVANCED_FACE ( 'bend_inner_1', ( #246 ), #322, .F. ) ;
#408 = DIRECTION ( 'NONE',  ( 1.000000000000000000, 0.000000000000000000, 0.000000000000000000 ) ) ;
#409 = DIRECTION ( 'NONE',  ( 1.000000000000000000, 0.000000000000000000, 0.000000000000000000 ) ) ;
#410 = DIRECTION ( 'NONE',  ( 0.000000000000000000, 0.000000000000000000, 1.000000000000000000 ) ) ;
#411 = EDGE_CURVE ( 'NONE', #309, #427, #71, .T. ) ;
#412 = DIRECTION ( 'NONE',  ( 1.000000000000000000, 0.000000000000000000, 0.000000000000000000 ) ) ;
#413 = CIRCLE ( 'NONE', #367, 10.00000000000000000 ) ;
#414 = CIRCLE ( 'NONE', #64, 30.00000000000000000 ) ;
#415 = ORIENTED_EDGE ( 'NONE', *, *, #463, .T. ) ;
#416 = DIRECTION ( 'NONE',  ( -1.000000000000000000, 0.000000000000000000, 0.000000000000000000 ) ) ;
#417 = CARTESIAN_POINT ( 'NONE',  ( 175.0000000000000000, 120.0000000000000000, 0.000000000000000000 ) ) ;
#418 = VERTEX_POINT ( 'NONE', #372 ) ;
#419 = EDGE_CURVE ( 'NONE', #105, #309, #365, .T. ) ;
#420 = CARTESIAN_POINT ( 'NONE',  ( 176.0000002000000165, 145.0000000000000000, 10.00000000000000000 ) ) ;
#421 = AXIS2_PLACEMENT_3D ( 'NONE', #292, #122, #188 ) ;
#422 = ORIENTED_EDGE ( 'NONE', *, *, #252, .F. ) ;
#423 = VECTOR ( 'NONE', #216, 1000.000000000000000 ) ;
#424 =( LENGTH_UNIT ( ) NAMED_UNIT ( * ) SI_UNIT ( .MILLI., .METRE. ) );
#425 = ORIENTED_EDGE ( 'NONE', *, *, #95, .T. ) ;
#426 = CARTESIAN_POINT ( 'NONE',  ( 176.0000002000000165, 145.0000000000000000, 20.00000000000000000 ) ) ;
#427 = VERTEX_POINT ( 'NONE', #82 ) ;
#428 = CARTESIAN_POINT ( 'NONE',  ( 67.50000000000000000, 50.00000000000000000, 0.000000000000000000 ) ) ;
#429 = EDGE_CURVE ( 'NONE', #392, #79, #294, .T. ) ;
#430 = VERTEX_POINT ( 'NONE', #49 ) ;
#431 = VECTOR ( 'NONE', #456, 1000.000000000000000 ) ;
#432 = DIRECTION ( 'NONE',  ( 0.000000000000000000, -1.000000000000000000, 0.000000000000000000 ) ) ;
#433 = VERTEX_POINT ( 'NONE', #255 ) ;
#434 = CARTESIAN_POINT ( 'NONE',  ( 176.0000002000000165, 145.0000000000000000, 0.000000000000000000 ) ) ;
#435 = DIRECTION ( 'NONE',  ( 0.000000000000000000, -1.000000000000000000, 0.000000000000000000 ) ) ;
#436 = DIRECTION ( 'NONE',  ( 0.000000000000000000, 0.000000000000000000, 1.000000000000000000 ) ) ;
#437 = ORIENTED_EDGE ( 'NONE', *, *, #333, .T. ) ;
#438 = AXIS2_PLACEMENT_3D ( 'NONE', #199, #134, #136 ) ;
#439 = CYLINDRICAL_SURFACE ( 'NONE', #116, 17.50000000000000000 ) ;
#440 = DIRECTION ( 'NONE',  ( 0.000000000000000000, 0.000000000000000000, -1.000000000000000000 ) ) ;
#441 = EDGE_CURVE ( 'NONE', #115, #176, #335, .T. ) ;
#442 = CARTESIAN_POINT ( 'NONE',  ( 20.00000000000000000, 155.0000000000000000, 80.00000000000000000 ) ) ;
#443 =( NAMED_UNIT ( * ) SI_UNIT ( $, .STERADIAN. ) SOLID_ANGLE_UNIT ( ) );
#444 = CARTESIAN_POINT ( 'NONE',  ( 50.00000000000000000, 20.00000000000000000, 10.00000000000000000 ) ) ;
#445 = AXIS2_PLACEMENT_3D ( 'NONE', #159, #16, #409 ) ;
#446 = AXIS2_PLACEMENT_3D ( 'NONE', #7, #253, #177 ) ;
#447 = CARTESIAN_POINT ( 'NONE',  ( 32.50000000000000000, 50.00000000000000000, 0.000000000000000000 ) ) ;
#448 = DIRECTION ( 'NONE',  ( 0.000000000000000000, 0.000000000000000000, -1.000000000000000000 ) ) ;
#449 = EDGE_CURVE ( 'NONE', #129, #399, #257, .T. ) ;
#450 = DIRECTION ( 'NONE',  ( 0.000000000000000000, 0.000000000000000000, -1.000000000000000000 ) ) ;
#451 = LINE ( 'NONE', #420, #26 ) ;
#452 = ORIENTED_EDGE ( 'NONE', *, *, #51, .T. ) ;
#453 = DIRECTION ( 'NONE',  ( -1.000000000000000000, 0.000000000000000000, 0.000000000000000000 ) ) ;
#454 = ADVANCED_FACE ( 'thickness_2', ( #227 ), #121, .T. ) ;
#455 = ORIENTED_EDGE ( 'NONE', *, *, #20, .F. ) ;
#456 = DIRECTION ( 'NONE',  ( 0.000000000000000000, 1.000000000000000000, 0.000000000000000000 ) ) ;
#457 = ORIENTED_EDGE ( 'NONE', *, *, #273, .F. ) ;
#458 = CARTESIAN_POINT ( 'NONE',  ( 20.00000000000000000, 50.00000000000000000, 0.000000000000000000 ) ) ;
#459 = EDGE_LOOP ( 'NONE', ( #289, #425, #415, #140, #171, #165 ) ) ;
#460 = VECTOR ( 'NONE', #181, 1000.000000000000000 ) ;
#461 = LINE ( 'NONE', #434, #271 ) ;
#462 = ORIENTED_EDGE ( 'NONE', *, *, #190, .F. ) ;
#463 = EDGE_CURVE ( 'NONE', #241, #135, #362, .T. ) ;
#464 = FACE_OUTER_BOUND ( 'NONE', #145, .T. ) ;
#465 = ORIENTED_EDGE ( 'NONE', *, *, #89, .F. ) ;
ENDSEC;
END-ISO-10303-21;
