ISO-10303-21;
HEADER;
/* Generated by software containing ST-Developer
 * from STEP Tools, Inc. (www.steptools.com) 
 */

FILE_DESCRIPTION(
/* description */ (''),
/* implementation_level */ '2;1');

FILE_NAME(
/* name */ 'contour_01.step',
/* time_stamp */ '2024-06-26T22:58:59+03:00',
/* author */ (''),
/* organization */ (''),
/* preprocessor_version */ 'ST-DEVELOPER v20',
/* originating_system */ 'Autodesk Translation Framework v12.14.0.127',

/* authorisation */ '');

FILE_SCHEMA (('AUTOMOTIVE_DESIGN { 1 0 10303 214 3 1 1 }'));
ENDSEC;

DATA;
#10=MECHANICAL_DESIGN_GEOMETRIC_PRESENTATION_REPRESENTATION('',(#13),#861);
#11=SHAPE_REPRESENTATION_RELATIONSHIP('SRR','None',#868,#12);
#12=ADVANCED_BREP_SHAPE_REPRESENTATION('',(#14),#860);
#13=STYLED_ITEM('',(#877),#14);
#14=MANIFOLD_SOLID_BREP('Body1',#509);
#15=CIRCLE('',#527,9.31694990624912);
#16=CIRCLE('',#528,9.31694990624912);
#17=CIRCLE('',#532,14.142135623731);
#18=CIRCLE('',#533,14.142135623731);
#19=CIRCLE('',#537,15.);
#20=CIRCLE('',#538,15.);
#21=CIRCLE('',#542,10.);
#22=CIRCLE('',#543,10.);
#23=CIRCLE('',#547,10.);
#24=CIRCLE('',#548,10.);
#25=CIRCLE('',#550,7.5);
#26=CIRCLE('',#551,7.5);
#27=CIRCLE('',#557,12.5);
#28=CIRCLE('',#558,12.5);
#29=CIRCLE('',#560,8.33333333333334);
#30=CIRCLE('',#561,8.33333333333334);
#31=CIRCLE('',#563,2.5);
#32=CIRCLE('',#564,2.5);
#33=CYLINDRICAL_SURFACE('',#526,9.31694990624912);
#34=CYLINDRICAL_SURFACE('',#531,14.142135623731);
#35=CYLINDRICAL_SURFACE('',#536,15.);
#36=CYLINDRICAL_SURFACE('',#541,10.);
#37=CYLINDRICAL_SURFACE('',#546,10.);
#38=CYLINDRICAL_SURFACE('',#549,7.5);
#39=CYLINDRICAL_SURFACE('',#556,12.5);
#40=CYLINDRICAL_SURFACE('',#559,8.33333333333334);
#41=CYLINDRICAL_SURFACE('',#562,2.5);
#42=FACE_OUTER_BOUND('',#68,.T.);
#43=FACE_OUTER_BOUND('',#69,.T.);
#44=FACE_OUTER_BOUND('',#70,.T.);
#45=FACE_OUTER_BOUND('',#71,.T.);
#46=FACE_OUTER_BOUND('',#72,.T.);
#47=FACE_OUTER_BOUND('',#73,.T.);
#48=FACE_OUTER_BOUND('',#74,.T.);
#49=FACE_OUTER_BOUND('',#75,.T.);
#50=FACE_OUTER_BOUND('',#76,.T.);
#51=FACE_OUTER_BOUND('',#77,.T.);
#52=FACE_OUTER_BOUND('',#78,.T.);
#53=FACE_OUTER_BOUND('',#79,.T.);
#54=FACE_OUTER_BOUND('',#80,.T.);
#55=FACE_OUTER_BOUND('',#81,.T.);
#56=FACE_OUTER_BOUND('',#82,.T.);
#57=FACE_OUTER_BOUND('',#83,.T.);
#58=FACE_OUTER_BOUND('',#84,.T.);
#59=FACE_OUTER_BOUND('',#85,.T.);
#60=FACE_OUTER_BOUND('',#86,.T.);
#61=FACE_OUTER_BOUND('',#87,.T.);
#62=FACE_OUTER_BOUND('',#88,.T.);
#63=FACE_OUTER_BOUND('',#89,.T.);
#64=FACE_OUTER_BOUND('',#90,.T.);
#65=FACE_OUTER_BOUND('',#91,.T.);
#66=FACE_OUTER_BOUND('',#92,.T.);
#67=FACE_OUTER_BOUND('',#93,.T.);
#68=EDGE_LOOP('',(#322,#323,#324,#325));
#69=EDGE_LOOP('',(#326,#327,#328,#329));
#70=EDGE_LOOP('',(#330,#331,#332,#333));
#71=EDGE_LOOP('',(#334,#335,#336,#337));
#72=EDGE_LOOP('',(#338,#339,#340,#341));
#73=EDGE_LOOP('',(#342,#343,#344,#345));
#74=EDGE_LOOP('',(#346,#347,#348,#349));
#75=EDGE_LOOP('',(#350,#351,#352,#353));
#76=EDGE_LOOP('',(#354,#355,#356,#357));
#77=EDGE_LOOP('',(#358,#359,#360,#361));
#78=EDGE_LOOP('',(#362,#363,#364,#365));
#79=EDGE_LOOP('',(#366,#367,#368,#369));
#80=EDGE_LOOP('',(#370,#371,#372,#373));
#81=EDGE_LOOP('',(#374,#375,#376,#377));
#82=EDGE_LOOP('',(#378,#379,#380,#381));
#83=EDGE_LOOP('',(#382,#383,#384,#385));
#84=EDGE_LOOP('',(#386,#387,#388,#389));
#85=EDGE_LOOP('',(#390,#391,#392,#393));
#86=EDGE_LOOP('',(#394,#395,#396,#397));
#87=EDGE_LOOP('',(#398,#399,#400,#401));
#88=EDGE_LOOP('',(#402,#403,#404,#405));
#89=EDGE_LOOP('',(#406,#407,#408,#409));
#90=EDGE_LOOP('',(#410,#411,#412,#413));
#91=EDGE_LOOP('',(#414,#415,#416,#417));
#92=EDGE_LOOP('',(#418,#419,#420,#421,#422,#423,#424,#425,#426,#427,#428,
#429,#430,#431,#432,#433,#434,#435,#436,#437,#438,#439,#440,#441));
#93=EDGE_LOOP('',(#442,#443,#444,#445,#446,#447,#448,#449,#450,#451,#452,
#453,#454,#455,#456,#457,#458,#459,#460,#461,#462,#463,#464,#465));
#94=LINE('',#715,#148);
#95=LINE('',#717,#149);
#96=LINE('',#719,#150);
#97=LINE('',#720,#151);
#98=LINE('',#723,#152);
#99=LINE('',#725,#153);
#100=LINE('',#726,#154);
#101=LINE('',#729,#155);
#102=LINE('',#731,#156);
#103=LINE('',#732,#157);
#104=LINE('',#738,#158);
#105=LINE('',#741,#159);
#106=LINE('',#743,#160);
#107=LINE('',#744,#161);
#108=LINE('',#747,#162);
#109=LINE('',#749,#163);
#110=LINE('',#750,#164);
#111=LINE('',#756,#165);
#112=LINE('',#759,#166);
#113=LINE('',#761,#167);
#114=LINE('',#762,#168);
#115=LINE('',#765,#169);
#116=LINE('',#767,#170);
#117=LINE('',#768,#171);
#118=LINE('',#774,#172);
#119=LINE('',#777,#173);
#120=LINE('',#779,#174);
#121=LINE('',#780,#175);
#122=LINE('',#783,#176);
#123=LINE('',#785,#177);
#124=LINE('',#786,#178);
#125=LINE('',#792,#179);
#126=LINE('',#795,#180);
#127=LINE('',#797,#181);
#128=LINE('',#798,#182);
#129=LINE('',#801,#183);
#130=LINE('',#803,#184);
#131=LINE('',#804,#185);
#132=LINE('',#810,#186);
#133=LINE('',#816,#187);
#134=LINE('',#819,#188);
#135=LINE('',#821,#189);
#136=LINE('',#822,#190);
#137=LINE('',#825,#191);
#138=LINE('',#827,#192);
#139=LINE('',#828,#193);
#140=LINE('',#831,#194);
#141=LINE('',#833,#195);
#142=LINE('',#834,#196);
#143=LINE('',#837,#197);
#144=LINE('',#839,#198);
#145=LINE('',#840,#199);
#146=LINE('',#846,#200);
#147=LINE('',#852,#201);
#148=VECTOR('',#571,10.);
#149=VECTOR('',#572,10.);
#150=VECTOR('',#573,10.);
#151=VECTOR('',#574,10.);
#152=VECTOR('',#577,10.);
#153=VECTOR('',#578,10.);
#154=VECTOR('',#579,10.);
#155=VECTOR('',#582,10.);
#156=VECTOR('',#583,10.);
#157=VECTOR('',#584,10.);
#158=VECTOR('',#591,10.);
#159=VECTOR('',#594,10.);
#160=VECTOR('',#595,10.);
#161=VECTOR('',#596,10.);
#162=VECTOR('',#599,10.);
#163=VECTOR('',#600,10.);
#164=VECTOR('',#601,10.);
#165=VECTOR('',#608,10.);
#166=VECTOR('',#611,10.);
#167=VECTOR('',#612,10.);
#168=VECTOR('',#613,10.);
#169=VECTOR('',#616,10.);
#170=VECTOR('',#617,10.);
#171=VECTOR('',#618,10.);
#172=VECTOR('',#625,10.);
#173=VECTOR('',#628,10.);
#174=VECTOR('',#629,10.);
#175=VECTOR('',#630,10.);
#176=VECTOR('',#633,10.);
#177=VECTOR('',#634,10.);
#178=VECTOR('',#635,10.);
#179=VECTOR('',#642,10.);
#180=VECTOR('',#645,10.);
#181=VECTOR('',#646,10.);
#182=VECTOR('',#647,10.);
#183=VECTOR('',#650,10.);
#184=VECTOR('',#651,10.);
#185=VECTOR('',#652,10.);
#186=VECTOR('',#659,10.);
#187=VECTOR('',#666,10.);
#188=VECTOR('',#669,10.);
#189=VECTOR('',#670,10.);
#190=VECTOR('',#671,10.);
#191=VECTOR('',#674,10.);
#192=VECTOR('',#675,10.);
#193=VECTOR('',#676,10.);
#194=VECTOR('',#679,10.);
#195=VECTOR('',#680,10.);
#196=VECTOR('',#681,10.);
#197=VECTOR('',#684,10.);
#198=VECTOR('',#685,10.);
#199=VECTOR('',#686,10.);
#200=VECTOR('',#693,10.);
#201=VECTOR('',#700,10.);
#202=VERTEX_POINT('',#713);
#203=VERTEX_POINT('',#714);
#204=VERTEX_POINT('',#716);
#205=VERTEX_POINT('',#718);
#206=VERTEX_POINT('',#722);
#207=VERTEX_POINT('',#724);
#208=VERTEX_POINT('',#728);
#209=VERTEX_POINT('',#730);
#210=VERTEX_POINT('',#734);
#211=VERTEX_POINT('',#736);
#212=VERTEX_POINT('',#740);
#213=VERTEX_POINT('',#742);
#214=VERTEX_POINT('',#746);
#215=VERTEX_POINT('',#748);
#216=VERTEX_POINT('',#752);
#217=VERTEX_POINT('',#754);
#218=VERTEX_POINT('',#758);
#219=VERTEX_POINT('',#760);
#220=VERTEX_POINT('',#764);
#221=VERTEX_POINT('',#766);
#222=VERTEX_POINT('',#770);
#223=VERTEX_POINT('',#772);
#224=VERTEX_POINT('',#776);
#225=VERTEX_POINT('',#778);
#226=VERTEX_POINT('',#782);
#227=VERTEX_POINT('',#784);
#228=VERTEX_POINT('',#788);
#229=VERTEX_POINT('',#790);
#230=VERTEX_POINT('',#794);
#231=VERTEX_POINT('',#796);
#232=VERTEX_POINT('',#800);
#233=VERTEX_POINT('',#802);
#234=VERTEX_POINT('',#806);
#235=VERTEX_POINT('',#808);
#236=VERTEX_POINT('',#812);
#237=VERTEX_POINT('',#814);
#238=VERTEX_POINT('',#818);
#239=VERTEX_POINT('',#820);
#240=VERTEX_POINT('',#824);
#241=VERTEX_POINT('',#826);
#242=VERTEX_POINT('',#830);
#243=VERTEX_POINT('',#832);
#244=VERTEX_POINT('',#836);
#245=VERTEX_POINT('',#838);
#246=VERTEX_POINT('',#842);
#247=VERTEX_POINT('',#844);
#248=VERTEX_POINT('',#848);
#249=VERTEX_POINT('',#850);
#250=EDGE_CURVE('',#202,#203,#94,.T.);
#251=EDGE_CURVE('',#202,#204,#95,.T.);
#252=EDGE_CURVE('',#205,#204,#96,.T.);
#253=EDGE_CURVE('',#203,#205,#97,.T.);
#254=EDGE_CURVE('',#203,#206,#98,.T.);
#255=EDGE_CURVE('',#207,#205,#99,.T.);
#256=EDGE_CURVE('',#206,#207,#100,.T.);
#257=EDGE_CURVE('',#206,#208,#101,.T.);
#258=EDGE_CURVE('',#209,#207,#102,.T.);
#259=EDGE_CURVE('',#208,#209,#103,.T.);
#260=EDGE_CURVE('',#208,#210,#15,.T.);
#261=EDGE_CURVE('',#211,#209,#16,.T.);
#262=EDGE_CURVE('',#210,#211,#104,.T.);
#263=EDGE_CURVE('',#210,#212,#105,.T.);
#264=EDGE_CURVE('',#213,#211,#106,.T.);
#265=EDGE_CURVE('',#212,#213,#107,.T.);
#266=EDGE_CURVE('',#212,#214,#108,.T.);
#267=EDGE_CURVE('',#215,#213,#109,.T.);
#268=EDGE_CURVE('',#214,#215,#110,.T.);
#269=EDGE_CURVE('',#214,#216,#17,.T.);
#270=EDGE_CURVE('',#217,#215,#18,.T.);
#271=EDGE_CURVE('',#216,#217,#111,.T.);
#272=EDGE_CURVE('',#216,#218,#112,.T.);
#273=EDGE_CURVE('',#219,#217,#113,.T.);
#274=EDGE_CURVE('',#218,#219,#114,.T.);
#275=EDGE_CURVE('',#218,#220,#115,.T.);
#276=EDGE_CURVE('',#221,#219,#116,.T.);
#277=EDGE_CURVE('',#220,#221,#117,.T.);
#278=EDGE_CURVE('',#220,#222,#19,.T.);
#279=EDGE_CURVE('',#223,#221,#20,.T.);
#280=EDGE_CURVE('',#222,#223,#118,.T.);
#281=EDGE_CURVE('',#222,#224,#119,.T.);
#282=EDGE_CURVE('',#225,#223,#120,.T.);
#283=EDGE_CURVE('',#224,#225,#121,.T.);
#284=EDGE_CURVE('',#224,#226,#122,.T.);
#285=EDGE_CURVE('',#227,#225,#123,.T.);
#286=EDGE_CURVE('',#226,#227,#124,.T.);
#287=EDGE_CURVE('',#226,#228,#21,.T.);
#288=EDGE_CURVE('',#229,#227,#22,.T.);
#289=EDGE_CURVE('',#228,#229,#125,.T.);
#290=EDGE_CURVE('',#228,#230,#126,.T.);
#291=EDGE_CURVE('',#231,#229,#127,.T.);
#292=EDGE_CURVE('',#230,#231,#128,.T.);
#293=EDGE_CURVE('',#230,#232,#129,.T.);
#294=EDGE_CURVE('',#233,#231,#130,.T.);
#295=EDGE_CURVE('',#232,#233,#131,.T.);
#296=EDGE_CURVE('',#234,#232,#23,.T.);
#297=EDGE_CURVE('',#235,#233,#24,.T.);
#298=EDGE_CURVE('',#234,#235,#132,.T.);
#299=EDGE_CURVE('',#234,#236,#25,.T.);
#300=EDGE_CURVE('',#237,#235,#26,.T.);
#301=EDGE_CURVE('',#236,#237,#133,.T.);
#302=EDGE_CURVE('',#236,#238,#134,.T.);
#303=EDGE_CURVE('',#239,#237,#135,.T.);
#304=EDGE_CURVE('',#238,#239,#136,.T.);
#305=EDGE_CURVE('',#238,#240,#137,.T.);
#306=EDGE_CURVE('',#241,#239,#138,.T.);
#307=EDGE_CURVE('',#240,#241,#139,.T.);
#308=EDGE_CURVE('',#240,#242,#140,.T.);
#309=EDGE_CURVE('',#243,#241,#141,.T.);
#310=EDGE_CURVE('',#242,#243,#142,.T.);
#311=EDGE_CURVE('',#242,#244,#143,.T.);
#312=EDGE_CURVE('',#245,#243,#144,.T.);
#313=EDGE_CURVE('',#244,#245,#145,.T.);
#314=EDGE_CURVE('',#246,#244,#27,.T.);
#315=EDGE_CURVE('',#247,#245,#28,.T.);
#316=EDGE_CURVE('',#246,#247,#146,.T.);
#317=EDGE_CURVE('',#246,#248,#29,.T.);
#318=EDGE_CURVE('',#249,#247,#30,.T.);
#319=EDGE_CURVE('',#248,#249,#147,.T.);
#320=EDGE_CURVE('',#202,#248,#31,.T.);
#321=EDGE_CURVE('',#204,#249,#32,.T.);
#322=ORIENTED_EDGE('',*,*,#250,.F.);
#323=ORIENTED_EDGE('',*,*,#251,.T.);
#324=ORIENTED_EDGE('',*,*,#252,.F.);
#325=ORIENTED_EDGE('',*,*,#253,.F.);
#326=ORIENTED_EDGE('',*,*,#254,.F.);
#327=ORIENTED_EDGE('',*,*,#253,.T.);
#328=ORIENTED_EDGE('',*,*,#255,.F.);
#329=ORIENTED_EDGE('',*,*,#256,.F.);
#330=ORIENTED_EDGE('',*,*,#257,.F.);
#331=ORIENTED_EDGE('',*,*,#256,.T.);
#332=ORIENTED_EDGE('',*,*,#258,.F.);
#333=ORIENTED_EDGE('',*,*,#259,.F.);
#334=ORIENTED_EDGE('',*,*,#260,.F.);
#335=ORIENTED_EDGE('',*,*,#259,.T.);
#336=ORIENTED_EDGE('',*,*,#261,.F.);
#337=ORIENTED_EDGE('',*,*,#262,.F.);
#338=ORIENTED_EDGE('',*,*,#263,.F.);
#339=ORIENTED_EDGE('',*,*,#262,.T.);
#340=ORIENTED_EDGE('',*,*,#264,.F.);
#341=ORIENTED_EDGE('',*,*,#265,.F.);
#342=ORIENTED_EDGE('',*,*,#266,.F.);
#343=ORIENTED_EDGE('',*,*,#265,.T.);
#344=ORIENTED_EDGE('',*,*,#267,.F.);
#345=ORIENTED_EDGE('',*,*,#268,.F.);
#346=ORIENTED_EDGE('',*,*,#269,.F.);
#347=ORIENTED_EDGE('',*,*,#268,.T.);
#348=ORIENTED_EDGE('',*,*,#270,.F.);
#349=ORIENTED_EDGE('',*,*,#271,.F.);
#350=ORIENTED_EDGE('',*,*,#272,.F.);
#351=ORIENTED_EDGE('',*,*,#271,.T.);
#352=ORIENTED_EDGE('',*,*,#273,.F.);
#353=ORIENTED_EDGE('',*,*,#274,.F.);
#354=ORIENTED_EDGE('',*,*,#275,.F.);
#355=ORIENTED_EDGE('',*,*,#274,.T.);
#356=ORIENTED_EDGE('',*,*,#276,.F.);
#357=ORIENTED_EDGE('',*,*,#277,.F.);
#358=ORIENTED_EDGE('',*,*,#278,.F.);
#359=ORIENTED_EDGE('',*,*,#277,.T.);
#360=ORIENTED_EDGE('',*,*,#279,.F.);
#361=ORIENTED_EDGE('',*,*,#280,.F.);
#362=ORIENTED_EDGE('',*,*,#281,.F.);
#363=ORIENTED_EDGE('',*,*,#280,.T.);
#364=ORIENTED_EDGE('',*,*,#282,.F.);
#365=ORIENTED_EDGE('',*,*,#283,.F.);
#366=ORIENTED_EDGE('',*,*,#284,.F.);
#367=ORIENTED_EDGE('',*,*,#283,.T.);
#368=ORIENTED_EDGE('',*,*,#285,.F.);
#369=ORIENTED_EDGE('',*,*,#286,.F.);
#370=ORIENTED_EDGE('',*,*,#287,.F.);
#371=ORIENTED_EDGE('',*,*,#286,.T.);
#372=ORIENTED_EDGE('',*,*,#288,.F.);
#373=ORIENTED_EDGE('',*,*,#289,.F.);
#374=ORIENTED_EDGE('',*,*,#290,.F.);
#375=ORIENTED_EDGE('',*,*,#289,.T.);
#376=ORIENTED_EDGE('',*,*,#291,.F.);
#377=ORIENTED_EDGE('',*,*,#292,.F.);
#378=ORIENTED_EDGE('',*,*,#293,.F.);
#379=ORIENTED_EDGE('',*,*,#292,.T.);
#380=ORIENTED_EDGE('',*,*,#294,.F.);
#381=ORIENTED_EDGE('',*,*,#295,.F.);
#382=ORIENTED_EDGE('',*,*,#296,.T.);
#383=ORIENTED_EDGE('',*,*,#295,.T.);
#384=ORIENTED_EDGE('',*,*,#297,.F.);
#385=ORIENTED_EDGE('',*,*,#298,.F.);
#386=ORIENTED_EDGE('',*,*,#299,.F.);
#387=ORIENTED_EDGE('',*,*,#298,.T.);
#388=ORIENTED_EDGE('',*,*,#300,.F.);
#389=ORIENTED_EDGE('',*,*,#301,.F.);
#390=ORIENTED_EDGE('',*,*,#302,.F.);
#391=ORIENTED_EDGE('',*,*,#301,.T.);
#392=ORIENTED_EDGE('',*,*,#303,.F.);
#393=ORIENTED_EDGE('',*,*,#304,.F.);
#394=ORIENTED_EDGE('',*,*,#305,.F.);
#395=ORIENTED_EDGE('',*,*,#304,.T.);
#396=ORIENTED_EDGE('',*,*,#306,.F.);
#397=ORIENTED_EDGE('',*,*,#307,.F.);
#398=ORIENTED_EDGE('',*,*,#308,.F.);
#399=ORIENTED_EDGE('',*,*,#307,.T.);
#400=ORIENTED_EDGE('',*,*,#309,.F.);
#401=ORIENTED_EDGE('',*,*,#310,.F.);
#402=ORIENTED_EDGE('',*,*,#311,.F.);
#403=ORIENTED_EDGE('',*,*,#310,.T.);
#404=ORIENTED_EDGE('',*,*,#312,.F.);
#405=ORIENTED_EDGE('',*,*,#313,.F.);
#406=ORIENTED_EDGE('',*,*,#314,.T.);
#407=ORIENTED_EDGE('',*,*,#313,.T.);
#408=ORIENTED_EDGE('',*,*,#315,.F.);
#409=ORIENTED_EDGE('',*,*,#316,.F.);
#410=ORIENTED_EDGE('',*,*,#317,.F.);
#411=ORIENTED_EDGE('',*,*,#316,.T.);
#412=ORIENTED_EDGE('',*,*,#318,.F.);
#413=ORIENTED_EDGE('',*,*,#319,.F.);
#414=ORIENTED_EDGE('',*,*,#320,.T.);
#415=ORIENTED_EDGE('',*,*,#319,.T.);
#416=ORIENTED_EDGE('',*,*,#321,.F.);
#417=ORIENTED_EDGE('',*,*,#251,.F.);
#418=ORIENTED_EDGE('',*,*,#321,.T.);
#419=ORIENTED_EDGE('',*,*,#318,.T.);
#420=ORIENTED_EDGE('',*,*,#315,.T.);
#421=ORIENTED_EDGE('',*,*,#312,.T.);
#422=ORIENTED_EDGE('',*,*,#309,.T.);
#423=ORIENTED_EDGE('',*,*,#306,.T.);
#424=ORIENTED_EDGE('',*,*,#303,.T.);
#425=ORIENTED_EDGE('',*,*,#300,.T.);
#426=ORIENTED_EDGE('',*,*,#297,.T.);
#427=ORIENTED_EDGE('',*,*,#294,.T.);
#428=ORIENTED_EDGE('',*,*,#291,.T.);
#429=ORIENTED_EDGE('',*,*,#288,.T.);
#430=ORIENTED_EDGE('',*,*,#285,.T.);
#431=ORIENTED_EDGE('',*,*,#282,.T.);
#432=ORIENTED_EDGE('',*,*,#279,.T.);
#433=ORIENTED_EDGE('',*,*,#276,.T.);
#434=ORIENTED_EDGE('',*,*,#273,.T.);
#435=ORIENTED_EDGE('',*,*,#270,.T.);
#436=ORIENTED_EDGE('',*,*,#267,.T.);
#437=ORIENTED_EDGE('',*,*,#264,.T.);
#438=ORIENTED_EDGE('',*,*,#261,.T.);
#439=ORIENTED_EDGE('',*,*,#258,.T.);
#440=ORIENTED_EDGE('',*,*,#255,.T.);
#441=ORIENTED_EDGE('',*,*,#252,.T.);
#442=ORIENTED_EDGE('',*,*,#320,.F.);
#443=ORIENTED_EDGE('',*,*,#250,.T.);
#444=ORIENTED_EDGE('',*,*,#254,.T.);
#445=ORIENTED_EDGE('',*,*,#257,.T.);
#446=ORIENTED_EDGE('',*,*,#260,.T.);
#447=ORIENTED_EDGE('',*,*,#263,.T.);
#448=ORIENTED_EDGE('',*,*,#266,.T.);
#449=ORIENTED_EDGE('',*,*,#269,.T.);
#450=ORIENTED_EDGE('',*,*,#272,.T.);
#451=ORIENTED_EDGE('',*,*,#275,.T.);
#452=ORIENTED_EDGE('',*,*,#278,.T.);
#453=ORIENTED_EDGE('',*,*,#281,.T.);
#454=ORIENTED_EDGE('',*,*,#284,.T.);
#455=ORIENTED_EDGE('',*,*,#287,.T.);
#456=ORIENTED_EDGE('',*,*,#290,.T.);
#457=ORIENTED_EDGE('',*,*,#293,.T.);
#458=ORIENTED_EDGE('',*,*,#296,.F.);
#459=ORIENTED_EDGE('',*,*,#299,.T.);
#460=ORIENTED_EDGE('',*,*,#302,.T.);
#461=ORIENTED_EDGE('',*,*,#305,.T.);
#462=ORIENTED_EDGE('',*,*,#308,.T.);
#463=ORIENTED_EDGE('',*,*,#311,.T.);
#464=ORIENTED_EDGE('',*,*,#314,.F.);
#465=ORIENTED_EDGE('',*,*,#317,.T.);
#466=PLANE('',#523);
#467=PLANE('',#524);
#468=PLANE('',#525);
#469=PLANE('',#529);
#470=PLANE('',#530);
#471=PLANE('',#534);
#472=PLANE('',#535);
#473=PLANE('',#539);
#474=PLANE('',#540);
#475=PLANE('',#544);
#476=PLANE('',#545);
#477=PLANE('',#552);
#478=PLANE('',#553);
#479=PLANE('',#554);
#480=PLANE('',#555);
#481=PLANE('',#565);
#482=PLANE('',#566);
#483=ADVANCED_FACE('',(#42),#466,.T.);
#484=ADVANCED_FACE('',(#43),#467,.T.);
#485=ADVANCED_FACE('',(#44),#468,.T.);
#486=ADVANCED_FACE('',(#45),#33,.F.);
#487=ADVANCED_FACE('',(#46),#469,.T.);
#488=ADVANCED_FACE('',(#47),#470,.T.);
#489=ADVANCED_FACE('',(#48),#34,.F.);
#490=ADVANCED_FACE('',(#49),#471,.T.);
#491=ADVANCED_FACE('',(#50),#472,.T.);
#492=ADVANCED_FACE('',(#51),#35,.F.);
#493=ADVANCED_FACE('',(#52),#473,.T.);
#494=ADVANCED_FACE('',(#53),#474,.T.);
#495=ADVANCED_FACE('',(#54),#36,.F.);
#496=ADVANCED_FACE('',(#55),#475,.T.);
#497=ADVANCED_FACE('',(#56),#476,.T.);
#498=ADVANCED_FACE('',(#57),#37,.T.);
#499=ADVANCED_FACE('',(#58),#38,.F.);
#500=ADVANCED_FACE('',(#59),#477,.T.);
#501=ADVANCED_FACE('',(#60),#478,.T.);
#502=ADVANCED_FACE('',(#61),#479,.T.);
#503=ADVANCED_FACE('',(#62),#480,.T.);
#504=ADVANCED_FACE('',(#63),#39,.T.);
#505=ADVANCED_FACE('',(#64),#40,.F.);
#506=ADVANCED_FACE('',(#65),#41,.T.);
#507=ADVANCED_FACE('',(#66),#481,.T.);
#508=ADVANCED_FACE('',(#67),#482,.F.);
#509=CLOSED_SHELL('',(#483,#484,#485,#486,#487,#488,#489,#490,#491,#492,
#493,#494,#495,#496,#497,#498,#499,#500,#501,#502,#503,#504,#505,#506,#507,
#508));
#510=DERIVED_UNIT_ELEMENT(#512,1.);
#511=DERIVED_UNIT_ELEMENT(#863,-3.);
#512=(
MASS_UNIT()
NAMED_UNIT(*)
SI_UNIT(.KILO.,.GRAM.)
);
#513=DERIVED_UNIT((#510,#511));
#514=MEASURE_REPRESENTATION_ITEM('density measure',
POSITIVE_RATIO_MEASURE(7850.),#513);
#515=PROPERTY_DEFINITION_REPRESENTATION(#520,#517);
#516=PROPERTY_DEFINITION_REPRESENTATION(#521,#518);
#517=REPRESENTATION('material name',(#519),#860);
#518=REPRESENTATION('density',(#514),#860);
#519=DESCRIPTIVE_REPRESENTATION_ITEM('Steel','Steel');
#520=PROPERTY_DEFINITION('material property','material name',#870);
#521=PROPERTY_DEFINITION('material property','density of part',#870);
#522=AXIS2_PLACEMENT_3D('',#711,#567,#568);
#523=AXIS2_PLACEMENT_3D('',#712,#569,#570);
#524=AXIS2_PLACEMENT_3D('',#721,#575,#576);
#525=AXIS2_PLACEMENT_3D('',#727,#580,#581);
#526=AXIS2_PLACEMENT_3D('',#733,#585,#586);
#527=AXIS2_PLACEMENT_3D('',#735,#587,#588);
#528=AXIS2_PLACEMENT_3D('',#737,#589,#590);
#529=AXIS2_PLACEMENT_3D('',#739,#592,#593);
#530=AXIS2_PLACEMENT_3D('',#745,#597,#598);
#531=AXIS2_PLACEMENT_3D('',#751,#602,#603);
#532=AXIS2_PLACEMENT_3D('',#753,#604,#605);
#533=AXIS2_PLACEMENT_3D('',#755,#606,#607);
#534=AXIS2_PLACEMENT_3D('',#757,#609,#610);
#535=AXIS2_PLACEMENT_3D('',#763,#614,#615);
#536=AXIS2_PLACEMENT_3D('',#769,#619,#620);
#537=AXIS2_PLACEMENT_3D('',#771,#621,#622);
#538=AXIS2_PLACEMENT_3D('',#773,#623,#624);
#539=AXIS2_PLACEMENT_3D('',#775,#626,#627);
#540=AXIS2_PLACEMENT_3D('',#781,#631,#632);
#541=AXIS2_PLACEMENT_3D('',#787,#636,#637);
#542=AXIS2_PLACEMENT_3D('',#789,#638,#639);
#543=AXIS2_PLACEMENT_3D('',#791,#640,#641);
#544=AXIS2_PLACEMENT_3D('',#793,#643,#644);
#545=AXIS2_PLACEMENT_3D('',#799,#648,#649);
#546=AXIS2_PLACEMENT_3D('',#805,#653,#654);
#547=AXIS2_PLACEMENT_3D('',#807,#655,#656);
#548=AXIS2_PLACEMENT_3D('',#809,#657,#658);
#549=AXIS2_PLACEMENT_3D('',#811,#660,#661);
#550=AXIS2_PLACEMENT_3D('',#813,#662,#663);
#551=AXIS2_PLACEMENT_3D('',#815,#664,#665);
#552=AXIS2_PLACEMENT_3D('',#817,#667,#668);
#553=AXIS2_PLACEMENT_3D('',#823,#672,#673);
#554=AXIS2_PLACEMENT_3D('',#829,#677,#678);
#555=AXIS2_PLACEMENT_3D('',#835,#682,#683);
#556=AXIS2_PLACEMENT_3D('',#841,#687,#688);
#557=AXIS2_PLACEMENT_3D('',#843,#689,#690);
#558=AXIS2_PLACEMENT_3D('',#845,#691,#692);
#559=AXIS2_PLACEMENT_3D('',#847,#694,#695);
#560=AXIS2_PLACEMENT_3D('',#849,#696,#697);
#561=AXIS2_PLACEMENT_3D('',#851,#698,#699);
#562=AXIS2_PLACEMENT_3D('',#853,#701,#702);
#563=AXIS2_PLACEMENT_3D('',#854,#703,#704);
#564=AXIS2_PLACEMENT_3D('',#855,#705,#706);
#565=AXIS2_PLACEMENT_3D('',#856,#707,#708);
#566=AXIS2_PLACEMENT_3D('',#857,#709,#710);
#567=DIRECTION('axis',(0.,0.,1.));
#568=DIRECTION('refdir',(1.,0.,0.));
#569=DIRECTION('center_axis',(0.,-1.,0.));
#570=DIRECTION('ref_axis',(1.,0.,0.));
#571=DIRECTION('',(-1.,0.,0.));
#572=DIRECTION('',(0.,0.,1.));
#573=DIRECTION('',(1.,0.,0.));
#574=DIRECTION('',(0.,0.,1.));
#575=DIRECTION('center_axis',(-1.,0.,0.));
#576=DIRECTION('ref_axis',(0.,-1.,0.));
#577=DIRECTION('',(0.,1.,0.));
#578=DIRECTION('',(0.,-1.,0.));
#579=DIRECTION('',(0.,0.,1.));
#580=DIRECTION('center_axis',(-0.447213595499958,0.894427190999916,0.));
#581=DIRECTION('ref_axis',(-0.894427190999916,-0.447213595499958,0.));
#582=DIRECTION('',(0.894427190999916,0.447213595499958,0.));
#583=DIRECTION('',(-0.894427190999916,-0.447213595499958,0.));
#584=DIRECTION('',(0.,0.,1.));
#585=DIRECTION('center_axis',(0.,0.,1.));
#586=DIRECTION('ref_axis',(0.447213595499958,-0.894427190999916,0.));
#587=DIRECTION('center_axis',(0.,0.,1.));
#588=DIRECTION('ref_axis',(0.447213595499958,-0.894427190999916,0.));
#589=DIRECTION('center_axis',(0.,0.,-1.));
#590=DIRECTION('ref_axis',(0.447213595499958,-0.894427190999916,0.));
#591=DIRECTION('',(0.,0.,1.));
#592=DIRECTION('center_axis',(0.,-1.,0.));
#593=DIRECTION('ref_axis',(1.,0.,0.));
#594=DIRECTION('',(-1.,0.,0.));
#595=DIRECTION('',(1.,0.,0.));
#596=DIRECTION('',(0.,0.,1.));
#597=DIRECTION('center_axis',(-0.707106781186548,-0.707106781186548,0.));
#598=DIRECTION('ref_axis',(0.707106781186548,-0.707106781186548,0.));
#599=DIRECTION('',(-0.707106781186547,0.707106781186547,0.));
#600=DIRECTION('',(0.707106781186547,-0.707106781186547,0.));
#601=DIRECTION('',(0.,0.,1.));
#602=DIRECTION('center_axis',(0.,0.,1.));
#603=DIRECTION('ref_axis',(0.707106781186548,0.707106781186548,0.));
#604=DIRECTION('center_axis',(0.,0.,1.));
#605=DIRECTION('ref_axis',(0.707106781186548,0.707106781186548,0.));
#606=DIRECTION('center_axis',(0.,0.,-1.));
#607=DIRECTION('ref_axis',(0.707106781186548,0.707106781186548,0.));
#608=DIRECTION('',(0.,0.,1.));
#609=DIRECTION('center_axis',(-1.,0.,0.));
#610=DIRECTION('ref_axis',(0.,-1.,0.));
#611=DIRECTION('',(0.,1.,0.));
#612=DIRECTION('',(0.,-1.,0.));
#613=DIRECTION('',(0.,0.,1.));
#614=DIRECTION('center_axis',(0.,1.,0.));
#615=DIRECTION('ref_axis',(-1.,0.,0.));
#616=DIRECTION('',(1.,0.,0.));
#617=DIRECTION('',(-1.,0.,0.));
#618=DIRECTION('',(0.,0.,1.));
#619=DIRECTION('center_axis',(0.,0.,1.));
#620=DIRECTION('ref_axis',(0.,-1.,0.));
#621=DIRECTION('center_axis',(0.,0.,1.));
#622=DIRECTION('ref_axis',(0.,-1.,0.));
#623=DIRECTION('center_axis',(0.,0.,-1.));
#624=DIRECTION('ref_axis',(0.,-1.,0.));
#625=DIRECTION('',(0.,0.,1.));
#626=DIRECTION('center_axis',(-1.,0.,0.));
#627=DIRECTION('ref_axis',(0.,-1.,0.));
#628=DIRECTION('',(0.,1.,0.));
#629=DIRECTION('',(0.,-1.,0.));
#630=DIRECTION('',(0.,0.,1.));
#631=DIRECTION('center_axis',(0.,1.,0.));
#632=DIRECTION('ref_axis',(-1.,0.,0.));
#633=DIRECTION('',(1.,0.,0.));
#634=DIRECTION('',(-1.,0.,0.));
#635=DIRECTION('',(0.,0.,1.));
#636=DIRECTION('center_axis',(0.,0.,1.));
#637=DIRECTION('ref_axis',(0.,-1.,0.));
#638=DIRECTION('center_axis',(0.,0.,1.));
#639=DIRECTION('ref_axis',(0.,-1.,0.));
#640=DIRECTION('center_axis',(0.,0.,-1.));
#641=DIRECTION('ref_axis',(0.,-1.,0.));
#642=DIRECTION('',(0.,0.,1.));
#643=DIRECTION('center_axis',(0.,1.,0.));
#644=DIRECTION('ref_axis',(-1.,0.,0.));
#645=DIRECTION('',(1.,0.,0.));
#646=DIRECTION('',(-1.,0.,0.));
#647=DIRECTION('',(0.,0.,1.));
#648=DIRECTION('center_axis',(1.,0.,0.));
#649=DIRECTION('ref_axis',(0.,1.,0.));
#650=DIRECTION('',(0.,-1.,0.));
#651=DIRECTION('',(0.,1.,0.));
#652=DIRECTION('',(0.,0.,1.));
#653=DIRECTION('center_axis',(0.,0.,1.));
#654=DIRECTION('ref_axis',(0.,-1.,0.));
#655=DIRECTION('center_axis',(0.,0.,1.));
#656=DIRECTION('ref_axis',(0.,-1.,0.));
#657=DIRECTION('center_axis',(0.,0.,1.));
#658=DIRECTION('ref_axis',(0.,-1.,0.));
#659=DIRECTION('',(0.,0.,1.));
#660=DIRECTION('center_axis',(0.,0.,1.));
#661=DIRECTION('ref_axis',(0.,1.,0.));
#662=DIRECTION('center_axis',(0.,0.,1.));
#663=DIRECTION('ref_axis',(0.,1.,0.));
#664=DIRECTION('center_axis',(0.,0.,-1.));
#665=DIRECTION('ref_axis',(0.,1.,0.));
#666=DIRECTION('',(0.,0.,1.));
#667=DIRECTION('center_axis',(1.,0.,0.));
#668=DIRECTION('ref_axis',(0.,1.,0.));
#669=DIRECTION('',(0.,-1.,0.));
#670=DIRECTION('',(0.,1.,0.));
#671=DIRECTION('',(0.,0.,1.));
#672=DIRECTION('center_axis',(0.,1.,0.));
#673=DIRECTION('ref_axis',(-1.,0.,0.));
#674=DIRECTION('',(1.,0.,0.));
#675=DIRECTION('',(-1.,0.,0.));
#676=DIRECTION('',(0.,0.,1.));
#677=DIRECTION('center_axis',(0.707106781186548,0.707106781186548,0.));
#678=DIRECTION('ref_axis',(-0.707106781186548,0.707106781186548,0.));
#679=DIRECTION('',(0.707106781186547,-0.707106781186547,0.));
#680=DIRECTION('',(-0.707106781186547,0.707106781186547,0.));
#681=DIRECTION('',(0.,0.,1.));
#682=DIRECTION('center_axis',(1.,0.,0.));
#683=DIRECTION('ref_axis',(0.,1.,0.));
#684=DIRECTION('',(0.,-1.,0.));
#685=DIRECTION('',(0.,1.,0.));
#686=DIRECTION('',(0.,0.,1.));
#687=DIRECTION('center_axis',(0.,0.,1.));
#688=DIRECTION('ref_axis',(0.6,-0.8,0.));
#689=DIRECTION('center_axis',(0.,0.,1.));
#690=DIRECTION('ref_axis',(0.6,-0.8,0.));
#691=DIRECTION('center_axis',(0.,0.,1.));
#692=DIRECTION('ref_axis',(0.6,-0.8,0.));
#693=DIRECTION('',(0.,0.,1.));
#694=DIRECTION('center_axis',(0.,0.,1.));
#695=DIRECTION('ref_axis',(-0.6,0.8,0.));
#696=DIRECTION('center_axis',(0.,0.,1.));
#697=DIRECTION('ref_axis',(-0.6,0.8,0.));
#698=DIRECTION('center_axis',(0.,0.,-1.));
#699=DIRECTION('ref_axis',(-0.6,0.8,0.));
#700=DIRECTION('',(0.,0.,1.));
#701=DIRECTION('center_axis',(0.,0.,1.));
#702=DIRECTION('ref_axis',(0.,-1.,0.));
#703=DIRECTION('center_axis',(0.,0.,1.));
#704=DIRECTION('ref_axis',(0.,-1.,0.));
#705=DIRECTION('center_axis',(0.,0.,1.));
#706=DIRECTION('ref_axis',(0.,-1.,0.));
#707=DIRECTION('center_axis',(0.,0.,1.));
#708=DIRECTION('ref_axis',(1.,0.,0.));
#709=DIRECTION('center_axis',(0.,0.,1.));
#710=DIRECTION('ref_axis',(1.,0.,0.));
#711=CARTESIAN_POINT('',(0.,0.,0.));
#712=CARTESIAN_POINT('Origin',(0.,-40.,0.));
#713=CARTESIAN_POINT('',(40.,-40.,0.));
#714=CARTESIAN_POINT('',(0.,-40.,0.));
#715=CARTESIAN_POINT('',(40.,-40.,0.));
#716=CARTESIAN_POINT('',(40.,-40.,5.));
#717=CARTESIAN_POINT('',(40.,-40.,0.));
#718=CARTESIAN_POINT('',(0.,-40.,5.));
#719=CARTESIAN_POINT('',(40.,-40.,5.));
#720=CARTESIAN_POINT('',(0.,-40.,0.));
#721=CARTESIAN_POINT('Origin',(0.,-35.,0.));
#722=CARTESIAN_POINT('',(0.,-35.,0.));
#723=CARTESIAN_POINT('',(0.,-40.,0.));
#724=CARTESIAN_POINT('',(0.,-35.,5.));
#725=CARTESIAN_POINT('',(0.,-40.,5.));
#726=CARTESIAN_POINT('',(0.,-35.,0.));
#727=CARTESIAN_POINT('Origin',(10.,-30.,0.));
#728=CARTESIAN_POINT('',(10.,-30.,0.));
#729=CARTESIAN_POINT('',(0.,-35.,0.));
#730=CARTESIAN_POINT('',(10.,-30.,5.));
#731=CARTESIAN_POINT('',(0.,-35.,5.));
#732=CARTESIAN_POINT('',(10.,-30.,0.));
#733=CARTESIAN_POINT('Origin',(5.83333333333333,-21.6666666666667,0.));
#734=CARTESIAN_POINT('',(15.,-20.,0.));
#735=CARTESIAN_POINT('Origin',(5.83333333333333,-21.6666666666667,0.));
#736=CARTESIAN_POINT('',(15.,-20.,5.));
#737=CARTESIAN_POINT('Origin',(5.83333333333333,-21.6666666666667,5.));
#738=CARTESIAN_POINT('',(15.,-20.,0.));
#739=CARTESIAN_POINT('Origin',(0.,-20.,0.));
#740=CARTESIAN_POINT('',(0.,-20.,0.));
#741=CARTESIAN_POINT('',(15.,-20.,0.));
#742=CARTESIAN_POINT('',(0.,-20.,5.));
#743=CARTESIAN_POINT('',(15.,-20.,5.));
#744=CARTESIAN_POINT('',(0.,-20.,0.));
#745=CARTESIAN_POINT('Origin',(-5.,-15.,0.));
#746=CARTESIAN_POINT('',(-5.,-15.,0.));
#747=CARTESIAN_POINT('',(0.,-20.,0.));
#748=CARTESIAN_POINT('',(-5.,-15.,5.));
#749=CARTESIAN_POINT('',(0.,-20.,5.));
#750=CARTESIAN_POINT('',(-5.,-15.,0.));
#751=CARTESIAN_POINT('Origin',(-15.,-25.,0.));
#752=CARTESIAN_POINT('',(-25.,-15.,0.));
#753=CARTESIAN_POINT('Origin',(-15.,-25.,0.));
#754=CARTESIAN_POINT('',(-25.,-15.,5.));
#755=CARTESIAN_POINT('Origin',(-15.,-25.,5.));
#756=CARTESIAN_POINT('',(-25.,-15.,0.));
#757=CARTESIAN_POINT('Origin',(-25.,10.,0.));
#758=CARTESIAN_POINT('',(-25.,10.,0.));
#759=CARTESIAN_POINT('',(-25.,0.,0.));
#760=CARTESIAN_POINT('',(-25.,10.,5.));
#761=CARTESIAN_POINT('',(-25.,0.,5.));
#762=CARTESIAN_POINT('',(-25.,10.,0.));
#763=CARTESIAN_POINT('Origin',(-15.,10.,0.));
#764=CARTESIAN_POINT('',(-15.,10.,0.));
#765=CARTESIAN_POINT('',(-25.,10.,0.));
#766=CARTESIAN_POINT('',(-15.,10.,5.));
#767=CARTESIAN_POINT('',(-25.,10.,5.));
#768=CARTESIAN_POINT('',(-15.,10.,0.));
#769=CARTESIAN_POINT('Origin',(-15.,25.,0.));
#770=CARTESIAN_POINT('',(0.,25.,0.));
#771=CARTESIAN_POINT('Origin',(-15.,25.,0.));
#772=CARTESIAN_POINT('',(0.,25.,5.));
#773=CARTESIAN_POINT('Origin',(-15.,25.,5.));
#774=CARTESIAN_POINT('',(0.,25.,0.));
#775=CARTESIAN_POINT('Origin',(0.,40.,0.));
#776=CARTESIAN_POINT('',(0.,40.,0.));
#777=CARTESIAN_POINT('',(0.,25.,0.));
#778=CARTESIAN_POINT('',(0.,40.,5.));
#779=CARTESIAN_POINT('',(0.,25.,5.));
#780=CARTESIAN_POINT('',(0.,40.,0.));
#781=CARTESIAN_POINT('Origin',(10.,40.,0.));
#782=CARTESIAN_POINT('',(10.,40.,0.));
#783=CARTESIAN_POINT('',(0.,40.,0.));
#784=CARTESIAN_POINT('',(10.,40.,5.));
#785=CARTESIAN_POINT('',(0.,40.,5.));
#786=CARTESIAN_POINT('',(10.,40.,0.));
#787=CARTESIAN_POINT('Origin',(10.,50.,0.));
#788=CARTESIAN_POINT('',(20.,50.,0.));
#789=CARTESIAN_POINT('Origin',(10.,50.,0.));
#790=CARTESIAN_POINT('',(20.,50.,5.));
#791=CARTESIAN_POINT('Origin',(10.,50.,5.));
#792=CARTESIAN_POINT('',(20.,50.,0.));
#793=CARTESIAN_POINT('Origin',(25.,50.,0.));
#794=CARTESIAN_POINT('',(25.,50.,0.));
#795=CARTESIAN_POINT('',(20.,50.,0.));
#796=CARTESIAN_POINT('',(25.,50.,5.));
#797=CARTESIAN_POINT('',(20.,50.,5.));
#798=CARTESIAN_POINT('',(25.,50.,0.));
#799=CARTESIAN_POINT('Origin',(25.,35.,0.));
#800=CARTESIAN_POINT('',(25.,35.,0.));
#801=CARTESIAN_POINT('',(25.,50.,0.));
#802=CARTESIAN_POINT('',(25.,35.,5.));
#803=CARTESIAN_POINT('',(25.,50.,5.));
#804=CARTESIAN_POINT('',(25.,35.,0.));
#805=CARTESIAN_POINT('Origin',(15.,35.,0.));
#806=CARTESIAN_POINT('',(15.,25.,0.));
#807=CARTESIAN_POINT('Origin',(15.,35.,0.));
#808=CARTESIAN_POINT('',(15.,25.,5.));
#809=CARTESIAN_POINT('Origin',(15.,35.,5.));
#810=CARTESIAN_POINT('',(15.,25.,0.));
#811=CARTESIAN_POINT('Origin',(15.,17.5,0.));
#812=CARTESIAN_POINT('',(15.,10.,0.));
#813=CARTESIAN_POINT('Origin',(15.,17.5,0.));
#814=CARTESIAN_POINT('',(15.,10.,5.));
#815=CARTESIAN_POINT('Origin',(15.,17.5,5.));
#816=CARTESIAN_POINT('',(15.,10.,0.));
#817=CARTESIAN_POINT('Origin',(15.,5.,0.));
#818=CARTESIAN_POINT('',(15.,5.,0.));
#819=CARTESIAN_POINT('',(15.,10.,0.));
#820=CARTESIAN_POINT('',(15.,5.,5.));
#821=CARTESIAN_POINT('',(15.,10.,5.));
#822=CARTESIAN_POINT('',(15.,5.,0.));
#823=CARTESIAN_POINT('Origin',(35.,5.,0.));
#824=CARTESIAN_POINT('',(35.,5.,0.));
#825=CARTESIAN_POINT('',(15.,5.,0.));
#826=CARTESIAN_POINT('',(35.,5.,5.));
#827=CARTESIAN_POINT('',(15.,5.,5.));
#828=CARTESIAN_POINT('',(35.,5.,0.));
#829=CARTESIAN_POINT('Origin',(40.,0.,0.));
#830=CARTESIAN_POINT('',(40.,0.,0.));
#831=CARTESIAN_POINT('',(35.,5.,0.));
#832=CARTESIAN_POINT('',(40.,0.,5.));
#833=CARTESIAN_POINT('',(35.,5.,5.));
#834=CARTESIAN_POINT('',(40.,0.,0.));
#835=CARTESIAN_POINT('Origin',(40.,-10.,0.));
#836=CARTESIAN_POINT('',(40.,-10.,0.));
#837=CARTESIAN_POINT('',(40.,0.,0.));
#838=CARTESIAN_POINT('',(40.,-10.,5.));
#839=CARTESIAN_POINT('',(40.,0.,5.));
#840=CARTESIAN_POINT('',(40.,-10.,0.));
#841=CARTESIAN_POINT('Origin',(27.5,-10.,0.));
#842=CARTESIAN_POINT('',(35.,-20.,0.));
#843=CARTESIAN_POINT('Origin',(27.5,-10.,0.));
#844=CARTESIAN_POINT('',(35.,-20.,5.));
#845=CARTESIAN_POINT('Origin',(27.5,-10.,5.));
#846=CARTESIAN_POINT('',(35.,-20.,0.));
#847=CARTESIAN_POINT('Origin',(40.,-26.6666666666667,0.));
#848=CARTESIAN_POINT('',(40.,-35.,0.));
#849=CARTESIAN_POINT('Origin',(40.,-26.6666666666667,0.));
#850=CARTESIAN_POINT('',(40.,-35.,5.));
#851=CARTESIAN_POINT('Origin',(40.,-26.6666666666667,5.));
#852=CARTESIAN_POINT('',(40.,-35.,0.));
#853=CARTESIAN_POINT('Origin',(40.,-37.5,0.));
#854=CARTESIAN_POINT('Origin',(40.,-37.5,0.));
#855=CARTESIAN_POINT('Origin',(40.,-37.5,5.));
#856=CARTESIAN_POINT('Origin',(8.75,5.,5.));
#857=CARTESIAN_POINT('Origin',(8.75,5.,0.));
#858=UNCERTAINTY_MEASURE_WITH_UNIT(LENGTH_MEASURE(0.01),#862,
'DISTANCE_ACCURACY_VALUE',
'Maximum model space distance between geometric entities at asserted c
onnectivities');
#859=UNCERTAINTY_MEASURE_WITH_UNIT(LENGTH_MEASURE(0.01),#862,
'DISTANCE_ACCURACY_VALUE',
'Maximum model space distance between geometric entities at asserted c
onnectivities');
#860=(
GEOMETRIC_REPRESENTATION_CONTEXT(3)
GLOBAL_UNCERTAINTY_ASSIGNED_CONTEXT((#858))
GLOBAL_UNIT_ASSIGNED_CONTEXT((#862,#864,#865))
REPRESENTATION_CONTEXT('','3D')
);
#861=(
GEOMETRIC_REPRESENTATION_CONTEXT(3)
GLOBAL_UNCERTAINTY_ASSIGNED_CONTEXT((#859))
GLOBAL_UNIT_ASSIGNED_CONTEXT((#862,#864,#865))
REPRESENTATION_CONTEXT('','3D')
);
#862=(
LENGTH_UNIT()
NAMED_UNIT(*)
SI_UNIT(.MILLI.,.METRE.)
);
#863=(
LENGTH_UNIT()
NAMED_UNIT(*)
SI_UNIT($,.METRE.)
);
#864=(
NAMED_UNIT(*)
PLANE_ANGLE_UNIT()
SI_UNIT($,.RADIAN.)
);
#865=(
NAMED_UNIT(*)
SI_UNIT($,.STERADIAN.)
SOLID_ANGLE_UNIT()
);
#866=SHAPE_DEFINITION_REPRESENTATION(#867,#868);
#867=PRODUCT_DEFINITION_SHAPE('',$,#870);
#868=SHAPE_REPRESENTATION('',(#522),#860);
#869=PRODUCT_DEFINITION_CONTEXT('part definition',#874,'design');
#870=PRODUCT_DEFINITION('(Unsaved)','(Unsaved)',#871,#869);
#871=PRODUCT_DEFINITION_FORMATION('',$,#876);
#872=PRODUCT_RELATED_PRODUCT_CATEGORY('(Unsaved)','(Unsaved)',(#876));
#873=APPLICATION_PROTOCOL_DEFINITION('international standard',
'automotive_design',2009,#874);
#874=APPLICATION_CONTEXT(
'Core Data for Automotive Mechanical Design Process');
#875=PRODUCT_CONTEXT('part definition',#874,'mechanical');
#876=PRODUCT('(Unsaved)','(Unsaved)',$,(#875));
#877=PRESENTATION_STYLE_ASSIGNMENT((#878));
#878=SURFACE_STYLE_USAGE(.BOTH.,#879);
#879=SURFACE_SIDE_STYLE('',(#880));
#880=SURFACE_STYLE_FILL_AREA(#881);
#881=FILL_AREA_STYLE('Steel - Satin',(#882));
#882=FILL_AREA_STYLE_COLOUR('Steel - Satin',#883);
#883=COLOUR_RGB('Steel - Satin',0.627450980392157,0.627450980392157,0.627450980392157);
ENDSEC;
END-ISO-10303-21;
