ISO-10303-21;
HEADER;
/* Generated by software containing ST-Developer
 * from STEP Tools, Inc. (www.steptools.com) 
 */

FILE_DESCRIPTION(
/* description */ (''),
/* implementation_level */ '2;1');

FILE_NAME(
/* name */ 'box-with-holes.step',
/* time_stamp */ '2024-05-28T17:00:07+03:00',
/* author */ (''),
/* organization */ (''),
/* preprocessor_version */ 'ST-DEVELOPER v20',
/* originating_system */ 'Autodesk Translation Framework v12.14.0.127',

/* authorisation */ '');

FILE_SCHEMA (('AUTOMOTIVE_DESIGN { 1 0 10303 214 3 1 1 }'));
ENDSEC;

DATA;
#10=MECHANICAL_DESIGN_GEOMETRIC_PRESENTATION_REPRESENTATION('',(#13),#507);
#11=SHAPE_REPRESENTATION_RELATIONSHIP('SRR','None',#514,#12);
#12=ADVANCED_BREP_SHAPE_REPRESENTATION('',(#14),#506);
#13=STYLED_ITEM('',(#523),#14);
#14=MANIFOLD_SOLID_BREP('Body1',#284);
#15=FACE_BOUND('',#46,.T.);
#16=FACE_BOUND('',#48,.T.);
#17=FACE_BOUND('',#50,.T.);
#18=FACE_BOUND('',#52,.T.);
#19=FACE_BOUND('',#54,.T.);
#20=FACE_BOUND('',#56,.T.);
#21=PLANE('',#327);
#22=PLANE('',#328);
#23=PLANE('',#329);
#24=PLANE('',#330);
#25=PLANE('',#331);
#26=PLANE('',#332);
#27=FACE_OUTER_BOUND('',#39,.T.);
#28=FACE_OUTER_BOUND('',#40,.T.);
#29=FACE_OUTER_BOUND('',#41,.T.);
#30=FACE_OUTER_BOUND('',#42,.T.);
#31=FACE_OUTER_BOUND('',#43,.T.);
#32=FACE_OUTER_BOUND('',#44,.T.);
#33=FACE_OUTER_BOUND('',#45,.T.);
#34=FACE_OUTER_BOUND('',#47,.T.);
#35=FACE_OUTER_BOUND('',#49,.T.);
#36=FACE_OUTER_BOUND('',#51,.T.);
#37=FACE_OUTER_BOUND('',#53,.T.);
#38=FACE_OUTER_BOUND('',#55,.T.);
#39=EDGE_LOOP('',(#184,#185,#186,#187,#188,#189,#190,#191));
#40=EDGE_LOOP('',(#192,#193,#194,#195,#196,#197,#198,#199,#200));
#41=EDGE_LOOP('',(#201,#202,#203,#204,#205,#206,#207,#208));
#42=EDGE_LOOP('',(#209,#210,#211,#212,#213,#214,#215,#216,#217));
#43=EDGE_LOOP('',(#218,#219,#220,#221,#222,#223,#224,#225,#226,#227));
#44=EDGE_LOOP('',(#228,#229,#230,#231,#232,#233,#234,#235));
#45=EDGE_LOOP('',(#236,#237,#238,#239));
#46=EDGE_LOOP('',(#240));
#47=EDGE_LOOP('',(#241,#242,#243,#244));
#48=EDGE_LOOP('',(#245));
#49=EDGE_LOOP('',(#246,#247,#248,#249));
#50=EDGE_LOOP('',(#250));
#51=EDGE_LOOP('',(#251,#252,#253,#254));
#52=EDGE_LOOP('',(#255));
#53=EDGE_LOOP('',(#256,#257,#258,#259));
#54=EDGE_LOOP('',(#260));
#55=EDGE_LOOP('',(#261,#262,#263,#264));
#56=EDGE_LOOP('',(#265));
#57=CIRCLE('',#302,0.249999994412065);
#58=CIRCLE('',#306,0.249999994412065);
#59=CIRCLE('',#315,0.249999994412065);
#60=CIRCLE('',#319,0.249999994412065);
#61=CIRCLE('',#322,0.249999994412065);
#62=CIRCLE('',#326,0.249999994412065);
#63=LINE('',#433,#81);
#64=LINE('',#442,#82);
#65=LINE('',#458,#83);
#66=LINE('',#464,#84);
#67=LINE('',#470,#85);
#68=LINE('',#477,#86);
#69=LINE('',#481,#87);
#70=LINE('',#483,#88);
#71=LINE('',#485,#89);
#72=LINE('',#486,#90);
#73=LINE('',#490,#91);
#74=LINE('',#492,#92);
#75=LINE('',#494,#93);
#76=LINE('',#495,#94);
#77=LINE('',#497,#95);
#78=LINE('',#498,#96);
#79=LINE('',#500,#97);
#80=LINE('',#501,#98);
#81=VECTOR('',#343,0.249999994412065);
#82=VECTOR('',#354,0.249999994412065);
#83=VECTOR('',#371,0.249999994412065);
#84=VECTOR('',#380,0.249999994412065);
#85=VECTOR('',#389,0.249999994412065);
#86=VECTOR('',#398,0.249999994412065);
#87=VECTOR('',#401,1.);
#88=VECTOR('',#402,1.);
#89=VECTOR('',#403,1.);
#90=VECTOR('',#404,1.);
#91=VECTOR('',#407,1.);
#92=VECTOR('',#408,1.);
#93=VECTOR('',#409,1.);
#94=VECTOR('',#410,1.);
#95=VECTOR('',#413,1.);
#96=VECTOR('',#414,1.);
#97=VECTOR('',#417,1.);
#98=VECTOR('',#418,1.);
#99=ELLIPSE('',#299,0.35355338269074,0.249999994412065);
#100=ELLIPSE('',#300,0.35355338269074,0.249999994412065);
#101=ELLIPSE('',#301,0.35355338269074,0.249999994412065);
#102=ELLIPSE('',#303,0.35355338269074,0.249999994412065);
#103=ELLIPSE('',#304,0.35355338269074,0.249999994412065);
#104=ELLIPSE('',#307,0.35355338269074,0.249999994412065);
#105=ELLIPSE('',#308,0.35355338269074,0.249999994412065);
#106=ELLIPSE('',#309,0.35355338269074,0.249999994412065);
#107=ELLIPSE('',#310,0.35355338269074,0.249999994412065);
#108=ELLIPSE('',#311,0.35355338269074,0.249999994412065);
#109=ELLIPSE('',#312,0.35355338269074,0.249999994412065);
#110=ELLIPSE('',#314,0.35355338269074,0.249999994412065);
#111=ELLIPSE('',#316,0.35355338269074,0.249999994412065);
#112=ELLIPSE('',#317,0.35355338269074,0.249999994412065);
#113=ELLIPSE('',#320,0.35355338269074,0.249999994412065);
#114=ELLIPSE('',#323,0.35355338269074,0.249999994412065);
#115=ELLIPSE('',#324,0.35355338269074,0.249999994412065);
#116=VERTEX_POINT('',#425);
#117=VERTEX_POINT('',#426);
#118=VERTEX_POINT('',#428);
#119=VERTEX_POINT('',#430);
#120=VERTEX_POINT('',#432);
#121=VERTEX_POINT('',#435);
#122=VERTEX_POINT('',#439);
#123=VERTEX_POINT('',#441);
#124=VERTEX_POINT('',#443);
#125=VERTEX_POINT('',#445);
#126=VERTEX_POINT('',#447);
#127=VERTEX_POINT('',#449);
#128=VERTEX_POINT('',#451);
#129=VERTEX_POINT('',#455);
#130=VERTEX_POINT('',#457);
#131=VERTEX_POINT('',#463);
#132=VERTEX_POINT('',#468);
#133=VERTEX_POINT('',#471);
#134=VERTEX_POINT('',#475);
#135=VERTEX_POINT('',#479);
#136=VERTEX_POINT('',#480);
#137=VERTEX_POINT('',#482);
#138=VERTEX_POINT('',#484);
#139=VERTEX_POINT('',#488);
#140=VERTEX_POINT('',#489);
#141=VERTEX_POINT('',#491);
#142=VERTEX_POINT('',#493);
#143=EDGE_CURVE('',#116,#117,#99,.T.);
#144=EDGE_CURVE('',#118,#116,#100,.T.);
#145=EDGE_CURVE('',#119,#118,#101,.T.);
#146=EDGE_CURVE('',#119,#120,#63,.T.);
#147=EDGE_CURVE('',#120,#120,#57,.T.);
#148=EDGE_CURVE('',#121,#119,#102,.T.);
#149=EDGE_CURVE('',#117,#121,#103,.T.);
#150=EDGE_CURVE('',#122,#122,#58,.T.);
#151=EDGE_CURVE('',#122,#123,#64,.T.);
#152=EDGE_CURVE('',#124,#123,#104,.T.);
#153=EDGE_CURVE('',#125,#124,#105,.T.);
#154=EDGE_CURVE('',#126,#125,#106,.T.);
#155=EDGE_CURVE('',#127,#126,#107,.T.);
#156=EDGE_CURVE('',#128,#127,#108,.T.);
#157=EDGE_CURVE('',#123,#128,#109,.T.);
#158=EDGE_CURVE('',#127,#129,#110,.T.);
#159=EDGE_CURVE('',#129,#130,#65,.T.);
#160=EDGE_CURVE('',#130,#130,#59,.T.);
#161=EDGE_CURVE('',#129,#117,#111,.T.);
#162=EDGE_CURVE('',#121,#128,#112,.T.);
#163=EDGE_CURVE('',#123,#131,#66,.T.);
#164=EDGE_CURVE('',#131,#131,#60,.T.);
#165=EDGE_CURVE('',#124,#118,#113,.T.);
#166=EDGE_CURVE('',#132,#132,#61,.T.);
#167=EDGE_CURVE('',#132,#126,#67,.T.);
#168=EDGE_CURVE('',#133,#125,#114,.T.);
#169=EDGE_CURVE('',#116,#133,#115,.T.);
#170=EDGE_CURVE('',#134,#134,#62,.T.);
#171=EDGE_CURVE('',#134,#133,#68,.T.);
#172=EDGE_CURVE('',#135,#136,#69,.T.);
#173=EDGE_CURVE('',#136,#137,#70,.T.);
#174=EDGE_CURVE('',#138,#137,#71,.T.);
#175=EDGE_CURVE('',#135,#138,#72,.T.);
#176=EDGE_CURVE('',#139,#140,#73,.T.);
#177=EDGE_CURVE('',#139,#141,#74,.T.);
#178=EDGE_CURVE('',#141,#142,#75,.T.);
#179=EDGE_CURVE('',#140,#142,#76,.T.);
#180=EDGE_CURVE('',#135,#139,#77,.T.);
#181=EDGE_CURVE('',#136,#140,#78,.T.);
#182=EDGE_CURVE('',#138,#141,#79,.T.);
#183=EDGE_CURVE('',#137,#142,#80,.T.);
#184=ORIENTED_EDGE('',*,*,#143,.F.);
#185=ORIENTED_EDGE('',*,*,#144,.F.);
#186=ORIENTED_EDGE('',*,*,#145,.F.);
#187=ORIENTED_EDGE('',*,*,#146,.T.);
#188=ORIENTED_EDGE('',*,*,#147,.F.);
#189=ORIENTED_EDGE('',*,*,#146,.F.);
#190=ORIENTED_EDGE('',*,*,#148,.F.);
#191=ORIENTED_EDGE('',*,*,#149,.F.);
#192=ORIENTED_EDGE('',*,*,#150,.F.);
#193=ORIENTED_EDGE('',*,*,#151,.T.);
#194=ORIENTED_EDGE('',*,*,#152,.F.);
#195=ORIENTED_EDGE('',*,*,#153,.F.);
#196=ORIENTED_EDGE('',*,*,#154,.F.);
#197=ORIENTED_EDGE('',*,*,#155,.F.);
#198=ORIENTED_EDGE('',*,*,#156,.F.);
#199=ORIENTED_EDGE('',*,*,#157,.F.);
#200=ORIENTED_EDGE('',*,*,#151,.F.);
#201=ORIENTED_EDGE('',*,*,#156,.T.);
#202=ORIENTED_EDGE('',*,*,#158,.T.);
#203=ORIENTED_EDGE('',*,*,#159,.T.);
#204=ORIENTED_EDGE('',*,*,#160,.F.);
#205=ORIENTED_EDGE('',*,*,#159,.F.);
#206=ORIENTED_EDGE('',*,*,#161,.T.);
#207=ORIENTED_EDGE('',*,*,#149,.T.);
#208=ORIENTED_EDGE('',*,*,#162,.T.);
#209=ORIENTED_EDGE('',*,*,#152,.T.);
#210=ORIENTED_EDGE('',*,*,#163,.T.);
#211=ORIENTED_EDGE('',*,*,#164,.F.);
#212=ORIENTED_EDGE('',*,*,#163,.F.);
#213=ORIENTED_EDGE('',*,*,#157,.T.);
#214=ORIENTED_EDGE('',*,*,#162,.F.);
#215=ORIENTED_EDGE('',*,*,#148,.T.);
#216=ORIENTED_EDGE('',*,*,#145,.T.);
#217=ORIENTED_EDGE('',*,*,#165,.F.);
#218=ORIENTED_EDGE('',*,*,#166,.F.);
#219=ORIENTED_EDGE('',*,*,#167,.T.);
#220=ORIENTED_EDGE('',*,*,#154,.T.);
#221=ORIENTED_EDGE('',*,*,#168,.F.);
#222=ORIENTED_EDGE('',*,*,#169,.F.);
#223=ORIENTED_EDGE('',*,*,#143,.T.);
#224=ORIENTED_EDGE('',*,*,#161,.F.);
#225=ORIENTED_EDGE('',*,*,#158,.F.);
#226=ORIENTED_EDGE('',*,*,#155,.T.);
#227=ORIENTED_EDGE('',*,*,#167,.F.);
#228=ORIENTED_EDGE('',*,*,#170,.F.);
#229=ORIENTED_EDGE('',*,*,#171,.T.);
#230=ORIENTED_EDGE('',*,*,#168,.T.);
#231=ORIENTED_EDGE('',*,*,#153,.T.);
#232=ORIENTED_EDGE('',*,*,#165,.T.);
#233=ORIENTED_EDGE('',*,*,#144,.T.);
#234=ORIENTED_EDGE('',*,*,#169,.T.);
#235=ORIENTED_EDGE('',*,*,#171,.F.);
#236=ORIENTED_EDGE('',*,*,#172,.T.);
#237=ORIENTED_EDGE('',*,*,#173,.T.);
#238=ORIENTED_EDGE('',*,*,#174,.F.);
#239=ORIENTED_EDGE('',*,*,#175,.F.);
#240=ORIENTED_EDGE('',*,*,#164,.T.);
#241=ORIENTED_EDGE('',*,*,#176,.F.);
#242=ORIENTED_EDGE('',*,*,#177,.T.);
#243=ORIENTED_EDGE('',*,*,#178,.T.);
#244=ORIENTED_EDGE('',*,*,#179,.F.);
#245=ORIENTED_EDGE('',*,*,#166,.T.);
#246=ORIENTED_EDGE('',*,*,#180,.T.);
#247=ORIENTED_EDGE('',*,*,#176,.T.);
#248=ORIENTED_EDGE('',*,*,#181,.F.);
#249=ORIENTED_EDGE('',*,*,#172,.F.);
#250=ORIENTED_EDGE('',*,*,#160,.T.);
#251=ORIENTED_EDGE('',*,*,#182,.F.);
#252=ORIENTED_EDGE('',*,*,#174,.T.);
#253=ORIENTED_EDGE('',*,*,#183,.T.);
#254=ORIENTED_EDGE('',*,*,#178,.F.);
#255=ORIENTED_EDGE('',*,*,#170,.T.);
#256=ORIENTED_EDGE('',*,*,#175,.T.);
#257=ORIENTED_EDGE('',*,*,#182,.T.);
#258=ORIENTED_EDGE('',*,*,#177,.F.);
#259=ORIENTED_EDGE('',*,*,#180,.F.);
#260=ORIENTED_EDGE('',*,*,#147,.T.);
#261=ORIENTED_EDGE('',*,*,#173,.F.);
#262=ORIENTED_EDGE('',*,*,#181,.T.);
#263=ORIENTED_EDGE('',*,*,#179,.T.);
#264=ORIENTED_EDGE('',*,*,#183,.F.);
#265=ORIENTED_EDGE('',*,*,#150,.T.);
#266=CYLINDRICAL_SURFACE('',#298,0.249999994412065);
#267=CYLINDRICAL_SURFACE('',#305,0.249999994412065);
#268=CYLINDRICAL_SURFACE('',#313,0.249999994412065);
#269=CYLINDRICAL_SURFACE('',#318,0.249999994412065);
#270=CYLINDRICAL_SURFACE('',#321,0.249999994412065);
#271=CYLINDRICAL_SURFACE('',#325,0.249999994412065);
#272=ADVANCED_FACE('',(#27),#266,.F.);
#273=ADVANCED_FACE('',(#28),#267,.F.);
#274=ADVANCED_FACE('',(#29),#268,.F.);
#275=ADVANCED_FACE('',(#30),#269,.F.);
#276=ADVANCED_FACE('',(#31),#270,.F.);
#277=ADVANCED_FACE('',(#32),#271,.F.);
#278=ADVANCED_FACE('',(#33,#15),#21,.F.);
#279=ADVANCED_FACE('',(#34,#16),#22,.T.);
#280=ADVANCED_FACE('',(#35,#17),#23,.F.);
#281=ADVANCED_FACE('',(#36,#18),#24,.T.);
#282=ADVANCED_FACE('',(#37,#19),#25,.F.);
#283=ADVANCED_FACE('',(#38,#20),#26,.T.);
#284=CLOSED_SHELL('',(#272,#273,#274,#275,#276,#277,#278,#279,#280,#281,
#282,#283));
#285=DERIVED_UNIT_ELEMENT(#287,1.);
#286=DERIVED_UNIT_ELEMENT(#509,-3.);
#287=(
MASS_UNIT()
NAMED_UNIT(*)
SI_UNIT(.KILO.,.GRAM.)
);
#288=DERIVED_UNIT((#285,#286));
#289=MEASURE_REPRESENTATION_ITEM('density measure',
POSITIVE_RATIO_MEASURE(7850.),#288);
#290=PROPERTY_DEFINITION_REPRESENTATION(#295,#292);
#291=PROPERTY_DEFINITION_REPRESENTATION(#296,#293);
#292=REPRESENTATION('material name',(#294),#506);
#293=REPRESENTATION('density',(#289),#506);
#294=DESCRIPTIVE_REPRESENTATION_ITEM('Steel','Steel');
#295=PROPERTY_DEFINITION('material property','material name',#516);
#296=PROPERTY_DEFINITION('material property','density of part',#516);
#297=AXIS2_PLACEMENT_3D('',#423,#333,#334);
#298=AXIS2_PLACEMENT_3D('',#424,#335,#336);
#299=AXIS2_PLACEMENT_3D('',#427,#337,#338);
#300=AXIS2_PLACEMENT_3D('',#429,#339,#340);
#301=AXIS2_PLACEMENT_3D('',#431,#341,#342);
#302=AXIS2_PLACEMENT_3D('',#434,#344,#345);
#303=AXIS2_PLACEMENT_3D('',#436,#346,#347);
#304=AXIS2_PLACEMENT_3D('',#437,#348,#349);
#305=AXIS2_PLACEMENT_3D('',#438,#350,#351);
#306=AXIS2_PLACEMENT_3D('',#440,#352,#353);
#307=AXIS2_PLACEMENT_3D('',#444,#355,#356);
#308=AXIS2_PLACEMENT_3D('',#446,#357,#358);
#309=AXIS2_PLACEMENT_3D('',#448,#359,#360);
#310=AXIS2_PLACEMENT_3D('',#450,#361,#362);
#311=AXIS2_PLACEMENT_3D('',#452,#363,#364);
#312=AXIS2_PLACEMENT_3D('',#453,#365,#366);
#313=AXIS2_PLACEMENT_3D('',#454,#367,#368);
#314=AXIS2_PLACEMENT_3D('',#456,#369,#370);
#315=AXIS2_PLACEMENT_3D('',#459,#372,#373);
#316=AXIS2_PLACEMENT_3D('',#460,#374,#375);
#317=AXIS2_PLACEMENT_3D('',#461,#376,#377);
#318=AXIS2_PLACEMENT_3D('',#462,#378,#379);
#319=AXIS2_PLACEMENT_3D('',#465,#381,#382);
#320=AXIS2_PLACEMENT_3D('',#466,#383,#384);
#321=AXIS2_PLACEMENT_3D('',#467,#385,#386);
#322=AXIS2_PLACEMENT_3D('',#469,#387,#388);
#323=AXIS2_PLACEMENT_3D('',#472,#390,#391);
#324=AXIS2_PLACEMENT_3D('',#473,#392,#393);
#325=AXIS2_PLACEMENT_3D('',#474,#394,#395);
#326=AXIS2_PLACEMENT_3D('',#476,#396,#397);
#327=AXIS2_PLACEMENT_3D('',#478,#399,#400);
#328=AXIS2_PLACEMENT_3D('',#487,#405,#406);
#329=AXIS2_PLACEMENT_3D('',#496,#411,#412);
#330=AXIS2_PLACEMENT_3D('',#499,#415,#416);
#331=AXIS2_PLACEMENT_3D('',#502,#419,#420);
#332=AXIS2_PLACEMENT_3D('',#503,#421,#422);
#333=DIRECTION('axis',(0.,0.,1.));
#334=DIRECTION('refdir',(1.,0.,0.));
#335=DIRECTION('center_axis',(0.,0.,-1.));
#336=DIRECTION('ref_axis',(1.,0.,0.));
#337=DIRECTION('center_axis',(-0.707106781186548,0.,-0.707106781186548));
#338=DIRECTION('ref_axis',(0.707106781186548,0.,-0.707106781186548));
#339=DIRECTION('center_axis',(0.,-0.707106781186548,-0.707106781186548));
#340=DIRECTION('ref_axis',(0.,-0.707106781186548,0.707106781186548));
#341=DIRECTION('center_axis',(0.707106781186548,0.,-0.707106781186548));
#342=DIRECTION('ref_axis',(0.707106781186548,0.,0.707106781186548));
#343=DIRECTION('',(0.,0.,-1.));
#344=DIRECTION('center_axis',(0.,0.,1.));
#345=DIRECTION('ref_axis',(1.,0.,0.));
#346=DIRECTION('center_axis',(0.707106781186548,0.,-0.707106781186548));
#347=DIRECTION('ref_axis',(0.707106781186548,0.,0.707106781186548));
#348=DIRECTION('center_axis',(0.,0.707106781186548,-0.707106781186548));
#349=DIRECTION('ref_axis',(0.,-0.707106781186548,-0.707106781186548));
#350=DIRECTION('center_axis',(0.,0.,-1.));
#351=DIRECTION('ref_axis',(1.,0.,0.));
#352=DIRECTION('center_axis',(0.,0.,-1.));
#353=DIRECTION('ref_axis',(1.,0.,0.));
#354=DIRECTION('',(0.,0.,-1.));
#355=DIRECTION('center_axis',(0.707106781186548,0.,0.707106781186548));
#356=DIRECTION('ref_axis',(0.707106781186548,0.,-0.707106781186548));
#357=DIRECTION('center_axis',(0.,-0.707106781186548,0.707106781186548));
#358=DIRECTION('ref_axis',(0.,-0.707106781186548,-0.707106781186548));
#359=DIRECTION('center_axis',(-0.707106781186548,0.,0.707106781186548));
#360=DIRECTION('ref_axis',(0.707106781186548,0.,0.707106781186548));
#361=DIRECTION('center_axis',(-0.707106781186548,0.,0.707106781186548));
#362=DIRECTION('ref_axis',(0.707106781186548,0.,0.707106781186548));
#363=DIRECTION('center_axis',(0.,0.707106781186548,0.707106781186548));
#364=DIRECTION('ref_axis',(0.,-0.707106781186548,0.707106781186548));
#365=DIRECTION('center_axis',(0.707106781186548,0.,0.707106781186548));
#366=DIRECTION('ref_axis',(0.707106781186548,0.,-0.707106781186548));
#367=DIRECTION('center_axis',(0.,-1.,0.));
#368=DIRECTION('ref_axis',(-1.,0.,0.));
#369=DIRECTION('center_axis',(0.707106781186548,0.707106781186548,0.));
#370=DIRECTION('ref_axis',(0.707106781186548,-0.707106781186548,0.));
#371=DIRECTION('',(0.,-1.,0.));
#372=DIRECTION('center_axis',(0.,1.,0.));
#373=DIRECTION('ref_axis',(-1.,0.,0.));
#374=DIRECTION('center_axis',(0.707106781186548,0.707106781186548,0.));
#375=DIRECTION('ref_axis',(0.707106781186548,-0.707106781186548,0.));
#376=DIRECTION('center_axis',(-0.707106781186548,0.707106781186548,0.));
#377=DIRECTION('ref_axis',(-0.707106781186548,-0.707106781186548,0.));
#378=DIRECTION('center_axis',(-1.,0.,0.));
#379=DIRECTION('ref_axis',(0.,0.,-1.));
#380=DIRECTION('',(-1.,0.,0.));
#381=DIRECTION('center_axis',(1.,0.,0.));
#382=DIRECTION('ref_axis',(0.,0.,-1.));
#383=DIRECTION('center_axis',(-0.707106781186548,-0.707106781186548,0.));
#384=DIRECTION('ref_axis',(0.707106781186548,-0.707106781186548,0.));
#385=DIRECTION('center_axis',(-1.,0.,0.));
#386=DIRECTION('ref_axis',(0.,0.,-1.));
#387=DIRECTION('center_axis',(-1.,0.,0.));
#388=DIRECTION('ref_axis',(0.,0.,-1.));
#389=DIRECTION('',(-1.,0.,0.));
#390=DIRECTION('center_axis',(0.707106781186548,-0.707106781186548,0.));
#391=DIRECTION('ref_axis',(-0.707106781186548,-0.707106781186548,0.));
#392=DIRECTION('center_axis',(0.707106781186548,-0.707106781186548,0.));
#393=DIRECTION('ref_axis',(-0.707106781186548,-0.707106781186548,0.));
#394=DIRECTION('center_axis',(0.,-1.,0.));
#395=DIRECTION('ref_axis',(-1.,0.,0.));
#396=DIRECTION('center_axis',(0.,-1.,0.));
#397=DIRECTION('ref_axis',(-1.,0.,0.));
#398=DIRECTION('',(0.,-1.,0.));
#399=DIRECTION('center_axis',(1.,0.,0.));
#400=DIRECTION('ref_axis',(0.,0.,1.));
#401=DIRECTION('',(0.,0.,1.));
#402=DIRECTION('',(0.,1.,0.));
#403=DIRECTION('',(0.,0.,1.));
#404=DIRECTION('',(0.,1.,0.));
#405=DIRECTION('center_axis',(1.,0.,0.));
#406=DIRECTION('ref_axis',(0.,0.,1.));
#407=DIRECTION('',(0.,0.,1.));
#408=DIRECTION('',(0.,1.,0.));
#409=DIRECTION('',(0.,0.,1.));
#410=DIRECTION('',(0.,1.,0.));
#411=DIRECTION('center_axis',(0.,1.,0.));
#412=DIRECTION('ref_axis',(0.,0.,1.));
#413=DIRECTION('',(1.,0.,0.));
#414=DIRECTION('',(1.,0.,0.));
#415=DIRECTION('center_axis',(0.,1.,0.));
#416=DIRECTION('ref_axis',(0.,0.,1.));
#417=DIRECTION('',(1.,0.,0.));
#418=DIRECTION('',(1.,0.,0.));
#419=DIRECTION('center_axis',(0.,0.,1.));
#420=DIRECTION('ref_axis',(1.,0.,0.));
#421=DIRECTION('center_axis',(0.,0.,1.));
#422=DIRECTION('ref_axis',(1.,0.,0.));
#423=CARTESIAN_POINT('',(0.,0.,0.));
#424=CARTESIAN_POINT('Origin',(0.499999988824129,0.499999988824129,1.));
#425=CARTESIAN_POINT('',(0.676776680169499,0.676776680169499,0.323223297478759));
#426=CARTESIAN_POINT('',(0.676776680169499,0.323223297478759,0.323223297478759));
#427=CARTESIAN_POINT('Origin',(0.499999988824129,0.499999988824129,0.499999988824129));
#428=CARTESIAN_POINT('',(0.323223297478759,0.676776680169499,0.323223297478759));
#429=CARTESIAN_POINT('Origin',(0.499999988824129,0.499999988824129,0.499999988824129));
#430=CARTESIAN_POINT('',(0.249999994412065,0.499999988824129,0.249999994412065));
#431=CARTESIAN_POINT('Origin',(0.499999988824129,0.499999988824129,0.499999988824129));
#432=CARTESIAN_POINT('',(0.249999994412065,0.499999988824129,0.));
#433=CARTESIAN_POINT('',(0.249999994412065,0.499999988824129,1.));
#434=CARTESIAN_POINT('Origin',(0.499999988824129,0.499999988824129,0.));
#435=CARTESIAN_POINT('',(0.323223297478759,0.323223297478759,0.323223297478759));
#436=CARTESIAN_POINT('Origin',(0.499999988824129,0.499999988824129,0.499999988824129));
#437=CARTESIAN_POINT('Origin',(0.499999988824129,0.499999988824129,0.499999988824129));
#438=CARTESIAN_POINT('Origin',(0.499999988824129,0.499999988824129,1.));
#439=CARTESIAN_POINT('',(0.249999994412065,0.499999988824129,1.));
#440=CARTESIAN_POINT('Origin',(0.499999988824129,0.499999988824129,1.));
#441=CARTESIAN_POINT('',(0.249999994412065,0.499999988824129,0.749999983236194));
#442=CARTESIAN_POINT('',(0.249999994412065,0.499999988824129,1.));
#443=CARTESIAN_POINT('',(0.323223297478759,0.676776680169499,0.676776680169499));
#444=CARTESIAN_POINT('Origin',(0.499999988824129,0.499999988824129,0.499999988824129));
#445=CARTESIAN_POINT('',(0.676776680169499,0.676776680169499,0.676776680169499));
#446=CARTESIAN_POINT('Origin',(0.499999988824129,0.499999988824129,0.499999988824129));
#447=CARTESIAN_POINT('',(0.749999983236194,0.499999988824129,0.749999983236194));
#448=CARTESIAN_POINT('Origin',(0.499999988824129,0.499999988824129,0.499999988824129));
#449=CARTESIAN_POINT('',(0.676776680169499,0.323223297478759,0.676776680169499));
#450=CARTESIAN_POINT('Origin',(0.499999988824129,0.499999988824129,0.499999988824129));
#451=CARTESIAN_POINT('',(0.323223297478759,0.323223297478759,0.676776680169499));
#452=CARTESIAN_POINT('Origin',(0.499999988824129,0.499999988824129,0.499999988824129));
#453=CARTESIAN_POINT('Origin',(0.499999988824129,0.499999988824129,0.499999988824129));
#454=CARTESIAN_POINT('Origin',(0.499999988824129,1.,0.499999988824129));
#455=CARTESIAN_POINT('',(0.749999983236194,0.249999994412065,0.499999988824129));
#456=CARTESIAN_POINT('Origin',(0.499999988824129,0.499999988824129,0.499999988824129));
#457=CARTESIAN_POINT('',(0.749999983236194,0.,0.499999988824129));
#458=CARTESIAN_POINT('',(0.749999983236194,1.,0.499999988824129));
#459=CARTESIAN_POINT('Origin',(0.499999988824129,0.,0.499999988824129));
#460=CARTESIAN_POINT('Origin',(0.499999988824129,0.499999988824129,0.499999988824129));
#461=CARTESIAN_POINT('Origin',(0.499999988824129,0.499999988824129,0.499999988824129));
#462=CARTESIAN_POINT('Origin',(1.,0.499999988824129,0.499999988824129));
#463=CARTESIAN_POINT('',(0.,0.499999988824129,0.749999983236194));
#464=CARTESIAN_POINT('',(1.,0.499999988824129,0.749999983236194));
#465=CARTESIAN_POINT('Origin',(0.,0.499999988824129,0.499999988824129));
#466=CARTESIAN_POINT('Origin',(0.499999988824129,0.499999988824129,0.499999988824129));
#467=CARTESIAN_POINT('Origin',(1.,0.499999988824129,0.499999988824129));
#468=CARTESIAN_POINT('',(1.,0.499999988824129,0.749999983236194));
#469=CARTESIAN_POINT('Origin',(1.,0.499999988824129,0.499999988824129));
#470=CARTESIAN_POINT('',(1.,0.499999988824129,0.749999983236194));
#471=CARTESIAN_POINT('',(0.749999983236194,0.749999983236194,0.499999988824129));
#472=CARTESIAN_POINT('Origin',(0.499999988824129,0.499999988824129,0.499999988824129));
#473=CARTESIAN_POINT('Origin',(0.499999988824129,0.499999988824129,0.499999988824129));
#474=CARTESIAN_POINT('Origin',(0.499999988824129,1.,0.499999988824129));
#475=CARTESIAN_POINT('',(0.749999983236194,1.,0.499999988824129));
#476=CARTESIAN_POINT('Origin',(0.499999988824129,1.,0.499999988824129));
#477=CARTESIAN_POINT('',(0.749999983236194,1.,0.499999988824129));
#478=CARTESIAN_POINT('Origin',(0.,0.,0.));
#479=CARTESIAN_POINT('',(0.,0.,0.));
#480=CARTESIAN_POINT('',(0.,0.,1.));
#481=CARTESIAN_POINT('',(0.,0.,0.));
#482=CARTESIAN_POINT('',(0.,1.,1.));
#483=CARTESIAN_POINT('',(0.,0.,1.));
#484=CARTESIAN_POINT('',(0.,1.,0.));
#485=CARTESIAN_POINT('',(0.,1.,0.));
#486=CARTESIAN_POINT('',(0.,0.,0.));
#487=CARTESIAN_POINT('Origin',(1.,0.,0.));
#488=CARTESIAN_POINT('',(1.,0.,0.));
#489=CARTESIAN_POINT('',(1.,0.,1.));
#490=CARTESIAN_POINT('',(1.,0.,0.));
#491=CARTESIAN_POINT('',(1.,1.,0.));
#492=CARTESIAN_POINT('',(1.,0.,0.));
#493=CARTESIAN_POINT('',(1.,1.,1.));
#494=CARTESIAN_POINT('',(1.,1.,0.));
#495=CARTESIAN_POINT('',(1.,0.,1.));
#496=CARTESIAN_POINT('Origin',(0.,0.,0.));
#497=CARTESIAN_POINT('',(0.,0.,0.));
#498=CARTESIAN_POINT('',(0.,0.,1.));
#499=CARTESIAN_POINT('Origin',(0.,1.,0.));
#500=CARTESIAN_POINT('',(0.,1.,0.));
#501=CARTESIAN_POINT('',(0.,1.,1.));
#502=CARTESIAN_POINT('Origin',(0.,0.,0.));
#503=CARTESIAN_POINT('Origin',(0.,0.,1.));
#504=UNCERTAINTY_MEASURE_WITH_UNIT(LENGTH_MEASURE(0.01),#508,
'DISTANCE_ACCURACY_VALUE',
'Maximum model space distance between geometric entities at asserted c
onnectivities');
#505=UNCERTAINTY_MEASURE_WITH_UNIT(LENGTH_MEASURE(0.01),#508,
'DISTANCE_ACCURACY_VALUE',
'Maximum model space distance between geometric entities at asserted c
onnectivities');
#506=(
GEOMETRIC_REPRESENTATION_CONTEXT(3)
GLOBAL_UNCERTAINTY_ASSIGNED_CONTEXT((#504))
GLOBAL_UNIT_ASSIGNED_CONTEXT((#508,#510,#511))
REPRESENTATION_CONTEXT('','3D')
);
#507=(
GEOMETRIC_REPRESENTATION_CONTEXT(3)
GLOBAL_UNCERTAINTY_ASSIGNED_CONTEXT((#505))
GLOBAL_UNIT_ASSIGNED_CONTEXT((#508,#510,#511))
REPRESENTATION_CONTEXT('','3D')
);
#508=(
LENGTH_UNIT()
NAMED_UNIT(*)
SI_UNIT(.MILLI.,.METRE.)
);
#509=(
LENGTH_UNIT()
NAMED_UNIT(*)
SI_UNIT($,.METRE.)
);
#510=(
NAMED_UNIT(*)
PLANE_ANGLE_UNIT()
SI_UNIT($,.RADIAN.)
);
#511=(
NAMED_UNIT(*)
SI_UNIT($,.STERADIAN.)
SOLID_ANGLE_UNIT()
);
#512=SHAPE_DEFINITION_REPRESENTATION(#513,#514);
#513=PRODUCT_DEFINITION_SHAPE('',$,#516);
#514=SHAPE_REPRESENTATION('',(#297),#506);
#515=PRODUCT_DEFINITION_CONTEXT('part definition',#520,'design');
#516=PRODUCT_DEFINITION('(Unsaved)','(Unsaved)',#517,#515);
#517=PRODUCT_DEFINITION_FORMATION('',$,#522);
#518=PRODUCT_RELATED_PRODUCT_CATEGORY('(Unsaved)','(Unsaved)',(#522));
#519=APPLICATION_PROTOCOL_DEFINITION('international standard',
'automotive_design',2009,#520);
#520=APPLICATION_CONTEXT(
'Core Data for Automotive Mechanical Design Process');
#521=PRODUCT_CONTEXT('part definition',#520,'mechanical');
#522=PRODUCT('(Unsaved)','(Unsaved)',$,(#521));
#523=PRESENTATION_STYLE_ASSIGNMENT((#524));
#524=SURFACE_STYLE_USAGE(.BOTH.,#525);
#525=SURFACE_SIDE_STYLE('',(#526));
#526=SURFACE_STYLE_FILL_AREA(#527);
#527=FILL_AREA_STYLE('Steel - Satin',(#528));
#528=FILL_AREA_STYLE_COLOUR('Steel - Satin',#529);
#529=COLOUR_RGB('Steel - Satin',0.627450980392157,0.627450980392157,0.627450980392157);
ENDSEC;
END-ISO-10303-21;
