DBRep_DrawableShape

CASCADE Topology V2, (c) Matra-Datavision
Locations 1
1
              1               0               0               0 
              0               1               0               0 
              0               0               1               0 
Curve2ds 0
Curves 19
2 -25 0 -5 0 1 0 -1 0 0 0 -0 1 11.180339887498899
1 -35 0 5 -1 0 0 
1 -50 0 -5 0 0 1 
2 -40 0 -5 0 1 0 0 0 -1 -1 0 0 10
2 -40 0 -25 0 1 0 0 -0 1 1 0 -0 10
2 -20 0 -25 0 1 0 -2.2204460492503101e-16 0 -1 -1 0 2.2204460492503101e-16 10
1 -20 0 -35 1 0 0 
1 -10 0 -35 0 0 1 
1 -10 0 -30 1 0 0 
1 -5 0 -30 0 0 -1 
1 -5 0 -35 1 0 0 
2 0 0 -30 0 1 0 0 -0 1 1 0 -0 5
1 0 0 -25 0 0 1 
2 5 0 -20 0 1 0 -1 0 0 0 -0 1 5
2 5 0 -12.5 0 1 0 0 -0 1 1 0 -0 2.5
1 5 0 -5 0 0 -1 
2 10 0 -5 0 1 0 -1 0 0 0 -0 1 5
2 10 0 5 0 1 0 0 0 -1 -1 0 0 5
1 -35 0 5 -1 0 0 
Polygon3D 0
PolygonOnTriangulations 0
Surfaces 1
1 -20 0 0 0 1 0 1 0 0 0 0 -1 
Triangulations 0

TShapes 40
Ve
1e-07
-20 0 5
0 0

0101101
*
Ve
1e-07
-30 0 5
0 0

0101101
*
Ed
 1e-07 1 1 0
1  1 0 2.0344439357957 7.39033402497368
0

0101000
+40 0 -39 0 *
Ve
1e-07
-50 0 5
0 0

0101101
*
Ed
 1e-07 1 1 0
1  2 0 -5 15
0

0101000
+39 0 -37 0 *
Ve
1e-07
-50 0 -5
0 0

0101101
*
Ed
 1e-07 1 1 0
1  3 0 0 10
0

0101000
+35 0 -37 0 *
Ve
1e-07
-40 0 -15
0 0

0101101
*
Ed
 1e-07 1 1 0
1  4 0 0 1.5707963267949
0

0101000
+33 0 -35 0 *
Ve
1e-07
-30 0 -25
0 0

0101101
*
Ed
 1e-07 1 1 0
1  5 0 0 1.5707963267949
0

0101000
+33 0 -31 0 *
Ve
1e-07
-20 0 -35
0 0

0101101
*
Ed
 1e-07 1 1 0
1  6 0 0 1.5707963267949
0

0101000
+29 0 -31 0 *
Ve
1e-07
-10 0 -35
0 0

0101101
*
Ed
 1e-07 1 1 0
1  7 0 0 10
0

0101000
+29 0 -27 0 *
Ve
1e-07
-10 0 -30
0 0

0101101
*
Ed
 1e-07 1 1 0
1  8 0 0 5
0

0101000
+27 0 -25 0 *
Ve
1e-07
-5 0 -30
0 0

0101101
*
Ed
 1e-07 1 1 0
1  9 0 0 5
0

0101000
+25 0 -23 0 *
Ve
1e-07
-5 0 -35
0 0

0101101
*
Ed
 1e-07 1 1 0
1  10 0 0 5
0

0101000
+23 0 -21 0 *
Ve
1e-07
3.06161699786838e-16 0 -35
0 0

0101101
*
Ed
 1e-07 1 1 0
1  11 0 0 5
0

0101000
+21 0 -19 0 *
Ve
1e-07
0 0 -25
0 0

0101101
*
Ed
 1e-07 1 1 0
1  12 0 0 3.14159265358979
0

0101000
+17 0 -19 0 *
Ve
1e-07
0 0 -20
0 0

0101101
*
Ed
 1e-07 1 1 0
1  13 0 0 5
0

0101000
+17 0 -15 0 *
Ve
1e-07
5 0 -15
0 0

0101101
*
Ed
 1e-07 1 1 0
1  14 0 0 1.5707963267949
0

0101000
+15 0 -13 0 *
Ve
1e-07
5 0 -10
0 0

0101101
*
Ed
 1e-07 1 1 0
1  15 0 0 3.14159265358979
0

0101000
+11 0 -13 0 *
Ve
1e-07
5 0 -5
0 0

0101101
*
Ed
 1e-07 1 1 0
1  16 0 0 5
0

0101000
+9 0 -11 0 *
Ve
1e-07
10 0 0
0 0

0101101
*
Ed
 1e-07 1 1 0
1  17 0 0 1.5707963267949
0

0101000
+9 0 -7 0 *
Ve
1e-07
5 0 5
0 0

0101101
*
Ed
 1e-07 1 1 0
1  18 0 0 1.5707963267949
0

0101000
+7 0 -5 0 *
Ed
 1e-07 1 1 0
1  19 0 -40 -15
0

0101000
+5 0 -40 0 *
Wi

0101100
+38 0 +36 0 -34 0 -32 0 +30 0 -28 0 +26 0 +24 0 +22 0 +20 0 
+18 0 -16 0 +14 0 +12 0 -10 0 -8 0 +6 0 +4 0 +3 0 *
Fa
0  1e-07 1 0

0101000
-2 0 *

-1 1 