DBRep_DrawableShape

CASCADE Topology V2, (c) Matra-Datavision
Locations 0
Curve2ds 0
Curves 2
2 199.99999999956816 199.99999999988023 0 0 -0 -1 -0.99999292313276111 -0.0037621382744092331 0 -0.0037621382744092331 0.99999292313276111 -0 199.99999999956813
1 0.0104750973595 197.95306834100001 0 -0.0069984349349372556 0.99997551065436663 0 
Polygon3D 0
PolygonOnTriangulations 0
Surfaces 1
1 199.87574758988472 199.9991304061798 0 -0 -0 -1 -1 0 0 0 1 -0 
Triangulations 0

TShapes 6
Ve
1.00010009315529e-07
0.00141537344778931 199.247572345 0
0 0

0101101
*
Ve
1.00010008675352e-07
0.0104750973595087 197.953068341 0
0 0

0101101
*
Ed
 1e-07 1 1 0
1  1 0 0 6.27671261734884
0

0101000
+6 0 -5 0 *
Ed
 1e-07 1 1 0
1  2 0 0 1.29453570633235
0

0101000
+5 0 -6 0 *
Wi

0101100
+4 0 +3 0 *
Fa
0  1e-07 1 0

1101000
+2 0 *

+1 0 