DBRep_DrawableShape

CASCADE Topology V2, (c) Matra-Datavision
Locations 0
Curve2ds 0
Curves 23
1 0 100 0 -1.9737298215555557e-17 -1 0 
2 10 10 0 -0 0 1 -1 0 -0 -0 -1 0 10
2 30 10 0 0 0 -1 -1 0 0 0 1 0 10
2 50 10 0 -0 0 1 -1 0 -0 -0 -1 0 10
2 70 10 0 0 0 -1 -1 0 0 0 1 0 10
2 90 10 0 -0 0 1 -1 0 -0 -0 -1 0 10
2 110 10 0 0 0 -1 -1 0 0 0 1 0 10
2 130 10 0 -0 0 1 -1 0 -0 -0 -1 0 10
2 150 10 0 0 0 -1 -1 0 0 0 1 0 10
2 170 10 0 -0 0 1 -1 0 -0 -0 -1 0 10
2 190 10 0 0 0 -1 -1 0 0 0 1 0 10
2 210 10 0 -0 0 1 -1 0 -0 -0 -1 0 10
2 230 10 0 0 0 -1 -1 0 0 0 1 0 10
2 250 10 0 -0 0 1 -1 0 -0 -0 -1 0 10
2 270 10 0 0 0 -1 -1 0 0 0 1 0 10
2 290 10 0 -0 0 1 -1 0 -0 -0 -1 0 10
2 310 10 0 0 0 -1 -1 0 0 0 1 0 10
2 330 10 0 -0 0 1 -1 0 -0 -0 -1 0 10
2 350 10 0 0 0 -1 -1 0 0 0 1 0 10
2 370 10 0 -0 0 1 -1 0 -0 -0 -1 0 10
2 390 10 0 0 0 -1 -1 0 0 0 1 0 10
1 400 10 0 0 1 0 
1 400 100 0 -1 0 0 
Polygon3D 0
PolygonOnTriangulations 0
Surfaces 1
1 200 47.372881355932201 0 0 0 1 1 0 -0 -0 1 0 
Triangulations 0

TShapes 48
Ve
1e-07
0 100 0
0 0

0101101
*
Ve
1.00010000888267e-07
-8.881784197e-16 10 0
0 0

0101101
*
Ed
 1e-07 1 1 0
1  1 0 0 90
0

0101000
+48 0 -47 0 *
Ve
1.00010000888267e-07
20 10 0
0 0

0101101
*
Ed
 1e-07 1 1 0
1  2 0 0 3.14159265358979
0

0101000
+47 0 -45 0 *
Ve
1.00010000888267e-07
40 10 0
0 0

0101101
*
Ed
 1e-07 1 1 0
1  3 0 0 3.14159265358979
0

0101000
+45 0 -43 0 *
Ve
1.00010000888267e-07
60 10 0
0 0

0101101
*
Ed
 1e-07 1 1 0
1  4 0 0 3.14159265358979
0

0101000
+43 0 -41 0 *
Ve
1.00010000888267e-07
80 10 0
0 0

0101101
*
Ed
 1e-07 1 1 0
1  5 0 0 3.14159265358979
0

0101000
+41 0 -39 0 *
Ve
1.00010000888267e-07
100 10 0
0 0

0101101
*
Ed
 1e-07 1 1 0
1  6 0 0 3.14159265358979
0

0101000
+39 0 -37 0 *
Ve
1.00010000888267e-07
120 10 0
0 0

0101101
*
Ed
 1e-07 1 1 0
1  7 0 0 3.14159265358979
0

0101000
+37 0 -35 0 *
Ve
1.00010000888267e-07
140 10 0
0 0

0101101
*
Ed
 1e-07 1 1 0
1  8 0 0 3.14159265358979
0

0101000
+35 0 -33 0 *
Ve
1.00010000888267e-07
160 10 0
0 0

0101101
*
Ed
 1e-07 1 1 0
1  9 0 0 3.14159265358979
0

0101000
+33 0 -31 0 *
Ve
1.00010000888267e-07
180 10 0
0 0

0101101
*
Ed
 1e-07 1 1 0
1  10 0 0 3.14159265358979
0

0101000
+31 0 -29 0 *
Ve
1.00010000888267e-07
200 10 0
0 0

0101101
*
Ed
 1e-07 1 1 0
1  11 0 0 3.14159265358979
0

0101000
+29 0 -27 0 *
Ve
1.00010000888267e-07
220 10 0
0 0

0101101
*
Ed
 1e-07 1 1 0
1  12 0 0 3.14159265358979
0

0101000
+27 0 -25 0 *
Ve
1.00010000888267e-07
240 10 0
0 0

0101101
*
Ed
 1e-07 1 1 0
1  13 0 0 3.14159265358979
0

0101000
+25 0 -23 0 *
Ve
1.00010000888267e-07
260 10 0
0 0

0101101
*
Ed
 1e-07 1 1 0
1  14 0 0 3.14159265358979
0

0101000
+23 0 -21 0 *
Ve
1.00010000888267e-07
280 10 0
0 0

0101101
*
Ed
 1e-07 1 1 0
1  15 0 0 3.14159265358979
0

0101000
+21 0 -19 0 *
Ve
1.00010000888267e-07
300 10 0
0 0

0101101
*
Ed
 1e-07 1 1 0
1  16 0 0 3.14159265358979
0

0101000
+19 0 -17 0 *
Ve
1.00010000888267e-07
320 10 0
0 0

0101101
*
Ed
 1e-07 1 1 0
1  17 0 0 3.14159265358979
0

0101000
+17 0 -15 0 *
Ve
1.00010000888267e-07
340 10 0
0 0

0101101
*
Ed
 1e-07 1 1 0
1  18 0 0 3.14159265358979
0

0101000
+15 0 -13 0 *
Ve
1.00010000888267e-07
360 10 0
0 0

0101101
*
Ed
 1e-07 1 1 0
1  19 0 0 3.14159265358979
0

0101000
+13 0 -11 0 *
Ve
1.00010000888267e-07
380 10 0
0 0

0101101
*
Ed
 1e-07 1 1 0
1  20 0 0 3.14159265358979
0

0101000
+11 0 -9 0 *
Ve
1.00010000888267e-07
400 10 0
0 0

0101101
*
Ed
 1e-07 1 1 0
1  21 0 0 3.14159265358979
0

0101000
+9 0 -7 0 *
Ve
1e-07
400 100 0
0 0

0101101
*
Ed
 1e-07 1 1 0
1  22 0 0 90
0

0101000
+7 0 -5 0 *
Ed
 1e-07 1 1 0
1  23 0 0 400
0

0101000
+5 0 -48 0 *
Wi

0101100
+46 0 +44 0 +42 0 +40 0 +38 0 +36 0 +34 0 +32 0 +30 0 +28 0 
+26 0 +24 0 +22 0 +20 0 +18 0 +16 0 +14 0 +12 0 +10 0 +8 0 
+6 0 +4 0 +3 0 *
Fa
0  1e-07 1 0

1101000
+2 0 *

+1 0 