DBRep_DrawableShape

CASCADE Topology V2, (c) Matra-Datavision
Locations 0
Curve2ds 0
Curves 103
1 0 100 0 0 -1 0 
2 2 2 0 0 0 -1 -1 0 0 0 1 0 2
2 6 2 0 -0 0 1 -1 0 -0 -0 -1 0 2
2 10 1.9999999999999998 0 0 0 -1 -1 1.1102230246251565e-16 0 1.1102230246251565e-16 1 0 2
2 14 2 0 -0 0 1 -1 0 -0 -0 -1 0 2
2 18 1.9999999999999998 0 0 0 -1 -1 1.1102230246251565e-16 0 1.1102230246251565e-16 1 0 2
2 22 2 0 -0 0 1 -1 0 -0 -0 -1 0 2
2 26 1.9999999999999998 0 0 0 -1 -1 1.1102230246251565e-16 0 1.1102230246251565e-16 1 0 2
2 30 2 0 -0 0 1 -1 0 -0 -0 -1 0 2
2 34 1.9999999999999998 0 0 0 -1 -1 1.1102230246251565e-16 0 1.1102230246251565e-16 1 0 2
2 38 2 0 -0 0 1 -1 0 -0 -0 -1 0 2
2 42 1.9999999999999998 0 0 0 -1 -1 1.1102230246251565e-16 0 1.1102230246251565e-16 1 0 2
2 46 2 0 -0 0 1 -1 0 -0 -0 -1 0 2
2 50 1.9999999999999998 0 0 0 -1 -1 1.1102230246251565e-16 0 1.1102230246251565e-16 1 0 2
2 54 2 0 -0 0 1 -1 0 -0 -0 -1 0 2
2 58 1.9999999999999998 0 0 0 -1 -1 1.1102230246251565e-16 0 1.1102230246251565e-16 1 0 2
2 62 2 0 -0 0 1 -1 0 -0 -0 -1 0 2
2 66 1.9999999999999998 0 0 0 -1 -1 1.1102230246251565e-16 0 1.1102230246251565e-16 1 0 2
2 70 2 0 -0 0 1 -1 0 -0 -0 -1 0 2
2 74 1.9999999999999998 0 0 0 -1 -1 1.1102230246251565e-16 0 1.1102230246251565e-16 1 0 2
2 78 2 0 -0 0 1 -1 0 -0 -0 -1 0 2
2 82 1.9999999999999998 0 0 0 -1 -1 1.1102230246251565e-16 0 1.1102230246251565e-16 1 0 2
2 86 2 0 -0 0 1 -1 0 -0 -0 -1 0 2
2 90 1.9999999999999998 0 0 0 -1 -1 1.1102230246251565e-16 0 1.1102230246251565e-16 1 0 2
2 94 2 0 -0 0 1 -1 0 -0 -0 -1 0 2
2 98 1.9999999999999998 0 0 0 -1 -1 1.1102230246251565e-16 0 1.1102230246251565e-16 1 0 2
2 102 2 0 -0 0 1 -1 0 -0 -0 -1 0 2
2 106 1.9999999999999998 0 0 0 -1 -1 1.1102230246251565e-16 0 1.1102230246251565e-16 1 0 2
2 110 2 0 -0 0 1 -1 0 -0 -0 -1 0 2
2 114 1.9999999999999998 0 0 0 -1 -1 1.1102230246251565e-16 0 1.1102230246251565e-16 1 0 2
2 118 2 0 -0 0 1 -1 0 -0 -0 -1 0 2
2 122 1.9999999999999998 0 0 0 -1 -1 1.1102230246251565e-16 0 1.1102230246251565e-16 1 0 2
2 126 2 0 -0 0 1 -1 0 -0 -0 -1 0 2
2 130 1.9999999999999998 0 0 0 -1 -1 1.1102230246251565e-16 0 1.1102230246251565e-16 1 0 2
2 134 2 0 -0 0 1 -1 0 -0 -0 -1 0 2
2 138 1.9999999999999998 0 0 0 -1 -1 1.1102230246251565e-16 0 1.1102230246251565e-16 1 0 2
2 142 2 0 -0 0 1 -1 0 -0 -0 -1 0 2
2 146 1.9999999999999998 0 0 0 -1 -1 1.1102230246251565e-16 0 1.1102230246251565e-16 1 0 2
2 150 2 0 -0 0 1 -1 0 -0 -0 -1 0 2
2 154 1.9999999999999998 0 0 0 -1 -1 1.1102230246251565e-16 0 1.1102230246251565e-16 1 0 2
2 158 2 0 -0 0 1 -1 0 -0 -0 -1 0 2
2 162 1.9999999999999998 0 0 0 -1 -1 1.1102230246251565e-16 0 1.1102230246251565e-16 1 0 2
2 166 2 0 -0 0 1 -1 0 -0 -0 -1 0 2
2 170 1.9999999999999998 0 0 0 -1 -1 1.1102230246251565e-16 0 1.1102230246251565e-16 1 0 2
2 174 2 0 -0 0 1 -1 0 -0 -0 -1 0 2
2 178 1.9999999999999998 0 0 0 -1 -1 1.1102230246251565e-16 0 1.1102230246251565e-16 1 0 2
2 182 2 0 -0 0 1 -1 0 -0 -0 -1 0 2
2 186 1.9999999999999998 0 0 0 -1 -1 1.1102230246251565e-16 0 1.1102230246251565e-16 1 0 2
2 190 2 0 -0 0 1 -1 0 -0 -0 -1 0 2
2 194 1.9999999999999998 0 0 0 -1 -1 1.1102230246251565e-16 0 1.1102230246251565e-16 1 0 2
2 198 2 0 -0 0 1 -1 0 -0 -0 -1 0 2
2 202 1.9999999999999998 0 0 0 -1 -1 1.1102230246251565e-16 0 1.1102230246251565e-16 1 0 2
2 206 2 0 -0 0 1 -1 0 -0 -0 -1 0 2
2 210 1.9999999999999998 0 0 0 -1 -1 1.1102230246251565e-16 0 1.1102230246251565e-16 1 0 2
2 214 2 0 -0 0 1 -1 0 -0 -0 -1 0 2
2 218 1.9999999999999998 0 0 0 -1 -1 1.1102230246251565e-16 0 1.1102230246251565e-16 1 0 2
2 222 2 0 -0 0 1 -1 0 -0 -0 -1 0 2
2 226 1.9999999999999998 0 0 0 -1 -1 1.1102230246251565e-16 0 1.1102230246251565e-16 1 0 2
2 230 2 0 -0 0 1 -1 0 -0 -0 -1 0 2
2 234 1.9999999999999998 0 0 0 -1 -1 1.1102230246251565e-16 0 1.1102230246251565e-16 1 0 2
2 238 2 0 -0 0 1 -1 0 -0 -0 -1 0 2
2 242 1.9999999999999998 0 0 0 -1 -1 1.1102230246251565e-16 0 1.1102230246251565e-16 1 0 2
2 246 2 0 -0 0 1 -1 0 -0 -0 -1 0 2
2 250 1.9999999999999998 0 0 0 -1 -1 1.1102230246251565e-16 0 1.1102230246251565e-16 1 0 2
2 254 2 0 -0 0 1 -1 0 -0 -0 -1 0 2
2 258 1.9999999999999998 0 0 0 -1 -1 1.1102230246251565e-16 0 1.1102230246251565e-16 1 0 2
2 262 2 0 -0 0 1 -1 0 -0 -0 -1 0 2
2 266 1.9999999999999998 0 0 0 -1 -1 1.1102230246251565e-16 0 1.1102230246251565e-16 1 0 2
2 270 2 0 -0 0 1 -1 0 -0 -0 -1 0 2
2 274 1.9999999999999998 0 0 0 -1 -1 1.1102230246251565e-16 0 1.1102230246251565e-16 1 0 2
2 278 2 0 -0 0 1 -1 0 -0 -0 -1 0 2
2 282 1.9999999999999998 0 0 0 -1 -1 1.1102230246251565e-16 0 1.1102230246251565e-16 1 0 2
2 286 2 0 -0 0 1 -1 0 -0 -0 -1 0 2
2 290 1.9999999999999998 0 0 0 -1 -1 1.1102230246251565e-16 0 1.1102230246251565e-16 1 0 2
2 294 2 0 -0 0 1 -1 0 -0 -0 -1 0 2
2 298 1.9999999999999998 0 0 0 -1 -1 1.1102230246251565e-16 0 1.1102230246251565e-16 1 0 2
2 302 2 0 -0 0 1 -1 0 -0 -0 -1 0 2
2 306 1.9999999999999998 0 0 0 -1 -1 1.1102230246251565e-16 0 1.1102230246251565e-16 1 0 2
2 310 2 0 -0 0 1 -1 0 -0 -0 -1 0 2
2 314 1.9999999999999998 0 0 0 -1 -1 1.1102230246251565e-16 0 1.1102230246251565e-16 1 0 2
2 318 2 0 -0 0 1 -1 0 -0 -0 -1 0 2
2 322 1.9999999999999998 0 0 0 -1 -1 1.1102230246251565e-16 0 1.1102230246251565e-16 1 0 2
2 326 2 0 -0 0 1 -1 0 -0 -0 -1 0 2
2 330 1.9999999999999998 0 0 0 -1 -1 1.1102230246251565e-16 0 1.1102230246251565e-16 1 0 2
2 334 2 0 -0 0 1 -1 0 -0 -0 -1 0 2
2 338 1.9999999999999998 0 0 0 -1 -1 1.1102230246251565e-16 0 1.1102230246251565e-16 1 0 2
2 342 2 0 -0 0 1 -1 0 -0 -0 -1 0 2
2 346 1.9999999999999998 0 0 0 -1 -1 1.1102230246251565e-16 0 1.1102230246251565e-16 1 0 2
2 350 2 0 -0 0 1 -1 0 -0 -0 -1 0 2
2 354 1.9999999999999998 0 0 0 -1 -1 1.1102230246251565e-16 0 1.1102230246251565e-16 1 0 2
2 358 2 0 -0 0 1 -1 0 -0 -0 -1 0 2
2 362 1.9999999999999998 0 0 0 -1 -1 1.1102230246251565e-16 0 1.1102230246251565e-16 1 0 2
2 366 2 0 -0 0 1 -1 0 -0 -0 -1 0 2
2 370 1.9999999999999998 0 0 0 -1 -1 1.1102230246251565e-16 0 1.1102230246251565e-16 1 0 2
2 374 2 0 -0 0 1 -1 0 -0 -0 -1 0 2
2 378 1.9999999999999998 0 0 0 -1 -1 1.1102230246251565e-16 0 1.1102230246251565e-16 1 0 2
2 382 2 0 -0 0 1 -1 0 -0 -0 -1 0 2
2 386 1.9999999999999998 0 0 0 -1 -1 1.1102230246251565e-16 0 1.1102230246251565e-16 1 0 2
2 390 2 0 -0 0 1 -1 0 -0 -0 -1 0 2
2 394 1.9999999999999998 0 0 0 -1 -1 1.1102230246251565e-16 0 1.1102230246251565e-16 1 0 2
2 398 2 0 -0 0 1 -1 0 -0 -0 -1 0 2
1 400 2 0 0 1 0 
1 400 100 0 -1 0 0 
Polygon3D 0
PolygonOnTriangulations 0
Surfaces 1
1 200 42.80602006688963 0 0 0 1 1 0 -0 -0 1 0 
Triangulations 0

TShapes 208
Ve
1e-07
0 100 0
0 0

0101101
*
Ve
1e-07
0 2 0
0 0

0101101
*
Ed
 1e-07 1 1 0
1  1 0 0 98
0

0101000
+208 0 -207 0 *
Ve
1.00010000222067e-07
4 2 0
0 0

0101101
*
Ed
 1e-07 1 1 0
1  2 0 0 3.14159265358979
0

0101000
+207 0 -205 0 *
Ve
1.00010000111033e-07
8 2 0
0 0

0101101
*
Ed
 1e-07 1 1 0
1  3 0 0 3.14159265358979
0

0101000
+205 0 -203 0 *
Ve
1.00010000111033e-07
12 2 0
0 0

0101101
*
Ed
 1e-07 1 1 0
1  4 0 0 3.14159265358979
0

0101000
+203 0 -201 0 *
Ve
1.00010000111033e-07
16 2 0
0 0

0101101
*
Ed
 1e-07 1 1 0
1  5 0 0 3.14159265358979
0

0101000
+201 0 -199 0 *
Ve
1.00010000111033e-07
20 2 0
0 0

0101101
*
Ed
 1e-07 1 1 0
1  6 0 0 3.14159265358979
0

0101000
+199 0 -197 0 *
Ve
1.00010000111033e-07
24 2 0
0 0

0101101
*
Ed
 1e-07 1 1 0
1  7 0 0 3.14159265358979
0

0101000
+197 0 -195 0 *
Ve
1.00010000111033e-07
28 2 0
0 0

0101101
*
Ed
 1e-07 1 1 0
1  8 0 0 3.14159265358979
0

0101000
+195 0 -193 0 *
Ve
1.00010000111033e-07
32 2 0
0 0

0101101
*
Ed
 1e-07 1 1 0
1  9 0 0 3.14159265358979
0

0101000
+193 0 -191 0 *
Ve
1.00010000111033e-07
36 2 0
0 0

0101101
*
Ed
 1e-07 1 1 0
1  10 0 0 3.14159265358979
0

0101000
+191 0 -189 0 *
Ve
1.00010000111033e-07
40 2 0
0 0

0101101
*
Ed
 1e-07 1 1 0
1  11 0 0 3.14159265358979
0

0101000
+189 0 -187 0 *
Ve
1.00010000111033e-07
44 2 0
0 0

0101101
*
Ed
 1e-07 1 1 0
1  12 0 0 3.14159265358979
0

0101000
+187 0 -185 0 *
Ve
1.00010000111033e-07
48 2 0
0 0

0101101
*
Ed
 1e-07 1 1 0
1  13 0 0 3.14159265358979
0

0101000
+185 0 -183 0 *
Ve
1.00010000111033e-07
52 2 0
0 0

0101101
*
Ed
 1e-07 1 1 0
1  14 0 0 3.14159265358979
0

0101000
+183 0 -181 0 *
Ve
1.00010000111033e-07
56 2 0
0 0

0101101
*
Ed
 1e-07 1 1 0
1  15 0 0 3.14159265358979
0

0101000
+181 0 -179 0 *
Ve
1.00010000111033e-07
60 2 0
0 0

0101101
*
Ed
 1e-07 1 1 0
1  16 0 0 3.14159265358979
0

0101000
+179 0 -177 0 *
Ve
1.00010000111033e-07
64 2 0
0 0

0101101
*
Ed
 1e-07 1 1 0
1  17 0 0 3.14159265358979
0

0101000
+177 0 -175 0 *
Ve
1.00010000111033e-07
68 2 0
0 0

0101101
*
Ed
 1e-07 1 1 0
1  18 0 0 3.14159265358979
0

0101000
+175 0 -173 0 *
Ve
1.00010000111033e-07
72 2 0
0 0

0101101
*
Ed
 1e-07 1 1 0
1  19 0 0 3.14159265358979
0

0101000
+173 0 -171 0 *
Ve
1.00010000111033e-07
76 2 0
0 0

0101101
*
Ed
 1e-07 1 1 0
1  20 0 0 3.14159265358979
0

0101000
+171 0 -169 0 *
Ve
1.00010000111033e-07
80 2 0
0 0

0101101
*
Ed
 1e-07 1 1 0
1  21 0 0 3.14159265358979
0

0101000
+169 0 -167 0 *
Ve
1.00010000111033e-07
84 2 0
0 0

0101101
*
Ed
 1e-07 1 1 0
1  22 0 0 3.14159265358979
0

0101000
+167 0 -165 0 *
Ve
1.00010000111033e-07
88 2 0
0 0

0101101
*
Ed
 1e-07 1 1 0
1  23 0 0 3.14159265358979
0

0101000
+165 0 -163 0 *
Ve
1.00010000111033e-07
92 2 0
0 0

0101101
*
Ed
 1e-07 1 1 0
1  24 0 0 3.14159265358979
0

0101000
+163 0 -161 0 *
Ve
1.00010000111033e-07
96 2 0
0 0

0101101
*
Ed
 1e-07 1 1 0
1  25 0 0 3.14159265358979
0

0101000
+161 0 -159 0 *
Ve
1.00010000111033e-07
100 2 0
0 0

0101101
*
Ed
 1e-07 1 1 0
1  26 0 0 3.14159265358979
0

0101000
+159 0 -157 0 *
Ve
1.00010000111033e-07
104 2 0
0 0

0101101
*
Ed
 1e-07 1 1 0
1  27 0 0 3.14159265358979
0

0101000
+157 0 -155 0 *
Ve
1.00010000111033e-07
108 2 0
0 0

0101101
*
Ed
 1e-07 1 1 0
1  28 0 0 3.14159265358979
0

0101000
+155 0 -153 0 *
Ve
1.00010000111033e-07
112 2 0
0 0

0101101
*
Ed
 1e-07 1 1 0
1  29 0 0 3.14159265358979
0

0101000
+153 0 -151 0 *
Ve
1.00010000111033e-07
116 2 0
0 0

0101101
*
Ed
 1e-07 1 1 0
1  30 0 0 3.14159265358979
0

0101000
+151 0 -149 0 *
Ve
1.00010000111033e-07
120 2 0
0 0

0101101
*
Ed
 1e-07 1 1 0
1  31 0 0 3.14159265358979
0

0101000
+149 0 -147 0 *
Ve
1.00010000111033e-07
124 2 0
0 0

0101101
*
Ed
 1e-07 1 1 0
1  32 0 0 3.14159265358979
0

0101000
+147 0 -145 0 *
Ve
1.00010000111033e-07
128 2 0
0 0

0101101
*
Ed
 1e-07 1 1 0
1  33 0 0 3.14159265358979
0

0101000
+145 0 -143 0 *
Ve
1.00010000111033e-07
132 2 0
0 0

0101101
*
Ed
 1e-07 1 1 0
1  34 0 0 3.14159265358979
0

0101000
+143 0 -141 0 *
Ve
1.00010000111033e-07
136 2 0
0 0

0101101
*
Ed
 1e-07 1 1 0
1  35 0 0 3.14159265358979
0

0101000
+141 0 -139 0 *
Ve
1.00010000111033e-07
140 2 0
0 0

0101101
*
Ed
 1e-07 1 1 0
1  36 0 0 3.14159265358979
0

0101000
+139 0 -137 0 *
Ve
1.00010000111033e-07
144 2 0
0 0

0101101
*
Ed
 1e-07 1 1 0
1  37 0 0 3.14159265358979
0

0101000
+137 0 -135 0 *
Ve
1.00010000111033e-07
148 2 0
0 0

0101101
*
Ed
 1e-07 1 1 0
1  38 0 0 3.14159265358979
0

0101000
+135 0 -133 0 *
Ve
1.00010000111033e-07
152 2 0
0 0

0101101
*
Ed
 1e-07 1 1 0
1  39 0 0 3.14159265358979
0

0101000
+133 0 -131 0 *
Ve
1.00010000111033e-07
156 2 0
0 0

0101101
*
Ed
 1e-07 1 1 0
1  40 0 0 3.14159265358979
0

0101000
+131 0 -129 0 *
Ve
1.00010000111033e-07
160 2 0
0 0

0101101
*
Ed
 1e-07 1 1 0
1  41 0 0 3.14159265358979
0

0101000
+129 0 -127 0 *
Ve
1.00010000111033e-07
164 2 0
0 0

0101101
*
Ed
 1e-07 1 1 0
1  42 0 0 3.14159265358979
0

0101000
+127 0 -125 0 *
Ve
1.00010000111033e-07
168 2 0
0 0

0101101
*
Ed
 1e-07 1 1 0
1  43 0 0 3.14159265358979
0

0101000
+125 0 -123 0 *
Ve
1.00010000111033e-07
172 2 0
0 0

0101101
*
Ed
 1e-07 1 1 0
1  44 0 0 3.14159265358979
0

0101000
+123 0 -121 0 *
Ve
1.00010000111033e-07
176 2 0
0 0

0101101
*
Ed
 1e-07 1 1 0
1  45 0 0 3.14159265358979
0

0101000
+121 0 -119 0 *
Ve
1.00010000111033e-07
180 2 0
0 0

0101101
*
Ed
 1e-07 1 1 0
1  46 0 0 3.14159265358979
0

0101000
+119 0 -117 0 *
Ve
1.00010000111033e-07
184 2 0
0 0

0101101
*
Ed
 1e-07 1 1 0
1  47 0 0 3.14159265358979
0

0101000
+117 0 -115 0 *
Ve
1.00010000111033e-07
188 2 0
0 0

0101101
*
Ed
 1e-07 1 1 0
1  48 0 0 3.14159265358979
0

0101000
+115 0 -113 0 *
Ve
1.00010000111033e-07
192 2 0
0 0

0101101
*
Ed
 1e-07 1 1 0
1  49 0 0 3.14159265358979
0

0101000
+113 0 -111 0 *
Ve
1.00010000111033e-07
196 2 0
0 0

0101101
*
Ed
 1e-07 1 1 0
1  50 0 0 3.14159265358979
0

0101000
+111 0 -109 0 *
Ve
1.00010000111033e-07
200 2 0
0 0

0101101
*
Ed
 1e-07 1 1 0
1  51 0 0 3.14159265358979
0

0101000
+109 0 -107 0 *
Ve
1.00010000111033e-07
204 2 0
0 0

0101101
*
Ed
 1e-07 1 1 0
1  52 0 0 3.14159265358979
0

0101000
+107 0 -105 0 *
Ve
1.00010000111033e-07
208 2 0
0 0

0101101
*
Ed
 1e-07 1 1 0
1  53 0 0 3.14159265358979
0

0101000
+105 0 -103 0 *
Ve
1.00010000111033e-07
212 2 0
0 0

0101101
*
Ed
 1e-07 1 1 0
1  54 0 0 3.14159265358979
0

0101000
+103 0 -101 0 *
Ve
1.00010000111033e-07
216 2 0
0 0

0101101
*
Ed
 1e-07 1 1 0
1  55 0 0 3.14159265358979
0

0101000
+101 0 -99 0 *
Ve
1.00010000111033e-07
220 2 0
0 0

0101101
*
Ed
 1e-07 1 1 0
1  56 0 0 3.14159265358979
0

0101000
+99 0 -97 0 *
Ve
1.00010000111033e-07
224 2 0
0 0

0101101
*
Ed
 1e-07 1 1 0
1  57 0 0 3.14159265358979
0

0101000
+97 0 -95 0 *
Ve
1.00010000111033e-07
228 2 0
0 0

0101101
*
Ed
 1e-07 1 1 0
1  58 0 0 3.14159265358979
0

0101000
+95 0 -93 0 *
Ve
1.00010000111033e-07
232 2 0
0 0

0101101
*
Ed
 1e-07 1 1 0
1  59 0 0 3.14159265358979
0

0101000
+93 0 -91 0 *
Ve
1.00010000111033e-07
236 2 0
0 0

0101101
*
Ed
 1e-07 1 1 0
1  60 0 0 3.14159265358979
0

0101000
+91 0 -89 0 *
Ve
1.00010000111033e-07
240 2 0
0 0

0101101
*
Ed
 1e-07 1 1 0
1  61 0 0 3.14159265358979
0

0101000
+89 0 -87 0 *
Ve
1.00010000111033e-07
244 2 0
0 0

0101101
*
Ed
 1e-07 1 1 0
1  62 0 0 3.14159265358979
0

0101000
+87 0 -85 0 *
Ve
1.00010000111033e-07
248 2 0
0 0

0101101
*
Ed
 1e-07 1 1 0
1  63 0 0 3.14159265358979
0

0101000
+85 0 -83 0 *
Ve
1.00010000111033e-07
252 2 0
0 0

0101101
*
Ed
 1e-07 1 1 0
1  64 0 0 3.14159265358979
0

0101000
+83 0 -81 0 *
Ve
1.00010000111033e-07
256 2 0
0 0

0101101
*
Ed
 1e-07 1 1 0
1  65 0 0 3.14159265358979
0

0101000
+81 0 -79 0 *
Ve
1.00010000111033e-07
260 2 0
0 0

0101101
*
Ed
 1e-07 1 1 0
1  66 0 0 3.14159265358979
0

0101000
+79 0 -77 0 *
Ve
1.00010000111033e-07
264 2 0
0 0

0101101
*
Ed
 1e-07 1 1 0
1  67 0 0 3.14159265358979
0

0101000
+77 0 -75 0 *
Ve
1.00010000111033e-07
268 2 0
0 0

0101101
*
Ed
 1e-07 1 1 0
1  68 0 0 3.14159265358979
0

0101000
+75 0 -73 0 *
Ve
1.00010000111033e-07
272 2 0
0 0

0101101
*
Ed
 1e-07 1 1 0
1  69 0 0 3.14159265358979
0

0101000
+73 0 -71 0 *
Ve
1.00010000111033e-07
276 2 0
0 0

0101101
*
Ed
 1e-07 1 1 0
1  70 0 0 3.14159265358979
0

0101000
+71 0 -69 0 *
Ve
1.00010000111033e-07
280 2 0
0 0

0101101
*
Ed
 1e-07 1 1 0
1  71 0 0 3.14159265358979
0

0101000
+69 0 -67 0 *
Ve
1.00010000111033e-07
284 2 0
0 0

0101101
*
Ed
 1e-07 1 1 0
1  72 0 0 3.14159265358979
0

0101000
+67 0 -65 0 *
Ve
1.00010000111033e-07
288 2 0
0 0

0101101
*
Ed
 1e-07 1 1 0
1  73 0 0 3.14159265358979
0

0101000
+65 0 -63 0 *
Ve
1.00010000111033e-07
292 2 0
0 0

0101101
*
Ed
 1e-07 1 1 0
1  74 0 0 3.14159265358979
0

0101000
+63 0 -61 0 *
Ve
1.00010000111033e-07
296 2 0
0 0

0101101
*
Ed
 1e-07 1 1 0
1  75 0 0 3.14159265358979
0

0101000
+61 0 -59 0 *
Ve
1.00010000111033e-07
300 2 0
0 0

0101101
*
Ed
 1e-07 1 1 0
1  76 0 0 3.14159265358979
0

0101000
+59 0 -57 0 *
Ve
1.00010000111033e-07
304 2 0
0 0

0101101
*
Ed
 1e-07 1 1 0
1  77 0 0 3.14159265358979
0

0101000
+57 0 -55 0 *
Ve
1.00010000111033e-07
308 2 0
0 0

0101101
*
Ed
 1e-07 1 1 0
1  78 0 0 3.14159265358979
0

0101000
+55 0 -53 0 *
Ve
1.00010000111033e-07
312 2 0
0 0

0101101
*
Ed
 1e-07 1 1 0
1  79 0 0 3.14159265358979
0

0101000
+53 0 -51 0 *
Ve
1.00010000111033e-07
316 2 0
0 0

0101101
*
Ed
 1e-07 1 1 0
1  80 0 0 3.14159265358979
0

0101000
+51 0 -49 0 *
Ve
1.00010000111033e-07
320 2 0
0 0

0101101
*
Ed
 1e-07 1 1 0
1  81 0 0 3.14159265358979
0

0101000
+49 0 -47 0 *
Ve
1.00010000111033e-07
324 2 0
0 0

0101101
*
Ed
 1e-07 1 1 0
1  82 0 0 3.14159265358979
0

0101000
+47 0 -45 0 *
Ve
1.00010000111033e-07
328 2 0
0 0

0101101
*
Ed
 1e-07 1 1 0
1  83 0 0 3.14159265358979
0

0101000
+45 0 -43 0 *
Ve
1.00010000111033e-07
332 2 0
0 0

0101101
*
Ed
 1e-07 1 1 0
1  84 0 0 3.14159265358979
0

0101000
+43 0 -41 0 *
Ve
1.00010000111033e-07
336 2 0
0 0

0101101
*
Ed
 1e-07 1 1 0
1  85 0 0 3.14159265358979
0

0101000
+41 0 -39 0 *
Ve
1.00010000111033e-07
340 2 0
0 0

0101101
*
Ed
 1e-07 1 1 0
1  86 0 0 3.14159265358979
0

0101000
+39 0 -37 0 *
Ve
1.00010000111033e-07
344 2 0
0 0

0101101
*
Ed
 1e-07 1 1 0
1  87 0 0 3.14159265358979
0

0101000
+37 0 -35 0 *
Ve
1.00010000111033e-07
348 2 0
0 0

0101101
*
Ed
 1e-07 1 1 0
1  88 0 0 3.14159265358979
0

0101000
+35 0 -33 0 *
Ve
1.00010000111033e-07
352 2 0
0 0

0101101
*
Ed
 1e-07 1 1 0
1  89 0 0 3.14159265358979
0

0101000
+33 0 -31 0 *
Ve
1.00010000111033e-07
356 2 0
0 0

0101101
*
Ed
 1e-07 1 1 0
1  90 0 0 3.14159265358979
0

0101000
+31 0 -29 0 *
Ve
1.00010000111033e-07
360 2 0
0 0

0101101
*
Ed
 1e-07 1 1 0
1  91 0 0 3.14159265358979
0

0101000
+29 0 -27 0 *
Ve
1.00010000111033e-07
364 2 0
0 0

0101101
*
Ed
 1e-07 1 1 0
1  92 0 0 3.14159265358979
0

0101000
+27 0 -25 0 *
Ve
1.00010000111033e-07
368 2 0
0 0

0101101
*
Ed
 1e-07 1 1 0
1  93 0 0 3.14159265358979
0

0101000
+25 0 -23 0 *
Ve
1.00010000111033e-07
372 2 0
0 0

0101101
*
Ed
 1e-07 1 1 0
1  94 0 0 3.14159265358979
0

0101000
+23 0 -21 0 *
Ve
1.00010000111033e-07
376 2 0
0 0

0101101
*
Ed
 1e-07 1 1 0
1  95 0 0 3.14159265358979
0

0101000
+21 0 -19 0 *
Ve
1.00010000111033e-07
380 2 0
0 0

0101101
*
Ed
 1e-07 1 1 0
1  96 0 0 3.14159265358979
0

0101000
+19 0 -17 0 *
Ve
1.00010000111033e-07
384 2 0
0 0

0101101
*
Ed
 1e-07 1 1 0
1  97 0 0 3.14159265358979
0

0101000
+17 0 -15 0 *
Ve
1.00010000111033e-07
388 2 0
0 0

0101101
*
Ed
 1e-07 1 1 0
1  98 0 0 3.14159265358979
0

0101000
+15 0 -13 0 *
Ve
1.00010000111033e-07
392 2 0
0 0

0101101
*
Ed
 1e-07 1 1 0
1  99 0 0 3.14159265358979
0

0101000
+13 0 -11 0 *
Ve
1.00010000111033e-07
396 2 0
0 0

0101101
*
Ed
 1e-07 1 1 0
1  100 0 0 3.14159265358979
0

0101000
+11 0 -9 0 *
Ve
1.00010000111033e-07
400 2 0
0 0

0101101
*
Ed
 1e-07 1 1 0
1  101 0 0 3.14159265358979
0

0101000
+9 0 -7 0 *
Ve
1e-07
400 100 0
0 0

0101101
*
Ed
 1e-07 1 1 0
1  102 0 0 98
0

0101000
+7 0 -5 0 *
Ed
 1e-07 1 1 0
1  103 0 0 400
0

0101000
+5 0 -208 0 *
Wi

0101100
+206 0 +204 0 +202 0 +200 0 +198 0 +196 0 +194 0 +192 0 +190 0 +188 0 
+186 0 +184 0 +182 0 +180 0 +178 0 +176 0 +174 0 +172 0 +170 0 +168 0 
+166 0 +164 0 +162 0 +160 0 +158 0 +156 0 +154 0 +152 0 +150 0 +148 0 
+146 0 +144 0 +142 0 +140 0 +138 0 +136 0 +134 0 +132 0 +130 0 +128 0 
+126 0 +124 0 +122 0 +120 0 +118 0 +116 0 +114 0 +112 0 +110 0 +108 0 
+106 0 +104 0 +102 0 +100 0 +98 0 +96 0 +94 0 +92 0 +90 0 +88 0 
+86 0 +84 0 +82 0 +80 0 +78 0 +76 0 +74 0 +72 0 +70 0 +68 0 
+66 0 +64 0 +62 0 +60 0 +58 0 +56 0 +54 0 +52 0 +50 0 +48 0 
+46 0 +44 0 +42 0 +40 0 +38 0 +36 0 +34 0 +32 0 +30 0 +28 0 
+26 0 +24 0 +22 0 +20 0 +18 0 +16 0 +14 0 +12 0 +10 0 +8 0 
+6 0 +4 0 +3 0 *
Fa
0  1e-07 1 0

1101000
+2 0 *

+1 0 