ISO-10303-21;
HEADER;
FILE_DESCRIPTION (( 'STEP AP203' ),
    '1' );
FILE_NAME ('DSV-239.STEP',
    '2023-05-30T12:38:55',
    ( 'Gebruiker' ),
    ( '' ),
    'SwSTEP 2.0',
    'SolidWorks 2021',
    '' );
FILE_SCHEMA (( 'CONFIG_CONTROL_DESIGN' ));
ENDSEC;

DATA;
#1 = CARTESIAN_POINT ( 'NONE',  ( -597.8979996804107486, 200.0000000000000000, -155.0364465645024268 ) ) ;
#2 = CARTESIAN_POINT ( 'NONE',  ( 135.8983232136005199, -21.17154803443884958, -0.9393939300579233764 ) ) ;
#3 = CARTESIAN_POINT ( 'NONE',  ( 136.0000000000000000, 200.0000000000000000, -155.0364465645025689 ) ) ;
#4 = CARTESIAN_POINT ( 'NONE',  ( -147.3904474737477415, -187.5994902993341213, 581.0365231222966713 ) ) ;
#5 = APPROVAL ( #223, 'UNSPECIFIED' ) ;
#6 = AXIS2_PLACEMENT_3D ( 'NONE', #619, #821, #557 ) ;
#7 = CARTESIAN_POINT ( 'NONE',  ( -140.0469615047199454, -170.3366867685405168, 565.9801456294148920 ) ) ;
#8 = CARTESIAN_POINT ( 'NONE',  ( -136.2284821560140244, -166.3525671923413540, 558.1511027517747152 ) ) ;
#9 = DIRECTION ( 'NONE',  ( 4.236401844290250540E-33, 1.000000000000000000, 2.157997258206373886E-17 ) ) ;
#10 = CARTESIAN_POINT ( 'NONE',  ( -136.2872197414151287, -186.3223879719290608, 585.6455970412235956 ) ) ;
#11 = EDGE_CURVE ( 'NONE', #434, #755, #484, .T. ) ;
#12 = DIRECTION ( 'NONE',  ( 2.376499042043254194E-17, 1.000000000000000000, -5.219097730081133959E-17 ) ) ;
#13 = ADVANCED_FACE ( 'NONE', ( #456 ), #42, .F. ) ;
#14 = CARTESIAN_POINT ( 'NONE',  ( -127.8571014917664570, -168.5122464582001953, 568.3612932090012464 ) ) ;
#15 = CARTESIAN_POINT ( 'NONE',  ( 124.2000000000000313, 199.9999999999999432, -2.724244655281659711 ) ) ;
#16 =( BOUNDED_CURVE ( )  B_SPLINE_CURVE ( 3, ( #772, #173, #523, #70 ),
 .UNSPECIFIED., .F., .F. ) 
 B_SPLINE_CURVE_WITH_KNOTS ( ( 4, 4 ),
 ( 3.141592653589793116, 6.283185307179586232 ),
 .UNSPECIFIED. ) 
 CURVE ( )  GEOMETRIC_REPRESENTATION_ITEM ( )  RATIONAL_B_SPLINE_CURVE ( ( 1.000000000000000000, 0.3333333333333333703, 0.3333333333333333703, 1.000000000000000000 ) ) 
 REPRESENTATION_ITEM ( '' )  );
#17 = CARTESIAN_POINT ( 'NONE',  ( -146.5533241333368721, -184.4554989819231423, 579.3201659215764039 ) ) ;
#18 = ADVANCED_FACE ( 'NONE', ( #784 ), #751, .T. ) ;
#19 = CARTESIAN_POINT ( 'NONE',  ( -105.1041307339931592, -94.07270324653603666, 494.3367254645414164 ) ) ;
#20 = CARTESIAN_POINT ( 'NONE',  ( -132.1524922060499705, -175.0778200906460995, 577.1681492915829494 ) ) ;
#21 = EDGE_CURVE ( 'NONE', #126, #761, #473, .T. ) ;
#22 = DIRECTION ( 'NONE',  ( -0.3982560015876359105, -0.4179056082321442878, 0.8165458099871375497 ) ) ;
#23 = CARTESIAN_POINT ( 'NONE',  ( 148.0000000000000284, 200.0000000000000000, 2.770418293506743623 ) ) ;
#24 = DIRECTION ( 'NONE',  ( 1.000000000000000000, 0.000000000000000000, -1.963117343258975623E-16 ) ) ;
#25 = PERSON_AND_ORGANIZATION_ROLE ( 'design_owner' ) ;
#26 = CARTESIAN_POINT ( 'NONE',  ( -136.2872197414143329, -186.3223879719290608, 585.6455970412239367 ) ) ;
#27 = DIRECTION ( 'NONE',  ( 0.4383711467890785696, -5.732682577254064654E-17, -0.8987940462991664825 ) ) ;
#28 = AXIS2_PLACEMENT_3D ( 'NONE', #802, #651, #810 ) ;
#29 = CARTESIAN_POINT ( 'NONE',  ( -135.0174213715460496, -182.0320617036269937, 583.0421245654525819 ) ) ;
#30 = ADVANCED_FACE ( 'NONE', ( #460 ), #470, .T. ) ;
#31 = DIRECTION ( 'NONE',  ( 1.000000000000000000, 0.000000000000000000, -1.963117343258975623E-16 ) ) ;
#32 = CARTESIAN_POINT ( 'NONE',  ( -135.7677955777458862, -184.4554989819231423, 584.5806196830458248 ) ) ;
#33 = EDGE_CURVE ( 'NONE', #79, #414, #467, .T. ) ;
#34 = AXIS2_PLACEMENT_3D ( 'NONE', #742, #330, #548 ) ;
#35 = DIRECTION ( 'NONE',  ( 1.000000000000000000, 0.000000000000000000, -1.963117343258975623E-16 ) ) ;
#36 = CARTESIAN_POINT ( 'NONE',  ( -126.6782139860851402, -167.3043969813939782, 565.9442156273149749 ) ) ;
#37 = CARTESIAN_POINT ( 'NONE',  ( -597.8979996804107486, 6.834750241260789672, -279.9999999999999432 ) ) ;
#38 = CARTESIAN_POINT ( 'NONE',  ( 134.8057697463301849, -21.39271454153179874, 2.448534876829445039 ) ) ;
#39 = CARTESIAN_POINT ( 'NONE',  ( 134.8057697463301849, -21.39271454153179874, 2.448534876829445039 ) ) ;
#40 = ORIENTED_EDGE ( 'NONE', *, *, #431, .T. ) ;
#41 = DIRECTION ( 'NONE',  ( 1.000000000000000000, -0.000000000000000000, -9.815586716294876882E-17 ) ) ;
#42 = PLANE ( 'NONE',  #34 ) ;
#43 = ORIENTED_EDGE ( 'NONE', *, *, #626, .F. ) ;
#44 = CARTESIAN_POINT ( 'NONE',  ( 136.0000000000000000, 159.2184072556390788, -174.2184072556394199 ) ) ;
#45 = ORIENTED_EDGE ( 'NONE', *, *, #735, .T. ) ;
#46 = ORIENTED_EDGE ( 'NONE', *, *, #336, .F. ) ;
#47 = CARTESIAN_POINT ( 'NONE',  ( 148.0000000000000284, 202.3519209080187125, -131.0848936032602978 ) ) ;
#48 = ORIENTED_EDGE ( 'NONE', *, *, #280, .F. ) ;
#49 = CARTESIAN_POINT ( 'NONE',  ( -126.6782139860853960, -167.3043969813939782, 565.9442156273147475 ) ) ;
#50 = DIRECTION ( 'NONE',  ( -0.8987940462991663715, -1.519186671157930161E-18, -0.4383711467890785696 ) ) ;
#51 = AXIS2_PLACEMENT_3D ( 'NONE', #348, #12, #424 ) ;
#52 = EDGE_CURVE ( 'NONE', #761, #711, #766, .T. ) ;
#53 = ORIENTED_EDGE ( 'NONE', *, *, #127, .T. ) ;
#54 = ORIENTED_EDGE ( 'NONE', *, *, #346, .F. ) ;
#55 = CARTESIAN_POINT ( 'NONE',  ( 148.0000000000000284, 67.64807909198120228, -168.9151063967397874 ) ) ;
#56 = ORIENTED_EDGE ( 'NONE', *, *, #886, .F. ) ;
#57 = CARTESIAN_POINT ( 'NONE',  ( -140.3243332297055019, -170.7174455439941028, 566.5488419426976634 ) ) ;
#58 = ORIENTED_EDGE ( 'NONE', *, *, #52, .F. ) ;
#59 = CARTESIAN_POINT ( 'NONE',  ( -125.4429536004240049, -166.3525671923413540, 563.4115565132436814 ) ) ;
#60 = CARTESIAN_POINT ( 'NONE',  ( -140.3243332297050472, -170.7174455439941028, 566.5488419426978908 ) ) ;
#61 = EDGE_LOOP ( 'NONE', ( #412, #65 ) ) ;
#62 = AXIS2_PLACEMENT_3D ( 'NONE', #266, #897, #318 ) ;
#63 = CARTESIAN_POINT ( 'NONE',  ( -147.3904474737481962, -187.5994902993341213, 581.0365231222964439 ) ) ;
#64 = ORIENTED_EDGE ( 'NONE', *, *, #634, .T. ) ;
#65 = ORIENTED_EDGE ( 'NONE', *, *, #606, .T. ) ;
#66 = CARTESIAN_POINT ( 'NONE',  ( -147.6799019938043216, -188.9087167967830965, 581.6299928366389622 ) ) ;
#67 = ADVANCED_FACE ( 'NONE', ( #478 ), #480, .T. ) ;
#68 = ORIENTED_EDGE ( 'NONE', *, *, #404, .F. ) ;
#69 = DIRECTION ( 'NONE',  ( -1.000000000000000000, 0.000000000000000000, 2.004407377704292584E-16 ) ) ;
#70 = CARTESIAN_POINT ( 'NONE',  ( 136.0000000000000000, 110.7815927443608217, -125.7815927443606228 ) ) ;
#71 = ORIENTED_EDGE ( 'NONE', *, *, #52, .T. ) ;
#72 = EDGE_CURVE ( 'NONE', #649, #708, #786, .T. ) ;
#73 = ORIENTED_EDGE ( 'NONE', *, *, #885, .F. ) ;
#74 = CARTESIAN_POINT ( 'NONE',  ( -141.1428072074488682, -171.9249191044403062, 568.2269622834996881 ) ) ;
#75 = PERSON ( 'UNSPECIFIED', 'UNSPECIFIED', 'UNSPECIFIED', ('UNSPECIFIED'), ('UNSPECIFIED'), ('UNSPECIFIED') ) ;
#76 = EDGE_LOOP ( 'NONE', ( #668, #53, #96, #688 ) ) ;
#77 = DIRECTION ( 'NONE',  ( -0.4383711467890786806, -8.326672684688675039E-16, 0.8987940462991663715 ) ) ;
#78 = CARTESIAN_POINT ( 'NONE',  ( 136.0000000000000000, 6.834750241260789672, -180.0000000000000284 ) ) ;
#79 = VERTEX_POINT ( 'NONE', #181 ) ;
#80 = ADVANCED_FACE ( 'NONE', ( #824 ), #501, .F. ) ;
#81 = ORIENTED_EDGE ( 'NONE', *, *, #558, .T. ) ;
#82 = ORIENTED_EDGE ( 'NONE', *, *, #532, .T. ) ;
#83 = CARTESIAN_POINT ( 'NONE',  ( -136.2284821560178045, -188.9087167967830965, 558.1511027517825596 ) ) ;
#84 = VERTEX_POINT ( 'NONE', #271 ) ;
#85 = DIRECTION ( 'NONE',  ( 0.8987940462991664825, 1.519186671157930353E-18, 0.4383711467890786251 ) ) ;
#86 = ADVANCED_FACE ( 'NONE', ( #792 ), #662, .T. ) ;
#87 = ORIENTED_EDGE ( 'NONE', *, *, #21, .T. ) ;
#88 = EDGE_CURVE ( 'NONE', #673, #699, #493, .T. ) ;
#89 = PRODUCT_DEFINITION_FORMATION_WITH_SPECIFIED_SOURCE ( 'ANY', '', #781, .NOT_KNOWN. ) ;
#90 = VERTEX_POINT ( 'NONE', #539 ) ;
#91 = ORIENTED_EDGE ( 'NONE', *, *, #675, .T. ) ;
#92 = CARTESIAN_POINT ( 'NONE',  ( -136.6049189181567272, -187.5994902993341213, 586.2969768837660922 ) ) ;
#93 = ORIENTED_EDGE ( 'NONE', *, *, #589, .T. ) ;
#94 = DIRECTION ( 'NONE',  ( 0.8987940462991663715, 1.519186671157930161E-18, 0.4383711467890785696 ) ) ;
#95 = ORIENTED_EDGE ( 'NONE', *, *, #491, .T. ) ;
#96 = ORIENTED_EDGE ( 'NONE', *, *, #569, .T. ) ;
#97 = SECURITY_CLASSIFICATION_LEVEL ( 'unclassified' ) ;
#98 = ORIENTED_EDGE ( 'NONE', *, *, #569, .F. ) ;
#99 = CARTESIAN_POINT ( 'NONE',  ( -134.0173215106287330, -179.1188679977924210, 580.9916159786500884 ) ) ;
#100 = ORIENTED_EDGE ( 'NONE', *, *, #406, .T. ) ;
#101 = CARTESIAN_POINT ( 'NONE',  ( -125.4429536004240049, -166.3525671923413540, 563.4115565132436814 ) ) ;
#102 = EDGE_CURVE ( 'NONE', #392, #761, #505, .T. ) ;
#103 = ORIENTED_EDGE ( 'NONE', *, *, #586, .T. ) ;
#104 =( LENGTH_UNIT ( ) NAMED_UNIT ( * ) SI_UNIT ( .MILLI., .METRE. ) );
#105 = CARTESIAN_POINT ( 'NONE',  ( -597.8979996804107486, 200.0000000000000000, -279.9999999999999432 ) ) ;
#106 = B_SPLINE_CURVE_WITH_KNOTS ( 'NONE', 1,
 ( #756, #350 ),
 .UNSPECIFIED., .F., .F.,
 ( 2, 2 ),
 ( 0.000000000000000000, 1.000000000000000000 ),
 .UNSPECIFIED. ) ;
#107 = ADVANCED_FACE ( 'NONE', ( #217 ), #187, .F. ) ;
#108 = ORIENTED_EDGE ( 'NONE', *, *, #326, .T. ) ;
#109 = CARTESIAN_POINT ( 'NONE',  ( -1222.600471345729375, 200.0000000000000000, -659.6027248264585978 ) ) ;
#110 = ORIENTED_EDGE ( 'NONE', *, *, #102, .F. ) ;
#111 = CARTESIAN_POINT ( 'NONE',  ( 148.0000000000000000, 6.834750241260789672, -280.0000000000000000 ) ) ;
#112 = VERTEX_POINT ( 'NONE', #323 ) ;
#113 = EDGE_LOOP ( 'NONE', ( #135, #770, #647, #349 ) ) ;
#114 = AXIS2_PLACEMENT_3D ( 'NONE', #289, #380, #609 ) ;
#115 = CARTESIAN_POINT ( 'NONE',  ( 148.0000000000000284, 110.7815927443608217, -125.7815927443606228 ) ) ;
#116 = ORIENTED_EDGE ( 'NONE', *, *, #785, .T. ) ;
#117 = ORIENTED_EDGE ( 'NONE', *, *, #658, .F. ) ;
#118 = CARTESIAN_POINT ( 'NONE',  ( 175.8663656813038756, -1813.876563846468798, -81.73816270618181079 ) ) ;
#119 = ORIENTED_EDGE ( 'NONE', *, *, #811, .F. ) ;
#120 = CARTESIAN_POINT ( 'NONE',  ( 124.2000000000001734, 1210.587075503658525, -2.724244655281634397 ) ) ;
#121 = ORIENTED_EDGE ( 'NONE', *, *, #707, .F. ) ;
#122 = CARTESIAN_POINT ( 'NONE',  ( 148.0000000000000000, -40.35333153868059242, -280.0000000000000000 ) ) ;
#123 = ORIENTED_EDGE ( 'NONE', *, *, #579, .T. ) ;
#124 = CARTESIAN_POINT ( 'NONE',  ( -145.9978645301958124, -182.6295950389864515, 578.1813049634143908 ) ) ;
#125 = CARTESIAN_POINT ( 'NONE',  ( 136.3039927725961604, 258.0013143075380526, 26.75078684299198528 ) ) ;
#126 = VERTEX_POINT ( 'NONE', #384 ) ;
#127 = EDGE_CURVE ( 'NONE', #129, #699, #530, .T. ) ;
#128 = DIRECTION ( 'NONE',  ( 1.000000000000000000, 0.000000000000000000, -1.963117343258975623E-16 ) ) ;
#129 = VERTEX_POINT ( 'NONE', #566 ) ;
#130 = CARTESIAN_POINT ( 'NONE',  ( 148.0000000000000284, -21.06096478089236612, -2.724244655281817362 ) ) ;
#131 = ORIENTED_EDGE ( 'NONE', *, *, #626, .T. ) ;
#132 = ADVANCED_FACE ( 'NONE', ( #800 ), #617, .T. ) ;
#133 = DIRECTION ( 'NONE',  ( -9.288627122735210912E-17, 0.000000000000000000, -1.000000000000000000 ) ) ;
#134 = EDGE_LOOP ( 'NONE', ( #364, #648, #68, #684, #725, #701, #721 ) ) ;
#135 = ORIENTED_EDGE ( 'NONE', *, *, #841, .T. ) ;
#136 = CARTESIAN_POINT ( 'NONE',  ( 148.0000000000000284, 116.0848936032594452, -217.3519209080185419 ) ) ;
#137 = ORIENTED_EDGE ( 'NONE', *, *, #871, .F. ) ;
#138 = ORIENTED_EDGE ( 'NONE', *, *, #720, .F. ) ;
#139 = CARTESIAN_POINT ( 'NONE',  ( 124.2000000000000313, 199.9999999999999432, -2.724244655281659711 ) ) ;
#140 = AXIS2_PLACEMENT_3D ( 'NONE', #704, #441, #415 ) ;
#141 = EDGE_CURVE ( 'NONE', #659, #761, #186, .T. ) ;
#142 = VERTEX_POINT ( 'NONE', #328 ) ;
#143 = DIRECTION ( 'NONE',  ( 0.8987940462991664825, 1.519186671157930353E-18, 0.4383711467890786251 ) ) ;
#144 = ORIENTED_EDGE ( 'NONE', *, *, #532, .F. ) ;
#145 = DIRECTION ( 'NONE',  ( 2.376499042043254194E-17, 1.000000000000000000, -5.219097730081132726E-17 ) ) ;
#146 = ORIENTED_EDGE ( 'NONE', *, *, #707, .T. ) ;
#147 = ORIENTED_EDGE ( 'NONE', *, *, #451, .T. ) ;
#148 = ORIENTED_EDGE ( 'NONE', *, *, #336, .T. ) ;
#149 = EDGE_LOOP ( 'NONE', ( #472, #46, #645, #45 ) ) ;
#150 = CARTESIAN_POINT ( 'NONE',  ( -125.4429536004277850, -253.9087167967821870, 563.4115565132516394 ) ) ;
#151 = ORIENTED_EDGE ( 'NONE', *, *, #259, .T. ) ;
#152 = AXIS2_PLACEMENT_3D ( 'NONE', #19, #722, #77 ) ;
#153 = CARTESIAN_POINT ( 'NONE',  ( -130.0864645651502940, -171.5111333609456494, 572.9321648826353339 ) ) ;
#154 = EDGE_CURVE ( 'NONE', #694, #711, #520, .T. ) ;
#155 = ORIENTED_EDGE ( 'NONE', *, *, #200, .F. ) ;
#156 = ADVANCED_FACE ( 'NONE', ( #208 ), #665, .T. ) ;
#157 = VERTEX_POINT ( 'NONE', #474 ) ;
#158 = DIRECTION ( 'NONE',  ( 2.376499042043254194E-17, 1.000000000000000000, -5.219097730081132726E-17 ) ) ;
#159 = EDGE_LOOP ( 'NONE', ( #652, #409 ) ) ;
#160 = DIRECTION ( 'NONE',  ( 0.4383711467890785696, -5.732682577254064654E-17, -0.8987940462991663715 ) ) ;
#161 = ORIENTED_EDGE ( 'NONE', *, *, #720, .T. ) ;
#162 = CARTESIAN_POINT ( 'NONE',  ( -136.8943734381783486, -188.9087167967830965, 586.8904465981255498 ) ) ;
#163 = VERTEX_POINT ( 'NONE', #299 ) ;
#164 = CARTESIAN_POINT ( 'NONE',  ( 148.0000000000000568, 199.9999999999999432, -2.724244655281640615 ) ) ;
#165 = CC_DESIGN_PERSON_AND_ORGANIZATION_ASSIGNMENT ( #286, #170, ( #89 ) ) ;
#166 = AXIS2_PLACEMENT_3D ( 'NONE', #596, #787, #857 ) ;
#167 = EDGE_LOOP ( 'NONE', ( #71, #378, #121, #678, #56, #356, #343 ) ) ;
#168 = PLANE ( 'NONE',  #391 ) ;
#169 = EDGE_LOOP ( 'NONE', ( #690, #671, #155, #775 ) ) ;
#170 = PERSON_AND_ORGANIZATION_ROLE ( 'creator' ) ;
#171 = ORIENTED_EDGE ( 'NONE', *, *, #831, .F. ) ;
#172 = CARTESIAN_POINT ( 'NONE',  ( 136.0000000000000000, -21.06096478089236967, -2.724244655281760963 ) ) ;
#173 = CARTESIAN_POINT ( 'NONE',  ( 136.0000000000000000, 202.3519209080187125, -131.0848936032602694 ) ) ;
#174 = EDGE_CURVE ( 'NONE', #744, #90, #191, .T. ) ;
#175 = PERSON_AND_ORGANIZATION_ROLE ( 'classification_officer' ) ;
#176 = ORIENTED_EDGE ( 'NONE', *, *, #33, .T. ) ;
#177 = ORIENTED_EDGE ( 'NONE', *, *, #282, .T. ) ;
#178 = DIRECTION ( 'NONE',  ( 0.8987940462991663715, 1.519186671157930161E-18, 0.4383711467890785696 ) ) ;
#179 = ORIENTED_EDGE ( 'NONE', *, *, #431, .F. ) ;
#180 = EDGE_LOOP ( 'NONE', ( #210, #198, #91, #521 ) ) ;
#181 = CARTESIAN_POINT ( 'NONE',  ( -112.6383782514349718, -3.223657978678678315, 537.1582864854186710 ) ) ;
#182 = DIRECTION ( 'NONE',  ( 0.8987940462991664825, 1.519186671157930353E-18, 0.4383711467890786251 ) ) ;
#183 = VECTOR ( 'NONE', #564, 1000.000000000000000 ) ;
#184 = EDGE_CURVE ( 'NONE', #129, #711, #106, .T. ) ;
#185 = VECTOR ( 'NONE', #611, 1000.000000000000000 ) ;
#186 = CIRCLE ( 'NONE', #822, 23.80000000000001492 ) ;
#187 = PLANE ( 'NONE',  #62 ) ;
#188 = VECTOR ( 'NONE', #608, 1000.000000000000000 ) ;
#189 = CARTESIAN_POINT ( 'NONE',  ( 148.0000000000000284, 116.0848936032594452, -217.3519209080185419 ) ) ;
#190 = LINE ( 'NONE', #874, #268 ) ;
#191 = LINE ( 'NONE', #680, #489 ) ;
#192 = CARTESIAN_POINT ( 'NONE',  ( 148.0000000000000284, 153.9151063967404127, -82.64807909198147229 ) ) ;
#193 = LINE ( 'NONE', #853, #490 ) ;
#194 = ORIENTED_EDGE ( 'NONE', *, *, #794, .F. ) ;
#195 = CIRCLE ( 'NONE', #152, 99.99999999999998579 ) ;
#196 = FACE_OUTER_BOUND ( 'NONE', #169, .T. ) ;
#197 = CARTESIAN_POINT ( 'NONE',  ( 136.0000000000000000, 100.0000000000000000, -155.0364465645025689 ) ) ;
#198 = ORIENTED_EDGE ( 'NONE', *, *, #404, .T. ) ;
#199 = VECTOR ( 'NONE', #362, 1000.000000000000000 ) ;
#200 = EDGE_CURVE ( 'NONE', #808, #765, #820, .T. ) ;
#201 = DIRECTION ( 'NONE',  ( -0.8987940462991665935, -1.519186671157930546E-18, -0.4383711467890786806 ) ) ;
#202 = LINE ( 'NONE', #702, #509 ) ;
#203 = CARTESIAN_POINT ( 'NONE',  ( -146.3730242741914083, -183.8413443670129084, 578.9504964277330146 ) ) ;
#204 = DIRECTION ( 'NONE',  ( 0.3982560015876359105, 0.4179056082321442323, -0.8165458099871375497 ) ) ;
#205 = CIRCLE ( 'NONE', #635, 100.0000000000000284 ) ;
#206 = LINE ( 'NONE', #109, #812 ) ;
#207 = DIRECTION ( 'NONE',  ( -1.000000000000000000, 0.000000000000000000, 9.815586716294878114E-17 ) ) ;
#208 = FACE_OUTER_BOUND ( 'NONE', #777, .T. ) ;
#209 = FACE_OUTER_BOUND ( 'NONE', #347, .T. ) ;
#210 = ORIENTED_EDGE ( 'NONE', *, *, #579, .F. ) ;
#211 = CARTESIAN_POINT ( 'NONE',  ( -143.9136299379981665, -176.9971488509766004, 573.9079907722804137 ) ) ;
#212 = DIRECTION ( 'NONE',  ( 1.857725424547042182E-16, 0.000000000000000000, 1.000000000000000000 ) ) ;
#213 = CARTESIAN_POINT ( 'NONE',  ( 145.5912983019200908, 200.0000000000000000, 7.708988638298345464 ) ) ;
#214 = APPROVAL ( #832, 'UNSPECIFIED' ) ;
#215 = AXIS2_PLACEMENT_3D ( 'NONE', #726, #884, #805 ) ;
#216 = CYLINDRICAL_SURFACE ( 'NONE', #28, 100.0000000000000000 ) ;
#217 = FACE_OUTER_BOUND ( 'NONE', #361, .T. ) ;
#218 = CARTESIAN_POINT ( 'NONE',  ( -140.8719931207405125, -171.5111333609456494, 567.6717111211663678 ) ) ;
#219 = PLANE ( 'NONE',  #674 ) ;
#220 = LINE ( 'NONE', #506, #803 ) ;
#221 = CARTESIAN_POINT ( 'NONE',  ( -141.9406601238653138, -173.2094501819051402, 569.8628031830423879 ) ) ;
#222 = CARTESIAN_POINT ( 'NONE',  ( -135.2123359746055939, -182.6295950389864515, 583.4417587248833570 ) ) ;
#223 = APPROVAL_STATUS ( 'not_yet_approved' ) ;
#224 = VECTOR ( 'NONE', #85, 1000.000000000000114 ) ;
#225 = EDGE_CURVE ( 'NONE', #142, #414, #522, .T. ) ;
#226 = CIRCLE ( 'NONE', #140, 100.0000000000000142 ) ;
#227 = DIRECTION ( 'NONE',  ( 1.249144747271039979E-16, 1.000000000000000000, 2.537325267894297338E-17 ) ) ;
#228 = VECTOR ( 'NONE', #143, 1000.000000000000114 ) ;
#229 = ADVANCED_FACE ( 'NONE', ( #788 ), #168, .F. ) ;
#230 = CARTESIAN_POINT ( 'NONE',  ( -1287.161913110421210, 200.0000000000000000, -527.2321527584131218 ) ) ;
#231 = LINE ( 'NONE', #616, #570 ) ;
#232 = CARTESIAN_POINT ( 'NONE',  ( -136.2284821560113528, -166.3525671923412688, 558.1511027517665298 ) ) ;
#233 = VECTOR ( 'NONE', #691, 1000.000000000000000 ) ;
#234 = CYLINDRICAL_SURFACE ( 'NONE', #807, 100.0000000000000142 ) ;
#235 = CARTESIAN_POINT ( 'NONE',  ( -146.3730242741908683, -183.8413443670129084, 578.9504964277332419 ) ) ;
#236 = FACE_OUTER_BOUND ( 'NONE', #134, .T. ) ;
#237 = DIRECTION ( 'NONE',  ( -0.4383711467890780700, 5.732682577254064654E-17, 0.8987940462991667046 ) ) ;
#238 = EDGE_CURVE ( 'NONE', #157, #755, #193, .T. ) ;
#239 = SECURITY_CLASSIFICATION ( '', '', #97 ) ;
#240 = CARTESIAN_POINT ( 'NONE',  ( 148.0000000000000284, 159.2184072556390788, -174.2184072556394199 ) ) ;
#241 = CARTESIAN_POINT ( 'NONE',  ( 136.0000000000000000, 159.2184072556390788, -174.2184072556394199 ) ) ;
#242 = VECTOR ( 'NONE', #365, 1000.000000000000000 ) ;
#243 = DIRECTION ( 'NONE',  ( -2.376499042043254194E-17, -1.000000000000000000, 5.219097730081133959E-17 ) ) ;
#244 = CYLINDRICAL_SURFACE ( 'NONE', #319, 11.80000000000000426 ) ;
#245 = FACE_OUTER_BOUND ( 'NONE', #167, .T. ) ;
#246 = DIRECTION ( 'NONE',  ( -1.000000000000000000, 0.000000000000000000, 1.837630800822888320E-16 ) ) ;
#247 = ADVANCED_FACE ( 'NONE', ( #196 ), #729, .T. ) ;
#248 = CIRCLE ( 'NONE', #479, 11.80000000000000426 ) ;
#249 = VECTOR ( 'NONE', #529, 1000.000000000000000 ) ;
#250 = CARTESIAN_POINT ( 'NONE',  ( -135.5874957185998539, -183.8413443670129084, 584.2109501892026628 ) ) ;
#251 = DATE_AND_TIME ( #265, #252 ) ;
#252 = LOCAL_TIME ( 14, 38, 55.00000000000000000, #875 ) ;
#253 = DATE_TIME_ROLE ( 'classification_date' ) ;
#254 = DESIGN_CONTEXT ( 'detailed design', #866, 'design' ) ;
#255 = APPROVAL_PERSON_ORGANIZATION ( #850, #660, #861 ) ;
#256 = CIRCLE ( 'NONE', #577, 100.0000000000000000 ) ;
#257 = LOCAL_TIME ( 14, 38, 55.00000000000000000, #562 ) ;
#258 = DIRECTION ( 'NONE',  ( 1.000000000000000000, 0.000000000000000000, -1.963117343258975623E-16 ) ) ;
#259 = EDGE_CURVE ( 'NONE', #84, #79, #220, .T. ) ;
#260 = ADVANCED_FACE ( 'NONE', ( #790 ), #703, .F. ) ;
#261 = DIRECTION ( 'NONE',  ( -0.8987940462991664825, -1.519186671157930353E-18, -0.4383711467890786251 ) ) ;
#262 = AXIS2_PLACEMENT_3D ( 'NONE', #230, #638, #22 ) ;
#263 = CARTESIAN_POINT ( 'NONE',  ( -129.2614329491290732, -170.3366867685405168, 571.2405993908843129 ) ) ;
#264 = VECTOR ( 'NONE', #724, 1000.000000000000114 ) ;
#265 = CALENDAR_DATE ( 2023, 30, 5 ) ;
#266 = CARTESIAN_POINT ( 'NONE',  ( -1493.634723248077307, -253.9087167967821870, -103.9001569515056644 ) ) ;
#267 = VECTOR ( 'NONE', #27, 1000.000000000000000 ) ;
#268 = VECTOR ( 'NONE', #453, 1000.000000000000114 ) ;
#269 = CARTESIAN_POINT ( 'NONE',  ( 148.0000000000000284, -188.9087167967831249, 2.770418293506771157 ) ) ;
#270 = ADVANCED_BREP_SHAPE_REPRESENTATION ( 'DSV-239', ( #636, #568 ), #632 ) ;
#271 = CARTESIAN_POINT ( 'NONE',  ( -123.4239068070247498, -3.223657978678678315, 531.8978327239498185 ) ) ;
#272 = VECTOR ( 'NONE', #9, 1000.000000000000000 ) ;
#273 = CARTESIAN_POINT ( 'NONE',  ( 136.0000000000000000, 110.7815927443608217, -125.7815927443606228 ) ) ;
#274 = ORGANIZATION ( 'UNSPECIFIED', 'UNSPECIFIED', '' ) ;
#275 = PERSON_AND_ORGANIZATION ( #75, #274 ) ;
#276 = CARTESIAN_POINT ( 'NONE',  ( -130.3572786518583086, -171.9249191044403062, 573.4874160449688816 ) ) ;
#277 = APPROVAL_DATE_TIME ( #873, #5 ) ;
#278 = CARTESIAN_POINT ( 'NONE',  ( -141.1428072074492093, -171.9249191044403062, 568.2269622834994607 ) ) ;
#279 = AXIS2_PLACEMENT_3D ( 'NONE', #500, #94, #627 ) ;
#280 = EDGE_CURVE ( 'NONE', #366, #694, #814, .T. ) ;
#281 = CARTESIAN_POINT ( 'NONE',  ( 148.0000000000000284, -21.06096478089236612, -2.724244655281817362 ) ) ;
#282 = EDGE_CURVE ( 'NONE', #84, #697, #195, .T. ) ;
#283 = LINE ( 'NONE', #714, #297 ) ;
#284 = CARTESIAN_POINT ( 'NONE',  ( -131.1551315682755501, -173.2094501819051402, 575.1232569445111267 ) ) ;
#285 = CARTESIAN_POINT ( 'NONE',  ( 148.0000000000000284, 110.7815927443608217, -125.7815927443606228 ) ) ;
#286 = PERSON_AND_ORGANIZATION ( #75, #274 ) ;
#287 = CARTESIAN_POINT ( 'NONE',  ( -130.3572786518589908, -171.9249191044403062, 573.4874160449684268 ) ) ;
#288 = APPROVAL_PERSON_ORGANIZATION ( #275, #5, #625 ) ;
#289 = CARTESIAN_POINT ( 'NONE',  ( 135.9999999999999716, 200.0000000000000000, -280.0000000000000000 ) ) ;
#290 = CC_DESIGN_PERSON_AND_ORGANIZATION_ASSIGNMENT ( #591, #175, ( #239 ) ) ;
#291 = PRODUCT_DEFINITION ( 'UNKNOWN', '', #89, #254 ) ;
#292 = LOCAL_TIME ( 14, 38, 55.00000000000000000, #899 ) ;
#293 = B_SPLINE_CURVE_WITH_KNOTS ( 'NONE', 3,
 ( #38, #320, #488, #753 ),
 .UNSPECIFIED., .F., .F.,
 ( 4, 4 ),
 ( 0.000000000000000000, 1.000000000000000000 ),
 .UNSPECIFIED. ) ;
#294 = VECTOR ( 'NONE', #687, 1000.000000000000114 ) ;
#295 = CARTESIAN_POINT ( 'NONE',  ( -136.6049189181579777, -187.5994902993341213, 586.2969768837655238 ) ) ;
#296 = LINE ( 'NONE', #469, #895 ) ;
#297 = VECTOR ( 'NONE', #644, 1000.000000000000000 ) ;
#298 = DIRECTION ( 'NONE',  ( 0.000000000000000000, 0.000000000000000000, 1.000000000000000000 ) ) ;
#299 = CARTESIAN_POINT ( 'NONE',  ( -138.1557168573114325, -94.07270324653600824, 589.4765838559270605 ) ) ;
#300 = ADVANCED_FACE ( 'NONE', ( #823 ), #709, .T. ) ;
#301 = CC_DESIGN_APPROVAL ( #5, ( #239 ) ) ;
#302 = CARTESIAN_POINT ( 'NONE',  ( -147.0727482970048925, -186.3223879719290608, 580.3851432797547432 ) ) ;
#303 = DIRECTION ( 'NONE',  ( 1.000000000000000000, -1.249144747271039979E-16, -1.963117343258975623E-16 ) ) ;
#304 = ADVANCED_FACE ( 'NONE', ( #497 ), #806, .T. ) ;
#305 = ADVANCED_FACE ( 'NONE', ( #209 ), #216, .T. ) ;
#306 = AXIS2_PLACEMENT_3D ( 'NONE', #105, #758, #655 ) ;
#307 = CARTESIAN_POINT ( 'NONE',  ( 148.0000000000000284, -21.06096478089236967, -2.724244655281857774 ) ) ;
#308 = CARTESIAN_POINT ( 'NONE',  ( 136.0000000000000000, -1813.876563846468798, -17.29228320330433633 ) ) ;
#309 = DIRECTION ( 'NONE',  ( 1.249144747271039979E-16, 1.000000000000000000, 5.521844214601974998E-30 ) ) ;
#310 = DIRECTION ( 'NONE',  ( 1.000000000000000000, 0.000000000000000000, -1.963117343258975623E-16 ) ) ;
#311 = DIRECTION ( 'NONE',  ( 0.8987940462991664825, 1.519186671157930353E-18, 0.4383711467890786251 ) ) ;
#312 = AXIS2_PLACEMENT_3D ( 'NONE', #78, #507, #639 ) ;
#313 = EDGE_CURVE ( 'NONE', #659, #485, #202, .T. ) ;
#314 = DIRECTION ( 'NONE',  ( 0.000000000000000000, -8.326672684688674053E-16, -1.000000000000000000 ) ) ;
#315 = DIRECTION ( 'NONE',  ( -0.4383711467890786251, 0.000000000000000000, 0.8987940462991663715 ) ) ;
#316 = CARTESIAN_POINT ( 'NONE',  ( 135.5889835454146066, -21.28202253391756926, 0.8427086157887745399 ) ) ;
#317 = CARTESIAN_POINT ( 'NONE',  ( 148.0000000000000284, 159.2184072556390788, -174.2184072556394199 ) ) ;
#318 = DIRECTION ( 'NONE',  ( -0.8987940462991663715, -1.519186671157930161E-18, -0.4383711467890785696 ) ) ;
#319 = AXIS2_PLACEMENT_3D ( 'NONE', #120, #592, #246 ) ;
#320 = CARTESIAN_POINT ( 'NONE',  ( 138.4009459315266213, -21.39271454153179874, 4.202019463984936642 ) ) ;
#321 = DIRECTION ( 'NONE',  ( 0.4383711467890786806, -2.775557561562890562E-15, -0.8987940462991663715 ) ) ;
#322 = B_SPLINE_CURVE_WITH_KNOTS ( 'NONE', 3,
 ( #819, #614, #667, #827 ),
 .UNSPECIFIED., .F., .F.,
 ( 4, 4 ),
 ( 0.4999999999999866773, 0.5039728447641852460 ),
 .UNSPECIFIED. ) ;
#323 = CARTESIAN_POINT ( 'NONE',  ( -125.4429536004240049, -166.3525671923413540, 563.4115565132436814 ) ) ;
#324 = CARTESIAN_POINT ( 'NONE',  ( 148.0000000000000284, 159.2184072556390788, -174.2184072556394199 ) ) ;
#325 = CARTESIAN_POINT ( 'NONE',  ( -130.0864645651496119, -171.5111333609456494, 572.9321648826357887 ) ) ;
#326 = EDGE_CURVE ( 'NONE', #510, #381, #796, .T. ) ;
#327 = PRODUCT_RELATED_PRODUCT_CATEGORY ( 'detail', '', ( #781 ) ) ;
#328 = CARTESIAN_POINT ( 'NONE',  ( 61.52364424219386763, 190.8490452678574911, 152.6991583170550086 ) ) ;
#329 = CARTESIAN_POINT ( 'NONE',  ( 0.000000000000000000, 0.000000000000000000, 0.000000000000000000 ) ) ;
#330 = DIRECTION ( 'NONE',  ( 0.8987940462991664825, 1.519186671157932087E-18, 0.4383711467890786251 ) ) ;
#331 = CARTESIAN_POINT ( 'NONE',  ( 148.0000000000000000, 200.0000000000000000, -280.0000000000000000 ) ) ;
#332 = ORIENTED_EDGE ( 'NONE', *, *, #72, .F. ) ;
#333 = CARTESIAN_POINT ( 'NONE',  ( -141.9406601238657402, -173.2094501819051402, 569.8628031830421605 ) ) ;
#334 = CARTESIAN_POINT ( 'NONE',  ( 90.62894887081543516, 100.0000000000000142, 120.3985048191157716 ) ) ;
#335 = CC_DESIGN_PERSON_AND_ORGANIZATION_ASSIGNMENT ( #580, #25, ( #781 ) ) ;
#336 = EDGE_CURVE ( 'NONE', #679, #659, #206, .T. ) ;
#337 = CARTESIAN_POINT ( 'NONE',  ( 148.0000000000000284, 159.2184072556390788, -174.2184072556394199 ) ) ;
#338 = CARTESIAN_POINT ( 'NONE',  ( 135.1969918950289866, -21.33742291475856234, 1.646410602441346516 ) ) ;
#339 = CARTESIAN_POINT ( 'NONE',  ( 135.9999999999999716, 200.0000000000000000, -280.0000000000000000 ) ) ;
#340 = CARTESIAN_POINT ( 'NONE',  ( -140.8719931207401714, -171.5111333609456494, 567.6717111211665951 ) ) ;
#341 = CARTESIAN_POINT ( 'NONE',  ( -129.5388046741153119, -170.7174455439941028, 571.8092957041666295 ) ) ;
#342 = B_SPLINE_CURVE_WITH_KNOTS ( 'NONE', 1,
 ( #8, #59 ),
 .UNSPECIFIED., .F., .F.,
 ( 2, 2 ),
 ( 0.5000000000000003331, 0.5039728447641856901 ),
 .UNSPECIFIED. ) ;
#343 = ORIENTED_EDGE ( 'NONE', *, *, #102, .T. ) ;
#344 = DIRECTION ( 'NONE',  ( -1.000000000000000000, -0.000000000000000000, 1.963117343258975623E-16 ) ) ;
#345 = AXIS2_PLACEMENT_3D ( 'NONE', #353, #587, #298 ) ;
#346 = EDGE_CURVE ( 'NONE', #699, #369, #293, .T. ) ;
#347 = EDGE_LOOP ( 'NONE', ( #332, #81, #498, #100 ) ) ;
#348 = CARTESIAN_POINT ( 'NONE',  ( -1221.406241092059645, 200.0000000000000000, -662.0512597032881104 ) ) ;
#349 = ORIENTED_EDGE ( 'NONE', *, *, #634, .F. ) ;
#350 = CARTESIAN_POINT ( 'NONE',  ( 148.0000000000000284, -21.06096478089236612, -2.724244655281817362 ) ) ;
#351 = ORIENTED_EDGE ( 'NONE', *, *, #762, .F. ) ;
#352 = ORIENTED_EDGE ( 'NONE', *, *, #21, .F. ) ;
#353 = CARTESIAN_POINT ( 'NONE',  ( -597.8979996804107486, 100.0000000000000000, -155.0364465645024268 ) ) ;
#354 = ORIENTED_EDGE ( 'NONE', *, *, #417, .T. ) ;
#355 = CARTESIAN_POINT ( 'NONE',  ( 148.0000000000000568, -21.17165702952200590, 0.8793361448255144763 ) ) ;
#356 = ORIENTED_EDGE ( 'NONE', *, *, #710, .F. ) ;
#357 = CC_DESIGN_APPROVAL ( #214, ( #291 ) ) ;
#358 = VERTEX_POINT ( 'NONE', #737 ) ;
#359 = CARTESIAN_POINT ( 'NONE',  ( -131.6646876178712091, -174.1181557104808348, 576.1680016704998479 ) ) ;
#360 = APPLICATION_PROTOCOL_DEFINITION ( 'international standard', 'config_control_design', 1994, #618 ) ;
#361 = EDGE_LOOP ( 'NONE', ( #179, #411, #382, #519 ) ) ;
#362 = DIRECTION ( 'NONE',  ( 1.000000000000000000, 0.000000000000000000, -1.963117343258975623E-16 ) ) ;
#363 = EDGE_LOOP ( 'NONE', ( #495, #706, #396, #138, #740, #387, #108, #131, #116, #144, #727 ) ) ;
#364 = ORIENTED_EDGE ( 'NONE', *, *, #809, .T. ) ;
#365 = DIRECTION ( 'NONE',  ( 0.000000000000000000, -1.000000000000000000, -0.000000000000000000 ) ) ;
#366 = VERTEX_POINT ( 'NONE', #386 ) ;
#367 = CARTESIAN_POINT ( 'NONE',  ( -135.2123359746047981, -182.6295950389864515, 583.4417587248838117 ) ) ;
#368 = VERTEX_POINT ( 'NONE', #463 ) ;
#369 = VERTEX_POINT ( 'NONE', #657 ) ;
#370 = CARTESIAN_POINT ( 'NONE',  ( 148.0000000000000568, 32.71665475151230140, -276.5925826289069960 ) ) ;
#371 = DIRECTION ( 'NONE',  ( -1.963117343258975623E-16, -0.000000000000000000, -1.000000000000000000 ) ) ;
#372 = CARTESIAN_POINT ( 'NONE',  ( -1506.347486504960898, -253.9087167967821870, -77.83512960883008702 ) ) ;
#373 = CARTESIAN_POINT ( 'NONE',  ( -133.1281013824077206, -176.9971488509766004, 579.1684445337496072 ) ) ;
#374 = EDGE_LOOP ( 'NONE', ( #631, #117, #716, #123 ) ) ;
#375 = VERTEX_POINT ( 'NONE', #393 ) ;
#376 = CARTESIAN_POINT ( 'NONE',  ( -148.9412454129014236, -94.07270324653600824, 584.2161300944582081 ) ) ;
#377 = ADVANCED_FACE ( 'NONE', ( #512 ), #746, .T. ) ;
#378 = ORIENTED_EDGE ( 'NONE', *, *, #154, .F. ) ;
#379 = EDGE_CURVE ( 'NONE', #414, #485, #543, .T. ) ;
#380 = DIRECTION ( 'NONE',  ( 1.000000000000000000, 0.000000000000000000, -1.963117343258975623E-16 ) ) ;
#381 = VERTEX_POINT ( 'NONE', #840 ) ;
#382 = ORIENTED_EDGE ( 'NONE', *, *, #477, .T. ) ;
#383 = CARTESIAN_POINT ( 'NONE',  ( 136.0000000000000000, 110.7815927443608217, -125.7815927443606228 ) ) ;
#384 = CARTESIAN_POINT ( 'NONE',  ( 136.0000000000000284, 199.9999999999999432, -2.724244655281650829 ) ) ;
#385 = ORIENTED_EDGE ( 'NONE', *, *, #794, .T. ) ;
#386 = CARTESIAN_POINT ( 'NONE',  ( 135.9999999999999716, -40.35333153868059242, -280.0000000000000000 ) ) ;
#387 = ORIENTED_EDGE ( 'NONE', *, *, #696, .F. ) ;
#388 = ORIENTED_EDGE ( 'NONE', *, *, #675, .F. ) ;
#389 = CARTESIAN_POINT ( 'NONE',  ( -138.1557168573116599, -188.9087167967830965, 589.4765838559269469 ) ) ;
#390 = EDGE_LOOP ( 'NONE', ( #176, #654, #351, #151 ) ) ;
#391 = AXIS2_PLACEMENT_3D ( 'NONE', #23, #870, #435 ) ;
#392 = VERTEX_POINT ( 'NONE', #621 ) ;
#393 = CARTESIAN_POINT ( 'NONE',  ( 79.84342031522511718, 200.0000000000000000, 115.1380510576466634 ) ) ;
#394 = ORIENTED_EDGE ( 'NONE', *, *, #154, .T. ) ;
#395 = CARTESIAN_POINT ( 'NONE',  ( 136.0000000000000000, 153.9151063967404127, -82.64807909198147229 ) ) ;
#396 = ORIENTED_EDGE ( 'NONE', *, *, #33, .F. ) ;
#397 = CARTESIAN_POINT ( 'NONE',  ( -136.8943734381782633, -188.9087167967831249, 586.8904465981254361 ) ) ;
#398 = DIRECTION ( 'NONE',  ( 0.000000000000000000, 0.000000000000000000, 1.000000000000000000 ) ) ;
#399 = CARTESIAN_POINT ( 'NONE',  ( -597.8979996804107486, -1813.876563846468798, -17.29228320330419066 ) ) ;
#400 = ORIENTED_EDGE ( 'NONE', *, *, #141, .F. ) ;
#401 = CARTESIAN_POINT ( 'NONE',  ( 148.0000000000000284, 6.834750241260789672, -180.0000000000000284 ) ) ;
#402 = ORIENTED_EDGE ( 'NONE', *, *, #184, .T. ) ;
#403 = CARTESIAN_POINT ( 'NONE',  ( -140.0469615047196328, -170.3366867685405168, 565.9801456294151194 ) ) ;
#404 = EDGE_CURVE ( 'NONE', #744, #452, #256, .T. ) ;
#405 = EDGE_LOOP ( 'NONE', ( #768, #177, #736, #161 ) ) ;
#406 = EDGE_CURVE ( 'NONE', #682, #708, #574, .T. ) ;
#407 = CARTESIAN_POINT ( 'NONE',  ( -135.5874957186012182, -183.8413443670129084, 584.2109501892019807 ) ) ;
#408 = B_SPLINE_CURVE_WITH_KNOTS ( 'NONE', 3,
 ( #20, #359, #515, #276, #325, #830, #263, #890, #36, #101 ),
 .UNSPECIFIED., .F., .F.,
 ( 4, 2, 2, 2, 4 ),
 ( 0.5000000000000069944, 0.6250000000000077716, 0.6875000000000087708, 0.7500000000000097700, 1.000000000000000000 ),
 .UNSPECIFIED. ) ;
#409 = ORIENTED_EDGE ( 'NONE', *, *, #620, .F. ) ;
#410 = CARTESIAN_POINT ( 'NONE',  ( -1506.347486504960671, -188.9087167967830965, -77.83512960882997334 ) ) ;
#411 = ORIENTED_EDGE ( 'NONE', *, *, #586, .F. ) ;
#412 = ORIENTED_EDGE ( 'NONE', *, *, #11, .T. ) ;
#413 = CARTESIAN_POINT ( 'NONE',  ( -138.6426300473566755, -168.5122464582001953, 563.1008394475321666 ) ) ;
#414 = VERTEX_POINT ( 'NONE', #672 ) ;
#415 = DIRECTION ( 'NONE',  ( -0.4383711467890786251, 2.775557561562890957E-15, 0.8987940462991663715 ) ) ;
#416 = ORIENTED_EDGE ( 'NONE', *, *, #184, .F. ) ;
#417 = EDGE_CURVE ( 'NONE', #765, #743, #528, .T. ) ;
#418 = CARTESIAN_POINT ( 'NONE',  ( -145.9978645301954714, -182.6295950389864515, 578.1813049634146182 ) ) ;
#419 = CC_DESIGN_SECURITY_CLASSIFICATION ( #239, ( #89 ) ) ;
#420 = CARTESIAN_POINT ( 'NONE',  ( -133.1281013824079764, -176.9971488509766004, 579.1684445337493798 ) ) ;
#421 = CLOSED_SHELL ( 'NONE', ( #377, #799, #741, #789, #304, #86, #247, #156, #107, #508, #13, #229, #783, #132, #305, #30, #637, #457, #80, #445, #18, #300, #260, #67, #465 ) ) ;
#422 = CARTESIAN_POINT ( 'NONE',  ( -1493.634723248077080, -166.1780912755376960, -103.9001569515057639 ) ) ;
#423 = ORIENTED_EDGE ( 'NONE', *, *, #127, .F. ) ;
#424 = DIRECTION ( 'NONE',  ( -0.4383711467890785696, 5.732682577254064654E-17, 0.8987940462991663715 ) ) ;
#425 = ORIENTED_EDGE ( 'NONE', *, *, #280, .T. ) ;
#426 =( BOUNDED_SURFACE ( )  B_SPLINE_SURFACE ( 3, 1, ( 
 ( #115, #383 ),
 ( #192, #395 ),
 ( #47, #601 ),
 ( #317, #731 ) ),
 .UNSPECIFIED., .F., .F., .F. ) 
 B_SPLINE_SURFACE_WITH_KNOTS ( ( 4, 4 ),
 ( 2, 2 ),
 ( 0.000000000000000000, 1.000000000000000000 ),
 ( 0.000000000000000000, 1.000000000000000000 ),
 .UNSPECIFIED. ) 
 GEOMETRIC_REPRESENTATION_ITEM ( )  RATIONAL_B_SPLINE_SURFACE ( (
 ( 1.000000000000000000, 1.000000000000000000),
 ( 0.3333333333333333703, 0.3333333333333333703),
 ( 0.3333333333333333703, 0.3333333333333333703),
 ( 1.000000000000000000, 1.000000000000000000) ) ) 
 REPRESENTATION_ITEM ( '' )  SURFACE ( )  );
#427 = CARTESIAN_POINT ( 'NONE',  ( -1295.882596849865195, 190.8490452678574911, -509.3521013862330165 ) ) ;
#428 = EDGE_LOOP ( 'NONE', ( #110, #388, #73, #87 ) ) ;
#429 = DIRECTION ( 'NONE',  ( -1.000000000000000000, 0.000000000000000000, 1.837630800822888320E-16 ) ) ;
#430 = AXIS2_PLACEMENT_3D ( 'NONE', #401, #207, #760 ) ;
#431 = EDGE_CURVE ( 'NONE', #734, #112, #342, .T. ) ;
#432 = AXIS2_PLACEMENT_3D ( 'NONE', #118, #261, #315 ) ;
#433 = CARTESIAN_POINT ( 'NONE',  ( -138.6426300473562208, -168.5122464582001953, 563.1008394475323939 ) ) ;
#434 = VERTEX_POINT ( 'NONE', #273 ) ;
#435 = DIRECTION ( 'NONE',  ( 0.4383711467890786251, -5.732682577254064654E-17, -0.8987940462991663715 ) ) ;
#436 = DIRECTION ( 'NONE',  ( 0.4383711467890786251, 0.000000000000000000, -0.8987940462991663715 ) ) ;
#437 = APPROVAL_ROLE ( '' ) ;
#438 = ORIENTED_EDGE ( 'NONE', *, *, #346, .T. ) ;
#439 = DIRECTION ( 'NONE',  ( -0.4383711467890785696, 5.732682577254064654E-17, 0.8987940462991664825 ) ) ;
#440 = ORIENTED_EDGE ( 'NONE', *, *, #762, .T. ) ;
#441 = DIRECTION ( 'NONE',  ( 0.8987940462991664825, 1.519186671157930353E-18, 0.4383711467890786251 ) ) ;
#442 = ORIENTED_EDGE ( 'NONE', *, *, #502, .F. ) ;
#443 = EDGE_CURVE ( 'NONE', #743, #163, #231, .T. ) ;
#444 = ORIENTED_EDGE ( 'NONE', *, *, #88, .T. ) ;
#445 = ADVANCED_FACE ( 'NONE', ( #526, #245 ), #219, .F. ) ;
#446 = ORIENTED_EDGE ( 'NONE', *, *, #620, .T. ) ;
#447 = ORIENTED_EDGE ( 'NONE', *, *, #443, .T. ) ;
#448 = CARTESIAN_POINT ( 'NONE',  ( -597.8979996804107486, 32.71665475151230140, -276.5925826289068823 ) ) ;
#449 = DIRECTION ( 'NONE',  ( -0.4383711467890786251, 5.732682577254064654E-17, 0.8987940462991664825 ) ) ;
#450 = DIRECTION ( 'NONE',  ( -1.000000000000000000, 0.000000000000000000, 1.963117343258975623E-16 ) ) ;
#451 = EDGE_CURVE ( 'NONE', #659, #369, #835, .T. ) ;
#452 = VERTEX_POINT ( 'NONE', #3 ) ;
#453 = DIRECTION ( 'NONE',  ( 0.8987940462991664825, 1.519186671157930353E-18, 0.4383711467890786251 ) ) ;
#454 = CARTESIAN_POINT ( 'NONE',  ( 148.0000000000000284, 200.0000000000000000, -2.724244655281664595 ) ) ;
#455 = CARTESIAN_POINT ( 'NONE',  ( 136.0000000000000000, 116.0848936032594452, -217.3519209080185419 ) ) ;
#456 = FACE_OUTER_BOUND ( 'NONE', #686, .T. ) ;
#457 = ADVANCED_FACE ( 'NONE', ( #540, #236 ), #892, .F. ) ;
#458 = DIRECTION ( 'NONE',  ( 2.775557561562891351E-16, 0.000000000000000000, 1.000000000000000000 ) ) ;
#459 = VECTOR ( 'NONE', #31, 1000.000000000000000 ) ;
#460 = FACE_OUTER_BOUND ( 'NONE', #754, .T. ) ;
#461 = ORIENTED_EDGE ( 'NONE', *, *, #379, .T. ) ;
#462 = VERTEX_POINT ( 'NONE', #612 ) ;
#463 = CARTESIAN_POINT ( 'NONE',  ( 148.0000000000000284, 110.7815927443608217, -125.7815927443606228 ) ) ;
#464 = VECTOR ( 'NONE', #204, 1000.000000000000000 ) ;
#465 = ADVANCED_FACE ( 'NONE', ( #844 ), #244, .F. ) ;
#466 = CARTESIAN_POINT ( 'NONE',  ( 148.0000000000000284, 110.7815927443608217, -125.7815927443606228 ) ) ;
#467 = LINE ( 'NONE', #125, #464 ) ;
#468 = DIRECTION ( 'NONE',  ( 1.249144747271039979E-16, 1.000000000000000000, 2.537325267894297338E-17 ) ) ;
#469 = CARTESIAN_POINT ( 'NONE',  ( 135.9999999999999716, 200.0000000000000000, -280.0000000000000000 ) ) ;
#470 = PLANE ( 'NONE',  #306 ) ;
#471 = EDGE_LOOP ( 'NONE', ( #447, #137, #194, #354 ) ) ;
#472 = ORIENTED_EDGE ( 'NONE', *, *, #313, .F. ) ;
#473 = LINE ( 'NONE', #877, #459 ) ;
#474 = CARTESIAN_POINT ( 'NONE',  ( 148.0000000000000284, 159.2184072556390788, -174.2184072556394199 ) ) ;
#475 = DIRECTION ( 'NONE',  ( 1.000000000000000000, 0.000000000000000000, 0.000000000000000000 ) ) ;
#476 = AXIS2_PLACEMENT_3D ( 'NONE', #575, #865, #436 ) ;
#477 = EDGE_CURVE ( 'NONE', #673, #358, #533, .T. ) ;
#478 = FACE_OUTER_BOUND ( 'NONE', #778, .T. ) ;
#479 = AXIS2_PLACEMENT_3D ( 'NONE', #15, #227, #429 ) ;
#480 = CYLINDRICAL_SURFACE ( 'NONE', #6, 23.80000000000001492 ) ;
#481 =( BOUNDED_CURVE ( )  B_SPLINE_CURVE ( 3, ( #285, #55, #136, #337 ),
 .UNSPECIFIED., .F., .F. ) 
 B_SPLINE_CURVE_WITH_KNOTS ( ( 4, 4 ),
 ( 0.000000000000000000, 3.141592653589793116 ),
 .UNSPECIFIED. ) 
 CURVE ( )  GEOMETRIC_REPRESENTATION_ITEM ( )  RATIONAL_B_SPLINE_CURVE ( ( 1.000000000000000000, 0.3333333333333333703, 0.3333333333333333703, 1.000000000000000000 ) ) 
 REPRESENTATION_ITEM ( '' )  );
#482 = CARTESIAN_POINT ( 'NONE',  ( -142.4502161734614276, -174.1181557104808348, 570.9075479090308818 ) ) ;
#483 = ORIENTED_EDGE ( 'NONE', *, *, #749, .F. ) ;
#484 =( BOUNDED_CURVE ( )  B_SPLINE_CURVE ( 3, ( #650, #715, #455, #241 ),
 .UNSPECIFIED., .F., .F. ) 
 B_SPLINE_CURVE_WITH_KNOTS ( ( 4, 4 ),
 ( 0.000000000000000000, 3.141592653589793116 ),
 .UNSPECIFIED. ) 
 CURVE ( )  GEOMETRIC_REPRESENTATION_ITEM ( )  RATIONAL_B_SPLINE_CURVE ( ( 1.000000000000000000, 0.3333333333333333703, 0.3333333333333333703, 1.000000000000000000 ) ) 
 REPRESENTATION_ITEM ( '' )  );
#485 = VERTEX_POINT ( 'NONE', #494 ) ;
#486 = CARTESIAN_POINT ( 'NONE',  ( 136.0000000000000000, -21.11625640766560608, -1.831799631095314407 ) ) ;
#487 = EDGE_LOOP ( 'NONE', ( #148, #656, #352, #442 ) ) ;
#488 = CARTESIAN_POINT ( 'NONE',  ( 141.9961221167231997, -21.39271454153179874, 5.955504051141256916 ) ) ;
#489 = VECTOR ( 'NONE', #695, 1000.000000000000000 ) ;
#490 = VECTOR ( 'NONE', #450, 1000.000000000000000 ) ;
#491 = EDGE_CURVE ( 'NONE', #129, #366, #535, .T. ) ;
#492 = CARTESIAN_POINT ( 'NONE',  ( -131.6646876178715502, -174.1181557104808348, 576.1680016704996206 ) ) ;
#493 = CIRCLE ( 'NONE', #432, 1794.929447807772021 ) ;
#494 = CARTESIAN_POINT ( 'NONE',  ( 90.62894887081493778, 200.0000000000000000, 120.3985048191155158 ) ) ;
#495 = ORIENTED_EDGE ( 'NONE', *, *, #313, .T. ) ;
#496 = UNCERTAINTY_MEASURE_WITH_UNIT (LENGTH_MEASURE( 1.000000000000000082E-05 ), #104, 'distance_accuracy_value', 'NONE');
#497 = FACE_OUTER_BOUND ( 'NONE', #405, .T. ) ;
#498 = ORIENTED_EDGE ( 'NONE', *, *, #658, .T. ) ;
#499 = CARTESIAN_POINT ( 'NONE',  ( -134.0173215106295288, -179.1188679977924210, 580.9916159786496337 ) ) ;
#500 = CARTESIAN_POINT ( 'NONE',  ( -1181.539875410755712, -1813.876563846468798, -743.7894224094700348 ) ) ;
#501 = CYLINDRICAL_SURFACE ( 'NONE', #531, 1792.874786481197134 ) ;
#502 = EDGE_CURVE ( 'NONE', #679, #126, #248, .T. ) ;
#503 = PLANE ( 'NONE',  #262 ) ;
#504 = CC_DESIGN_DATE_AND_TIME_ASSIGNMENT ( #900, #253, ( #239 ) ) ;
#505 = LINE ( 'NONE', #670, #188 ) ;
#506 = CARTESIAN_POINT ( 'NONE',  ( -1480.830147899084068, -3.223657978678680536, -130.1534269793382634 ) ) ;
#507 = DIRECTION ( 'NONE',  ( 1.000000000000000000, 0.000000000000000000, -1.963117343258975623E-16 ) ) ;
#508 = ADVANCED_FACE ( 'NONE', ( #826 ), #856, .F. ) ;
#509 = VECTOR ( 'NONE', #439, 1000.000000000000114 ) ;
#510 = VERTEX_POINT ( 'NONE', #162 ) ;
#511 = CARTESIAN_POINT ( 'NONE',  ( -137.4637425416752592, -167.3043969813939782, 560.6837618658460087 ) ) ;
#512 = FACE_OUTER_BOUND ( 'NONE', #113, .T. ) ;
#513 = B_SPLINE_CURVE_WITH_KNOTS ( 'NONE', 3,
 ( #281, #852, #576, #836 ),
 .UNSPECIFIED., .F., .F.,
 ( 4, 4 ),
 ( 0.000000000000000000, 1.000000000000000000 ),
 .UNSPECIFIED. ) ;
#514 = VECTOR ( 'NONE', #642, 1000.000000000000114 ) ;
#515 = CARTESIAN_POINT ( 'NONE',  ( -131.1551315682742995, -173.2094501819051402, 575.1232569445118088 ) ) ;
#516 = AXIS2_PLACEMENT_3D ( 'NONE', #308, #344, #643 ) ;
#517 = EDGE_CURVE ( 'NONE', #649, #366, #834, .T. ) ;
#518 =( NAMED_UNIT ( * ) SI_UNIT ( $, .STERADIAN. ) SOLID_ANGLE_UNIT ( ) );
#519 = ORIENTED_EDGE ( 'NONE', *, *, #785, .F. ) ;
#520 = CIRCLE ( 'NONE', #613, 1792.874786481197134 ) ;
#521 = ORIENTED_EDGE ( 'NONE', *, *, #710, .T. ) ;
#522 = LINE ( 'NONE', #427, #514 ) ;
#523 = CARTESIAN_POINT ( 'NONE',  ( 136.0000000000000000, 153.9151063967404127, -82.64807909198147229 ) ) ;
#524 = VECTOR ( 'NONE', #237, 1000.000000000000000 ) ;
#525 = DATE_TIME_ROLE ( 'creation_date' ) ;
#526 = FACE_BOUND ( 'NONE', #159, .T. ) ;
#527 = CARTESIAN_POINT ( 'NONE',  ( -1493.634723248077307, -188.9087167967830965, -103.9001569515056644 ) ) ;
#528 = LINE ( 'NONE', #410, #228 ) ;
#529 = DIRECTION ( 'NONE',  ( -1.000000000000000000, 0.000000000000000000, 1.963117343258975623E-16 ) ) ;
#530 = B_SPLINE_CURVE_WITH_KNOTS ( 'NONE', 3,
 ( #776, #486, #2, #689, #338, #849 ),
 .UNSPECIFIED., .F., .F.,
 ( 4, 2, 4 ),
 ( 0.000000000000000000, 0.5000000000000000000, 1.000000000000000000 ),
 .UNSPECIFIED. ) ;
#531 = AXIS2_PLACEMENT_3D ( 'NONE', #399, #35, #212 ) ;
#532 = EDGE_CURVE ( 'NONE', #369, #358, #547, .T. ) ;
#533 = LINE ( 'NONE', #422, #224 ) ;
#534 = CARTESIAN_POINT ( 'NONE',  ( 147.1710041498103578, -21.28202229290216607, 4.470111669803878307 ) ) ;
#535 = CIRCLE ( 'NONE', #516, 1792.874786481196907 ) ;
#536 = CARTESIAN_POINT ( 'NONE',  ( -1277.562820776833860, 100.0000000000000142, -546.9132086456412480 ) ) ;
#537 = LINE ( 'NONE', #629, #554 ) ;
#538 = FACE_OUTER_BOUND ( 'NONE', #713, .T. ) ;
#539 = CARTESIAN_POINT ( 'NONE',  ( 135.9999999999999716, 32.71665475151230140, -276.5925826289069960 ) ) ;
#540 = FACE_BOUND ( 'NONE', #61, .T. ) ;
#541 = CARTESIAN_POINT ( 'NONE',  ( 148.0000000000000284, 110.7815927443608217, -125.7815927443606228 ) ) ;
#542 = CC_DESIGN_DATE_AND_TIME_ASSIGNMENT ( #560, #525, ( #291 ) ) ;
#543 = CIRCLE ( 'NONE', #685, 100.0000000000000426 ) ;
#544 = AXIS2_PLACEMENT_3D ( 'NONE', #527, #243, #160 ) ;
#545 = CARTESIAN_POINT ( 'NONE',  ( 145.5912983019202045, 199.9999999999999432, 7.708988638298420071 ) ) ;
#546 = VECTOR ( 'NONE', #833, 1000.000000000000000 ) ;
#547 = CIRCLE ( 'NONE', #476, 1794.929447807772021 ) ;
#548 = DIRECTION ( 'NONE',  ( -0.4383711467890785696, 5.732682577254064654E-17, 0.8987940462991663715 ) ) ;
#549 = PERSON_AND_ORGANIZATION ( #75, #274 ) ;
#550 = CARTESIAN_POINT ( 'NONE',  ( 136.0000000000000000, 110.7815927443608217, -125.7815927443606228 ) ) ;
#551 = VECTOR ( 'NONE', #24, 1000.000000000000000 ) ;
#552 = DIRECTION ( 'NONE',  ( 0.000000000000000000, -1.000000000000000000, -0.000000000000000000 ) ) ;
#553 = COORDINATED_UNIVERSAL_TIME_OFFSET ( 1, 0, .AHEAD. ) ;
#554 = VECTOR ( 'NONE', #585, 1000.000000000000000 ) ;
#555 = LOCAL_TIME ( 14, 38, 55.00000000000000000, #553 ) ;
#556 = CARTESIAN_POINT ( 'NONE',  ( -142.4502161734617687, -174.1181557104808348, 570.9075479090306544 ) ) ;
#557 = DIRECTION ( 'NONE',  ( -1.000000000000000000, 0.000000000000000000, 2.004407377704292584E-16 ) ) ;
#558 = EDGE_CURVE ( 'NONE', #649, #90, #862, .T. ) ;
#559 = DIRECTION ( 'NONE',  ( -0.8987940462991665935, -1.519186671157930546E-18, -0.4383711467890786806 ) ) ;
#560 = DATE_AND_TIME ( #851, #555 ) ;
#561 = CARTESIAN_POINT ( 'NONE',  ( 135.9999999999999716, 6.834750241260789672, -280.0000000000000000 ) ) ;
#562 = COORDINATED_UNIVERSAL_TIME_OFFSET ( 1, 0, .AHEAD. ) ;
#563 = CARTESIAN_POINT ( 'NONE',  ( -129.2614329491297553, -170.3366867685405168, 571.2405993908838582 ) ) ;
#564 = DIRECTION ( 'NONE',  ( -2.118200922145125270E-33, -1.000000000000000000, -2.157997258206373886E-17 ) ) ;
#565 = CARTESIAN_POINT ( 'NONE',  ( -147.6799019938043216, -188.9087167967830965, 581.6299928366389622 ) ) ;
#566 = CARTESIAN_POINT ( 'NONE',  ( 136.0000000000000000, -21.06096478089236612, -2.724244655281755634 ) ) ;
#567 = VECTOR ( 'NONE', #258, 1000.000000000000000 ) ;
#568 = AXIS2_PLACEMENT_3D ( 'NONE', #329, #398, #475 ) ;
#569 = EDGE_CURVE ( 'NONE', #699, #679, #842, .T. ) ;
#570 = VECTOR ( 'NONE', #745, 1000.000000000000000 ) ;
#571 = DIRECTION ( 'NONE',  ( -1.000000000000000000, 0.000000000000000000, 9.815586716294878114E-17 ) ) ;
#572 = LINE ( 'NONE', #1, #567 ) ;
#573 = CARTESIAN_POINT ( 'NONE',  ( -144.8028500662197473, -179.1188679977924210, 575.7311622171806675 ) ) ;
#574 = CIRCLE ( 'NONE', #430, 100.0000000000000000 ) ;
#575 = CARTESIAN_POINT ( 'NONE',  ( 186.6518942368936678, -1813.876563846468798, -76.47770894471298675 ) ) ;
#576 = CARTESIAN_POINT ( 'NONE',  ( 147.1710041498103578, -21.28202229290216607, 4.470111669803878307 ) ) ;
#577 = AXIS2_PLACEMENT_3D ( 'NONE', #197, #128, #458 ) ;
#578 = CARTESIAN_POINT ( 'NONE',  ( -146.5533241333372132, -184.4554989819231423, 579.3201659215761765 ) ) ;
#579 = EDGE_CURVE ( 'NONE', #744, #462, #837, .T. ) ;
#580 = PERSON_AND_ORGANIZATION ( #75, #274 ) ;
#581 = CARTESIAN_POINT ( 'NONE',  ( -143.9136299379978254, -176.9971488509766004, 573.9079907722806411 ) ) ;
#582 = APPROVAL_PERSON_ORGANIZATION ( #872, #214, #437 ) ;
#583 = CARTESIAN_POINT ( 'NONE',  ( -597.8979996804107486, -40.35333153868059242, -279.9999999999999432 ) ) ;
#584 = LINE ( 'NONE', #769, #893 ) ;
#585 = DIRECTION ( 'NONE',  ( -2.376499042043254194E-17, -1.000000000000000000, 5.219097730081132726E-17 ) ) ;
#586 = EDGE_CURVE ( 'NONE', #673, #734, #537, .T. ) ;
#587 = DIRECTION ( 'NONE',  ( 1.000000000000000000, 0.000000000000000000, -1.963117343258975623E-16 ) ) ;
#588 = LINE ( 'NONE', #693, #590 ) ;
#589 = EDGE_CURVE ( 'NONE', #375, #679, #858, .T. ) ;
#590 = VECTOR ( 'NONE', #145, 1000.000000000000000 ) ;
#591 = PERSON_AND_ORGANIZATION ( #75, #274 ) ;
#592 = DIRECTION ( 'NONE',  ( -1.249144747271039979E-16, -1.000000000000000000, -2.537325267894297338E-17 ) ) ;
#593 = DATE_AND_TIME ( #882, #257 ) ;
#594 = PERSON_AND_ORGANIZATION_ROLE ( 'creator' ) ;
#595 = CALENDAR_DATE ( 2023, 30, 5 ) ;
#596 = CARTESIAN_POINT ( 'NONE',  ( -1462.510371826052733, -94.07270324653603666, -167.7145342387467224 ) ) ;
#597 = LINE ( 'NONE', #630, #272 ) ;
#598 = PERSON_AND_ORGANIZATION_ROLE ( 'design_supplier' ) ;
#599 = APPROVAL_DATE_TIME ( #593, #660 ) ;
#600 = CARTESIAN_POINT ( 'NONE',  ( 136.0000000000000284, -21.17165678850659916, -0.9375992411818886429 ) ) ;
#601 = CARTESIAN_POINT ( 'NONE',  ( 136.0000000000000000, 202.3519209080187125, -131.0848936032602978 ) ) ;
#602 = PERSON_AND_ORGANIZATION ( #75, #274 ) ;
#603 = DIRECTION ( 'NONE',  ( 0.8987940462991664825, 1.519186671157930353E-18, 0.4383711467890786251 ) ) ;
#604 = DIRECTION ( 'NONE',  ( -0.4383711467890782365, 0.000000000000000000, 0.8987940462991664825 ) ) ;
#605 = EDGE_CURVE ( 'NONE', #375, #142, #226, .T. ) ;
#606 = EDGE_CURVE ( 'NONE', #755, #434, #16, .T. ) ;
#607 = CC_DESIGN_APPROVAL ( #660, ( #89 ) ) ;
#608 = DIRECTION ( 'NONE',  ( 9.815586716294878114E-17, 0.000000000000000000, 1.000000000000000000 ) ) ;
#609 = DIRECTION ( 'NONE',  ( 1.963117343258975623E-16, 0.000000000000000000, 1.000000000000000000 ) ) ;
#610 = CARTESIAN_POINT ( 'NONE',  ( -136.2284821560180035, -166.1780912755376960, 558.1511027517822185 ) ) ;
#611 = DIRECTION ( 'NONE',  ( 1.000000000000000000, 0.000000000000000000, -1.963117343258975623E-16 ) ) ;
#612 = CARTESIAN_POINT ( 'NONE',  ( 148.0000000000000568, 125.8819045102515588, -251.6290291934095080 ) ) ;
#613 = AXIS2_PLACEMENT_3D ( 'NONE', #750, #41, #133 ) ;
#614 = CARTESIAN_POINT ( 'NONE',  ( -144.0847258085952944, -188.9087167967830965, 583.3834774238014234 ) ) ;
#615 = DIRECTION ( 'NONE',  ( 5.080921562064745946E-17, 0.9659258262890697555, 0.2588190451025151884 ) ) ;
#616 = CARTESIAN_POINT ( 'NONE',  ( -138.1557168573112051, -253.9087167967821870, 589.4765838559271742 ) ) ;
#617 = PLANE ( 'NONE',  #773 ) ;
#618 = APPLICATION_CONTEXT ( 'configuration controlled 3d designs of mechanical parts and assemblies' ) ;
#619 = CARTESIAN_POINT ( 'NONE',  ( 124.2000000000001734, 1210.587075503658525, -2.724244655281634397 ) ) ;
#620 = EDGE_CURVE ( 'NONE', #157, #368, #677, .T. ) ;
#621 = CARTESIAN_POINT ( 'NONE',  ( 148.0000000000000000, 200.0000000000000000, -155.0364465645025689 ) ) ;
#622 = CC_DESIGN_PERSON_AND_ORGANIZATION_ASSIGNMENT ( #549, #594, ( #291 ) ) ;
#623 = CARTESIAN_POINT ( 'NONE',  ( -137.4637425416756003, -167.3043969813939782, 560.6837618658457814 ) ) ;
#624 = CARTESIAN_POINT ( 'NONE',  ( -135.0174213715467317, -182.0320617036269937, 583.0421245654521272 ) ) ;
#625 = APPROVAL_ROLE ( '' ) ;
#626 = EDGE_CURVE ( 'NONE', #381, #112, #408, .T. ) ;
#627 = DIRECTION ( 'NONE',  ( -0.4383711467890786251, 0.000000000000000000, 0.8987940462991663715 ) ) ;
#628 = CARTESIAN_POINT ( 'NONE',  ( -147.6799019937684534, -188.9087167967831249, 581.6299928366563563 ) ) ;
#629 = CARTESIAN_POINT ( 'NONE',  ( -136.2284821560178045, -253.9087167967821870, 558.1511027517826733 ) ) ;
#630 = CARTESIAN_POINT ( 'NONE',  ( 136.0000000000000000, 200.0000000000000000, -2.724244655281662375 ) ) ;
#631 = ORIENTED_EDGE ( 'NONE', *, *, #886, .T. ) ;
#632 =( GEOMETRIC_REPRESENTATION_CONTEXT ( 3 ) GLOBAL_UNCERTAINTY_ASSIGNED_CONTEXT ( ( #496 ) ) GLOBAL_UNIT_ASSIGNED_CONTEXT ( ( #104, #718, #518 ) ) REPRESENTATION_CONTEXT ( 'NONE', 'WORKASPACE' ) );
#633 = CARTESIAN_POINT ( 'NONE',  ( 124.2000000000000313, 199.9999999999999432, -2.724244655281659711 ) ) ;
#634 = EDGE_CURVE ( 'NONE', #368, #434, #846, .T. ) ;
#635 = AXIS2_PLACEMENT_3D ( 'NONE', #804, #201, #321 ) ;
#636 = MANIFOLD_SOLID_BREP ( '<DSV-238>-<Process-Bends1>', #421 ) ;
#637 = ADVANCED_FACE ( 'NONE', ( #538 ), #426, .T. ) ;
#638 = DIRECTION ( 'NONE',  ( -0.1831977607303125200, 0.9084904526785747558, 0.3756110725940832173 ) ) ;
#639 = DIRECTION ( 'NONE',  ( 2.775557561562891351E-16, 0.000000000000000000, 1.000000000000000000 ) ) ;
#640 = PRODUCT_DEFINITION_SHAPE ( 'NONE', 'NONE',  #291 ) ;
#641 = AXIS2_PLACEMENT_3D ( 'NONE', #633, #309, #303 ) ;
#642 = DIRECTION ( 'NONE',  ( 0.8987940462991664825, 1.519186671157930353E-18, 0.4383711467890786251 ) ) ;
#643 = DIRECTION ( 'NONE',  ( 2.012535876592629421E-16, 0.000000000000000000, 1.000000000000000000 ) ) ;
#644 = DIRECTION ( 'NONE',  ( -5.080921562064745946E-17, -0.9659258262890697555, -0.2588190451025151884 ) ) ;
#645 = ORIENTED_EDGE ( 'NONE', *, *, #589, .F. ) ;
#646 = CARTESIAN_POINT ( 'NONE',  ( 134.8057697463301849, -21.39271454153180230, 2.448534876829442819 ) ) ;
#647 = ORIENTED_EDGE ( 'NONE', *, *, #11, .F. ) ;
#648 = ORIENTED_EDGE ( 'NONE', *, *, #885, .T. ) ;
#649 = VERTEX_POINT ( 'NONE', #561 ) ;
#650 = CARTESIAN_POINT ( 'NONE',  ( 136.0000000000000000, 110.7815927443608217, -125.7815927443606228 ) ) ;
#651 = DIRECTION ( 'NONE',  ( 1.000000000000000000, 0.000000000000000000, -1.963117343258975623E-16 ) ) ;
#652 = ORIENTED_EDGE ( 'NONE', *, *, #841, .F. ) ;
#653 = CARTESIAN_POINT ( 'NONE',  ( 135.9999999999999432, 125.8819045102515588, -251.6290291934095080 ) ) ;
#654 = ORIENTED_EDGE ( 'NONE', *, *, #225, .F. ) ;
#655 = DIRECTION ( 'NONE',  ( 1.000000000000000000, 0.000000000000000000, -1.963117343258975623E-16 ) ) ;
#656 = ORIENTED_EDGE ( 'NONE', *, *, #141, .T. ) ;
#657 = CARTESIAN_POINT ( 'NONE',  ( 145.5912983019203750, -21.39271454153179874, 7.708988638298477802 ) ) ;
#658 = EDGE_CURVE ( 'NONE', #90, #682, #848, .T. ) ;
#659 = VERTEX_POINT ( 'NONE', #545 ) ;
#660 = APPROVAL ( #791, 'UNSPECIFIED' ) ;
#661 = EDGE_LOOP ( 'NONE', ( #423, #402, #723, #54 ) ) ;
#662 = PLANE ( 'NONE',  #898 ) ;
#663 = ORIENTED_EDGE ( 'NONE', *, *, #238, .F. ) ;
#664 = CARTESIAN_POINT ( 'NONE',  ( 136.0000000000000000, 67.64807909198120228, -168.9151063967398159 ) ) ;
#665 = B_SPLINE_SURFACE_WITH_KNOTS ( 'NONE', 3, 1, ( 
 ( #232, #896 ),
 ( #623, #49 ),
 ( #413, #14 ),
 ( #7, #563 ),
 ( #57, #341 ),
 ( #218, #153 ),
 ( #278, #287 ),
 ( #333, #284 ),
 ( #556, #492 ),
 ( #211, #420 ),
 ( #573, #499 ),
 ( #669, #624 ),
 ( #124, #222 ),
 ( #203, #407 ),
 ( #578, #771 ),
 ( #845, #10 ),
 ( #63, #295 ),
 ( #628, #397 ) ),
 .UNSPECIFIED., .F., .F., .F.,
 ( 4, 2, 2, 2, 2, 2, 2, 2, 4 ),
 ( 2, 2 ),
 ( 0.000000000000000000, 0.2499999999999902300, 0.3124999999999912292, 0.3749999999999922284, 0.4999999999999930056, 0.7499999999999944489, 0.8124999999999958922, 0.8749999999999972244, 1.000000000000000000 ),
 ( 0.000000000000000000, 1.000000000000000000 ),
 .UNSPECIFIED. ) ;
#666 = EDGE_LOOP ( 'NONE', ( #394, #416, #95, #425 ) ) ;
#667 = CARTESIAN_POINT ( 'NONE',  ( -140.4895496233864662, -188.9087167967830965, 585.1369620109635434 ) ) ;
#668 = ORIENTED_EDGE ( 'NONE', *, *, #809, .F. ) ;
#669 = CARTESIAN_POINT ( 'NONE',  ( -145.8029499271369502, -182.0320617036269937, 577.7816708039831610 ) ) ;
#670 = CARTESIAN_POINT ( 'NONE',  ( 148.0000000000000000, 200.0000000000000000, -280.0000000000000000 ) ) ;
#671 = ORIENTED_EDGE ( 'NONE', *, *, #417, .F. ) ;
#672 = CARTESIAN_POINT ( 'NONE',  ( 72.30917279778387297, 190.8490452678574911, 157.9596120785239748 ) ) ;
#673 = VERTEX_POINT ( 'NONE', #610 ) ;
#674 = AXIS2_PLACEMENT_3D ( 'NONE', #331, #571, #828 ) ;
#675 = EDGE_CURVE ( 'NONE', #452, #392, #572, .T. ) ;
#676 = CARTESIAN_POINT ( 'NONE',  ( 148.0000000000000284, 100.0000000000000000, -155.0364465645025689 ) ) ;
#677 =( BOUNDED_CURVE ( )  B_SPLINE_CURVE ( 3, ( #240, #797, #698, #779 ),
 .UNSPECIFIED., .F., .F. ) 
 B_SPLINE_CURVE_WITH_KNOTS ( ( 4, 4 ),
 ( 3.141592653589793116, 6.283185307179586232 ),
 .UNSPECIFIED. ) 
 CURVE ( )  GEOMETRIC_REPRESENTATION_ITEM ( )  RATIONAL_B_SPLINE_CURVE ( ( 1.000000000000000000, 0.3333333333333333703, 0.3333333333333333703, 1.000000000000000000 ) ) 
 REPRESENTATION_ITEM ( '' )  );
#678 = ORIENTED_EDGE ( 'NONE', *, *, #406, .F. ) ;
#679 = VERTEX_POINT ( 'NONE', #880 ) ;
#680 = CARTESIAN_POINT ( 'NONE',  ( 135.9999999999999716, 20.00000000000001776, -280.0000000000000000 ) ) ;
#681 = MECHANICAL_CONTEXT ( 'NONE', #618, 'mechanical' ) ;
#682 = VERTEX_POINT ( 'NONE', #370 ) ;
#683 = CARTESIAN_POINT ( 'NONE',  ( 70.24432798163820735, 200.0000000000000000, 134.8191069448749602 ) ) ;
#684 = ORIENTED_EDGE ( 'NONE', *, *, #174, .T. ) ;
#685 = AXIS2_PLACEMENT_3D ( 'NONE', #334, #559, #767 ) ;
#686 = EDGE_LOOP ( 'NONE', ( #717, #103, #728, #798, #385, #816, #440, #705, #93, #98 ) ) ;
#687 = DIRECTION ( 'NONE',  ( 0.3982560015876356885, 0.4179056082321442323, -0.8165458099871375497 ) ) ;
#688 = ORIENTED_EDGE ( 'NONE', *, *, #502, .T. ) ;
#689 = CARTESIAN_POINT ( 'NONE',  ( 135.4968103153311176, -21.28213128798532239, 0.7997495020096991869 ) ) ;
#690 = ORIENTED_EDGE ( 'NONE', *, *, #696, .T. ) ;
#691 = DIRECTION ( 'NONE',  ( -5.351933316160097832E-17, 1.000000000000000000, 1.062653682332888420E-16 ) ) ;
#692 = ORIENTED_EDGE ( 'NONE', *, *, #606, .F. ) ;
#693 = CARTESIAN_POINT ( 'NONE',  ( -148.9412454129012247, -253.9087167967821870, 584.2161300944583218 ) ) ;
#694 = VERTEX_POINT ( 'NONE', #122 ) ;
#695 = DIRECTION ( 'NONE',  ( -5.080921562064745946E-17, -0.9659258262890697555, -0.2588190451025151884 ) ) ;
#696 = EDGE_CURVE ( 'NONE', #510, #743, #855, .T. ) ;
#697 = VERTEX_POINT ( 'NONE', #376 ) ;
#698 = CARTESIAN_POINT ( 'NONE',  ( 148.0000000000000284, 153.9151063967404127, -82.64807909198147229 ) ) ;
#699 = VERTEX_POINT ( 'NONE', #39 ) ;
#700 = CARTESIAN_POINT ( 'NONE',  ( -144.8028500662192926, -179.1188679977924210, 575.7311622171808949 ) ) ;
#701 = ORIENTED_EDGE ( 'NONE', *, *, #517, .T. ) ;
#702 = CARTESIAN_POINT ( 'NONE',  ( 148.0000000000000284, 200.0000000000000000, 2.770418293506743623 ) ) ;
#703 = B_SPLINE_SURFACE_WITH_KNOTS ( 'NONE', 1, 3, ( 
 ( #307, #355, #534, #793 ),
 ( #172, #600, #316, #646 ) ),
 .UNSPECIFIED., .F., .F., .F.,
 ( 2, 2 ),
 ( 4, 4 ),
 ( 0.000000000000000000, 1.000000000000000000 ),
 ( 0.000000000000000000, 1.000000000000000000 ),
 .UNSPECIFIED. ) ;
#704 = CARTESIAN_POINT ( 'NONE',  ( 79.84342031522542982, 100.0000000000000142, 115.1380510576468197 ) ) ;
#705 = ORIENTED_EDGE ( 'NONE', *, *, #605, .F. ) ;
#706 = ORIENTED_EDGE ( 'NONE', *, *, #379, .F. ) ;
#707 = EDGE_CURVE ( 'NONE', #708, #694, #801, .T. ) ;
#708 = VERTEX_POINT ( 'NONE', #111 ) ;
#709 = PLANE ( 'NONE',  #641 ) ;
#710 = EDGE_CURVE ( 'NONE', #392, #462, #825, .T. ) ;
#711 = VERTEX_POINT ( 'NONE', #130 ) ;
#712 = CARTESIAN_POINT ( 'NONE',  ( 136.0000000000000284, 200.0000000000000000, -2.539983480371814671E-14 ) ) ;
#713 = EDGE_LOOP ( 'NONE', ( #663, #446, #64, #692 ) ) ;
#714 = CARTESIAN_POINT ( 'NONE',  ( 148.0000000000000568, 20.00000000000001776, -280.0000000000000000 ) ) ;
#715 = CARTESIAN_POINT ( 'NONE',  ( 136.0000000000000000, 67.64807909198120228, -168.9151063967397874 ) ) ;
#716 = ORIENTED_EDGE ( 'NONE', *, *, #174, .F. ) ;
#717 = ORIENTED_EDGE ( 'NONE', *, *, #88, .F. ) ;
#718 =( NAMED_UNIT ( * ) PLANE_ANGLE_UNIT ( ) SI_UNIT ( $, .RADIAN. ) );
#719 = AXIS2_PLACEMENT_3D ( 'NONE', #676, #894, #314 ) ;
#720 = EDGE_CURVE ( 'NONE', #163, #79, #205, .T. ) ;
#721 = ORIENTED_EDGE ( 'NONE', *, *, #491, .F. ) ;
#722 = DIRECTION ( 'NONE',  ( 0.8987940462991664825, 1.519186671157930353E-18, 0.4383711467890786251 ) ) ;
#723 = ORIENTED_EDGE ( 'NONE', *, *, #811, .T. ) ;
#724 = DIRECTION ( 'NONE',  ( -0.4383711467890785696, 5.732682577254064654E-17, 0.8987940462991663715 ) ) ;
#725 = ORIENTED_EDGE ( 'NONE', *, *, #558, .F. ) ;
#726 = CARTESIAN_POINT ( 'NONE',  ( -597.8979996804107486, 200.0000000000000000, -279.9999999999999432 ) ) ;
#727 = ORIENTED_EDGE ( 'NONE', *, *, #451, .F. ) ;
#728 = ORIENTED_EDGE ( 'NONE', *, *, #831, .T. ) ;
#729 = PLANE ( 'NONE',  #544 ) ;
#730 = EDGE_LOOP ( 'NONE', ( #747, #759, #732, #461 ) ) ;
#731 = CARTESIAN_POINT ( 'NONE',  ( 136.0000000000000000, 159.2184072556390788, -174.2184072556394199 ) ) ;
#732 = ORIENTED_EDGE ( 'NONE', *, *, #225, .T. ) ;
#733 = CC_DESIGN_PERSON_AND_ORGANIZATION_ASSIGNMENT ( #602, #598, ( #89 ) ) ;
#734 = VERTEX_POINT ( 'NONE', #748 ) ;
#735 = EDGE_CURVE ( 'NONE', #375, #485, #190, .T. ) ;
#736 = ORIENTED_EDGE ( 'NONE', *, *, #871, .T. ) ;
#737 = CARTESIAN_POINT ( 'NONE',  ( -125.4429536004276713, -166.1780912755376960, 563.4115565132516394 ) ) ;
#738 = ORIENTED_EDGE ( 'NONE', *, *, #517, .F. ) ;
#739 = CARTESIAN_POINT ( 'NONE',  ( 148.0000000000000000, 200.0000000000000000, -280.0000000000000000 ) ) ;
#740 = ORIENTED_EDGE ( 'NONE', *, *, #443, .F. ) ;
#741 = ADVANCED_FACE ( 'NONE', ( #829 ), #234, .T. ) ;
#742 = CARTESIAN_POINT ( 'NONE',  ( 136.0000000000000284, 200.0000000000000000, -2.539983480371814671E-14 ) ) ;
#743 = VERTEX_POINT ( 'NONE', #389 ) ;
#744 = VERTEX_POINT ( 'NONE', #653 ) ;
#745 = DIRECTION ( 'NONE',  ( 2.376499042043254194E-17, 1.000000000000000000, -5.219097730081132726E-17 ) ) ;
#746 =( BOUNDED_SURFACE ( )  B_SPLINE_SURFACE ( 3, 1, ( 
 ( #324, #44 ),
 ( #189, #817 ),
 ( #888, #664 ),
 ( #541, #550 ) ),
 .UNSPECIFIED., .F., .F., .F. ) 
 B_SPLINE_SURFACE_WITH_KNOTS ( ( 4, 4 ),
 ( 2, 2 ),
 ( 0.000000000000000000, 1.000000000000000000 ),
 ( 0.000000000000000000, 1.000000000000000000 ),
 .UNSPECIFIED. ) 
 GEOMETRIC_REPRESENTATION_ITEM ( )  RATIONAL_B_SPLINE_SURFACE ( (
 ( 1.000000000000000000, 1.000000000000000000),
 ( 0.3333333333333333703, 0.3333333333333333703),
 ( 0.3333333333333333703, 0.3333333333333333703),
 ( 1.000000000000000000, 1.000000000000000000) ) ) 
 REPRESENTATION_ITEM ( '' )  SURFACE ( )  );
#747 = ORIENTED_EDGE ( 'NONE', *, *, #735, .F. ) ;
#748 = CARTESIAN_POINT ( 'NONE',  ( -136.2284821560140244, -166.3525671923413540, 558.1511027517747152 ) ) ;
#749 = EDGE_CURVE ( 'NONE', #808, #510, #322, .T. ) ;
#750 = CARTESIAN_POINT ( 'NONE',  ( 148.0000000000000284, -1813.876563846468798, -17.29228320330433988 ) ) ;
#751 = PLANE ( 'NONE',  #215 ) ;
#752 = ORIENTED_EDGE ( 'NONE', *, *, #326, .F. ) ;
#753 = CARTESIAN_POINT ( 'NONE',  ( 145.5912983019203750, -21.39271454153179874, 7.708988638298477802 ) ) ;
#754 = EDGE_LOOP ( 'NONE', ( #146, #48, #738, #795 ) ) ;
#755 = VERTEX_POINT ( 'NONE', #763 ) ;
#756 = CARTESIAN_POINT ( 'NONE',  ( 136.0000000000000000, -21.06096478089236612, -2.724244655281755634 ) ) ;
#757 = APPLICATION_PROTOCOL_DEFINITION ( 'international standard', 'config_control_design', 1994, #866 ) ;
#758 = DIRECTION ( 'NONE',  ( -1.963117343258975623E-16, 0.000000000000000000, -1.000000000000000000 ) ) ;
#759 = ORIENTED_EDGE ( 'NONE', *, *, #605, .T. ) ;
#760 = DIRECTION ( 'NONE',  ( 0.000000000000000000, -5.325601071248797780E-15, -1.000000000000000000 ) ) ;
#761 = VERTEX_POINT ( 'NONE', #164 ) ;
#762 = EDGE_CURVE ( 'NONE', #84, #142, #876, .T. ) ;
#763 = CARTESIAN_POINT ( 'NONE',  ( 136.0000000000000000, 159.2184072556390788, -174.2184072556394199 ) ) ;
#764 = CARTESIAN_POINT ( 'NONE',  ( -597.8979996804107486, 20.00000000000001776, -279.9999999999999432 ) ) ;
#765 = VERTEX_POINT ( 'NONE', #854 ) ;
#766 = LINE ( 'NONE', #454, #183 ) ;
#767 = DIRECTION ( 'NONE',  ( 0.4383711467890786806, -5.412337245047635768E-15, -0.8987940462991662605 ) ) ;
#768 = ORIENTED_EDGE ( 'NONE', *, *, #259, .F. ) ;
#769 = CARTESIAN_POINT ( 'NONE',  ( -1506.347486504960898, -94.07270324653600824, -77.83512960883008702 ) ) ;
#770 = ORIENTED_EDGE ( 'NONE', *, *, #238, .T. ) ;
#771 = CARTESIAN_POINT ( 'NONE',  ( -135.7677955777470231, -184.4554989819231423, 584.5806196830451427 ) ) ;
#772 = CARTESIAN_POINT ( 'NONE',  ( 136.0000000000000000, 159.2184072556390788, -174.2184072556394199 ) ) ;
#773 = AXIS2_PLACEMENT_3D ( 'NONE', #764, #838, #615 ) ;
#774 = PLANE ( 'NONE',  #51 ) ;
#775 = ORIENTED_EDGE ( 'NONE', *, *, #749, .T. ) ;
#776 = CARTESIAN_POINT ( 'NONE',  ( 136.0000000000000000, -21.06096478089236612, -2.724244655281755634 ) ) ;
#777 = EDGE_LOOP ( 'NONE', ( #483, #171, #40, #43, #752 ) ) ;
#778 = EDGE_LOOP ( 'NONE', ( #58, #400, #147, #119 ) ) ;
#779 = CARTESIAN_POINT ( 'NONE',  ( 148.0000000000000284, 110.7815927443608217, -125.7815927443606228 ) ) ;
#780 = CARTESIAN_POINT ( 'NONE',  ( -145.8029499271367229, -182.0320617036269937, 577.7816708039833884 ) ) ;
#781 = PRODUCT ( 'DSV-239', 'DSV-239', '', ( #681 ) ) ;
#782 = EDGE_LOOP ( 'NONE', ( #82, #818, #444, #438 ) ) ;
#783 = ADVANCED_FACE ( 'NONE', ( #881 ), #887, .T. ) ;
#784 = FACE_OUTER_BOUND ( 'NONE', #428, .T. ) ;
#785 = EDGE_CURVE ( 'NONE', #112, #358, #869, .T. ) ;
#786 = LINE ( 'NONE', #37, #185 ) ;
#787 = DIRECTION ( 'NONE',  ( 0.8987940462991663715, 1.519186671157930161E-18, 0.4383711467890785696 ) ) ;
#788 = FACE_OUTER_BOUND ( 'NONE', #363, .T. ) ;
#789 = ADVANCED_FACE ( 'NONE', ( #863 ), #503, .T. ) ;
#790 = FACE_OUTER_BOUND ( 'NONE', #661, .T. ) ;
#791 = APPROVAL_STATUS ( 'not_yet_approved' ) ;
#792 = FACE_OUTER_BOUND ( 'NONE', #471, .T. ) ;
#793 = CARTESIAN_POINT ( 'NONE',  ( 145.5912983019202045, -21.39271454153180230, 7.708988638298378326 ) ) ;
#794 = EDGE_CURVE ( 'NONE', #765, #697, #588, .T. ) ;
#795 = ORIENTED_EDGE ( 'NONE', *, *, #72, .T. ) ;
#796 = B_SPLINE_CURVE_WITH_KNOTS ( 'NONE', 3,
 ( #864, #92, #26, #32, #250, #367, #29, #99, #373, #879 ),
 .UNSPECIFIED., .F., .F.,
 ( 4, 2, 2, 2, 4 ),
 ( 0.000000000000000000, 0.1250000000000027478, 0.1875000000000041078, 0.2500000000000054956, 0.5000000000000069944 ),
 .UNSPECIFIED. ) ;
#797 = CARTESIAN_POINT ( 'NONE',  ( 148.0000000000000284, 202.3519209080187125, -131.0848936032602694 ) ) ;
#798 = ORIENTED_EDGE ( 'NONE', *, *, #200, .T. ) ;
#799 = ADVANCED_FACE ( 'NONE', ( #883 ), #774, .T. ) ;
#800 = FACE_OUTER_BOUND ( 'NONE', #374, .T. ) ;
#801 = LINE ( 'NONE', #739, #815 ) ;
#802 = CARTESIAN_POINT ( 'NONE',  ( -597.8979996804107486, 6.834750241260789672, -179.9999999999998863 ) ) ;
#803 = VECTOR ( 'NONE', #603, 1000.000000000000114 ) ;
#804 = CARTESIAN_POINT ( 'NONE',  ( -94.31860217840315386, -94.07270324653606508, 499.5971792260104394 ) ) ;
#805 = DIRECTION ( 'NONE',  ( 1.963117343258975623E-16, 0.000000000000000000, 1.000000000000000000 ) ) ;
#806 = CYLINDRICAL_SURFACE ( 'NONE', #166, 99.99999999999998579 ) ;
#807 = AXIS2_PLACEMENT_3D ( 'NONE', #536, #178, #604 ) ;
#808 = VERTEX_POINT ( 'NONE', #66 ) ;
#809 = EDGE_CURVE ( 'NONE', #129, #126, #597, .T. ) ;
#810 = DIRECTION ( 'NONE',  ( 0.000000000000000000, 0.000000000000000000, 1.000000000000000000 ) ) ;
#811 = EDGE_CURVE ( 'NONE', #711, #369, #513, .T. ) ;
#812 = VECTOR ( 'NONE', #182, 1000.000000000000114 ) ;
#813 = B_SPLINE_CURVE_WITH_KNOTS ( 'NONE', 3,
 ( #843, #511, #433, #403, #60, #340, #74, #221, #482, #581, #700, #780, #418, #235, #17, #302, #4, #565 ),
 .UNSPECIFIED., .F., .F.,
 ( 4, 2, 2, 2, 2, 2, 2, 2, 4 ),
 ( 0.000000000000000000, 0.2499999999999902300, 0.3124999999999912292, 0.3749999999999922284, 0.4999999999999930056, 0.7499999999999944489, 0.8124999999999958922, 0.8749999999999972244, 1.000000000000000000 ),
 .UNSPECIFIED. ) ;
#814 = LINE ( 'NONE', #583, #199 ) ;
#815 = VECTOR ( 'NONE', #552, 1000.000000000000000 ) ;
#816 = ORIENTED_EDGE ( 'NONE', *, *, #282, .F. ) ;
#817 = CARTESIAN_POINT ( 'NONE',  ( 136.0000000000000000, 116.0848936032594452, -217.3519209080185419 ) ) ;
#818 = ORIENTED_EDGE ( 'NONE', *, *, #477, .F. ) ;
#819 = CARTESIAN_POINT ( 'NONE',  ( -147.6799019938043216, -188.9087167967830965, 581.6299928366389622 ) ) ;
#820 = LINE ( 'NONE', #83, #524 ) ;
#821 = DIRECTION ( 'NONE',  ( -1.249144747271039979E-16, -1.000000000000000000, -2.537325267894297338E-17 ) ) ;
#822 = AXIS2_PLACEMENT_3D ( 'NONE', #139, #468, #69 ) ;
#823 = FACE_OUTER_BOUND ( 'NONE', #487, .T. ) ;
#824 = FACE_OUTER_BOUND ( 'NONE', #666, .T. ) ;
#825 = CIRCLE ( 'NONE', #719, 100.0000000000000000 ) ;
#826 = FACE_OUTER_BOUND ( 'NONE', #782, .T. ) ;
#827 = CARTESIAN_POINT ( 'NONE',  ( -136.8943734381783486, -188.9087167967830965, 586.8904465981255498 ) ) ;
#828 = DIRECTION ( 'NONE',  ( -9.815586716294878114E-17, 0.000000000000000000, -1.000000000000000000 ) ) ;
#829 = FACE_OUTER_BOUND ( 'NONE', #730, .T. ) ;
#830 = CARTESIAN_POINT ( 'NONE',  ( -129.5388046741140613, -170.7174455439941028, 571.8092957041673117 ) ) ;
#831 = EDGE_CURVE ( 'NONE', #734, #808, #813, .T. ) ;
#832 = APPROVAL_STATUS ( 'not_yet_approved' ) ;
#833 = DIRECTION ( 'NONE',  ( 5.351933316160096599E-17, -1.000000000000000000, -1.062653682332888173E-16 ) ) ;
#834 = LINE ( 'NONE', #339, #242 ) ;
#835 = LINE ( 'NONE', #213, #546 ) ;
#836 = CARTESIAN_POINT ( 'NONE',  ( 145.5912983019203750, -21.39271454153179874, 7.708988638298477802 ) ) ;
#837 = LINE ( 'NONE', #859, #551 ) ;
#838 = DIRECTION ( 'NONE',  ( -1.896225741889829428E-16, 0.2588190451025151884, -0.9659258262890697555 ) ) ;
#839 = APPROVAL_DATE_TIME ( #251, #214 ) ;
#840 = CARTESIAN_POINT ( 'NONE',  ( -132.1524922060499705, -175.0778200906460995, 577.1681492915829494 ) ) ;
#841 = EDGE_CURVE ( 'NONE', #368, #157, #481, .T. ) ;
#842 = LINE ( 'NONE', #847, #233 ) ;
#843 = CARTESIAN_POINT ( 'NONE',  ( -136.2284821560140244, -166.3525671923413540, 558.1511027517747152 ) ) ;
#844 = FACE_OUTER_BOUND ( 'NONE', #76, .T. ) ;
#845 = CARTESIAN_POINT ( 'NONE',  ( -147.0727482970053472, -186.3223879719290608, 580.3851432797545158 ) ) ;
#846 = LINE ( 'NONE', #466, #249 ) ;
#847 = CARTESIAN_POINT ( 'NONE',  ( 134.8057697463302986, 200.0000000000000000, 2.448534876829502771 ) ) ;
#848 = LINE ( 'NONE', #448, #860 ) ;
#849 = CARTESIAN_POINT ( 'NONE',  ( 134.8057697463301849, -21.39271454153179874, 2.448534876829445039 ) ) ;
#850 = PERSON_AND_ORGANIZATION ( #75, #274 ) ;
#851 = CALENDAR_DATE ( 2023, 30, 5 ) ;
#852 = CARTESIAN_POINT ( 'NONE',  ( 148.0000000000000568, -21.17165702952200590, 0.8793361448255144763 ) ) ;
#853 = CARTESIAN_POINT ( 'NONE',  ( 148.0000000000000284, 159.2184072556390788, -174.2184072556394199 ) ) ;
#854 = CARTESIAN_POINT ( 'NONE',  ( -148.9412454129014236, -188.9087167967830965, 584.2161300944582081 ) ) ;
#855 = LINE ( 'NONE', #269, #264 ) ;
#856 = CYLINDRICAL_SURFACE ( 'NONE', #279, 1794.929447807772021 ) ;
#857 = DIRECTION ( 'NONE',  ( -0.4383711467890783475, 0.000000000000000000, 0.8987940462991665935 ) ) ;
#858 = LINE ( 'NONE', #712, #267 ) ;
#859 = CARTESIAN_POINT ( 'NONE',  ( -597.8979996804107486, 125.8819045102515588, -251.6290291934093943 ) ) ;
#860 = VECTOR ( 'NONE', #310, 1000.000000000000000 ) ;
#861 = APPROVAL_ROLE ( '' ) ;
#862 = CIRCLE ( 'NONE', #312, 100.0000000000000000 ) ;
#863 = FACE_OUTER_BOUND ( 'NONE', #390, .T. ) ;
#864 = CARTESIAN_POINT ( 'NONE',  ( -136.8943734381783486, -188.9087167967830965, 586.8904465981255498 ) ) ;
#865 = DIRECTION ( 'NONE',  ( 0.8987940462991665935, 1.519186671157930546E-18, 0.4383711467890786806 ) ) ;
#866 = APPLICATION_CONTEXT ( 'configuration controlled 3d designs of mechanical parts and assemblies' ) ;
#867 = VECTOR ( 'NONE', #158, 1000.000000000000000 ) ;
#868 = LOCAL_TIME ( 14, 38, 55.00000000000000000, #891 ) ;
#869 = LINE ( 'NONE', #150, #867 ) ;
#870 = DIRECTION ( 'NONE',  ( -0.8987940462991664825, -1.519186671157935168E-18, -0.4383711467890786806 ) ) ;
#871 = EDGE_CURVE ( 'NONE', #697, #163, #584, .T. ) ;
#872 = PERSON_AND_ORGANIZATION ( #75, #274 ) ;
#873 = DATE_AND_TIME ( #595, #868 ) ;
#874 = CARTESIAN_POINT ( 'NONE',  ( -1277.562820776833860, 200.0000000000000000, -546.9132086456412480 ) ) ;
#875 = COORDINATED_UNIVERSAL_TIME_OFFSET ( 1, 0, .AHEAD. ) ;
#876 = LINE ( 'NONE', #683, #294 ) ;
#877 = CARTESIAN_POINT ( 'NONE',  ( -597.8979996804107486, 200.0000000000000000, -2.724244655281502503 ) ) ;
#878 = CALENDAR_DATE ( 2023, 30, 5 ) ;
#879 = CARTESIAN_POINT ( 'NONE',  ( -132.1524922060499705, -175.0778200906460995, 577.1681492915829494 ) ) ;
#880 = CARTESIAN_POINT ( 'NONE',  ( 134.8057697463301849, 199.9999999999999432, 2.448534876829469908 ) ) ;
#881 = FACE_OUTER_BOUND ( 'NONE', #180, .T. ) ;
#882 = CALENDAR_DATE ( 2023, 30, 5 ) ;
#883 = FACE_OUTER_BOUND ( 'NONE', #149, .T. ) ;
#884 = DIRECTION ( 'NONE',  ( -0.000000000000000000, 1.000000000000000000, 0.000000000000000000 ) ) ;
#885 = EDGE_CURVE ( 'NONE', #126, #452, #296, .T. ) ;
#886 = EDGE_CURVE ( 'NONE', #462, #682, #283, .T. ) ;
#887 = CYLINDRICAL_SURFACE ( 'NONE', #345, 100.0000000000000000 ) ;
#888 = CARTESIAN_POINT ( 'NONE',  ( 148.0000000000000284, 67.64807909198120228, -168.9151063967398159 ) ) ;
#889 = SHAPE_DEFINITION_REPRESENTATION ( #640, #270 ) ;
#890 = CARTESIAN_POINT ( 'NONE',  ( -127.8571014917656612, -168.5122464582001953, 568.3612932090015875 ) ) ;
#891 = COORDINATED_UNIVERSAL_TIME_OFFSET ( 1, 0, .AHEAD. ) ;
#892 = PLANE ( 'NONE',  #114 ) ;
#893 = VECTOR ( 'NONE', #311, 1000.000000000000114 ) ;
#894 = DIRECTION ( 'NONE',  ( -1.000000000000000000, 0.000000000000000000, 9.815586716294878114E-17 ) ) ;
#895 = VECTOR ( 'NONE', #371, 1000.000000000000000 ) ;
#896 = CARTESIAN_POINT ( 'NONE',  ( -125.4429536004211485, -166.3525671923412688, 563.4115565132354959 ) ) ;
#897 = DIRECTION ( 'NONE',  ( -0.4383711467890786251, 5.732682577254064654E-17, 0.8987940462991664825 ) ) ;
#898 = AXIS2_PLACEMENT_3D ( 'NONE', #372, #449, #50 ) ;
#899 = COORDINATED_UNIVERSAL_TIME_OFFSET ( 1, 0, .AHEAD. ) ;
#900 = DATE_AND_TIME ( #878, #292 ) ;
ENDSEC;
END-ISO-10303-21;
