ISO-10303-21;
HEADER;
/* Generated by software containing ST-Developer
 * from STEP Tools, Inc. (www.steptools.com) 
 */

FILE_DESCRIPTION(
/* description */ (''),
/* implementation_level */ '2;1');

FILE_NAME(
/* name */ '01_lathe-facing.step',
/* time_stamp */ '2024-11-05T18:26:00+03:00',
/* author */ (''),
/* organization */ (''),
/* preprocessor_version */ 'ST-DEVELOPER v20',
/* originating_system */ 'Autodesk Translation Framework v13.14.0.145',

/* authorisation */ '');

FILE_SCHEMA (('AUTOMOTIVE_DESIGN { 1 0 10303 214 3 1 1 }'));
ENDSEC;

DATA;
#10=MECHANICAL_DESIGN_GEOMETRIC_PRESENTATION_REPRESENTATION('',(#13),#199);
#11=SHAPE_REPRESENTATION_RELATIONSHIP('SRR','None',#206,#12);
#12=ADVANCED_BREP_SHAPE_REPRESENTATION('',(#14),#198);
#13=STYLED_ITEM('',(#215),#14);
#14=MANIFOLD_SOLID_BREP('Body1',#92);
#15=FACE_BOUND('',#30,.T.);
#16=FACE_BOUND('',#33,.T.);
#17=PLANE('',#113);
#18=PLANE('',#117);
#19=(
BOUNDED_SURFACE()
B_SPLINE_SURFACE(2,2,((#154,#155,#156,#157,#158,#159,#160,#161,#162),(#163,
#164,#165,#166,#167,#168,#169,#170,#171),(#172,#173,#174,#175,#176,#177,
#178,#179,#180)),.UNSPECIFIED.,.F.,.T.,.F.)
B_SPLINE_SURFACE_WITH_KNOTS((3,3),(3,2,2,2,3),(0.950249149997413,1.52637623256449),
(-3.14159265358979,-1.5707963267949,0.,1.5707963267949,3.14159265358979),
 .UNSPECIFIED.)
GEOMETRIC_REPRESENTATION_ITEM()
RATIONAL_B_SPLINE_SURFACE(((1.,0.707106781186548,1.,0.707106781186548,1.,
0.707106781186548,1.,0.707106781186548,1.),(0.958795813199873,0.6779710212869,
0.958795813199873,0.6779710212869,0.958795813199873,0.6779710212869,0.958795813199873,
0.6779710212869,0.958795813199873),(1.,0.707106781186548,1.,0.707106781186548,
1.,0.707106781186548,1.,0.707106781186548,1.)))
REPRESENTATION_ITEM('')
SURFACE()
);
#20=FACE_OUTER_BOUND('',#26,.T.);
#21=FACE_OUTER_BOUND('',#27,.T.);
#22=FACE_OUTER_BOUND('',#28,.T.);
#23=FACE_OUTER_BOUND('',#29,.T.);
#24=FACE_OUTER_BOUND('',#31,.T.);
#25=FACE_OUTER_BOUND('',#32,.T.);
#26=EDGE_LOOP('',(#63,#64,#65,#66));
#27=EDGE_LOOP('',(#67,#68,#69,#70));
#28=EDGE_LOOP('',(#71,#72,#73,#74));
#29=EDGE_LOOP('',(#75));
#30=EDGE_LOOP('',(#76));
#31=EDGE_LOOP('',(#77,#78,#79,#80));
#32=EDGE_LOOP('',(#81));
#33=EDGE_LOOP('',(#82));
#34=LINE('',#152,#37);
#35=LINE('',#187,#38);
#36=LINE('',#194,#39);
#37=VECTOR('',#124,30.);
#38=VECTOR('',#135,50.);
#39=VECTOR('',#144,35.);
#40=CIRCLE('',#107,30.);
#41=CIRCLE('',#108,30.);
#42=CIRCLE('',#109,37.2387523834109);
#43=CIRCLE('',#110,50.);
#44=CIRCLE('',#112,50.);
#45=CIRCLE('',#114,35.);
#46=CIRCLE('',#116,35.);
#47=VERTEX_POINT('',#149);
#48=VERTEX_POINT('',#151);
#49=VERTEX_POINT('',#181);
#50=VERTEX_POINT('',#185);
#51=VERTEX_POINT('',#189);
#52=VERTEX_POINT('',#192);
#53=EDGE_CURVE('',#47,#47,#40,.T.);
#54=EDGE_CURVE('',#47,#48,#34,.T.);
#55=EDGE_CURVE('',#48,#48,#41,.T.);
#56=EDGE_CURVE('',#48,#49,#42,.T.);
#57=EDGE_CURVE('',#49,#49,#43,.T.);
#58=EDGE_CURVE('',#50,#50,#44,.T.);
#59=EDGE_CURVE('',#50,#49,#35,.T.);
#60=EDGE_CURVE('',#51,#51,#45,.T.);
#61=EDGE_CURVE('',#52,#52,#46,.T.);
#62=EDGE_CURVE('',#52,#51,#36,.T.);
#63=ORIENTED_EDGE('',*,*,#53,.F.);
#64=ORIENTED_EDGE('',*,*,#54,.T.);
#65=ORIENTED_EDGE('',*,*,#55,.F.);
#66=ORIENTED_EDGE('',*,*,#54,.F.);
#67=ORIENTED_EDGE('',*,*,#55,.T.);
#68=ORIENTED_EDGE('',*,*,#56,.T.);
#69=ORIENTED_EDGE('',*,*,#57,.F.);
#70=ORIENTED_EDGE('',*,*,#56,.F.);
#71=ORIENTED_EDGE('',*,*,#58,.F.);
#72=ORIENTED_EDGE('',*,*,#59,.T.);
#73=ORIENTED_EDGE('',*,*,#57,.T.);
#74=ORIENTED_EDGE('',*,*,#59,.F.);
#75=ORIENTED_EDGE('',*,*,#58,.T.);
#76=ORIENTED_EDGE('',*,*,#60,.F.);
#77=ORIENTED_EDGE('',*,*,#61,.F.);
#78=ORIENTED_EDGE('',*,*,#62,.T.);
#79=ORIENTED_EDGE('',*,*,#60,.T.);
#80=ORIENTED_EDGE('',*,*,#62,.F.);
#81=ORIENTED_EDGE('',*,*,#61,.T.);
#82=ORIENTED_EDGE('',*,*,#53,.T.);
#83=CYLINDRICAL_SURFACE('',#106,30.);
#84=CYLINDRICAL_SURFACE('',#111,50.);
#85=CYLINDRICAL_SURFACE('',#115,35.);
#86=ADVANCED_FACE('',(#20),#83,.F.);
#87=ADVANCED_FACE('',(#21),#19,.T.);
#88=ADVANCED_FACE('',(#22),#84,.T.);
#89=ADVANCED_FACE('',(#23,#15),#17,.T.);
#90=ADVANCED_FACE('',(#24),#85,.T.);
#91=ADVANCED_FACE('',(#25,#16),#18,.T.);
#92=CLOSED_SHELL('',(#86,#87,#88,#89,#90,#91));
#93=DERIVED_UNIT_ELEMENT(#95,1.);
#94=DERIVED_UNIT_ELEMENT(#201,-3.);
#95=(
MASS_UNIT()
NAMED_UNIT(*)
SI_UNIT(.KILO.,.GRAM.)
);
#96=DERIVED_UNIT((#93,#94));
#97=MEASURE_REPRESENTATION_ITEM('density measure',
POSITIVE_RATIO_MEASURE(7850.),#96);
#98=PROPERTY_DEFINITION_REPRESENTATION(#103,#100);
#99=PROPERTY_DEFINITION_REPRESENTATION(#104,#101);
#100=REPRESENTATION('material name',(#102),#198);
#101=REPRESENTATION('density',(#97),#198);
#102=DESCRIPTIVE_REPRESENTATION_ITEM('Steel','Steel');
#103=PROPERTY_DEFINITION('material property','material name',#208);
#104=PROPERTY_DEFINITION('material property','density of part',#208);
#105=AXIS2_PLACEMENT_3D('',#147,#118,#119);
#106=AXIS2_PLACEMENT_3D('',#148,#120,#121);
#107=AXIS2_PLACEMENT_3D('',#150,#122,#123);
#108=AXIS2_PLACEMENT_3D('',#153,#125,#126);
#109=AXIS2_PLACEMENT_3D('',#182,#127,#128);
#110=AXIS2_PLACEMENT_3D('',#183,#129,#130);
#111=AXIS2_PLACEMENT_3D('',#184,#131,#132);
#112=AXIS2_PLACEMENT_3D('',#186,#133,#134);
#113=AXIS2_PLACEMENT_3D('',#188,#136,#137);
#114=AXIS2_PLACEMENT_3D('',#190,#138,#139);
#115=AXIS2_PLACEMENT_3D('',#191,#140,#141);
#116=AXIS2_PLACEMENT_3D('',#193,#142,#143);
#117=AXIS2_PLACEMENT_3D('',#195,#145,#146);
#118=DIRECTION('axis',(0.,0.,1.));
#119=DIRECTION('refdir',(1.,0.,0.));
#120=DIRECTION('center_axis',(-1.,0.,0.));
#121=DIRECTION('ref_axis',(0.,0.,-1.));
#122=DIRECTION('center_axis',(-1.,0.,0.));
#123=DIRECTION('ref_axis',(0.,0.,-1.));
#124=DIRECTION('',(-1.,0.,0.));
#125=DIRECTION('center_axis',(1.,0.,0.));
#126=DIRECTION('ref_axis',(0.,0.,-1.));
#127=DIRECTION('center_axis',(0.,-1.,-1.22464679914735E-16));
#128=DIRECTION('ref_axis',(0.,-1.22464679914735E-16,1.));
#129=DIRECTION('center_axis',(1.,0.,0.));
#130=DIRECTION('ref_axis',(0.,0.,-1.));
#131=DIRECTION('center_axis',(1.,0.,0.));
#132=DIRECTION('ref_axis',(0.,0.,-1.));
#133=DIRECTION('center_axis',(1.,0.,0.));
#134=DIRECTION('ref_axis',(0.,0.,-1.));
#135=DIRECTION('',(-1.,0.,0.));
#136=DIRECTION('center_axis',(1.,0.,0.));
#137=DIRECTION('ref_axis',(0.,0.,-1.));
#138=DIRECTION('center_axis',(1.,0.,0.));
#139=DIRECTION('ref_axis',(0.,0.,-1.));
#140=DIRECTION('center_axis',(1.,0.,0.));
#141=DIRECTION('ref_axis',(0.,0.,-1.));
#142=DIRECTION('center_axis',(1.,0.,0.));
#143=DIRECTION('ref_axis',(0.,0.,-1.));
#144=DIRECTION('',(-1.,0.,0.));
#145=DIRECTION('center_axis',(1.,0.,0.));
#146=DIRECTION('ref_axis',(0.,0.,-1.));
#147=CARTESIAN_POINT('',(0.,0.,0.));
#148=CARTESIAN_POINT('Origin',(15.,0.,0.));
#149=CARTESIAN_POINT('',(15.,-3.67394039744206E-15,30.));
#150=CARTESIAN_POINT('Origin',(15.,0.,0.));
#151=CARTESIAN_POINT('',(-43.0939548044306,-3.67394039744206E-15,30.));
#152=CARTESIAN_POINT('',(15.,3.67394039744206E-15,30.));
#153=CARTESIAN_POINT('Origin',(-43.0939548044306,0.,0.));
#154=CARTESIAN_POINT('Ctrl Pts',(-50.,0.,50.));
#155=CARTESIAN_POINT('Ctrl Pts',(-50.,-50.,50.));
#156=CARTESIAN_POINT('Ctrl Pts',(-50.,-50.,0.));
#157=CARTESIAN_POINT('Ctrl Pts',(-50.,-50.,-50.));
#158=CARTESIAN_POINT('Ctrl Pts',(-50.,0.,-50.));
#159=CARTESIAN_POINT('Ctrl Pts',(-50.,50.,-50.));
#160=CARTESIAN_POINT('Ctrl Pts',(-50.,50.,0.));
#161=CARTESIAN_POINT('Ctrl Pts',(-50.,50.,50.));
#162=CARTESIAN_POINT('Ctrl Pts',(-50.,0.,50.));
#163=CARTESIAN_POINT('Ctrl Pts',(-43.5839263906639,0.,41.0231482101276));
#164=CARTESIAN_POINT('Ctrl Pts',(-43.5839263906639,-41.0231482101276,41.0231482101276));
#165=CARTESIAN_POINT('Ctrl Pts',(-43.5839263906639,-41.0231482101276,0.));
#166=CARTESIAN_POINT('Ctrl Pts',(-43.5839263906639,-41.0231482101276,-41.0231482101276));
#167=CARTESIAN_POINT('Ctrl Pts',(-43.5839263906639,0.,-41.0231482101276));
#168=CARTESIAN_POINT('Ctrl Pts',(-43.5839263906639,41.0231482101276,-41.0231482101276));
#169=CARTESIAN_POINT('Ctrl Pts',(-43.5839263906639,41.0231482101276,0.));
#170=CARTESIAN_POINT('Ctrl Pts',(-43.5839263906639,41.0231482101276,41.0231482101276));
#171=CARTESIAN_POINT('Ctrl Pts',(-43.5839263906639,0.,41.0231482101276));
#172=CARTESIAN_POINT('Ctrl Pts',(-43.0939548044306,0.,30.));
#173=CARTESIAN_POINT('Ctrl Pts',(-43.0939548044306,-30.,30.));
#174=CARTESIAN_POINT('Ctrl Pts',(-43.0939548044306,-30.,0.));
#175=CARTESIAN_POINT('Ctrl Pts',(-43.0939548044306,-30.,-30.));
#176=CARTESIAN_POINT('Ctrl Pts',(-43.0939548044306,0.,-30.));
#177=CARTESIAN_POINT('Ctrl Pts',(-43.0939548044306,30.,-30.));
#178=CARTESIAN_POINT('Ctrl Pts',(-43.0939548044306,30.,0.));
#179=CARTESIAN_POINT('Ctrl Pts',(-43.0939548044306,30.,30.));
#180=CARTESIAN_POINT('Ctrl Pts',(-43.0939548044306,0.,30.));
#181=CARTESIAN_POINT('',(-50.,-6.12323399573677E-15,50.));
#182=CARTESIAN_POINT('Origin',(-80.2959745035659,-3.4714321947771E-15,28.3463950356465));
#183=CARTESIAN_POINT('Origin',(-50.,0.,0.));
#184=CARTESIAN_POINT('Origin',(-25.,0.,0.));
#185=CARTESIAN_POINT('',(0.,-6.12323399573677E-15,50.));
#186=CARTESIAN_POINT('Origin',(0.,0.,0.));
#187=CARTESIAN_POINT('',(-25.,-6.12323399573677E-15,50.));
#188=CARTESIAN_POINT('Origin',(0.,0.,-35.));
#189=CARTESIAN_POINT('',(0.,-4.28626379701574E-15,35.));
#190=CARTESIAN_POINT('Origin',(0.,0.,0.));
#191=CARTESIAN_POINT('Origin',(7.5,0.,0.));
#192=CARTESIAN_POINT('',(15.,-4.28626379701574E-15,35.));
#193=CARTESIAN_POINT('Origin',(15.,0.,0.));
#194=CARTESIAN_POINT('',(7.5,-4.28626379701574E-15,35.));
#195=CARTESIAN_POINT('Origin',(15.,0.,0.));
#196=UNCERTAINTY_MEASURE_WITH_UNIT(LENGTH_MEASURE(0.01),#200,
'DISTANCE_ACCURACY_VALUE',
'Maximum model space distance between geometric entities at asserted c
onnectivities');
#197=UNCERTAINTY_MEASURE_WITH_UNIT(LENGTH_MEASURE(0.01),#200,
'DISTANCE_ACCURACY_VALUE',
'Maximum model space distance between geometric entities at asserted c
onnectivities');
#198=(
GEOMETRIC_REPRESENTATION_CONTEXT(3)
GLOBAL_UNCERTAINTY_ASSIGNED_CONTEXT((#196))
GLOBAL_UNIT_ASSIGNED_CONTEXT((#200,#202,#203))
REPRESENTATION_CONTEXT('','3D')
);
#199=(
GEOMETRIC_REPRESENTATION_CONTEXT(3)
GLOBAL_UNCERTAINTY_ASSIGNED_CONTEXT((#197))
GLOBAL_UNIT_ASSIGNED_CONTEXT((#200,#202,#203))
REPRESENTATION_CONTEXT('','3D')
);
#200=(
LENGTH_UNIT()
NAMED_UNIT(*)
SI_UNIT(.MILLI.,.METRE.)
);
#201=(
LENGTH_UNIT()
NAMED_UNIT(*)
SI_UNIT($,.METRE.)
);
#202=(
NAMED_UNIT(*)
PLANE_ANGLE_UNIT()
SI_UNIT($,.RADIAN.)
);
#203=(
NAMED_UNIT(*)
SI_UNIT($,.STERADIAN.)
SOLID_ANGLE_UNIT()
);
#204=SHAPE_DEFINITION_REPRESENTATION(#205,#206);
#205=PRODUCT_DEFINITION_SHAPE('',$,#208);
#206=SHAPE_REPRESENTATION('',(#105),#198);
#207=PRODUCT_DEFINITION_CONTEXT('part definition',#212,'design');
#208=PRODUCT_DEFINITION('(Unsaved)','(Unsaved)',#209,#207);
#209=PRODUCT_DEFINITION_FORMATION('',$,#214);
#210=PRODUCT_RELATED_PRODUCT_CATEGORY('(Unsaved)','(Unsaved)',(#214));
#211=APPLICATION_PROTOCOL_DEFINITION('international standard',
'automotive_design',2009,#212);
#212=APPLICATION_CONTEXT(
'Core Data for Automotive Mechanical Design Process');
#213=PRODUCT_CONTEXT('part definition',#212,'mechanical');
#214=PRODUCT('(Unsaved)','(Unsaved)',$,(#213));
#215=PRESENTATION_STYLE_ASSIGNMENT((#216));
#216=SURFACE_STYLE_USAGE(.BOTH.,#217);
#217=SURFACE_SIDE_STYLE('',(#218));
#218=SURFACE_STYLE_FILL_AREA(#219);
#219=FILL_AREA_STYLE('Steel - Satin',(#220));
#220=FILL_AREA_STYLE_COLOUR('Steel - Satin',#221);
#221=COLOUR_RGB('Steel - Satin',0.627450980392157,0.627450980392157,0.627450980392157);
ENDSEC;
END-ISO-10303-21;
