ISO-10303-21;
HEADER;
/* Generated by software containing ST-Developer
 * from STEP Tools, Inc. (www.steptools.com) 
 */

FILE_DESCRIPTION(
/* description */ (''),
/* implementation_level */ '2;1');

FILE_NAME(
/* name */ '02_lathe-taper-turning.step.step',
/* time_stamp */ '2024-11-05T18:28:13+03:00',
/* author */ (''),
/* organization */ (''),
/* preprocessor_version */ 'ST-DEVELOPER v20',
/* originating_system */ 'Autodesk Translation Framework v13.14.0.145',

/* authorisation */ '');

FILE_SCHEMA (('AUTOMOTIVE_DESIGN { 1 0 10303 214 3 1 1 }'));
ENDSEC;

DATA;
#10=MECHANICAL_DESIGN_GEOMETRIC_PRESENTATION_REPRESENTATION('',(#13),#245);
#11=SHAPE_REPRESENTATION_RELATIONSHIP('SRR','None',#252,#12);
#12=ADVANCED_BREP_SHAPE_REPRESENTATION('',(#14),#244);
#13=STYLED_ITEM('',(#261),#14);
#14=MANIFOLD_SOLID_BREP('Body1',#132);
#15=CONICAL_SURFACE('',#154,37.5,0.785398163397448);
#16=CONICAL_SURFACE('',#156,17.5,0.291456794477867);
#17=CONICAL_SURFACE('',#161,30.,0.785398163397448);
#18=FACE_BOUND('',#35,.T.);
#19=FACE_BOUND('',#40,.T.);
#20=FACE_BOUND('',#42,.T.);
#21=PLANE('',#149);
#22=PLANE('',#158);
#23=PLANE('',#159);
#24=FACE_OUTER_BOUND('',#33,.T.);
#25=FACE_OUTER_BOUND('',#34,.T.);
#26=FACE_OUTER_BOUND('',#36,.T.);
#27=FACE_OUTER_BOUND('',#37,.T.);
#28=FACE_OUTER_BOUND('',#38,.T.);
#29=FACE_OUTER_BOUND('',#39,.T.);
#30=FACE_OUTER_BOUND('',#41,.T.);
#31=FACE_OUTER_BOUND('',#43,.T.);
#32=FACE_OUTER_BOUND('',#44,.T.);
#33=EDGE_LOOP('',(#90,#91,#92,#93));
#34=EDGE_LOOP('',(#94));
#35=EDGE_LOOP('',(#95));
#36=EDGE_LOOP('',(#96,#97,#98,#99));
#37=EDGE_LOOP('',(#100,#101,#102,#103));
#38=EDGE_LOOP('',(#104,#105,#106,#107));
#39=EDGE_LOOP('',(#108));
#40=EDGE_LOOP('',(#109));
#41=EDGE_LOOP('',(#110));
#42=EDGE_LOOP('',(#111));
#43=EDGE_LOOP('',(#112,#113,#114,#115));
#44=EDGE_LOOP('',(#116,#117,#118,#119));
#45=LINE('',#213,#51);
#46=LINE('',#223,#52);
#47=LINE('',#227,#53);
#48=LINE('',#231,#54);
#49=LINE('',#238,#55);
#50=LINE('',#241,#56);
#51=VECTOR('',#170,5.);
#52=VECTOR('',#183,50.);
#53=VECTOR('',#188,37.5);
#54=VECTOR('',#193,17.5);
#55=VECTOR('',#202,30.);
#56=VECTOR('',#207,35.);
#57=CIRCLE('',#147,5.);
#58=CIRCLE('',#148,5.);
#59=CIRCLE('',#150,50.);
#60=CIRCLE('',#151,35.);
#61=CIRCLE('',#153,50.);
#62=CIRCLE('',#155,25.);
#63=CIRCLE('',#157,10.);
#64=CIRCLE('',#160,25.);
#65=CIRCLE('',#162,35.);
#66=VERTEX_POINT('',#210);
#67=VERTEX_POINT('',#212);
#68=VERTEX_POINT('',#216);
#69=VERTEX_POINT('',#218);
#70=VERTEX_POINT('',#221);
#71=VERTEX_POINT('',#225);
#72=VERTEX_POINT('',#229);
#73=VERTEX_POINT('',#234);
#74=VERTEX_POINT('',#237);
#75=EDGE_CURVE('',#66,#66,#57,.T.);
#76=EDGE_CURVE('',#66,#67,#45,.T.);
#77=EDGE_CURVE('',#67,#67,#58,.T.);
#78=EDGE_CURVE('',#68,#68,#59,.T.);
#79=EDGE_CURVE('',#69,#69,#60,.T.);
#80=EDGE_CURVE('',#70,#70,#61,.T.);
#81=EDGE_CURVE('',#70,#68,#46,.T.);
#82=EDGE_CURVE('',#71,#71,#62,.T.);
#83=EDGE_CURVE('',#71,#70,#47,.T.);
#84=EDGE_CURVE('',#72,#72,#63,.T.);
#85=EDGE_CURVE('',#72,#71,#48,.T.);
#86=EDGE_CURVE('',#73,#73,#64,.T.);
#87=EDGE_CURVE('',#73,#74,#49,.T.);
#88=EDGE_CURVE('',#74,#74,#65,.T.);
#89=EDGE_CURVE('',#74,#69,#50,.T.);
#90=ORIENTED_EDGE('',*,*,#75,.F.);
#91=ORIENTED_EDGE('',*,*,#76,.T.);
#92=ORIENTED_EDGE('',*,*,#77,.F.);
#93=ORIENTED_EDGE('',*,*,#76,.F.);
#94=ORIENTED_EDGE('',*,*,#78,.F.);
#95=ORIENTED_EDGE('',*,*,#79,.T.);
#96=ORIENTED_EDGE('',*,*,#80,.F.);
#97=ORIENTED_EDGE('',*,*,#81,.T.);
#98=ORIENTED_EDGE('',*,*,#78,.T.);
#99=ORIENTED_EDGE('',*,*,#81,.F.);
#100=ORIENTED_EDGE('',*,*,#82,.F.);
#101=ORIENTED_EDGE('',*,*,#83,.T.);
#102=ORIENTED_EDGE('',*,*,#80,.T.);
#103=ORIENTED_EDGE('',*,*,#83,.F.);
#104=ORIENTED_EDGE('',*,*,#84,.F.);
#105=ORIENTED_EDGE('',*,*,#85,.T.);
#106=ORIENTED_EDGE('',*,*,#82,.T.);
#107=ORIENTED_EDGE('',*,*,#85,.F.);
#108=ORIENTED_EDGE('',*,*,#84,.T.);
#109=ORIENTED_EDGE('',*,*,#75,.T.);
#110=ORIENTED_EDGE('',*,*,#86,.F.);
#111=ORIENTED_EDGE('',*,*,#77,.T.);
#112=ORIENTED_EDGE('',*,*,#86,.T.);
#113=ORIENTED_EDGE('',*,*,#87,.T.);
#114=ORIENTED_EDGE('',*,*,#88,.F.);
#115=ORIENTED_EDGE('',*,*,#87,.F.);
#116=ORIENTED_EDGE('',*,*,#88,.T.);
#117=ORIENTED_EDGE('',*,*,#89,.T.);
#118=ORIENTED_EDGE('',*,*,#79,.F.);
#119=ORIENTED_EDGE('',*,*,#89,.F.);
#120=CYLINDRICAL_SURFACE('',#146,5.);
#121=CYLINDRICAL_SURFACE('',#152,50.);
#122=CYLINDRICAL_SURFACE('',#163,35.);
#123=ADVANCED_FACE('',(#24),#120,.F.);
#124=ADVANCED_FACE('',(#25,#18),#21,.T.);
#125=ADVANCED_FACE('',(#26),#121,.T.);
#126=ADVANCED_FACE('',(#27),#15,.T.);
#127=ADVANCED_FACE('',(#28),#16,.T.);
#128=ADVANCED_FACE('',(#29,#19),#22,.T.);
#129=ADVANCED_FACE('',(#30,#20),#23,.T.);
#130=ADVANCED_FACE('',(#31),#17,.F.);
#131=ADVANCED_FACE('',(#32),#122,.F.);
#132=CLOSED_SHELL('',(#123,#124,#125,#126,#127,#128,#129,#130,#131));
#133=DERIVED_UNIT_ELEMENT(#135,1.);
#134=DERIVED_UNIT_ELEMENT(#247,-3.);
#135=(
MASS_UNIT()
NAMED_UNIT(*)
SI_UNIT(.KILO.,.GRAM.)
);
#136=DERIVED_UNIT((#133,#134));
#137=MEASURE_REPRESENTATION_ITEM('density measure',
POSITIVE_RATIO_MEASURE(7850.),#136);
#138=PROPERTY_DEFINITION_REPRESENTATION(#143,#140);
#139=PROPERTY_DEFINITION_REPRESENTATION(#144,#141);
#140=REPRESENTATION('material name',(#142),#244);
#141=REPRESENTATION('density',(#137),#244);
#142=DESCRIPTIVE_REPRESENTATION_ITEM('Steel','Steel');
#143=PROPERTY_DEFINITION('material property','material name',#254);
#144=PROPERTY_DEFINITION('material property','density of part',#254);
#145=AXIS2_PLACEMENT_3D('',#208,#164,#165);
#146=AXIS2_PLACEMENT_3D('',#209,#166,#167);
#147=AXIS2_PLACEMENT_3D('',#211,#168,#169);
#148=AXIS2_PLACEMENT_3D('',#214,#171,#172);
#149=AXIS2_PLACEMENT_3D('',#215,#173,#174);
#150=AXIS2_PLACEMENT_3D('',#217,#175,#176);
#151=AXIS2_PLACEMENT_3D('',#219,#177,#178);
#152=AXIS2_PLACEMENT_3D('',#220,#179,#180);
#153=AXIS2_PLACEMENT_3D('',#222,#181,#182);
#154=AXIS2_PLACEMENT_3D('',#224,#184,#185);
#155=AXIS2_PLACEMENT_3D('',#226,#186,#187);
#156=AXIS2_PLACEMENT_3D('',#228,#189,#190);
#157=AXIS2_PLACEMENT_3D('',#230,#191,#192);
#158=AXIS2_PLACEMENT_3D('',#232,#194,#195);
#159=AXIS2_PLACEMENT_3D('',#233,#196,#197);
#160=AXIS2_PLACEMENT_3D('',#235,#198,#199);
#161=AXIS2_PLACEMENT_3D('',#236,#200,#201);
#162=AXIS2_PLACEMENT_3D('',#239,#203,#204);
#163=AXIS2_PLACEMENT_3D('',#240,#205,#206);
#164=DIRECTION('axis',(0.,0.,1.));
#165=DIRECTION('refdir',(1.,0.,0.));
#166=DIRECTION('center_axis',(-1.,0.,0.));
#167=DIRECTION('ref_axis',(0.,0.,-1.));
#168=DIRECTION('center_axis',(-1.,0.,0.));
#169=DIRECTION('ref_axis',(0.,0.,-1.));
#170=DIRECTION('',(-1.,0.,0.));
#171=DIRECTION('center_axis',(1.,0.,0.));
#172=DIRECTION('ref_axis',(0.,0.,-1.));
#173=DIRECTION('center_axis',(-1.,0.,0.));
#174=DIRECTION('ref_axis',(0.,0.,1.));
#175=DIRECTION('center_axis',(1.,0.,0.));
#176=DIRECTION('ref_axis',(0.,0.,-1.));
#177=DIRECTION('center_axis',(1.,0.,0.));
#178=DIRECTION('ref_axis',(0.,0.,-1.));
#179=DIRECTION('center_axis',(1.,0.,0.));
#180=DIRECTION('ref_axis',(0.,0.,-1.));
#181=DIRECTION('center_axis',(1.,0.,0.));
#182=DIRECTION('ref_axis',(0.,0.,-1.));
#183=DIRECTION('',(-1.,0.,0.));
#184=DIRECTION('center_axis',(-1.,0.,0.));
#185=DIRECTION('ref_axis',(0.,0.,-1.));
#186=DIRECTION('center_axis',(1.,0.,0.));
#187=DIRECTION('ref_axis',(0.,0.,-1.));
#188=DIRECTION('',(-0.707106781186547,-8.65956056235493E-17,0.707106781186548));
#189=DIRECTION('center_axis',(-1.,0.,0.));
#190=DIRECTION('ref_axis',(0.,0.,-1.));
#191=DIRECTION('center_axis',(1.,0.,0.));
#192=DIRECTION('ref_axis',(0.,0.,-1.));
#193=DIRECTION('',(-0.957826285221151,-3.51899668300585E-17,0.287347885566345));
#194=DIRECTION('center_axis',(1.,0.,0.));
#195=DIRECTION('ref_axis',(0.,0.,-1.));
#196=DIRECTION('center_axis',(-1.,0.,0.));
#197=DIRECTION('ref_axis',(0.,0.,1.));
#198=DIRECTION('center_axis',(1.,0.,0.));
#199=DIRECTION('ref_axis',(0.,0.,-1.));
#200=DIRECTION('center_axis',(-1.,0.,0.));
#201=DIRECTION('ref_axis',(0.,0.,-1.));
#202=DIRECTION('',(-0.707106781186547,-8.65956056235493E-17,0.707106781186548));
#203=DIRECTION('center_axis',(1.,0.,0.));
#204=DIRECTION('ref_axis',(0.,0.,-1.));
#205=DIRECTION('center_axis',(1.,0.,0.));
#206=DIRECTION('ref_axis',(0.,0.,-1.));
#207=DIRECTION('',(-1.,0.,0.));
#208=CARTESIAN_POINT('',(0.,0.,0.));
#209=CARTESIAN_POINT('Origin',(50.,0.,0.));
#210=CARTESIAN_POINT('',(50.,-6.12323399573677E-16,5.));
#211=CARTESIAN_POINT('Origin',(50.,0.,0.));
#212=CARTESIAN_POINT('',(-25.,-6.12323399573677E-16,5.));
#213=CARTESIAN_POINT('',(50.,6.12323399573677E-16,5.));
#214=CARTESIAN_POINT('Origin',(-25.,0.,0.));
#215=CARTESIAN_POINT('Origin',(-50.,0.,-50.));
#216=CARTESIAN_POINT('',(-50.,-6.12323399573677E-15,50.));
#217=CARTESIAN_POINT('Origin',(-50.,0.,0.));
#218=CARTESIAN_POINT('',(-50.,-4.28626379701574E-15,35.));
#219=CARTESIAN_POINT('Origin',(-50.,0.,0.));
#220=CARTESIAN_POINT('Origin',(-37.5,0.,0.));
#221=CARTESIAN_POINT('',(-25.,-6.12323399573677E-15,50.));
#222=CARTESIAN_POINT('Origin',(-25.,0.,0.));
#223=CARTESIAN_POINT('',(-37.5,-6.12323399573677E-15,50.));
#224=CARTESIAN_POINT('Origin',(-12.5,0.,0.));
#225=CARTESIAN_POINT('',(0.,-3.06161699786838E-15,25.));
#226=CARTESIAN_POINT('Origin',(0.,0.,0.));
#227=CARTESIAN_POINT('',(-12.5,-4.59242549680258E-15,37.5));
#228=CARTESIAN_POINT('Origin',(25.,0.,0.));
#229=CARTESIAN_POINT('',(50.,-1.22464679914735E-15,10.));
#230=CARTESIAN_POINT('Origin',(50.,0.,0.));
#231=CARTESIAN_POINT('',(25.,-2.14313189850787E-15,17.5));
#232=CARTESIAN_POINT('Origin',(50.,0.,0.));
#233=CARTESIAN_POINT('Origin',(-25.,0.,-25.));
#234=CARTESIAN_POINT('',(-25.,-3.06161699786838E-15,25.));
#235=CARTESIAN_POINT('Origin',(-25.,0.,0.));
#236=CARTESIAN_POINT('Origin',(-30.,0.,0.));
#237=CARTESIAN_POINT('',(-35.,-4.28626379701574E-15,35.));
#238=CARTESIAN_POINT('',(-30.,-3.67394039744206E-15,30.));
#239=CARTESIAN_POINT('Origin',(-35.,0.,0.));
#240=CARTESIAN_POINT('Origin',(-42.5,0.,0.));
#241=CARTESIAN_POINT('',(-42.5,-4.28626379701574E-15,35.));
#242=UNCERTAINTY_MEASURE_WITH_UNIT(LENGTH_MEASURE(0.01),#246,
'DISTANCE_ACCURACY_VALUE',
'Maximum model space distance between geometric entities at asserted c
onnectivities');
#243=UNCERTAINTY_MEASURE_WITH_UNIT(LENGTH_MEASURE(0.01),#246,
'DISTANCE_ACCURACY_VALUE',
'Maximum model space distance between geometric entities at asserted c
onnectivities');
#244=(
GEOMETRIC_REPRESENTATION_CONTEXT(3)
GLOBAL_UNCERTAINTY_ASSIGNED_CONTEXT((#242))
GLOBAL_UNIT_ASSIGNED_CONTEXT((#246,#248,#249))
REPRESENTATION_CONTEXT('','3D')
);
#245=(
GEOMETRIC_REPRESENTATION_CONTEXT(3)
GLOBAL_UNCERTAINTY_ASSIGNED_CONTEXT((#243))
GLOBAL_UNIT_ASSIGNED_CONTEXT((#246,#248,#249))
REPRESENTATION_CONTEXT('','3D')
);
#246=(
LENGTH_UNIT()
NAMED_UNIT(*)
SI_UNIT(.MILLI.,.METRE.)
);
#247=(
LENGTH_UNIT()
NAMED_UNIT(*)
SI_UNIT($,.METRE.)
);
#248=(
NAMED_UNIT(*)
PLANE_ANGLE_UNIT()
SI_UNIT($,.RADIAN.)
);
#249=(
NAMED_UNIT(*)
SI_UNIT($,.STERADIAN.)
SOLID_ANGLE_UNIT()
);
#250=SHAPE_DEFINITION_REPRESENTATION(#251,#252);
#251=PRODUCT_DEFINITION_SHAPE('',$,#254);
#252=SHAPE_REPRESENTATION('',(#145),#244);
#253=PRODUCT_DEFINITION_CONTEXT('part definition',#258,'design');
#254=PRODUCT_DEFINITION('(Unsaved)','(Unsaved)',#255,#253);
#255=PRODUCT_DEFINITION_FORMATION('',$,#260);
#256=PRODUCT_RELATED_PRODUCT_CATEGORY('(Unsaved)','(Unsaved)',(#260));
#257=APPLICATION_PROTOCOL_DEFINITION('international standard',
'automotive_design',2009,#258);
#258=APPLICATION_CONTEXT(
'Core Data for Automotive Mechanical Design Process');
#259=PRODUCT_CONTEXT('part definition',#258,'mechanical');
#260=PRODUCT('(Unsaved)','(Unsaved)',$,(#259));
#261=PRESENTATION_STYLE_ASSIGNMENT((#262));
#262=SURFACE_STYLE_USAGE(.BOTH.,#263);
#263=SURFACE_SIDE_STYLE('',(#264));
#264=SURFACE_STYLE_FILL_AREA(#265);
#265=FILL_AREA_STYLE('Steel - Satin',(#266));
#266=FILL_AREA_STYLE_COLOUR('Steel - Satin',#267);
#267=COLOUR_RGB('Steel - Satin',0.627450980392157,0.627450980392157,0.627450980392157);
ENDSEC;
END-ISO-10303-21;
