ISO-10303-21;
HEADER;
/* Generated by software containing ST-Developer
 * from STEP Tools, Inc. (www.steptools.com) 
 */

FILE_DESCRIPTION(
/* description */ (''),
/* implementation_level */ '2;1');

FILE_NAME(
/* name */ '03_lathe-contour-turning.step.step',
/* time_stamp */ '2024-11-05T18:30:52+03:00',
/* author */ (''),
/* organization */ (''),
/* preprocessor_version */ 'ST-DEVELOPER v20',
/* originating_system */ 'Autodesk Translation Framework v13.14.0.145',

/* authorisation */ '');

FILE_SCHEMA (('AUTOMOTIVE_DESIGN { 1 0 10303 214 3 1 1 }'));
ENDSEC;

DATA;
#10=MECHANICAL_DESIGN_GEOMETRIC_PRESENTATION_REPRESENTATION('',(#13),#524);
#11=SHAPE_REPRESENTATION_RELATIONSHIP('SRR','None',#531,#12);
#12=ADVANCED_BREP_SHAPE_REPRESENTATION('',(#14),#523);
#13=STYLED_ITEM('',(#540),#14);
#14=MANIFOLD_SOLID_BREP('Body1',#250);
#15=(
BOUNDED_SURFACE()
B_SPLINE_SURFACE(2,2,((#442,#443,#444,#445,#446,#447,#448,#449,#450),(#451,
#452,#453,#454,#455,#456,#457,#458,#459),(#460,#461,#462,#463,#464,#465,
#466,#467,#468)),.UNSPECIFIED.,.F.,.T.,.F.)
B_SPLINE_SURFACE_WITH_KNOTS((3,3),(3,2,2,2,3),(-0.394791119699762,0.394791119699762),
(-3.14159265358979,-1.5707963267949,0.,1.5707963267949,3.14159265358979),
 .UNSPECIFIED.)
GEOMETRIC_REPRESENTATION_ITEM()
RATIONAL_B_SPLINE_SURFACE(((1.,0.707106781186548,1.,0.707106781186548,1.,
0.707106781186548,1.,0.707106781186548,1.),(0.923076923076923,0.652713951864506,
0.923076923076923,0.652713951864506,0.923076923076923,0.652713951864506,
0.923076923076923,0.652713951864506,0.923076923076923),(1.,0.707106781186548,
1.,0.707106781186548,1.,0.707106781186548,1.,0.707106781186548,1.)))
REPRESENTATION_ITEM('')
SURFACE()
);
#16=(
BOUNDED_SURFACE()
B_SPLINE_SURFACE(2,2,((#472,#473,#474,#475,#476,#477,#478,#479,#480),(#481,
#482,#483,#484,#485,#486,#487,#488,#489),(#490,#491,#492,#493,#494,#495,
#496,#497,#498)),.UNSPECIFIED.,.F.,.T.,.F.)
B_SPLINE_SURFACE_WITH_KNOTS((3,3),(3,2,2,2,3),(-1.17600520709514,-0.394791119699762),
(-3.14159265358979,-1.5707963267949,0.,1.5707963267949,3.14159265358979),
 .UNSPECIFIED.)
GEOMETRIC_REPRESENTATION_ITEM()
RATIONAL_B_SPLINE_SURFACE(((1.,0.707106781186548,1.,0.707106781186548,1.,
0.707106781186548,1.,0.707106781186548,1.),(0.924678098474714,0.653846153846152,
0.924678098474714,0.653846153846152,0.924678098474714,0.653846153846152,
0.924678098474714,0.653846153846152,0.924678098474714),(1.,0.707106781186548,
1.,0.707106781186548,1.,0.707106781186548,1.,0.707106781186548,1.)))
REPRESENTATION_ITEM('')
SURFACE()
);
#17=CONICAL_SURFACE('',#275,17.5,0.463647609000806);
#18=CONICAL_SURFACE('',#281,7.5,0.785398163397448);
#19=TOROIDAL_SURFACE('',#269,32.5,12.5);
#20=TOROIDAL_SURFACE('',#286,12.5,8.125);
#21=TOROIDAL_SURFACE('',#298,33.75,16.25);
#22=TOROIDAL_SURFACE('',#301,46.25,16.25);
#23=TOROIDAL_SURFACE('',#304,17.5,12.5);
#24=FACE_BOUND('',#53,.T.);
#25=FACE_BOUND('',#58,.T.);
#26=FACE_BOUND('',#68,.T.);
#27=PLANE('',#267);
#28=PLANE('',#277);
#29=PLANE('',#283);
#30=PLANE('',#284);
#31=PLANE('',#294);
#32=FACE_OUTER_BOUND('',#51,.T.);
#33=FACE_OUTER_BOUND('',#52,.T.);
#34=FACE_OUTER_BOUND('',#54,.T.);
#35=FACE_OUTER_BOUND('',#55,.T.);
#36=FACE_OUTER_BOUND('',#56,.T.);
#37=FACE_OUTER_BOUND('',#57,.T.);
#38=FACE_OUTER_BOUND('',#59,.T.);
#39=FACE_OUTER_BOUND('',#60,.T.);
#40=FACE_OUTER_BOUND('',#61,.T.);
#41=FACE_OUTER_BOUND('',#62,.T.);
#42=FACE_OUTER_BOUND('',#63,.T.);
#43=FACE_OUTER_BOUND('',#64,.T.);
#44=FACE_OUTER_BOUND('',#65,.T.);
#45=FACE_OUTER_BOUND('',#66,.T.);
#46=FACE_OUTER_BOUND('',#67,.T.);
#47=FACE_OUTER_BOUND('',#69,.T.);
#48=FACE_OUTER_BOUND('',#70,.T.);
#49=FACE_OUTER_BOUND('',#71,.T.);
#50=FACE_OUTER_BOUND('',#72,.T.);
#51=EDGE_LOOP('',(#162,#163,#164,#165));
#52=EDGE_LOOP('',(#166));
#53=EDGE_LOOP('',(#167));
#54=EDGE_LOOP('',(#168,#169,#170,#171));
#55=EDGE_LOOP('',(#172,#173,#174,#175));
#56=EDGE_LOOP('',(#176,#177,#178,#179));
#57=EDGE_LOOP('',(#180));
#58=EDGE_LOOP('',(#181));
#59=EDGE_LOOP('',(#182,#183,#184,#185));
#60=EDGE_LOOP('',(#186,#187,#188,#189));
#61=EDGE_LOOP('',(#190));
#62=EDGE_LOOP('',(#191));
#63=EDGE_LOOP('',(#192,#193,#194,#195));
#64=EDGE_LOOP('',(#196,#197,#198,#199));
#65=EDGE_LOOP('',(#200,#201,#202,#203));
#66=EDGE_LOOP('',(#204,#205,#206,#207));
#67=EDGE_LOOP('',(#208));
#68=EDGE_LOOP('',(#209));
#69=EDGE_LOOP('',(#210,#211,#212,#213));
#70=EDGE_LOOP('',(#214,#215,#216,#217));
#71=EDGE_LOOP('',(#218,#219,#220,#221));
#72=EDGE_LOOP('',(#222,#223,#224,#225));
#73=LINE('',#404,#80);
#74=LINE('',#418,#81);
#75=LINE('',#422,#82);
#76=LINE('',#428,#83);
#77=LINE('',#432,#84);
#78=LINE('',#503,#85);
#79=LINE('',#510,#86);
#80=VECTOR('',#312,40.);
#81=VECTOR('',#331,20.);
#82=VECTOR('',#336,17.5);
#83=VECTOR('',#343,10.);
#84=VECTOR('',#348,7.5);
#85=VECTOR('',#373,10.);
#86=VECTOR('',#382,50.);
#87=CIRCLE('',#265,40.);
#88=CIRCLE('',#266,40.);
#89=CIRCLE('',#268,10.);
#90=CIRCLE('',#270,25.);
#91=CIRCLE('',#271,12.5);
#92=CIRCLE('',#272,20.);
#93=CIRCLE('',#274,20.);
#94=CIRCLE('',#276,15.);
#95=CIRCLE('',#278,10.);
#96=CIRCLE('',#280,10.);
#97=CIRCLE('',#282,5.);
#98=CIRCLE('',#285,12.5);
#99=CIRCLE('',#287,8.125);
#100=CIRCLE('',#288,20.);
#101=CIRCLE('',#289,13.);
#102=CIRCLE('',#290,20.);
#103=CIRCLE('',#291,18.5714285714286);
#104=CIRCLE('',#292,10.);
#105=CIRCLE('',#295,50.);
#106=CIRCLE('',#297,50.);
#107=CIRCLE('',#299,40.);
#108=CIRCLE('',#300,16.25);
#109=CIRCLE('',#302,16.25);
#110=CIRCLE('',#303,30.);
#111=CIRCLE('',#305,12.5);
#112=VERTEX_POINT('',#401);
#113=VERTEX_POINT('',#403);
#114=VERTEX_POINT('',#407);
#115=VERTEX_POINT('',#410);
#116=VERTEX_POINT('',#412);
#117=VERTEX_POINT('',#416);
#118=VERTEX_POINT('',#420);
#119=VERTEX_POINT('',#424);
#120=VERTEX_POINT('',#427);
#121=VERTEX_POINT('',#431);
#122=VERTEX_POINT('',#436);
#123=VERTEX_POINT('',#439);
#124=VERTEX_POINT('',#469);
#125=VERTEX_POINT('',#499);
#126=VERTEX_POINT('',#505);
#127=VERTEX_POINT('',#508);
#128=VERTEX_POINT('',#512);
#129=VERTEX_POINT('',#516);
#130=EDGE_CURVE('',#112,#112,#87,.T.);
#131=EDGE_CURVE('',#112,#113,#73,.T.);
#132=EDGE_CURVE('',#113,#113,#88,.T.);
#133=EDGE_CURVE('',#114,#114,#89,.T.);
#134=EDGE_CURVE('',#115,#115,#90,.T.);
#135=EDGE_CURVE('',#115,#116,#91,.T.);
#136=EDGE_CURVE('',#116,#116,#92,.T.);
#137=EDGE_CURVE('',#117,#117,#93,.T.);
#138=EDGE_CURVE('',#117,#116,#74,.T.);
#139=EDGE_CURVE('',#118,#118,#94,.T.);
#140=EDGE_CURVE('',#118,#117,#75,.T.);
#141=EDGE_CURVE('',#119,#119,#95,.T.);
#142=EDGE_CURVE('',#119,#120,#76,.T.);
#143=EDGE_CURVE('',#120,#120,#96,.T.);
#144=EDGE_CURVE('',#120,#121,#77,.T.);
#145=EDGE_CURVE('',#121,#121,#97,.T.);
#146=EDGE_CURVE('',#122,#122,#98,.T.);
#147=EDGE_CURVE('',#122,#123,#99,.T.);
#148=EDGE_CURVE('',#123,#123,#100,.T.);
#149=EDGE_CURVE('',#123,#124,#101,.T.);
#150=EDGE_CURVE('',#124,#124,#102,.T.);
#151=EDGE_CURVE('',#124,#125,#103,.T.);
#152=EDGE_CURVE('',#125,#125,#104,.T.);
#153=EDGE_CURVE('',#125,#114,#78,.T.);
#154=EDGE_CURVE('',#126,#126,#105,.T.);
#155=EDGE_CURVE('',#127,#127,#106,.T.);
#156=EDGE_CURVE('',#127,#126,#79,.T.);
#157=EDGE_CURVE('',#128,#128,#107,.T.);
#158=EDGE_CURVE('',#128,#127,#108,.T.);
#159=EDGE_CURVE('',#128,#129,#109,.T.);
#160=EDGE_CURVE('',#129,#129,#110,.T.);
#161=EDGE_CURVE('',#115,#129,#111,.T.);
#162=ORIENTED_EDGE('',*,*,#130,.F.);
#163=ORIENTED_EDGE('',*,*,#131,.T.);
#164=ORIENTED_EDGE('',*,*,#132,.T.);
#165=ORIENTED_EDGE('',*,*,#131,.F.);
#166=ORIENTED_EDGE('',*,*,#132,.F.);
#167=ORIENTED_EDGE('',*,*,#133,.F.);
#168=ORIENTED_EDGE('',*,*,#134,.T.);
#169=ORIENTED_EDGE('',*,*,#135,.T.);
#170=ORIENTED_EDGE('',*,*,#136,.F.);
#171=ORIENTED_EDGE('',*,*,#135,.F.);
#172=ORIENTED_EDGE('',*,*,#137,.F.);
#173=ORIENTED_EDGE('',*,*,#138,.T.);
#174=ORIENTED_EDGE('',*,*,#136,.T.);
#175=ORIENTED_EDGE('',*,*,#138,.F.);
#176=ORIENTED_EDGE('',*,*,#139,.F.);
#177=ORIENTED_EDGE('',*,*,#140,.T.);
#178=ORIENTED_EDGE('',*,*,#137,.T.);
#179=ORIENTED_EDGE('',*,*,#140,.F.);
#180=ORIENTED_EDGE('',*,*,#139,.T.);
#181=ORIENTED_EDGE('',*,*,#141,.F.);
#182=ORIENTED_EDGE('',*,*,#141,.T.);
#183=ORIENTED_EDGE('',*,*,#142,.T.);
#184=ORIENTED_EDGE('',*,*,#143,.F.);
#185=ORIENTED_EDGE('',*,*,#142,.F.);
#186=ORIENTED_EDGE('',*,*,#143,.T.);
#187=ORIENTED_EDGE('',*,*,#144,.T.);
#188=ORIENTED_EDGE('',*,*,#145,.F.);
#189=ORIENTED_EDGE('',*,*,#144,.F.);
#190=ORIENTED_EDGE('',*,*,#145,.T.);
#191=ORIENTED_EDGE('',*,*,#146,.F.);
#192=ORIENTED_EDGE('',*,*,#146,.T.);
#193=ORIENTED_EDGE('',*,*,#147,.T.);
#194=ORIENTED_EDGE('',*,*,#148,.F.);
#195=ORIENTED_EDGE('',*,*,#147,.F.);
#196=ORIENTED_EDGE('',*,*,#148,.T.);
#197=ORIENTED_EDGE('',*,*,#149,.T.);
#198=ORIENTED_EDGE('',*,*,#150,.F.);
#199=ORIENTED_EDGE('',*,*,#149,.F.);
#200=ORIENTED_EDGE('',*,*,#150,.T.);
#201=ORIENTED_EDGE('',*,*,#151,.T.);
#202=ORIENTED_EDGE('',*,*,#152,.F.);
#203=ORIENTED_EDGE('',*,*,#151,.F.);
#204=ORIENTED_EDGE('',*,*,#152,.T.);
#205=ORIENTED_EDGE('',*,*,#153,.T.);
#206=ORIENTED_EDGE('',*,*,#133,.T.);
#207=ORIENTED_EDGE('',*,*,#153,.F.);
#208=ORIENTED_EDGE('',*,*,#154,.F.);
#209=ORIENTED_EDGE('',*,*,#130,.T.);
#210=ORIENTED_EDGE('',*,*,#155,.F.);
#211=ORIENTED_EDGE('',*,*,#156,.T.);
#212=ORIENTED_EDGE('',*,*,#154,.T.);
#213=ORIENTED_EDGE('',*,*,#156,.F.);
#214=ORIENTED_EDGE('',*,*,#157,.F.);
#215=ORIENTED_EDGE('',*,*,#158,.T.);
#216=ORIENTED_EDGE('',*,*,#155,.T.);
#217=ORIENTED_EDGE('',*,*,#158,.F.);
#218=ORIENTED_EDGE('',*,*,#157,.T.);
#219=ORIENTED_EDGE('',*,*,#159,.T.);
#220=ORIENTED_EDGE('',*,*,#160,.F.);
#221=ORIENTED_EDGE('',*,*,#159,.F.);
#222=ORIENTED_EDGE('',*,*,#134,.F.);
#223=ORIENTED_EDGE('',*,*,#161,.T.);
#224=ORIENTED_EDGE('',*,*,#160,.T.);
#225=ORIENTED_EDGE('',*,*,#161,.F.);
#226=CYLINDRICAL_SURFACE('',#264,40.);
#227=CYLINDRICAL_SURFACE('',#273,20.);
#228=CYLINDRICAL_SURFACE('',#279,10.);
#229=CYLINDRICAL_SURFACE('',#293,10.);
#230=CYLINDRICAL_SURFACE('',#296,50.);
#231=ADVANCED_FACE('',(#32),#226,.F.);
#232=ADVANCED_FACE('',(#33,#24),#27,.T.);
#233=ADVANCED_FACE('',(#34),#19,.F.);
#234=ADVANCED_FACE('',(#35),#227,.T.);
#235=ADVANCED_FACE('',(#36),#17,.T.);
#236=ADVANCED_FACE('',(#37,#25),#28,.T.);
#237=ADVANCED_FACE('',(#38),#228,.F.);
#238=ADVANCED_FACE('',(#39),#18,.F.);
#239=ADVANCED_FACE('',(#40),#29,.T.);
#240=ADVANCED_FACE('',(#41),#30,.T.);
#241=ADVANCED_FACE('',(#42),#20,.F.);
#242=ADVANCED_FACE('',(#43),#15,.T.);
#243=ADVANCED_FACE('',(#44),#16,.T.);
#244=ADVANCED_FACE('',(#45),#229,.F.);
#245=ADVANCED_FACE('',(#46,#26),#31,.T.);
#246=ADVANCED_FACE('',(#47),#230,.T.);
#247=ADVANCED_FACE('',(#48),#21,.T.);
#248=ADVANCED_FACE('',(#49),#22,.F.);
#249=ADVANCED_FACE('',(#50),#23,.T.);
#250=CLOSED_SHELL('',(#231,#232,#233,#234,#235,#236,#237,#238,#239,#240,
#241,#242,#243,#244,#245,#246,#247,#248,#249));
#251=DERIVED_UNIT_ELEMENT(#253,1.);
#252=DERIVED_UNIT_ELEMENT(#526,-3.);
#253=(
MASS_UNIT()
NAMED_UNIT(*)
SI_UNIT(.KILO.,.GRAM.)
);
#254=DERIVED_UNIT((#251,#252));
#255=MEASURE_REPRESENTATION_ITEM('density measure',
POSITIVE_RATIO_MEASURE(7850.),#254);
#256=PROPERTY_DEFINITION_REPRESENTATION(#261,#258);
#257=PROPERTY_DEFINITION_REPRESENTATION(#262,#259);
#258=REPRESENTATION('material name',(#260),#523);
#259=REPRESENTATION('density',(#255),#523);
#260=DESCRIPTIVE_REPRESENTATION_ITEM('Steel','Steel');
#261=PROPERTY_DEFINITION('material property','material name',#533);
#262=PROPERTY_DEFINITION('material property','density of part',#533);
#263=AXIS2_PLACEMENT_3D('',#399,#306,#307);
#264=AXIS2_PLACEMENT_3D('',#400,#308,#309);
#265=AXIS2_PLACEMENT_3D('',#402,#310,#311);
#266=AXIS2_PLACEMENT_3D('',#405,#313,#314);
#267=AXIS2_PLACEMENT_3D('',#406,#315,#316);
#268=AXIS2_PLACEMENT_3D('',#408,#317,#318);
#269=AXIS2_PLACEMENT_3D('',#409,#319,#320);
#270=AXIS2_PLACEMENT_3D('',#411,#321,#322);
#271=AXIS2_PLACEMENT_3D('',#413,#323,#324);
#272=AXIS2_PLACEMENT_3D('',#414,#325,#326);
#273=AXIS2_PLACEMENT_3D('',#415,#327,#328);
#274=AXIS2_PLACEMENT_3D('',#417,#329,#330);
#275=AXIS2_PLACEMENT_3D('',#419,#332,#333);
#276=AXIS2_PLACEMENT_3D('',#421,#334,#335);
#277=AXIS2_PLACEMENT_3D('',#423,#337,#338);
#278=AXIS2_PLACEMENT_3D('',#425,#339,#340);
#279=AXIS2_PLACEMENT_3D('',#426,#341,#342);
#280=AXIS2_PLACEMENT_3D('',#429,#344,#345);
#281=AXIS2_PLACEMENT_3D('',#430,#346,#347);
#282=AXIS2_PLACEMENT_3D('',#433,#349,#350);
#283=AXIS2_PLACEMENT_3D('',#434,#351,#352);
#284=AXIS2_PLACEMENT_3D('',#435,#353,#354);
#285=AXIS2_PLACEMENT_3D('',#437,#355,#356);
#286=AXIS2_PLACEMENT_3D('',#438,#357,#358);
#287=AXIS2_PLACEMENT_3D('',#440,#359,#360);
#288=AXIS2_PLACEMENT_3D('',#441,#361,#362);
#289=AXIS2_PLACEMENT_3D('',#470,#363,#364);
#290=AXIS2_PLACEMENT_3D('',#471,#365,#366);
#291=AXIS2_PLACEMENT_3D('',#500,#367,#368);
#292=AXIS2_PLACEMENT_3D('',#501,#369,#370);
#293=AXIS2_PLACEMENT_3D('',#502,#371,#372);
#294=AXIS2_PLACEMENT_3D('',#504,#374,#375);
#295=AXIS2_PLACEMENT_3D('',#506,#376,#377);
#296=AXIS2_PLACEMENT_3D('',#507,#378,#379);
#297=AXIS2_PLACEMENT_3D('',#509,#380,#381);
#298=AXIS2_PLACEMENT_3D('',#511,#383,#384);
#299=AXIS2_PLACEMENT_3D('',#513,#385,#386);
#300=AXIS2_PLACEMENT_3D('',#514,#387,#388);
#301=AXIS2_PLACEMENT_3D('',#515,#389,#390);
#302=AXIS2_PLACEMENT_3D('',#517,#391,#392);
#303=AXIS2_PLACEMENT_3D('',#518,#393,#394);
#304=AXIS2_PLACEMENT_3D('',#519,#395,#396);
#305=AXIS2_PLACEMENT_3D('',#520,#397,#398);
#306=DIRECTION('axis',(0.,0.,1.));
#307=DIRECTION('refdir',(1.,0.,0.));
#308=DIRECTION('center_axis',(1.,0.,0.));
#309=DIRECTION('ref_axis',(0.,0.,1.));
#310=DIRECTION('center_axis',(1.,0.,0.));
#311=DIRECTION('ref_axis',(0.,0.,1.));
#312=DIRECTION('',(1.,0.,0.));
#313=DIRECTION('center_axis',(1.,0.,0.));
#314=DIRECTION('ref_axis',(0.,0.,1.));
#315=DIRECTION('center_axis',(-1.,0.,0.));
#316=DIRECTION('ref_axis',(0.,0.,1.));
#317=DIRECTION('center_axis',(-1.,0.,0.));
#318=DIRECTION('ref_axis',(0.,0.,-1.));
#319=DIRECTION('center_axis',(1.,0.,0.));
#320=DIRECTION('ref_axis',(0.,0.,-1.));
#321=DIRECTION('center_axis',(1.,0.,0.));
#322=DIRECTION('ref_axis',(0.,0.,-1.));
#323=DIRECTION('center_axis',(0.,-1.,-1.22464679914735E-16));
#324=DIRECTION('ref_axis',(0.,-1.22464679914735E-16,1.));
#325=DIRECTION('center_axis',(1.,0.,0.));
#326=DIRECTION('ref_axis',(0.,0.,-1.));
#327=DIRECTION('center_axis',(1.,0.,0.));
#328=DIRECTION('ref_axis',(0.,0.,-1.));
#329=DIRECTION('center_axis',(1.,0.,0.));
#330=DIRECTION('ref_axis',(0.,0.,-1.));
#331=DIRECTION('',(-1.,0.,0.));
#332=DIRECTION('center_axis',(-1.,0.,0.));
#333=DIRECTION('ref_axis',(0.,0.,-1.));
#334=DIRECTION('center_axis',(1.,0.,0.));
#335=DIRECTION('ref_axis',(0.,0.,-1.));
#336=DIRECTION('',(-0.894427190999916,-5.47678698264203E-17,0.447213595499958));
#337=DIRECTION('center_axis',(1.,0.,0.));
#338=DIRECTION('ref_axis',(0.,0.,-1.));
#339=DIRECTION('center_axis',(1.,0.,0.));
#340=DIRECTION('ref_axis',(0.,0.,-1.));
#341=DIRECTION('center_axis',(1.,0.,0.));
#342=DIRECTION('ref_axis',(0.,0.,-1.));
#343=DIRECTION('',(-1.,0.,0.));
#344=DIRECTION('center_axis',(1.,0.,0.));
#345=DIRECTION('ref_axis',(0.,0.,-1.));
#346=DIRECTION('center_axis',(1.,0.,0.));
#347=DIRECTION('ref_axis',(0.,0.,-1.));
#348=DIRECTION('',(-0.707106781186547,8.65956056235493E-17,-0.707106781186548));
#349=DIRECTION('center_axis',(1.,0.,0.));
#350=DIRECTION('ref_axis',(0.,0.,-1.));
#351=DIRECTION('center_axis',(1.,0.,0.));
#352=DIRECTION('ref_axis',(0.,0.,-1.));
#353=DIRECTION('center_axis',(-1.,0.,0.));
#354=DIRECTION('ref_axis',(0.,0.,1.));
#355=DIRECTION('center_axis',(1.,0.,0.));
#356=DIRECTION('ref_axis',(0.,0.,-1.));
#357=DIRECTION('center_axis',(1.,0.,0.));
#358=DIRECTION('ref_axis',(0.,0.,-1.));
#359=DIRECTION('center_axis',(0.,-1.,-1.22464679914735E-16));
#360=DIRECTION('ref_axis',(0.,-1.22464679914735E-16,1.));
#361=DIRECTION('center_axis',(1.,0.,0.));
#362=DIRECTION('ref_axis',(0.,0.,-1.));
#363=DIRECTION('center_axis',(0.,-1.,-1.22464679914735E-16));
#364=DIRECTION('ref_axis',(0.,-1.22464679914735E-16,1.));
#365=DIRECTION('center_axis',(1.,0.,0.));
#366=DIRECTION('ref_axis',(0.,0.,-1.));
#367=DIRECTION('center_axis',(0.,-1.,-1.22464679914735E-16));
#368=DIRECTION('ref_axis',(0.,-1.22464679914735E-16,1.));
#369=DIRECTION('center_axis',(1.,0.,0.));
#370=DIRECTION('ref_axis',(0.,0.,-1.));
#371=DIRECTION('center_axis',(1.,0.,0.));
#372=DIRECTION('ref_axis',(0.,0.,-1.));
#373=DIRECTION('',(-1.,0.,0.));
#374=DIRECTION('center_axis',(-1.,0.,0.));
#375=DIRECTION('ref_axis',(0.,0.,1.));
#376=DIRECTION('center_axis',(1.,0.,0.));
#377=DIRECTION('ref_axis',(0.,0.,-1.));
#378=DIRECTION('center_axis',(1.,0.,0.));
#379=DIRECTION('ref_axis',(0.,0.,-1.));
#380=DIRECTION('center_axis',(1.,0.,0.));
#381=DIRECTION('ref_axis',(0.,0.,-1.));
#382=DIRECTION('',(-1.,0.,0.));
#383=DIRECTION('center_axis',(1.,0.,0.));
#384=DIRECTION('ref_axis',(0.,0.,-1.));
#385=DIRECTION('center_axis',(1.,0.,0.));
#386=DIRECTION('ref_axis',(0.,0.,-1.));
#387=DIRECTION('center_axis',(0.,-1.,-1.22464679914735E-16));
#388=DIRECTION('ref_axis',(0.,-1.22464679914735E-16,1.));
#389=DIRECTION('center_axis',(1.,0.,0.));
#390=DIRECTION('ref_axis',(0.,0.,-1.));
#391=DIRECTION('center_axis',(0.,-1.,-1.22464679914735E-16));
#392=DIRECTION('ref_axis',(0.,-1.22464679914735E-16,1.));
#393=DIRECTION('center_axis',(1.,0.,0.));
#394=DIRECTION('ref_axis',(0.,0.,-1.));
#395=DIRECTION('center_axis',(1.,0.,0.));
#396=DIRECTION('ref_axis',(0.,0.,-1.));
#397=DIRECTION('center_axis',(0.,-1.,-1.22464679914735E-16));
#398=DIRECTION('ref_axis',(0.,-1.22464679914735E-16,1.));
#399=CARTESIAN_POINT('',(0.,0.,0.));
#400=CARTESIAN_POINT('Origin',(-50.,0.,0.));
#401=CARTESIAN_POINT('',(-50.,-4.89858719658941E-15,-40.));
#402=CARTESIAN_POINT('Origin',(-50.,0.,0.));
#403=CARTESIAN_POINT('',(-45.,-4.89858719658941E-15,-40.));
#404=CARTESIAN_POINT('',(-50.,4.89858719658941E-15,-40.));
#405=CARTESIAN_POINT('Origin',(-45.,0.,0.));
#406=CARTESIAN_POINT('Origin',(-45.,0.,0.));
#407=CARTESIAN_POINT('',(-45.,1.22464679914735E-15,10.));
#408=CARTESIAN_POINT('Origin',(-45.,0.,0.));
#409=CARTESIAN_POINT('Origin',(25.,0.,0.));
#410=CARTESIAN_POINT('',(15.,-3.06161699786838E-15,25.));
#411=CARTESIAN_POINT('Origin',(15.,0.,0.));
#412=CARTESIAN_POINT('',(25.,-2.44929359829471E-15,20.));
#413=CARTESIAN_POINT('Origin',(25.,-3.9801020972289E-15,32.5));
#414=CARTESIAN_POINT('Origin',(25.,0.,0.));
#415=CARTESIAN_POINT('Origin',(30.,0.,0.));
#416=CARTESIAN_POINT('',(35.,-2.44929359829471E-15,20.));
#417=CARTESIAN_POINT('Origin',(35.,0.,0.));
#418=CARTESIAN_POINT('',(30.,-2.44929359829471E-15,20.));
#419=CARTESIAN_POINT('Origin',(40.,0.,0.));
#420=CARTESIAN_POINT('',(45.,-1.83697019872103E-15,15.));
#421=CARTESIAN_POINT('Origin',(45.,0.,0.));
#422=CARTESIAN_POINT('',(40.,-2.14313189850787E-15,17.5));
#423=CARTESIAN_POINT('Origin',(45.,0.,-10.));
#424=CARTESIAN_POINT('',(45.,-1.22464679914735E-15,10.));
#425=CARTESIAN_POINT('Origin',(45.,0.,0.));
#426=CARTESIAN_POINT('Origin',(37.5,0.,0.));
#427=CARTESIAN_POINT('',(30.,-1.22464679914735E-15,10.));
#428=CARTESIAN_POINT('',(37.5,-1.22464679914735E-15,10.));
#429=CARTESIAN_POINT('Origin',(30.,0.,0.));
#430=CARTESIAN_POINT('Origin',(27.5,0.,0.));
#431=CARTESIAN_POINT('',(25.,-6.12323399573677E-16,5.));
#432=CARTESIAN_POINT('',(27.5,-9.18485099360515E-16,7.5));
#433=CARTESIAN_POINT('Origin',(25.,0.,0.));
#434=CARTESIAN_POINT('Origin',(25.,0.,0.));
#435=CARTESIAN_POINT('Origin',(0.,0.,-12.5));
#436=CARTESIAN_POINT('',(0.,-1.53080849893419E-15,12.5));
#437=CARTESIAN_POINT('Origin',(0.,0.,0.));
#438=CARTESIAN_POINT('Origin',(-8.125,0.,0.));
#439=CARTESIAN_POINT('',(-5.,-2.44929359829471E-15,20.));
#440=CARTESIAN_POINT('Origin',(-8.125,-1.53080849893419E-15,12.5));
#441=CARTESIAN_POINT('Origin',(-5.,0.,0.));
#442=CARTESIAN_POINT('Ctrl Pts',(-15.,0.,20.));
#443=CARTESIAN_POINT('Ctrl Pts',(-15.,-20.,20.));
#444=CARTESIAN_POINT('Ctrl Pts',(-15.,-20.,0.));
#445=CARTESIAN_POINT('Ctrl Pts',(-15.,-20.,-20.));
#446=CARTESIAN_POINT('Ctrl Pts',(-15.,0.,-20.));
#447=CARTESIAN_POINT('Ctrl Pts',(-15.,20.,-20.));
#448=CARTESIAN_POINT('Ctrl Pts',(-15.,20.,0.));
#449=CARTESIAN_POINT('Ctrl Pts',(-15.,20.,20.));
#450=CARTESIAN_POINT('Ctrl Pts',(-15.,0.,20.));
#451=CARTESIAN_POINT('Ctrl Pts',(-10.,0.,22.0833333333333));
#452=CARTESIAN_POINT('Ctrl Pts',(-10.,-22.0833333333333,22.0833333333333));
#453=CARTESIAN_POINT('Ctrl Pts',(-10.,-22.0833333333333,0.));
#454=CARTESIAN_POINT('Ctrl Pts',(-10.,-22.0833333333333,-22.0833333333333));
#455=CARTESIAN_POINT('Ctrl Pts',(-10.,0.,-22.0833333333333));
#456=CARTESIAN_POINT('Ctrl Pts',(-10.,22.0833333333333,-22.0833333333333));
#457=CARTESIAN_POINT('Ctrl Pts',(-10.,22.0833333333333,0.));
#458=CARTESIAN_POINT('Ctrl Pts',(-10.,22.0833333333333,22.0833333333333));
#459=CARTESIAN_POINT('Ctrl Pts',(-10.,0.,22.0833333333333));
#460=CARTESIAN_POINT('Ctrl Pts',(-5.,0.,20.));
#461=CARTESIAN_POINT('Ctrl Pts',(-5.,-20.,20.));
#462=CARTESIAN_POINT('Ctrl Pts',(-5.,-20.,0.));
#463=CARTESIAN_POINT('Ctrl Pts',(-5.,-20.,-20.));
#464=CARTESIAN_POINT('Ctrl Pts',(-5.,0.,-20.));
#465=CARTESIAN_POINT('Ctrl Pts',(-5.,20.,-20.));
#466=CARTESIAN_POINT('Ctrl Pts',(-5.,20.,0.));
#467=CARTESIAN_POINT('Ctrl Pts',(-5.,20.,20.));
#468=CARTESIAN_POINT('Ctrl Pts',(-5.,0.,20.));
#469=CARTESIAN_POINT('',(-15.,-2.44929359829471E-15,20.));
#470=CARTESIAN_POINT('Origin',(-10.,-9.79717439317883E-16,8.));
#471=CARTESIAN_POINT('Origin',(-15.,0.,0.));
#472=CARTESIAN_POINT('Ctrl Pts',(-25.,0.,10.));
#473=CARTESIAN_POINT('Ctrl Pts',(-25.,-10.,10.));
#474=CARTESIAN_POINT('Ctrl Pts',(-25.,-10.,0.));
#475=CARTESIAN_POINT('Ctrl Pts',(-25.,-10.,-10.));
#476=CARTESIAN_POINT('Ctrl Pts',(-25.,0.,-10.));
#477=CARTESIAN_POINT('Ctrl Pts',(-25.,10.,-10.));
#478=CARTESIAN_POINT('Ctrl Pts',(-25.,10.,0.));
#479=CARTESIAN_POINT('Ctrl Pts',(-25.,10.,10.));
#480=CARTESIAN_POINT('Ctrl Pts',(-25.,0.,10.));
#481=CARTESIAN_POINT('Ctrl Pts',(-22.0588235294118,0.,17.0588235294118));
#482=CARTESIAN_POINT('Ctrl Pts',(-22.0588235294118,-17.0588235294118,17.0588235294118));
#483=CARTESIAN_POINT('Ctrl Pts',(-22.0588235294118,-17.0588235294118,0.));
#484=CARTESIAN_POINT('Ctrl Pts',(-22.0588235294118,-17.0588235294118,-17.0588235294118));
#485=CARTESIAN_POINT('Ctrl Pts',(-22.0588235294118,0.,-17.0588235294118));
#486=CARTESIAN_POINT('Ctrl Pts',(-22.0588235294118,17.0588235294118,-17.0588235294118));
#487=CARTESIAN_POINT('Ctrl Pts',(-22.0588235294118,17.0588235294118,0.));
#488=CARTESIAN_POINT('Ctrl Pts',(-22.0588235294118,17.0588235294118,17.0588235294118));
#489=CARTESIAN_POINT('Ctrl Pts',(-22.0588235294118,0.,17.0588235294118));
#490=CARTESIAN_POINT('Ctrl Pts',(-15.,0.,20.));
#491=CARTESIAN_POINT('Ctrl Pts',(-15.,-20.,20.));
#492=CARTESIAN_POINT('Ctrl Pts',(-15.,-20.,0.));
#493=CARTESIAN_POINT('Ctrl Pts',(-15.,-20.,-20.));
#494=CARTESIAN_POINT('Ctrl Pts',(-15.,0.,-20.));
#495=CARTESIAN_POINT('Ctrl Pts',(-15.,20.,-20.));
#496=CARTESIAN_POINT('Ctrl Pts',(-15.,20.,0.));
#497=CARTESIAN_POINT('Ctrl Pts',(-15.,20.,20.));
#498=CARTESIAN_POINT('Ctrl Pts',(-15.,0.,20.));
#499=CARTESIAN_POINT('',(-25.,-1.22464679914735E-15,10.));
#500=CARTESIAN_POINT('Origin',(-7.85714285714286,-3.49899085470673E-16,
2.85714285714286));
#501=CARTESIAN_POINT('Origin',(-25.,0.,0.));
#502=CARTESIAN_POINT('Origin',(-37.5,0.,0.));
#503=CARTESIAN_POINT('',(-37.5,-1.22464679914735E-15,10.));
#504=CARTESIAN_POINT('Origin',(-50.,0.,-50.));
#505=CARTESIAN_POINT('',(-50.,-6.12323399573677E-15,50.));
#506=CARTESIAN_POINT('Origin',(-50.,0.,0.));
#507=CARTESIAN_POINT('Origin',(-37.5,0.,0.));
#508=CARTESIAN_POINT('',(-25.,-6.12323399573677E-15,50.));
#509=CARTESIAN_POINT('Origin',(-25.,0.,0.));
#510=CARTESIAN_POINT('',(-37.5,-6.12323399573677E-15,50.));
#511=CARTESIAN_POINT('Origin',(-25.,0.,0.));
#512=CARTESIAN_POINT('',(-10.,-4.89858719658941E-15,40.));
#513=CARTESIAN_POINT('Origin',(-10.,0.,0.));
#514=CARTESIAN_POINT('Origin',(-25.,-4.13318294712232E-15,33.75));
#515=CARTESIAN_POINT('Origin',(5.,0.,0.));
#516=CARTESIAN_POINT('',(5.,-3.67394039744206E-15,30.));
#517=CARTESIAN_POINT('Origin',(5.,-5.66399144605651E-15,46.25));
#518=CARTESIAN_POINT('Origin',(5.,0.,0.));
#519=CARTESIAN_POINT('Origin',(5.,0.,0.));
#520=CARTESIAN_POINT('Origin',(5.,-2.14313189850787E-15,17.5));
#521=UNCERTAINTY_MEASURE_WITH_UNIT(LENGTH_MEASURE(0.01),#525,
'DISTANCE_ACCURACY_VALUE',
'Maximum model space distance between geometric entities at asserted c
onnectivities');
#522=UNCERTAINTY_MEASURE_WITH_UNIT(LENGTH_MEASURE(0.01),#525,
'DISTANCE_ACCURACY_VALUE',
'Maximum model space distance between geometric entities at asserted c
onnectivities');
#523=(
GEOMETRIC_REPRESENTATION_CONTEXT(3)
GLOBAL_UNCERTAINTY_ASSIGNED_CONTEXT((#521))
GLOBAL_UNIT_ASSIGNED_CONTEXT((#525,#527,#528))
REPRESENTATION_CONTEXT('','3D')
);
#524=(
GEOMETRIC_REPRESENTATION_CONTEXT(3)
GLOBAL_UNCERTAINTY_ASSIGNED_CONTEXT((#522))
GLOBAL_UNIT_ASSIGNED_CONTEXT((#525,#527,#528))
REPRESENTATION_CONTEXT('','3D')
);
#525=(
LENGTH_UNIT()
NAMED_UNIT(*)
SI_UNIT(.MILLI.,.METRE.)
);
#526=(
LENGTH_UNIT()
NAMED_UNIT(*)
SI_UNIT($,.METRE.)
);
#527=(
NAMED_UNIT(*)
PLANE_ANGLE_UNIT()
SI_UNIT($,.RADIAN.)
);
#528=(
NAMED_UNIT(*)
SI_UNIT($,.STERADIAN.)
SOLID_ANGLE_UNIT()
);
#529=SHAPE_DEFINITION_REPRESENTATION(#530,#531);
#530=PRODUCT_DEFINITION_SHAPE('',$,#533);
#531=SHAPE_REPRESENTATION('',(#263),#523);
#532=PRODUCT_DEFINITION_CONTEXT('part definition',#537,'design');
#533=PRODUCT_DEFINITION('(Unsaved)','(Unsaved)',#534,#532);
#534=PRODUCT_DEFINITION_FORMATION('',$,#539);
#535=PRODUCT_RELATED_PRODUCT_CATEGORY('(Unsaved)','(Unsaved)',(#539));
#536=APPLICATION_PROTOCOL_DEFINITION('international standard',
'automotive_design',2009,#537);
#537=APPLICATION_CONTEXT(
'Core Data for Automotive Mechanical Design Process');
#538=PRODUCT_CONTEXT('part definition',#537,'mechanical');
#539=PRODUCT('(Unsaved)','(Unsaved)',$,(#538));
#540=PRESENTATION_STYLE_ASSIGNMENT((#541));
#541=SURFACE_STYLE_USAGE(.BOTH.,#542);
#542=SURFACE_SIDE_STYLE('',(#543));
#543=SURFACE_STYLE_FILL_AREA(#544);
#544=FILL_AREA_STYLE('Steel - Satin',(#545));
#545=FILL_AREA_STYLE_COLOUR('Steel - Satin',#546);
#546=COLOUR_RGB('Steel - Satin',0.627450980392157,0.627450980392157,0.627450980392157);
ENDSEC;
END-ISO-10303-21;
