ISO-10303-21;
HEADER;
/* Generated by software containing ST-Developer
 * from STEP Tools, Inc. (www.steptools.com) 
 */

FILE_DESCRIPTION(
/* description */ ('Open CASCADE Model'),
/* implementation_level */ '2;1');

FILE_NAME(
/* name */ 'Part4_Sweep1-v2.step',
/* time_stamp */ '2024-09-02T21:57:54+03:00',
/* author */ (''),
/* organization */ (''),
/* preprocessor_version */ 'ST-DEVELOPER v20',
/* originating_system */ 'Autodesk Translation Framework v13.14.0.145',

/* authorisation */ '');

FILE_SCHEMA (('AUTOMOTIVE_DESIGN { 1 0 10303 214 3 1 1 }'));
ENDSEC;

DATA;
#10=MECHANICAL_DESIGN_GEOMETRIC_PRESENTATION_REPRESENTATION('',(#13),#327);
#11=SHAPE_REPRESENTATION_RELATIONSHIP('SRR','None',#334,#12);
#12=ADVANCED_BREP_SHAPE_REPRESENTATION('',(#14),#326);
#13=STYLED_ITEM('',(#344),#14);
#14=MANIFOLD_SOLID_BREP('Body1',#169);
#15=TOROIDAL_SURFACE('',#206,24.,5.);
#16=TOROIDAL_SURFACE('',#208,24.,6.);
#17=LINE('',#281,#21);
#18=LINE('',#289,#22);
#19=LINE('',#295,#23);
#20=LINE('',#312,#24);
#21=VECTOR('',#221,5.);
#22=VECTOR('',#230,6.);
#23=VECTOR('',#237,6.);
#24=VECTOR('',#254,5.);
#25=CYLINDRICAL_SURFACE('',#186,5.);
#26=CYLINDRICAL_SURFACE('',#189,6.);
#27=CYLINDRICAL_SURFACE('',#192,6.);
#28=CYLINDRICAL_SURFACE('',#199,5.);
#29=FACE_BOUND('',#40,.T.);
#30=FACE_BOUND('',#48,.T.);
#31=FACE_OUTER_BOUND('',#39,.T.);
#32=FACE_OUTER_BOUND('',#41,.T.);
#33=FACE_OUTER_BOUND('',#42,.T.);
#34=FACE_OUTER_BOUND('',#43,.T.);
#35=FACE_OUTER_BOUND('',#44,.T.);
#36=FACE_OUTER_BOUND('',#45,.T.);
#37=FACE_OUTER_BOUND('',#46,.T.);
#38=FACE_OUTER_BOUND('',#47,.T.);
#39=EDGE_LOOP('',(#111));
#40=EDGE_LOOP('',(#112));
#41=EDGE_LOOP('',(#113,#114,#115,#116,#117));
#42=EDGE_LOOP('',(#118,#119,#120,#121,#122));
#43=EDGE_LOOP('',(#123,#124,#125,#126,#127,#128,#129,#130));
#44=EDGE_LOOP('',(#131,#132,#133,#134,#135,#136,#137,#138));
#45=EDGE_LOOP('',(#139,#140,#141,#142,#143,#144,#145,#146,#147));
#46=EDGE_LOOP('',(#148,#149,#150,#151,#152,#153,#154,#155,#156));
#47=EDGE_LOOP('',(#157));
#48=EDGE_LOOP('',(#158));
#49=CIRCLE('',#184,6.);
#50=CIRCLE('',#185,5.);
#51=CIRCLE('',#187,5.);
#52=CIRCLE('',#188,5.);
#53=CIRCLE('',#190,6.);
#54=CIRCLE('',#191,6.);
#55=CIRCLE('',#193,6.);
#56=CIRCLE('',#194,6.);
#57=CIRCLE('',#195,6.);
#58=CIRCLE('',#196,6.);
#59=CIRCLE('',#197,6.);
#60=CIRCLE('',#198,6.);
#61=CIRCLE('',#200,5.);
#62=CIRCLE('',#201,5.);
#63=CIRCLE('',#202,5.);
#64=CIRCLE('',#203,5.);
#65=CIRCLE('',#204,5.);
#66=CIRCLE('',#205,5.);
#67=CIRCLE('',#207,19.);
#68=CIRCLE('',#209,18.);
#69=VERTEX_POINT('',#275);
#70=VERTEX_POINT('',#277);
#71=VERTEX_POINT('',#280);
#72=VERTEX_POINT('',#282);
#73=VERTEX_POINT('',#286);
#74=VERTEX_POINT('',#287);
#75=VERTEX_POINT('',#292);
#76=VERTEX_POINT('',#294);
#77=VERTEX_POINT('',#296);
#78=VERTEX_POINT('',#298);
#79=VERTEX_POINT('',#300);
#80=VERTEX_POINT('',#302);
#81=VERTEX_POINT('',#306);
#82=VERTEX_POINT('',#307);
#83=VERTEX_POINT('',#309);
#84=VERTEX_POINT('',#311);
#85=VERTEX_POINT('',#314);
#86=VERTEX_POINT('',#316);
#87=EDGE_CURVE('',#69,#69,#49,.T.);
#88=EDGE_CURVE('',#70,#70,#50,.T.);
#89=EDGE_CURVE('',#70,#71,#17,.T.);
#90=EDGE_CURVE('',#72,#71,#51,.T.);
#91=EDGE_CURVE('',#71,#72,#52,.T.);
#92=EDGE_CURVE('',#73,#74,#53,.T.);
#93=EDGE_CURVE('',#73,#69,#18,.T.);
#94=EDGE_CURVE('',#74,#73,#54,.T.);
#95=EDGE_CURVE('',#75,#75,#55,.T.);
#96=EDGE_CURVE('',#75,#76,#19,.T.);
#97=EDGE_CURVE('',#77,#76,#56,.T.);
#98=EDGE_CURVE('',#78,#77,#57,.T.);
#99=EDGE_CURVE('',#79,#78,#58,.T.);
#100=EDGE_CURVE('',#80,#79,#59,.T.);
#101=EDGE_CURVE('',#76,#80,#60,.T.);
#102=EDGE_CURVE('',#81,#82,#61,.T.);
#103=EDGE_CURVE('',#82,#83,#62,.T.);
#104=EDGE_CURVE('',#83,#84,#20,.T.);
#105=EDGE_CURVE('',#84,#84,#63,.T.);
#106=EDGE_CURVE('',#83,#85,#64,.T.);
#107=EDGE_CURVE('',#85,#86,#65,.T.);
#108=EDGE_CURVE('',#86,#81,#66,.T.);
#109=EDGE_CURVE('',#83,#72,#67,.T.);
#110=EDGE_CURVE('',#74,#76,#68,.T.);
#111=ORIENTED_EDGE('',*,*,#87,.F.);
#112=ORIENTED_EDGE('',*,*,#88,.T.);
#113=ORIENTED_EDGE('',*,*,#88,.F.);
#114=ORIENTED_EDGE('',*,*,#89,.T.);
#115=ORIENTED_EDGE('',*,*,#90,.F.);
#116=ORIENTED_EDGE('',*,*,#91,.F.);
#117=ORIENTED_EDGE('',*,*,#89,.F.);
#118=ORIENTED_EDGE('',*,*,#92,.F.);
#119=ORIENTED_EDGE('',*,*,#93,.T.);
#120=ORIENTED_EDGE('',*,*,#87,.T.);
#121=ORIENTED_EDGE('',*,*,#93,.F.);
#122=ORIENTED_EDGE('',*,*,#94,.F.);
#123=ORIENTED_EDGE('',*,*,#95,.T.);
#124=ORIENTED_EDGE('',*,*,#96,.T.);
#125=ORIENTED_EDGE('',*,*,#97,.F.);
#126=ORIENTED_EDGE('',*,*,#98,.F.);
#127=ORIENTED_EDGE('',*,*,#99,.F.);
#128=ORIENTED_EDGE('',*,*,#100,.F.);
#129=ORIENTED_EDGE('',*,*,#101,.F.);
#130=ORIENTED_EDGE('',*,*,#96,.F.);
#131=ORIENTED_EDGE('',*,*,#102,.T.);
#132=ORIENTED_EDGE('',*,*,#103,.T.);
#133=ORIENTED_EDGE('',*,*,#104,.T.);
#134=ORIENTED_EDGE('',*,*,#105,.F.);
#135=ORIENTED_EDGE('',*,*,#104,.F.);
#136=ORIENTED_EDGE('',*,*,#106,.T.);
#137=ORIENTED_EDGE('',*,*,#107,.T.);
#138=ORIENTED_EDGE('',*,*,#108,.T.);
#139=ORIENTED_EDGE('',*,*,#107,.F.);
#140=ORIENTED_EDGE('',*,*,#106,.F.);
#141=ORIENTED_EDGE('',*,*,#109,.T.);
#142=ORIENTED_EDGE('',*,*,#90,.T.);
#143=ORIENTED_EDGE('',*,*,#91,.T.);
#144=ORIENTED_EDGE('',*,*,#109,.F.);
#145=ORIENTED_EDGE('',*,*,#103,.F.);
#146=ORIENTED_EDGE('',*,*,#102,.F.);
#147=ORIENTED_EDGE('',*,*,#108,.F.);
#148=ORIENTED_EDGE('',*,*,#92,.T.);
#149=ORIENTED_EDGE('',*,*,#110,.T.);
#150=ORIENTED_EDGE('',*,*,#101,.T.);
#151=ORIENTED_EDGE('',*,*,#100,.T.);
#152=ORIENTED_EDGE('',*,*,#99,.T.);
#153=ORIENTED_EDGE('',*,*,#98,.T.);
#154=ORIENTED_EDGE('',*,*,#97,.T.);
#155=ORIENTED_EDGE('',*,*,#110,.F.);
#156=ORIENTED_EDGE('',*,*,#94,.T.);
#157=ORIENTED_EDGE('',*,*,#95,.F.);
#158=ORIENTED_EDGE('',*,*,#105,.T.);
#159=PLANE('',#183);
#160=PLANE('',#210);
#161=ADVANCED_FACE('',(#31,#29),#159,.T.);
#162=ADVANCED_FACE('',(#32),#25,.F.);
#163=ADVANCED_FACE('',(#33),#26,.T.);
#164=ADVANCED_FACE('',(#34),#27,.T.);
#165=ADVANCED_FACE('',(#35),#28,.F.);
#166=ADVANCED_FACE('',(#36),#15,.F.);
#167=ADVANCED_FACE('',(#37),#16,.T.);
#168=ADVANCED_FACE('',(#38,#30),#160,.F.);
#169=CLOSED_SHELL('',(#161,#162,#163,#164,#165,#166,#167,#168));
#170=DERIVED_UNIT_ELEMENT(#172,1.);
#171=DERIVED_UNIT_ELEMENT(#329,-3.);
#172=(
MASS_UNIT()
NAMED_UNIT(*)
SI_UNIT(.KILO.,.GRAM.)
);
#173=DERIVED_UNIT((#170,#171));
#174=MEASURE_REPRESENTATION_ITEM('density measure',
POSITIVE_RATIO_MEASURE(7850.),#173);
#175=PROPERTY_DEFINITION_REPRESENTATION(#180,#177);
#176=PROPERTY_DEFINITION_REPRESENTATION(#181,#178);
#177=REPRESENTATION('material name',(#179),#326);
#178=REPRESENTATION('density',(#174),#326);
#179=DESCRIPTIVE_REPRESENTATION_ITEM('Steel','Steel');
#180=PROPERTY_DEFINITION('material property','material name',#336);
#181=PROPERTY_DEFINITION('material property','density of part',#336);
#182=AXIS2_PLACEMENT_3D('',#273,#211,#212);
#183=AXIS2_PLACEMENT_3D('',#274,#213,#214);
#184=AXIS2_PLACEMENT_3D('',#276,#215,#216);
#185=AXIS2_PLACEMENT_3D('',#278,#217,#218);
#186=AXIS2_PLACEMENT_3D('',#279,#219,#220);
#187=AXIS2_PLACEMENT_3D('',#283,#222,#223);
#188=AXIS2_PLACEMENT_3D('',#284,#224,#225);
#189=AXIS2_PLACEMENT_3D('',#285,#226,#227);
#190=AXIS2_PLACEMENT_3D('',#288,#228,#229);
#191=AXIS2_PLACEMENT_3D('',#290,#231,#232);
#192=AXIS2_PLACEMENT_3D('',#291,#233,#234);
#193=AXIS2_PLACEMENT_3D('',#293,#235,#236);
#194=AXIS2_PLACEMENT_3D('',#297,#238,#239);
#195=AXIS2_PLACEMENT_3D('',#299,#240,#241);
#196=AXIS2_PLACEMENT_3D('',#301,#242,#243);
#197=AXIS2_PLACEMENT_3D('',#303,#244,#245);
#198=AXIS2_PLACEMENT_3D('',#304,#246,#247);
#199=AXIS2_PLACEMENT_3D('',#305,#248,#249);
#200=AXIS2_PLACEMENT_3D('',#308,#250,#251);
#201=AXIS2_PLACEMENT_3D('',#310,#252,#253);
#202=AXIS2_PLACEMENT_3D('',#313,#255,#256);
#203=AXIS2_PLACEMENT_3D('',#315,#257,#258);
#204=AXIS2_PLACEMENT_3D('',#317,#259,#260);
#205=AXIS2_PLACEMENT_3D('',#318,#261,#262);
#206=AXIS2_PLACEMENT_3D('',#319,#263,#264);
#207=AXIS2_PLACEMENT_3D('',#320,#265,#266);
#208=AXIS2_PLACEMENT_3D('',#321,#267,#268);
#209=AXIS2_PLACEMENT_3D('',#322,#269,#270);
#210=AXIS2_PLACEMENT_3D('',#323,#271,#272);
#211=DIRECTION('axis',(0.,0.,1.));
#212=DIRECTION('refdir',(1.,0.,0.));
#213=DIRECTION('center_axis',(-0.342390923596021,-0.939557584951058,0.));
#214=DIRECTION('ref_axis',(0.939557584951058,-0.342390923596021,0.));
#215=DIRECTION('center_axis',(0.342390923596021,0.939557584951058,0.));
#216=DIRECTION('ref_axis',(-0.939557584951057,0.342390923596021,0.));
#217=DIRECTION('center_axis',(0.342390923596021,0.939557584951058,0.));
#218=DIRECTION('ref_axis',(-0.939557584951057,0.342390923596021,0.));
#219=DIRECTION('center_axis',(0.342390923596021,0.939557584951058,0.));
#220=DIRECTION('ref_axis',(-6.68612079436319E-17,2.43653727107724E-17,1.));
#221=DIRECTION('',(0.342390923596021,0.939557584951058,0.));
#222=DIRECTION('center_axis',(-0.342390923596021,-0.939557584951058,0.));
#223=DIRECTION('ref_axis',(0.939557584951057,-0.342390923596021,0.));
#224=DIRECTION('center_axis',(-0.342390923596021,-0.939557584951058,0.));
#225=DIRECTION('ref_axis',(0.939557584951057,-0.342390923596021,0.));
#226=DIRECTION('center_axis',(0.342390923596021,0.939557584951058,0.));
#227=DIRECTION('ref_axis',(-6.68612079436318E-17,2.43653727107724E-17,1.));
#228=DIRECTION('center_axis',(0.342390923596021,0.939557584951058,0.));
#229=DIRECTION('ref_axis',(-0.939557584951057,0.342390923596021,0.));
#230=DIRECTION('',(-0.342390923596021,-0.939557584951058,0.));
#231=DIRECTION('center_axis',(0.342390923596021,0.939557584951058,0.));
#232=DIRECTION('ref_axis',(-0.939557584951057,0.342390923596021,0.));
#233=DIRECTION('center_axis',(1.,0.,0.));
#234=DIRECTION('ref_axis',(0.,1.,3.828568698927E-16));
#235=DIRECTION('center_axis',(-1.,1.004751837286E-14,0.));
#236=DIRECTION('ref_axis',(-1.004751837286E-14,-1.,0.));
#237=DIRECTION('',(-1.,0.,0.));
#238=DIRECTION('center_axis',(-1.,1.004751837286E-14,0.));
#239=DIRECTION('ref_axis',(-1.004751837286E-14,-1.,0.));
#240=DIRECTION('center_axis',(-1.,1.004751837286E-14,0.));
#241=DIRECTION('ref_axis',(-1.004751837286E-14,-1.,0.));
#242=DIRECTION('center_axis',(-1.,1.004751837286E-14,0.));
#243=DIRECTION('ref_axis',(-1.004751837286E-14,-1.,0.));
#244=DIRECTION('center_axis',(-1.,1.004751837286E-14,0.));
#245=DIRECTION('ref_axis',(-1.004751837286E-14,-1.,0.));
#246=DIRECTION('center_axis',(-1.,1.004751837286E-14,0.));
#247=DIRECTION('ref_axis',(-1.004751837286E-14,-1.,0.));
#248=DIRECTION('center_axis',(1.,0.,0.));
#249=DIRECTION('ref_axis',(0.,1.,-6.123233995737E-17));
#250=DIRECTION('center_axis',(-1.,1.004751837286E-14,0.));
#251=DIRECTION('ref_axis',(-1.004751837286E-14,-1.,0.));
#252=DIRECTION('center_axis',(-1.,1.004751837286E-14,0.));
#253=DIRECTION('ref_axis',(-1.004751837286E-14,-1.,0.));
#254=DIRECTION('',(1.,0.,0.));
#255=DIRECTION('center_axis',(-1.,1.004751837286E-14,0.));
#256=DIRECTION('ref_axis',(-1.004751837286E-14,-1.,0.));
#257=DIRECTION('center_axis',(-1.,1.004751837286E-14,0.));
#258=DIRECTION('ref_axis',(-1.004751837286E-14,-1.,0.));
#259=DIRECTION('center_axis',(-1.,1.004751837286E-14,0.));
#260=DIRECTION('ref_axis',(-1.004751837286E-14,-1.,0.));
#261=DIRECTION('center_axis',(-1.,1.004751837286E-14,0.));
#262=DIRECTION('ref_axis',(-1.004751837286E-14,-1.,0.));
#263=DIRECTION('center_axis',(0.,0.,1.));
#264=DIRECTION('ref_axis',(-0.573414804536162,0.819265196342891,0.));
#265=DIRECTION('center_axis',(0.,0.,1.));
#266=DIRECTION('ref_axis',(-0.573414804536161,0.819265196342891,0.));
#267=DIRECTION('center_axis',(0.,0.,1.));
#268=DIRECTION('ref_axis',(-0.573414804579847,0.819265196312315,0.));
#269=DIRECTION('center_axis',(0.,0.,-1.));
#270=DIRECTION('ref_axis',(-0.573414804579847,0.819265196312315,0.));
#271=DIRECTION('center_axis',(-1.,1.004751837286E-14,0.));
#272=DIRECTION('ref_axis',(-1.004751837286E-14,-1.,0.));
#273=CARTESIAN_POINT('',(0.,0.,0.));
#274=CARTESIAN_POINT('Origin',(-150.6921070453,20.043577895944,0.));
#275=CARTESIAN_POINT('',(-145.054761535574,17.9892323543604,-6.));
#276=CARTESIAN_POINT('Origin',(-145.0547615356,17.98923235437,0.));
#277=CARTESIAN_POINT('',(-145.054761535574,17.9892323543604,-5.));
#278=CARTESIAN_POINT('Origin',(-145.0547615356,17.98923235437,0.));
#279=CARTESIAN_POINT('Origin',(-121.1062185866,83.706614520667,0.));
#280=CARTESIAN_POINT('',(-121.106218585425,83.7066145238907,-5.));
#281=CARTESIAN_POINT('',(-121.1062185866,83.706614520667,-5.));
#282=CARTESIAN_POINT('',(-116.4084306607,81.99465990594,0.));
#283=CARTESIAN_POINT('Origin',(-121.1062185855,83.706614523918,0.));
#284=CARTESIAN_POINT('Origin',(-121.1062185855,83.706614523918,0.));
#285=CARTESIAN_POINT('Origin',(-121.1062185866,83.706614520667,0.));
#286=CARTESIAN_POINT('',(-121.1062185866,83.706614520667,-6.));
#287=CARTESIAN_POINT('',(-115.468873076894,81.6522689790909,-7.34788079488412E-16));
#288=CARTESIAN_POINT('Origin',(-121.1062185866,83.706614520667,0.));
#289=CARTESIAN_POINT('',(-121.1062185866,83.706614520667,-6.));
#290=CARTESIAN_POINT('Origin',(-121.1062185866,83.706614520667,0.));
#291=CARTESIAN_POINT('Origin',(-98.5568365444,99.48923235437,0.));
#292=CARTESIAN_POINT('',(57.94523846782,93.48923235437,0.));
#293=CARTESIAN_POINT('Origin',(57.94523846782,99.48923235437,0.));
#294=CARTESIAN_POINT('',(-98.5568365444001,93.48923235437,-3.03192929884461E-15));
#295=CARTESIAN_POINT('',(-98.5568365444,93.48923235437,-3.03192929884461E-15));
#296=CARTESIAN_POINT('',(-98.5568365444,97.635130388121,-5.70633909777113));
#297=CARTESIAN_POINT('Origin',(-98.5568365444,99.48923235437,0.));
#298=CARTESIAN_POINT('',(-98.5568365444,99.48923235437,-6.));
#299=CARTESIAN_POINT('Origin',(-98.5568365444,99.48923235437,0.));
#300=CARTESIAN_POINT('',(-98.5568365444,101.34333432062,5.70633909777084));
#301=CARTESIAN_POINT('Origin',(-98.5568365444,99.48923235437,0.));
#302=CARTESIAN_POINT('',(-98.5568365444,99.48923235437,6.));
#303=CARTESIAN_POINT('Origin',(-98.5568365444,99.48923235437,0.));
#304=CARTESIAN_POINT('Origin',(-98.5568365444,99.48923235437,0.));
#305=CARTESIAN_POINT('Origin',(-98.5568365444,99.48923235437,0.));
#306=CARTESIAN_POINT('',(-98.5568365444,99.48923235437,-5.));
#307=CARTESIAN_POINT('',(-98.5568365444,97.944147382496,-4.75528258147601));
#308=CARTESIAN_POINT('Origin',(-98.5568365444,99.48923235437,0.));
#309=CARTESIAN_POINT('',(-98.5568365444001,94.48923235437,-3.06161699786827E-16));
#310=CARTESIAN_POINT('Origin',(-98.5568365444,99.48923235437,0.));
#311=CARTESIAN_POINT('',(57.94523846782,94.48923235437,0.));
#312=CARTESIAN_POINT('',(-98.5568365444,94.48923235437,-3.06161699786827E-16));
#313=CARTESIAN_POINT('Origin',(57.94523846782,99.48923235437,0.));
#314=CARTESIAN_POINT('',(-98.5568365444,99.48923235437,5.));
#315=CARTESIAN_POINT('Origin',(-98.5568365444,99.48923235437,0.));
#316=CARTESIAN_POINT('',(-98.5568365444,101.03431732624,4.75528258147718));
#317=CARTESIAN_POINT('Origin',(-98.5568365444,99.48923235437,0.));
#318=CARTESIAN_POINT('Origin',(-98.5568365444,99.48923235437,0.));
#319=CARTESIAN_POINT('Origin',(-98.55683654786,75.48923235437,0.));
#320=CARTESIAN_POINT('Origin',(-98.55683654786,75.48923235437,-6.12323399573677E-16));
#321=CARTESIAN_POINT('Origin',(-98.55683654786,75.48923235437,0.));
#322=CARTESIAN_POINT('Origin',(-98.55683654786,75.48923235437,-7.34788079488412E-16));
#323=CARTESIAN_POINT('Origin',(57.94523846782,99.48923235437,0.));
#324=UNCERTAINTY_MEASURE_WITH_UNIT(LENGTH_MEASURE(0.01),#328,
'DISTANCE_ACCURACY_VALUE',
'Maximum model space distance between geometric entities at asserted c
onnectivities');
#325=UNCERTAINTY_MEASURE_WITH_UNIT(LENGTH_MEASURE(0.01),#328,
'DISTANCE_ACCURACY_VALUE',
'Maximum model space distance between geometric entities at asserted c
onnectivities');
#326=(
GEOMETRIC_REPRESENTATION_CONTEXT(3)
GLOBAL_UNCERTAINTY_ASSIGNED_CONTEXT((#324))
GLOBAL_UNIT_ASSIGNED_CONTEXT((#328,#330,#331))
REPRESENTATION_CONTEXT('','3D')
);
#327=(
GEOMETRIC_REPRESENTATION_CONTEXT(3)
GLOBAL_UNCERTAINTY_ASSIGNED_CONTEXT((#325))
GLOBAL_UNIT_ASSIGNED_CONTEXT((#328,#330,#331))
REPRESENTATION_CONTEXT('','3D')
);
#328=(
LENGTH_UNIT()
NAMED_UNIT(*)
SI_UNIT(.MILLI.,.METRE.)
);
#329=(
LENGTH_UNIT()
NAMED_UNIT(*)
SI_UNIT($,.METRE.)
);
#330=(
NAMED_UNIT(*)
PLANE_ANGLE_UNIT()
SI_UNIT($,.RADIAN.)
);
#331=(
NAMED_UNIT(*)
SI_UNIT($,.STERADIAN.)
SOLID_ANGLE_UNIT()
);
#332=SHAPE_DEFINITION_REPRESENTATION(#333,#334);
#333=PRODUCT_DEFINITION_SHAPE('',$,#336);
#334=SHAPE_REPRESENTATION('',(#182),#326);
#335=PRODUCT_DEFINITION_CONTEXT('part definition',#340,'design');
#336=PRODUCT_DEFINITION('Sweep1','(Unsaved)',#337,#335);
#337=PRODUCT_DEFINITION_FORMATION('',$,#342);
#338=PRODUCT_RELATED_PRODUCT_CATEGORY('(Unsaved)','(Unsaved)',(#342));
#339=APPLICATION_PROTOCOL_DEFINITION('international standard',
'automotive_design',2009,#340);
#340=APPLICATION_CONTEXT(
'Core Data for Automotive Mechanical Design Process');
#341=PRODUCT_CONTEXT('part definition',#340,'mechanical');
#342=PRODUCT('Sweep1','(Unsaved)','Open CASCADE Model',(#341));
#343=PRESENTATION_STYLE_ASSIGNMENT((#345));
#344=PRESENTATION_STYLE_ASSIGNMENT((#346));
#345=SURFACE_STYLE_USAGE(.BOTH.,#347);
#346=SURFACE_STYLE_USAGE(.BOTH.,#348);
#347=SURFACE_SIDE_STYLE('',(#349));
#348=SURFACE_SIDE_STYLE('',(#350));
#349=SURFACE_STYLE_FILL_AREA(#351);
#350=SURFACE_STYLE_FILL_AREA(#352);
#351=FILL_AREA_STYLE('Steel - Satin',(#353));
#352=FILL_AREA_STYLE('Opaque(202,209,238)',(#354));
#353=FILL_AREA_STYLE_COLOUR('Steel - Satin',#355);
#354=FILL_AREA_STYLE_COLOUR('Opaque(202,209,238)',#356);
#355=COLOUR_RGB('Steel - Satin',0.627450980392157,0.627450980392157,0.627450980392157);
#356=COLOUR_RGB('Opaque(202,209,238)',0.792156862745098,0.819607843137255,
0.933333333333333);
ENDSEC;
END-ISO-10303-21;
