ISO-10303-21;
HEADER;
FILE_DESCRIPTION(('Open CASCADE Model'),'2;1');
FILE_NAME('Open CASCADE Shape Model','2024-09-02T21:52:13',(
    'CAD Processor'),('OPEN CASCADE S.A.S'),
  'Open CASCADE STEP processor 7.4','CAD Processor','Unknown');
FILE_SCHEMA((
'AP242_MANAGED_MODEL_BASED_3D_ENGINEERING_MIM_LF. {1 0 10303 442 1 1 4 
}'));
ENDSEC;
DATA;
#1 = APPLICATION_PROTOCOL_DEFINITION('international standard',
  'ap242_managed_model_based_3d_engineering',2013,#2);
#2 = APPLICATION_CONTEXT('Managed model based 3d engineering');
#3 = SHAPE_DEFINITION_REPRESENTATION(#4,#10);
#4 = PRODUCT_DEFINITION_SHAPE('','',#5);
#5 = PRODUCT_DEFINITION('design','',#6,#9);
#6 = PRODUCT_DEFINITION_FORMATION('','',#7);
#7 = PRODUCT('Sweep1','Sweep1','',(#8));
#8 = PRODUCT_CONTEXT('',#2,'mechanical');
#9 = PRODUCT_DEFINITION_CONTEXT('part definition',#2,'design');
#10 = ADVANCED_BREP_SHAPE_REPRESENTATION('',(#11,#15),#801);
#11 = AXIS2_PLACEMENT_3D('',#12,#13,#14);
#12 = CARTESIAN_POINT('',(0.E+000,0.E+000,0.E+000));
#13 = DIRECTION('',(0.E+000,0.E+000,1.));
#14 = DIRECTION('',(1.,0.E+000,-0.E+000));
#15 = MANIFOLD_SOLID_BREP('',#16);
#16 = CLOSED_SHELL('',(#17,#63,#104,#160,#210,#270,#326,#357,#426,#495,
    #538,#581,#609,#628,#652,#672,#698,#722,#735,#754,#773,#787));
#17 = ADVANCED_FACE('',(#18,#38),#58,.T.);
#18 = FACE_BOUND('',#19,.T.);
#19 = EDGE_LOOP('',(#20,#31));
#20 = ORIENTED_EDGE('',*,*,#21,.T.);
#21 = EDGE_CURVE('',#22,#24,#26,.T.);
#22 = VERTEX_POINT('',#23);
#23 = CARTESIAN_POINT('',(-149.7525494603,19.701186972349,0.E+000));
#24 = VERTEX_POINT('',#25);
#25 = CARTESIAN_POINT('',(-140.3569736108,16.277277736392,
    6.123233995737E-016));
#26 = CIRCLE('',#27,5.);
#27 = AXIS2_PLACEMENT_3D('',#28,#29,#30);
#28 = CARTESIAN_POINT('',(-145.0547615356,17.98923235437,0.E+000));
#29 = DIRECTION('',(0.342390923596,0.939557584951,0.E+000));
#30 = DIRECTION('',(-0.939557584951,0.342390923596,0.E+000));
#31 = ORIENTED_EDGE('',*,*,#32,.T.);
#32 = EDGE_CURVE('',#24,#22,#33,.T.);
#33 = CIRCLE('',#34,5.);
#34 = AXIS2_PLACEMENT_3D('',#35,#36,#37);
#35 = CARTESIAN_POINT('',(-145.0547615356,17.98923235437,0.E+000));
#36 = DIRECTION('',(0.342390923596,0.939557584951,0.E+000));
#37 = DIRECTION('',(-0.939557584951,0.342390923596,0.E+000));
#38 = FACE_BOUND('',#39,.T.);
#39 = EDGE_LOOP('',(#40,#51));
#40 = ORIENTED_EDGE('',*,*,#41,.F.);
#41 = EDGE_CURVE('',#42,#44,#46,.T.);
#42 = VERTEX_POINT('',#43);
#43 = CARTESIAN_POINT('',(-139.4174160259,15.934886812796,
    7.347880794884E-016));
#44 = VERTEX_POINT('',#45);
#45 = CARTESIAN_POINT('',(-150.6921070453,20.043577895945,0.E+000));
#46 = CIRCLE('',#47,6.);
#47 = AXIS2_PLACEMENT_3D('',#48,#49,#50);
#48 = CARTESIAN_POINT('',(-145.0547615356,17.98923235437,0.E+000));
#49 = DIRECTION('',(0.342390923596,0.939557584951,0.E+000));
#50 = DIRECTION('',(-0.939557584951,0.342390923596,0.E+000));
#51 = ORIENTED_EDGE('',*,*,#52,.F.);
#52 = EDGE_CURVE('',#44,#42,#53,.T.);
#53 = CIRCLE('',#54,6.);
#54 = AXIS2_PLACEMENT_3D('',#55,#56,#57);
#55 = CARTESIAN_POINT('',(-145.0547615356,17.98923235437,0.E+000));
#56 = DIRECTION('',(0.342390923596,0.939557584951,0.E+000));
#57 = DIRECTION('',(-0.939557584951,0.342390923596,0.E+000));
#58 = PLANE('',#59);
#59 = AXIS2_PLACEMENT_3D('',#60,#61,#62);
#60 = CARTESIAN_POINT('',(-150.6921070453,20.043577895944,0.E+000));
#61 = DIRECTION('',(-0.342390923596,-0.939557584951,0.E+000));
#62 = DIRECTION('',(0.939557584951,-0.342390923596,0.E+000));
#63 = ADVANCED_FACE('',(#64),#99,.F.);
#64 = FACE_BOUND('',#65,.F.);
#65 = EDGE_LOOP('',(#66,#67,#75,#84,#93));
#66 = ORIENTED_EDGE('',*,*,#32,.T.);
#67 = ORIENTED_EDGE('',*,*,#68,.T.);
#68 = EDGE_CURVE('',#22,#69,#71,.T.);
#69 = VERTEX_POINT('',#70);
#70 = CARTESIAN_POINT('',(-148.7253766896,22.519859727202,0.E+000));
#71 = LINE('',#72,#73);
#72 = CARTESIAN_POINT('',(-149.7525494603,19.701186972349,0.E+000));
#73 = VECTOR('',#74,1.);
#74 = DIRECTION('',(0.342390923596,0.939557584951,0.E+000));
#75 = ORIENTED_EDGE('',*,*,#76,.F.);
#76 = EDGE_CURVE('',#77,#69,#79,.T.);
#77 = VERTEX_POINT('',#78);
#78 = CARTESIAN_POINT('',(-145.4792850695,21.336928179778,
    -4.755282581476));
#79 = CIRCLE('',#80,5.);
#80 = AXIS2_PLACEMENT_3D('',#81,#82,#83);
#81 = CARTESIAN_POINT('',(-144.0275887648,20.807905109224,0.E+000));
#82 = DIRECTION('',(0.342390923596,0.939557584951,0.E+000));
#83 = DIRECTION('',(-0.939557584951,0.342390923596,0.E+000));
#84 = ORIENTED_EDGE('',*,*,#85,.F.);
#85 = EDGE_CURVE('',#86,#77,#88,.T.);
#86 = VERTEX_POINT('',#87);
#87 = CARTESIAN_POINT('',(-139.32980084,19.095950491245,
    6.123233995737E-016));
#88 = CIRCLE('',#89,5.);
#89 = AXIS2_PLACEMENT_3D('',#90,#91,#92);
#90 = CARTESIAN_POINT('',(-144.0275887648,20.807905109224,0.E+000));
#91 = DIRECTION('',(0.342390923596,0.939557584951,0.E+000));
#92 = DIRECTION('',(-0.939557584951,0.342390923596,0.E+000));
#93 = ORIENTED_EDGE('',*,*,#94,.F.);
#94 = EDGE_CURVE('',#24,#86,#95,.T.);
#95 = LINE('',#96,#97);
#96 = CARTESIAN_POINT('',(-140.3569736108,16.277277736392,
    6.123233995737E-016));
#97 = VECTOR('',#98,1.);
#98 = DIRECTION('',(0.342390923596,0.939557584951,0.E+000));
#99 = CYLINDRICAL_SURFACE('',#100,5.);
#100 = AXIS2_PLACEMENT_3D('',#101,#102,#103);
#101 = CARTESIAN_POINT('',(-121.1062185866,83.706614520667,0.E+000));
#102 = DIRECTION('',(0.342390923596,0.939557584951,0.E+000));
#103 = DIRECTION('',(-6.686120794364E-017,2.436537271075E-017,1.));
#104 = ADVANCED_FACE('',(#105),#151,.F.);
#105 = FACE_BOUND('',#106,.F.);
#106 = EDGE_LOOP('',(#107,#108,#117,#126,#135,#144));
#107 = ORIENTED_EDGE('',*,*,#76,.T.);
#108 = ORIENTED_EDGE('',*,*,#109,.T.);
#109 = EDGE_CURVE('',#69,#110,#112,.T.);
#110 = VERTEX_POINT('',#111);
#111 = CARTESIAN_POINT('',(-142.5758924601,20.27888203867,4.755282581476
    ));
#112 = CIRCLE('',#113,5.);
#113 = AXIS2_PLACEMENT_3D('',#114,#115,#116);
#114 = CARTESIAN_POINT('',(-144.0275887648,20.807905109224,0.E+000));
#115 = DIRECTION('',(0.342390923596,0.939557584951,0.E+000));
#116 = DIRECTION('',(-0.939557584951,0.342390923596,0.E+000));
#117 = ORIENTED_EDGE('',*,*,#118,.F.);
#118 = EDGE_CURVE('',#119,#110,#121,.T.);
#119 = VERTEX_POINT('',#120);
#120 = CARTESIAN_POINT('',(-141.3775242275,23.567333585999,
    4.755282581476));
#121 = CIRCLE('',#122,5.);
#122 = AXIS2_PLACEMENT_3D('',#123,#124,#125);
#123 = CARTESIAN_POINT('',(-143.3365844214,22.418670014842,
    0.300773051005));
#124 = DIRECTION('',(0.893572363602,-0.325633119006,-0.309016994375));
#125 = DIRECTION('',(0.391812038776,0.229732714231,0.890901906094));
#126 = ORIENTED_EDGE('',*,*,#127,.F.);
#127 = EDGE_CURVE('',#128,#119,#130,.T.);
#128 = VERTEX_POINT('',#129);
#129 = CARTESIAN_POINT('',(-147.527008457,25.808311274531,0.E+000));
#130 = CIRCLE('',#131,5.);
#131 = AXIS2_PLACEMENT_3D('',#132,#133,#134);
#132 = CARTESIAN_POINT('',(-142.8292205322,24.096356656553,0.E+000));
#133 = DIRECTION('',(0.342390923596,0.939557584951,0.E+000));
#134 = DIRECTION('',(-0.939557584951,0.342390923596,0.E+000));
#135 = ORIENTED_EDGE('',*,*,#136,.F.);
#136 = EDGE_CURVE('',#137,#128,#139,.T.);
#137 = VERTEX_POINT('',#138);
#138 = CARTESIAN_POINT('',(-144.2809168369,24.625379727107,
    -4.755282581476));
#139 = CIRCLE('',#140,5.);
#140 = AXIS2_PLACEMENT_3D('',#141,#142,#143);
#141 = CARTESIAN_POINT('',(-142.8292205322,24.096356656553,0.E+000));
#142 = DIRECTION('',(0.342390923596,0.939557584951,0.E+000));
#143 = DIRECTION('',(-0.939557584951,0.342390923596,0.E+000));
#144 = ORIENTED_EDGE('',*,*,#145,.T.);
#145 = EDGE_CURVE('',#137,#77,#146,.T.);
#146 = CIRCLE('',#147,5.);
#147 = AXIS2_PLACEMENT_3D('',#148,#149,#150);
#148 = CARTESIAN_POINT('',(-143.5202248756,22.485591750935,
    -0.300773051005));
#149 = DIRECTION('',(-0.893572363602,0.325633119006,0.309016994375));
#150 = DIRECTION('',(-0.152138392259,0.427957595234,-0.890901906094));
#151 = SURFACE_OF_REVOLUTION('',#152,#157);
#152 = CIRCLE('',#153,5.);
#153 = AXIS2_PLACEMENT_3D('',#154,#155,#156);
#154 = CARTESIAN_POINT('',(-143.1458110471,22.349148920162,
    -9.772708836774E-002));
#155 = DIRECTION('',(0.290339260944,-0.105804614111,0.951056516295));
#156 = DIRECTION('',(0.893572363602,-0.325633119006,-0.309016994375));
#157 = AXIS1_PLACEMENT('',#158,#159);
#158 = CARTESIAN_POINT('',(-143.4284046485,22.452130882888,0.E+000));
#159 = DIRECTION('',(0.342390923596,0.939557584951,3.399077683617E-033)
  );
#160 = ADVANCED_FACE('',(#161),#205,.F.);
#161 = FACE_BOUND('',#162,.F.);
#162 = EDGE_LOOP('',(#163,#172,#173,#181,#190,#199));
#163 = ORIENTED_EDGE('',*,*,#164,.T.);
#164 = EDGE_CURVE('',#165,#137,#167,.T.);
#165 = VERTEX_POINT('',#166);
#166 = CARTESIAN_POINT('',(-138.1314326075,22.384402038574,
    6.123233995737E-016));
#167 = CIRCLE('',#168,5.);
#168 = AXIS2_PLACEMENT_3D('',#169,#170,#171);
#169 = CARTESIAN_POINT('',(-142.8292205322,24.096356656553,0.E+000));
#170 = DIRECTION('',(0.342390923596,0.939557584951,0.E+000));
#171 = DIRECTION('',(-0.939557584951,0.342390923596,0.E+000));
#172 = ORIENTED_EDGE('',*,*,#136,.T.);
#173 = ORIENTED_EDGE('',*,*,#174,.T.);
#174 = EDGE_CURVE('',#128,#175,#177,.T.);
#175 = VERTEX_POINT('',#176);
#176 = CARTESIAN_POINT('',(-125.8040065102,85.418569141897,0.E+000));
#177 = LINE('',#178,#179);
#178 = CARTESIAN_POINT('',(-147.527008457,25.808311274531,0.E+000));
#179 = VECTOR('',#180,1.);
#180 = DIRECTION('',(0.342390923596,0.939557584951,0.E+000));
#181 = ORIENTED_EDGE('',*,*,#182,.T.);
#182 = EDGE_CURVE('',#175,#183,#185,.T.);
#183 = VERTEX_POINT('',#184);
#184 = CARTESIAN_POINT('',(-119.6545222805,83.177591453955,
    -4.755282581476));
#185 = CIRCLE('',#186,5.);
#186 = AXIS2_PLACEMENT_3D('',#187,#188,#189);
#187 = CARTESIAN_POINT('',(-121.1062185855,83.706614523918,0.E+000));
#188 = DIRECTION('',(-0.342390923596,-0.939557584951,0.E+000));
#189 = DIRECTION('',(0.939557584951,-0.342390923596,0.E+000));
#190 = ORIENTED_EDGE('',*,*,#191,.T.);
#191 = EDGE_CURVE('',#183,#192,#194,.T.);
#192 = VERTEX_POINT('',#193);
#193 = CARTESIAN_POINT('',(-116.4084306607,81.99465990594,0.E+000));
#194 = CIRCLE('',#195,5.);
#195 = AXIS2_PLACEMENT_3D('',#196,#197,#198);
#196 = CARTESIAN_POINT('',(-121.1062185855,83.706614523918,0.E+000));
#197 = DIRECTION('',(-0.342390923596,-0.939557584951,0.E+000));
#198 = DIRECTION('',(0.939557584951,-0.342390923596,0.E+000));
#199 = ORIENTED_EDGE('',*,*,#200,.F.);
#200 = EDGE_CURVE('',#165,#192,#201,.T.);
#201 = LINE('',#202,#203);
#202 = CARTESIAN_POINT('',(-138.1314326075,22.384402038574,
    6.123233995737E-016));
#203 = VECTOR('',#204,1.);
#204 = DIRECTION('',(0.342390923596,0.939557584951,0.E+000));
#205 = CYLINDRICAL_SURFACE('',#206,5.);
#206 = AXIS2_PLACEMENT_3D('',#207,#208,#209);
#207 = CARTESIAN_POINT('',(-121.1062185866,83.706614520667,0.E+000));
#208 = DIRECTION('',(0.342390923596,0.939557584951,0.E+000));
#209 = DIRECTION('',(-2.628751808719E-016,9.579623155701E-017,1.));
#210 = ADVANCED_FACE('',(#211),#265,.T.);
#211 = FACE_BOUND('',#212,.T.);
#212 = EDGE_LOOP('',(#213,#223,#232,#241,#249,#258));
#213 = ORIENTED_EDGE('',*,*,#214,.F.);
#214 = EDGE_CURVE('',#215,#217,#219,.T.);
#215 = VERTEX_POINT('',#216);
#216 = CARTESIAN_POINT('',(-137.1329019318,22.203839629888,
    7.347880794884E-016));
#217 = VERTEX_POINT('',#218);
#218 = CARTESIAN_POINT('',(-115.4688730769,81.652268979093,
    7.347880794884E-016));
#219 = LINE('',#220,#221);
#220 = CARTESIAN_POINT('',(-137.1329019318,22.203839629888,
    7.347880794884E-016));
#221 = VECTOR('',#222,1.);
#222 = DIRECTION('',(0.342390923596,0.939557584951,0.E+000));
#223 = ORIENTED_EDGE('',*,*,#224,.T.);
#224 = EDGE_CURVE('',#215,#225,#227,.T.);
#225 = VERTEX_POINT('',#226);
#226 = CARTESIAN_POINT('',(-144.5122830072,24.893012856127,
    -5.706339097771));
#227 = CIRCLE('',#228,6.);
#228 = AXIS2_PLACEMENT_3D('',#229,#230,#231);
#229 = CARTESIAN_POINT('',(-142.7702474415,24.258185171462,0.E+000));
#230 = DIRECTION('',(0.342390923596,0.939557584951,0.E+000));
#231 = DIRECTION('',(-0.939557584951,0.342390923596,0.E+000));
#232 = ORIENTED_EDGE('',*,*,#233,.T.);
#233 = EDGE_CURVE('',#225,#234,#236,.T.);
#234 = VERTEX_POINT('',#235);
#235 = CARTESIAN_POINT('',(-148.4075929512,26.312530713036,0.E+000));
#236 = CIRCLE('',#237,6.);
#237 = AXIS2_PLACEMENT_3D('',#238,#239,#240);
#238 = CARTESIAN_POINT('',(-142.7702474415,24.258185171462,0.E+000));
#239 = DIRECTION('',(0.342390923596,0.939557584951,0.E+000));
#240 = DIRECTION('',(-0.939557584951,0.342390923596,0.E+000));
#241 = ORIENTED_EDGE('',*,*,#242,.T.);
#242 = EDGE_CURVE('',#234,#243,#245,.T.);
#243 = VERTEX_POINT('',#244);
#244 = CARTESIAN_POINT('',(-126.7435640964,85.760960062241,0.E+000));
#245 = LINE('',#246,#247);
#246 = CARTESIAN_POINT('',(-148.4075929512,26.312530713036,0.E+000));
#247 = VECTOR('',#248,1.);
#248 = DIRECTION('',(0.342390923596,0.939557584951,0.E+000));
#249 = ORIENTED_EDGE('',*,*,#250,.F.);
#250 = EDGE_CURVE('',#251,#243,#253,.T.);
#251 = VERTEX_POINT('',#252);
#252 = CARTESIAN_POINT('',(-119.364183021,83.071786836002,
    -5.706339097771));
#253 = CIRCLE('',#254,6.);
#254 = AXIS2_PLACEMENT_3D('',#255,#256,#257);
#255 = CARTESIAN_POINT('',(-121.1062185866,83.706614520667,0.E+000));
#256 = DIRECTION('',(0.342390923596,0.939557584951,0.E+000));
#257 = DIRECTION('',(-0.939557584951,0.342390923596,0.E+000));
#258 = ORIENTED_EDGE('',*,*,#259,.F.);
#259 = EDGE_CURVE('',#217,#251,#260,.T.);
#260 = CIRCLE('',#261,6.);
#261 = AXIS2_PLACEMENT_3D('',#262,#263,#264);
#262 = CARTESIAN_POINT('',(-121.1062185866,83.706614520667,0.E+000));
#263 = DIRECTION('',(0.342390923596,0.939557584951,0.E+000));
#264 = DIRECTION('',(-0.939557584951,0.342390923596,0.E+000));
#265 = CYLINDRICAL_SURFACE('',#266,6.);
#266 = AXIS2_PLACEMENT_3D('',#267,#268,#269);
#267 = CARTESIAN_POINT('',(-121.1062185866,83.706614520667,0.E+000));
#268 = DIRECTION('',(0.342390923596,0.939557584951,0.E+000));
#269 = DIRECTION('',(-6.686120794364E-017,2.436537271075E-017,1.));
#270 = ADVANCED_FACE('',(#271),#317,.T.);
#271 = FACE_BOUND('',#272,.T.);
#272 = EDGE_LOOP('',(#273,#282,#291,#300,#309,#316));
#273 = ORIENTED_EDGE('',*,*,#274,.T.);
#274 = EDGE_CURVE('',#225,#275,#277,.T.);
#275 = VERTEX_POINT('',#276);
#276 = CARTESIAN_POINT('',(-145.8285974212,21.28090427898,
    -5.706339097771));
#277 = CIRCLE('',#278,6.);
#278 = AXIS2_PLACEMENT_3D('',#279,#280,#281);
#279 = CARTESIAN_POINT('',(-143.5202248756,22.485591750935,
    -0.300773051005));
#280 = DIRECTION('',(-0.893572363602,0.325633119006,0.309016994375));
#281 = DIRECTION('',(-0.165343021922,0.401236850865,-0.900927674461));
#282 = ORIENTED_EDGE('',*,*,#283,.T.);
#283 = EDGE_CURVE('',#275,#284,#286,.T.);
#284 = VERTEX_POINT('',#285);
#285 = CARTESIAN_POINT('',(-149.7239073652,22.700422135889,0.E+000));
#286 = CIRCLE('',#287,6.);
#287 = AXIS2_PLACEMENT_3D('',#288,#289,#290);
#288 = CARTESIAN_POINT('',(-144.0865618555,20.646076594315,0.E+000));
#289 = DIRECTION('',(0.342390923596,0.939557584951,0.E+000));
#290 = DIRECTION('',(-0.939557584951,0.342390923596,0.E+000));
#291 = ORIENTED_EDGE('',*,*,#292,.T.);
#292 = EDGE_CURVE('',#284,#293,#295,.T.);
#293 = VERTEX_POINT('',#294);
#294 = CARTESIAN_POINT('',(-142.3445262898,20.01124890965,5.706339097771
    ));
#295 = CIRCLE('',#296,6.);
#296 = AXIS2_PLACEMENT_3D('',#297,#298,#299);
#297 = CARTESIAN_POINT('',(-144.0865618555,20.646076594315,0.E+000));
#298 = DIRECTION('',(0.342390923596,0.939557584951,0.E+000));
#299 = DIRECTION('',(-0.939557584951,0.342390923596,0.E+000));
#300 = ORIENTED_EDGE('',*,*,#301,.F.);
#301 = EDGE_CURVE('',#302,#293,#304,.T.);
#302 = VERTEX_POINT('',#303);
#303 = CARTESIAN_POINT('',(-141.0282118758,23.623357486797,
    5.706339097771));
#304 = CIRCLE('',#305,6.);
#305 = AXIS2_PLACEMENT_3D('',#306,#307,#308);
#306 = CARTESIAN_POINT('',(-143.3365844214,22.418670014842,
    0.300773051005));
#307 = DIRECTION('',(0.893572363602,-0.325633119006,-0.309016994375));
#308 = DIRECTION('',(0.384728757589,0.200781245326,0.900927674461));
#309 = ORIENTED_EDGE('',*,*,#310,.F.);
#310 = EDGE_CURVE('',#234,#302,#311,.T.);
#311 = CIRCLE('',#312,6.);
#312 = AXIS2_PLACEMENT_3D('',#313,#314,#315);
#313 = CARTESIAN_POINT('',(-142.7702474415,24.258185171462,0.E+000));
#314 = DIRECTION('',(0.342390923596,0.939557584951,0.E+000));
#315 = DIRECTION('',(-0.939557584951,0.342390923596,0.E+000));
#316 = ORIENTED_EDGE('',*,*,#233,.F.);
#317 = SURFACE_OF_REVOLUTION('',#318,#323);
#318 = CIRCLE('',#319,6.);
#319 = AXIS2_PLACEMENT_3D('',#320,#321,#322);
#320 = CARTESIAN_POINT('',(-143.1458110471,22.349148920162,
    -9.772708836774E-002));
#321 = DIRECTION('',(0.290339260944,-0.105804614111,0.951056516295));
#322 = DIRECTION('',(0.893572363602,-0.325633119006,-0.309016994375));
#323 = AXIS1_PLACEMENT('',#324,#325);
#324 = CARTESIAN_POINT('',(-143.4284046485,22.452130882888,0.E+000));
#325 = DIRECTION('',(0.342390923596,0.939557584951,3.399077683617E-033)
  );
#326 = ADVANCED_FACE('',(#327),#352,.T.);
#327 = FACE_BOUND('',#328,.T.);
#328 = EDGE_LOOP('',(#329,#337,#338,#344,#345));
#329 = ORIENTED_EDGE('',*,*,#330,.F.);
#330 = EDGE_CURVE('',#42,#331,#333,.T.);
#331 = VERTEX_POINT('',#332);
#332 = CARTESIAN_POINT('',(-138.4492163458,18.591731052741,
    7.347880794884E-016));
#333 = LINE('',#334,#335);
#334 = CARTESIAN_POINT('',(-139.4174160259,15.934886812796,
    7.347880794884E-016));
#335 = VECTOR('',#336,1.);
#336 = DIRECTION('',(0.342390923596,0.939557584951,0.E+000));
#337 = ORIENTED_EDGE('',*,*,#41,.T.);
#338 = ORIENTED_EDGE('',*,*,#339,.T.);
#339 = EDGE_CURVE('',#44,#284,#340,.T.);
#340 = LINE('',#341,#342);
#341 = CARTESIAN_POINT('',(-150.6921070453,20.043577895945,0.E+000));
#342 = VECTOR('',#343,1.);
#343 = DIRECTION('',(0.342390923596,0.939557584951,0.E+000));
#344 = ORIENTED_EDGE('',*,*,#283,.F.);
#345 = ORIENTED_EDGE('',*,*,#346,.F.);
#346 = EDGE_CURVE('',#331,#275,#347,.T.);
#347 = CIRCLE('',#348,6.);
#348 = AXIS2_PLACEMENT_3D('',#349,#350,#351);
#349 = CARTESIAN_POINT('',(-144.0865618555,20.646076594315,0.E+000));
#350 = DIRECTION('',(0.342390923596,0.939557584951,0.E+000));
#351 = DIRECTION('',(-0.939557584951,0.342390923596,0.E+000));
#352 = CYLINDRICAL_SURFACE('',#353,6.);
#353 = AXIS2_PLACEMENT_3D('',#354,#355,#356);
#354 = CARTESIAN_POINT('',(-121.1062185866,83.706614520667,0.E+000));
#355 = DIRECTION('',(0.342390923596,0.939557584951,0.E+000));
#356 = DIRECTION('',(-6.686120794364E-017,2.436537271075E-017,1.));
#357 = ADVANCED_FACE('',(#358),#421,.T.);
#358 = FACE_BOUND('',#359,.T.);
#359 = EDGE_LOOP('',(#360,#370,#379,#388,#397,#405,#414));
#360 = ORIENTED_EDGE('',*,*,#361,.F.);
#361 = EDGE_CURVE('',#362,#364,#366,.T.);
#362 = VERTEX_POINT('',#363);
#363 = CARTESIAN_POINT('',(-98.5568365444,99.48923235437,6.));
#364 = VERTEX_POINT('',#365);
#365 = CARTESIAN_POINT('',(57.94523846782,99.48923235437,6.));
#366 = LINE('',#367,#368);
#367 = CARTESIAN_POINT('',(-98.5568365444,99.48923235437,6.));
#368 = VECTOR('',#369,1.);
#369 = DIRECTION('',(1.,0.E+000,0.E+000));
#370 = ORIENTED_EDGE('',*,*,#371,.F.);
#371 = EDGE_CURVE('',#372,#362,#374,.T.);
#372 = VERTEX_POINT('',#373);
#373 = CARTESIAN_POINT('',(-98.5568365444,93.48923235437,0.E+000));
#374 = CIRCLE('',#375,6.);
#375 = AXIS2_PLACEMENT_3D('',#376,#377,#378);
#376 = CARTESIAN_POINT('',(-98.5568365444,99.48923235437,0.E+000));
#377 = DIRECTION('',(-1.,1.004751837286E-014,0.E+000));
#378 = DIRECTION('',(-1.004751837286E-014,-1.,0.E+000));
#379 = ORIENTED_EDGE('',*,*,#380,.F.);
#380 = EDGE_CURVE('',#381,#372,#383,.T.);
#381 = VERTEX_POINT('',#382);
#382 = CARTESIAN_POINT('',(-98.55683654786,97.635130388121,
    -5.706339097771));
#383 = CIRCLE('',#384,6.);
#384 = AXIS2_PLACEMENT_3D('',#385,#386,#387);
#385 = CARTESIAN_POINT('',(-98.5568365444,99.48923235437,0.E+000));
#386 = DIRECTION('',(-1.,1.004751837286E-014,0.E+000));
#387 = DIRECTION('',(-1.004751837286E-014,-1.,0.E+000));
#388 = ORIENTED_EDGE('',*,*,#389,.F.);
#389 = EDGE_CURVE('',#390,#381,#392,.T.);
#390 = VERTEX_POINT('',#391);
#391 = CARTESIAN_POINT('',(-98.5568365444,99.48923235437,-6.));
#392 = CIRCLE('',#393,6.);
#393 = AXIS2_PLACEMENT_3D('',#394,#395,#396);
#394 = CARTESIAN_POINT('',(-98.5568365444,99.48923235437,0.E+000));
#395 = DIRECTION('',(-1.,1.004751837286E-014,0.E+000));
#396 = DIRECTION('',(-1.004751837286E-014,-1.,0.E+000));
#397 = ORIENTED_EDGE('',*,*,#398,.T.);
#398 = EDGE_CURVE('',#390,#399,#401,.T.);
#399 = VERTEX_POINT('',#400);
#400 = CARTESIAN_POINT('',(57.94523846782,99.48923235437,-6.));
#401 = LINE('',#402,#403);
#402 = CARTESIAN_POINT('',(-98.5568365444,99.48923235437,-6.));
#403 = VECTOR('',#404,1.);
#404 = DIRECTION('',(1.,0.E+000,0.E+000));
#405 = ORIENTED_EDGE('',*,*,#406,.T.);
#406 = EDGE_CURVE('',#399,#407,#409,.T.);
#407 = VERTEX_POINT('',#408);
#408 = CARTESIAN_POINT('',(57.94523846782,93.48923235437,0.E+000));
#409 = CIRCLE('',#410,6.);
#410 = AXIS2_PLACEMENT_3D('',#411,#412,#413);
#411 = CARTESIAN_POINT('',(57.94523846782,99.48923235437,0.E+000));
#412 = DIRECTION('',(-1.,1.004751837286E-014,0.E+000));
#413 = DIRECTION('',(-1.004751837286E-014,-1.,0.E+000));
#414 = ORIENTED_EDGE('',*,*,#415,.T.);
#415 = EDGE_CURVE('',#407,#364,#416,.T.);
#416 = CIRCLE('',#417,6.);
#417 = AXIS2_PLACEMENT_3D('',#418,#419,#420);
#418 = CARTESIAN_POINT('',(57.94523846782,99.48923235437,0.E+000));
#419 = DIRECTION('',(-1.,1.004751837286E-014,0.E+000));
#420 = DIRECTION('',(-1.004751837286E-014,-1.,0.E+000));
#421 = CYLINDRICAL_SURFACE('',#422,6.);
#422 = AXIS2_PLACEMENT_3D('',#423,#424,#425);
#423 = CARTESIAN_POINT('',(-98.5568365444,99.48923235437,0.E+000));
#424 = DIRECTION('',(1.,0.E+000,0.E+000));
#425 = DIRECTION('',(-0.E+000,1.,3.828568698927E-016));
#426 = ADVANCED_FACE('',(#427),#490,.F.);
#427 = FACE_BOUND('',#428,.F.);
#428 = EDGE_LOOP('',(#429,#440,#449,#458,#466,#475,#484));
#429 = ORIENTED_EDGE('',*,*,#430,.F.);
#430 = EDGE_CURVE('',#431,#433,#435,.T.);
#431 = VERTEX_POINT('',#432);
#432 = CARTESIAN_POINT('',(-98.5568365444,94.48923235437,0.E+000));
#433 = VERTEX_POINT('',#434);
#434 = CARTESIAN_POINT('',(-98.5568365444,99.48923235437,5.));
#435 = CIRCLE('',#436,5.);
#436 = AXIS2_PLACEMENT_3D('',#437,#438,#439);
#437 = CARTESIAN_POINT('',(-98.5568365444,99.48923235437,0.E+000));
#438 = DIRECTION('',(-1.,1.004751837286E-014,0.E+000));
#439 = DIRECTION('',(-1.004751837286E-014,-1.,0.E+000));
#440 = ORIENTED_EDGE('',*,*,#441,.F.);
#441 = EDGE_CURVE('',#442,#431,#444,.T.);
#442 = VERTEX_POINT('',#443);
#443 = CARTESIAN_POINT('',(-98.55683654786,97.944147382496,
    -4.755282581476));
#444 = CIRCLE('',#445,5.);
#445 = AXIS2_PLACEMENT_3D('',#446,#447,#448);
#446 = CARTESIAN_POINT('',(-98.5568365444,99.48923235437,0.E+000));
#447 = DIRECTION('',(-1.,1.004751837286E-014,0.E+000));
#448 = DIRECTION('',(-1.004751837286E-014,-1.,0.E+000));
#449 = ORIENTED_EDGE('',*,*,#450,.F.);
#450 = EDGE_CURVE('',#451,#442,#453,.T.);
#451 = VERTEX_POINT('',#452);
#452 = CARTESIAN_POINT('',(-98.5568365444,99.48923235437,-5.));
#453 = CIRCLE('',#454,5.);
#454 = AXIS2_PLACEMENT_3D('',#455,#456,#457);
#455 = CARTESIAN_POINT('',(-98.5568365444,99.48923235437,0.E+000));
#456 = DIRECTION('',(-1.,1.004751837286E-014,0.E+000));
#457 = DIRECTION('',(-1.004751837286E-014,-1.,0.E+000));
#458 = ORIENTED_EDGE('',*,*,#459,.T.);
#459 = EDGE_CURVE('',#451,#460,#462,.T.);
#460 = VERTEX_POINT('',#461);
#461 = CARTESIAN_POINT('',(57.94523846782,99.48923235437,-5.));
#462 = LINE('',#463,#464);
#463 = CARTESIAN_POINT('',(-98.5568365444,99.48923235437,-5.));
#464 = VECTOR('',#465,1.);
#465 = DIRECTION('',(1.,0.E+000,0.E+000));
#466 = ORIENTED_EDGE('',*,*,#467,.T.);
#467 = EDGE_CURVE('',#460,#468,#470,.T.);
#468 = VERTEX_POINT('',#469);
#469 = CARTESIAN_POINT('',(57.94523846782,94.48923235437,0.E+000));
#470 = CIRCLE('',#471,5.);
#471 = AXIS2_PLACEMENT_3D('',#472,#473,#474);
#472 = CARTESIAN_POINT('',(57.94523846782,99.48923235437,0.E+000));
#473 = DIRECTION('',(-1.,1.004751837286E-014,0.E+000));
#474 = DIRECTION('',(-1.004751837286E-014,-1.,0.E+000));
#475 = ORIENTED_EDGE('',*,*,#476,.T.);
#476 = EDGE_CURVE('',#468,#477,#479,.T.);
#477 = VERTEX_POINT('',#478);
#478 = CARTESIAN_POINT('',(57.94523846782,99.48923235437,5.));
#479 = CIRCLE('',#480,5.);
#480 = AXIS2_PLACEMENT_3D('',#481,#482,#483);
#481 = CARTESIAN_POINT('',(57.94523846782,99.48923235437,0.E+000));
#482 = DIRECTION('',(-1.,1.004751837286E-014,0.E+000));
#483 = DIRECTION('',(-1.004751837286E-014,-1.,0.E+000));
#484 = ORIENTED_EDGE('',*,*,#485,.F.);
#485 = EDGE_CURVE('',#433,#477,#486,.T.);
#486 = LINE('',#487,#488);
#487 = CARTESIAN_POINT('',(-98.5568365444,99.48923235437,5.));
#488 = VECTOR('',#489,1.);
#489 = DIRECTION('',(1.,0.E+000,0.E+000));
#490 = CYLINDRICAL_SURFACE('',#491,5.);
#491 = AXIS2_PLACEMENT_3D('',#492,#493,#494);
#492 = CARTESIAN_POINT('',(-98.5568365444,99.48923235437,0.E+000));
#493 = DIRECTION('',(1.,0.E+000,0.E+000));
#494 = DIRECTION('',(0.E+000,1.,-6.123233995737E-017));
#495 = ADVANCED_FACE('',(#496),#533,.F.);
#496 = FACE_BOUND('',#497,.F.);
#497 = EDGE_LOOP('',(#498,#499,#500,#509,#518,#525,#526));
#498 = ORIENTED_EDGE('',*,*,#441,.T.);
#499 = ORIENTED_EDGE('',*,*,#430,.T.);
#500 = ORIENTED_EDGE('',*,*,#501,.T.);
#501 = EDGE_CURVE('',#433,#502,#504,.T.);
#502 = VERTEX_POINT('',#503);
#503 = CARTESIAN_POINT('',(-98.55683654786,101.03431732624,
    4.755282581476));
#504 = CIRCLE('',#505,5.);
#505 = AXIS2_PLACEMENT_3D('',#506,#507,#508);
#506 = CARTESIAN_POINT('',(-98.5568365444,99.48923235437,0.E+000));
#507 = DIRECTION('',(-1.,1.004751837286E-014,0.E+000));
#508 = DIRECTION('',(-1.004751837286E-014,-1.,0.E+000));
#509 = ORIENTED_EDGE('',*,*,#510,.T.);
#510 = EDGE_CURVE('',#502,#511,#513,.T.);
#511 = VERTEX_POINT('',#512);
#512 = CARTESIAN_POINT('',(-122.5579148898,84.235637595592,
    4.755282581476));
#513 = CIRCLE('',#514,25.545084971875);
#514 = AXIS2_PLACEMENT_3D('',#515,#516,#517);
#515 = CARTESIAN_POINT('',(-98.55683654786,75.48923235437,4.755282581476
    ));
#516 = DIRECTION('',(0.E+000,0.E+000,1.));
#517 = DIRECTION('',(5.563048520233E-016,1.,-0.E+000));
#518 = ORIENTED_EDGE('',*,*,#519,.F.);
#519 = EDGE_CURVE('',#192,#511,#520,.T.);
#520 = CIRCLE('',#521,5.);
#521 = AXIS2_PLACEMENT_3D('',#522,#523,#524);
#522 = CARTESIAN_POINT('',(-121.1062185855,83.706614523918,0.E+000));
#523 = DIRECTION('',(-0.342390923596,-0.939557584951,0.E+000));
#524 = DIRECTION('',(0.939557584951,-0.342390923596,0.E+000));
#525 = ORIENTED_EDGE('',*,*,#191,.F.);
#526 = ORIENTED_EDGE('',*,*,#527,.F.);
#527 = EDGE_CURVE('',#442,#183,#528,.T.);
#528 = CIRCLE('',#529,22.454915028125);
#529 = AXIS2_PLACEMENT_3D('',#530,#531,#532);
#530 = CARTESIAN_POINT('',(-98.55683654786,75.48923235437,
    -4.755282581476));
#531 = DIRECTION('',(0.E+000,-0.E+000,1.));
#532 = DIRECTION('',(0.E+000,1.,0.E+000));
#533 = TOROIDAL_SURFACE('',#534,24.,5.);
#534 = AXIS2_PLACEMENT_3D('',#535,#536,#537);
#535 = CARTESIAN_POINT('',(-98.55683654786,75.48923235437,0.E+000));
#536 = DIRECTION('',(0.E+000,0.E+000,1.));
#537 = DIRECTION('',(0.573414804584,-0.819265196309,0.E+000));
#538 = ADVANCED_FACE('',(#539),#576,.T.);
#539 = FACE_BOUND('',#540,.T.);
#540 = EDGE_LOOP('',(#541,#548,#549,#550,#559,#568,#575));
#541 = ORIENTED_EDGE('',*,*,#542,.F.);
#542 = EDGE_CURVE('',#381,#251,#543,.T.);
#543 = CIRCLE('',#544,22.14589803375);
#544 = AXIS2_PLACEMENT_3D('',#545,#546,#547);
#545 = CARTESIAN_POINT('',(-98.55683654786,75.48923235437,
    -5.706339097771));
#546 = DIRECTION('',(0.E+000,-0.E+000,1.));
#547 = DIRECTION('',(0.E+000,1.,0.E+000));
#548 = ORIENTED_EDGE('',*,*,#380,.T.);
#549 = ORIENTED_EDGE('',*,*,#371,.T.);
#550 = ORIENTED_EDGE('',*,*,#551,.T.);
#551 = EDGE_CURVE('',#362,#552,#554,.T.);
#552 = VERTEX_POINT('',#553);
#553 = CARTESIAN_POINT('',(-98.55683654786,101.34333432062,
    5.706339097771));
#554 = CIRCLE('',#555,6.);
#555 = AXIS2_PLACEMENT_3D('',#556,#557,#558);
#556 = CARTESIAN_POINT('',(-98.5568365444,99.48923235437,0.E+000));
#557 = DIRECTION('',(-1.,1.004751837286E-014,0.E+000));
#558 = DIRECTION('',(-1.004751837286E-014,-1.,0.E+000));
#559 = ORIENTED_EDGE('',*,*,#560,.T.);
#560 = EDGE_CURVE('',#552,#561,#563,.T.);
#561 = VERTEX_POINT('',#562);
#562 = CARTESIAN_POINT('',(-122.8482541523,84.341442205332,
    5.706339097771));
#563 = CIRCLE('',#564,25.85410196625);
#564 = AXIS2_PLACEMENT_3D('',#565,#566,#567);
#565 = CARTESIAN_POINT('',(-98.55683654786,75.48923235437,5.706339097771
    ));
#566 = DIRECTION('',(0.E+000,0.E+000,1.));
#567 = DIRECTION('',(5.496557077772E-016,1.,-0.E+000));
#568 = ORIENTED_EDGE('',*,*,#569,.T.);
#569 = EDGE_CURVE('',#561,#217,#570,.T.);
#570 = CIRCLE('',#571,6.);
#571 = AXIS2_PLACEMENT_3D('',#572,#573,#574);
#572 = CARTESIAN_POINT('',(-121.1062185866,83.706614520667,0.E+000));
#573 = DIRECTION('',(0.342390923596,0.939557584951,0.E+000));
#574 = DIRECTION('',(-0.939557584951,0.342390923596,0.E+000));
#575 = ORIENTED_EDGE('',*,*,#259,.T.);
#576 = TOROIDAL_SURFACE('',#577,24.,6.);
#577 = AXIS2_PLACEMENT_3D('',#578,#579,#580);
#578 = CARTESIAN_POINT('',(-98.55683654786,75.48923235437,0.E+000));
#579 = DIRECTION('',(0.E+000,0.E+000,1.));
#580 = DIRECTION('',(0.573414804659,-0.819265196257,0.E+000));
#581 = ADVANCED_FACE('',(#582,#593),#604,.F.);
#582 = FACE_BOUND('',#583,.F.);
#583 = EDGE_LOOP('',(#584,#585,#592));
#584 = ORIENTED_EDGE('',*,*,#467,.F.);
#585 = ORIENTED_EDGE('',*,*,#586,.F.);
#586 = EDGE_CURVE('',#477,#460,#587,.T.);
#587 = CIRCLE('',#588,5.);
#588 = AXIS2_PLACEMENT_3D('',#589,#590,#591);
#589 = CARTESIAN_POINT('',(57.94523846782,99.48923235437,0.E+000));
#590 = DIRECTION('',(-1.,1.004751837286E-014,0.E+000));
#591 = DIRECTION('',(-1.004751837286E-014,-1.,0.E+000));
#592 = ORIENTED_EDGE('',*,*,#476,.F.);
#593 = FACE_BOUND('',#594,.F.);
#594 = EDGE_LOOP('',(#595,#596,#603));
#595 = ORIENTED_EDGE('',*,*,#415,.T.);
#596 = ORIENTED_EDGE('',*,*,#597,.T.);
#597 = EDGE_CURVE('',#364,#399,#598,.T.);
#598 = CIRCLE('',#599,6.);
#599 = AXIS2_PLACEMENT_3D('',#600,#601,#602);
#600 = CARTESIAN_POINT('',(57.94523846782,99.48923235437,0.E+000));
#601 = DIRECTION('',(-1.,1.004751837286E-014,0.E+000));
#602 = DIRECTION('',(-1.004751837286E-014,-1.,0.E+000));
#603 = ORIENTED_EDGE('',*,*,#406,.T.);
#604 = PLANE('',#605);
#605 = AXIS2_PLACEMENT_3D('',#606,#607,#608);
#606 = CARTESIAN_POINT('',(57.94523846782,99.48923235437,0.E+000));
#607 = DIRECTION('',(-1.,1.004751837286E-014,0.E+000));
#608 = DIRECTION('',(-1.004751837286E-014,-1.,0.E+000));
#609 = ADVANCED_FACE('',(#610),#623,.F.);
#610 = FACE_BOUND('',#611,.F.);
#611 = EDGE_LOOP('',(#612,#619,#620,#621,#622));
#612 = ORIENTED_EDGE('',*,*,#613,.F.);
#613 = EDGE_CURVE('',#110,#86,#614,.T.);
#614 = CIRCLE('',#615,5.);
#615 = AXIS2_PLACEMENT_3D('',#616,#617,#618);
#616 = CARTESIAN_POINT('',(-144.0275887648,20.807905109224,0.E+000));
#617 = DIRECTION('',(0.342390923596,0.939557584951,0.E+000));
#618 = DIRECTION('',(-0.939557584951,0.342390923596,0.E+000));
#619 = ORIENTED_EDGE('',*,*,#109,.F.);
#620 = ORIENTED_EDGE('',*,*,#68,.F.);
#621 = ORIENTED_EDGE('',*,*,#21,.T.);
#622 = ORIENTED_EDGE('',*,*,#94,.T.);
#623 = CYLINDRICAL_SURFACE('',#624,5.);
#624 = AXIS2_PLACEMENT_3D('',#625,#626,#627);
#625 = CARTESIAN_POINT('',(-121.1062185866,83.706614520667,0.E+000));
#626 = DIRECTION('',(0.342390923596,0.939557584951,0.E+000));
#627 = DIRECTION('',(-6.686120794364E-017,2.436537271075E-017,-1.));
#628 = ADVANCED_FACE('',(#629),#643,.F.);
#629 = FACE_BOUND('',#630,.F.);
#630 = EDGE_LOOP('',(#631,#632,#639,#640,#641,#642));
#631 = ORIENTED_EDGE('',*,*,#164,.F.);
#632 = ORIENTED_EDGE('',*,*,#633,.F.);
#633 = EDGE_CURVE('',#119,#165,#634,.T.);
#634 = CIRCLE('',#635,5.);
#635 = AXIS2_PLACEMENT_3D('',#636,#637,#638);
#636 = CARTESIAN_POINT('',(-142.8292205322,24.096356656553,0.E+000));
#637 = DIRECTION('',(0.342390923596,0.939557584951,0.E+000));
#638 = DIRECTION('',(-0.939557584951,0.342390923596,0.E+000));
#639 = ORIENTED_EDGE('',*,*,#118,.T.);
#640 = ORIENTED_EDGE('',*,*,#613,.T.);
#641 = ORIENTED_EDGE('',*,*,#85,.T.);
#642 = ORIENTED_EDGE('',*,*,#145,.F.);
#643 = SURFACE_OF_REVOLUTION('',#644,#649);
#644 = CIRCLE('',#645,5.);
#645 = AXIS2_PLACEMENT_3D('',#646,#647,#648);
#646 = CARTESIAN_POINT('',(-143.7109982499,22.555112845615,
    9.772708836774E-002));
#647 = DIRECTION('',(-0.290339260944,0.105804614111,-0.951056516295));
#648 = DIRECTION('',(-0.893572363602,0.325633119006,0.309016994375));
#649 = AXIS1_PLACEMENT('',#650,#651);
#650 = CARTESIAN_POINT('',(-143.4284046485,22.452130882888,0.E+000));
#651 = DIRECTION('',(0.342390923596,0.939557584951,5.551115123126E-017)
  );
#652 = ADVANCED_FACE('',(#653),#667,.F.);
#653 = FACE_BOUND('',#654,.F.);
#654 = EDGE_LOOP('',(#655,#656,#663,#664,#665,#666));
#655 = ORIENTED_EDGE('',*,*,#519,.T.);
#656 = ORIENTED_EDGE('',*,*,#657,.T.);
#657 = EDGE_CURVE('',#511,#175,#658,.T.);
#658 = CIRCLE('',#659,5.);
#659 = AXIS2_PLACEMENT_3D('',#660,#661,#662);
#660 = CARTESIAN_POINT('',(-121.1062185855,83.706614523918,0.E+000));
#661 = DIRECTION('',(-0.342390923596,-0.939557584951,0.E+000));
#662 = DIRECTION('',(0.939557584951,-0.342390923596,0.E+000));
#663 = ORIENTED_EDGE('',*,*,#174,.F.);
#664 = ORIENTED_EDGE('',*,*,#127,.T.);
#665 = ORIENTED_EDGE('',*,*,#633,.T.);
#666 = ORIENTED_EDGE('',*,*,#200,.T.);
#667 = CYLINDRICAL_SURFACE('',#668,5.);
#668 = AXIS2_PLACEMENT_3D('',#669,#670,#671);
#669 = CARTESIAN_POINT('',(-121.1062185866,83.706614520667,0.E+000));
#670 = DIRECTION('',(0.342390923596,0.939557584951,0.E+000));
#671 = DIRECTION('',(-6.686120794364E-017,2.436537271075E-017,-1.));
#672 = ADVANCED_FACE('',(#673),#693,.T.);
#673 = FACE_BOUND('',#674,.T.);
#674 = EDGE_LOOP('',(#675,#676,#677,#684,#685,#686));
#675 = ORIENTED_EDGE('',*,*,#214,.T.);
#676 = ORIENTED_EDGE('',*,*,#569,.F.);
#677 = ORIENTED_EDGE('',*,*,#678,.F.);
#678 = EDGE_CURVE('',#243,#561,#679,.T.);
#679 = CIRCLE('',#680,6.);
#680 = AXIS2_PLACEMENT_3D('',#681,#682,#683);
#681 = CARTESIAN_POINT('',(-121.1062185866,83.706614520667,0.E+000));
#682 = DIRECTION('',(0.342390923596,0.939557584951,0.E+000));
#683 = DIRECTION('',(-0.939557584951,0.342390923596,0.E+000));
#684 = ORIENTED_EDGE('',*,*,#242,.F.);
#685 = ORIENTED_EDGE('',*,*,#310,.T.);
#686 = ORIENTED_EDGE('',*,*,#687,.T.);
#687 = EDGE_CURVE('',#302,#215,#688,.T.);
#688 = CIRCLE('',#689,6.);
#689 = AXIS2_PLACEMENT_3D('',#690,#691,#692);
#690 = CARTESIAN_POINT('',(-142.7702474415,24.258185171462,0.E+000));
#691 = DIRECTION('',(0.342390923596,0.939557584951,0.E+000));
#692 = DIRECTION('',(-0.939557584951,0.342390923596,0.E+000));
#693 = CYLINDRICAL_SURFACE('',#694,6.);
#694 = AXIS2_PLACEMENT_3D('',#695,#696,#697);
#695 = CARTESIAN_POINT('',(-121.1062185866,83.706614520667,0.E+000));
#696 = DIRECTION('',(0.342390923596,0.939557584951,0.E+000));
#697 = DIRECTION('',(-6.686120794364E-017,2.436537271075E-017,-1.));
#698 = ADVANCED_FACE('',(#699),#713,.T.);
#699 = FACE_BOUND('',#700,.T.);
#700 = EDGE_LOOP('',(#701,#702,#703,#704,#705,#712));
#701 = ORIENTED_EDGE('',*,*,#274,.F.);
#702 = ORIENTED_EDGE('',*,*,#224,.F.);
#703 = ORIENTED_EDGE('',*,*,#687,.F.);
#704 = ORIENTED_EDGE('',*,*,#301,.T.);
#705 = ORIENTED_EDGE('',*,*,#706,.T.);
#706 = EDGE_CURVE('',#293,#331,#707,.T.);
#707 = CIRCLE('',#708,6.);
#708 = AXIS2_PLACEMENT_3D('',#709,#710,#711);
#709 = CARTESIAN_POINT('',(-144.0865618555,20.646076594315,0.E+000));
#710 = DIRECTION('',(0.342390923596,0.939557584951,0.E+000));
#711 = DIRECTION('',(-0.939557584951,0.342390923596,0.E+000));
#712 = ORIENTED_EDGE('',*,*,#346,.T.);
#713 = SURFACE_OF_REVOLUTION('',#714,#719);
#714 = CIRCLE('',#715,6.);
#715 = AXIS2_PLACEMENT_3D('',#716,#717,#718);
#716 = CARTESIAN_POINT('',(-143.7109982499,22.555112845615,
    9.772708836774E-002));
#717 = DIRECTION('',(-0.290339260944,0.105804614111,-0.951056516295));
#718 = DIRECTION('',(-0.893572363602,0.325633119006,0.309016994375));
#719 = AXIS1_PLACEMENT('',#720,#721);
#720 = CARTESIAN_POINT('',(-143.4284046485,22.452130882888,0.E+000));
#721 = DIRECTION('',(0.342390923596,0.939557584951,5.551115123126E-017)
  );
#722 = ADVANCED_FACE('',(#723),#730,.T.);
#723 = FACE_BOUND('',#724,.T.);
#724 = EDGE_LOOP('',(#725,#726,#727,#728,#729));
#725 = ORIENTED_EDGE('',*,*,#330,.T.);
#726 = ORIENTED_EDGE('',*,*,#706,.F.);
#727 = ORIENTED_EDGE('',*,*,#292,.F.);
#728 = ORIENTED_EDGE('',*,*,#339,.F.);
#729 = ORIENTED_EDGE('',*,*,#52,.T.);
#730 = CYLINDRICAL_SURFACE('',#731,6.);
#731 = AXIS2_PLACEMENT_3D('',#732,#733,#734);
#732 = CARTESIAN_POINT('',(-121.1062185866,83.706614520667,0.E+000));
#733 = DIRECTION('',(0.342390923596,0.939557584951,0.E+000));
#734 = DIRECTION('',(-6.686120794364E-017,2.436537271075E-017,-1.));
#735 = ADVANCED_FACE('',(#736),#749,.T.);
#736 = FACE_BOUND('',#737,.T.);
#737 = EDGE_LOOP('',(#738,#739,#740,#741,#748));
#738 = ORIENTED_EDGE('',*,*,#361,.T.);
#739 = ORIENTED_EDGE('',*,*,#597,.T.);
#740 = ORIENTED_EDGE('',*,*,#398,.F.);
#741 = ORIENTED_EDGE('',*,*,#742,.F.);
#742 = EDGE_CURVE('',#552,#390,#743,.T.);
#743 = CIRCLE('',#744,6.);
#744 = AXIS2_PLACEMENT_3D('',#745,#746,#747);
#745 = CARTESIAN_POINT('',(-98.5568365444,99.48923235437,0.E+000));
#746 = DIRECTION('',(-1.,1.004751837286E-014,0.E+000));
#747 = DIRECTION('',(-1.004751837286E-014,-1.,0.E+000));
#748 = ORIENTED_EDGE('',*,*,#551,.F.);
#749 = CYLINDRICAL_SURFACE('',#750,6.);
#750 = AXIS2_PLACEMENT_3D('',#751,#752,#753);
#751 = CARTESIAN_POINT('',(-98.5568365444,99.48923235437,0.E+000));
#752 = DIRECTION('',(1.,0.E+000,0.E+000));
#753 = DIRECTION('',(0.E+000,-1.,1.608122649677E-016));
#754 = ADVANCED_FACE('',(#755),#768,.F.);
#755 = FACE_BOUND('',#756,.F.);
#756 = EDGE_LOOP('',(#757,#758,#759,#766,#767));
#757 = ORIENTED_EDGE('',*,*,#586,.T.);
#758 = ORIENTED_EDGE('',*,*,#459,.F.);
#759 = ORIENTED_EDGE('',*,*,#760,.F.);
#760 = EDGE_CURVE('',#502,#451,#761,.T.);
#761 = CIRCLE('',#762,5.);
#762 = AXIS2_PLACEMENT_3D('',#763,#764,#765);
#763 = CARTESIAN_POINT('',(-98.5568365444,99.48923235437,0.E+000));
#764 = DIRECTION('',(-1.,1.004751837286E-014,0.E+000));
#765 = DIRECTION('',(-1.004751837286E-014,-1.,0.E+000));
#766 = ORIENTED_EDGE('',*,*,#501,.F.);
#767 = ORIENTED_EDGE('',*,*,#485,.T.);
#768 = CYLINDRICAL_SURFACE('',#769,5.);
#769 = AXIS2_PLACEMENT_3D('',#770,#771,#772);
#770 = CARTESIAN_POINT('',(-98.5568365444,99.48923235437,0.E+000));
#771 = DIRECTION('',(1.,0.E+000,0.E+000));
#772 = DIRECTION('',(0.E+000,-1.,-6.123233995737E-017));
#773 = ADVANCED_FACE('',(#774),#782,.F.);
#774 = FACE_BOUND('',#775,.F.);
#775 = EDGE_LOOP('',(#776,#777,#778,#779,#780,#781));
#776 = ORIENTED_EDGE('',*,*,#182,.F.);
#777 = ORIENTED_EDGE('',*,*,#657,.F.);
#778 = ORIENTED_EDGE('',*,*,#510,.F.);
#779 = ORIENTED_EDGE('',*,*,#760,.T.);
#780 = ORIENTED_EDGE('',*,*,#450,.T.);
#781 = ORIENTED_EDGE('',*,*,#527,.T.);
#782 = TOROIDAL_SURFACE('',#783,24.,5.);
#783 = AXIS2_PLACEMENT_3D('',#784,#785,#786);
#784 = CARTESIAN_POINT('',(-98.55683654786,75.48923235437,0.E+000));
#785 = DIRECTION('',(0.E+000,0.E+000,1.));
#786 = DIRECTION('',(0.573414804584,-0.819265196309,0.E+000));
#787 = ADVANCED_FACE('',(#788),#796,.T.);
#788 = FACE_BOUND('',#789,.T.);
#789 = EDGE_LOOP('',(#790,#791,#792,#793,#794,#795));
#790 = ORIENTED_EDGE('',*,*,#542,.T.);
#791 = ORIENTED_EDGE('',*,*,#250,.T.);
#792 = ORIENTED_EDGE('',*,*,#678,.T.);
#793 = ORIENTED_EDGE('',*,*,#560,.F.);
#794 = ORIENTED_EDGE('',*,*,#742,.T.);
#795 = ORIENTED_EDGE('',*,*,#389,.T.);
#796 = TOROIDAL_SURFACE('',#797,24.,6.);
#797 = AXIS2_PLACEMENT_3D('',#798,#799,#800);
#798 = CARTESIAN_POINT('',(-98.55683654786,75.48923235437,0.E+000));
#799 = DIRECTION('',(0.E+000,0.E+000,1.));
#800 = DIRECTION('',(0.573414804659,-0.819265196257,0.E+000));
#801 = ( GEOMETRIC_REPRESENTATION_CONTEXT(3) 
GLOBAL_UNCERTAINTY_ASSIGNED_CONTEXT((#805)) GLOBAL_UNIT_ASSIGNED_CONTEXT
((#802,#803,#804)) REPRESENTATION_CONTEXT('Context #1',
  '3D Context with UNIT and UNCERTAINTY') );
#802 = ( LENGTH_UNIT() NAMED_UNIT(*) SI_UNIT(.MILLI.,.METRE.) );
#803 = ( NAMED_UNIT(*) PLANE_ANGLE_UNIT() SI_UNIT($,.RADIAN.) );
#804 = ( NAMED_UNIT(*) SI_UNIT($,.STERADIAN.) SOLID_ANGLE_UNIT() );
#805 = UNCERTAINTY_MEASURE_WITH_UNIT(LENGTH_MEASURE(1.E-005),#802,
  'distance_accuracy_value','confusion accuracy');
#806 = PRODUCT_RELATED_PRODUCT_CATEGORY('part',$,(#7));
#807 = MECHANICAL_DESIGN_GEOMETRIC_PRESENTATION_REPRESENTATION('',(#808)
  ,#801);
#808 = STYLED_ITEM('color',(#809),#15);
#809 = PRESENTATION_STYLE_ASSIGNMENT((#810,#816));
#810 = SURFACE_STYLE_USAGE(.BOTH.,#811);
#811 = SURFACE_SIDE_STYLE('',(#812));
#812 = SURFACE_STYLE_FILL_AREA(#813);
#813 = FILL_AREA_STYLE('',(#814));
#814 = FILL_AREA_STYLE_COLOUR('',#815);
#815 = COLOUR_RGB('',0.792156867455,0.819607826924,0.933333342953);
#816 = CURVE_STYLE('',#817,POSITIVE_LENGTH_MEASURE(0.1),#815);
#817 = DRAUGHTING_PRE_DEFINED_CURVE_FONT('continuous');
ENDSEC;
END-ISO-10303-21;
